<?xml version="1.0" encoding="utf-8"?>
<!-- Generator: Adobe Illustrator 25.0.1, SVG Export Plug-In . SVG Version: 6.00 Build 0)  -->
<svg version="1.1" id="Layer_1" xmlns="http://www.w3.org/2000/svg" xmlns:xlink="http://www.w3.org/1999/xlink" x="0px" y="0px"
	 viewBox="0 0 40 39" style="enable-background:new 0 0 40 39;" xml:space="preserve">
<style type="text/css">
	.st0{fill:#56BBE8;}
	.st1{fill:#FFFFFF;}
	.st2{fill:#9D6BBD;}
</style>
<path class="st0" d="M36.5,7.99v21.88h-7.92c0,0,1.05-3.39,0.98-5.23v-8.21l-9.51-4.46l-9.59,4.46v8.2
	c0.01,1.84,1.05,5.58,1.05,5.58h-8V7.99L36.5,7.99z"/>
<path class="st1" d="M39.97,6.25H0.03V0h39.94V6.25z M1.77,4.86h36.47V1.74H1.77V4.86z"/>
<rect x="3.85" y="2.43" class="st1" width="1.74" height="1.74"/>
<rect x="6.98" y="2.43" class="st1" width="1.74" height="1.74"/>
<rect x="10.1" y="2.43" class="st1" width="1.74" height="1.74"/>
<polygon class="st1" points="39.97,33.34 27.12,33.34 27.12,31.61 38.23,31.61 38.23,6.25 1.77,6.25 1.77,31.61 12.88,31.61 
	12.88,33.34 0.03,33.34 0.03,4.86 39.97,4.86 "/>
<path class="st2" d="M25.3,24.7c0,2.99-2.49,5.39-5.5,5.26c-2.68-0.12-4.88-2.32-5.01-5c-0.14-3.02,2.26-5.51,5.25-5.51h0
	C22.94,19.45,25.3,21.8,25.3,24.7"/>
<polygon class="st1" points="19.51,27.48 16.93,24.9 18.06,23.77 19.51,25.22 22.03,22.7 23.16,23.83 "/>
<path class="st1" d="M20.17,39l-0.26-0.09C13.83,36.8,9.76,31.07,9.75,24.63v-8.75l10.42-4.85l10.42,4.85v8.75
	c0,6.44-4.08,12.16-10.16,14.28L20.17,39z M11.14,16.88v7.75c0,5.67,3.53,10.74,8.85,12.71c5.32-1.96,8.86-7.04,8.86-12.71v-7.75
	l-8.85-4.12L11.14,16.88z"/>
<rect x="19.13" y="11.81" class="st1" width="1.74" height="3.82"/>
<rect x="19.13" y="34.38" class="st1" width="1.74" height="3.82"/>
</svg>
