<?xml version="1.0" encoding="utf-8"?>
<!-- Generator: Adobe Illustrator 25.0.1, SVG Export Plug-In . SVG Version: 6.00 Build 0)  -->
<svg version="1.1" id="Layer_1" xmlns="http://www.w3.org/2000/svg" xmlns:xlink="http://www.w3.org/1999/xlink" x="0px" y="0px"
	 viewBox="0 0 40 41" style="enable-background:new 0 0 40 41;" xml:space="preserve">
<style type="text/css">
	.st0{fill:#FFFFFF;}
	.st1{fill:#56BBE8;}
</style>
<g>
	<path class="st0" d="M39.97,41H0.03v-4.59h39.94V41z M1.8,39.23h36.76v-1.41H1.8V39.23z"/>
	<path class="st0" d="M39.97,21.21H0.03v-4.59h39.94V21.21z M1.8,19.44h36.76v-1.41H1.8V19.44z"/>
	<rect x="35.38" y="22.62" class="st0" width="1.77" height="12.02"/>
	<rect x="30.78" y="22.62" class="st0" width="1.77" height="12.02"/>
	<rect x="26.19" y="22.62" class="st0" width="1.77" height="12.02"/>
	<rect x="21.59" y="22.62" class="st0" width="1.77" height="12.02"/>
	<rect x="17" y="22.62" class="st0" width="1.77" height="12.02"/>
	<rect x="12.4" y="22.62" class="st0" width="1.77" height="12.02"/>
	<rect x="7.81" y="22.62" class="st0" width="1.77" height="12.02"/>
	<rect x="2.86" y="22.62" class="st0" width="1.77" height="12.02"/>
	<polygon class="st0" points="35.65,17.87 20.07,2.3 4.49,17.87 3.35,16.73 20.07,0 36.8,16.73 	"/>
	<path class="st1" d="M23.71,11.12c0,2.18-1.89,3.92-4.11,3.67c-1.69-0.19-3.06-1.56-3.25-3.25c-0.25-2.23,1.49-4.11,3.67-4.11h0
		C22.06,7.42,23.71,9.08,23.71,11.12L23.71,11.12z"/>
</g>
</svg>
