<?xml version="1.0" encoding="utf-8"?>
<!-- Generator: Adobe Illustrator 25.0.1, SVG Export Plug-In . SVG Version: 6.00 Build 0)  -->
<svg version="1.1" id="Layer_1" xmlns="http://www.w3.org/2000/svg" xmlns:xlink="http://www.w3.org/1999/xlink" x="0px" y="0px"
	 viewBox="0 0 40 45" style="enable-background:new 0 0 40 45;" xml:space="preserve">
<style type="text/css">
	.st0{fill:#FFFFFF;}
	.st1{fill:#9D6BBD;}
	.st2{fill:#56BBE8;}
</style>
<polygon class="st0" points="40,38.09 36.26,38.09 36.26,36.22 38.13,36.22 38.13,31.36 36.26,31.36 36.26,29.87 40,29.87 "/>
<rect x="36.26" y="7.44" class="st1" width="3.74" height="8.22"/>
<polygon class="st0" points="40,26.88 36.26,26.88 36.26,25.01 38.13,25.01 38.13,20.15 36.26,20.15 36.26,18.65 40,18.65 "/>
<rect x="7.85" y="1.08" class="st2" width="28.41" height="14.21"/>
<rect x="7.85" y="29.87" class="st2" width="28.41" height="14.21"/>
<path class="st0" d="M37.01,44.82H6.73V0.34h30.28V44.82z M8.6,43.33h26.92V2.21H8.6V43.33z"/>
<path class="st0" d="M8.6,44.82H0V0.34h8.6V44.82z M1.5,43.33h5.23V2.21H1.5V43.33z"/>
<rect x="17.2" y="18.28" class="st0" width="9.35" height="1.87"/>
<rect x="12.71" y="21.65" class="st0" width="18.32" height="1.87"/>
<rect x="12.71" y="25.01" class="st0" width="18.32" height="1.87"/>
<rect x="3.36" y="10.8" class="st0" width="1.87" height="1.87"/>
<rect x="3.36" y="14.54" class="st0" width="1.87" height="1.87"/>
<rect x="3.36" y="18.28" class="st0" width="1.87" height="1.87"/>
<rect x="3.36" y="21.65" class="st0" width="1.87" height="1.87"/>
<rect x="3.36" y="25.38" class="st0" width="1.87" height="1.87"/>
<rect x="3.36" y="28.75" class="st0" width="1.87" height="1.87"/>
<rect x="3.36" y="32.49" class="st0" width="1.87" height="1.87"/>
</svg>
