<?xml version="1.0" encoding="utf-8"?>
<!-- Generator: Adobe Illustrator 25.0.1, SVG Export Plug-In . SVG Version: 6.00 Build 0)  -->
<svg version="1.1" id="Layer_1" xmlns="http://www.w3.org/2000/svg" xmlns:xlink="http://www.w3.org/1999/xlink" x="0px" y="0px"
	 viewBox="0 0 34.29 34.29" style="enable-background:new 0 0 34.29 34.29;" xml:space="preserve">
<style type="text/css">
	.st0{fill:#2B2D71;}
	.st1{fill:#9D6BBD;}
	.st2{fill:#56BBE8;}
</style>
<path class="st0" d="M34.29,27.99c-0.02,0.05-0.05,0.1-0.07,0.15c-0.31,1.11-1.18,1.77-2.34,1.78c-0.96,0-1.92,0-2.88,0
	c-0.12,0-0.24,0-0.4,0c0.12,0.85,0.2,1.67,0.37,2.47c0.19,0.89-0.47,1.85-1.57,1.9c-0.02,0-0.04,0-0.07,0c-6.8,0-13.6,0-20.39,0
	c-1,0-1.75-0.82-1.63-1.75c0.05-0.35,0.11-0.71,0.16-1.06c0.07-0.5,0.14-1.01,0.22-1.55c-0.37,0-0.71,0-1.06,0
	c-0.75,0-1.5,0.01-2.24,0C1,29.91,0,28.9,0,27.52c0-2.9,0-5.8,0-8.71c0-2.37,1.79-4.17,4.18-4.17c4.71,0,9.42,0,14.13,0
	c3.87,0,7.75,0.04,11.62-0.02c2.38-0.03,4.07,1.65,4.32,3.5c0,0.03,0.03,0.06,0.05,0.09C34.29,21.48,34.29,24.74,34.29,27.99z
	 M6.56,23.98c-0.5,0-0.98-0.01-1.45,0c-0.38,0.01-0.57,0.2-0.59,0.58c-0.01,0.23,0,0.47,0,0.7c0,0.51,0.1,0.62,0.61,0.74
	c0.31,0.07,0.49,0.3,0.45,0.6c-0.03,0.28-0.24,0.45-0.56,0.46c-0.73,0.01-1.41-0.56-1.52-1.3c-0.05-0.35-0.04-0.71-0.04-1.07
	c0-1.13,0.65-1.79,1.79-1.79c3.79,0,7.59,0,11.38,0c4.18,0,8.37,0,12.55,0c1.02,0,1.7,0.67,1.71,1.7c0,0.3,0.01,0.6,0,0.9
	c-0.03,0.81-0.67,1.49-1.44,1.55c-0.4,0.03-0.66-0.14-0.7-0.46c-0.04-0.32,0.16-0.55,0.56-0.61c0.32-0.05,0.48-0.23,0.5-0.53
	c0.02-0.31,0.01-0.63,0-0.94c-0.01-0.28-0.15-0.51-0.43-0.52c-0.54-0.03-1.08-0.01-1.64-0.01c0.23,1.57,0.45,3.1,0.67,4.64
	c0.03,0.22,0.15,0.23,0.32,0.23c1.05,0,2.1,0,3.15,0c0.84-0.01,1.35-0.53,1.35-1.37c0-2.89,0-5.78,0-8.67
	c0-0.29-0.03-0.58-0.11-0.86c-0.36-1.37-1.54-2.23-3.04-2.23c-8.62,0-17.23,0-25.85,0c-0.08,0-0.16,0-0.23,0
	c-1.63,0.07-2.9,1.36-2.91,2.99c-0.01,2.95-0.01,5.89,0,8.84c0,0.7,0.46,1.26,1.15,1.28c1.19,0.04,2.39,0.01,3.62,0.01
	C6.08,27.23,6.32,25.62,6.56,23.98z M7.65,23.99c-0.03,0.18-0.05,0.33-0.08,0.49c-0.25,1.7-0.49,3.4-0.74,5.1
	c-0.15,1.01-0.31,2.03-0.46,3.04c-0.04,0.31,0.14,0.54,0.45,0.59c0.11,0.02,0.22,0.01,0.33,0.01c6.65,0,13.3,0,19.95,0
	c0.08,0,0.16,0,0.23,0c0.42-0.03,0.61-0.27,0.54-0.69c-0.28-1.93-0.56-3.86-0.84-5.79c-0.13-0.91-0.27-1.82-0.4-2.74
	C20.31,23.99,13.99,23.99,7.65,23.99z"/>
<path class="st0" d="M22.97,0c0.35,0.25,0.73,0.46,1.05,0.75c1.01,0.92,1.98,1.87,2.99,2.79c0.45,0.41,0.66,0.89,0.65,1.5
	c-0.02,2.59-0.01,5.18-0.01,7.77c0,0.07,0,0.13,0,0.2c-0.01,0.39-0.23,0.63-0.55,0.63c-0.32-0.01-0.52-0.25-0.52-0.65
	c0-2.33,0-4.67,0-7c0-0.13,0-0.26,0-0.44c-0.56,0-1.09,0.01-1.62,0c-0.43-0.01-0.87,0.02-1.3-0.05c-1.06-0.15-1.72-0.92-1.75-1.99
	c-0.02-0.69-0.01-1.38-0.01-2.08c0-0.11,0-0.22,0-0.36c-0.15,0-0.27,0-0.39,0c-4.4,0-8.8,0-13.19,0c-0.52,0-0.6,0.09-0.6,0.6
	c0,3.71,0,7.41,0,11.12c0,0.11,0.01,0.22,0,0.33c-0.03,0.29-0.24,0.51-0.52,0.51c-0.3-0.01-0.48-0.18-0.53-0.46
	c-0.02-0.12-0.01-0.24-0.01-0.37c0-3.66,0.01-7.32-0.01-10.98C6.62,0.93,6.92,0.31,7.77,0C12.84,0,17.91,0,22.97,0z M22.97,1.21
	c0,0.78-0.01,1.47,0,2.16c0.01,0.74,0.38,1.11,1.11,1.12c0.69,0.01,1.38,0,2.07,0c0.07,0,0.13-0.02,0.25-0.04
	C25.25,3.36,24.15,2.32,22.97,1.21z"/>
<path class="st1" d="M17.14,8.05c-1.92,0-3.84,0-5.76,0c-0.12,0-0.25,0.01-0.37-0.01c-0.26-0.05-0.41-0.22-0.43-0.49
	c-0.02-0.25,0.1-0.44,0.34-0.52c0.13-0.04,0.28-0.05,0.43-0.05c3.86,0,7.72,0,11.59,0c0.12,0,0.25,0,0.36,0.03
	c0.27,0.07,0.42,0.27,0.4,0.54C23.68,7.82,23.52,8,23.24,8.04c-0.11,0.02-0.22,0.01-0.33,0.01C20.98,8.05,19.06,8.05,17.14,8.05z"/>
<path class="st1" d="M17.12,10.45c-1.91,0-3.81,0-5.72,0c-0.11,0-0.22,0.01-0.33-0.01c-0.28-0.04-0.45-0.2-0.48-0.48
	C10.56,9.67,10.72,9.48,11,9.4c0.1-0.03,0.22-0.02,0.33-0.02c3.88,0,7.76,0,11.64,0c0.02,0,0.04,0,0.07,0
	c0.42,0.01,0.67,0.21,0.67,0.54c0,0.34-0.24,0.53-0.67,0.53C21.07,10.45,19.09,10.45,17.12,10.45z"/>
<path class="st1" d="M15.86,12.87c-1.52,0-3.03,0-4.55,0c-0.14,0-0.33,0.01-0.42-0.07c-0.14-0.13-0.29-0.33-0.29-0.5
	c0-0.15,0.18-0.33,0.33-0.44c0.1-0.07,0.28-0.06,0.42-0.06c3.01,0,6.02,0,9.03,0c0.07,0,0.13,0,0.2,0c0.34,0.02,0.57,0.25,0.57,0.54
	c0,0.3-0.24,0.52-0.58,0.53c-0.9,0.01-1.81,0-2.71,0C17.2,12.87,16.53,12.87,15.86,12.87z"/>
<path class="st1" d="M13.52,5.32c-0.76,0-1.52,0-2.27,0c-0.42,0-0.67-0.2-0.67-0.53c0-0.33,0.24-0.53,0.67-0.53
	c1.53,0,3.05-0.01,4.58,0c0.47,0,0.75,0.31,0.63,0.68c-0.09,0.28-0.31,0.39-0.6,0.39C15.08,5.32,14.3,5.32,13.52,5.32z"/>
<path class="st2" d="M6.56,23.98c-0.24,1.64-0.47,3.25-0.71,4.87c-1.23,0-2.43,0.03-3.62-0.01c-0.69-0.02-1.15-0.58-1.15-1.28
	c0-2.95-0.01-5.89,0-8.84c0.01-1.63,1.28-2.93,2.91-2.99c0.08,0,0.16,0,0.23,0c8.62,0,17.23,0,25.85,0c1.5,0,2.68,0.86,3.04,2.23
	c0.07,0.28,0.11,0.57,0.11,0.86c0.01,2.89,0.01,5.78,0,8.67c0,0.84-0.51,1.36-1.35,1.37c-1.05,0.01-2.1,0-3.15,0
	c-0.17,0-0.29-0.01-0.32-0.23c-0.21-1.53-0.44-3.07-0.67-4.64c0.56,0,1.1-0.02,1.64,0.01c0.27,0.02,0.42,0.25,0.43,0.52
	c0.01,0.31,0.01,0.63,0,0.94c-0.02,0.3-0.18,0.49-0.5,0.53c-0.4,0.06-0.6,0.29-0.56,0.61c0.04,0.32,0.3,0.49,0.7,0.46
	c0.77-0.06,1.41-0.74,1.44-1.55c0.01-0.3,0.01-0.6,0-0.9c-0.01-1.02-0.68-1.69-1.71-1.7c-4.18,0-8.37,0-12.55,0
	c-3.79,0-7.59,0-11.38,0c-1.13,0-1.79,0.65-1.79,1.79c0,0.36-0.01,0.72,0.04,1.07c0.11,0.74,0.8,1.31,1.52,1.3
	c0.32,0,0.53-0.17,0.56-0.46c0.04-0.3-0.14-0.53-0.45-0.6c-0.51-0.11-0.61-0.23-0.61-0.74c0-0.23-0.01-0.47,0-0.7
	c0.02-0.38,0.22-0.57,0.59-0.58C5.58,23.97,6.06,23.98,6.56,23.98z M26.97,19.01c-0.01,1.05,0.81,1.88,1.85,1.89
	c1.04,0.01,1.88-0.82,1.89-1.85c0.02-1.01-0.84-1.89-1.86-1.89C27.83,17.14,26.98,17.98,26.97,19.01z M9.65,19.56
	c0.29-0.01,0.53-0.25,0.53-0.54c0-0.28-0.26-0.53-0.55-0.52c-0.29,0.01-0.53,0.25-0.52,0.54C9.12,19.34,9.35,19.57,9.65,19.56z
	 M7.81,19.03c0-0.29-0.25-0.53-0.53-0.53c-0.29,0-0.53,0.24-0.52,0.54c0,0.3,0.23,0.53,0.53,0.53C7.57,19.56,7.81,19.32,7.81,19.03z
	 M5.45,19.04c0.01-0.29-0.23-0.54-0.52-0.54c-0.29-0.01-0.53,0.23-0.53,0.52c0,0.3,0.22,0.54,0.51,0.54
	C5.21,19.56,5.45,19.33,5.45,19.04z"/>
<path class="st2" d="M22.97,1.21c1.18,1.11,2.29,2.15,3.43,3.23c-0.11,0.02-0.18,0.04-0.25,0.04c-0.69,0-1.38,0.01-2.07,0
	c-0.74-0.01-1.11-0.38-1.11-1.12C22.96,2.68,22.97,2,22.97,1.21z"/>
<path class="st0" d="M26.97,19.01c0.01-1.03,0.85-1.87,1.88-1.86c1.02,0.01,1.88,0.88,1.86,1.89c-0.02,1.04-0.86,1.86-1.89,1.85
	C27.78,20.89,26.96,20.06,26.97,19.01z M28.85,19.83c0.45-0.01,0.8-0.37,0.79-0.82c-0.01-0.43-0.37-0.78-0.79-0.79
	c-0.44-0.01-0.8,0.36-0.8,0.8C28.05,19.48,28.4,19.83,28.85,19.83z"/>
<path class="st0" d="M9.65,19.56c-0.3,0.01-0.53-0.22-0.54-0.52C9.1,18.75,9.34,18.5,9.63,18.5c0.28,0,0.54,0.24,0.55,0.52
	C10.18,19.31,9.94,19.55,9.65,19.56z"/>
<path class="st0" d="M7.81,19.03c0,0.29-0.24,0.53-0.53,0.53c-0.3,0-0.53-0.23-0.53-0.53c0-0.3,0.23-0.53,0.52-0.54
	C7.56,18.49,7.81,18.74,7.81,19.03z"/>
<path class="st0" d="M5.45,19.04c-0.01,0.29-0.25,0.52-0.54,0.52c-0.29,0-0.52-0.24-0.51-0.54c0-0.3,0.24-0.53,0.53-0.52
	C5.22,18.5,5.46,18.75,5.45,19.04z"/>
</svg>
