<?xml version="1.0" encoding="utf-8"?>
<!-- Generator: Adobe Illustrator 25.0.0, SVG Export Plug-In . SVG Version: 6.00 Build 0)  -->
<svg version="1.1" id="Layer_1" xmlns="http://www.w3.org/2000/svg" xmlns:xlink="http://www.w3.org/1999/xlink" x="0px" y="0px"
	 viewBox="0 0 314.4 104.2" style="enable-background:new 0 0 314.4 104.2;" xml:space="preserve">
<style type="text/css">
	.st0{fill:#03B585;}
	.st1{fill:url(#SVGID_1_);}
	.st2{fill:url(#SVGID_2_);}
	.st3{fill:url(#SVGID_3_);}
	.st4{fill:url(#SVGID_4_);}
	.st5{fill:url(#SVGID_5_);}
	.st6{fill:url(#SVGID_6_);}
	.st7{fill:url(#SVGID_7_);}
	.st8{fill:url(#SVGID_8_);}
	.st9{fill:url(#SVGID_9_);}
	.st10{fill:url(#SVGID_10_);}
	.st11{fill:url(#SVGID_11_);}
	.st12{fill:url(#SVGID_12_);}
	.st13{fill:url(#SVGID_13_);}
	.st14{fill:url(#SVGID_14_);}
	.st15{fill:url(#SVGID_15_);}
	.st16{fill:url(#SVGID_16_);}
	.st17{fill:url(#SVGID_17_);}
	.st18{fill:url(#SVGID_18_);}
	.st19{fill:url(#SVGID_19_);}
	.st20{fill:url(#SVGID_20_);}
	.st21{fill:url(#SVGID_21_);}
	.st22{fill:url(#SVGID_22_);}
	.st23{fill:url(#SVGID_23_);}
	.st24{fill:url(#SVGID_24_);}
	.st25{fill:url(#SVGID_25_);}
	.st26{fill:url(#SVGID_26_);}
	.st27{fill:url(#SVGID_27_);}
	.st28{fill:url(#SVGID_28_);}
	.st29{fill:url(#SVGID_29_);}
	.st30{fill:url(#SVGID_30_);}
	.st31{fill:url(#SVGID_31_);}
	.st32{fill:url(#SVGID_32_);}
	.st33{fill:url(#SVGID_33_);}
	.st34{fill:url(#SVGID_34_);}
	.st35{fill:url(#SVGID_35_);}
	.st36{fill:url(#SVGID_36_);}
	.st37{fill:url(#SVGID_37_);}
	.st38{fill:url(#SVGID_38_);}
	.st39{fill:url(#SVGID_39_);}
	.st40{fill:url(#SVGID_40_);}
	.st41{fill:url(#SVGID_41_);}
	.st42{fill:url(#SVGID_42_);}
	.st43{fill:url(#SVGID_43_);}
	.st44{fill:url(#SVGID_44_);}
	.st45{fill:url(#SVGID_45_);}
	.st46{fill:url(#SVGID_46_);}
	.st47{fill:url(#SVGID_47_);}
	.st48{fill:url(#SVGID_48_);}
	.st49{fill:url(#SVGID_49_);}
	.st50{fill:url(#SVGID_50_);}
	.st51{fill:url(#SVGID_51_);}
	.st52{fill:url(#SVGID_52_);}
	.st53{fill:url(#SVGID_53_);}
	.st54{fill:url(#SVGID_54_);}
	.st55{fill:#FFFFFF;}
</style>
<g id="Layer_2_1_">
	<g id="Layer_1-2">
		<polygon class="st0" points="48,35.8 34.9,43.4 34.9,58.7 48,66.3 61.2,58.7 61.2,43.4 		"/>
		
			<linearGradient id="SVGID_1_" gradientUnits="userSpaceOnUse" x1="112.3461" y1="696.3151" x2="17.9861" y2="796.7951" gradientTransform="matrix(1 0 0 1 0 -686)">
			<stop  offset="0" style="stop-color:#A6CE39"/>
			<stop  offset="0.5" style="stop-color:#03B585"/>
			<stop  offset="1" style="stop-color:#273470"/>
		</linearGradient>
		<polygon class="st1" points="49.4,68.6 60,74.8 49.4,80.9 		"/>
		
			<linearGradient id="SVGID_2_" gradientUnits="userSpaceOnUse" x1="85.1528" y1="671.2638" x2="-9.1972" y2="771.7238" gradientTransform="matrix(1 0 0 1 0 -686)">
			<stop  offset="0" style="stop-color:#A6CE39"/>
			<stop  offset="0.5" style="stop-color:#03B585"/>
			<stop  offset="1" style="stop-color:#273470"/>
		</linearGradient>
		<polygon class="st2" points="36.1,28.8 46.7,34.9 36.1,41.1 		"/>
		
			<linearGradient id="SVGID_3_" gradientUnits="userSpaceOnUse" x1="100.2384" y1="685.8973" x2="6.5284" y2="785.6873" gradientTransform="matrix(1 0 0 1 0 -686)">
			<stop  offset="0" style="stop-color:#A6CE39"/>
			<stop  offset="0.5" style="stop-color:#03B585"/>
			<stop  offset="1" style="stop-color:#273470"/>
		</linearGradient>
		<polygon class="st3" points="34.9,58.7 48,51 48,66.3 		"/>
		
			<linearGradient id="SVGID_4_" gradientUnits="userSpaceOnUse" x1="95.8097" y1="681.7216" x2="2.0797" y2="781.5215" gradientTransform="matrix(1 0 0 1 0 -686)">
			<stop  offset="0" style="stop-color:#A6CE39"/>
			<stop  offset="0.5" style="stop-color:#03B585"/>
			<stop  offset="1" style="stop-color:#273470"/>
		</linearGradient>
		<polygon class="st4" points="48,35.8 61.2,43.4 48,51 		"/>
		
			<linearGradient id="SVGID_5_" gradientUnits="userSpaceOnUse" x1="61.1312" y1="659.9805" x2="-14.3688" y2="740.3604" gradientTransform="matrix(1 0 0 1 0 -686)">
			<stop  offset="0" style="stop-color:#A6CE39"/>
			<stop  offset="0.5" style="stop-color:#03B585"/>
			<stop  offset="1" style="stop-color:#273470"/>
		</linearGradient>
		<polygon class="st5" points="22.5,8.6 30.5,4 30.5,13.1 		"/>
		
			<linearGradient id="SVGID_6_" gradientUnits="userSpaceOnUse" x1="79.8991" y1="678.3686" x2="4.409" y2="758.7486" gradientTransform="matrix(1 0 0 1 0 -686)">
			<stop  offset="0" style="stop-color:#A6CE39"/>
			<stop  offset="0.5" style="stop-color:#03B585"/>
			<stop  offset="1" style="stop-color:#273470"/>
		</linearGradient>
		<polygon class="st6" points="50.7,16.9 58.7,12.3 58.7,21.5 		"/>
		
			<linearGradient id="SVGID_7_" gradientUnits="userSpaceOnUse" x1="99.4268" y1="693.567" x2="23.9368" y2="773.947" gradientTransform="matrix(1 0 0 1 0 -686)">
			<stop  offset="0" style="stop-color:#A6CE39"/>
			<stop  offset="0.5" style="stop-color:#03B585"/>
			<stop  offset="1" style="stop-color:#273470"/>
		</linearGradient>
		<polygon class="st7" points="78.4,23.5 86.3,28 78.4,32.6 		"/>
		
			<linearGradient id="SVGID_8_" gradientUnits="userSpaceOnUse" x1="105.5586" y1="702.3881" x2="30.0686" y2="782.7681" gradientTransform="matrix(1 0 0 1 0 -686)">
			<stop  offset="0" style="stop-color:#A6CE39"/>
			<stop  offset="0.5" style="stop-color:#03B585"/>
			<stop  offset="1" style="stop-color:#273470"/>
		</linearGradient>
		<polygon class="st8" points="78.4,38.8 86.3,43.4 78.4,48 		"/>
		
			<linearGradient id="SVGID_9_" gradientUnits="userSpaceOnUse" x1="116.0676" y1="712.2391" x2="40.5876" y2="792.5991" gradientTransform="matrix(1 0 0 1 0 -686)">
			<stop  offset="0" style="stop-color:#A6CE39"/>
			<stop  offset="0.5" style="stop-color:#03B585"/>
			<stop  offset="1" style="stop-color:#273470"/>
		</linearGradient>
		<polygon class="st9" points="86.7,51 94.6,46.4 94.6,55.6 		"/>
		
			<linearGradient id="SVGID_10_" gradientUnits="userSpaceOnUse" x1="111.6646" y1="717.2537" x2="36.1745" y2="797.6337" gradientTransform="matrix(1 0 0 1 0 -686)">
			<stop  offset="0" style="stop-color:#A6CE39"/>
			<stop  offset="0.5" style="stop-color:#03B585"/>
			<stop  offset="1" style="stop-color:#273470"/>
		</linearGradient>
		<polygon class="st10" points="64,75.5 71.9,70.9 71.9,80.1 		"/>
		
			<linearGradient id="SVGID_11_" gradientUnits="userSpaceOnUse" x1="89.3893" y1="705.9369" x2="13.8993" y2="786.317" gradientTransform="matrix(1 0 0 1 0 -686)">
			<stop  offset="0" style="stop-color:#A6CE39"/>
			<stop  offset="0.5" style="stop-color:#03B585"/>
			<stop  offset="1" style="stop-color:#273470"/>
		</linearGradient>
		<polygon class="st11" points="22.5,84.6 30.5,79.9 30.5,89.2 		"/>
		
			<linearGradient id="SVGID_12_" gradientUnits="userSpaceOnUse" x1="69.2935" y1="684.8239" x2="-6.1965" y2="765.2039" gradientTransform="matrix(1 0 0 1 0 -686)">
			<stop  offset="0" style="stop-color:#A6CE39"/>
			<stop  offset="0.5" style="stop-color:#03B585"/>
			<stop  offset="1" style="stop-color:#273470"/>
		</linearGradient>
		<polygon class="st12" points="6.9,58.7 14.9,54.1 14.9,63.3 		"/>
		
			<linearGradient id="SVGID_13_" gradientUnits="userSpaceOnUse" x1="90.07" y1="721.7" x2="10.74" y2="721.7" gradientTransform="matrix(1 0 0 1 0 -686)">
			<stop  offset="0" style="stop-color:#A6CE39"/>
			<stop  offset="0.5" style="stop-color:#03B585"/>
			<stop  offset="1" style="stop-color:#273470"/>
		</linearGradient>
		<polygon class="st13" points="61.6,29.6 72.2,35.7 61.6,41.8 		"/>
		
			<linearGradient id="SVGID_14_" gradientUnits="userSpaceOnUse" x1="91.13" y1="729.35" x2="11.78" y2="729.35" gradientTransform="matrix(1 0 0 1 0 -686)">
			<stop  offset="0" style="stop-color:#A6CE39"/>
			<stop  offset="0.5" style="stop-color:#03B585"/>
			<stop  offset="1" style="stop-color:#273470"/>
		</linearGradient>
		<polygon class="st14" points="62.7,43.4 73.3,37.2 73.3,49.5 		"/>
		
			<linearGradient id="SVGID_15_" gradientUnits="userSpaceOnUse" x1="91.12" y1="737.05" x2="11.79" y2="737.05" gradientTransform="matrix(1 0 0 1 0 -686)">
			<stop  offset="0" style="stop-color:#A6CE39"/>
			<stop  offset="0.5" style="stop-color:#03B585"/>
			<stop  offset="1" style="stop-color:#273470"/>
		</linearGradient>
		<polygon class="st15" points="62.7,44.9 73.3,51 62.7,57.2 		"/>
		
			<linearGradient id="SVGID_16_" gradientUnits="userSpaceOnUse" x1="91.13" y1="744.7" x2="11.78" y2="744.7" gradientTransform="matrix(1 0 0 1 0 -686)">
			<stop  offset="0" style="stop-color:#A6CE39"/>
			<stop  offset="0.5" style="stop-color:#03B585"/>
			<stop  offset="1" style="stop-color:#273470"/>
		</linearGradient>
		<polygon class="st16" points="62.7,58.7 73.3,52.6 73.3,64.8 		"/>
		
			<linearGradient id="SVGID_17_" gradientUnits="userSpaceOnUse" x1="90.07" y1="752.35" x2="10.74" y2="752.35" gradientTransform="matrix(1 0 0 1 0 -686)">
			<stop  offset="0" style="stop-color:#A6CE39"/>
			<stop  offset="0.5" style="stop-color:#03B585"/>
			<stop  offset="1" style="stop-color:#273470"/>
		</linearGradient>
		<polygon class="st17" points="61.6,60.2 72.2,66.4 61.6,72.5 		"/>
		
			<linearGradient id="SVGID_18_" gradientUnits="userSpaceOnUse" x1="88.47" y1="753.1" x2="9.13" y2="753.1" gradientTransform="matrix(1 0 0 1 0 -686)">
			<stop  offset="0" style="stop-color:#A6CE39"/>
			<stop  offset="0.5" style="stop-color:#03B585"/>
			<stop  offset="1" style="stop-color:#273470"/>
		</linearGradient>
		<polygon class="st18" points="49.4,67.1 60,61 60,73.2 		"/>
		
			<linearGradient id="SVGID_19_" gradientUnits="userSpaceOnUse" x1="85.82" y1="760.75" x2="6.47" y2="760.75" gradientTransform="matrix(1 0 0 1 0 -686)">
			<stop  offset="0" style="stop-color:#A6CE39"/>
			<stop  offset="0.5" style="stop-color:#03B585"/>
			<stop  offset="1" style="stop-color:#273470"/>
		</linearGradient>
		<polygon class="st19" points="36.1,74.8 46.7,68.6 46.7,80.9 		"/>
		
			<linearGradient id="SVGID_20_" gradientUnits="userSpaceOnUse" x1="85.81" y1="753.1" x2="6.48" y2="753.1" gradientTransform="matrix(1 0 0 1 0 -686)">
			<stop  offset="0" style="stop-color:#A6CE39"/>
			<stop  offset="0.5" style="stop-color:#03B585"/>
			<stop  offset="1" style="stop-color:#273470"/>
		</linearGradient>
		<polygon class="st20" points="36.1,61 46.7,67.1 36.1,73.2 		"/>
		
			<linearGradient id="SVGID_21_" gradientUnits="userSpaceOnUse" x1="84.22" y1="752.35" x2="4.87" y2="752.35" gradientTransform="matrix(1 0 0 1 0 -686)">
			<stop  offset="0" style="stop-color:#A6CE39"/>
			<stop  offset="0.5" style="stop-color:#03B585"/>
			<stop  offset="1" style="stop-color:#273470"/>
		</linearGradient>
		<polygon class="st21" points="23.9,66.4 34.5,60.2 34.5,72.5 		"/>
		
			<linearGradient id="SVGID_22_" gradientUnits="userSpaceOnUse" x1="83.16" y1="744.7" x2="3.82" y2="744.7" gradientTransform="matrix(1 0 0 1 0 -686)">
			<stop  offset="0" style="stop-color:#A6CE39"/>
			<stop  offset="0.5" style="stop-color:#03B585"/>
			<stop  offset="1" style="stop-color:#273470"/>
		</linearGradient>
		<polygon class="st22" points="33.4,58.7 22.8,64.8 22.8,52.6 		"/>
		
			<linearGradient id="SVGID_23_" gradientUnits="userSpaceOnUse" x1="83.16" y1="737.05" x2="3.82" y2="737.05" gradientTransform="matrix(1 0 0 1 0 -686)">
			<stop  offset="0" style="stop-color:#A6CE39"/>
			<stop  offset="0.5" style="stop-color:#03B585"/>
			<stop  offset="1" style="stop-color:#273470"/>
		</linearGradient>
		<polygon class="st23" points="22.8,51 33.4,44.9 33.4,57.2 		"/>
		
			<linearGradient id="SVGID_24_" gradientUnits="userSpaceOnUse" x1="83.16" y1="729.35" x2="3.82" y2="729.35" gradientTransform="matrix(1 0 0 1 0 -686)">
			<stop  offset="0" style="stop-color:#A6CE39"/>
			<stop  offset="0.5" style="stop-color:#03B585"/>
			<stop  offset="1" style="stop-color:#273470"/>
		</linearGradient>
		<polygon class="st24" points="22.8,37.2 33.4,43.4 22.8,49.5 		"/>
		
			<linearGradient id="SVGID_25_" gradientUnits="userSpaceOnUse" x1="84.22" y1="721.7" x2="4.87" y2="721.7" gradientTransform="matrix(1 0 0 1 0 -686)">
			<stop  offset="0" style="stop-color:#A6CE39"/>
			<stop  offset="0.5" style="stop-color:#03B585"/>
			<stop  offset="1" style="stop-color:#273470"/>
		</linearGradient>
		<polygon class="st25" points="23.9,35.7 34.5,29.6 34.5,41.8 		"/>
		
			<linearGradient id="SVGID_26_" gradientUnits="userSpaceOnUse" x1="85.82" y1="713.25" x2="6.47" y2="713.25" gradientTransform="matrix(1 0 0 1 0 -686)">
			<stop  offset="0" style="stop-color:#A6CE39"/>
			<stop  offset="0.5" style="stop-color:#03B585"/>
			<stop  offset="1" style="stop-color:#273470"/>
		</linearGradient>
		<polygon class="st26" points="36.1,27.3 46.7,21.1 46.7,33.4 		"/>
		
			<linearGradient id="SVGID_27_" gradientUnits="userSpaceOnUse" x1="88.47" y1="713.25" x2="9.13" y2="713.25" gradientTransform="matrix(1 0 0 1 0 -686)">
			<stop  offset="0" style="stop-color:#A6CE39"/>
			<stop  offset="0.5" style="stop-color:#03B585"/>
			<stop  offset="1" style="stop-color:#273470"/>
		</linearGradient>
		<polygon class="st27" points="49.4,21.1 60,27.3 49.4,33.4 		"/>
		
			<linearGradient id="SVGID_28_" gradientUnits="userSpaceOnUse" x1="88.47" y1="720.95" x2="9.13" y2="720.95" gradientTransform="matrix(1 0 0 1 0 -686)">
			<stop  offset="0" style="stop-color:#A6CE39"/>
			<stop  offset="0.5" style="stop-color:#03B585"/>
			<stop  offset="1" style="stop-color:#273470"/>
		</linearGradient>
		<polygon class="st28" points="49.4,34.9 60,28.8 60,41.1 		"/>
		
			<linearGradient id="SVGID_29_" gradientUnits="userSpaceOnUse" x1="96.59" y1="744.65" x2="-1.92" y2="744.65" gradientTransform="matrix(1 0 0 1 0 -686)">
			<stop  offset="0" style="stop-color:#A6CE39"/>
			<stop  offset="0.5" style="stop-color:#03B585"/>
			<stop  offset="1" style="stop-color:#273470"/>
		</linearGradient>
		<polygon class="st29" points="48,51 61.2,58.7 48,66.3 		"/>
		
			<linearGradient id="SVGID_30_" gradientUnits="userSpaceOnUse" x1="96.59" y1="737.05" x2="-1.92" y2="737.05" gradientTransform="matrix(1 0 0 1 0 -686)">
			<stop  offset="0" style="stop-color:#A6CE39"/>
			<stop  offset="0.5" style="stop-color:#03B585"/>
			<stop  offset="1" style="stop-color:#273470"/>
		</linearGradient>
		<polygon class="st30" points="48,51 61.2,43.4 61.2,58.7 		"/>
		
			<linearGradient id="SVGID_31_" gradientUnits="userSpaceOnUse" x1="96.58" y1="737.05" x2="-1.91" y2="737.05" gradientTransform="matrix(1 0 0 1 0 -686)">
			<stop  offset="0" style="stop-color:#A6CE39"/>
			<stop  offset="0.5" style="stop-color:#03B585"/>
			<stop  offset="1" style="stop-color:#273470"/>
		</linearGradient>
		<polygon class="st31" points="34.9,43.4 48,51 34.9,58.7 		"/>
		
			<linearGradient id="SVGID_32_" gradientUnits="userSpaceOnUse" x1="96.6" y1="729.4" x2="-1.93" y2="729.4" gradientTransform="matrix(1 0 0 1 0 -686)">
			<stop  offset="0" style="stop-color:#A6CE39"/>
			<stop  offset="0.5" style="stop-color:#03B585"/>
			<stop  offset="1" style="stop-color:#273470"/>
		</linearGradient>
		<polygon class="st32" points="34.9,43.4 48,35.8 48,51 		"/>
		
			<linearGradient id="SVGID_33_" gradientUnits="userSpaceOnUse" x1="85.91" y1="705.3" x2="6.57" y2="705.3" gradientTransform="matrix(1 0 0 1 0 -686)">
			<stop  offset="0" style="stop-color:#A6CE39"/>
			<stop  offset="0.5" style="stop-color:#03B585"/>
			<stop  offset="1" style="stop-color:#273470"/>
		</linearGradient>
		<polygon class="st33" points="45.9,19.3 37.9,23.9 37.9,14.7 		"/>
		
			<linearGradient id="SVGID_34_" gradientUnits="userSpaceOnUse" x1="85.27" y1="690.6" x2="5.93" y2="690.6" gradientTransform="matrix(1 0 0 1 0 -686)">
			<stop  offset="0" style="stop-color:#A6CE39"/>
			<stop  offset="0.5" style="stop-color:#03B585"/>
			<stop  offset="1" style="stop-color:#273470"/>
		</linearGradient>
		<polygon class="st34" points="34.7,4.6 42.7,0 42.7,9.2 		"/>
		
			<linearGradient id="SVGID_35_" gradientUnits="userSpaceOnUse" x1="88.66" y1="692" x2="9.32" y2="692" gradientTransform="matrix(1 0 0 1 0 -686)">
			<stop  offset="0" style="stop-color:#A6CE39"/>
			<stop  offset="0.5" style="stop-color:#03B585"/>
			<stop  offset="1" style="stop-color:#273470"/>
		</linearGradient>
		<polygon class="st35" points="51.7,1.4 59.6,6 51.7,10.6 		"/>
		
			<linearGradient id="SVGID_36_" gradientUnits="userSpaceOnUse" x1="96.4" y1="697.4" x2="17.07" y2="697.4" gradientTransform="matrix(1 0 0 1 0 -686)">
			<stop  offset="0" style="stop-color:#A6CE39"/>
			<stop  offset="0.5" style="stop-color:#03B585"/>
			<stop  offset="1" style="stop-color:#273470"/>
		</linearGradient>
		<polygon class="st36" points="69.2,6.8 77.2,11.4 69.2,16 		"/>
		
			<linearGradient id="SVGID_37_" gradientUnits="userSpaceOnUse" x1="90.65" y1="711.3" x2="11.31" y2="711.3" gradientTransform="matrix(1 0 0 1 0 -686)">
			<stop  offset="0" style="stop-color:#A6CE39"/>
			<stop  offset="0.5" style="stop-color:#03B585"/>
			<stop  offset="1" style="stop-color:#273470"/>
		</linearGradient>
		<polygon class="st37" points="61.6,25.3 69.6,20.7 69.6,29.9 		"/>
		
			<linearGradient id="SVGID_38_" gradientUnits="userSpaceOnUse" x1="95" y1="721.1" x2="15.66" y2="721.1" gradientTransform="matrix(1 0 0 1 0 -686)">
			<stop  offset="0" style="stop-color:#A6CE39"/>
			<stop  offset="0.5" style="stop-color:#03B585"/>
			<stop  offset="1" style="stop-color:#273470"/>
		</linearGradient>
		<polygon class="st38" points="83.4,35.1 91.3,30.5 91.3,39.7 		"/>
		
			<linearGradient id="SVGID_39_" gradientUnits="userSpaceOnUse" x1="93.9" y1="745.2" x2="14.56" y2="745.2" gradientTransform="matrix(1 0 0 1 0 -686)">
			<stop  offset="0" style="stop-color:#A6CE39"/>
			<stop  offset="0.5" style="stop-color:#03B585"/>
			<stop  offset="1" style="stop-color:#273470"/>
		</linearGradient>
		<polygon class="st39" points="77.9,63.8 77.9,54.6 85.8,59.2 		"/>
		
			<linearGradient id="SVGID_40_" gradientUnits="userSpaceOnUse" x1="94.01" y1="752.4" x2="14.66" y2="752.4" gradientTransform="matrix(1 0 0 1 0 -686)">
			<stop  offset="0" style="stop-color:#A6CE39"/>
			<stop  offset="0.5" style="stop-color:#03B585"/>
			<stop  offset="1" style="stop-color:#273470"/>
		</linearGradient>
		<polygon class="st40" points="78.4,66.4 86.3,61.8 86.3,71 		"/>
		
			<linearGradient id="SVGID_41_" gradientUnits="userSpaceOnUse" x1="98.9" y1="769.1" x2="19.56" y2="769.1" gradientTransform="matrix(1 0 0 1 0 -686)">
			<stop  offset="0" style="stop-color:#A6CE39"/>
			<stop  offset="0.5" style="stop-color:#03B585"/>
			<stop  offset="1" style="stop-color:#273470"/>
		</linearGradient>
		<polygon class="st41" points="85.9,78.5 93.9,83.1 85.9,87.7 		"/>
		
			<linearGradient id="SVGID_42_" gradientUnits="userSpaceOnUse" x1="91.46" y1="772" x2="12.11" y2="772" gradientTransform="matrix(1 0 0 1 0 -686)">
			<stop  offset="0" style="stop-color:#A6CE39"/>
			<stop  offset="0.5" style="stop-color:#03B585"/>
			<stop  offset="1" style="stop-color:#273470"/>
		</linearGradient>
		<polygon class="st42" points="65.6,90.6 65.6,81.4 73.6,86 		"/>
		
			<linearGradient id="SVGID_43_" gradientUnits="userSpaceOnUse" x1="88.47" y1="768.9" x2="9.13" y2="768.9" gradientTransform="matrix(1 0 0 1 0 -686)">
			<stop  offset="0" style="stop-color:#A6CE39"/>
			<stop  offset="0.5" style="stop-color:#03B585"/>
			<stop  offset="1" style="stop-color:#273470"/>
		</linearGradient>
		<polygon class="st43" points="50.7,82.9 58.7,78.3 58.7,87.5 		"/>
		
			<linearGradient id="SVGID_44_" gradientUnits="userSpaceOnUse" x1="84.92" y1="785.6" x2="5.57" y2="785.6" gradientTransform="matrix(1 0 0 1 0 -686)">
			<stop  offset="0" style="stop-color:#A6CE39"/>
			<stop  offset="0.5" style="stop-color:#03B585"/>
			<stop  offset="1" style="stop-color:#273470"/>
		</linearGradient>
		<polygon class="st44" points="32.9,99.6 40.9,95 40.9,104.2 		"/>
		
			<linearGradient id="SVGID_45_" gradientUnits="userSpaceOnUse" x1="85.98" y1="769.45" x2="6.65" y2="769.45" gradientTransform="matrix(1 0 0 1 0 -686)">
			<stop  offset="0" style="stop-color:#A6CE39"/>
			<stop  offset="0.5" style="stop-color:#03B585"/>
			<stop  offset="1" style="stop-color:#273470"/>
		</linearGradient>
		<polygon class="st45" points="38.3,78.8 46.2,83.4 38.3,88.1 		"/>
		
			<linearGradient id="SVGID_46_" gradientUnits="userSpaceOnUse" x1="83.16" y1="761.5" x2="3.82" y2="761.5" gradientTransform="matrix(1 0 0 1 0 -686)">
			<stop  offset="0" style="stop-color:#A6CE39"/>
			<stop  offset="0.5" style="stop-color:#03B585"/>
			<stop  offset="1" style="stop-color:#273470"/>
		</linearGradient>
		<polygon class="st46" points="24.1,70.9 32.1,75.5 24.1,80.1 		"/>
		
			<linearGradient id="SVGID_47_" gradientUnits="userSpaceOnUse" x1="73.14" y1="768" x2="-6.21" y2="768" gradientTransform="matrix(1 0 0 1 0 -686)">
			<stop  offset="0" style="stop-color:#A6CE39"/>
			<stop  offset="0.5" style="stop-color:#03B585"/>
			<stop  offset="1" style="stop-color:#273470"/>
		</linearGradient>
		<polygon class="st47" points="3.5,82 11.5,77.4 11.5,86.6 		"/>
		
			<linearGradient id="SVGID_48_" gradientUnits="userSpaceOnUse" x1="75.3" y1="735.75" x2="-4.04" y2="735.75" gradientTransform="matrix(1 0 0 1 0 -686)">
			<stop  offset="0" style="stop-color:#A6CE39"/>
			<stop  offset="0.5" style="stop-color:#03B585"/>
			<stop  offset="1" style="stop-color:#273470"/>
		</linearGradient>
		<polygon class="st48" points="4.8,45.2 12.7,49.8 4.8,54.3 		"/>
		
			<linearGradient id="SVGID_49_" gradientUnits="userSpaceOnUse" x1="80.39" y1="729.4" x2="1.04" y2="729.4" gradientTransform="matrix(1 0 0 1 0 -686)">
			<stop  offset="0" style="stop-color:#A6CE39"/>
			<stop  offset="0.5" style="stop-color:#03B585"/>
			<stop  offset="1" style="stop-color:#273470"/>
		</linearGradient>
		<polygon class="st49" points="10.3,43.4 18.2,38.8 18.2,48 		"/>
		
			<linearGradient id="SVGID_50_" gradientUnits="userSpaceOnUse" x1="78.32" y1="721.7" x2="-1.01" y2="721.7" gradientTransform="matrix(1 0 0 1 0 -686)">
			<stop  offset="0" style="stop-color:#A6CE39"/>
			<stop  offset="0.5" style="stop-color:#03B585"/>
			<stop  offset="1" style="stop-color:#273470"/>
		</linearGradient>
		<polygon class="st50" points="0,31.1 8,35.7 0,40.3 		"/>
		
			<linearGradient id="SVGID_51_" gradientUnits="userSpaceOnUse" x1="79.62" y1="711.4" x2="0.27" y2="711.4" gradientTransform="matrix(1 0 0 1 0 -686)">
			<stop  offset="0" style="stop-color:#A6CE39"/>
			<stop  offset="0.5" style="stop-color:#03B585"/>
			<stop  offset="1" style="stop-color:#273470"/>
		</linearGradient>
		<polygon class="st51" points="6.4,25.4 14.4,20.8 14.4,30 		"/>
		
			<linearGradient id="SVGID_52_" gradientUnits="userSpaceOnUse" x1="83.16" y1="710.4" x2="3.82" y2="710.4" gradientTransform="matrix(1 0 0 1 0 -686)">
			<stop  offset="0" style="stop-color:#A6CE39"/>
			<stop  offset="0.5" style="stop-color:#03B585"/>
			<stop  offset="1" style="stop-color:#273470"/>
		</linearGradient>
		<polygon class="st52" points="24.1,19.8 32.1,24.4 24.1,29 		"/>
		
			<linearGradient id="SVGID_53_" gradientUnits="userSpaceOnUse" x1="66.69" y1="755" x2="-12.65" y2="755" gradientTransform="matrix(1 0 0 1 0 -686)">
			<stop  offset="0" style="stop-color:#A6CE39"/>
			<stop  offset="0.5" style="stop-color:#03B585"/>
			<stop  offset="1" style="stop-color:#273470"/>
		</linearGradient>
		<polygon class="st53" points="2,65 8.9,69 2,73 		"/>
		
			<linearGradient id="SVGID_54_" gradientUnits="userSpaceOnUse" x1="88.47" y1="781.8" x2="9.13" y2="781.8" gradientTransform="matrix(1 0 0 1 0 -686)">
			<stop  offset="0" style="stop-color:#A6CE39"/>
			<stop  offset="0.5" style="stop-color:#03B585"/>
			<stop  offset="1" style="stop-color:#273470"/>
		</linearGradient>
		<polygon class="st54" points="50.7,100.4 50.7,91.2 58.7,95.8 58.7,95.8 		"/>
		<path class="st55" d="M154.7,14.6V45h11.2V8.1L154.7,14.6z"/>
		<path class="st55" d="M191.9,36.8c-5.4,0-9.2-4.2-9.2-10.2s3.8-10.2,9.3-10.2c3.9,0,7.3,2.7,8.2,6.5l9.2-5.3
			C206.7,11.2,199.9,7,191.6,7c-11.6,0-20.1,8.3-20.1,19.7s8.5,19.7,20.1,19.7c10.2,0,18.1-6.2,18.9-14.8l-10.4-1.2
			C199.3,34.1,195.8,36.8,191.9,36.8z"/>
		<polygon class="st55" points="137.1,14.1 137.1,31.4 124.5,8.1 112.9,14.8 112.9,45 123.3,45 123.3,21.5 135.9,45 147.5,45 
			147.5,8.1 		"/>
		<polygon class="st55" points="122,84.4 122,84.4 115.8,74.9 114.2,74.9 114.2,86.6 115.6,86.6 115.6,77.2 115.7,77.2 121.8,86.6 
			123.5,86.6 123.5,74.9 122,74.9 		"/>
		<path class="st55" d="M132.4,85.3c0-0.2-0.1-0.5-0.1-0.7v-4.3c0-0.4-0.1-0.8-0.3-1.2c-0.2-0.3-0.4-0.6-0.7-0.7
			c-0.3-0.2-0.6-0.3-1-0.3s-0.8-0.1-1.2,0c-0.5,0-0.9,0-1.3,0.1c-0.4,0.1-0.8,0.3-1.1,0.5c-0.3,0.2-0.6,0.5-0.8,0.9
			c-0.2,0.4-0.3,0.9-0.3,1.3h1.4c0-0.5,0.2-1,0.6-1.3c0.5-0.2,1-0.4,1.5-0.3c0.2,0,0.4,0,0.7,0c0.2,0,0.4,0.1,0.6,0.2
			c0.2,0.1,0.3,0.2,0.4,0.4c0.1,0.2,0.2,0.5,0.2,0.7s-0.1,0.4-0.2,0.6c-0.2,0.2-0.4,0.3-0.6,0.3c-0.3,0.1-0.6,0.1-0.9,0.2
			c-0.4,0-0.7,0.1-1.1,0.2c-0.4,0.1-0.7,0.1-1.1,0.2c-0.3,0.1-0.6,0.2-0.9,0.4c-0.3,0.2-0.5,0.4-0.7,0.7c-0.3,0.7-0.3,1.5,0,2.3
			c0.1,0.3,0.3,0.5,0.6,0.7c0.3,0.2,0.6,0.3,0.9,0.4c0.4,0.1,0.7,0.1,1.1,0.1c0.6,0,1.1-0.1,1.6-0.3c0.5-0.2,1-0.6,1.3-1
			c0,0.4,0.1,0.7,0.3,1c0.2,0.2,0.5,0.3,0.9,0.3c0.3,0,0.7-0.1,1-0.2v-1.1c-0.1,0-0.3,0.1-0.4,0.1C132.6,85.6,132.5,85.5,132.4,85.3
			z M131,83.7c0,0.2-0.1,0.4-0.1,0.6c-0.1,0.2-0.3,0.4-0.5,0.6s-0.5,0.4-0.8,0.5c-0.4,0.1-0.8,0.2-1.2,0.2c-0.2,0-0.4,0-0.6-0.1
			c-0.2,0-0.4-0.1-0.5-0.2c-0.2-0.1-0.3-0.2-0.4-0.4c-0.1-0.2-0.1-0.4-0.1-0.6s0-0.5,0.1-0.7s0.2-0.3,0.4-0.4
			c0.2-0.1,0.3-0.2,0.5-0.3c0.2-0.1,0.4-0.1,0.7-0.2c0.2,0,0.5-0.1,0.7-0.1l0.7-0.1c0.2,0,0.4-0.1,0.6-0.1c0.2,0,0.3-0.1,0.5-0.2
			V83.7z"/>
		<path class="st55" d="M136.5,75.6h-1.4v2.5h-1.4v1.2h1.4v5.4c0,0.3,0,0.6,0.1,0.9c0.1,0.2,0.2,0.4,0.4,0.6
			c0.2,0.1,0.4,0.2,0.6,0.3c0.3,0.1,0.6,0.1,0.9,0.1h1.1v-1.2h-0.6c-0.2,0-0.4,0-0.5,0s-0.2,0-0.3-0.1s-0.1-0.1-0.2-0.2
			c0-0.1,0-0.3,0-0.4v-5.3h1.7v-1.2h-1.7L136.5,75.6z"/>
		<rect x="139.8" y="78.2" class="st55" width="1.4" height="8.5"/>
		<path class="st55" d="M150,79.2c-0.4-0.4-0.8-0.7-1.3-0.9c-1.1-0.5-2.4-0.5-3.5,0c-0.5,0.2-0.9,0.5-1.3,0.9
			c-0.4,0.4-0.6,0.9-0.8,1.4c-0.3,1.1-0.3,2.3,0,3.5c0.2,0.5,0.4,1,0.8,1.4c0.4,0.4,0.8,0.8,1.3,1c1.1,0.5,2.4,0.5,3.5,0
			c0.5-0.2,0.9-0.6,1.3-1c0.4-0.4,0.6-0.9,0.8-1.4c0.3-1.1,0.3-2.3,0-3.5C150.6,80.1,150.4,79.7,150,79.2z M149.4,83.8
			c-0.1,0.4-0.3,0.7-0.6,1c-0.2,0.3-0.5,0.5-0.8,0.6s-0.7,0.2-1,0.2c-0.7,0-1.4-0.3-1.9-0.8c-0.3-0.3-0.4-0.6-0.6-1
			c-0.1-0.4-0.2-0.9-0.2-1.4s0.1-0.9,0.2-1.4c0.1-0.4,0.3-0.7,0.6-1c0.2-0.3,0.5-0.5,0.8-0.6s0.7-0.2,1-0.2s0.7,0.1,1,0.2
			s0.6,0.4,0.8,0.6c0.3,0.3,0.4,0.6,0.6,1c0.1,0.4,0.2,0.9,0.2,1.4C149.6,82.9,149.5,83.3,149.4,83.8L149.4,83.8z"/>
		<path class="st55" d="M159.1,78.8c-0.2-0.3-0.6-0.5-0.9-0.6c-0.4-0.2-0.9-0.2-1.4-0.2c-0.6,0-1.1,0.1-1.6,0.4s-0.9,0.7-1.1,1.2
			l0,0v-1.3h-1.3v8.5h1.4V82c0-0.4,0-0.7,0.1-1.1c0.1-0.3,0.3-0.6,0.5-0.8c0.2-0.2,0.5-0.4,0.8-0.6c0.3-0.1,0.7-0.2,1.1-0.2
			c0.5,0,0.9,0.1,1.3,0.5c0.3,0.3,0.5,0.8,0.5,1.2v5.7h1.4v-5.6c0-0.4,0-0.8-0.1-1.2C159.5,79.4,159.3,79.1,159.1,78.8z"/>
		<path class="st55" d="M168.5,85.3c0-0.2-0.1-0.5-0.1-0.7v-4.3c0-0.4-0.1-0.8-0.3-1.2c-0.2-0.3-0.4-0.5-0.7-0.7s-0.7-0.3-1-0.3
			c-0.4-0.1-0.8-0.1-1.1-0.1c-0.5,0-0.9,0-1.4,0.1c-0.4,0.1-0.8,0.3-1.1,0.5s-0.6,0.5-0.8,0.9s-0.3,0.9-0.3,1.3h1.4
			c0-0.5,0.2-1,0.6-1.3c0.5-0.2,1-0.4,1.5-0.3c0.2,0,0.4,0,0.7,0c0.2,0,0.4,0.1,0.6,0.2c0.2,0.1,0.3,0.2,0.4,0.4
			c0.1,0.2,0.2,0.5,0.2,0.7s-0.1,0.4-0.2,0.6c-0.2,0.2-0.4,0.3-0.6,0.3c-0.3,0.1-0.6,0.1-0.9,0.2c-0.4,0-0.7,0.1-1.1,0.2
			c-0.4,0.1-0.7,0.1-1.1,0.2c-0.3,0.1-0.6,0.2-0.9,0.4c-0.3,0.2-0.5,0.4-0.6,0.7c-0.2,0.4-0.3,0.8-0.2,1.2c0,0.4,0.1,0.7,0.2,1.1
			c0.1,0.3,0.3,0.5,0.6,0.7s0.6,0.3,0.9,0.4c0.4,0.1,0.7,0.1,1.1,0.1c0.6,0,1.1-0.1,1.6-0.3c0.5-0.2,1-0.6,1.3-1
			c0,0.4,0.1,0.7,0.3,1c0.2,0.2,0.5,0.3,0.9,0.3c0.3,0,0.7-0.1,1-0.2v-1c-0.1,0-0.3,0.1-0.4,0.1C168.7,85.6,168.5,85.5,168.5,85.3z
			 M167.1,83.7c0,0.2-0.1,0.4-0.1,0.6c-0.1,0.2-0.3,0.4-0.5,0.6s-0.5,0.4-0.8,0.5c-0.6,0.2-1.2,0.2-1.8,0.1c-0.2,0-0.4-0.1-0.5-0.2
			c-0.2-0.1-0.3-0.2-0.4-0.4c-0.1-0.2-0.1-0.4-0.1-0.6s0-0.5,0.1-0.7s0.2-0.3,0.4-0.4s0.3-0.2,0.5-0.3c0.2-0.1,0.4-0.1,0.6-0.2
			c0.2,0,0.5-0.1,0.7-0.1l0.7-0.1c0.2,0,0.4-0.1,0.6-0.1c0.2,0,0.3-0.1,0.5-0.2L167.1,83.7z"/>
		<rect x="170.7" y="74.9" class="st55" width="1.4" height="11.7"/>
		<rect x="179.1" y="74.9" class="st55" width="1.6" height="11.7"/>
		<path class="st55" d="M189.4,78.8c-0.2-0.3-0.6-0.5-0.9-0.6c-0.4-0.2-0.9-0.2-1.4-0.2c-0.6,0-1.1,0.1-1.6,0.4s-0.9,0.7-1.1,1.2
			l0,0v-1.3H183v8.5h1.4V82c0-0.4,0-0.7,0.2-1.1c0.1-0.3,0.2-0.6,0.5-0.8c0.2-0.2,0.5-0.4,0.8-0.6c0.3-0.1,0.7-0.2,1.1-0.2
			c0.5,0,0.9,0.1,1.3,0.5c0.3,0.3,0.5,0.8,0.5,1.2v5.7h1.4v-5.6c0-0.4,0-0.8-0.1-1.2C189.8,79.4,189.6,79.1,189.4,78.8z"/>
		<path class="st55" d="M195,74.8c-0.6,0-1.2,0.1-1.7,0.5c-0.4,0.4-0.6,1-0.6,1.6v1.3h-1.4v1.2h1.4v7.2h1.4v-7.2h1.6v-1.2H194V77
			c0-0.3,0.1-0.6,0.3-0.8c0.2-0.1,0.5-0.2,0.8-0.2c0.1,0,0.3,0,0.4,0c0.1,0,0.3,0,0.4,0.1v-1.2c-0.1,0-0.3-0.1-0.4-0.1H195z"/>
		<path class="st55" d="M203.7,79.2c-0.4-0.4-0.8-0.7-1.3-0.9c-0.6-0.2-1.2-0.4-1.8-0.3c-0.6,0-1.2,0.1-1.8,0.3
			c-0.5,0.2-0.9,0.5-1.3,0.9c-0.4,0.4-0.6,0.9-0.8,1.4c-0.3,1.1-0.3,2.3,0,3.5c0.2,0.5,0.4,1,0.8,1.4c0.3,0.4,0.8,0.8,1.3,1
			c0.6,0.2,1.2,0.3,1.8,0.3s1.2-0.1,1.8-0.3c0.5-0.2,0.9-0.6,1.3-1c0.4-0.4,0.6-0.9,0.8-1.4c0.4-1.1,0.4-2.3,0-3.5
			C204.3,80.1,204,79.7,203.7,79.2z M203,83.8c-0.1,0.4-0.3,0.7-0.6,1c-0.7,0.8-1.9,1-2.9,0.6c-0.3-0.1-0.6-0.3-0.9-0.6
			c-0.3-0.3-0.4-0.6-0.6-1c-0.1-0.4-0.2-0.9-0.2-1.4s0.1-0.9,0.2-1.4c0.1-0.4,0.3-0.7,0.6-1c0.2-0.3,0.5-0.5,0.9-0.6
			c0.6-0.3,1.4-0.3,2,0c0.3,0.1,0.6,0.4,0.8,0.6c0.3,0.3,0.4,0.6,0.6,1c0.1,0.4,0.2,0.9,0.2,1.4C203.2,82.9,203.1,83.3,203,83.8z"/>
		<path class="st55" d="M207.6,79.9L207.6,79.9v-1.8h-1.3v8.5h1.4v-3.8c0-0.5,0.1-1,0.2-1.4c0.1-0.4,0.3-0.8,0.5-1.1
			c0.3-0.3,0.6-0.5,1-0.7c0.5-0.2,0.9-0.2,1.4-0.2V78c-0.7,0-1.3,0.1-1.9,0.5C208.4,78.8,207.9,79.3,207.6,79.9z"/>
		<path class="st55" d="M222.9,78.5c-0.3-0.2-0.6-0.4-0.9-0.4c-0.4-0.1-0.8-0.1-1.1-0.1c-0.5,0-1.1,0.1-1.5,0.4
			c-0.5,0.2-0.9,0.6-1.1,1.1c-0.1-0.5-0.5-0.9-0.9-1.1s-0.9-0.3-1.4-0.3c-1.1,0-2.1,0.5-2.7,1.4l0,0v-1.2H212v8.5h1.4v-5.3
			c0-0.2,0-0.4,0.1-0.6c0.1-0.3,0.2-0.5,0.4-0.7s0.4-0.4,0.7-0.6s0.7-0.3,1-0.2c0.3,0,0.5,0,0.8,0.1c0.2,0.1,0.4,0.2,0.5,0.4
			c0.1,0.2,0.2,0.4,0.2,0.6c0.1,0.2,0.1,0.5,0.1,0.8v5.5h1.4v-5.3c0-0.6,0.2-1.1,0.6-1.6c0.4-0.4,1-0.6,1.6-0.6c0.3,0,0.6,0,0.8,0.2
			c0.2,0.1,0.4,0.2,0.5,0.4c0.1,0.2,0.2,0.4,0.2,0.6s0.1,0.5,0.1,0.7v5.5h1.4v-6.2c0-0.4-0.1-0.8-0.2-1.1
			C223.3,79,223.1,78.7,222.9,78.5z"/>
		<path class="st55" d="M232.4,85.3c0-0.2-0.1-0.5-0.1-0.7v-4.3c0-0.4-0.1-0.8-0.3-1.2c-0.2-0.3-0.4-0.5-0.7-0.7s-0.7-0.3-1-0.3
			c-0.4-0.1-0.8-0.1-1.1-0.1c-0.5,0-0.9,0-1.3,0.1c-0.4,0.1-0.8,0.3-1.1,0.5s-0.6,0.5-0.8,0.9s-0.3,0.9-0.3,1.3h1.4
			c0-0.5,0.2-1,0.6-1.3c0.5-0.2,1-0.4,1.5-0.3c0.2,0,0.4,0,0.7,0c0.2,0,0.4,0.1,0.6,0.2c0.2,0.1,0.3,0.3,0.4,0.4
			c0.1,0.2,0.2,0.5,0.2,0.7s-0.1,0.4-0.2,0.6c-0.2,0.2-0.4,0.3-0.6,0.3c-0.3,0.1-0.6,0.1-0.9,0.2c-0.3,0-0.7,0.1-1.1,0.2
			c-0.3,0.1-0.7,0.1-1,0.2s-0.6,0.2-0.9,0.4c-0.3,0.2-0.5,0.4-0.6,0.7c-0.2,0.4-0.3,0.8-0.2,1.2c0,0.4,0.1,0.7,0.2,1.1
			c0.1,0.3,0.3,0.5,0.6,0.7s0.6,0.3,0.9,0.4c0.9,0.2,1.9,0.2,2.7-0.2c0.5-0.2,1-0.6,1.3-1c0,0.4,0.1,0.7,0.3,1
			c0.2,0.2,0.5,0.3,0.9,0.3c0.3,0,0.7-0.1,1-0.2v-1c-0.1,0-0.3,0.1-0.4,0.1C232.6,85.6,232.5,85.5,232.4,85.3z M231,83.7
			c0,0.2-0.1,0.4-0.1,0.6c-0.1,0.2-0.3,0.4-0.5,0.6s-0.5,0.4-0.8,0.5c-0.4,0.1-0.8,0.2-1.2,0.2c-0.2,0-0.4,0-0.6-0.1
			c-0.2,0-0.4-0.1-0.5-0.2c-0.2-0.1-0.3-0.2-0.4-0.4c-0.1-0.2-0.1-0.4-0.1-0.6s0-0.5,0.1-0.7s0.2-0.3,0.4-0.4s0.3-0.2,0.5-0.3
			c0.2-0.1,0.4-0.1,0.6-0.2c0.2,0,0.5-0.1,0.7-0.1l0.7-0.1c0.2,0,0.4-0.1,0.6-0.1c0.2,0,0.3-0.1,0.5-0.2L231,83.7z"/>
		<path class="st55" d="M236.5,75.6h-1.4v2.5h-1.4v1.2h1.4v5.4c0,0.3,0,0.6,0.1,0.9c0.1,0.2,0.2,0.4,0.4,0.6
			c0.2,0.1,0.4,0.2,0.6,0.3c0.3,0.1,0.6,0.1,0.9,0.1h1.1v-1.2h-0.6c-0.2,0-0.4,0-0.5,0s-0.2,0-0.3-0.1c-0.1,0-0.1-0.1-0.1-0.2
			s-0.1-0.3-0.1-0.4v-5.3h1.7v-1.2h-1.7L236.5,75.6z"/>
		<rect x="239.8" y="78.2" class="st55" width="1.4" height="8.5"/>
		<path class="st55" d="M250,79.2c-0.4-0.4-0.8-0.7-1.3-0.9c-0.5-0.2-1.1-0.3-1.7-0.3c-0.6,0-1.2,0.1-1.8,0.3
			c-0.5,0.2-0.9,0.5-1.3,0.9c-0.4,0.4-0.6,0.9-0.8,1.4c-0.3,1.1-0.3,2.3,0,3.5c0.2,0.5,0.4,1,0.8,1.4c0.3,0.4,0.8,0.8,1.3,1
			c0.6,0.2,1.2,0.3,1.8,0.3s1.2-0.1,1.8-0.3c0.5-0.2,0.9-0.6,1.3-1c0.4-0.4,0.6-0.9,0.8-1.4c0.4-1.1,0.4-2.3,0-3.5
			C250.7,80.2,250.4,79.7,250,79.2z M249.4,83.8c-0.1,0.4-0.3,0.7-0.6,1c-0.7,0.8-1.9,1-2.9,0.6c-0.3-0.1-0.6-0.3-0.9-0.6
			c-0.3-0.3-0.4-0.6-0.6-1c-0.1-0.4-0.2-0.9-0.2-1.4s0.1-0.9,0.2-1.4c0.1-0.4,0.3-0.7,0.6-1c0.2-0.3,0.5-0.5,0.9-0.6
			c0.6-0.3,1.4-0.3,2,0c0.3,0.1,0.6,0.4,0.8,0.6c0.3,0.3,0.4,0.6,0.6,1c0.1,0.4,0.2,0.9,0.2,1.4C249.6,82.9,249.5,83.3,249.4,83.8
			L249.4,83.8z"/>
		<path class="st55" d="M259.1,78.8c-0.2-0.3-0.6-0.5-0.9-0.6c-0.4-0.2-0.9-0.2-1.4-0.2c-0.6,0-1.1,0.1-1.6,0.4s-0.9,0.7-1.1,1.2
			l0,0v-1.3h-1.3v8.5h1.4V82c0-0.4,0-0.7,0.2-1.1c0.1-0.3,0.3-0.6,0.5-0.8c0.2-0.2,0.5-0.4,0.8-0.6c0.4-0.1,0.7-0.2,1.1-0.2
			c0.5,0,0.9,0.1,1.3,0.5c0.3,0.3,0.5,0.8,0.5,1.2v5.7h1.4v-5.6c0-0.4,0-0.8-0.1-1.2C259.5,79.4,259.3,79.1,259.1,78.8z"/>
		<path class="st55" d="M274.6,83.6c-0.2,0.4-0.4,0.8-0.7,1.1c-0.3,0.3-0.6,0.5-1,0.7s-0.9,0.3-1.4,0.2c-0.6,0-1.2-0.1-1.8-0.4
			c-0.5-0.2-0.9-0.6-1.2-1.1c-0.3-0.5-0.6-1-0.7-1.6c-0.2-0.6-0.2-1.3-0.2-1.9s0.1-1.2,0.2-1.8c0.1-0.5,0.4-1.1,0.7-1.5
			c0.3-0.4,0.7-0.8,1.2-1.1c0.6-0.3,1.2-0.4,1.8-0.4c0.4,0,0.8,0.1,1.1,0.2c0.4,0.1,0.7,0.3,1,0.5s0.5,0.5,0.7,0.8s0.3,0.7,0.4,1.1
			h1.6c-0.1-0.6-0.3-1.1-0.6-1.7c-0.3-0.5-0.6-0.9-1.1-1.2c-0.4-0.3-0.9-0.6-1.5-0.7c-0.6-0.2-1.2-0.3-1.7-0.2
			c-0.8,0-1.6,0.1-2.4,0.5c-0.7,0.3-1.3,0.8-1.7,1.3c-0.5,0.6-0.8,1.3-1.1,2c-0.3,0.8-0.4,1.5-0.4,2.3s0.1,1.6,0.3,2.4
			c0.2,0.7,0.5,1.4,1,1.9c0.5,0.6,1,1,1.7,1.3s1.6,0.5,2.4,0.5c1.3,0.1,2.6-0.4,3.6-1.2c0.9-0.9,1.5-2.1,1.5-3.4H275
			C274.9,82.7,274.8,83.1,274.6,83.6z"/>
		<path class="st55" d="M284.8,79.6c-0.3-0.5-0.7-0.9-1.2-1.2c-0.6-0.3-1.2-0.5-1.9-0.4c-0.5,0-1.1,0.1-1.6,0.3
			c-0.5,0.2-0.9,0.5-1.3,0.9s-0.6,0.9-0.8,1.4c-0.2,0.6-0.3,1.2-0.3,1.8c0,0.6,0.1,1.2,0.3,1.8c0.2,0.5,0.4,1,0.8,1.4
			c0.3,0.4,0.8,0.7,1.2,0.9c0.6,0.2,1.2,0.4,1.8,0.3c0.9,0,1.7-0.2,2.4-0.7c0.7-0.5,1.1-1.3,1.2-2.1H284c-0.1,0.5-0.3,0.9-0.8,1.2
			c-0.4,0.3-0.9,0.4-1.4,0.4c-0.4,0-0.8-0.1-1.2-0.2c-0.6-0.3-1.1-0.8-1.3-1.5c-0.1-0.3-0.1-0.7-0.1-1.1h6.3c0-0.5,0-1.1-0.1-1.6
			C285.3,80.7,285.1,80.1,284.8,79.6z M279.2,81.6c0-0.3,0.1-0.6,0.2-0.9s0.3-0.5,0.5-0.8c0.2-0.2,0.5-0.4,0.7-0.5
			c0.3-0.1,0.7-0.2,1-0.2s0.6,0.1,1,0.2c0.3,0.1,0.5,0.3,0.8,0.5c0.2,0.2,0.4,0.5,0.5,0.8s0.2,0.6,0.2,0.9H279.2z"/>
		<path class="st55" d="M293.4,78.8c-0.2-0.3-0.6-0.5-0.9-0.6c-0.4-0.2-0.9-0.2-1.4-0.2c-0.6,0-1.1,0.1-1.6,0.4s-0.9,0.7-1.1,1.2
			l0,0v-1.3H287v8.5h1.4V82c0-0.4,0-0.7,0.1-1.1c0.1-0.3,0.3-0.6,0.5-0.8c0.2-0.2,0.5-0.4,0.8-0.6c0.3-0.1,0.7-0.2,1.1-0.2
			c0.5,0,0.9,0.1,1.3,0.5c0.3,0.3,0.5,0.8,0.5,1.2v5.7h1.4v-5.6c0-0.4,0-0.8-0.1-1.2C293.8,79.4,293.6,79.1,293.4,78.8z"/>
		<path class="st55" d="M298,75.6h-1.4v2.5h-1.4v1.2h1.4v5.4c0,0.3,0,0.6,0.1,0.9c0.1,0.2,0.2,0.4,0.4,0.6c0.2,0.1,0.4,0.2,0.6,0.3
			c0.3,0.1,0.6,0.1,0.9,0.1h1.1v-1.2H299c-0.2,0-0.4,0-0.5,0s-0.2,0-0.3-0.1c-0.1-0.1-0.1-0.2-0.1-0.3c0-0.1,0-0.3,0-0.4v-5.2h1.7
			v-1.2H298V75.6z"/>
		<path class="st55" d="M307.8,79.6c-0.3-0.5-0.7-0.9-1.2-1.2c-0.6-0.3-1.2-0.5-1.9-0.5c-0.5,0-1.1,0.1-1.6,0.3
			c-0.5,0.2-0.9,0.5-1.3,0.9s-0.6,0.9-0.8,1.4c-0.2,0.6-0.3,1.2-0.3,1.8c0,0.6,0.1,1.2,0.3,1.8c0.2,0.5,0.4,1,0.8,1.4
			c0.3,0.4,0.8,0.7,1.2,0.9c0.6,0.2,1.2,0.4,1.8,0.3c0.9,0,1.7-0.2,2.4-0.7c0.7-0.5,1.1-1.3,1.2-2.1H307c-0.1,0.5-0.3,0.9-0.8,1.2
			c-0.4,0.3-0.9,0.4-1.4,0.4c-0.4,0-0.8-0.1-1.2-0.2c-0.3-0.1-0.6-0.3-0.8-0.6c-0.2-0.3-0.4-0.6-0.5-0.9s-0.1-0.7-0.1-1.1h6.3
			c0-0.5,0-1.1-0.1-1.6C308.3,80.6,308.1,80.1,307.8,79.6z M302.2,81.6c0-0.3,0.1-0.6,0.2-0.9s0.3-0.5,0.5-0.8
			c0.2-0.2,0.5-0.4,0.7-0.5c0.3-0.1,0.7-0.2,1-0.2s0.6,0.1,0.9,0.2s0.5,0.3,0.8,0.5c0.2,0.2,0.4,0.5,0.5,0.8s0.2,0.6,0.2,0.9H302.2z
			"/>
		<path class="st55" d="M311.3,79.9L311.3,79.9v-1.8H310v8.5h1.4v-3.8c0-0.5,0-1,0.2-1.4c0.1-0.4,0.3-0.8,0.5-1.1
			c0.3-0.3,0.6-0.5,1-0.7c0.5-0.2,0.9-0.2,1.4-0.2V78c-0.7,0-1.3,0.1-1.9,0.5C312.1,78.8,311.6,79.3,311.3,79.9z"/>
		<polygon class="st55" points="141.2,74.9 139.8,74.9 139.8,76.6 141.2,75.8 		"/>
		<polygon class="st55" points="241.2,74.9 239.8,74.9 239.8,76.6 241.2,75.8 		"/>
		<path class="st55" d="M128,66.2c0.5-0.1,0.8-0.5,1-0.9c0.1,0.3,0.3,0.6,0.5,0.8c0.3,0.2,0.7,0.3,1.1,0.3h14.1v-2.9
			c0.1-1-0.3-2.1-0.9-2.9c-0.7-0.7-1.6-1.1-2.6-1c-1,0-1.9,0.3-2.7,0.8c-0.8,0.6-1.5,1.3-2,2.2v-8.4H135V65h-4.4
			c-0.3,0-0.5,0-0.7-0.1s-0.3-0.2-0.5-0.4c-0.1-0.2-0.2-0.4-0.2-0.6c0-0.3-0.1-0.5-0.1-0.8v-3.3h-1.4v3.9c0,0.2,0,0.5-0.1,0.7
			s-0.2,0.3-0.3,0.4c-0.1,0.1-0.3,0.1-0.5,0.2c-0.2,0-0.5,0-0.7,0h-2.8c-1.4,0-2.8-0.3-4.1-0.8v1.4c0.3,0.1,0.7,0.2,1.2,0.3
			c0.4,0.1,0.8,0.3,1.2,0.4c0.4,0.1,0.7,0.3,1,0.5c0.2,0.2,0.4,0.4,0.4,0.7c0,0.2-0.1,0.5-0.3,0.6c-0.3,0.2-0.6,0.4-0.9,0.4
			c-0.4,0.1-0.9,0.2-1.4,0.3c-0.5,0.1-1.1,0.1-1.6,0.1c-1.2,0.1-2.3-0.2-3.4-0.7c-0.7-0.5-1.1-1.3-1-2.2v-2.3H113v2.6
			c0,0.5,0.1,1.1,0.3,1.6c0.2,0.5,0.5,0.9,0.9,1.3c0.5,0.4,1.1,0.7,1.8,0.9c0.9,0.2,1.9,0.3,2.8,0.3s1.8-0.1,2.6-0.2
			c0.6-0.1,1.2-0.3,1.7-0.6c0.4-0.2,0.8-0.5,1-0.9c0.2-0.3,0.3-0.6,0.3-1c0-0.2,0-0.5-0.1-0.7s-0.2-0.4-0.3-0.6h2.6
			C127,66.4,127.5,66.3,128,66.2z M137.1,63.6c0.3-0.5,0.6-0.9,1-1.3c0.4-0.4,0.8-0.7,1.2-0.9c0.4-0.3,1-0.4,1.5-0.4
			c0.4,0,0.8,0.1,1.1,0.2c0.3,0.1,0.6,0.3,0.8,0.6s0.3,0.6,0.4,0.9c0.1,0.4,0.1,0.7,0.1,1.1V65h-6.9
			C136.6,64.5,136.8,64.1,137.1,63.6L137.1,63.6z"/>
		<path class="st55" d="M158.1,66.4V54.2h-1.4V65h-3.8v-0.8c0-0.6-0.1-1.2-0.2-1.8c-0.1-0.5-0.3-1-0.6-1.4s-0.6-0.7-1-0.9
			c-0.5-0.2-1-0.3-1.5-0.3s-1,0.1-1.4,0.3s-0.8,0.5-1.1,0.8s-0.5,0.7-0.7,1.2c-0.2,0.4-0.2,0.9-0.2,1.4s0.1,1,0.2,1.4
			c0.1,0.4,0.4,0.7,0.7,0.9c0.3,0.2,0.6,0.4,1,0.5s0.8,0.2,1.3,0.2h1.9c0,0.4-0.1,0.8-0.3,1.1c-0.2,0.3-0.5,0.5-0.8,0.7
			c-0.4,0.2-0.8,0.3-1.1,0.3c-0.5,0.1-1,0.1-1.5,0.1h-0.5V70h0.8c0.7,0,1.3,0,1.9-0.2c0.5-0.1,1-0.3,1.5-0.6c0.4-0.3,0.8-0.6,1-1.1
			c0.3-0.5,0.4-1.1,0.4-1.7L158.1,66.4z M151.4,65h-1.8c-0.5,0-1-0.1-1.5-0.4c-0.4-0.3-0.5-0.8-0.5-1.3c0-0.3,0-0.5,0.1-0.8
			s0.2-0.5,0.4-0.7c0.3-0.5,0.9-0.7,1.4-0.7c0.6-0.1,1.2,0.2,1.5,0.8s0.5,1.3,0.4,2L151.4,65L151.4,65z"/>
		<rect x="160.5" y="54.2" class="st55" width="1.4" height="12.1"/>
		<path class="st55" d="M180.1,65h-8.2c-0.5,0-1,0-1.3,0s-0.6-0.1-0.8-0.2s-0.4-0.3-0.4-0.5c-0.1-0.3-0.1-0.6-0.1-0.8v-2.2h-1.4v2.6
			c0,0.4,0,0.8,0.2,1.1c0.1,0.3,0.3,0.6,0.6,0.8c0.3,0.2,0.7,0.4,1.1,0.4c0.5,0.1,1.1,0.1,1.6,0.1h10.3v-6.5h-1.4L180.1,65z"/>
		<path class="st55" d="M192.1,65.4c0.5,0.4,1.1,0.7,1.7,0.9c0.5,0.2,1.1,0.3,1.6,0.3c0.8,0.1,1.6-0.3,2.2-0.9
			c0.5-0.7,0.7-1.5,0.7-2.3c0-0.5-0.1-1-0.2-1.4c-0.1-0.4-0.4-0.8-0.6-1.1c-0.3-0.3-0.6-0.5-0.9-0.7c-0.4-0.2-0.8-0.3-1.2-0.2
			c-0.3,0-0.6,0-0.9,0.1c-0.3,0.1-0.7,0.3-0.9,0.5c-0.3,0.3-0.6,0.6-0.9,1c-0.3,0.6-0.6,1.1-0.8,1.8c-0.1,0.3-0.2,0.6-0.4,0.8
			c-0.1,0.2-0.3,0.3-0.4,0.5c-0.1,0.1-0.3,0.2-0.4,0.2c-0.1,0.1-0.3,0.1-0.4,0.2h-3.5c-0.5,0-0.8-0.1-1-0.3c-0.2-0.3-0.2-0.7-0.2-1
			v-9.4h-1.4V64c0,0.4,0,0.8,0.2,1.1c0.1,0.3,0.3,0.5,0.5,0.7s0.5,0.3,0.8,0.4s0.7,0.1,1,0.1h3.6c0.2,0,0.4,0,0.6,0
			c0.2,0,0.4,0,0.5-0.1c0.2-0.1,0.3-0.2,0.5-0.3C191.8,65.8,191.9,65.6,192.1,65.4z M193.9,62c0.3-0.4,0.8-0.6,1.3-0.6
			c0.3,0,0.5,0.1,0.7,0.2c0.2,0.1,0.4,0.3,0.5,0.4c0.1,0.2,0.3,0.4,0.3,0.6c0.1,0.2,0.1,0.5,0.1,0.7c0,0.5-0.1,1-0.4,1.4
			c-0.3,0.3-0.7,0.4-1.1,0.4c-0.4,0-0.9-0.1-1.3-0.2c-0.4-0.2-0.9-0.4-1.2-0.7C193,63.5,193.4,62.7,193.9,62L193.9,62z"/>
		<path class="st55" d="M235.1,54.2V65h-2.7c-0.4,0-0.7-0.1-1-0.3c-0.2-0.2-0.4-0.5-0.5-0.8c0-0.1,0-0.1,0-0.2v-0.2
			c0-0.5-0.1-0.9-0.2-1.4c-0.2-0.4-0.4-0.7-0.6-1c-0.3-0.3-0.6-0.5-0.9-0.7c-0.4-0.2-0.8-0.3-1.2-0.3c-0.3,0-0.6,0-0.9,0.1
			c-0.3,0.1-0.6,0.3-0.9,0.5c-0.3,0.3-0.6,0.6-0.9,1c-0.3,0.6-0.6,1.1-0.8,1.8c-0.1,0.3-0.2,0.6-0.4,0.8c-0.1,0.2-0.3,0.3-0.4,0.5
			c-0.1,0.1-0.3,0.2-0.4,0.2c-0.1,0-0.3,0-0.4,0h-3c-0.3,0-0.6,0-0.9-0.1c0.6-0.4,1.1-0.9,1.4-1.5c0.3-0.5,0.5-1.1,0.5-1.8
			c0-0.3-0.1-0.5-0.2-0.8c-0.1-0.3-0.3-0.5-0.5-0.7c-0.3-0.2-0.6-0.4-0.9-0.5c-0.4-0.1-0.9-0.2-1.3-0.2c-0.6,0-1.1,0.1-1.7,0.3
			c-0.5,0.2-0.9,0.5-1.3,0.9c-0.1,0.1-0.1,0.2-0.2,0.3c-0.1,0.1-0.1,0.2-0.2,0.3s-0.1,0.3-0.2,0.4s-0.1,0.3-0.1,0.4l2.1,2.4
			c-0.8,0.2-1.6,0.4-2.5,0.3H213c-0.4,0-0.8-0.2-1.1-0.5c-0.3-0.4-0.4-0.9-0.4-1.4v-8.7h-1.4v9.5c0,0.2,0,0.5-0.1,0.7
			c-0.1,0.1-0.1,0.3-0.3,0.4c-0.1,0.1-0.3,0.1-0.4,0.2c-0.2,0-0.4,0-0.5,0h-2.6v-0.8c0-0.6-0.1-1.2-0.2-1.8c-0.1-0.5-0.3-1-0.6-1.4
			c-0.2-0.4-0.6-0.7-1-0.9c-0.5-0.2-1-0.3-1.5-0.3s-1,0.1-1.4,0.3s-0.7,0.5-1,0.8s-0.5,0.7-0.7,1.2c-0.2,0.4-0.2,0.9-0.2,1.4
			s0.1,1,0.2,1.4c0.2,0.3,0.4,0.7,0.7,0.9c0.3,0.2,0.6,0.4,1,0.5s0.9,0.2,1.3,0.2h1.9c0,0.4-0.1,0.8-0.3,1.1
			c-0.2,0.3-0.5,0.5-0.8,0.7c-0.4,0.2-0.8,0.3-1.1,0.3c-0.5,0.1-1,0.1-1.5,0.1h-0.5V70h0.7c0.7,0,1.3,0,2-0.2c0.5-0.1,1-0.3,1.5-0.6
			c0.4-0.3,0.8-0.6,1-1.1c0.3-0.5,0.4-1.1,0.4-1.7h2.4c0.6,0,1.2-0.1,1.7-0.2s0.8-0.5,1-0.9c0.1,0.3,0.3,0.6,0.5,0.8
			c0.3,0.2,0.6,0.3,1,0.3h1c0.6,0,1.2-0.1,1.8-0.2s1.1-0.3,1.7-0.5c0.3,0.3,0.6,0.4,1,0.6c0.3,0.1,0.6,0.1,0.9,0.1h3.5
			c0.2,0,0.4,0,0.6,0c0.2,0,0.4,0,0.5-0.1c0.2-0.1,0.3-0.2,0.5-0.3c0.2-0.2,0.3-0.3,0.4-0.5c0.5,0.4,1.1,0.7,1.7,0.9
			c0.5,0.2,1.1,0.3,1.6,0.3s1.1-0.1,1.6-0.4c0.4-0.2,0.7-0.6,0.9-1l0,0c0.2,0.4,0.4,0.7,0.8,0.9c0.3,0.2,0.7,0.3,1.1,0.3h4.1V54.2
			H235.1z M204.9,65h-1.8c-0.5,0-1-0.1-1.5-0.4c-0.4-0.3-0.5-0.8-0.5-1.3c0-0.3,0-0.5,0.1-0.8s0.2-0.5,0.3-0.7
			c0.2-0.2,0.4-0.4,0.6-0.5c0.3-0.1,0.6-0.2,0.9-0.2c0.6-0.1,1.2,0.2,1.5,0.8s0.5,1.3,0.4,2V65z M217.6,64.1l-2.1-2.2
			c0.3-0.3,0.6-0.6,1-0.7c0.4-0.2,0.8-0.3,1.3-0.3c0.4,0,0.9,0.1,1.2,0.3c0.2,0.2,0.4,0.4,0.4,0.7c0,0.4-0.2,0.9-0.5,1.2
			C218.5,63.6,218.1,63.9,217.6,64.1L217.6,64.1z M229.1,64.8c-0.3,0.3-0.7,0.4-1.1,0.4c-0.4,0-0.9-0.1-1.3-0.2
			c-0.4-0.2-0.9-0.4-1.2-0.7c0.2-0.8,0.6-1.6,1.1-2.2c0.3-0.4,0.8-0.6,1.3-0.6c0.3,0,0.5,0.1,0.7,0.2c0.2,0.1,0.4,0.3,0.5,0.4
			c0.1,0.2,0.3,0.4,0.3,0.6c0.1,0.2,0.1,0.5,0.1,0.7C229.6,63.9,229.5,64.4,229.1,64.8L229.1,64.8z"/>
		<rect x="238.9" y="54.2" class="st55" width="1.4" height="12.1"/>
		<path class="st55" d="M255.1,58.4c-0.1,0.1-0.2,0.2-0.2,0.3c-0.1,0.1-0.1,0.3-0.2,0.4c-0.1,0.1-0.1,0.3-0.1,0.4
			c0.6,0.3,1.2,0.6,1.8,1c0.5,0.4,1.1,0.8,1.5,1.2c0.4,0.3,0.8,0.7,1.1,1.2c0.2,0.3,0.4,0.6,0.4,1c0,0.3-0.1,0.7-0.4,0.9
			c-0.3,0.1-0.7,0.2-1,0.2h-6.6c-0.4,0.1-0.9-0.1-1.2-0.5c-0.2-0.4-0.3-0.9-0.3-1.4v-2.4h-1.4v4.6c0,0.6,0,1.1,0,1.5s-0.1,0.7-0.3,1
			s-0.4,0.5-0.7,0.6c-0.4,0.1-0.9,0.2-1.3,0.2V70c0.6,0,1.3-0.1,1.9-0.2c0.4-0.1,0.8-0.4,1.1-0.7c0.3-0.4,0.5-0.9,0.6-1.4
			c0.1-0.7,0.2-1.4,0.2-2.1c0.1,0.2,0.3,0.4,0.6,0.6s0.6,0.3,0.9,0.3h6.5c0.5,0,1-0.1,1.5-0.2c0.3-0.1,0.6-0.3,0.9-0.6
			c0.2-0.2,0.3-0.5,0.4-0.8s0.1-0.5,0.1-0.8c0-0.4-0.1-0.7-0.2-1.1c-0.2-0.4-0.4-0.8-0.8-1.2c-0.4-0.5-0.9-0.9-1.4-1.3
			c-0.6-0.5-1.3-1-2-1.4l5-2.2v-1.4l-6.2,2.7C255.3,58.3,255.2,58.4,255.1,58.4z"/>
		<path class="st55" d="M275.7,65.8c0.5-0.7,0.8-1.5,0.7-2.3c0-0.5-0.1-1-0.2-1.4s-0.4-0.8-0.6-1.1c-0.3-0.3-0.6-0.5-1-0.7
			s-0.8-0.3-1.2-0.2c-0.3,0-0.6,0-0.9,0.1s-0.7,0.3-0.9,0.5c-0.3,0.3-0.6,0.6-0.9,1c-0.3,0.6-0.6,1.1-0.8,1.8
			c-0.1,0.3-0.2,0.6-0.4,0.8c-0.1,0.2-0.3,0.3-0.4,0.5c-0.1,0.1-0.3,0.2-0.5,0.2c-0.1,0-0.3,0-0.4,0h-0.7c-0.4,0-0.8-0.2-1.1-0.5
			c-0.2-0.4-0.3-0.9-0.3-1.4v-2.3h-1.4v4.6c0,0.6,0,1.1,0,1.5c0,0.3-0.1,0.7-0.3,1c-0.2,0.3-0.4,0.5-0.7,0.6
			c-0.4,0.1-0.9,0.2-1.3,0.2v1.4c0.6,0,1.2-0.1,1.9-0.2c0.4-0.1,0.8-0.4,1.1-0.7c0.3-0.4,0.5-0.9,0.5-1.4c0.1-0.7,0.2-1.4,0.1-2.1
			c0.1,0.2,0.3,0.4,0.6,0.6c0.3,0.2,0.5,0.3,0.8,0.3h0.8c0.2,0,0.4,0,0.6,0s0.4,0,0.5-0.1c0.2-0.1,0.3-0.2,0.5-0.3
			c0.2-0.2,0.3-0.3,0.5-0.5c0.5,0.4,1.1,0.7,1.7,0.9c0.5,0.2,1.1,0.3,1.6,0.3C274.4,66.7,275.2,66.4,275.7,65.8z M274.6,64.8
			c-0.3,0.3-0.7,0.4-1.1,0.4s-0.9-0.1-1.3-0.2c-0.4-0.2-0.9-0.4-1.2-0.7c0.2-0.8,0.6-1.6,1.1-2.2c0.3-0.4,0.8-0.6,1.3-0.6
			c0.2,0,0.5,0.1,0.7,0.2c0.2,0.1,0.4,0.2,0.5,0.4s0.3,0.4,0.3,0.6c0.1,0.2,0.1,0.5,0.1,0.7C275.1,63.9,274.9,64.4,274.6,64.8
			L274.6,64.8z"/>
		<polygon class="st55" points="250,56.6 248.6,56.6 248.6,58.3 250,57.5 		"/>
		<polygon class="st55" points="129.1,56.1 127.7,56.1 127.7,57.8 129.1,57 		"/>
		<polygon class="st55" points="176.5,57.1 175.1,57.1 175.1,58.8 176.5,58 		"/>
		<polygon class="st55" points="174.4,57.1 173,57.1 173,58.8 174.4,58 		"/>
		<polygon class="st55" points="120.2,71.4 118.8,71.4 118.8,73.1 120.2,72.3 		"/>
		<polygon class="st55" points="118.1,71.4 116.7,71.4 116.7,73.1 118.1,72.3 		"/>
	</g>
</g>
<script  type="text/javascript">//<![CDATA[  <-- For SVG support
	if ('WebSocket' in window) {
		(function () {
			function refreshCSS() {
				var sheets = [].slice.call(document.getElementsByTagName("link"));
				var head = document.getElementsByTagName("head")[0];
				for (var i = 0; i < sheets.length; ++i) {
					var elem = sheets[i];
					var parent = elem.parentElement || head;
					parent.removeChild(elem);
					var rel = elem.rel;
					if (elem.href && typeof rel != "string" || rel.length == 0 || rel.toLowerCase() == "stylesheet") {
						var url = elem.href.replace(/(&|\?)_cacheOverride=\d+/, '');
						elem.href = url + (url.indexOf('?') >= 0 ? '&' : '?') + '_cacheOverride=' + (new Date().valueOf());
					}
					parent.appendChild(elem);
				}
			}
			var protocol = window.location.protocol === 'http:' ? 'ws://' : 'wss://';
			var address = protocol + window.location.host + window.location.pathname + '/ws';
			var socket = new WebSocket(address);
			socket.onmessage = function (msg) {
				if (msg.data == 'reload') window.location.reload();
				else if (msg.data == 'refreshcss') refreshCSS();
			};
			if (sessionStorage && !sessionStorage.getItem('IsThisFirstTime_Log_From_LiveServer')) {
				console.log('Live reload enabled.');
				sessionStorage.setItem('IsThisFirstTime_Log_From_LiveServer', true);
			}
		})();
	}
	else {
		console.error('Upgrade your browser. This Browser is NOT supported WebSocket for Live-Reloading.');
	}
	// 
	]]>
</script>
</svg>
