<?xml version="1.0" encoding="utf-8"?>
<!-- Generator: Adobe Illustrator 25.0.0, SVG Export Plug-In . SVG Version: 6.00 Build 0)  -->
<svg version="1.1" id="Layer_1" xmlns="http://www.w3.org/2000/svg" xmlns:xlink="http://www.w3.org/1999/xlink" x="0px" y="0px"
	 viewBox="0 0 172 63.8" style="enable-background:new 0 0 172 63.8;" xml:space="preserve">
<style type="text/css">
	.st0{fill:#FF6633;}
	.st1{fill:url(#SVGID_1_);}
	.st2{fill:url(#SVGID_2_);}
	.st3{fill:url(#SVGID_3_);}
	.st4{fill:url(#SVGID_4_);}
	.st5{fill:url(#SVGID_5_);}
	.st6{fill:url(#SVGID_6_);}
	.st7{fill:url(#SVGID_7_);}
	.st8{fill:url(#SVGID_8_);}
	.st9{fill:url(#SVGID_9_);}
	.st10{fill:url(#SVGID_10_);}
	.st11{fill:url(#SVGID_11_);}
	.st12{fill:url(#SVGID_12_);}
	.st13{fill:url(#SVGID_13_);}
	.st14{fill:url(#SVGID_14_);}
	.st15{fill:url(#SVGID_15_);}
	.st16{fill:url(#SVGID_16_);}
	.st17{fill:url(#SVGID_17_);}
	.st18{fill:url(#SVGID_18_);}
	.st19{fill:url(#SVGID_19_);}
	.st20{fill:url(#SVGID_20_);}
	.st21{fill:url(#SVGID_21_);}
	.st22{fill:url(#SVGID_22_);}
	.st23{fill:url(#SVGID_23_);}
	.st24{fill:url(#SVGID_24_);}
	.st25{fill:url(#SVGID_25_);}
	.st26{fill:url(#SVGID_26_);}
	.st27{fill:url(#SVGID_27_);}
	.st28{fill:url(#SVGID_28_);}
	.st29{fill:url(#SVGID_29_);}
	.st30{fill:url(#SVGID_30_);}
	.st31{fill:url(#SVGID_31_);}
	.st32{fill:url(#SVGID_32_);}
	.st33{fill:url(#SVGID_33_);}
	.st34{fill:url(#SVGID_34_);}
	.st35{fill:url(#SVGID_35_);}
	.st36{fill:url(#SVGID_36_);}
	.st37{fill:url(#SVGID_37_);}
	.st38{fill:url(#SVGID_38_);}
	.st39{fill:url(#SVGID_39_);}
	.st40{fill:url(#SVGID_40_);}
	.st41{fill:url(#SVGID_41_);}
	.st42{fill:url(#SVGID_42_);}
	.st43{fill:url(#SVGID_43_);}
	.st44{fill:url(#SVGID_44_);}
	.st45{fill:url(#SVGID_45_);}
	.st46{fill:url(#SVGID_46_);}
	.st47{fill:url(#SVGID_47_);}
	.st48{fill:url(#SVGID_48_);}
	.st49{fill:url(#SVGID_49_);}
	.st50{fill:url(#SVGID_50_);}
	.st51{fill:url(#SVGID_51_);}
	.st52{fill:url(#SVGID_52_);}
	.st53{fill:url(#SVGID_53_);}
	.st54{fill:url(#SVGID_54_);}
	.st55{fill:#FFFFFF;}
</style>
<g id="Layer_2_1_">
	<g id="Layer_1-2">
		<polygon class="st0" points="56.6,9.9 47.7,4.8 47.7,15 47.7,25.3 47.7,35.5 47.7,45.8 47.7,56.1 56.6,50.9 65.5,45.8 65.5,35.5 
			65.5,25.3 65.5,15 		"/>
		
			<linearGradient id="SVGID_1_" gradientUnits="userSpaceOnUse" x1="65.51" y1="766.65" x2="-0.48" y2="766.65" gradientTransform="matrix(1 0 0 1 0 -726)">
			<stop  offset="0" style="stop-color:#FDBD4D"/>
			<stop  offset="0.5" style="stop-color:#FF6633"/>
			<stop  offset="1" style="stop-color:#273470"/>
		</linearGradient>
		<polygon class="st1" points="65.5,35.5 65.5,45.8 56.6,40.7 		"/>
		
			<linearGradient id="SVGID_2_" gradientUnits="userSpaceOnUse" x1="65.51" y1="756.4" x2="-0.51" y2="756.4" gradientTransform="matrix(1 0 0 1 0 -726)">
			<stop  offset="0" style="stop-color:#FDBD4D"/>
			<stop  offset="0.5" style="stop-color:#FF6633"/>
			<stop  offset="1" style="stop-color:#273470"/>
		</linearGradient>
		<polygon class="st2" points="65.5,25.3 65.5,35.5 56.6,30.4 		"/>
		
			<linearGradient id="SVGID_3_" gradientUnits="userSpaceOnUse" x1="65.51" y1="746.15" x2="-0.48" y2="746.15" gradientTransform="matrix(1 0 0 1 0 -726)">
			<stop  offset="0" style="stop-color:#FDBD4D"/>
			<stop  offset="0.5" style="stop-color:#FF6633"/>
			<stop  offset="1" style="stop-color:#273470"/>
		</linearGradient>
		<polygon class="st3" points="65.5,25.3 56.6,20.2 65.5,15 		"/>
		
			<linearGradient id="SVGID_4_" gradientUnits="userSpaceOnUse" x1="66.6" y1="741.05" x2="28.05" y2="741.05" gradientTransform="matrix(1 0 0 1 0 -726)">
			<stop  offset="0" style="stop-color:#FDBD4D"/>
			<stop  offset="0.5" style="stop-color:#FF6633"/>
			<stop  offset="1" style="stop-color:#273470"/>
		</linearGradient>
		<polygon class="st4" points="65.5,15 56.6,20.2 56.6,9.9 		"/>
		
			<linearGradient id="SVGID_5_" gradientUnits="userSpaceOnUse" x1="69.14" y1="751.3" x2="21" y2="751.3" gradientTransform="matrix(1 0 0 1 0 -726)">
			<stop  offset="0" style="stop-color:#FDBD4D"/>
			<stop  offset="0.5" style="stop-color:#FF6633"/>
			<stop  offset="1" style="stop-color:#273470"/>
		</linearGradient>
		<polygon class="st5" points="65.5,25.3 56.6,30.4 56.6,20.2 		"/>
		
			<linearGradient id="SVGID_6_" gradientUnits="userSpaceOnUse" x1="65.51" y1="761.55" x2="-0.51" y2="761.55" gradientTransform="matrix(1 0 0 1 0 -726)">
			<stop  offset="0" style="stop-color:#FDBD4D"/>
			<stop  offset="0.5" style="stop-color:#FF6633"/>
			<stop  offset="1" style="stop-color:#273470"/>
		</linearGradient>
		<polygon class="st6" points="65.5,35.5 56.6,40.7 56.6,30.4 		"/>
		
			<linearGradient id="SVGID_7_" gradientUnits="userSpaceOnUse" x1="69.14" y1="771.8" x2="21.02" y2="771.8" gradientTransform="matrix(1 0 0 1 0 -726)">
			<stop  offset="0" style="stop-color:#FDBD4D"/>
			<stop  offset="0.5" style="stop-color:#FF6633"/>
			<stop  offset="1" style="stop-color:#273470"/>
		</linearGradient>
		<polygon class="st7" points="65.5,45.8 56.6,50.9 56.6,40.7 		"/>
		
			<linearGradient id="SVGID_8_" gradientUnits="userSpaceOnUse" x1="65.51" y1="761.55" x2="-0.49" y2="761.55" gradientTransform="matrix(1 0 0 1 0 -726)">
			<stop  offset="0" style="stop-color:#FDBD4D"/>
			<stop  offset="0.5" style="stop-color:#FF6633"/>
			<stop  offset="1" style="stop-color:#273470"/>
		</linearGradient>
		<polygon class="st8" points="56.6,40.7 47.7,35.5 56.6,30.4 		"/>
		
			<linearGradient id="SVGID_9_" gradientUnits="userSpaceOnUse" x1="65.51" y1="751.3" x2="-0.49" y2="751.3" gradientTransform="matrix(1 0 0 1 0 -726)">
			<stop  offset="0" style="stop-color:#FDBD4D"/>
			<stop  offset="0.5" style="stop-color:#FF6633"/>
			<stop  offset="1" style="stop-color:#273470"/>
		</linearGradient>
		<polygon class="st9" points="56.6,30.4 47.7,25.3 56.6,20.2 		"/>
		
			<linearGradient id="SVGID_10_" gradientUnits="userSpaceOnUse" x1="65.51" y1="741.05" x2="-0.49" y2="741.05" gradientTransform="matrix(1 0 0 1 0 -726)">
			<stop  offset="0" style="stop-color:#FDBD4D"/>
			<stop  offset="0.5" style="stop-color:#FF6633"/>
			<stop  offset="1" style="stop-color:#273470"/>
		</linearGradient>
		<polygon class="st10" points="56.6,9.9 56.6,20.2 47.7,15 		"/>
		
			<linearGradient id="SVGID_11_" gradientUnits="userSpaceOnUse" x1="65.51" y1="771.8" x2="-0.49" y2="771.8" gradientTransform="matrix(1 0 0 1 0 -726)">
			<stop  offset="0" style="stop-color:#FDBD4D"/>
			<stop  offset="0.5" style="stop-color:#FF6633"/>
			<stop  offset="1" style="stop-color:#273470"/>
		</linearGradient>
		<polygon class="st11" points="56.6,40.7 56.6,50.9 47.7,45.8 		"/>
		
			<linearGradient id="SVGID_12_" gradientUnits="userSpaceOnUse" x1="65.51" y1="735.9" x2="-0.51" y2="735.9" gradientTransform="matrix(1 0 0 1 0 -726)">
			<stop  offset="0" style="stop-color:#FDBD4D"/>
			<stop  offset="0.5" style="stop-color:#FF6633"/>
			<stop  offset="1" style="stop-color:#273470"/>
		</linearGradient>
		<polygon class="st12" points="56.6,9.9 47.7,15 47.7,4.8 		"/>
		
			<linearGradient id="SVGID_13_" gradientUnits="userSpaceOnUse" x1="69.15" y1="746.15" x2="21" y2="746.15" gradientTransform="matrix(1 0 0 1 0 -726)">
			<stop  offset="0" style="stop-color:#FDBD4D"/>
			<stop  offset="0.5" style="stop-color:#FF6633"/>
			<stop  offset="1" style="stop-color:#273470"/>
		</linearGradient>
		<polygon class="st13" points="56.6,20.2 47.7,25.3 47.7,15 		"/>
		
			<linearGradient id="SVGID_14_" gradientUnits="userSpaceOnUse" x1="69.15" y1="756.4" x2="21" y2="756.4" gradientTransform="matrix(1 0 0 1 0 -726)">
			<stop  offset="0" style="stop-color:#FDBD4D"/>
			<stop  offset="0.5" style="stop-color:#FF6633"/>
			<stop  offset="1" style="stop-color:#273470"/>
		</linearGradient>
		<polygon class="st14" points="56.6,30.4 47.7,35.5 47.7,25.3 		"/>
		
			<linearGradient id="SVGID_15_" gradientUnits="userSpaceOnUse" x1="69.15" y1="766.65" x2="21" y2="766.65" gradientTransform="matrix(1 0 0 1 0 -726)">
			<stop  offset="0" style="stop-color:#FDBD4D"/>
			<stop  offset="0.5" style="stop-color:#FF6633"/>
			<stop  offset="1" style="stop-color:#273470"/>
		</linearGradient>
		<polygon class="st15" points="56.6,40.7 47.7,45.8 47.7,35.5 		"/>
		
			<linearGradient id="SVGID_16_" gradientUnits="userSpaceOnUse" x1="65.51" y1="776.95" x2="-0.49" y2="776.95" gradientTransform="matrix(1 0 0 1 0 -726)">
			<stop  offset="0" style="stop-color:#FDBD4D"/>
			<stop  offset="0.5" style="stop-color:#FF6633"/>
			<stop  offset="1" style="stop-color:#273470"/>
		</linearGradient>
		<polygon class="st16" points="56.6,50.9 47.7,56.1 47.7,45.8 		"/>
		
			<linearGradient id="SVGID_17_" gradientUnits="userSpaceOnUse" x1="61.06" y1="766.9" x2="8.26" y2="766.9" gradientTransform="matrix(1 0 0 1 0 -726)">
			<stop  offset="0" style="stop-color:#FDBD4D"/>
			<stop  offset="0.5" style="stop-color:#FF6633"/>
			<stop  offset="1" style="stop-color:#273470"/>
		</linearGradient>
		<polygon class="st17" points="46.8,45 39.7,40.9 46.8,36.8 		"/>
		
			<linearGradient id="SVGID_18_" gradientUnits="userSpaceOnUse" x1="61.06" y1="756.4" x2="8.26" y2="756.4" gradientTransform="matrix(1 0 0 1 0 -726)">
			<stop  offset="0" style="stop-color:#FDBD4D"/>
			<stop  offset="0.5" style="stop-color:#FF6633"/>
			<stop  offset="1" style="stop-color:#273470"/>
		</linearGradient>
		<polygon class="st18" points="46.8,26.3 46.8,34.5 39.7,30.4 		"/>
		
			<linearGradient id="SVGID_19_" gradientUnits="userSpaceOnUse" x1="61.06" y1="745.9" x2="8.28" y2="745.9" gradientTransform="matrix(1 0 0 1 0 -726)">
			<stop  offset="0" style="stop-color:#FDBD4D"/>
			<stop  offset="0.5" style="stop-color:#FF6633"/>
			<stop  offset="1" style="stop-color:#273470"/>
		</linearGradient>
		<polygon class="st19" points="46.8,15.8 46.8,24 39.7,19.9 		"/>
		
			<linearGradient id="SVGID_20_" gradientUnits="userSpaceOnUse" x1="61.06" y1="735.4" x2="8.26" y2="735.4" gradientTransform="matrix(1 0 0 1 0 -726)">
			<stop  offset="0" style="stop-color:#FDBD4D"/>
			<stop  offset="0.5" style="stop-color:#FF6633"/>
			<stop  offset="1" style="stop-color:#273470"/>
		</linearGradient>
		<polygon class="st20" points="46.8,13.5 39.7,9.4 46.8,5.3 		"/>
		
			<linearGradient id="SVGID_21_" gradientUnits="userSpaceOnUse" x1="61.06" y1="777.5" x2="8.26" y2="777.5" gradientTransform="matrix(1 0 0 1 0 -726)">
			<stop  offset="0" style="stop-color:#FDBD4D"/>
			<stop  offset="0.5" style="stop-color:#FF6633"/>
			<stop  offset="1" style="stop-color:#273470"/>
		</linearGradient>
		<polygon class="st21" points="46.8,47.4 46.8,55.6 39.7,51.5 		"/>
		
			<linearGradient id="SVGID_22_" gradientUnits="userSpaceOnUse" x1="61.06" y1="740.6" x2="8.26" y2="740.6" gradientTransform="matrix(1 0 0 1 0 -726)">
			<stop  offset="0" style="stop-color:#FDBD4D"/>
			<stop  offset="0.5" style="stop-color:#FF6633"/>
			<stop  offset="1" style="stop-color:#273470"/>
		</linearGradient>
		<polygon class="st22" points="46.8,14.6 39.7,18.7 39.7,10.5 		"/>
		
			<linearGradient id="SVGID_23_" gradientUnits="userSpaceOnUse" x1="61.06" y1="751.15" x2="8.26" y2="751.15" gradientTransform="matrix(1 0 0 1 0 -726)">
			<stop  offset="0" style="stop-color:#FDBD4D"/>
			<stop  offset="0.5" style="stop-color:#FF6633"/>
			<stop  offset="1" style="stop-color:#273470"/>
		</linearGradient>
		<polygon class="st23" points="46.8,25.1 39.7,29.3 39.7,21 		"/>
		
			<linearGradient id="SVGID_24_" gradientUnits="userSpaceOnUse" x1="61.06" y1="782.7" x2="8.26" y2="782.7" gradientTransform="matrix(1 0 0 1 0 -726)">
			<stop  offset="0" style="stop-color:#FDBD4D"/>
			<stop  offset="0.5" style="stop-color:#FF6633"/>
			<stop  offset="1" style="stop-color:#273470"/>
		</linearGradient>
		<polygon class="st24" points="46.8,56.7 39.7,60.8 39.7,52.6 		"/>
		
			<linearGradient id="SVGID_25_" gradientUnits="userSpaceOnUse" x1="61.06" y1="761.7" x2="8.24" y2="761.7" gradientTransform="matrix(1 0 0 1 0 -726)">
			<stop  offset="0" style="stop-color:#FDBD4D"/>
			<stop  offset="0.5" style="stop-color:#FF6633"/>
			<stop  offset="1" style="stop-color:#273470"/>
		</linearGradient>
		<polygon class="st25" points="46.8,35.7 39.7,39.8 39.7,31.6 		"/>
		
			<linearGradient id="SVGID_26_" gradientUnits="userSpaceOnUse" x1="61.06" y1="730.1" x2="8.24" y2="730.1" gradientTransform="matrix(1 0 0 1 0 -726)">
			<stop  offset="0" style="stop-color:#FDBD4D"/>
			<stop  offset="0.5" style="stop-color:#FF6633"/>
			<stop  offset="1" style="stop-color:#273470"/>
		</linearGradient>
		<polygon class="st26" points="46.8,4.1 39.7,8.2 39.7,0 		"/>
		
			<linearGradient id="SVGID_27_" gradientUnits="userSpaceOnUse" x1="61.06" y1="772.2" x2="8.24" y2="772.2" gradientTransform="matrix(1 0 0 1 0 -726)">
			<stop  offset="0" style="stop-color:#FDBD4D"/>
			<stop  offset="0.5" style="stop-color:#FF6633"/>
			<stop  offset="1" style="stop-color:#273470"/>
		</linearGradient>
		<polygon class="st27" points="46.8,46.2 39.7,50.3 39.7,42.1 		"/>
		
			<linearGradient id="SVGID_28_" gradientUnits="userSpaceOnUse" x1="65.5" y1="785.95" x2="-0.5" y2="785.95" gradientTransform="matrix(1 0 0 1 0 -726)">
			<stop  offset="0" style="stop-color:#FDBD4D"/>
			<stop  offset="0.5" style="stop-color:#FF6633"/>
			<stop  offset="1" style="stop-color:#273470"/>
		</linearGradient>
		<polygon class="st28" points="30.2,59.9 36.9,56.1 36.9,63.8 		"/>
		
			<linearGradient id="SVGID_29_" gradientUnits="userSpaceOnUse" x1="65.49" y1="772.15" x2="-0.49" y2="772.15" gradientTransform="matrix(1 0 0 1 0 -726)">
			<stop  offset="0" style="stop-color:#FDBD4D"/>
			<stop  offset="0.5" style="stop-color:#FF6633"/>
			<stop  offset="1" style="stop-color:#273470"/>
		</linearGradient>
		<polygon class="st29" points="34.9,50 28.2,46.2 34.9,42.3 		"/>
		
			<linearGradient id="SVGID_30_" gradientUnits="userSpaceOnUse" x1="65.5" y1="761.55" x2="-0.5" y2="761.55" gradientTransform="matrix(1 0 0 1 0 -726)">
			<stop  offset="0" style="stop-color:#FDBD4D"/>
			<stop  offset="0.5" style="stop-color:#FF6633"/>
			<stop  offset="1" style="stop-color:#273470"/>
		</linearGradient>
		<polygon class="st30" points="36.9,31.7 36.9,39.4 30.2,35.5 		"/>
		
			<linearGradient id="SVGID_31_" gradientUnits="userSpaceOnUse" x1="65.5" y1="751.35" x2="-0.5" y2="751.35" gradientTransform="matrix(1 0 0 1 0 -726)">
			<stop  offset="0" style="stop-color:#FDBD4D"/>
			<stop  offset="0.5" style="stop-color:#FF6633"/>
			<stop  offset="1" style="stop-color:#273470"/>
		</linearGradient>
		<polygon class="st31" points="34.9,29.2 28.2,25.4 34.9,21.5 		"/>
		
			<linearGradient id="SVGID_32_" gradientUnits="userSpaceOnUse" x1="65.49" y1="730.75" x2="-0.49" y2="730.75" gradientTransform="matrix(1 0 0 1 0 -726)">
			<stop  offset="0" style="stop-color:#FDBD4D"/>
			<stop  offset="0.5" style="stop-color:#FF6633"/>
			<stop  offset="1" style="stop-color:#273470"/>
		</linearGradient>
		<polygon class="st32" points="34.5,8.6 27.9,4.8 34.5,0.9 		"/>
		
			<linearGradient id="SVGID_33_" gradientUnits="userSpaceOnUse" x1="65.49" y1="741.25" x2="-0.49" y2="741.25" gradientTransform="matrix(1 0 0 1 0 -726)">
			<stop  offset="0" style="stop-color:#FDBD4D"/>
			<stop  offset="0.5" style="stop-color:#FF6633"/>
			<stop  offset="1" style="stop-color:#273470"/>
		</linearGradient>
		<polygon class="st33" points="36.5,11.4 36.5,19.1 29.8,15.2 		"/>
		
			<linearGradient id="SVGID_34_" gradientUnits="userSpaceOnUse" x1="65.5" y1="756.45" x2="-0.5" y2="756.45" gradientTransform="matrix(1 0 0 1 0 -726)">
			<stop  offset="0" style="stop-color:#FDBD4D"/>
			<stop  offset="0.5" style="stop-color:#FF6633"/>
			<stop  offset="1" style="stop-color:#273470"/>
		</linearGradient>
		<polygon class="st34" points="33.1,30.4 26.5,34.3 26.5,26.6 		"/>
		
			<linearGradient id="SVGID_35_" gradientUnits="userSpaceOnUse" x1="65.5" y1="767.25" x2="-0.5" y2="767.25" gradientTransform="matrix(1 0 0 1 0 -726)">
			<stop  offset="0" style="stop-color:#FDBD4D"/>
			<stop  offset="0.5" style="stop-color:#FF6633"/>
			<stop  offset="1" style="stop-color:#273470"/>
		</linearGradient>
		<polygon class="st35" points="32.8,41.2 26.1,45.1 26.1,37.4 		"/>
		
			<linearGradient id="SVGID_36_" gradientUnits="userSpaceOnUse" x1="65.5" y1="778" x2="-0.5" y2="778" gradientTransform="matrix(1 0 0 1 0 -726)">
			<stop  offset="0" style="stop-color:#FDBD4D"/>
			<stop  offset="0.5" style="stop-color:#FF6633"/>
			<stop  offset="1" style="stop-color:#273470"/>
		</linearGradient>
		<polygon class="st36" points="27.3,48.2 33.9,52 27.3,55.8 		"/>
		
			<linearGradient id="SVGID_37_" gradientUnits="userSpaceOnUse" x1="65.5" y1="735.9" x2="-0.5" y2="735.9" gradientTransform="matrix(1 0 0 1 0 -726)">
			<stop  offset="0" style="stop-color:#FDBD4D"/>
			<stop  offset="0.5" style="stop-color:#FF6633"/>
			<stop  offset="1" style="stop-color:#273470"/>
		</linearGradient>
		<polygon class="st37" points="33.6,9.9 26.9,13.7 26.9,6.1 		"/>
		
			<linearGradient id="SVGID_38_" gradientUnits="userSpaceOnUse" x1="65.49" y1="746.15" x2="-0.49" y2="746.15" gradientTransform="matrix(1 0 0 1 0 -726)">
			<stop  offset="0" style="stop-color:#FDBD4D"/>
			<stop  offset="0.5" style="stop-color:#FF6633"/>
			<stop  offset="1" style="stop-color:#273470"/>
		</linearGradient>
		<polygon class="st38" points="33.6,20.1 26.9,24 26.9,16.3 		"/>
		
			<linearGradient id="SVGID_39_" gradientUnits="userSpaceOnUse" x1="65.5" y1="778.55" x2="-0.5" y2="778.55" gradientTransform="matrix(1 0 0 1 0 -726)">
			<stop  offset="0" style="stop-color:#FDBD4D"/>
			<stop  offset="0.5" style="stop-color:#FF6633"/>
			<stop  offset="1" style="stop-color:#273470"/>
		</linearGradient>
		<polygon class="st39" points="24.2,48.7 24.2,56.4 17.6,52.6 		"/>
		
			<linearGradient id="SVGID_40_" gradientUnits="userSpaceOnUse" x1="65.5" y1="766.35" x2="-0.5" y2="766.35" gradientTransform="matrix(1 0 0 1 0 -726)">
			<stop  offset="0" style="stop-color:#FDBD4D"/>
			<stop  offset="0.5" style="stop-color:#FF6633"/>
			<stop  offset="1" style="stop-color:#273470"/>
		</linearGradient>
		<polygon class="st40" points="23.7,36.5 23.7,44.2 17,40.4 		"/>
		
			<linearGradient id="SVGID_41_" gradientUnits="userSpaceOnUse" x1="65.5" y1="755.85" x2="-0.5" y2="755.85" gradientTransform="matrix(1 0 0 1 0 -726)">
			<stop  offset="0" style="stop-color:#FDBD4D"/>
			<stop  offset="0.5" style="stop-color:#FF6633"/>
			<stop  offset="1" style="stop-color:#273470"/>
		</linearGradient>
		<polygon class="st41" points="23.4,26 23.4,33.7 16.8,29.8 		"/>
		
			<linearGradient id="SVGID_42_" gradientUnits="userSpaceOnUse" x1="65.49" y1="746.15" x2="-0.5" y2="746.15" gradientTransform="matrix(1 0 0 1 0 -726)">
			<stop  offset="0" style="stop-color:#FDBD4D"/>
			<stop  offset="0.5" style="stop-color:#FF6633"/>
			<stop  offset="1" style="stop-color:#273470"/>
		</linearGradient>
		<polygon class="st42" points="25.7,16.3 25.7,24 19,20.2 		"/>
		
			<linearGradient id="SVGID_43_" gradientUnits="userSpaceOnUse" x1="65.5" y1="735.9" x2="-0.5" y2="735.9" gradientTransform="matrix(1 0 0 1 0 -726)">
			<stop  offset="0" style="stop-color:#FDBD4D"/>
			<stop  offset="0.5" style="stop-color:#FF6633"/>
			<stop  offset="1" style="stop-color:#273470"/>
		</linearGradient>
		<polygon class="st43" points="25.7,13.7 19,9.9 25.7,6.1 		"/>
		
			<linearGradient id="SVGID_44_" gradientUnits="userSpaceOnUse" x1="65.5" y1="741.05" x2="-0.5" y2="741.05" gradientTransform="matrix(1 0 0 1 0 -726)">
			<stop  offset="0" style="stop-color:#FDBD4D"/>
			<stop  offset="0.5" style="stop-color:#FF6633"/>
			<stop  offset="1" style="stop-color:#273470"/>
		</linearGradient>
		<polygon class="st44" points="22.8,15 16.1,18.9 16.1,11.2 		"/>
		
			<linearGradient id="SVGID_45_" gradientUnits="userSpaceOnUse" x1="65.49" y1="751.25" x2="-0.49" y2="751.25" gradientTransform="matrix(1 0 0 1 0 -726)">
			<stop  offset="0" style="stop-color:#FDBD4D"/>
			<stop  offset="0.5" style="stop-color:#FF6633"/>
			<stop  offset="1" style="stop-color:#273470"/>
		</linearGradient>
		<polygon class="st45" points="22.3,25.3 15.7,29.1 15.7,21.4 		"/>
		
			<linearGradient id="SVGID_46_" gradientUnits="userSpaceOnUse" x1="65.5" y1="762.85" x2="-0.5" y2="762.85" gradientTransform="matrix(1 0 0 1 0 -726)">
			<stop  offset="0" style="stop-color:#FDBD4D"/>
			<stop  offset="0.5" style="stop-color:#FF6633"/>
			<stop  offset="1" style="stop-color:#273470"/>
		</linearGradient>
		<polygon class="st46" points="20.1,36.8 13.4,40.7 13.4,33 		"/>
		
			<linearGradient id="SVGID_47_" gradientUnits="userSpaceOnUse" x1="65.5" y1="772.15" x2="-0.5" y2="772.15" gradientTransform="matrix(1 0 0 1 0 -726)">
			<stop  offset="0" style="stop-color:#FDBD4D"/>
			<stop  offset="0.5" style="stop-color:#FF6633"/>
			<stop  offset="1" style="stop-color:#273470"/>
		</linearGradient>
		<polygon class="st47" points="22.3,46.2 15.7,50 15.7,42.3 		"/>
		
			<linearGradient id="SVGID_48_" gradientUnits="userSpaceOnUse" x1="53.97" y1="774.4" x2="1.16" y2="774.4" gradientTransform="matrix(1 0 0 1 0 -726)">
			<stop  offset="0" style="stop-color:#FDBD4D"/>
			<stop  offset="0.5" style="stop-color:#FF6633"/>
			<stop  offset="1" style="stop-color:#273470"/>
		</linearGradient>
		<polygon class="st48" points="10.5,45.3 10.5,51.5 5.2,48.4 		"/>
		
			<linearGradient id="SVGID_49_" gradientUnits="userSpaceOnUse" x1="54.29" y1="760.9" x2="1.49" y2="760.9" gradientTransform="matrix(1 0 0 1 0 -726)">
			<stop  offset="0" style="stop-color:#FDBD4D"/>
			<stop  offset="0.5" style="stop-color:#FF6633"/>
			<stop  offset="1" style="stop-color:#273470"/>
		</linearGradient>
		<polygon class="st49" points="12.1,38 6.8,34.9 12.1,31.8 		"/>
		
			<linearGradient id="SVGID_50_" gradientUnits="userSpaceOnUse" x1="54.13" y1="739.15" x2="1.34" y2="739.15" gradientTransform="matrix(1 0 0 1 0 -726)">
			<stop  offset="0" style="stop-color:#FDBD4D"/>
			<stop  offset="0.5" style="stop-color:#FF6633"/>
			<stop  offset="1" style="stop-color:#273470"/>
		</linearGradient>
		<polygon class="st50" points="11.4,16.2 6.1,13.1 11.4,10.1 		"/>
		
			<linearGradient id="SVGID_51_" gradientUnits="userSpaceOnUse" x1="54.2" y1="750.95" x2="1.42" y2="750.95" gradientTransform="matrix(1 0 0 1 0 -726)">
			<stop  offset="0" style="stop-color:#FDBD4D"/>
			<stop  offset="0.5" style="stop-color:#FF6633"/>
			<stop  offset="1" style="stop-color:#273470"/>
		</linearGradient>
		<polygon class="st51" points="11.8,28 6.4,25 11.8,21.9 		"/>
		
			<linearGradient id="SVGID_52_" gradientUnits="userSpaceOnUse" x1="52.94" y1="743.55" x2="0.13" y2="743.55" gradientTransform="matrix(1 0 0 1 0 -726)">
			<stop  offset="0" style="stop-color:#FDBD4D"/>
			<stop  offset="0.5" style="stop-color:#FF6633"/>
			<stop  offset="1" style="stop-color:#273470"/>
		</linearGradient>
		<polygon class="st52" points="0,14.5 5.3,17.6 0,20.6 		"/>
		
			<linearGradient id="SVGID_53_" gradientUnits="userSpaceOnUse" x1="53.18" y1="754.8" x2="0.37" y2="754.8" gradientTransform="matrix(1 0 0 1 0 -726)">
			<stop  offset="0" style="stop-color:#FDBD4D"/>
			<stop  offset="0.5" style="stop-color:#FF6633"/>
			<stop  offset="1" style="stop-color:#273470"/>
		</linearGradient>
		<polygon class="st53" points="6.6,28.8 1.2,31.9 1.2,25.7 		"/>
		
			<linearGradient id="SVGID_54_" gradientUnits="userSpaceOnUse" x1="53.85" y1="766.25" x2="1.04" y2="766.25" gradientTransform="matrix(1 0 0 1 0 -726)">
			<stop  offset="0" style="stop-color:#FDBD4D"/>
			<stop  offset="0.5" style="stop-color:#FF6633"/>
			<stop  offset="1" style="stop-color:#273470"/>
		</linearGradient>
		<polygon class="st54" points="9.9,40.2 4.6,43.3 4.6,37.2 		"/>
		<polygon class="st55" points="82.2,58.7 82.2,58.7 78.4,52.9 77.4,52.9 77.4,60.1 78.3,60.1 78.3,54.3 78.4,54.3 82.1,60.1 
			83.1,60.1 83.1,52.9 82.2,52.9 		"/>
		<path class="st55" d="M88.6,59.3c0-0.1,0-0.3,0-0.4v-2.7c0-0.3,0-0.5-0.2-0.7c-0.1-0.2-0.3-0.3-0.5-0.4c-0.2-0.1-0.4-0.2-0.6-0.2
			s-0.5,0-0.7,0c-0.3,0-0.6,0-0.8,0.1c-0.2,0.1-0.5,0.2-0.7,0.3s-0.4,0.3-0.5,0.5c-0.1,0.3-0.2,0.5-0.2,0.8h0.9
			c0-0.3,0.1-0.6,0.4-0.8c0.3-0.1,0.6-0.2,0.9-0.2c0.1,0,0.3,0,0.4,0s0.3,0.1,0.4,0.1c0.1,0.1,0.2,0.2,0.3,0.3
			c0.1,0.1,0.1,0.3,0.1,0.5c0,0.1,0,0.3-0.1,0.4c-0.1,0.1-0.2,0.2-0.4,0.2c-0.2,0-0.4,0.1-0.6,0.1s-0.4,0.1-0.7,0.1
			c-0.2,0-0.4,0.1-0.7,0.2c-0.2,0.1-0.4,0.1-0.6,0.3c-0.2,0.1-0.3,0.3-0.4,0.5s-0.2,0.5-0.2,0.7s0,0.5,0.1,0.7s0.2,0.3,0.4,0.5
			c0.2,0.1,0.3,0.2,0.5,0.3s0.4,0.1,0.7,0.1c0.3,0,0.7,0,1-0.1s0.6-0.3,0.8-0.6c0,0.2,0,0.4,0.2,0.6c0.1,0.1,0.3,0.2,0.5,0.2
			s0.4,0,0.6-0.1v-0.7c-0.1,0-0.2,0-0.3,0C88.8,59.4,88.7,59.4,88.6,59.3z M87.7,58.3c0,0.1,0,0.3-0.1,0.4c-0.1,0.1-0.2,0.3-0.3,0.4
			c-0.1,0.1-0.3,0.2-0.5,0.3s-0.5,0.1-0.7,0.1c-0.1,0-0.3,0-0.4,0s-0.2-0.1-0.3-0.1c-0.1-0.1-0.2-0.1-0.2-0.2
			c-0.1-0.1-0.1-0.2-0.1-0.3s0-0.3,0.1-0.4c0.1-0.1,0.1-0.2,0.2-0.3s0.2-0.1,0.3-0.2c0.1,0,0.3-0.1,0.4-0.1l0.4-0.1
			c0.1,0,0.3,0,0.4-0.1l0.4-0.1c0.1,0,0.2-0.1,0.3-0.1L87.7,58.3z"/>
		<path class="st55" d="M91.1,53.3h-0.8v1.5h-0.9v0.8h0.9v3.3c0,0.2,0,0.4,0.1,0.6c0,0.1,0.1,0.3,0.2,0.3c0.1,0.1,0.2,0.1,0.4,0.2
			c0.2,0,0.4,0.1,0.6,0h0.7v-0.8h-0.4h-0.3c-0.1,0-0.1,0-0.2-0.1L91.3,59c0-0.1,0-0.2,0-0.2v-3.2h1v-0.8h-1L91.1,53.3z"/>
		<rect x="93.1" y="54.9" class="st55" width="0.8" height="5.2"/>
		<path class="st55" d="M99.4,55.5c-0.2-0.2-0.5-0.4-0.8-0.5c-0.7-0.3-1.5-0.3-2.2,0c-0.3,0.1-0.6,0.3-0.8,0.6
			c-0.2,0.2-0.4,0.5-0.5,0.9c-0.1,0.3-0.2,0.7-0.2,1c0,0.4,0,0.7,0.2,1.1c0.1,0.3,0.3,0.6,0.5,0.8c0.2,0.3,0.5,0.4,0.8,0.6
			c0.7,0.3,1.5,0.3,2.2,0c0.3-0.1,0.6-0.3,0.8-0.6c0.2-0.2,0.4-0.5,0.5-0.8s0.2-0.7,0.2-1.1c0-0.4,0-0.7-0.2-1.1
			C99.8,56.1,99.6,55.8,99.4,55.5z M99,58.3c-0.1,0.2-0.2,0.4-0.3,0.6c-0.1,0.2-0.3,0.3-0.5,0.4c-0.2,0.1-0.4,0.1-0.6,0.1
			s-0.4,0-0.6-0.1s-0.4-0.2-0.5-0.4c-0.2-0.2-0.3-0.4-0.3-0.6c-0.2-0.5-0.2-1.1,0-1.7c0.1-0.2,0.2-0.4,0.3-0.6
			c0.1-0.2,0.3-0.3,0.5-0.4c0.2-0.1,0.4-0.1,0.6-0.1s0.4,0,0.6,0.1s0.4,0.2,0.5,0.4c0.2,0.2,0.3,0.4,0.3,0.6
			C99.2,57.2,99.2,57.8,99,58.3z"/>
		<path class="st55" d="M104.9,55.3c-0.2-0.2-0.3-0.3-0.6-0.4c-0.3-0.1-0.6-0.1-0.8-0.1c-0.3,0-0.7,0.1-1,0.2
			c-0.3,0.2-0.5,0.4-0.7,0.7l0,0v-0.8H101v5.2h0.8v-2.9c0-0.2,0-0.4,0.1-0.7c0.1-0.2,0.2-0.4,0.3-0.5c0.1-0.2,0.3-0.3,0.5-0.3
			c0.2-0.1,0.4-0.1,0.7-0.1c0.6,0,1,0.4,1,1c0,0,0,0,0,0.1v3.5h0.9v-3.4c0-0.3,0-0.5-0.1-0.8C105.1,55.7,105.1,55.5,104.9,55.3z"/>
		<path class="st55" d="M110.7,59.3c0-0.1,0-0.3,0-0.4v-2.7c0-0.3,0-0.5-0.2-0.7c-0.1-0.2-0.3-0.4-0.5-0.4c-0.2-0.1-0.4-0.2-0.6-0.2
			s-0.5,0-0.7,0c-0.3,0-0.6,0-0.8,0.1c-0.2,0.1-0.5,0.2-0.7,0.3s-0.4,0.3-0.5,0.5c-0.1,0.3-0.2,0.5-0.2,0.8h0.8
			c0-0.3,0.1-0.6,0.4-0.8c0.3-0.1,0.6-0.2,0.9-0.2c0.1,0,0.3,0,0.4,0s0.3,0.1,0.4,0.1c0.1,0.1,0.2,0.2,0.3,0.3
			c0.1,0.1,0.1,0.3,0.1,0.5c0,0.1,0,0.3-0.1,0.4c-0.1,0.1-0.2,0.2-0.4,0.2c-0.2,0-0.4,0.1-0.6,0.1s-0.4,0.1-0.7,0.1
			c-0.2,0-0.4,0.1-0.7,0.2c-0.2,0.1-0.4,0.1-0.6,0.3c-0.2,0.1-0.3,0.3-0.4,0.5s-0.2,0.5-0.2,0.7s0,0.5,0.1,0.7s0.2,0.3,0.4,0.5
			c0.2,0.1,0.3,0.2,0.5,0.3s0.4,0.1,0.7,0.1c0.3,0,0.7-0.1,1-0.2c0.3-0.1,0.6-0.3,0.8-0.6c0,0.2,0.1,0.4,0.2,0.6
			c0.1,0.1,0.3,0.2,0.5,0.2s0.4,0,0.6-0.1v-0.7c-0.1,0-0.2,0-0.3,0C110.8,59.4,110.7,59.4,110.7,59.3z M109.8,58.3
			c0,0.1,0,0.3-0.1,0.4c-0.1,0.1-0.2,0.3-0.3,0.4c-0.1,0.1-0.3,0.2-0.5,0.3s-0.5,0.1-0.7,0.1c-0.1,0-0.3,0-0.4,0s-0.2-0.1-0.3-0.1
			c-0.2-0.1-0.3-0.4-0.3-0.6c0-0.1,0-0.3,0.1-0.4c0.1-0.1,0.1-0.2,0.2-0.3s0.2-0.1,0.3-0.2c0.1,0,0.3-0.1,0.4-0.1l0.4-0.1
			c0.1,0,0.3,0,0.4-0.1l0.4-0.1c0.1,0,0.2-0.1,0.3-0.1L109.8,58.3z"/>
		<rect x="112" y="52.9" class="st55" width="0.8" height="7.2"/>
		<path class="st55" d="M122,58.2c-0.1,0.2-0.2,0.5-0.4,0.7c-0.2,0.2-0.4,0.3-0.6,0.4c-0.3,0.1-0.6,0.2-0.8,0.2
			c-0.4,0-0.8-0.1-1.1-0.2c-0.3-0.2-0.6-0.4-0.8-0.7c-0.2-0.3-0.3-0.6-0.4-1s-0.1-0.8-0.1-1.2s0-0.7,0.1-1.1
			c0.1-0.3,0.2-0.6,0.4-0.9c0.2-0.3,0.5-0.5,0.8-0.7s0.7-0.3,1.1-0.2c0.2,0,0.5,0,0.7,0.1s0.4,0.2,0.6,0.3s0.3,0.3,0.4,0.5
			s0.2,0.4,0.3,0.7h1c0-0.4-0.2-0.7-0.3-1c-0.2-0.3-0.4-0.5-0.7-0.7c-0.3-0.2-0.6-0.3-0.9-0.4c-0.3-0.1-0.7-0.2-1.1-0.2
			c-0.5,0-1,0.1-1.5,0.3c-0.4,0.2-0.8,0.5-1.1,0.8c-0.3,0.3-0.5,0.7-0.7,1.2s-0.2,1-0.2,1.5s0.1,1,0.2,1.5c0.1,0.4,0.3,0.8,0.6,1.2
			c0.3,0.3,0.6,0.6,1,0.8c0.5,0.2,1,0.3,1.4,0.3c0.8,0,1.6-0.2,2.2-0.8s0.9-1.3,0.9-2.1h-1C122.1,57.7,122.1,57.9,122,58.2z"/>
		<path class="st55" d="M128.2,55.8c-0.2-0.3-0.4-0.5-0.7-0.7c-0.3-0.2-0.7-0.3-1.1-0.3c-0.3,0-0.7,0.1-1,0.2
			c-0.3,0.1-0.6,0.3-0.8,0.6c-0.2,0.3-0.4,0.5-0.5,0.9c-0.1,0.3-0.2,0.7-0.2,1.1c0,0.4,0.1,0.7,0.2,1.1c0.1,0.3,0.3,0.6,0.5,0.9
			c0.2,0.2,0.5,0.4,0.8,0.6c0.3,0.1,0.7,0.2,1.1,0.2c0.5,0,1-0.1,1.5-0.5c0.4-0.3,0.7-0.8,0.8-1.3H128c-0.1,0.3-0.2,0.6-0.5,0.8
			s-0.6,0.3-0.9,0.2c-0.3,0-0.5,0-0.7-0.1s-0.4-0.2-0.5-0.4s-0.2-0.3-0.3-0.5c-0.1-0.2-0.1-0.4-0.1-0.6h3.9c0-0.3,0-0.7-0.1-1
			C128.5,56.4,128.4,56.1,128.2,55.8z M124.8,57c0-0.2,0.1-0.4,0.1-0.6c0.1-0.2,0.2-0.3,0.3-0.5c0.1-0.1,0.3-0.2,0.4-0.3
			c0.2-0.1,0.4-0.1,0.6-0.1s0.4,0,0.6,0.1s0.3,0.2,0.5,0.3c0.1,0.1,0.2,0.3,0.3,0.5c0.1,0.2,0.1,0.4,0.1,0.6H124.8z"/>
		<path class="st55" d="M133.5,55.3c-0.2-0.2-0.3-0.3-0.6-0.4c-0.3-0.1-0.6-0.1-0.9-0.1c-0.3,0-0.7,0.1-1,0.2
			c-0.3,0.2-0.5,0.4-0.7,0.7l0,0v-0.8h-0.8v5.2h0.9v-2.9c0-0.2,0-0.4,0.1-0.7c0.1-0.2,0.1-0.4,0.3-0.5c0.1-0.2,0.3-0.3,0.5-0.3
			c0.2-0.1,0.4-0.1,0.7-0.1c0.6,0,1,0.4,1,1c0,0,0,0,0,0.1v3.5h0.9v-3.4c0-0.3,0-0.5-0.1-0.8C133.7,55.7,133.6,55.5,133.5,55.3z"/>
		<path class="st55" d="M136.3,53.3h-0.9v1.5h-0.9v0.8h0.9v3.3c0,0.2,0,0.4,0.1,0.6c0,0.1,0.1,0.3,0.2,0.3c0.1,0.1,0.2,0.1,0.4,0.2
			c0.2,0,0.4,0.1,0.6,0h0.6v-0.8H137h-0.3c-0.1,0-0.1,0-0.2-0.1l-0.1-0.1c0-0.1,0-0.2,0-0.2v-3.2h1v-0.8h-1L136.3,53.3z"/>
		<path class="st55" d="M142.3,55.8c-0.2-0.3-0.4-0.5-0.7-0.7s-0.7-0.3-1.1-0.3c-0.3,0-0.7,0.1-1,0.2c-0.3,0.1-0.6,0.3-0.8,0.6
			s-0.4,0.5-0.5,0.9c-0.1,0.3-0.2,0.7-0.2,1.1c0,0.4,0.1,0.7,0.2,1.1c0.1,0.3,0.3,0.6,0.5,0.9c0.2,0.2,0.5,0.4,0.8,0.6
			c0.3,0.1,0.7,0.2,1.1,0.2c0.5,0,1-0.1,1.5-0.5c0.4-0.3,0.7-0.8,0.8-1.3h-0.8c0,0.3-0.2,0.6-0.5,0.8s-0.6,0.3-0.9,0.2
			c-0.3,0-0.5,0-0.7-0.1s-0.4-0.2-0.5-0.4s-0.2-0.3-0.3-0.5s-0.1-0.4-0.1-0.6h3.9c0-0.3,0-0.7-0.1-1
			C142.6,56.4,142.5,56.1,142.3,55.8z M138.9,57c0-0.2,0.1-0.4,0.1-0.6c0.1-0.2,0.2-0.3,0.3-0.5c0.1-0.1,0.3-0.2,0.4-0.3
			c0.2-0.1,0.4-0.1,0.6-0.1c0.2,0,0.4,0,0.6,0.1c0.4,0.1,0.6,0.4,0.8,0.8c0.1,0.2,0.1,0.4,0.1,0.6H138.9z"/>
		<path class="st55" d="M144.5,56L144.5,56v-1.1h-0.8v5.2h0.9v-2.3c0-0.3,0-0.6,0.1-0.9c0.1-0.2,0.2-0.5,0.3-0.7
			c0.2-0.2,0.4-0.3,0.6-0.4c0.3-0.1,0.6-0.1,0.9-0.1v-0.9c-0.4,0-0.8,0.1-1.1,0.3C144.9,55.3,144.6,55.6,144.5,56z"/>
		<path class="st55" d="M151.6,52.8c-0.4,0-0.8,0.1-1.1,0.3c-0.3,0.3-0.4,0.6-0.4,1v0.8h-0.9v0.8h0.9v4.4h0.9v-4.5h1v-0.8h-1v-0.7
			c0-0.2,0-0.3,0.2-0.5c0.1-0.1,0.3-0.1,0.5-0.1h0.2h0.2v-0.7l-0.3-0.1L151.6,52.8z"/>
		<path class="st55" d="M156.9,55.5c-0.2-0.2-0.5-0.4-0.8-0.6c-0.3-0.1-0.7-0.2-1.1-0.2c-0.4,0-0.7,0.1-1.1,0.2
			c-0.3,0.1-0.6,0.3-0.8,0.6s-0.4,0.5-0.5,0.9c-0.1,0.3-0.2,0.7-0.2,1.1c0,0.4,0.1,0.7,0.2,1.1c0.1,0.3,0.3,0.6,0.5,0.8
			s0.5,0.4,0.8,0.6c0.3,0.1,0.7,0.2,1.1,0.2c0.4,0,0.7-0.1,1.1-0.2c0.3-0.1,0.6-0.3,0.8-0.6c0.2-0.2,0.4-0.5,0.5-0.8
			s0.2-0.7,0.2-1.1c0-0.4-0.1-0.7-0.2-1.1C157.2,56.1,157.1,55.8,156.9,55.5z M156.5,58.3c-0.1,0.2-0.2,0.4-0.3,0.6
			c-0.3,0.3-0.7,0.5-1.1,0.5c-0.2,0-0.4,0-0.6-0.1c-0.2-0.1-0.4-0.2-0.5-0.4c-0.2-0.2-0.3-0.4-0.3-0.6c-0.2-0.5-0.2-1.1,0-1.7
			c0.1-0.2,0.2-0.4,0.3-0.6c0.1-0.2,0.3-0.3,0.5-0.4c0.4-0.2,0.9-0.2,1.2,0c0.2,0.1,0.4,0.2,0.5,0.4c0.2,0.2,0.3,0.4,0.3,0.6
			C156.6,57.2,156.6,57.8,156.5,58.3L156.5,58.3z"/>
		<path class="st55" d="M159.3,56L159.3,56v-1.1h-0.8v5.2h0.9v-2.3c0-0.3,0-0.6,0.1-0.9c0.1-0.2,0.2-0.5,0.3-0.7
			c0.2-0.2,0.4-0.3,0.6-0.4c0.3-0.1,0.6-0.1,0.9-0.1v-0.9c-0.4,0-0.8,0.1-1.1,0.3C159.7,55.3,159.5,55.6,159.3,56z"/>
		<path class="st55" d="M166.7,52.9l-2.8,7.2h1l0.8-2.2h3l0.8,2.2h1l-2.8-7.2H166.7z M166,57.1l1.2-3.3l0,0l1.2,3.3H166z"/>
		<rect x="171.1" y="52.9" class="st55" width="0.9" height="7.2"/>
		<polygon class="st55" points="94,52.9 93.1,52.9 93.1,54 94,53.5 		"/>
		<path class="st55" d="M77.4,38.2c0.3,0.2,0.7,0.4,1.1,0.5c0.6,0.1,1.1,0.2,1.7,0.2c0.5,0,1.1,0,1.6-0.1c0.4-0.1,0.7-0.2,1.1-0.4
			c0.2-0.1,0.4-0.3,0.6-0.5c0.3-0.4,0.2-1-0.1-1.4H85c0.3,0,0.7,0,1-0.1s0.5-0.3,0.6-0.5c0.1,0.2,0.2,0.4,0.3,0.5
			c0.2,0.1,0.4,0.2,0.7,0.2h7.1v-1.8c0-0.6-0.2-1.3-0.6-1.8c-0.4-0.4-1-0.7-1.6-0.6c-0.6,0-1.2,0.2-1.7,0.5
			c-0.5,0.4-0.9,0.8-1.2,1.3V29h-0.8v6.6h-1.2c-0.2,0-0.3,0-0.5-0.1c-0.1-0.1-0.2-0.1-0.3-0.2c-0.1-0.1-0.1-0.2-0.1-0.4s0-0.3,0-0.5
			v-2h-0.8v2.4c0,0.1,0,0.3-0.1,0.4c0,0.1-0.1,0.2-0.2,0.2c-0.1,0.1-0.2,0.1-0.3,0.1h-0.4H83c-0.9,0-1.7-0.2-2.5-0.5v0.8l0.7,0.2
			c0.3,0.1,0.5,0.2,0.8,0.2c0.2,0.1,0.4,0.2,0.6,0.3c0.1,0.1,0.2,0.2,0.2,0.4s-0.1,0.3-0.2,0.4c-0.2,0.1-0.4,0.2-0.6,0.3
			c-0.3,0.1-0.5,0.1-0.8,0.2c-0.3,0-0.7,0-1,0c-0.7,0.1-1.4-0.1-2.1-0.4c-0.4-0.3-0.7-0.8-0.6-1.3v-1.4h-0.8v1.6c0,0.3,0,0.7,0.2,1
			C76.9,37.7,77.1,38,77.4,38.2z M89.9,34.8c0.2-0.3,0.4-0.5,0.6-0.8c0.2-0.2,0.5-0.4,0.8-0.6c0.3-0.2,0.6-0.2,0.9-0.2
			c0.2,0,0.5,0,0.7,0.1s0.3,0.2,0.5,0.4c0.1,0.2,0.2,0.4,0.2,0.5c0.1,0.2,0.1,0.4,0.1,0.7v0.7h-4.2C89.6,35.3,89.7,35,89.9,34.8z"/>
		<path class="st55" d="M96.1,36c0.2,0.1,0.4,0.3,0.6,0.3c0.3,0.1,0.5,0.1,0.8,0.1h1.2c0,0.2-0.1,0.5-0.2,0.7s-0.3,0.3-0.5,0.4
			c-0.2,0.1-0.5,0.2-0.7,0.2c-0.3,0-0.6,0-0.9,0h-0.3v0.9h0.4c0.4,0,0.8,0,1.2-0.1c0.3-0.1,0.6-0.2,0.9-0.3c0.3-0.2,0.5-0.4,0.6-0.7
			c0.2-0.3,0.3-0.7,0.3-1h3.2V29h-0.8v6.6h-2.4v-0.5c0-0.4,0-0.7-0.1-1.1c-0.1-0.3-0.2-0.6-0.3-0.9c-0.1-0.2-0.4-0.4-0.6-0.5
			c-0.3-0.1-0.6-0.2-0.9-0.2s-0.6,0.1-0.9,0.2c-0.2,0.1-0.5,0.3-0.6,0.5c-0.2,0.2-0.3,0.5-0.4,0.7c-0.1,0.3-0.1,0.5-0.1,0.8
			s0,0.6,0.2,0.8C95.8,35.7,96,35.9,96.1,36z M96.5,34c0-0.2,0.1-0.3,0.2-0.4c0.1-0.1,0.2-0.2,0.4-0.3c0.2-0.1,0.3-0.1,0.5-0.1
			c0.4,0,0.7,0.1,0.9,0.5c0.2,0.4,0.3,0.8,0.3,1.2v0.7h-1.1c-0.3,0-0.6-0.1-0.9-0.2c-0.2-0.2-0.3-0.5-0.3-0.8
			C96.4,34.3,96.4,34.2,96.5,34L96.5,34z"/>
		<rect x="104.2" y="29" class="st55" width="0.8" height="7.4"/>
		<path class="st55" d="M110.6,38c0.2-0.2,0.3-0.5,0.3-0.8c0.1-0.4,0.1-0.8,0.1-1.3c0.1,0.1,0.2,0.3,0.3,0.4
			c0.2,0.1,0.4,0.2,0.6,0.2h2.5c0.3,0,0.6,0,0.9-0.1c0.2-0.1,0.4-0.2,0.5-0.4c0.1-0.1,0.2-0.3,0.2-0.5s0.1-0.3,0.1-0.5
			s-0.1-0.5-0.1-0.7c-0.1-0.3-0.3-0.5-0.5-0.7c-0.3-0.3-0.5-0.5-0.8-0.8c-0.4-0.3-0.8-0.6-1.2-0.8l3.1-1.4v-0.9l-3.8,1.7l-0.1,0.1
			c-0.1,0.1-0.1,0.1-0.1,0.2l-0.1,0.2c0,0.1,0,0.2-0.1,0.3c0.4,0.2,0.8,0.4,1.1,0.6c0.3,0.2,0.7,0.5,1,0.7c0.2,0.2,0.5,0.4,0.7,0.7
			c0.1,0.2,0.2,0.4,0.3,0.6c0,0.2-0.1,0.4-0.3,0.5c-0.2,0.1-0.4,0.1-0.6,0.1H112c-0.3,0-0.6-0.1-0.7-0.3c-0.1-0.3-0.2-0.5-0.2-0.8
			V33h-0.8v2.8c0,0.4,0,0.7,0,0.9s-0.1,0.4-0.2,0.6c-0.1,0.2-0.3,0.3-0.4,0.3c-0.3,0.1-0.5,0.1-0.8,0.1v0.9c0.4,0,0.8,0,1.1-0.1
			C110.2,38.4,110.5,38.2,110.6,38z"/>
		<path class="st55" d="M128.2,35.6h-1.6c-0.2,0-0.4-0.1-0.6-0.2c-0.1-0.1-0.2-0.3-0.3-0.5v-0.1v-0.1c0-0.3,0-0.6-0.1-0.8
			s-0.2-0.5-0.4-0.7c-0.2-0.2-0.4-0.3-0.6-0.4c-0.2-0.1-0.5-0.2-0.7-0.2s-0.4,0-0.6,0.1s-0.4,0.2-0.6,0.3c-0.2,0.2-0.4,0.4-0.5,0.6
			c-0.2,0.3-0.4,0.7-0.5,1.1c-0.1,0.2-0.1,0.3-0.2,0.5c-0.1,0.1-0.2,0.2-0.3,0.3c-0.1,0.1-0.2,0.1-0.3,0.1c-0.1,0-0.2,0-0.3,0h-0.4
			c-0.3,0-0.5-0.1-0.7-0.3c-0.1-0.3-0.2-0.5-0.2-0.8V33h-0.8v2.8c0,0.4,0,0.7,0,0.9s-0.1,0.4-0.2,0.6c-0.1,0.2-0.3,0.3-0.4,0.3
			c-0.3,0.1-0.5,0.1-0.8,0.1v0.9c0.4,0,0.8,0,1.1-0.1c0.3-0.1,0.5-0.2,0.7-0.5c0.2-0.2,0.3-0.5,0.3-0.8c0.1-0.4,0.1-0.8,0.1-1.3
			c0.1,0.1,0.2,0.3,0.3,0.4c0.2,0.1,0.3,0.2,0.5,0.2h0.9c0.1,0,0.2,0,0.3-0.1c0.1,0,0.2-0.1,0.3-0.2c0.1-0.1,0.2-0.2,0.3-0.3
			c0.3,0.2,0.6,0.4,1,0.6c0.3,0.1,0.7,0.2,1,0.2s0.7-0.1,0.9-0.2c0.2-0.1,0.4-0.3,0.6-0.6l0,0c0.1,0.2,0.3,0.4,0.5,0.5
			s0.4,0.2,0.7,0.2h2.5V29h-0.9L128.2,35.6z M124.5,35.4c-0.2,0.2-0.4,0.3-0.7,0.2c-0.3,0-0.5-0.1-0.8-0.2c-0.3-0.1-0.5-0.2-0.8-0.4
			c0.1-0.5,0.4-1,0.7-1.3c0.2-0.2,0.5-0.4,0.8-0.4c0.1,0,0.3,0,0.4,0.1s0.2,0.2,0.3,0.3c0.1,0.1,0.2,0.2,0.2,0.4
			c0,0.1,0.1,0.3,0.1,0.5C124.8,34.9,124.7,35.2,124.5,35.4z"/>
		<rect x="130.5" y="29" class="st55" width="0.9" height="7.4"/>
		<path class="st55" d="M88.6,46.8h-1.5c-0.4,0-0.7-0.1-1-0.3c-0.2-0.2-0.3-0.5-0.3-0.9c0-0.3,0.1-0.7,0.4-0.9s0.6-0.3,1-0.3
			c0.2,0,0.4,0,0.6,0c0.1,0,0.3,0.1,0.4,0.1v-0.9c-0.1,0-0.2-0.1-0.4-0.1c-0.2,0-0.4,0-0.6,0c-0.3,0-0.5,0-0.8,0.1s-0.5,0.2-0.7,0.4
			s-0.4,0.4-0.5,0.7S85,45.3,85,45.6c0,0.2,0,0.5,0.1,0.7s0.2,0.4,0.3,0.5H83c-0.9,0-1.7-0.2-2.5-0.5v0.8l0.7,0.2
			c0.3,0.1,0.5,0.2,0.8,0.3c0.2,0.1,0.4,0.2,0.6,0.3c0.1,0.1,0.2,0.3,0.2,0.4c0,0.2-0.1,0.3-0.2,0.4c-0.2,0.1-0.4,0.2-0.6,0.3
			c-0.3,0.1-0.5,0.1-0.8,0.2c-0.3,0-0.7,0.1-1,0.1c-0.7,0.1-1.4-0.1-2.1-0.4c-0.4-0.3-0.7-0.8-0.6-1.4V46h-0.8v1.6
			c0,0.3,0,0.7,0.2,1c0.1,0.3,0.3,0.6,0.6,0.8c0.3,0.3,0.7,0.4,1.1,0.5c0.6,0.1,1.1,0.2,1.7,0.2c0.5,0,1.1,0,1.6-0.1
			c0.4-0.1,0.7-0.2,1.1-0.4c0.2-0.1,0.4-0.3,0.6-0.5c0.1-0.2,0.2-0.4,0.2-0.6c0-0.1,0-0.3-0.1-0.4c0-0.1-0.1-0.2-0.2-0.3h5.3v-1
			H88.6z"/>
		<path class="st55" d="M112.2,47.7v-1.8c0-0.6-0.2-1.3-0.6-1.8c-0.4-0.4-1-0.7-1.6-0.6c-0.5,0-0.9,0.1-1.3,0.3s-0.8,0.5-1.1,0.8
			c-0.3,0.3-0.6,0.7-0.8,1.1c-0.2,0.4-0.4,0.8-0.6,1.2c-0.1,0-0.3,0-0.4-0.1s-0.2-0.1-0.2-0.2c-0.1-0.1-0.1-0.2-0.1-0.4s0-0.3,0-0.5
			v-1.5h-0.8v1.9c0,0.1,0,0.3-0.1,0.4c0,0.1-0.1,0.2-0.2,0.2c-0.1,0.1-0.2,0.1-0.4,0.1c-0.2,0-0.4,0-0.6,0h-1.2v-0.9
			c0-0.6-0.2-1.3-0.6-1.8c-0.4-0.4-1-0.7-1.6-0.6c-0.6,0-1.2,0.1-1.7,0.5s-0.9,0.8-1.2,1.3v-5.1h-0.8v6.6h-1.2c-0.2,0-0.3,0-0.4-0.1
			c-0.1,0-0.2-0.1-0.3-0.2c-0.1-0.1-0.1-0.2-0.1-0.4s0-0.3,0-0.5v-2h-0.9V46c0,0.1,0,0.3-0.1,0.4c0,0.1-0.1,0.2-0.2,0.2
			c-0.1,0.1-0.2,0.1-0.3,0.1c-0.1,0-0.3,0-0.4,0h-0.9c-0.3,0-0.5-0.1-0.6-0.2c-0.1-0.2-0.1-0.4-0.1-0.6v-5.7H90v6
			c0,0.2,0,0.5,0.1,0.7s0.2,0.3,0.3,0.5c0.1,0.1,0.3,0.2,0.5,0.2s0.4,0.1,0.6,0.1h1.1c0.3,0,0.7,0,1-0.1s0.5-0.3,0.6-0.5
			c0,0.2,0.2,0.4,0.3,0.5c0.2,0.1,0.4,0.2,0.7,0.2h8.2c0.3,0,0.6,0,0.8,0c0.2,0,0.4,0,0.6-0.1c0.1,0,0.3-0.1,0.4-0.2
			c0.1-0.1,0.2-0.2,0.2-0.3l0.1,0.2c0.1,0.1,0.1,0.2,0.2,0.2c0.1,0.1,0.2,0.1,0.3,0.2c0.2,0,0.4,0.1,0.5,0.1L112.2,47.7z M107.5,46
			c0.2-0.3,0.4-0.5,0.6-0.8c0.2-0.2,0.5-0.4,0.8-0.6c0.3-0.1,0.6-0.2,0.9-0.2c0.2,0,0.5,0,0.7,0.1s0.3,0.2,0.5,0.4
			c0.1,0.2,0.2,0.3,0.3,0.5c0,0.2,0.1,0.5,0.1,0.7v0.7h-4.2C107.2,46.6,107.4,46.3,107.5,46z M101.4,46.8h-4.2
			c0.1-0.3,0.3-0.6,0.4-0.8c0.2-0.3,0.4-0.5,0.6-0.8c0.2-0.2,0.5-0.4,0.8-0.6c0.3-0.2,0.6-0.2,0.9-0.2c0.2,0,0.5,0,0.7,0.1
			s0.3,0.2,0.5,0.4c0.1,0.2,0.2,0.3,0.2,0.5c0.1,0.2,0.1,0.4,0.1,0.7V46.8z"/>
		<polygon class="st55" points="119.2,40.3 118.3,40.3 118.3,46.8 116.4,46.8 116.4,41.8 115.6,41.8 115.6,46.8 113.2,46.8 
			113.2,47.7 119.2,47.7 		"/>
		<rect x="120.6" y="40.3" class="st55" width="0.8" height="7.4"/>
		<path class="st55" d="M125.4,47.7h3.1v-0.8h-1c-0.3,0-0.6-0.1-0.8-0.3c-0.2-0.2-0.2-0.4-0.2-0.7c0-0.1,0-0.2,0-0.3
			s0.1-0.2,0.2-0.3c0.2-0.2,0.4-0.3,0.7-0.3c0.2,0,0.5,0,0.7,0.1v-0.8c-0.1,0-0.2,0-0.3,0c-0.2,0-0.3,0-0.5,0s-0.4,0-0.6,0.1
			s-0.3,0.2-0.5,0.3s-0.3,0.3-0.3,0.5c-0.1,0.2-0.1,0.5-0.1,0.7c0,0.4,0.1,0.7,0.3,1h-0.8L125.4,47.7z"/>
		<path class="st55" d="M130,47.4c0.1,0.1,0.3,0.2,0.5,0.2s0.4,0.1,0.6,0.1h2.7c0.3,0,0.6,0,0.9-0.2c0.2-0.1,0.4-0.2,0.5-0.4
			c0.1-0.1,0.2-0.3,0.2-0.5s0.1-0.3,0.1-0.5s-0.1-0.5-0.1-0.7c-0.1-0.3-0.3-0.5-0.5-0.7c-0.3-0.3-0.5-0.5-0.8-0.8
			c-0.4-0.3-0.8-0.6-1.2-0.8l3-1.3V41l-3.8,1.7l-0.1,0.1c-0.1,0.1-0.1,0.1-0.1,0.2c0,0.1-0.1,0.2-0.1,0.2c0,0.1,0,0.2-0.1,0.2
			c0.4,0.2,0.8,0.4,1.1,0.6c0.3,0.2,0.7,0.5,1,0.7c0.2,0.2,0.5,0.4,0.7,0.7c0.1,0.2,0.2,0.4,0.3,0.6c0,0.2-0.1,0.4-0.3,0.5
			s-0.4,0.1-0.6,0.1h-2.6c-0.3,0-0.5-0.1-0.6-0.2c-0.1-0.2-0.2-0.4-0.1-0.6v-5.7h-0.9v6c0,0.2,0,0.5,0.1,0.7
			C129.7,47.1,129.9,47.3,130,47.4z"/>
		<path class="st55" d="M146.2,46.8h-1.6c-0.3,0-0.5-0.1-0.7-0.3c-0.2-0.3-0.2-0.5-0.2-0.8v-5.4h-0.9v5.8c0,0.1,0,0.3,0,0.4
			c0,0.1-0.1,0.2-0.2,0.2c-0.1,0.1-0.2,0.1-0.2,0.1c-0.1,0-0.2,0-0.3,0h-0.8c-0.1,0-0.2,0-0.3-0.1s-0.2-0.2-0.3-0.2
			c-0.1-0.1-0.2-0.3-0.3-0.4l-0.4-0.6l-1.2-2.1l-0.8,0.5l1,1.7c0.1,0.2,0.2,0.3,0.3,0.4c0.1,0.1,0.1,0.3,0.1,0.4
			c0,0.1-0.1,0.3-0.2,0.3c-0.2,0.1-0.4,0.1-0.7,0.1h-1.9v0.9h1.6h0.5c0.2,0,0.3-0.1,0.5-0.1c0.1-0.1,0.3-0.1,0.4-0.2
			c0.1-0.1,0.2-0.3,0.3-0.4c0.1,0.2,0.3,0.5,0.6,0.6c0.2,0.1,0.5,0.2,0.7,0.2h0.7c0.4,0,0.7,0,1.1-0.1c0.3-0.1,0.5-0.3,0.6-0.5
			c0.1,0.2,0.2,0.4,0.3,0.5c0.2,0.1,0.4,0.2,0.6,0.2h2.5v-7.5h-0.9L146.2,46.8z"/>
		<polygon class="st55" points="81.1,39.5 80.3,39.5 80.3,40.6 81.1,40.1 		"/>
		<polygon class="st55" points="79.8,39.5 79,39.5 79,40.6 79.8,40.1 		"/>
		<polygon class="st55" points="111,30.5 110.2,30.5 110.2,31.5 111,31 		"/>
		<polygon class="st55" points="138.8,41.4 137.9,41.4 137.9,42.4 138.8,41.9 		"/>
		<polygon class="st55" points="94.3,41.4 93.4,41.4 93.4,42.4 94.3,41.9 		"/>
		<polygon class="st55" points="86.6,30.1 85.7,30.1 85.7,31.2 86.6,30.7 		"/>
		<polygon class="st55" points="81.1,50.8 80.3,50.8 80.3,51.8 81.1,51.3 		"/>
		<polygon class="st55" points="79.8,50.8 79,50.8 79,51.8 79.8,51.3 		"/>
		<path class="st55" d="M152.3,4.7v18.6h6.8V0.8L152.3,4.7z"/>
		<path class="st55" d="M142.8,0.8h-9.9l-7.1,22.5h7.1l1.3-4.4l6.3-3.6h-5.3l2.6-8.8l2.7,8.8l2.2,8h7.1L142.8,0.8z"/>
		<path class="st55" d="M113.8,18.3c-3.3,0-5.6-2.6-5.6-6.3s2.3-6.3,5.7-6.3c2.4,0,4.5,1.7,5,4l5.7-3.3c-1.6-3.9-5.8-6.5-10.9-6.5
			c-7.1,0-12.3,5.1-12.3,12.1s5.2,12.1,12.3,12.1c6.2,0,11.1-3.8,11.6-9l-6.4-0.7C118.3,16.7,116.2,18.3,113.8,18.3z"/>
		<polygon class="st55" points="91.5,4.5 91.5,15.1 83.8,0.8 76.7,4.9 76.7,23.3 83,23.3 83,9 90.8,23.3 97.9,23.3 97.9,0.8 		"/>
	</g>
</g>
<script  type="text/javascript">//<![CDATA[  <-- For SVG support
	if ('WebSocket' in window) {
		(function () {
			function refreshCSS() {
				var sheets = [].slice.call(document.getElementsByTagName("link"));
				var head = document.getElementsByTagName("head")[0];
				for (var i = 0; i < sheets.length; ++i) {
					var elem = sheets[i];
					var parent = elem.parentElement || head;
					parent.removeChild(elem);
					var rel = elem.rel;
					if (elem.href && typeof rel != "string" || rel.length == 0 || rel.toLowerCase() == "stylesheet") {
						var url = elem.href.replace(/(&|\?)_cacheOverride=\d+/, '');
						elem.href = url + (url.indexOf('?') >= 0 ? '&' : '?') + '_cacheOverride=' + (new Date().valueOf());
					}
					parent.appendChild(elem);
				}
			}
			var protocol = window.location.protocol === 'http:' ? 'ws://' : 'wss://';
			var address = protocol + window.location.host + window.location.pathname + '/ws';
			var socket = new WebSocket(address);
			socket.onmessage = function (msg) {
				if (msg.data == 'reload') window.location.reload();
				else if (msg.data == 'refreshcss') refreshCSS();
			};
			if (sessionStorage && !sessionStorage.getItem('IsThisFirstTime_Log_From_LiveServer')) {
				console.log('Live reload enabled.');
				sessionStorage.setItem('IsThisFirstTime_Log_From_LiveServer', true);
			}
		})();
	}
	else {
		console.error('Upgrade your browser. This Browser is NOT supported WebSocket for Live-Reloading.');
	}
	// 
	]]>
</script>
</svg>
