<?xml version="1.0" encoding="utf-8"?>
<!-- Generator: Adobe Illustrator 25.0.0, SVG Export Plug-In . SVG Version: 6.00 Build 0)  -->
<svg version="1.1" id="Layer_1" xmlns="http://www.w3.org/2000/svg" xmlns:xlink="http://www.w3.org/1999/xlink" x="0px" y="0px"
	 viewBox="0 0 177.3 61" style="enable-background:new 0 0 177.3 61;" xml:space="preserve">
<style type="text/css">
	.st0{fill:#66CCFF;}
	.st1{fill:url(#SVGID_1_);}
	.st2{fill:url(#SVGID_2_);}
	.st3{fill:url(#SVGID_3_);}
	.st4{fill:url(#SVGID_4_);}
	.st5{fill:url(#SVGID_5_);}
	.st6{fill:url(#SVGID_6_);}
	.st7{fill:url(#SVGID_7_);}
	.st8{fill:url(#SVGID_8_);}
	.st9{fill:url(#SVGID_9_);}
	.st10{fill:url(#SVGID_10_);}
	.st11{fill:url(#SVGID_11_);}
	.st12{fill:url(#SVGID_12_);}
	.st13{fill:url(#SVGID_13_);}
	.st14{fill:url(#SVGID_14_);}
	.st15{fill:url(#SVGID_15_);}
	.st16{fill:url(#SVGID_16_);}
	.st17{fill:url(#SVGID_17_);}
	.st18{fill:url(#SVGID_18_);}
	.st19{fill:url(#SVGID_19_);}
	.st20{fill:url(#SVGID_20_);}
	.st21{fill:url(#SVGID_21_);}
	.st22{fill:url(#SVGID_22_);}
	.st23{fill:url(#SVGID_23_);}
	.st24{fill:url(#SVGID_24_);}
	.st25{fill:url(#SVGID_25_);}
	.st26{fill:url(#SVGID_26_);}
	.st27{fill:url(#SVGID_27_);}
	.st28{fill:url(#SVGID_28_);}
	.st29{fill:url(#SVGID_29_);}
	.st30{fill:url(#SVGID_30_);}
	.st31{fill:url(#SVGID_31_);}
	.st32{fill:url(#SVGID_32_);}
	.st33{fill:url(#SVGID_33_);}
	.st34{fill:url(#SVGID_34_);}
	.st35{fill:url(#SVGID_35_);}
	.st36{fill:url(#SVGID_36_);}
	.st37{fill:#FFFFFF;}
</style>
<g id="Layer_2_1_">
	<g id="Layer_1-2">
		<polygon class="st0" points="48.1,11 38.5,5.5 29,0 19.4,5.5 9.8,11 0.3,16.6 0.3,27.6 9.8,22.1 19.4,16.6 29,11 38.5,16.6 
			48.1,22.1 57.6,27.6 57.6,16.6 		"/>
		
			<linearGradient id="SVGID_1_" gradientUnits="userSpaceOnUse" x1="21.2656" y1="732.4686" x2="55.5856" y2="777.2686" gradientTransform="matrix(1 0 0 1 0 -728)">
			<stop  offset="0" style="stop-color:#66CCFF"/>
			<stop  offset="0.5" style="stop-color:#6258A6"/>
			<stop  offset="0.99" style="stop-color:#273470"/>
		</linearGradient>
		<polygon class="st1" points="37.5,18.5 37.5,27.3 29.9,22.9 		"/>
		
			<linearGradient id="SVGID_2_" gradientUnits="userSpaceOnUse" x1="4.4586" y1="745.361" x2="38.7687" y2="790.151" gradientTransform="matrix(1 0 0 1 0 -728)">
			<stop  offset="0" style="stop-color:#66CCFF"/>
			<stop  offset="0.5" style="stop-color:#6258A6"/>
			<stop  offset="0.99" style="stop-color:#273470"/>
		</linearGradient>
		<polygon class="st2" points="10.8,24 18.4,28.4 10.8,32.8 		"/>
		
			<linearGradient id="SVGID_3_" gradientUnits="userSpaceOnUse" x1="13.8832" y1="743.8952" x2="41.3332" y2="779.7352" gradientTransform="matrix(1 0 0 1 0 -728)">
			<stop  offset="0" style="stop-color:#66CCFF"/>
			<stop  offset="0.5" style="stop-color:#6258A6"/>
			<stop  offset="0.99" style="stop-color:#273470"/>
		</linearGradient>
		<polygon class="st3" points="27.2,27.5 27.2,34.6 21.1,31.1 		"/>
		
			<linearGradient id="SVGID_4_" gradientUnits="userSpaceOnUse" x1="26.9226" y1="742.0103" x2="54.3826" y2="777.8503" gradientTransform="matrix(1 0 0 1 0 -728)">
			<stop  offset="0" style="stop-color:#66CCFF"/>
			<stop  offset="0.5" style="stop-color:#6258A6"/>
			<stop  offset="0.99" style="stop-color:#273470"/>
		</linearGradient>
		<polygon class="st4" points="55.9,46.1 55.9,53.2 49.8,49.6 		"/>
		
			<linearGradient id="SVGID_5_" gradientUnits="userSpaceOnUse" x1="22.7261" y1="741.5605" x2="50.1761" y2="777.3906" gradientTransform="matrix(1 0 0 1 0 -728)">
			<stop  offset="0" style="stop-color:#66CCFF"/>
			<stop  offset="0.5" style="stop-color:#6258A6"/>
			<stop  offset="0.99" style="stop-color:#273470"/>
		</linearGradient>
		<polygon class="st5" points="40.2,35.1 46.3,38.6 40.2,42.1 		"/>
		
			<linearGradient id="SVGID_6_" gradientUnits="userSpaceOnUse" x1="0.915" y1="755.7632" x2="28.375" y2="791.6031" gradientTransform="matrix(1 0 0 1 0 -728)">
			<stop  offset="0" style="stop-color:#66CCFF"/>
			<stop  offset="0.5" style="stop-color:#6258A6"/>
			<stop  offset="0.99" style="stop-color:#273470"/>
		</linearGradient>
		<polygon class="st6" points="13.6,43 19.7,46.5 13.6,50.1 		"/>
		
			<linearGradient id="SVGID_7_" gradientUnits="userSpaceOnUse" x1="-5.2463" y1="757.5249" x2="22.2137" y2="793.3549" gradientTransform="matrix(1 0 0 1 0 -728)">
			<stop  offset="0" style="stop-color:#66CCFF"/>
			<stop  offset="0.5" style="stop-color:#6258A6"/>
			<stop  offset="0.99" style="stop-color:#273470"/>
		</linearGradient>
		<polygon class="st7" points="6.1,38.6 6.1,45.6 0,42.1 		"/>
		
			<linearGradient id="SVGID_8_" gradientUnits="userSpaceOnUse" x1="30.6477" y1="725.2842" x2="64.9677" y2="770.0842" gradientTransform="matrix(1 0 0 1 0 -728)">
			<stop  offset="0" style="stop-color:#66CCFF"/>
			<stop  offset="0.5" style="stop-color:#6258A6"/>
			<stop  offset="0.99" style="stop-color:#273470"/>
		</linearGradient>
		<polygon class="st8" points="48.1,11 48.1,22.1 38.5,16.6 		"/>
		
			<linearGradient id="SVGID_9_" gradientUnits="userSpaceOnUse" x1="27.3108" y1="727.8464" x2="61.6308" y2="772.6365" gradientTransform="matrix(1 0 0 1 0 -728)">
			<stop  offset="0" style="stop-color:#66CCFF"/>
			<stop  offset="0.5" style="stop-color:#6258A6"/>
			<stop  offset="0.99" style="stop-color:#273470"/>
		</linearGradient>
		<polygon class="st9" points="29,0 38.5,5.5 29,11 		"/>
		
			<linearGradient id="SVGID_10_" gradientUnits="userSpaceOnUse" x1="1.2103" y1="747.8375" x2="35.5203" y2="792.6274" gradientTransform="matrix(1 0 0 1 0 -728)">
			<stop  offset="0" style="stop-color:#66CCFF"/>
			<stop  offset="0.5" style="stop-color:#6258A6"/>
			<stop  offset="0.99" style="stop-color:#273470"/>
		</linearGradient>
		<polygon class="st10" points="0.3,16.6 9.8,22.1 0.3,27.6 		"/>
		
			<linearGradient id="SVGID_11_" gradientUnits="userSpaceOnUse" x1="9.8871" y1="741.1975" x2="44.1971" y2="785.9875" gradientTransform="matrix(1 0 0 1 0 -728)">
			<stop  offset="0" style="stop-color:#66CCFF"/>
			<stop  offset="0.5" style="stop-color:#6258A6"/>
			<stop  offset="0.99" style="stop-color:#273470"/>
		</linearGradient>
		<polygon class="st11" points="9.8,11 19.4,16.6 9.8,22.1 		"/>
		
			<linearGradient id="SVGID_12_" gradientUnits="userSpaceOnUse" x1="24.2" y1="728.74" x2="24.2" y2="777.31" gradientTransform="matrix(1 0 0 1 0 -728)">
			<stop  offset="0" style="stop-color:#66CCFF"/>
			<stop  offset="0.5" style="stop-color:#6258A6"/>
			<stop  offset="0.99" style="stop-color:#273470"/>
		</linearGradient>
		<polygon class="st12" points="28,13 28,21.8 20.4,17.4 		"/>
		
			<linearGradient id="SVGID_13_" gradientUnits="userSpaceOnUse" x1="14.6" y1="728.74" x2="14.6" y2="777.31" gradientTransform="matrix(1 0 0 1 0 -728)">
			<stop  offset="0" style="stop-color:#66CCFF"/>
			<stop  offset="0.5" style="stop-color:#6258A6"/>
			<stop  offset="0.99" style="stop-color:#273470"/>
		</linearGradient>
		<polygon class="st13" points="18.4,18.5 18.4,27.3 10.8,22.9 		"/>
		
			<linearGradient id="SVGID_14_" gradientUnits="userSpaceOnUse" x1="43.3" y1="728.74" x2="43.3" y2="777.31" gradientTransform="matrix(1 0 0 1 0 -728)">
			<stop  offset="0" style="stop-color:#66CCFF"/>
			<stop  offset="0.5" style="stop-color:#6258A6"/>
			<stop  offset="0.99" style="stop-color:#273470"/>
		</linearGradient>
		<polygon class="st14" points="39.5,18.5 47.1,22.9 39.5,27.3 		"/>
		
			<linearGradient id="SVGID_15_" gradientUnits="userSpaceOnUse" x1="5.05" y1="728.74" x2="5.05" y2="777.31" gradientTransform="matrix(1 0 0 1 0 -728)">
			<stop  offset="0" style="stop-color:#66CCFF"/>
			<stop  offset="0.5" style="stop-color:#6258A6"/>
			<stop  offset="0.99" style="stop-color:#273470"/>
		</linearGradient>
		<polygon class="st15" points="8.9,24 8.9,32.8 1.2,28.4 		"/>
		
			<linearGradient id="SVGID_16_" gradientUnits="userSpaceOnUse" x1="43.3" y1="728.74" x2="43.3" y2="777.31" gradientTransform="matrix(1 0 0 1 0 -728)">
			<stop  offset="0" style="stop-color:#66CCFF"/>
			<stop  offset="0.5" style="stop-color:#6258A6"/>
			<stop  offset="0.99" style="stop-color:#273470"/>
		</linearGradient>
		<polygon class="st16" points="47.1,24 47.1,32.8 39.5,28.4 		"/>
		
			<linearGradient id="SVGID_17_" gradientUnits="userSpaceOnUse" x1="52.85" y1="728.74" x2="52.85" y2="777.31" gradientTransform="matrix(1 0 0 1 0 -728)">
			<stop  offset="0" style="stop-color:#66CCFF"/>
			<stop  offset="0.5" style="stop-color:#6258A6"/>
			<stop  offset="0.99" style="stop-color:#273470"/>
		</linearGradient>
		<polygon class="st17" points="56.7,29.5 56.7,38.3 49,33.9 		"/>
		
			<linearGradient id="SVGID_18_" gradientUnits="userSpaceOnUse" x1="33.7" y1="728.74" x2="33.7" y2="777.31" gradientTransform="matrix(1 0 0 1 0 -728)">
			<stop  offset="0" style="stop-color:#66CCFF"/>
			<stop  offset="0.5" style="stop-color:#6258A6"/>
			<stop  offset="0.99" style="stop-color:#273470"/>
		</linearGradient>
		<polygon class="st18" points="29.9,13 37.5,17.4 29.9,21.8 		"/>
		
			<linearGradient id="SVGID_19_" gradientUnits="userSpaceOnUse" x1="5.05" y1="728.74" x2="5.05" y2="777.31" gradientTransform="matrix(1 0 0 1 0 -728)">
			<stop  offset="0" style="stop-color:#66CCFF"/>
			<stop  offset="0.5" style="stop-color:#6258A6"/>
			<stop  offset="0.99" style="stop-color:#273470"/>
		</linearGradient>
		<polygon class="st19" points="1.2,29.5 8.9,33.9 1.2,38.3 		"/>
		
			<linearGradient id="SVGID_20_" gradientUnits="userSpaceOnUse" x1="52.85" y1="728.74" x2="52.85" y2="777.31" gradientTransform="matrix(1 0 0 1 0 -728)">
			<stop  offset="0" style="stop-color:#66CCFF"/>
			<stop  offset="0.5" style="stop-color:#6258A6"/>
			<stop  offset="0.99" style="stop-color:#273470"/>
		</linearGradient>
		<polygon class="st20" points="49,24 56.7,28.4 49,32.8 		"/>
		
			<linearGradient id="SVGID_21_" gradientUnits="userSpaceOnUse" x1="24.2" y1="728.74" x2="24.2" y2="777.31" gradientTransform="matrix(1 0 0 1 0 -728)">
			<stop  offset="0" style="stop-color:#66CCFF"/>
			<stop  offset="0.5" style="stop-color:#6258A6"/>
			<stop  offset="0.99" style="stop-color:#273470"/>
		</linearGradient>
		<polygon class="st21" points="20.4,18.5 28,22.9 20.4,27.3 		"/>
		
			<linearGradient id="SVGID_22_" gradientUnits="userSpaceOnUse" x1="5.05" y1="738.52" x2="5.05" y2="777.37" gradientTransform="matrix(1 0 0 1 0 -728)">
			<stop  offset="0" style="stop-color:#66CCFF"/>
			<stop  offset="0.5" style="stop-color:#6258A6"/>
			<stop  offset="0.99" style="stop-color:#273470"/>
		</linearGradient>
		<polygon class="st22" points="2,46.1 8.1,49.6 2,53.2 		"/>
		
			<linearGradient id="SVGID_23_" gradientUnits="userSpaceOnUse" x1="52.85" y1="737.02" x2="52.85" y2="775.87" gradientTransform="matrix(1 0 0 1 0 -728)">
			<stop  offset="0" style="stop-color:#66CCFF"/>
			<stop  offset="0.5" style="stop-color:#6258A6"/>
			<stop  offset="0.99" style="stop-color:#273470"/>
		</linearGradient>
		<polygon class="st23" points="49.8,38.6 55.9,42.1 49.8,45.6 		"/>
		
			<linearGradient id="SVGID_24_" gradientUnits="userSpaceOnUse" x1="43.25" y1="737.51" x2="43.25" y2="776.36" gradientTransform="matrix(1 0 0 1 0 -728)">
			<stop  offset="0" style="stop-color:#66CCFF"/>
			<stop  offset="0.5" style="stop-color:#6258A6"/>
			<stop  offset="0.99" style="stop-color:#273470"/>
		</linearGradient>
		<polygon class="st24" points="46.3,41 46.3,48.1 40.2,44.5 		"/>
		
			<linearGradient id="SVGID_25_" gradientUnits="userSpaceOnUse" x1="33.75" y1="738.31" x2="33.75" y2="777.17" gradientTransform="matrix(1 0 0 1 0 -728)">
			<stop  offset="0" style="stop-color:#66CCFF"/>
			<stop  offset="0.5" style="stop-color:#6258A6"/>
			<stop  offset="0.99" style="stop-color:#273470"/>
		</linearGradient>
		<polygon class="st25" points="36.8,45.1 36.8,52.1 30.7,48.6 		"/>
		
			<linearGradient id="SVGID_26_" gradientUnits="userSpaceOnUse" x1="24.15" y1="736.31" x2="24.15" y2="775.17" gradientTransform="matrix(1 0 0 1 0 -728)">
			<stop  offset="0" style="stop-color:#66CCFF"/>
			<stop  offset="0.5" style="stop-color:#6258A6"/>
			<stop  offset="0.99" style="stop-color:#273470"/>
		</linearGradient>
		<polygon class="st26" points="21.1,35.1 27.2,38.6 21.1,42.1 		"/>
		
			<linearGradient id="SVGID_27_" gradientUnits="userSpaceOnUse" x1="14.65" y1="736.31" x2="14.65" y2="775.17" gradientTransform="matrix(1 0 0 1 0 -728)">
			<stop  offset="0" style="stop-color:#66CCFF"/>
			<stop  offset="0.5" style="stop-color:#6258A6"/>
			<stop  offset="0.99" style="stop-color:#273470"/>
		</linearGradient>
		<polygon class="st27" points="17.7,35.1 17.7,42.1 11.6,38.6 		"/>
		
			<linearGradient id="SVGID_28_" gradientUnits="userSpaceOnUse" x1="33.75" y1="734.45" x2="33.75" y2="773.3" gradientTransform="matrix(1 0 0 1 0 -728)">
			<stop  offset="0" style="stop-color:#66CCFF"/>
			<stop  offset="0.5" style="stop-color:#6258A6"/>
			<stop  offset="0.99" style="stop-color:#273470"/>
		</linearGradient>
		<polygon class="st28" points="30.7,25.8 36.8,29.3 30.7,32.8 		"/>
		
			<linearGradient id="SVGID_29_" gradientUnits="userSpaceOnUse" x1="24.2" y1="728.74" x2="24.2" y2="777.31" gradientTransform="matrix(1 0 0 1 0 -728)">
			<stop  offset="0" style="stop-color:#66CCFF"/>
			<stop  offset="0.5" style="stop-color:#6258A6"/>
			<stop  offset="0.99" style="stop-color:#273470"/>
		</linearGradient>
		<polygon class="st29" points="29,0 29,11 19.4,5.5 		"/>
		
			<linearGradient id="SVGID_30_" gradientUnits="userSpaceOnUse" x1="14.6" y1="728.74" x2="14.6" y2="777.32" gradientTransform="matrix(1 0 0 1 0 -728)">
			<stop  offset="0" style="stop-color:#66CCFF"/>
			<stop  offset="0.5" style="stop-color:#6258A6"/>
			<stop  offset="0.99" style="stop-color:#273470"/>
		</linearGradient>
		<polygon class="st30" points="19.4,5.5 19.4,16.6 9.8,11 		"/>
		
			<linearGradient id="SVGID_31_" gradientUnits="userSpaceOnUse" x1="43.3" y1="728.74" x2="43.3" y2="777.31" gradientTransform="matrix(1 0 0 1 0 -728)">
			<stop  offset="0" style="stop-color:#66CCFF"/>
			<stop  offset="0.5" style="stop-color:#6258A6"/>
			<stop  offset="0.99" style="stop-color:#273470"/>
		</linearGradient>
		<polygon class="st31" points="38.5,5.5 48.1,11 38.5,16.6 		"/>
		
			<linearGradient id="SVGID_32_" gradientUnits="userSpaceOnUse" x1="33.75" y1="728.74" x2="33.75" y2="777.31" gradientTransform="matrix(1 0 0 1 0 -728)">
			<stop  offset="0" style="stop-color:#66CCFF"/>
			<stop  offset="0.5" style="stop-color:#6258A6"/>
			<stop  offset="0.99" style="stop-color:#273470"/>
		</linearGradient>
		<polygon class="st32" points="38.5,5.5 38.5,16.6 29,11 		"/>
		
			<linearGradient id="SVGID_33_" gradientUnits="userSpaceOnUse" x1="5.05" y1="728.74" x2="5.05" y2="777.31" gradientTransform="matrix(1 0 0 1 0 -728)">
			<stop  offset="0" style="stop-color:#66CCFF"/>
			<stop  offset="0.5" style="stop-color:#6258A6"/>
			<stop  offset="0.99" style="stop-color:#273470"/>
		</linearGradient>
		<polygon class="st33" points="9.8,11 9.8,22.1 0.3,16.6 		"/>
		
			<linearGradient id="SVGID_34_" gradientUnits="userSpaceOnUse" x1="52.85" y1="728.74" x2="52.85" y2="777.31" gradientTransform="matrix(1 0 0 1 0 -728)">
			<stop  offset="0" style="stop-color:#66CCFF"/>
			<stop  offset="0.5" style="stop-color:#6258A6"/>
			<stop  offset="0.99" style="stop-color:#273470"/>
		</linearGradient>
		<polygon class="st34" points="57.6,16.6 57.6,27.6 48.1,22.1 		"/>
		
			<linearGradient id="SVGID_35_" gradientUnits="userSpaceOnUse" x1="52.85" y1="728.74" x2="52.85" y2="777.31" gradientTransform="matrix(1 0 0 1 0 -728)">
			<stop  offset="0" style="stop-color:#66CCFF"/>
			<stop  offset="0.5" style="stop-color:#6258A6"/>
			<stop  offset="0.99" style="stop-color:#273470"/>
		</linearGradient>
		<polygon class="st35" points="48.1,11 48.1,22.1 57.6,16.6 		"/>
		
			<linearGradient id="SVGID_36_" gradientUnits="userSpaceOnUse" x1="24.2" y1="728.74" x2="24.2" y2="777.31" gradientTransform="matrix(1 0 0 1 0 -728)">
			<stop  offset="0" style="stop-color:#66CCFF"/>
			<stop  offset="0.5" style="stop-color:#6258A6"/>
			<stop  offset="0.99" style="stop-color:#273470"/>
		</linearGradient>
		<polygon class="st36" points="19.4,5.5 29,11 19.4,16.6 		"/>
		<path class="st37" d="M70.7,35.6c0.2,0,0.4,0,0.6,0s0.3-0.1,0.5-0.1c0,0.2,0.1,0.4,0.2,0.5s0.2,0.2,0.3,0.3
			c0.1,0.1,0.3,0.1,0.4,0.2c0.2,0,0.3,0,0.5,0h1.2c0.3,0,0.7,0,1-0.1s0.5-0.3,0.6-0.5c0.1,0.2,0.2,0.4,0.3,0.5
			c0.2,0.1,0.4,0.2,0.7,0.2h0.9c0.3,0,0.7,0,1-0.1s0.5-0.3,0.6-0.5c0.1,0.2,0.2,0.4,0.3,0.5c0.2,0.1,0.4,0.2,0.7,0.2h7.1v-1.8
			c0-0.6-0.2-1.3-0.6-1.8c-0.4-0.4-1-0.7-1.6-0.6c-0.6,0-1.2,0.2-1.7,0.5c-0.5,0.4-0.9,0.8-1.2,1.3V29h-0.8v6.6h-1.2
			c-0.2,0-0.3,0-0.4-0.1c-0.1,0-0.2-0.1-0.3-0.2c-0.1-0.1-0.1-0.2-0.1-0.4s0-0.3,0-0.5v-2h-0.8v2.4c0,0.1,0,0.3-0.1,0.4
			c0,0.1-0.1,0.2-0.2,0.2c-0.1,0.1-0.2,0.1-0.3,0.1h-0.4H77c-0.2,0-0.3,0-0.4-0.1c-0.1,0-0.2-0.1-0.3-0.2c-0.1-0.1-0.1-0.2-0.1-0.4
			s0-0.3,0-0.5v-2h-0.9v2.4c0,0.1,0,0.3-0.1,0.4c0,0.1-0.1,0.2-0.2,0.2c-0.1,0.1-0.2,0.1-0.3,0.1h-0.4h-1c-0.2,0-0.4,0-0.6-0.2
			c-0.1-0.2-0.2-0.4-0.1-0.6v-3H71c-0.3,0-0.5,0-0.8,0.1s-0.5,0.2-0.7,0.3c-0.2,0.2-0.4,0.4-0.5,0.6c-0.1,0.3-0.2,0.6-0.2,0.9
			c0,0.3,0.1,0.6,0.2,0.9c0.1,0.2,0.3,0.4,0.5,0.5s0.4,0.2,0.6,0.3C70.4,35.5,70.5,35.5,70.7,35.6z M82.9,34.8
			c0.2-0.3,0.4-0.5,0.6-0.8c0.2-0.2,0.5-0.4,0.8-0.6c0.3-0.2,0.6-0.2,0.9-0.2c0.2,0,0.5,0,0.7,0.1s0.3,0.2,0.5,0.4
			c0.1,0.2,0.2,0.3,0.2,0.5c0.1,0.2,0.1,0.4,0.1,0.7v0.7h-4.2C82.6,35.3,82.7,35,82.9,34.8z M69.7,33.8c0-0.3,0.1-0.6,0.3-0.8
			c0.2-0.2,0.5-0.3,0.8-0.2h0.9v1.8c-0.2,0.1-0.3,0.1-0.5,0.1s-0.3,0-0.5,0c-0.3,0-0.6-0.1-0.9-0.3C69.7,34.2,69.6,34,69.7,33.8
			L69.7,33.8z"/>
		<path class="st37" d="M89.1,36c0.2,0.1,0.4,0.3,0.6,0.3c0.3,0.1,0.5,0.1,0.8,0.1h1.2c0,0.2-0.1,0.5-0.2,0.7s-0.3,0.3-0.5,0.4
			c-0.2,0.1-0.5,0.2-0.7,0.2c-0.3,0-0.6,0-0.9,0h-0.3v0.9h0.4c0.4,0,0.8,0,1.2-0.1c0.3-0.1,0.6-0.2,0.9-0.3c0.3-0.2,0.5-0.4,0.6-0.7
			c0.2-0.3,0.3-0.7,0.3-1h3.2V29h-0.8v6.6h-2.4v-0.5c0-0.4,0-0.7-0.1-1.1c-0.1-0.3-0.2-0.6-0.3-0.9c-0.2-0.2-0.4-0.4-0.6-0.5
			c-0.3-0.1-0.6-0.2-0.9-0.2s-0.6,0.1-0.9,0.2c-0.2,0.1-0.5,0.3-0.6,0.5c-0.2,0.2-0.3,0.5-0.4,0.7c-0.1,0.3-0.1,0.5-0.1,0.8
			s0,0.6,0.2,0.8C88.8,35.7,88.9,35.9,89.1,36z M89.4,34c0-0.2,0.1-0.3,0.2-0.4c0.1-0.1,0.2-0.2,0.4-0.3c0.2-0.1,0.3-0.1,0.5-0.1
			c0.4,0,0.7,0.1,0.9,0.5c0.2,0.4,0.3,0.8,0.3,1.2v0.7h-1.1c-0.3,0-0.6-0.1-0.9-0.2c-0.2-0.2-0.3-0.5-0.3-0.8
			C89.4,34.3,89.4,34.2,89.4,34L89.4,34z"/>
		<rect x="97.2" y="29" class="st37" width="0.8" height="7.4"/>
		<path class="st37" d="M102.1,36.1c0.2,0.1,0.4,0.2,0.7,0.3c0.3,0.1,0.7,0.1,1,0.1h6.3v-4h-0.9v3.1h-5c-0.3,0-0.6,0-0.8,0
			c-0.2,0-0.3-0.1-0.5-0.1c-0.1-0.1-0.2-0.2-0.3-0.3c-0.1-0.2-0.1-0.3-0.1-0.5v-1.3h-0.8V35c0,0.2,0,0.5,0.1,0.7
			C101.9,35.8,102,36,102.1,36.1z"/>
		<path class="st37" d="M112,36.1c0.1,0.1,0.3,0.2,0.5,0.2s0.4,0.1,0.6,0.1h2.7v-4H115v3.1h-1.8c-0.3,0-0.5-0.1-0.6-0.2
			c-0.1-0.2-0.1-0.4-0.1-0.6V29h-0.9v6c0,0.2,0,0.5,0.1,0.7C111.8,35.9,111.9,36,112,36.1z"/>
		<path class="st37" d="M117.6,36.1c0.1,0.1,0.3,0.2,0.5,0.2c0.2,0.1,0.4,0.1,0.6,0.1h1.1c0.3,0,0.7,0,1-0.1s0.5-0.3,0.6-0.5
			c0.1,0.2,0.2,0.4,0.3,0.5c0.2,0.1,0.4,0.2,0.7,0.2h0.9c0.3,0,0.7,0,1-0.1s0.5-0.3,0.6-0.5c0.1,0.2,0.2,0.4,0.3,0.5
			c0.2,0.1,0.4,0.2,0.7,0.2h2.5V29h-0.8v6.6h-1.7c-0.2,0-0.3,0-0.4-0.1c-0.1,0-0.2-0.1-0.3-0.2c-0.1-0.1-0.1-0.2-0.1-0.4
			s0-0.3,0-0.5v-2H124v2.4c0,0.1,0,0.3-0.1,0.4c0,0.1-0.1,0.2-0.2,0.2c-0.1,0.1-0.2,0.1-0.3,0.1H123h-0.7c-0.2,0-0.3,0-0.4-0.1
			c-0.1,0-0.2-0.1-0.3-0.2c-0.1-0.1-0.1-0.2-0.1-0.4s0-0.3,0-0.5v-2h-0.9v2.4c0,0.1,0,0.3-0.1,0.4c0,0.1-0.1,0.2-0.2,0.2
			c-0.1,0.1-0.2,0.1-0.3,0.1h-0.4h-0.9c-0.3,0-0.5-0.1-0.6-0.2c-0.1-0.2-0.1-0.4-0.1-0.6V29h-0.9v6c0,0.2,0,0.5,0.1,0.7
			C117.4,35.9,117.5,36,117.6,36.1z"/>
		<rect x="129.7" y="29" class="st37" width="0.9" height="7.4"/>
		<path class="st37" d="M138,33.7c-0.1-0.3-0.2-0.5-0.4-0.7s-0.4-0.4-0.6-0.5c-0.2-0.1-0.5-0.2-0.8-0.2s-0.6,0.1-0.8,0.2
			c-0.2,0.1-0.5,0.3-0.6,0.6c-0.2,0.2-0.3,0.5-0.4,0.8c-0.1,0.3-0.1,0.5-0.1,0.8s0,0.6,0.1,0.8s0.2,0.4,0.4,0.6
			c0.2,0.2,0.4,0.3,0.6,0.3c0.3,0.1,0.5,0.1,0.8,0.1s0.6,0,0.9-0.2c0.2-0.1,0.4-0.2,0.6-0.4c0.2-0.2,0.3-0.4,0.4-0.6
			c0.1-0.2,0.1-0.4,0.1-0.7C138.2,34.3,138.1,34,138,33.7z M137.3,35.1c-0.1,0.1-0.2,0.2-0.3,0.3s-0.2,0.1-0.4,0.2
			c-0.1,0-0.3,0-0.4,0c-0.2,0-0.3,0-0.5-0.1c-0.1,0-0.3-0.1-0.4-0.2c-0.1-0.1-0.2-0.2-0.2-0.3c-0.1-0.2-0.1-0.3-0.1-0.5
			s0-0.4,0.1-0.5c0.1-0.2,0.1-0.3,0.2-0.5c0.1-0.1,0.2-0.2,0.4-0.3c0.1-0.1,0.3-0.1,0.5-0.1s0.3,0,0.4,0.1c0.1,0.1,0.3,0.2,0.4,0.3
			c0.1,0.1,0.2,0.3,0.3,0.5s0.1,0.4,0.1,0.6C137.4,34.8,137.3,35,137.3,35.1L137.3,35.1z"/>
		<path class="st37" d="M140.1,35.7c0,0.4,0,0.7,0,0.9s-0.1,0.4-0.2,0.6c-0.1,0.2-0.2,0.3-0.4,0.3c-0.3,0.1-0.5,0.1-0.8,0.1v0.9
			c0.4,0,0.8,0,1.1-0.2c0.3-0.1,0.5-0.2,0.7-0.5c0.2-0.2,0.3-0.5,0.3-0.8c0.1-0.4,0.1-0.9,0.1-1.3V33H140L140.1,35.7z"/>
		<rect x="142.4" y="29" class="st37" width="0.9" height="7.4"/>
		<path class="st37" d="M147.8,36.1c0.2-0.2,0.3-0.5,0.3-0.8c0-0.2,0-0.3-0.1-0.5s-0.2-0.4-0.3-0.6c-0.1-0.2-0.3-0.5-0.5-0.8
			s-0.5-0.7-0.7-1.2l-0.8,0.5l0.8,1.2l0.5,0.7c0.1,0.1,0.2,0.2,0.2,0.4c0,0.1,0,0.1,0,0.2c0,0.1,0,0.2-0.1,0.2
			c-0.1,0.1-0.3,0.1-0.4,0.1h-2.4v0.9h2.5C147.1,36.5,147.5,36.4,147.8,36.1z"/>
		<path class="st37" d="M150.7,38.5h-0.6c-0.2,0-0.3,0-0.4-0.1c-0.1-0.1-0.1-0.2-0.1-0.4c0-0.1,0-0.2,0.1-0.3s0.2-0.2,0.4-0.1
			c0.2,0,0.3,0,0.4,0.1v-0.5c-0.1,0-0.1-0.1-0.2-0.1c-0.1,0-0.2,0-0.3,0s-0.2,0-0.3,0.1c-0.2,0.1-0.4,0.3-0.5,0.5
			c-0.1,0.1-0.1,0.3-0.1,0.4c0,0.2,0,0.4,0.1,0.5h-0.5V39h1.9L150.7,38.5z"/>
		<rect x="149.4" y="29" class="st37" width="0.9" height="7.4"/>
		<path class="st37" d="M176.8,33.1c-0.2-0.2-0.4-0.3-0.6-0.4c-0.2-0.1-0.5-0.2-0.7-0.2s-0.4,0-0.6,0.1c-0.2,0.1-0.4,0.2-0.6,0.3
			c-0.2,0.2-0.4,0.4-0.5,0.6c-0.2,0.3-0.4,0.7-0.5,1.1c-0.1,0.2-0.1,0.3-0.2,0.5c-0.1,0.1-0.2,0.2-0.3,0.3s-0.2,0.1-0.3,0.1
			s-0.2,0-0.3,0h-0.5c-0.1,0-0.2,0-0.3,0s-0.2-0.1-0.3-0.2c-0.1-0.1-0.2-0.2-0.3-0.4s-0.2-0.4-0.2-0.6c-0.2-0.5-0.5-0.9-0.9-1.3
			c-0.5-0.5-1.1-0.9-1.7-1.1l3.1-1.4v-0.9l-3.9,1.7c0,0-0.1,0-0.1,0.1s-0.1,0.1-0.1,0.2s-0.1,0.2-0.1,0.2c0,0.1,0,0.2,0,0.3
			c0.4,0.2,0.8,0.4,1.2,0.6c0.4,0.2,0.7,0.4,1,0.7c0.2,0.2,0.5,0.4,0.6,0.7c0.1,0.2,0.2,0.4,0.2,0.6c0,0.2-0.1,0.4-0.2,0.5
			c-0.2,0.1-0.5,0.2-0.8,0.2h-2.3c-0.2,0-0.3,0-0.4-0.1c-0.1,0-0.2-0.1-0.3-0.2c-0.1-0.1-0.1-0.2-0.1-0.4s0-0.3,0-0.5v-2h-0.9v2.4
			c0,0.1,0,0.3-0.1,0.4c0,0.1-0.1,0.2-0.2,0.2c-0.1,0.1-0.2,0.1-0.3,0.1H164h-0.7c-0.2,0-0.3,0-0.4-0.1c-0.1,0-0.2-0.1-0.3-0.2
			c-0.1-0.1-0.1-0.2-0.1-0.4s0-0.3,0-0.5v-2h-0.9v2.4c0,0.1,0,0.3-0.1,0.4c0,0.1-0.1,0.2-0.2,0.2c-0.1,0.1-0.2,0.1-0.4,0.1h-0.6
			h-3.8c-0.3,0-0.6,0-0.8,0s-0.3-0.1-0.5-0.1c-0.1-0.1-0.2-0.2-0.3-0.3c-0.1-0.2-0.1-0.3-0.1-0.5V33H154v1.6c0,0.2,0,0.5,0.1,0.7
			s0.2,0.3,0.4,0.5c0.2,0.1,0.4,0.2,0.6,0.3c0.3,0.1,0.7,0.1,1,0.1h4.2h0.8c0.2,0,0.4,0,0.6-0.1c0.1,0,0.3-0.1,0.4-0.2
			c0.1-0.1,0.2-0.2,0.2-0.3c0.1,0.2,0.2,0.4,0.3,0.5c0.2,0.1,0.4,0.2,0.6,0.2h0.7c0.3,0,0.7,0,1-0.1s0.5-0.3,0.6-0.5
			c0.1,0.2,0.2,0.4,0.3,0.5c0.2,0.1,0.4,0.2,0.7,0.2h2.1c0.4,0,0.8,0,1.1-0.2c0.3-0.1,0.6-0.3,0.7-0.7l0,0c0.1,0.2,0.2,0.3,0.3,0.4
			c0.1,0.1,0.2,0.2,0.3,0.2c0.1,0.1,0.2,0.1,0.4,0.1h0.4h0.8c0.1,0,0.2,0,0.3-0.1c0.1,0,0.2-0.1,0.3-0.2c0.1-0.1,0.2-0.2,0.3-0.3
			c0.3,0.2,0.6,0.4,1,0.6c0.3,0.1,0.7,0.2,1,0.2c0.5,0,1-0.2,1.3-0.5c0.3-0.4,0.5-0.9,0.4-1.4c0-0.3,0-0.6-0.1-0.8
			C177.1,33.5,177,33.3,176.8,33.1z M176.2,35.4c-0.2,0.2-0.4,0.3-0.7,0.2c-0.3,0-0.5-0.1-0.8-0.2c-0.3-0.1-0.5-0.2-0.8-0.4
			c0.1-0.5,0.4-0.9,0.7-1.3c0.2-0.2,0.5-0.4,0.8-0.4c0.2,0,0.3,0,0.4,0.1c0.1,0.1,0.2,0.2,0.3,0.3s0.1,0.2,0.2,0.4
			c0,0.1,0.1,0.3,0.1,0.5C176.5,34.9,176.4,35.2,176.2,35.4L176.2,35.4z"/>
		<polygon class="st37" points="72.2,29.4 71.3,29.4 71.3,30.4 72.2,29.9 		"/>
		<polygon class="st37" points="70.9,29.4 70,29.4 70,30.4 70.9,29.9 		"/>
		<polygon class="st37" points="107,30.8 106.2,30.8 106.2,31.8 107,31.3 		"/>
		<polygon class="st37" points="105.7,30.8 104.9,30.8 104.9,31.8 105.7,31.3 		"/>
		<polygon class="st37" points="76.7,37.5 75.9,37.5 75.9,38.5 76.7,38 		"/>
		<polygon class="st37" points="75.4,37.5 74.6,37.5 74.6,38.5 75.4,38 		"/>
		<polygon class="st37" points="122.1,37.5 121.2,37.5 121.2,38.5 122.1,38 		"/>
		<polygon class="st37" points="120.8,37.5 119.9,37.5 119.9,38.5 120.8,38 		"/>
		<polygon class="st37" points="137.2,30.1 136.3,30.1 136.3,31.2 137.2,30.7 		"/>
		<polygon class="st37" points="135.9,30.1 135,30.1 135,31.2 135.9,30.7 		"/>
		<polygon class="st37" points="166.3,30.1 165.4,30.1 165.4,31.2 166.3,30.7 		"/>
		<polygon class="st37" points="165,30.1 164.1,30.1 164.1,31.2 165,30.7 		"/>
		<polygon class="st37" points="158.5,37.5 157.7,37.5 157.7,38.5 158.5,38 		"/>
		<polygon class="st37" points="124.7,37.4 123.8,37.4 123.8,38.5 124.7,38 		"/>
		<polygon class="st37" points="115.7,30.1 114.9,30.1 114.9,31.2 115.7,30.7 		"/>
		<polygon class="st37" points="79.6,30.2 78.7,30.2 78.7,31.2 79.6,30.7 		"/>
		<polygon class="st37" points="70.4,43.1 70.5,43.1 74.2,48.8 75.2,48.8 75.2,41.7 74.3,41.7 74.3,47.5 74.3,47.5 70.6,41.7 
			69.6,41.7 69.6,48.8 70.4,48.8 		"/>
		<path class="st37" d="M79.1,48.7c0.3-0.1,0.6-0.3,0.8-0.6c0,0.2,0.1,0.4,0.2,0.6c0.1,0.1,0.3,0.2,0.5,0.2s0.4,0,0.6-0.1v-0.7
			c-0.1,0-0.2,0-0.3,0c-0.1,0-0.2,0-0.2-0.1s0-0.3,0-0.4V45c0-0.3,0-0.5-0.2-0.7c-0.1-0.2-0.3-0.3-0.5-0.4c-0.2-0.1-0.4-0.2-0.6-0.2
			s-0.5,0-0.7,0c-0.3,0-0.6,0-0.8,0.1c-0.2,0.1-0.5,0.2-0.7,0.3s-0.4,0.3-0.5,0.5c-0.1,0.3-0.2,0.5-0.2,0.8h0.8
			c0-0.3,0.1-0.6,0.4-0.8c0.3-0.1,0.6-0.2,0.9-0.2c0.1,0,0.3,0,0.4,0s0.3,0.1,0.4,0.1c0.1,0.1,0.2,0.2,0.3,0.3
			c0.1,0.1,0.1,0.3,0.1,0.5c0,0.1,0,0.3-0.1,0.4c-0.1,0.1-0.2,0.2-0.4,0.2c-0.2,0-0.4,0.1-0.6,0.1s-0.4,0.1-0.7,0.1
			c-0.2,0-0.4,0.1-0.6,0.2c-0.2,0.1-0.4,0.1-0.6,0.3c-0.2,0.1-0.3,0.3-0.4,0.5c-0.2,0.4-0.2,0.9,0,1.4c0.1,0.2,0.2,0.3,0.4,0.5
			c0.2,0.1,0.4,0.2,0.6,0.2c0.2,0.1,0.4,0.1,0.7,0.1C78.5,48.9,78.8,48.9,79.1,48.7z M77.6,48c-0.2-0.1-0.3-0.4-0.3-0.6
			c0-0.1,0-0.3,0.1-0.4c0.1-0.1,0.1-0.2,0.2-0.3s0.2-0.1,0.3-0.2l0.4-0.1c0.1,0,0.3-0.1,0.4-0.1l0.4-0.1l0.4-0.1
			c0.1,0,0.2-0.1,0.3-0.1v1c0,0.1,0,0.3-0.1,0.4c-0.1,0.1-0.2,0.3-0.3,0.4c-0.1,0.1-0.3,0.2-0.5,0.3s-0.5,0.1-0.7,0.1
			c-0.1,0-0.3,0-0.4,0C77.8,48.1,77.7,48.1,77.6,48z"/>
		<path class="st37" d="M84.2,48.8V48h-0.7c-0.1,0-0.1,0-0.2-0.1l-0.1-0.1c0-0.1,0-0.2,0-0.2v-3.2h1v-0.8h-1v-1.5h-0.8v1.5h-0.9v0.8
			h0.9v3.3c0,0.2,0,0.4,0.1,0.6c0,0.1,0.1,0.3,0.2,0.3c0.1,0.1,0.2,0.1,0.4,0.2c0.2,0,0.4,0,0.6,0H84.2z"/>
		<rect x="85.2" y="43.6" class="st37" width="0.8" height="5.2"/>
		<path class="st37" d="M90.7,48.7c0.3-0.1,0.6-0.3,0.8-0.6c0.2-0.3,0.4-0.5,0.5-0.9c0.1-0.3,0.2-0.7,0.2-1.1c0-0.4,0-0.7-0.2-1.1
			c-0.1-0.3-0.3-0.6-0.5-0.9c-0.2-0.2-0.5-0.4-0.8-0.6c-0.3-0.1-0.7-0.2-1.1-0.2s-0.7,0.1-1.1,0.2c-0.3,0.1-0.6,0.3-0.8,0.6
			c-0.2,0.3-0.4,0.6-0.5,0.9c-0.1,0.3-0.2,0.7-0.2,1.1c0,0.4,0,0.7,0.2,1.1c0.1,0.3,0.3,0.6,0.5,0.9c0.2,0.2,0.5,0.4,0.8,0.6
			c0.3,0.1,0.7,0.2,1.1,0.2S90.4,48.9,90.7,48.7z M88.5,47.7c-0.2-0.2-0.3-0.4-0.3-0.6c-0.1-0.3-0.1-0.6-0.1-0.8
			c0-0.3,0-0.6,0.1-0.8s0.2-0.4,0.3-0.6c0.1-0.2,0.3-0.3,0.5-0.4c0.2-0.1,0.4-0.1,0.6-0.1s0.4,0,0.6,0.1s0.4,0.2,0.5,0.4
			c0.2,0.2,0.3,0.4,0.3,0.6c0.1,0.3,0.1,0.5,0.1,0.8s0,0.6-0.1,0.8s-0.2,0.4-0.3,0.6c-0.1,0.2-0.3,0.3-0.5,0.4
			c-0.2,0.1-0.4,0.1-0.6,0.1C89.2,48.2,88.8,48,88.5,47.7L88.5,47.7z"/>
		<path class="st37" d="M94.8,44.4c0.2-0.1,0.4-0.1,0.7-0.1c0.6,0,1,0.4,1,1v3.5h0.8v-3.4c0-0.3,0-0.5-0.1-0.8
			c-0.1-0.2-0.2-0.4-0.3-0.6c-0.1-0.2-0.3-0.3-0.6-0.4c-0.3-0.1-0.6-0.1-0.8-0.1c-0.3,0-0.7,0.1-1,0.2c-0.3,0.2-0.5,0.4-0.7,0.7l0,0
			v-0.8H93v5.2h1v-2.9c0-0.2,0-0.4,0.1-0.6c0.1-0.2,0.2-0.4,0.3-0.5C94.5,44.6,94.7,44.5,94.8,44.4z"/>
		<path class="st37" d="M101.2,48.7c0.3-0.1,0.6-0.3,0.8-0.6c0,0.2,0,0.4,0.2,0.6c0.1,0.1,0.3,0.2,0.5,0.2s0.4,0,0.6-0.1v-0.7
			c-0.1,0-0.2,0-0.3,0c-0.1,0-0.2,0-0.2-0.1s0-0.3,0-0.4V45c0-0.3,0-0.5-0.2-0.7c-0.1-0.2-0.3-0.3-0.4-0.4c-0.2-0.1-0.4-0.2-0.6-0.2
			s-0.5,0-0.7,0c-0.3,0-0.6,0-0.8,0.1c-0.2,0.1-0.5,0.2-0.7,0.3s-0.4,0.3-0.5,0.5c-0.1,0.3-0.2,0.5-0.2,0.8h0.8
			c0-0.3,0.1-0.6,0.4-0.8c0.3-0.1,0.6-0.2,0.9-0.2h0.4c0.1,0,0.3,0.1,0.4,0.1c0.1,0.1,0.2,0.2,0.3,0.3c0.1,0.1,0.1,0.3,0.1,0.5
			c0,0.1,0,0.3-0.1,0.4c-0.1,0.1-0.2,0.2-0.4,0.2c-0.2,0-0.3,0.1-0.6,0.1c-0.2,0-0.4,0.1-0.7,0.1c-0.2,0-0.4,0.1-0.6,0.2
			c-0.2,0.1-0.4,0.1-0.6,0.3c-0.2,0.1-0.3,0.3-0.4,0.5c-0.2,0.4-0.2,0.9,0,1.4c0.1,0.2,0.2,0.3,0.4,0.5c0.2,0.1,0.4,0.2,0.6,0.2
			c0.2,0.1,0.4,0.1,0.7,0.1C100.5,48.9,100.8,48.9,101.2,48.7z M99.6,48c-0.1-0.1-0.2-0.1-0.2-0.2c-0.1-0.1-0.1-0.2-0.1-0.4
			c0-0.1,0-0.3,0.1-0.4c0.1-0.1,0.1-0.2,0.2-0.3s0.2-0.1,0.3-0.2l0.4-0.1c0.1,0,0.3-0.1,0.4-0.1l0.4-0.1l0.4-0.1
			c0.1,0,0.2-0.1,0.3-0.1v1c0,0.1,0,0.3-0.1,0.4c-0.1,0.1-0.2,0.3-0.3,0.4c-0.1,0.1-0.3,0.2-0.5,0.3s-0.5,0.1-0.7,0.1
			c-0.1,0-0.3,0-0.4,0C99.8,48.1,99.7,48.1,99.6,48z"/>
		<rect x="104.1" y="41.7" class="st37" width="0.8" height="7.2"/>
		<path class="st37" d="M114.3,47.8c0.3-0.3,0.5-0.7,0.6-1.2s0.2-1.1,0.2-1.6c0.1-0.9-0.2-1.9-0.9-2.6c-0.7-0.6-1.6-0.9-2.5-0.8
			h-2.5v7.1h2.5c0.5,0,1-0.1,1.5-0.2C113.6,48.4,114,48.2,114.3,47.8z M114,46.3c-0.1,0.3-0.2,0.5-0.3,0.8c-0.1,0.2-0.3,0.4-0.5,0.5
			s-0.3,0.2-0.5,0.3s-0.3,0.1-0.5,0.1h-0.4h-1.6v-5.5h1.6c0.4,0,0.8,0.1,1.1,0.2c0.3,0.1,0.5,0.3,0.7,0.5s0.3,0.5,0.4,0.8
			c0.1,0.4,0.1,0.8,0.1,1.2C114.1,45.6,114.1,46,114,46.3z"/>
		<path class="st37" d="M120.1,48.9c0.2,0,0.4,0,0.6-0.1v-0.7c-0.1,0-0.2,0-0.3,0c-0.1,0-0.2,0-0.2-0.1s0-0.3,0-0.4V45
			c0-0.3,0-0.5-0.2-0.7c-0.1-0.2-0.3-0.3-0.4-0.4c-0.2-0.1-0.4-0.2-0.6-0.2s-0.5,0-0.7,0c-0.3,0-0.6,0-0.8,0.1
			c-0.2,0.1-0.5,0.2-0.7,0.3s-0.4,0.3-0.5,0.5c-0.1,0.3-0.2,0.5-0.2,0.8h0.8c0-0.3,0.1-0.6,0.4-0.8c0.3-0.1,0.6-0.2,0.9-0.2
			c0.1,0,0.3,0,0.4,0s0.3,0.1,0.4,0.1c0.1,0.1,0.2,0.2,0.3,0.3c0.1,0.1,0.1,0.3,0.1,0.5c0,0.1,0,0.3-0.1,0.4
			c-0.1,0.1-0.2,0.2-0.4,0.2c-0.2,0-0.4,0.1-0.6,0.1s-0.4,0.1-0.7,0.1c-0.2,0-0.4,0.1-0.6,0.2c-0.2,0.1-0.4,0.1-0.6,0.3
			c-0.2,0.1-0.3,0.3-0.4,0.5c-0.2,0.4-0.2,0.9,0,1.4c0.1,0.2,0.2,0.3,0.4,0.5c0.2,0.1,0.4,0.2,0.6,0.2c0.2,0.1,0.4,0.1,0.7,0.1
			c0.3,0,0.7-0.1,1-0.2c0.3-0.1,0.6-0.3,0.8-0.6c0,0.2,0.1,0.4,0.2,0.6C119.8,48.9,119.9,48.9,120.1,48.9z M119.3,47
			c0,0.1,0,0.3-0.1,0.4c-0.1,0.1-0.2,0.3-0.3,0.4c-0.1,0.1-0.3,0.2-0.5,0.3s-0.5,0.1-0.7,0.1c-0.1,0-0.3,0-0.4,0s-0.2-0.1-0.3-0.1
			c-0.2-0.1-0.3-0.4-0.3-0.6c0-0.1,0-0.3,0.1-0.4c0.1-0.1,0.1-0.2,0.2-0.3s0.2-0.1,0.3-0.2l0.4-0.1c0.1,0,0.3-0.1,0.4-0.1l0.4-0.1
			l0.4-0.1c0.1,0,0.2-0.1,0.3-0.1L119.3,47z"/>
		<path class="st37" d="M123.7,44.4v-0.8h-1v-1.5h-0.8v1.5H121v0.8h0.9v3.3c0,0.2,0,0.4,0.1,0.6c0,0.1,0.1,0.3,0.2,0.3
			c0.1,0.1,0.2,0.1,0.4,0.2c0.2,0,0.4,0,0.6,0h0.7V48H123c-0.1,0-0.1,0-0.2-0.1l-0.1-0.1c0-0.1,0-0.2,0-0.2v-3.2H123.7z"/>
		<path class="st37" d="M128.8,48c0-0.1,0-0.3,0-0.4V45c0-0.3,0-0.5-0.2-0.7c-0.1-0.2-0.3-0.3-0.4-0.4c-0.2-0.1-0.4-0.2-0.6-0.2
			s-0.5,0-0.7,0c-0.3,0-0.6,0-0.8,0.1c-0.2,0.1-0.5,0.2-0.7,0.3s-0.4,0.3-0.5,0.5c-0.1,0.3-0.2,0.5-0.2,0.8h0.8
			c0-0.3,0.1-0.6,0.4-0.8c0.3-0.1,0.6-0.2,0.9-0.2h0.4c0.1,0,0.3,0.1,0.4,0.1c0.1,0.1,0.2,0.2,0.3,0.3c0.1,0.1,0.1,0.3,0.1,0.5
			c0,0.1,0,0.3-0.1,0.4c-0.1,0.1-0.2,0.2-0.4,0.2c-0.2,0-0.4,0.1-0.6,0.1s-0.4,0.1-0.7,0.1c-0.2,0-0.4,0.1-0.7,0.2
			c-0.2,0.1-0.4,0.1-0.6,0.3c-0.2,0.1-0.3,0.3-0.4,0.5c-0.2,0.4-0.2,0.9,0,1.4c0.2,0.4,0.5,0.6,0.9,0.7c0.2,0.1,0.4,0.1,0.7,0.1
			c0.3,0,0.7-0.1,1-0.2c0.3-0.1,0.6-0.3,0.8-0.6c0,0.2,0.1,0.4,0.2,0.6c0.1,0.1,0.3,0.2,0.5,0.2s0.4,0,0.6-0.1v-0.7
			c-0.1,0-0.2,0-0.3,0C128.9,48.2,128.8,48.1,128.8,48z M127.9,47c0,0.1,0,0.3-0.1,0.4c-0.1,0.1-0.2,0.3-0.3,0.4
			c-0.1,0.1-0.3,0.2-0.5,0.3s-0.5,0.1-0.7,0.1c-0.1,0-0.3,0-0.4,0s-0.2-0.1-0.3-0.1c-0.2-0.1-0.3-0.4-0.3-0.6c0-0.3,0.1-0.5,0.3-0.7
			c0.1-0.1,0.2-0.1,0.3-0.2l0.4-0.1c0.1,0,0.3-0.1,0.4-0.1l0.4-0.1l0.4-0.1c0.1,0,0.2-0.1,0.3-0.1L127.9,47z"/>
		<polygon class="st37" points="73.1,57.8 70.9,51.8 69.6,51.8 69.6,58.9 70.5,58.9 70.5,53 70.5,53 72.7,58.9 73.6,58.9 75.8,53 
			75.8,53 75.8,58.9 76.7,58.9 76.7,51.8 75.4,51.8 		"/>
		<path class="st37" d="M82.2,58.2c0-0.1,0-0.3,0-0.4v-2.7c0-0.3,0-0.5-0.2-0.7c-0.1-0.2-0.3-0.3-0.4-0.4c-0.2-0.1-0.4-0.2-0.6-0.2
			s-0.5,0-0.7,0c-0.3,0-0.6,0-0.8,0.1c-0.2,0.1-0.5,0.2-0.7,0.3s-0.4,0.3-0.5,0.5c-0.1,0.3-0.2,0.5-0.2,0.8h0.8
			c0-0.3,0.1-0.6,0.4-0.8c0.3-0.1,0.6-0.2,0.9-0.2c0.1,0,0.3,0,0.4,0s0.3,0.1,0.4,0.1c0.1,0.1,0.2,0.2,0.3,0.3
			c0.1,0.1,0.1,0.3,0.1,0.5c0,0.1,0,0.3-0.1,0.4c-0.1,0.1-0.2,0.2-0.4,0.2c-0.2,0-0.4,0.1-0.6,0.1s-0.4,0.1-0.7,0.1
			s-0.4,0.1-0.6,0.2c-0.2,0.1-0.4,0.1-0.6,0.3c-0.2,0.1-0.3,0.3-0.4,0.5s-0.2,0.5-0.2,0.7s0,0.5,0.1,0.7s0.2,0.3,0.4,0.5
			c0.2,0.1,0.4,0.2,0.6,0.3s0.4,0.1,0.7,0.1c0.3,0,0.7-0.1,1-0.2c0.3-0.1,0.6-0.3,0.8-0.6c0,0.2,0,0.4,0.2,0.6
			c0.1,0.1,0.3,0.2,0.5,0.2s0.4,0,0.6-0.1v-0.7c-0.1,0-0.2,0-0.3,0C82.3,58.3,82.3,58.3,82.2,58.2z M81.4,57.2c0,0.1,0,0.3-0.1,0.4
			c-0.1,0.1-0.2,0.3-0.3,0.4c-0.1,0.1-0.3,0.2-0.5,0.3s-0.5,0.1-0.7,0.1c-0.1,0-0.3,0-0.4,0s-0.2-0.1-0.3-0.1
			c-0.1-0.1-0.2-0.1-0.2-0.2c-0.1-0.1-0.1-0.2-0.1-0.4c0-0.1,0-0.3,0.1-0.4c0.1-0.1,0.1-0.2,0.2-0.3s0.2-0.1,0.3-0.2l0.4-0.1
			l0.4-0.1l0.4-0.1c0.1,0,0.3,0,0.4-0.1c0.1,0,0.2-0.1,0.3-0.1L81.4,57.2z"/>
		<path class="st37" d="M87.4,54.2c-0.1-0.2-0.3-0.3-0.6-0.4c-0.3-0.1-0.6-0.1-0.8-0.1c-0.3,0-0.7,0.1-1,0.2
			c-0.3,0.2-0.5,0.4-0.7,0.7l0,0v-0.8h-0.8V59h0.8v-3c0-0.2,0-0.4,0.1-0.6c0.1-0.2,0.2-0.4,0.3-0.5c0.1-0.1,0.3-0.3,0.5-0.3
			c0.2-0.1,0.4-0.1,0.7-0.1c0.3,0,0.6,0.1,0.8,0.3c0.2,0.2,0.3,0.5,0.3,0.8v3.5h0.8v-3.4c0-0.3,0-0.5-0.1-0.8
			C87.7,54.5,87.6,54.3,87.4,54.2z"/>
		<path class="st37" d="M93.2,58.2c0-0.1,0-0.3,0-0.4v-2.7c0-0.3,0-0.5-0.2-0.7c-0.1-0.2-0.3-0.3-0.4-0.4c-0.2-0.1-0.4-0.2-0.6-0.2
			s-0.5,0-0.7,0c-0.3,0-0.6,0-0.8,0.1c-0.3,0.1-0.5,0.2-0.7,0.3s-0.4,0.3-0.5,0.5c-0.1,0.3-0.2,0.5-0.2,0.8h0.8
			c0-0.3,0.1-0.6,0.4-0.8c0.3-0.1,0.6-0.2,0.9-0.2h0.4c0.1,0,0.3,0.1,0.4,0.1c0.1,0.1,0.2,0.2,0.3,0.3c0.1,0.1,0.1,0.3,0.1,0.5
			c0,0.1,0,0.3-0.1,0.4c-0.1,0.1-0.2,0.2-0.4,0.2c-0.2,0-0.4,0.1-0.6,0.1s-0.4,0.1-0.7,0.1c-0.2,0-0.4,0.1-0.7,0.2
			c-0.2,0.1-0.4,0.1-0.6,0.3c-0.2,0.1-0.3,0.3-0.4,0.5s-0.2,0.5-0.2,0.7s0,0.5,0.1,0.7s0.2,0.3,0.4,0.5c0.2,0.1,0.4,0.2,0.6,0.3
			s0.4,0.1,0.7,0.1c0.3,0,0.7-0.1,1-0.2c0.3-0.1,0.6-0.3,0.8-0.6c0,0.2,0,0.4,0.2,0.6c0.1,0.1,0.3,0.2,0.5,0.2s0.4,0,0.6-0.1v-0.7
			c-0.1,0-0.2,0-0.3,0C93.3,58.3,93.2,58.3,93.2,58.2z M92.3,57.2c0,0.1,0,0.3-0.1,0.4c-0.1,0.1-0.2,0.3-0.3,0.4
			c-0.1,0.1-0.3,0.2-0.5,0.3s-0.5,0.1-0.7,0.1c-0.1,0-0.3,0-0.4,0s-0.2-0.1-0.3-0.1c-0.1-0.1-0.2-0.1-0.2-0.2
			c-0.1-0.1-0.1-0.2-0.1-0.4c0-0.1,0-0.3,0.1-0.4c0.1-0.1,0.1-0.2,0.2-0.3s0.2-0.1,0.3-0.2l0.4-0.1l0.4-0.1l0.4-0.1
			c0.1,0,0.3-0.1,0.4-0.2c0.1,0,0.2-0.1,0.3-0.1L92.3,57.2z"/>
		<path class="st37" d="M98.1,54.5L98.1,54.5c-0.1-0.3-0.4-0.5-0.6-0.6c-0.3-0.1-0.6-0.2-0.9-0.2c-0.4,0-0.8,0.1-1.1,0.3
			c-0.3,0.2-0.5,0.4-0.7,0.7s-0.3,0.6-0.4,0.9c-0.1,0.3-0.1,0.6-0.1,0.9c0,0.3,0,0.7,0.1,1s0.2,0.6,0.4,0.8c0.2,0.2,0.4,0.4,0.7,0.6
			c0.3,0.1,0.7,0.2,1,0.2c0.2,0,0.3,0,0.5-0.1c0.2,0,0.3-0.1,0.5-0.2c0.1-0.1,0.3-0.2,0.4-0.3s0.2-0.3,0.3-0.4l0,0v0.3
			c0,0.3,0,0.5-0.1,0.8c-0.1,0.2-0.1,0.4-0.3,0.6c-0.1,0.2-0.3,0.3-0.5,0.4c-0.2,0.1-0.5,0.2-0.7,0.2c-0.1,0-0.3,0-0.4,0
			s-0.3-0.1-0.4-0.1c-0.1-0.1-0.2-0.2-0.3-0.3c-0.1-0.1-0.1-0.2-0.1-0.4h-0.8c0,0.3,0.1,0.5,0.2,0.7s0.3,0.4,0.5,0.5
			s0.4,0.2,0.7,0.3c0.2,0.1,0.5,0.1,0.7,0.1c0.7,0.1,1.3-0.2,1.8-0.6c0.4-0.5,0.6-1.2,0.6-1.9v-4.8h-0.8L98.1,54.5z M98,57
			c-0.1,0.2-0.1,0.4-0.3,0.7c-0.1,0.2-0.3,0.3-0.5,0.5c-0.2,0.1-0.5,0.2-0.7,0.2s-0.5-0.1-0.7-0.2c-0.2-0.1-0.3-0.3-0.4-0.5
			s-0.2-0.4-0.2-0.6c0-0.2-0.1-0.5-0.1-0.7s0-0.5,0.1-0.7s0.1-0.4,0.3-0.6c0.1-0.2,0.3-0.3,0.5-0.4c0.2-0.1,0.5-0.2,0.7-0.2
			s0.5,0.1,0.7,0.2c0.2,0.1,0.3,0.3,0.5,0.4c0.1,0.2,0.2,0.4,0.2,0.6c0.1,0.2,0.1,0.4,0.1,0.7C98.1,56.5,98.1,56.8,98,57z"/>
		<path class="st37" d="M104.2,54.7c-0.2-0.3-0.4-0.5-0.7-0.7c-0.3-0.2-0.7-0.3-1.1-0.3c-0.3,0-0.7,0.1-1,0.2
			c-0.3,0.1-0.6,0.3-0.8,0.6c-0.2,0.3-0.4,0.5-0.5,0.9c-0.1,0.3-0.2,0.7-0.2,1.1c0,0.4,0.1,0.7,0.2,1.1c0.1,0.3,0.3,0.6,0.5,0.9
			c0.2,0.2,0.5,0.4,0.8,0.6c0.3,0.1,0.7,0.2,1.1,0.2c0.5,0,1-0.1,1.5-0.5c0.4-0.3,0.7-0.8,0.8-1.3H104c-0.1,0.3-0.2,0.6-0.5,0.8
			s-0.6,0.3-0.9,0.2c-0.3,0-0.5,0-0.7-0.1c-0.4-0.2-0.7-0.5-0.8-0.9c-0.1-0.2-0.1-0.4-0.1-0.7h3.9c0-0.3,0-0.7-0.1-1
			C104.5,55.3,104.4,54.9,104.2,54.7z M100.8,55.9c0-0.2,0.1-0.4,0.1-0.6c0.1-0.2,0.2-0.3,0.3-0.5c0.1-0.1,0.3-0.2,0.4-0.3
			c0.2-0.1,0.4-0.1,0.6-0.1s0.4,0,0.6,0.1c0.3,0.1,0.6,0.4,0.8,0.8c0.1,0.2,0.1,0.4,0.1,0.6H100.8z"/>
		<path class="st37" d="M112.4,54c-0.2-0.1-0.3-0.2-0.5-0.3s-0.5-0.1-0.7-0.1c-0.3,0-0.7,0.1-0.9,0.2c-0.3,0.2-0.5,0.4-0.7,0.7
			c-0.1-0.3-0.3-0.5-0.6-0.7c-0.3-0.1-0.6-0.2-0.9-0.2c-0.7,0-1.3,0.3-1.7,0.9l0,0v-0.8h-0.8V59h0.8v-3.2c0-0.1,0-0.3,0.1-0.4
			c0.1-0.3,0.3-0.6,0.7-0.8c0.2-0.1,0.4-0.2,0.6-0.2s0.3,0,0.5,0.1c0.1,0,0.2,0.1,0.3,0.2c0.1,0.1,0.1,0.2,0.2,0.4
			c0,0.2,0,0.3,0,0.5V59h0.8v-3.2c0-0.4,0.1-0.7,0.4-1s0.6-0.4,1-0.4c0.2,0,0.3,0,0.5,0.1c0.1,0.1,0.2,0.1,0.3,0.2
			c0.1,0.1,0.1,0.2,0.2,0.4c0,0.1,0,0.3,0,0.5V59h0.8v-3.8c0-0.2,0-0.5-0.1-0.7C112.6,54.3,112.5,54.1,112.4,54z"/>
		<path class="st37" d="M118.2,54.7c-0.2-0.3-0.4-0.5-0.7-0.7c-0.3-0.2-0.7-0.3-1.2-0.3c-0.3,0-0.7,0.1-1,0.2
			c-0.3,0.1-0.6,0.3-0.8,0.6c-0.2,0.3-0.4,0.5-0.5,0.9c-0.1,0.3-0.2,0.7-0.2,1.1c0,0.4,0.1,0.7,0.2,1.1c0.1,0.3,0.3,0.6,0.5,0.9
			c0.2,0.2,0.5,0.4,0.8,0.6c0.3,0.1,0.7,0.2,1.1,0.2c0.5,0,1-0.1,1.5-0.5c0.4-0.3,0.7-0.8,0.8-1.3h-0.8c0,0.3-0.2,0.6-0.5,0.8
			s-0.6,0.3-0.9,0.2c-0.3,0-0.5,0-0.7-0.1s-0.4-0.2-0.5-0.4s-0.2-0.3-0.3-0.5c-0.1-0.2-0.1-0.4-0.1-0.7h3.9c0-0.3,0-0.7-0.1-1
			C118.4,55.3,118.3,54.9,118.2,54.7z M114.7,55.9c0-0.2,0.1-0.4,0.1-0.6c0.1-0.2,0.2-0.3,0.3-0.5c0.1-0.1,0.3-0.2,0.5-0.3
			s0.4-0.1,0.6-0.1s0.4,0,0.6,0.1s0.3,0.2,0.5,0.3c0.1,0.1,0.2,0.3,0.3,0.5c0.1,0.2,0.1,0.4,0.1,0.6H114.7z"/>
		<path class="st37" d="M123.4,54.2c-0.1-0.2-0.3-0.3-0.6-0.4c-0.3-0.1-0.6-0.1-0.8-0.1c-0.3,0-0.7,0.1-1,0.2
			c-0.3,0.2-0.5,0.4-0.7,0.7l0,0v-0.8h-0.8V59h0.8v-3c0-0.2,0-0.4,0.1-0.6c0.1-0.2,0.2-0.4,0.3-0.5c0.1-0.1,0.3-0.3,0.5-0.3
			c0.2-0.1,0.4-0.1,0.7-0.1c0.3,0,0.6,0.1,0.8,0.3c0.2,0.2,0.3,0.5,0.3,0.8v3.5h0.8v-3.4c0-0.3,0-0.5-0.1-0.8
			C123.7,54.5,123.5,54.3,123.4,54.2z"/>
		<path class="st37" d="M126.2,52.2h-0.8v1.5h-0.9v0.8h0.9v3.3c0,0.2,0,0.4,0.1,0.6c0,0.1,0.1,0.2,0.2,0.3s0.2,0.1,0.4,0.2
			c0.2,0,0.4,0,0.6,0h0.7v-0.8H127h-0.3c-0.1,0-0.1,0-0.2-0.1l-0.1-0.1c0-0.1,0-0.2,0-0.2v-3.2h1v-0.8h-1L126.2,52.2z"/>
		<path class="st37" d="M136.7,52.8c-0.3-0.4-0.7-0.6-1.1-0.8c-1-0.4-2-0.4-3,0c-0.4,0.2-0.8,0.5-1.1,0.8c-0.3,0.4-0.5,0.8-0.6,1.2
			c-0.3,0.9-0.3,1.9,0,2.8c0.1,0.4,0.4,0.8,0.6,1.2c0.3,0.4,0.7,0.6,1.1,0.8c1,0.4,2,0.4,3,0c0.4-0.2,0.8-0.5,1.1-0.8
			c0.3-0.4,0.5-0.8,0.6-1.2c0.3-0.9,0.3-1.9,0-2.8C137.3,53.5,137,53.1,136.7,52.8z M136.5,56.4c-0.1,0.3-0.2,0.7-0.4,0.9
			c-0.2,0.3-0.5,0.5-0.8,0.7s-0.7,0.3-1.1,0.3c-0.4,0-0.8-0.1-1.1-0.3s-0.6-0.4-0.8-0.7s-0.4-0.6-0.4-0.9c-0.1-0.3-0.1-0.7-0.1-1.1
			c0-0.4,0-0.7,0.1-1.1c0.1-0.3,0.2-0.7,0.4-1c0.4-0.6,1.1-1,1.9-0.9c0.4,0,0.8,0.1,1.1,0.3s0.6,0.4,0.8,0.7s0.4,0.6,0.4,1
			c0.1,0.3,0.1,0.7,0.1,1.1C136.6,55.7,136.6,56.1,136.5,56.4z"/>
		<path class="st37" d="M140.4,51.7c-0.4,0-0.8,0.1-1.1,0.3c-0.3,0.3-0.4,0.6-0.4,1v0.8H138v0.8h0.9V59h0.9v-4.5h1v-0.8h-1V53
			c0-0.2,0-0.3,0.2-0.5c0.1-0.1,0.3-0.1,0.5-0.1h0.2c0.1,0,0.2,0,0.2,0.1v-0.7c-0.1,0-0.2-0.1-0.3-0.1H140.4z"/>
		<rect x="144.6" y="53.8" class="st37" width="0.9" height="5.2"/>
		<path class="st37" d="M143.4,51.7c-0.4,0-0.8,0.1-1.1,0.3c-0.3,0.3-0.4,0.6-0.4,1v0.8H141v0.8h0.9V59h0.9v-4.5h1v-0.8h-1V53
			c0-0.2,0-0.3,0.2-0.5c0.1-0.1,0.3-0.1,0.5-0.1h0.2c0.1,0,0.2,0,0.2,0.1v-0.7c-0.1,0-0.2-0.1-0.3-0.1H143.4z"/>
		<path class="st37" d="M149.9,58c-0.3,0.2-0.6,0.4-1,0.3c-0.2,0-0.5-0.1-0.7-0.2c-0.2-0.1-0.3-0.3-0.5-0.4
			c-0.1-0.2-0.2-0.4-0.3-0.6c-0.1-0.2-0.1-0.5-0.1-0.7c0-0.3,0-0.5,0.1-0.8c0-0.2,0.1-0.5,0.3-0.7c0.1-0.2,0.3-0.3,0.5-0.5
			c0.2-0.1,0.5-0.2,0.8-0.2s0.6,0.1,0.9,0.3c0.2,0.2,0.4,0.5,0.4,0.8h0.9c0-0.3-0.1-0.5-0.2-0.8c-0.1-0.2-0.3-0.4-0.5-0.6
			c-0.2-0.1-0.4-0.3-0.7-0.3c-0.3-0.1-0.5-0.1-0.8-0.1c-0.4,0-0.7,0.1-1.1,0.2c-0.3,0.1-0.6,0.3-0.8,0.6s-0.4,0.6-0.5,0.9
			c-0.1,0.4-0.2,0.7-0.1,1.1c0,0.4,0,0.7,0.2,1.1c0.1,0.3,0.2,0.6,0.5,0.8c0.2,0.2,0.5,0.4,0.8,0.5s0.7,0.2,1,0.2
			c0.6,0,1.1-0.2,1.6-0.5c0.4-0.4,0.7-0.9,0.7-1.5h-0.9C150.2,57.4,150.1,57.7,149.9,58z"/>
		<path class="st37" d="M156.2,54.7c-0.2-0.3-0.4-0.5-0.7-0.7s-0.7-0.3-1.1-0.3c-0.3,0-0.7,0.1-1,0.2c-0.3,0.1-0.6,0.3-0.8,0.6
			s-0.4,0.5-0.5,0.9c-0.1,0.3-0.2,0.7-0.2,1.1c0,0.4,0.1,0.7,0.2,1.1c0.1,0.3,0.3,0.6,0.5,0.9c0.2,0.2,0.5,0.4,0.8,0.6
			c0.3,0.1,0.7,0.2,1.1,0.2c0.5,0,1-0.1,1.5-0.5c0.4-0.3,0.7-0.8,0.8-1.3H156c0,0.3-0.2,0.6-0.5,0.8s-0.6,0.3-0.9,0.2
			c-0.3,0-0.5,0-0.7-0.1c-0.4-0.2-0.7-0.5-0.8-0.9c-0.1-0.2-0.1-0.4-0.1-0.7h3.9c0-0.3,0-0.7-0.1-1
			C156.5,55.3,156.3,54.9,156.2,54.7z M152.8,55.9c0-0.2,0.1-0.4,0.1-0.6c0.1-0.2,0.2-0.3,0.3-0.5c0.1-0.1,0.3-0.2,0.4-0.3
			c0.2-0.1,0.4-0.1,0.6-0.1c0.2,0,0.4,0,0.6,0.1c0.2,0.1,0.3,0.2,0.5,0.3c0.1,0.1,0.2,0.3,0.3,0.5s0.1,0.4,0.1,0.6H152.8z"/>
		<polygon class="st37" points="86.1,41.7 85.2,41.7 85.2,42.7 86.1,42.2 		"/>
		<polygon class="st37" points="145.4,51.8 144.6,51.8 144.6,52.8 145.4,52.3 		"/>
		<path class="st37" d="M94.4,0.8h9.3c7.8,0,12.9,4.5,12.9,11.3s-5.2,11.3-12.9,11.3h-9.3V0.8z M103.7,5.9H101v12.4h2.7
			c3.2,0.2,5.9-2.3,6.1-5.5c0-0.2,0-0.5,0-0.7c0.2-3.2-2.2-5.9-5.4-6.2C104.2,5.9,103.9,5.9,103.7,5.9z"/>
		<path class="st37" d="M139.6,0.8l-5.4,15.4l-5.5-15.4H120v22.5h6.6V8.9l5.1,14.4h5l5.1-14.5v14.5h6.6V0.8H139.6z"/>
		<path class="st37" d="M151.9,12.1C151.9,4.9,157,0,164.5,0s12.7,4.9,12.7,12.1s-5.1,12.1-12.7,12.1S151.9,19.2,151.9,12.1z
			 M158.7,12.1c0,3.7,2.4,6.2,5.8,6.3s5.9-2.6,5.9-6.3s-2.4-6.3-5.9-6.3S158.7,8.4,158.7,12.1z"/>
		<polygon class="st37" points="83.6,4.5 83.6,15.1 75.9,0.8 68.8,4.9 68.8,23.3 75.1,23.3 75.1,9 82.9,23.3 90,23.3 90,0.8 		"/>
	</g>
</g>
<script  type="text/javascript">//<![CDATA[  <-- For SVG support
	if ('WebSocket' in window) {
		(function () {
			function refreshCSS() {
				var sheets = [].slice.call(document.getElementsByTagName("link"));
				var head = document.getElementsByTagName("head")[0];
				for (var i = 0; i < sheets.length; ++i) {
					var elem = sheets[i];
					var parent = elem.parentElement || head;
					parent.removeChild(elem);
					var rel = elem.rel;
					if (elem.href && typeof rel != "string" || rel.length == 0 || rel.toLowerCase() == "stylesheet") {
						var url = elem.href.replace(/(&|\?)_cacheOverride=\d+/, '');
						elem.href = url + (url.indexOf('?') >= 0 ? '&' : '?') + '_cacheOverride=' + (new Date().valueOf());
					}
					parent.appendChild(elem);
				}
			}
			var protocol = window.location.protocol === 'http:' ? 'ws://' : 'wss://';
			var address = protocol + window.location.host + window.location.pathname + '/ws';
			var socket = new WebSocket(address);
			socket.onmessage = function (msg) {
				if (msg.data == 'reload') window.location.reload();
				else if (msg.data == 'refreshcss') refreshCSS();
			};
			if (sessionStorage && !sessionStorage.getItem('IsThisFirstTime_Log_From_LiveServer')) {
				console.log('Live reload enabled.');
				sessionStorage.setItem('IsThisFirstTime_Log_From_LiveServer', true);
			}
		})();
	}
	else {
		console.error('Upgrade your browser. This Browser is NOT supported WebSocket for Live-Reloading.');
	}
	// 
	]]>
</script>
</svg>
