<?xml version="1.0" encoding="utf-8"?>
<!-- Generator: Adobe Illustrator 25.0.0, SVG Export Plug-In . SVG Version: 6.00 Build 0)  -->
<svg version="1.1" id="Layer_1" xmlns="http://www.w3.org/2000/svg" xmlns:xlink="http://www.w3.org/1999/xlink" x="0px" y="0px"
	 viewBox="0 0 920 284.3" style="enable-background:new 0 0 920 284.3;" xml:space="preserve">
<style type="text/css">
	.st0{fill:url(#Path_70_1_);}
	.st1{fill:url(#Path_71_1_);}
	.st2{fill:url(#Path_72_1_);}
	.st3{fill:url(#Path_73_1_);}
	.st4{fill:url(#Path_74_1_);}
	.st5{fill:url(#Path_75_1_);}
	.st6{fill:url(#Path_76_1_);}
	.st7{fill:url(#Path_77_1_);}
	.st8{fill:url(#Path_78_1_);}
	.st9{fill:url(#Path_79_1_);}
	.st10{fill:url(#Path_80_1_);}
	.st11{fill:url(#Path_81_1_);}
	.st12{fill:url(#Path_82_1_);}
	.st13{fill:url(#Path_83_1_);}
	.st14{fill:url(#Path_84_1_);}
	.st15{fill:url(#Path_85_1_);}
	.st16{fill:url(#Path_86_1_);}
	.st17{fill:url(#Path_87_1_);}
	.st18{fill:url(#Path_88_1_);}
	.st19{fill:url(#Path_89_1_);}
	.st20{fill:url(#Path_90_1_);}
	.st21{fill:url(#Path_91_1_);}
	.st22{fill:url(#Path_92_1_);}
	.st23{fill:url(#Path_93_1_);}
	.st24{fill:url(#Path_94_1_);}
	.st25{fill:url(#Path_95_1_);}
	.st26{fill:url(#Path_96_1_);}
	.st27{fill:url(#Path_97_1_);}
	.st28{fill:url(#Path_98_1_);}
	.st29{fill:url(#Path_99_1_);}
	.st30{fill:url(#Path_100_1_);}
	.st31{fill:#FFFFFF;}
</style>
<g id="logo" transform="translate(-560.848 -1908.917)">
	<g id="Group_11" transform="translate(560.848 1908.917)">
		<g id="Group_2" transform="translate(139.707 76.211)">
			
				<linearGradient id="Path_70_1_" gradientUnits="userSpaceOnUse" x1="6.2315" y1="454.8785" x2="11.1275" y2="452.6235" gradientTransform="matrix(25.039 0 0 -28.91 -108.1675 13126.2461)">
				<stop  offset="0" style="stop-color:#99D633"/>
				<stop  offset="0.5" style="stop-color:#33CC99"/>
				<stop  offset="1" style="stop-color:#273470"/>
			</linearGradient>
			<path id="Path_70" class="st0" d="M120.8,0v28.9l-25-14.4L120.8,0z"/>
			
				<linearGradient id="Path_71_1_" gradientUnits="userSpaceOnUse" x1="4.5723" y1="455.6396" x2="9.4693" y2="453.3835" gradientTransform="matrix(25.034 0 0 -28.8999 -109.3489 13223.9531)">
				<stop  offset="0" style="stop-color:#99D633"/>
				<stop  offset="0.5" style="stop-color:#33CC99"/>
				<stop  offset="1" style="stop-color:#273470"/>
			</linearGradient>
			<path id="Path_71" class="st1" d="M119.5,102.4v28.9l-25-14.5L119.5,102.4z"/>
			
				<linearGradient id="Path_72_1_" gradientUnits="userSpaceOnUse" x1="5.0944" y1="454.9417" x2="9.9904" y2="452.6857" gradientTransform="matrix(25.034 0 0 -28.9099 -120.3529 13204.4883)">
				<stop  offset="0" style="stop-color:#99D633"/>
				<stop  offset="0.5" style="stop-color:#33CC99"/>
				<stop  offset="1" style="stop-color:#273470"/>
			</linearGradient>
			<path id="Path_72" class="st2" d="M108.5,92.8l-25,14.5V78.3L108.5,92.8z"/>
			
				<linearGradient id="Path_73_1_" gradientUnits="userSpaceOnUse" x1="5.2514" y1="455.3298" x2="10.1484" y2="453.0738" gradientTransform="matrix(25.034 0 0 -28.91 -104.7059 13178.9453)">
				<stop  offset="0" style="stop-color:#99D633"/>
				<stop  offset="0.5" style="stop-color:#33CC99"/>
				<stop  offset="1" style="stop-color:#273470"/>
			</linearGradient>
			<path id="Path_73" class="st3" d="M124.1,52.7v28.9l-25-14.5L124.1,52.7z"/>
			
				<linearGradient id="Path_74_1_" gradientUnits="userSpaceOnUse" x1="5.7412" y1="455.1034" x2="10.6382" y2="452.8484" gradientTransform="matrix(25.034 0 0 -28.9099 -162.0759 13257.1689)">
				<stop  offset="0" style="stop-color:#99D633"/>
				<stop  offset="0.5" style="stop-color:#33CC99"/>
				<stop  offset="1" style="stop-color:#273470"/>
			</linearGradient>
			<path id="Path_74" class="st4" d="M66.8,131v28.9l-25-14.4L66.8,131z"/>
			
				<linearGradient id="Path_75_1_" gradientUnits="userSpaceOnUse" x1="4.7353" y1="455.1054" x2="9.6333" y2="452.8504" gradientTransform="matrix(25.03 0 0 -28.9099 -155.2782 13291.8125)">
				<stop  offset="0" style="stop-color:#99D633"/>
				<stop  offset="0.5" style="stop-color:#33CC99"/>
				<stop  offset="1" style="stop-color:#273470"/>
			</linearGradient>
			<path id="Path_75" class="st5" d="M73.5,180.1l-25,14.5v-28.9L73.5,180.1z"/>
			
				<linearGradient id="Path_76_1_" gradientUnits="userSpaceOnUse" x1="6.0213" y1="454.515" x2="10.9183" y2="452.26" gradientTransform="matrix(25.03 0 0 -28.9148 -203.7542 13307.6064)">
				<stop  offset="0" style="stop-color:#99D633"/>
				<stop  offset="0.5" style="stop-color:#33CC99"/>
				<stop  offset="1" style="stop-color:#273470"/>
			</linearGradient>
			<path id="Path_76" class="st6" d="M25,193.6L0,208.1v-28.9L25,193.6z"/>
		</g>
		<g id="Group_3" transform="translate(139.71 106.327)">
			
				<linearGradient id="Path_77_1_" gradientUnits="userSpaceOnUse" x1="2.4942" y1="426.9194" x2="8.6242" y2="423.1804" gradientTransform="matrix(25.034 0 0 -28.9099 -113.2786 12359.9072)">
				<stop  offset="0" style="stop-color:#99D633"/>
				<stop  offset="0.5" style="stop-color:#33CC99"/>
				<stop  offset="1" style="stop-color:#273470"/>
			</linearGradient>
			<path id="Path_77" class="st7" d="M115.5,118.8l-25,14.5v-28.9L115.5,118.8z"/>
			
				<linearGradient id="Path_78_1_" gradientUnits="userSpaceOnUse" x1="4.6434" y1="425.6088" x2="10.7744" y2="421.8688" gradientTransform="matrix(25.034 0 0 -28.91 -120.2806 12255.5908)">
				<stop  offset="0" style="stop-color:#99D633"/>
				<stop  offset="0.5" style="stop-color:#33CC99"/>
				<stop  offset="1" style="stop-color:#273470"/>
			</linearGradient>
			<path id="Path_78" class="st8" d="M108.5,14.4l-25,14.5V0L108.5,14.4z"/>
			
				<linearGradient id="Path_79_1_" gradientUnits="userSpaceOnUse" x1="4.8323" y1="425.9935" x2="10.9633" y2="422.2535" gradientTransform="matrix(25.034 0 0 -28.9099 -203.7356 12378.4258)">
				<stop  offset="0" style="stop-color:#99D633"/>
				<stop  offset="0.5" style="stop-color:#33CC99"/>
				<stop  offset="1" style="stop-color:#273470"/>
			</linearGradient>
			<path id="Path_79" class="st9" d="M25,122.9v28.9L0,137.3L25,122.9z"/>
		</g>
		<g id="Group_4" transform="translate(46.987)">
			
				<linearGradient id="Path_80_1_" gradientUnits="userSpaceOnUse" x1="101.1224" y1="526.6857" x2="101.4854" y2="531.7147" gradientTransform="matrix(25.034 0 0 -28.9 -2344.2842 15371.7354)">
				<stop  offset="0" style="stop-color:#66CCFF"/>
				<stop  offset="0.5" style="stop-color:#6258A6"/>
				<stop  offset="1" style="stop-color:#273470"/>
			</linearGradient>
			<path id="Path_80" class="st10" d="M205.7,62.1l-25,14.4V47.6L205.7,62.1z"/>
			
				<linearGradient id="Path_81_1_" gradientUnits="userSpaceOnUse" x1="101.0262" y1="525.3248" x2="101.3892" y2="530.3517" gradientTransform="matrix(25.043 0 0 -28.91 -2386.2632 15334.957)">
				<stop  offset="0" style="stop-color:#66CCFF"/>
				<stop  offset="0.5" style="stop-color:#6258A6"/>
				<stop  offset="1" style="stop-color:#273470"/>
			</linearGradient>
			<path id="Path_81" class="st11" d="M164.7,19.9l-25,14.5l0-28.9L164.7,19.9z"/>
			
				<linearGradient id="Path_82_1_" gradientUnits="userSpaceOnUse" x1="101.1135" y1="526.0658" x2="101.4765" y2="531.0928" gradientTransform="matrix(25.034 0 0 -28.907 -2432.2451 15351.9658)">
				<stop  offset="0" style="stop-color:#66CCFF"/>
				<stop  offset="0.5" style="stop-color:#6258A6"/>
				<stop  offset="1" style="stop-color:#273470"/>
			</linearGradient>
			<path id="Path_82" class="st12" d="M117.8,53l-25-14.4l25-14.5V53z"/>
			
				<linearGradient id="Path_83_1_" gradientUnits="userSpaceOnUse" x1="101.0613" y1="525.3264" x2="101.4243" y2="530.3534" gradientTransform="matrix(25.039 0 0 -28.9089 -2474.5198 15328.917)">
				<stop  offset="0" style="stop-color:#66CCFF"/>
				<stop  offset="0.5" style="stop-color:#6258A6"/>
				<stop  offset="1" style="stop-color:#273470"/>
			</linearGradient>
			<path id="Path_83" class="st13" d="M76,28.9L51,14.5L76,0V28.9z"/>
			
				<linearGradient id="Path_84_1_" gradientUnits="userSpaceOnUse" x1="101.1227" y1="526.1937" x2="101.4857" y2="531.2207" gradientTransform="matrix(25.034 0 0 -28.91 -2524.9622 15351.502)">
				<stop  offset="0" style="stop-color:#66CCFF"/>
				<stop  offset="0.5" style="stop-color:#6258A6"/>
				<stop  offset="1" style="stop-color:#273470"/>
			</linearGradient>
			<path id="Path_84" class="st14" d="M25,22v28.9L0,36.5L25,22z"/>
		</g>
		<g id="Group_5" transform="translate(2.501)">
			
				<linearGradient id="Path_85_1_" gradientUnits="userSpaceOnUse" x1="145.8496" y1="527.2064" x2="145.8496" y2="532.1785" gradientTransform="matrix(25.043 0 0 -28.9191 -3461.0649 15388.0146)">
				<stop  offset="0" style="stop-color:#66CCFF"/>
				<stop  offset="0.5" style="stop-color:#6258A6"/>
				<stop  offset="0.996" style="stop-color:#273470"/>
			</linearGradient>
			<path id="Path_85" class="st15" d="M204,82.6l-25-14.5l25-14.5L204,82.6z"/>
			
				<linearGradient id="Path_86_1_" gradientUnits="userSpaceOnUse" x1="145.8474" y1="525.3477" x2="145.8474" y2="530.3207" gradientTransform="matrix(25.034 0 0 -28.91 -3501.4233 15329.5078)">
				<stop  offset="0" style="stop-color:#66CCFF"/>
				<stop  offset="0.5" style="stop-color:#6258A6"/>
				<stop  offset="0.996" style="stop-color:#273470"/>
			</linearGradient>
			<path id="Path_86" class="st16" d="M162.2,14.5l-25,14.4V0L162.2,14.5z"/>
			
				<linearGradient id="Path_87_1_" gradientUnits="userSpaceOnUse" x1="145.8496" y1="526.4637" x2="145.8496" y2="531.4357" gradientTransform="matrix(25.043 0 0 -28.91 -3544.5107 15361.7607)">
				<stop  offset="0" style="stop-color:#66CCFF"/>
				<stop  offset="0.5" style="stop-color:#6258A6"/>
				<stop  offset="0.996" style="stop-color:#273470"/>
			</linearGradient>
			<path id="Path_87" class="st17" d="M120.5,46.7l-25,14.5V32.3L120.5,46.7z"/>
			
				<linearGradient id="Path_88_1_" gradientUnits="userSpaceOnUse" x1="145.8474" y1="527.1997" x2="145.8474" y2="532.1737" gradientTransform="matrix(25.034 0 0 -28.9 -3584.8855 15377.7588)">
				<stop  offset="0" style="stop-color:#66CCFF"/>
				<stop  offset="0.5" style="stop-color:#6258A6"/>
				<stop  offset="0.996" style="stop-color:#273470"/>
			</linearGradient>
			<path id="Path_88" class="st18" d="M78.8,68.1l-25,14.4V53.6L78.8,68.1z"/>
			
				<linearGradient id="Path_89_1_" gradientUnits="userSpaceOnUse" x1="145.8486" y1="527.4547" x2="145.8486" y2="532.4257" gradientTransform="matrix(25.039 0 0 -28.9099 -3639.3838 15390.3262)">
				<stop  offset="0" style="stop-color:#66CCFF"/>
				<stop  offset="0.5" style="stop-color:#6258A6"/>
				<stop  offset="0.996" style="stop-color:#273470"/>
			</linearGradient>
			<path id="Path_89" class="st19" d="M25,89.8L0,75.3l25-14.5V89.8z"/>
		</g>
		<g id="Group_7" transform="translate(0 105.327)">
			
				<linearGradient id="Path_90_1_" gradientUnits="userSpaceOnUse" x1="152.8605" y1="426.3047" x2="145.5735" y2="422.8828" gradientTransform="matrix(25.043 0 0 -28.9099 -3604.6597 12434.4932)">
				<stop  offset="0" style="stop-color:#FDBD4D"/>
				<stop  offset="0.5" style="stop-color:#FF6633"/>
				<stop  offset="1" style="stop-color:#273470"/>
			</linearGradient>
			<path id="Path_90" class="st20" d="M123,179l-25-14.5l25-14.5L123,179z"/>
			<g id="Group_6">
				
					<linearGradient id="Path_91_1_" gradientUnits="userSpaceOnUse" x1="153.9465" y1="426.8144" x2="146.6575" y2="423.3934" gradientTransform="matrix(25.034 0 0 -28.9099 -3644.9956 12422.4492)">
					<stop  offset="0" style="stop-color:#FDBD4D"/>
					<stop  offset="0.5" style="stop-color:#FF6633"/>
					<stop  offset="1" style="stop-color:#273470"/>
				</linearGradient>
				<path id="Path_91" class="st21" d="M81.3,138v28.9l-25-14.5L81.3,138z"/>
				
					<linearGradient id="Path_92_1_" gradientUnits="userSpaceOnUse" x1="154.9247" y1="427.2715" x2="147.6387" y2="423.8495" gradientTransform="matrix(25.043 0 0 -28.8999 -3692.6143 12391.2754)">
					<stop  offset="0" style="stop-color:#FDBD4D"/>
					<stop  offset="0.5" style="stop-color:#FF6633"/>
					<stop  offset="1" style="stop-color:#273470"/>
				</linearGradient>
				<path id="Path_92" class="st22" d="M35,111.2v28.9l-25-14.5L35,111.2z"/>
				
					<linearGradient id="Path_93_1_" gradientUnits="userSpaceOnUse" x1="152.9256" y1="426.3356" x2="145.6396" y2="422.9136" gradientTransform="matrix(25.043 0 0 -28.9099 -3688.1123 12284.4482)">
					<stop  offset="0" style="stop-color:#FDBD4D"/>
					<stop  offset="0.5" style="stop-color:#FF6633"/>
					<stop  offset="1" style="stop-color:#273470"/>
				</linearGradient>
				<path id="Path_93" class="st23" d="M39.5,0v28.9l-25-14.4L39.5,0z"/>
				
					<linearGradient id="Path_94_1_" gradientUnits="userSpaceOnUse" x1="153.5866" y1="427.1126" x2="146.3006" y2="423.6906" gradientTransform="matrix(25.043 0 0 -28.8999 -3702.6172 12306.4551)">
					<stop  offset="0" style="stop-color:#FDBD4D"/>
					<stop  offset="0.5" style="stop-color:#FF6633"/>
					<stop  offset="1" style="stop-color:#273470"/>
				</linearGradient>
				<path id="Path_94" class="st24" d="M25,40.8L0,55.2V26.3L25,40.8z"/>
			</g>
		</g>
		<g id="Group_8" transform="translate(1 82.236)">
			
				<linearGradient id="Path_95_1_" gradientUnits="userSpaceOnUse" x1="149.5677" y1="448.8801" x2="144.4177" y2="446.2841" gradientTransform="matrix(25.043 0 0 -28.9089 -3580.6167 13100.6152)">
				<stop  offset="0" style="stop-color:#FDBD4D"/>
				<stop  offset="0.5" style="stop-color:#FF6633"/>
				<stop  offset="1" style="stop-color:#273470"/>
			</linearGradient>
			<path id="Path_95" class="st25" d="M122,163.5L97,178v-28.9L122,163.5z"/>
			
				<linearGradient id="Path_96_1_" gradientUnits="userSpaceOnUse" x1="150.3922" y1="449.294" x2="145.2422" y2="446.698" gradientTransform="matrix(25.034 0 0 -28.8999 -3620.9614 13072.3984)">
				<stop  offset="0" style="stop-color:#FDBD4D"/>
				<stop  offset="0.5" style="stop-color:#FF6633"/>
				<stop  offset="1" style="stop-color:#273470"/>
			</linearGradient>
			<path id="Path_96" class="st26" d="M80.3,139.4l-25,14.4V125L80.3,139.4z"/>
			
				<linearGradient id="Path_97_1_" gradientUnits="userSpaceOnUse" x1="150.9757" y1="449.0891" x2="145.8257" y2="446.4941" gradientTransform="matrix(25.043 0 0 -28.9089 -3664.0786 13023.8398)">
				<stop  offset="0" style="stop-color:#FDBD4D"/>
				<stop  offset="0.5" style="stop-color:#FF6633"/>
				<stop  offset="1" style="stop-color:#273470"/>
			</linearGradient>
			<path id="Path_97" class="st27" d="M38.5,101.2l-25-14.5l25-14.4L38.5,101.2z"/>
			
				<linearGradient id="Path_98_1_" gradientUnits="userSpaceOnUse" x1="149.8726" y1="449.0337" x2="144.7236" y2="446.4387" gradientTransform="matrix(25.043 0 0 -28.91 -3677.5742 12952.0625)">
				<stop  offset="0" style="stop-color:#FDBD4D"/>
				<stop  offset="0.5" style="stop-color:#FF6633"/>
				<stop  offset="1" style="stop-color:#273470"/>
			</linearGradient>
			<path id="Path_98" class="st28" d="M25,14.5L0,28.9L0,0L25,14.5z"/>
			
				<linearGradient id="Path_99_1_" gradientUnits="userSpaceOnUse" x1="151.5318" y1="449.8721" x2="146.3818" y2="447.2771" gradientTransform="matrix(25.043 0 0 -28.9189 -3676.0825 13054.2451)">
				<stop  offset="0" style="stop-color:#FDBD4D"/>
				<stop  offset="0.5" style="stop-color:#FF6633"/>
				<stop  offset="1" style="stop-color:#273470"/>
			</linearGradient>
			<path id="Path_99" class="st29" d="M26.5,112.6L1.5,127V98.1L26.5,112.6z"/>
		</g>
		<g id="Group_10" transform="translate(74.932 86.463)">
			<g id="Group_9">
				
					<linearGradient id="Path_100_1_" gradientUnits="userSpaceOnUse" x1="78.2168" y1="450.2276" x2="78.2168" y2="448.3275" gradientTransform="matrix(113.9717 0 0 -106.5962 -8857.502 47985.7227)">
					<stop  offset="0" style="stop-color:#99D633"/>
					<stop  offset="0.5" style="stop-color:#33CC99"/>
					<stop  offset="1" style="stop-color:#273470"/>
				</linearGradient>
				<path id="Path_100" class="st30" d="M113.9,68c-2.3-1.3-4.6-2.3-7.1-3.1c-6.3-2-13-2.5-19.5-1.5c-2.9,0.5-5.7,1.2-8.5,2.2
					c-0.3,0.1-0.6,0.2-0.8,0.3c-1.5,0.6-3,1.2-4.5,2c-1.3,0.6-2.5,1.4-3.8,2.1c-2.9,1.8-5.8,3.7-8.5,5.9
					c-3.2-19.1-1.6-36.8-0.9-45.5c0,0,0.1-0.1,0.1,0c6.7,4.2,4.8,16.1,3.4,19.5c0,0.1,0.1,0.1,0.1,0.1c5.7-6.6,6.7-16,2.6-23.7
					c0-0.1,0.1-0.1,0.1-0.1c1.1,0.9,2.1,2,3,3.1c2.3,2.9,3.6,6.4,3.8,10.1c0.1,1.5,0.1,3,0,4.6c0,0.4,0,0.7-0.1,1c0,0,0,0.1,0.1,0.1
					c0,0,0,0,0.1,0c2.8-5.6,2.8-12.2-0.1-17.8c-1-1.9-2.3-3.7-3.8-5.2c-0.5-0.5-1-1-1.5-1.5c-0.1,0,0-0.1,0.1-0.1
					c0.5,0.1,1,0.3,1.5,0.4c1.4,0.5,2.6,1.2,3.8,2c2.4,1.8,4.3,4.3,5.3,7.2c0.8,2.1,1.2,4.3,1.2,6.6c0,0.1,0.1,0.1,0.1,0
					c1.6-5.8,0.6-10.2-1.4-13.4c-1.3-2.1-3.2-3.9-5.3-5.1c-1.2-0.7-2.5-1.3-3.8-1.7c-0.6-0.2-1.2-0.3-1.8-0.4c-0.1,0-0.1-0.1,0-0.1
					c0.6-0.1,1.2-0.1,1.8-0.1c1.3,0,2.6,0.1,3.8,0.3c1.9,0.3,3.7,1,5.3,2.1c1.5,1,2.7,2.3,3.6,3.8c0,0.1,0.1,0,0.1-0.1
					c-0.2-2.8-1.6-5.4-3.7-7.2c-1.5-1.3-3.4-2.3-5.3-2.8c-1.2-0.3-2.5-0.5-3.8-0.5c-1.6,0-3.3,0.2-4.8,0.8c0,0-0.1,0-0.1-0.1
					c1.2-1.7,2.9-2.9,4.8-3.4c1.2-0.4,2.5-0.5,3.8-0.4c1.1,0,2.1,0.3,3.1,0.7c0,0,0.1,0,0.1,0c0,0,0,0,0-0.1c-0.9-1-2-1.9-3.2-2.6
					C72.3,5.6,71,5.2,69.7,5c-3.7-0.4-7.3,1.4-9.2,4.6c-0.1,0-0.1,0-0.1,0C60,8.8,59.5,7.9,59.1,7c-1-2.2-1.7-4.6-2.1-7
					C57,0,56.9,0,56.9,0c-0.4,2.4-1.1,4.8-2.1,7c-0.4,0.9-0.8,1.7-1.2,2.5c0,0-0.1,0-0.1,0c-4-6.1-11.6-6-16.2-0.7
					c0,0.1,0,0.1,0.1,0.1c3.1-1.5,8.9-1,11.8,3.2c0,0.1,0,0.1-0.1,0.1c-5.3-1.9-11.3-0.4-15.1,3.7c-1.4,1.7-2.3,3.8-2.4,5.9
					c0,0,0.1,0.1,0.1,0.1c0.6-1.1,1.4-2.1,2.4-2.9c2.2-1.9,5.9-3.9,12.2-3.3c0.1,0,0.1,0.1,0,0.1c-3.2,0.4-9.8,3.3-12.2,9.8
					c-1.2,3.5-1.3,7.3-0.1,10.9c0,0.1,0.1,0.1,0.1,0v-0.3c0.1-5.9,3.5-13.9,11.8-15.9c0.1,0,0.1,0.1,0.1,0.1
					C36.5,28.8,37.4,39,40.4,45c0,0,0.1,0,0.1,0c0,0,0,0,0-0.1c-0.4-4.6-0.7-12.6,6.8-18.8c0.1,0,0.2,0,0.1,0.1
					C43.3,33.9,44.3,43.4,50,50c0.1,0.1,0.2,0,0.1-0.1c-1.4-3.4-3.3-15.3,3.5-19.5c0,0,0.1,0,0.1,0c0.7,8.7,2.3,26.4-0.9,45.5
					C47.4,71.8,41.7,68.1,36,66c-0.7-0.2-1.4-0.5-2.1-0.7c-5.1-1.7-10.5-2.5-15.9-2.3c-5.7,0.2-11.3,1.7-16.4,4.2
					c-0.6,0.3-1.2,0.6-1.6,0.8C0,68,0,68.1,0,68.2c0,0.1,0.1,0.1,0.2,0.1c0.5-0.2,1-0.3,1.5-0.4c5.3-1.5,10.9-2.1,16.4-1.6
					c5.5,0.5,10.9,2,15.9,4.3c6.8,3.2,13.2,7.4,18.9,12.3c-8,7-14.8,13.8-18.9,16.2c-0.2,0.1-0.4,0.2-0.6,0.3
					c-1-1.4-2.8-2.1-4.6-1.7c-1.6,0.4-2.9,1.6-3.3,3.3c-0.4,1.3,0,2.8,0.8,3.8c2.2,2.2,4.7,2.3,7.6,1.1c5.5-2.4,12.5-9.7,20.9-17.4
					c0.7-0.7,1.4-1.3,2.2-2c0.7,0.6,1.5,1.3,2.1,1.9c3.8,3.5,7.4,7,10.6,9.9c1.3,1.2,2.6,2.3,3.8,3.3c1.6,1.4,3.4,2.6,5.3,3.7
					c3.3,1.7,6,1.9,8.5-0.2c0.1-0.1,0.3-0.2,0.4-0.3c0.8-1.1,1.1-2.5,0.8-3.8c-0.2-0.8-0.6-1.6-1.2-2.2c-0.6-0.6-1.3-0.9-2.1-1.1
					c-1.7-0.4-3.5,0.3-4.6,1.7c-0.6-0.3-1.2-0.7-1.8-1.1c-1.9-1.3-3.6-2.8-5.3-4.3c-1.2-1-2.4-2.2-3.8-3.4c-2.6-2.4-5.5-5-8.5-7.7
					c2.7-2.3,5.6-4.4,8.5-6.4c1.3-0.9,2.5-1.7,3.8-2.4c1.7-1,3.5-2,5.3-2.9c2.7-1.3,5.6-2.4,8.5-3.2c6.3-1.8,13-2.3,19.5-1.2
					c2.3,0.4,4.7,0.9,6.9,1.6C114,68.3,114.1,68.1,113.9,68"/>
			</g>
		</g>
	</g>
	<g id="Group_13" transform="translate(874.152 1910.912)">
		<path id="Path_101" class="st31" d="M66.3,19.9v47.3L31.7,3.5L0,21.8v82.5h28.4v-64l34.6,64h31.7V3.5L66.3,19.9z"/>
		<path id="Path_102" class="st31" d="M432.6,21.1v83.1h30.5V3.5L432.6,21.1z"/>
		<path id="Path_103" class="st31" d="M387.4,3.5h-44.5l-31.5,100.8h32l5.7-19.7l28-16.2h-23.8l11.8-39.1l12,39.1l9.8,35.9h32
			L387.4,3.5z"/>
		<path id="Path_104" class="st31" d="M253.1,3.5h-41.6v100.8h41.6c34.6,0,57.7-20.1,57.7-50.4S287.7,3.5,253.1,3.5 M253,81.5h-12.1
			V26.3H253c16.2,0,27.2,10.8,27.2,27.6S269.2,81.5,253,81.5"/>
		<path id="Path_105" class="st31" d="M159.2,40.7c-11.1-1.3-19.6-2.4-19.6-9.6c0-5.3,5.9-9.3,14.5-9.3c10,0,17.4,5.6,17.3,13.3
			L194.1,22c-6.1-13.3-21.4-22-41-22C127.9,0,110,13.8,110,34.5c0,23.8,19.4,29,40.3,31.4c10.7,1.4,19.6,2.5,19.6,9.9
			c0,6-5.9,10.3-14.8,10.3c-11,0-19-6.3-19.1-14.9v0h-26.5c0,4.7,1,9.4,2.9,13.7c6.2,13.9,21.8,23,41.8,23c26.6,0,45.3-14.6,45.3-36
			C199.4,48,179.3,42.8,159.2,40.7"/>
		<path id="Path_106" class="st31" d="M358.3,192.4h-3.8v4.7l3.8-2.2V192.4z"/>
		<path id="Path_107" class="st31" d="M352.5,192.4h-3.8v4.7l3.8-2.2V192.4z"/>
		<path id="Path_108" class="st31" d="M19.4,230.6h-3.8v4.7l3.8-2.2V230.6z"/>
		<path id="Path_109" class="st31" d="M13.6,230.6H9.8v4.7l3.8-2.2V230.6z"/>
		<path id="Path_110" class="st31" d="M423.1,221.3h-3.8v4.7l3.8-2.2V221.3z"/>
		<path id="Path_111" class="st31" d="M417.3,221.3h-3.8v4.7l3.8-2.2V221.3z"/>
		<path id="Path_112" class="st31" d="M395.6,189.8h-3.8v4.7l3.8-2.2V189.8z"/>
		<path id="Path_113" class="st31" d="M267.1,189.8h-3.8v4.7l3.8-2.2V189.8z"/>
		<path id="Path_114" class="st31" d="M75.8,189.8H72v4.7l3.8-2.2V189.8z"/>
		<path id="Path_115" class="st31" d="M434.2,221.2h-3.8v4.7l3.8-2.2V221.2z"/>
		<path id="Path_116" class="st31" d="M40.6,211.7c-1-1-1.5-2.3-1.4-3.7c-0.1-1.5,0.5-2.9,1.7-3.8c1.3-1,2.9-1.5,4.5-1.4
			c0.8,0,1.6,0.1,2.4,0.2c0.6,0.1,1.2,0.3,1.8,0.5v-4c-0.5-0.2-1.1-0.3-1.7-0.4c-0.9-0.1-1.8-0.2-2.7-0.2c-1.2,0-2.3,0.2-3.5,0.5
			c-1.1,0.4-2.2,0.9-3.1,1.7c-1,0.8-1.7,1.7-2.3,2.8c-0.6,1.3-0.9,2.6-0.9,4c0,1,0.2,2.1,0.5,3c0.3,0.8,0.8,1.6,1.3,2.2h-10
			c-3.7-0.1-7.3-0.8-10.8-2.1v3.6c0.9,0.3,1.9,0.6,3.1,0.9s2.3,0.7,3.3,1.1c0.9,0.3,1.8,0.8,2.6,1.4c0.6,0.4,1,1.1,1,1.8
			c0,0.7-0.3,1.3-0.9,1.6c-0.7,0.5-1.6,0.9-2.4,1.2c-1.2,0.3-2.4,0.6-3.6,0.7c-1.4,0.2-2.9,0.2-4.3,0.2c-4.1,0-7.1-0.6-8.9-1.8
			c-1.9-1.3-2.9-3.5-2.7-5.8v-6.2H0v6.9c0,1.4,0.2,2.9,0.7,4.2c0.5,1.3,1.3,2.5,2.4,3.4c1.4,1.1,3,1.8,4.7,2.3
			c2.4,0.6,4.9,0.9,7.5,0.8c2.3,0,4.6-0.2,6.9-0.6c1.6-0.3,3.1-0.8,4.5-1.6c1-0.5,1.9-1.3,2.5-2.3c0.5-0.8,0.8-1.7,0.8-2.6
			c0-0.6-0.1-1.3-0.4-1.9c-0.2-0.5-0.5-1.1-0.8-1.5h22.8v-3.7h-6.5C43.3,213.3,41.8,212.8,40.6,211.7"/>
		<path id="Path_117" class="st31" d="M143.4,199.1c-2,0-3.9,0.4-5.7,1.3c-1.7,0.8-3.3,2-4.7,3.3c-1.4,1.4-2.6,2.9-3.6,4.5
			c-0.9,1.6-1.7,3.2-2.3,5c-0.6,0-1.2-0.1-1.7-0.4c-0.4-0.2-0.7-0.6-1-1c-0.2-0.5-0.4-1-0.4-1.5c-0.1-0.6-0.1-1.3-0.1-2v-6.4h-3.7v8
			c0,0.6-0.1,1.2-0.3,1.8c-0.2,0.4-0.5,0.8-0.9,1c-0.5,0.3-1.1,0.4-1.6,0.4c-0.7,0.1-7.5,0.1-7.5,0.1v-3.8c0-3.2-0.8-5.7-2.4-7.5
			c-1.7-1.9-4.2-2.9-6.8-2.7c-2.5-0.1-5,0.7-7.1,2c-2.2,1.5-4,3.5-5.3,5.7v-21.9h-3.7v28.2h-5.1c-0.7,0-1.3-0.1-1.9-0.4
			c-0.5-0.2-0.9-0.6-1.2-1c-0.3-0.5-0.5-1-0.6-1.5c-0.1-0.7-0.2-1.4-0.2-2v-8.6h-3.7v10.2c0,0.6-0.1,1.2-0.2,1.8
			c-0.1,0.4-0.4,0.7-0.8,1c-0.4,0.2-0.8,0.4-1.3,0.4c-0.6,0.1-1.2,0.1-1.8,0.1h-3.7c-1.3,0-2.2-0.3-2.6-0.8
			c-0.5-0.8-0.7-1.7-0.6-2.7v-24.8h-3.7v25.8c0,1,0.1,2,0.5,3c0.3,0.7,0.7,1.4,1.3,1.9c0.6,0.5,1.3,0.8,2,1c0.9,0.2,1.7,0.3,2.6,0.3
			h4.8c1.4,0,2.9-0.1,4.2-0.5c1.2-0.4,2.1-1.2,2.5-2.4c0.2,0.8,0.7,1.6,1.4,2.1c0.8,0.6,1.8,0.9,2.8,0.8h35.3c1.3,0,2.5,0,3.4-0.1
			c0.8-0.1,1.7-0.2,2.5-0.4c0.6-0.2,1.2-0.5,1.7-0.9c0.5-0.4,0.8-0.9,1.1-1.5c0.2,0.4,0.4,0.7,0.6,1.1c0.2,0.4,0.5,0.7,0.9,0.9
			c0.4,0.3,0.9,0.5,1.5,0.6c0.7,0.2,1.5,0.3,2.3,0.2h24.2v-7.5c0-3.3-0.8-5.8-2.5-7.6C148.5,199.9,146,198.9,143.4,199.1
			 M106.2,213.2h-18c0.5-1.2,1.1-2.4,1.8-3.6c0.7-1.2,1.6-2.3,2.6-3.3c1-1,2.1-1.8,3.3-2.5c1.2-0.7,2.6-1,4-1c1,0,2.1,0.2,3,0.6
			c0.8,0.4,1.5,0.9,2,1.6c0.5,0.7,0.9,1.5,1.1,2.3c0.2,0.9,0.3,1.9,0.3,2.9L106.2,213.2z M149.2,213.2h-18.3
			c0.5-1.3,1.1-2.5,1.8-3.7c0.7-1.2,1.6-2.3,2.7-3.3c1-1,2.2-1.8,3.4-2.4c1.2-0.6,2.6-0.9,4-0.9c1,0,2,0.2,3,0.5
			c0.8,0.3,1.5,0.9,2,1.5c0.5,0.7,0.9,1.5,1.1,2.3c0.2,1,0.3,2,0.3,3L149.2,213.2z"/>
		<path id="Path_118" class="st31" d="M179,213.2h-8v-21.7h-3.7v21.7h-10.1v3.7h25.4v-31.9H179V213.2z"/>
		<rect id="Rectangle_9" x="189" y="184.9" class="st31" width="3.7" height="31.9"/>
		<path id="Path_119" class="st31" d="M215.4,212.5c-0.7-0.8-1.1-1.8-1-2.9c0-0.4,0.1-0.9,0.2-1.3c0.1-0.4,0.4-0.8,0.7-1.2
			c0.3-0.4,0.7-0.6,1.2-0.8c0.5-0.2,1.1-0.3,1.7-0.3c1.1,0,2.2,0.2,3.2,0.6v-3.5c-0.4-0.1-0.9-0.2-1.3-0.2c-0.7-0.1-1.5-0.1-2.2-0.1
			c-0.8,0-1.7,0.1-2.4,0.4c-0.8,0.3-1.5,0.7-2.1,1.3c-0.6,0.6-1.1,1.3-1.5,2.1c-0.4,0.9-0.6,2-0.6,3c0,1.5,0.5,3,1.5,4.2h-3.3v3.2
			h13.5v-3.2h-4.2C217.4,213.8,216.2,213.3,215.4,212.5"/>
		<path id="Path_120" class="st31" d="M237.8,195.9c-0.2,0.3-0.4,0.5-0.6,0.8c-0.2,0.3-0.4,0.7-0.5,1c-0.1,0.4-0.2,0.7-0.3,1.1
			c1.7,0.8,3.3,1.7,4.8,2.7c1.4,0.9,2.8,1.9,4.1,3c1.1,0.9,2.1,1.9,2.9,3c0.6,0.8,1,1.7,1.1,2.7c0.1,0.9-0.3,1.8-1.1,2.2
			c-0.9,0.4-1.8,0.6-2.8,0.6h-11.4c-1.3,0-2.2-0.3-2.6-0.8c-0.5-0.8-0.7-1.7-0.6-2.7v-24.8h-3.7v25.8c0,1,0.1,2,0.5,3
			c0.3,0.7,0.7,1.4,1.3,1.9c0.6,0.5,1.3,0.8,2,1c0.9,0.2,1.7,0.3,2.6,0.3h11.8c1.3,0,2.6-0.2,3.8-0.6c0.9-0.3,1.7-0.9,2.3-1.6
			c0.5-0.6,0.9-1.3,1.1-2.1c0.2-0.7,0.3-1.4,0.3-2.1c0-1-0.2-1.9-0.6-2.8c-0.5-1.1-1.2-2.2-2-3.1c-1.1-1.2-2.3-2.4-3.6-3.4
			c-1.7-1.3-3.5-2.5-5.3-3.6l13.2-5.8v-3.6l-16.4,7.2C238.1,195.6,237.9,195.8,237.8,195.9"/>
		<path id="Path_121" class="st31" d="M284.3,213.2h-7c-0.4,0-0.8-0.1-1.2-0.3c-0.4-0.3-0.8-0.6-1.2-1c-0.5-0.5-0.9-1.1-1.3-1.7
			c-0.4-0.7-1-1.6-1.6-2.5l-5.4-8.9l-3.4,2.1l4.7,7c0.4,0.6,0.8,1.2,1.1,1.8c0.3,0.5,0.4,1.1,0.4,1.7c0,0.6-0.4,1.2-1,1.4
			c-0.9,0.4-1.9,0.5-2.9,0.5h-8v3.7h6.8c0.7,0,1.4,0,2.1-0.1c0.7-0.1,1.4-0.2,2-0.4c0.6-0.2,1.2-0.6,1.7-1.1c0.6-0.5,1-1.2,1.3-1.9
			c0.6,1.1,1.5,2,2.5,2.7c0.9,0.5,2,0.8,3.1,0.8H288v-31.9h-3.7L284.3,213.2z"/>
		<rect id="Rectangle_10" x="294.3" y="184.9" class="st31" width="3.7" height="31.9"/>
		<path id="Path_122" class="st31" d="M318.2,202.7c-0.6-1-1.6-1.9-2.6-2.4c-1.2-0.6-2.6-0.9-4-0.9c-1.3,0-2.6,0.3-3.8,0.8
			c-1.1,0.5-2,1.2-2.8,2.1c-0.8,0.9-1.3,1.9-1.7,3.1c-0.4,1.1-0.6,2.3-0.6,3.5c0,1.3,0.2,2.6,0.7,3.8c0.4,0.9,1,1.8,1.7,2.4
			c0.8,0.6,1.6,1.1,2.6,1.3c1.1,0.3,2.1,0.4,3.2,0.4c1.1,0,2.2-0.1,3.2-0.4c0.7-0.2,1.4-0.5,2.1-0.9v0.8c0.1,1.1-0.2,2.3-0.7,3.3
			c-0.5,0.8-1.2,1.4-2,1.8c-1,0.4-2,0.7-3,0.8c-1.2,0.1-2.5,0.2-3.9,0.2h-1.4v3.7h1.9c1.8,0,3.6-0.1,5.4-0.4
			c1.5-0.2,2.9-0.8,4.1-1.7c1.1-0.9,2-2,2.6-3.4c0.7-1.8,1-3.6,0.9-5.5v-4.2c0-1.6-0.1-3.1-0.4-4.7
			C319.4,205.1,318.9,203.8,318.2,202.7 M316.3,211.9c-0.6,0.4-1.3,0.8-2,1c-1,0.3-2,0.5-3,0.4c-1.3,0.1-2.6-0.3-3.6-1.1
			c-1-0.9-1.5-2.3-1.4-3.6c0-0.7,0.1-1.3,0.3-1.9c0.2-0.6,0.5-1.3,0.9-1.8c0.4-0.6,1-1,1.6-1.3c0.7-0.4,1.5-0.6,2.4-0.5
			c1.6-0.1,3,0.7,3.8,2.1c0.4,0.7,0.7,1.5,0.8,2.3c0.2,0.9,0.3,1.9,0.2,2.9L316.3,211.9z"/>
		<path id="Path_123" class="st31" d="M367.7,213.2h-21.6c-1.4,0-2.6,0-3.5-0.1c-0.8,0-1.5-0.2-2.2-0.6c-0.5-0.3-0.9-0.7-1.1-1.3
			c-0.2-0.7-0.4-1.5-0.3-2.2v-5.6h-3.7v6.9c0,1,0.1,2,0.5,3c0.3,0.8,0.8,1.5,1.5,2c0.8,0.6,1.8,1,2.8,1.1c1.4,0.3,2.9,0.4,4.3,0.4
			h27.1v-17.2h-3.7L367.7,213.2z"/>
		<path id="Path_124" class="st31" d="M392,213.2h-7.6c-1.3,0-2.2-0.3-2.6-0.8c-0.5-0.8-0.7-1.7-0.6-2.7v-24.8h-3.7v25.8
			c0,1,0.1,2,0.5,3c0.5,1.5,1.8,2.6,3.3,2.9c0.9,0.2,1.7,0.3,2.6,0.3h11.7v-17.2H392V213.2z"/>
		<path id="Path_125" class="st31" d="M460.3,184.9v28.2h-7c-1.1,0.1-2.2-0.4-2.9-1.3c-0.7-1.1-1-2.3-0.9-3.6v-23.3h-3.7v25
			c0,0.6-0.1,1.2-0.2,1.8c-0.1,0.4-0.4,0.7-0.7,1c-0.3,0.2-0.7,0.4-1,0.4c-0.5,0.1-1,0.1-1.4,0.1h-3.6c-0.7,0-1.3-0.1-1.9-0.4
			c-0.5-0.2-0.9-0.6-1.2-1c-0.3-0.5-0.5-1-0.6-1.5c-0.1-0.7-0.2-1.4-0.2-2v-8.6h-3.7v10.2c0,0.6-0.1,1.2-0.2,1.8
			c-0.1,0.4-0.4,0.7-0.8,1c-0.4,0.2-0.8,0.4-1.3,0.4c-0.6,0.1-1.2,0.1-1.8,0.1h-3c-0.7,0-1.3-0.1-1.9-0.4c-0.5-0.2-0.9-0.6-1.2-1
			c-0.3-0.5-0.5-1-0.6-1.5c-0.1-0.7-0.2-1.4-0.2-2v-8.6h-3.7v10.2c0,0.6-0.1,1.2-0.2,1.8c-0.1,0.4-0.4,0.7-0.8,1
			c-0.4,0.2-0.8,0.4-1.3,0.4c-0.6,0.1-1.2,0.1-1.8,0.1h-3.7c-1.3,0-2.2-0.3-2.6-0.8c-0.5-0.8-0.7-1.7-0.6-2.7v-24.8h-3.7v25.8
			c0,1,0.1,2,0.5,3c0.3,0.7,0.7,1.4,1.3,1.9c0.6,0.5,1.3,0.8,2,1c0.9,0.2,1.7,0.3,2.6,0.3h4.8c1.4,0,2.9-0.1,4.2-0.5
			c1.2-0.4,2.1-1.2,2.5-2.4c0.2,0.8,0.7,1.6,1.4,2.1c0.8,0.6,1.8,0.9,2.8,0.8h3.7c1.4,0,2.9-0.1,4.2-0.5c1.2-0.4,2.1-1.2,2.5-2.4
			c0.2,0.8,0.7,1.6,1.4,2.1c0.8,0.6,1.8,0.9,2.8,0.8h3.2c1.5,0,3.1-0.1,4.5-0.5c1.2-0.4,2.1-1.2,2.6-2.4c0.2,0.8,0.7,1.6,1.4,2.1
			c0.8,0.6,1.8,0.9,2.8,0.8H464v-31.9H460.3z"/>
		<path id="Path_126" class="st31" d="M267.3,135.6h-3.8v4.7l3.8-2.2V135.6z"/>
		<path id="Path_127" class="st31" d="M261.5,135.6h-3.8v4.7l3.8-2.2V135.6z"/>
		<path id="Path_128" class="st31" d="M229.2,135.6h-3.8v4.7l3.8-2.2V135.6z"/>
		<path id="Path_129" class="st31" d="M223.3,135.6h-3.8v4.7l3.8-2.2V135.6z"/>
		<path id="Path_130" class="st31" d="M215,167.1h-3.8v4.7l3.8-2.2V167.1z"/>
		<path id="Path_131" class="st31" d="M209.2,167.1h-3.8v4.7l3.8-2.2V167.1z"/>
		<path id="Path_132" class="st31" d="M175.7,167.1h-3.8v4.7l3.8-2.2V167.1z"/>
		<path id="Path_133" class="st31" d="M169.9,167.1h-3.8v4.7l3.8-2.2V167.1z"/>
		<path id="Path_134" class="st31" d="M156.1,132.2h-3.8v4.7l3.8-2.2V132.2z"/>
		<path id="Path_135" class="st31" d="M150.3,132.2h-3.8v4.7l3.8-2.2V132.2z"/>
		<path id="Path_136" class="st31" d="M34.2,167.1h-3.8v4.7l3.8-2.2V167.1z"/>
		<path id="Path_137" class="st31" d="M28.4,167.1h-3.8v4.7l3.8-2.2V167.1z"/>
		<path id="Path_138" class="st31" d="M14.7,132.2h-3.8v4.7l3.8-2.2V132.2z"/>
		<path id="Path_139" class="st31" d="M8.8,132.2H5v4.7l3.8-2.2V132.2z"/>
		<path id="Path_140" class="st31" d="M190.4,167.1h-3.8v4.7l3.8-2.2V167.1z"/>
		<path id="Path_141" class="st31" d="M46.3,135.6h-3.8v4.7l3.8-2.2V135.6z"/>
		<path id="Path_142" class="st31" d="M3.1,157.6c0.8,0.5,1.7,0.9,2.7,1.1c0.8,0.2,1.6,0.3,2.5,0.3c0.8,0,1.6-0.1,2.4-0.2
			c0.8-0.1,1.5-0.3,2.2-0.6c0.1,0.8,0.3,1.5,0.8,2.2c0.4,0.6,0.8,1,1.4,1.4c0.6,0.4,1.2,0.6,1.9,0.7c0.7,0.1,1.5,0.2,2.2,0.2h5.2
			c1.4,0,2.9-0.1,4.2-0.5c1.2-0.4,2.1-1.2,2.5-2.4c0.2,0.8,0.7,1.6,1.4,2.1c0.8,0.6,1.8,0.9,2.8,0.8H39c1.4,0,2.9-0.1,4.2-0.5
			c1.2-0.4,2.1-1.2,2.5-2.4c0.2,0.8,0.7,1.6,1.4,2.1c0.8,0.6,1.8,0.9,2.8,0.8h30.4v-7.5c0-3.2-0.8-5.7-2.4-7.5
			c-1.7-1.9-4.2-2.9-6.8-2.7c-2.5-0.1-5,0.7-7.1,2c-2.2,1.5-4,3.5-5.3,5.8v-21.9H55V159H50c-0.7,0-1.3-0.1-1.9-0.4
			c-0.5-0.2-0.9-0.6-1.2-1c-0.3-0.5-0.5-1-0.6-1.5c-0.1-0.7-0.2-1.4-0.2-2v-8.6h-3.7v10.2c0,0.6-0.1,1.2-0.2,1.8
			c-0.1,0.4-0.4,0.7-0.8,1c-0.4,0.2-0.8,0.4-1.3,0.4c-0.6,0.1-1.2,0.1-1.8,0.1h-3c-0.7,0-1.3-0.1-1.9-0.4c-0.5-0.2-0.9-0.6-1.2-1
			c-0.3-0.5-0.5-1-0.6-1.5c-0.1-0.7-0.2-1.4-0.2-2v-8.6h-3.7v10.2c0,0.6-0.1,1.2-0.2,1.8c-0.1,0.4-0.4,0.7-0.8,1
			c-0.4,0.2-0.8,0.4-1.3,0.4c-0.6,0.1-1.2,0.1-1.8,0.1l-4.1,0c-1.3,0-2.2-0.3-2.6-0.8c-0.5-0.8-0.7-1.7-0.6-2.6v-12.8H9.3
			c-1.1,0-2.2,0.2-3.2,0.4c-1.1,0.3-2.1,0.8-3,1.5c-0.9,0.7-1.7,1.6-2.2,2.6c-0.6,1.3-0.9,2.6-0.9,4c-0.1,1.4,0.3,2.7,0.9,3.9
			C1.4,156.2,2.2,157,3.1,157.6 M60.5,155.4c0.7-1.2,1.6-2.3,2.6-3.3c1-1,2.1-1.8,3.3-2.5c1.2-0.7,2.6-1,4-1c1,0,2.1,0.2,3,0.6
			c0.8,0.4,1.5,0.9,2,1.6c0.5,0.7,0.9,1.5,1.1,2.3c0.2,0.9,0.3,1.9,0.3,2.9v3h-18C59.2,157.8,59.8,156.6,60.5,155.4 M5.1,147.6
			c1.1-0.7,2.4-1.1,3.7-1.1h3.9v7.9c-0.7,0.3-1.3,0.4-2,0.6c-0.7,0.1-1.4,0.2-2.1,0.2c-1.4,0.1-2.7-0.3-3.8-1.2
			c-0.8-0.8-1.2-1.9-1.2-3C3.5,149.7,4,148.4,5.1,147.6"/>
		<path id="Path_143" class="st31" d="M87.2,161c0.8,0.6,1.7,1.1,2.7,1.3c1.1,0.3,2.2,0.4,3.4,0.4h5.1c0,1-0.3,2-0.8,2.9
			c-0.5,0.8-1.2,1.3-2,1.7c-1,0.4-2,0.7-3,0.8c-1.3,0.1-2.6,0.2-3.8,0.2h-1.4v3.7h1.9c1.7,0,3.4-0.1,5.1-0.4c1.4-0.2,2.7-0.8,4-1.5
			c1.1-0.7,2-1.7,2.6-2.9c0.7-1.4,1.1-2.9,1.1-4.5h13.9v-31.9h-3.7V159h-10.1v-2.1c0-1.6-0.1-3.2-0.4-4.8c-0.2-1.3-0.7-2.5-1.5-3.7
			c-0.7-1-1.6-1.8-2.6-2.3c-1.2-0.6-2.6-0.9-3.9-0.8c-1.3,0-2.6,0.3-3.7,0.8c-1.1,0.5-2,1.3-2.8,2.2c-0.8,0.9-1.4,2-1.7,3.1
			c-0.4,1.1-0.6,2.4-0.6,3.6c0,1.3,0.2,2.5,0.6,3.7C85.8,159.5,86.4,160.4,87.2,161 M88.7,152.5c0.2-0.7,0.5-1.3,0.9-1.9
			c0.4-0.6,0.9-1,1.5-1.3c0.7-0.4,1.5-0.5,2.2-0.5c1.6-0.1,3.1,0.6,3.8,2c0.8,1.6,1.2,3.5,1.1,5.3v2.9h-4.8
			c-1.4,0.1-2.7-0.3-3.9-1.1c-0.9-0.9-1.4-2.1-1.3-3.4C88.4,153.9,88.5,153.2,88.7,152.5"/>
		<rect id="Rectangle_11" x="122.1" y="130.8" class="st31" width="3.7" height="31.9"/>
		<path id="Path_144" class="st31" d="M223,159h-7c-0.7,0-1.3-0.1-1.9-0.4c-0.5-0.2-0.9-0.6-1.2-1c-0.3-0.5-0.5-1-0.6-1.5
			c-0.1-0.7-0.2-1.4-0.2-2v-8.6h-3.7v10.2c0,0.6-0.1,1.2-0.2,1.8c-0.1,0.4-0.4,0.7-0.8,1c-0.4,0.2-0.8,0.4-1.3,0.4
			c-0.6,0.1-1.2,0.1-1.8,0.1h-5.8c0-1.8-0.3-3.7-0.8-5.4c-0.5-1.6-1.3-3.2-2.4-4.5c-1.1-1.3-2.5-2.4-4-3.1c-1.8-0.8-3.8-1.2-5.8-1.1
			c-1.1,0-2.2,0.1-3.2,0.3c-1,0.2-1.8,0.4-2.4,0.6v3.5c0.8-0.2,1.6-0.4,2.4-0.5c0.9-0.2,1.8-0.2,2.8-0.2c1.3,0,2.5,0.2,3.7,0.6
			c1.1,0.4,2.2,1,3,1.8c0.9,0.9,1.6,2,2.1,3.2c0.5,1.6,0.8,3.2,0.8,4.8h-17.9c-0.7,0-1.3-0.1-1.9-0.4c-0.5-0.2-0.9-0.6-1.2-1
			c-0.3-0.5-0.5-1-0.6-1.5c-0.1-0.7-0.2-1.4-0.2-2v-8.6h-3.7v10.2c0,0.6-0.1,1.2-0.2,1.8c-0.1,0.4-0.4,0.7-0.8,1
			c-0.4,0.2-0.8,0.4-1.3,0.4c-0.6,0.1-1.2,0.1-1.8,0.1l-4.1,0c-1.3,0-2.2-0.3-2.6-0.8c-0.5-0.8-0.7-1.7-0.6-2.6v-12.8h-7.1
			c-1.1,0-2.2,0.2-3.2,0.4c-1.1,0.3-2.1,0.8-3,1.5c-0.9,0.7-1.7,1.6-2.2,2.6c-0.6,1.3-0.9,2.6-0.8,4c-0.1,1.4,0.3,2.7,0.9,3.9
			c0.5,0.9,1.3,1.7,2.2,2.3c0.8,0.5,1.7,0.9,2.7,1.1c0.8,0.2,1.6,0.3,2.5,0.3c0.8,0,1.6-0.1,2.4-0.2c0.8-0.1,1.5-0.3,2.2-0.6
			c0.1,0.8,0.3,1.5,0.8,2.2c0.4,0.6,0.8,1,1.4,1.4c0.6,0.4,1.2,0.6,1.9,0.7c0.7,0.1,1.5,0.2,2.2,0.2h5.2c1.4,0,2.9-0.2,4.2-0.5
			c1.2-0.4,2.1-1.2,2.5-2.4c0.2,0.8,0.7,1.6,1.4,2.1c0.8,0.6,1.8,0.9,2.8,0.8h28.3c1.4,0,2.9-0.2,4.2-0.5c1.2-0.4,2.1-1.2,2.5-2.4
			c0.2,0.8,0.7,1.6,1.4,2.1c0.8,0.6,1.8,0.9,2.8,0.8h10.7v-17.2H223L223,159z M154.2,154.4c-0.7,0.3-1.3,0.4-2,0.6
			c-0.7,0.1-1.4,0.2-2.1,0.2c-1.4,0.1-2.7-0.3-3.8-1.2c-0.8-0.8-1.2-1.9-1.2-3c-0.1-1.3,0.5-2.6,1.5-3.5c1.1-0.7,2.4-1.1,3.7-1.1
			h3.9L154.2,154.4z"/>
		<rect id="Rectangle_12" x="233" y="130.8" class="st31" width="3.7" height="31.9"/>
		<path id="Path_145" class="st31" d="M298.7,159h-3.8c-0.7,0-1.3-0.1-1.9-0.4c-0.5-0.2-0.9-0.6-1.2-1c-0.3-0.5-0.5-1-0.6-1.5
			c-0.1-0.7-0.2-1.4-0.2-2v-6.4h-3.7v8c0,0.6-0.1,1.2-0.2,1.8c-0.1,0.4-0.4,0.7-0.7,1c-0.4,0.2-0.8,0.4-1.2,0.4
			c-0.6,0.1-1.1,0.1-1.7,0.1c-0.8,0-1.7-0.1-2.5-0.4c-0.5-0.2-1-0.5-1.4-1c-0.3-0.4-0.6-1-0.6-1.5c-0.1-0.7-0.1-1.4-0.1-2v-6.4h-3.7
			v8.1c0,0.6-0.1,1.2-0.3,1.8c-0.2,0.4-0.5,0.8-0.9,1c-0.5,0.3-1.1,0.4-1.6,0.4c-0.7,0.1-4.1,0.1-4.1,0.1c-0.7,0-1.3-0.1-1.9-0.4
			c-0.5-0.2-0.9-0.6-1.2-1c-0.3-0.5-0.5-1-0.6-1.5c-0.1-0.7-0.2-1.4-0.2-2v-8.6h-3.7v10.2c0,0.6-0.1,1.2-0.2,1.8
			c-0.1,0.4-0.4,0.7-0.8,1c-0.4,0.2-0.8,0.4-1.3,0.4c-0.5,0.1-4.8,0.1-4.8,0.1c-1.2,0.1-2.4-0.4-3.1-1.3c-0.6-1.1-0.9-2.3-0.8-3.6
			v-6.4h-3.6v12c0,1.5,0,2.9-0.1,4c0,0.9-0.3,1.9-0.7,2.7c-0.4,0.7-1.1,1.2-1.8,1.5c-1.1,0.4-2.3,0.5-3.4,0.5v3.7
			c1.6,0,3.3-0.2,4.9-0.6c1.2-0.3,2.2-1,2.9-2c0.8-1.1,1.3-2.3,1.5-3.6c0.3-1.8,0.4-3.6,0.4-5.4c0.4,0.6,0.9,1.2,1.5,1.6
			c0.7,0.5,1.6,0.7,2.5,0.7h3.7c1.4,0,2.9-0.2,4.2-0.5c1.2-0.4,2.1-1.2,2.5-2.4c0.2,0.8,0.7,1.6,1.4,2.1c0.8,0.6,1.8,0.9,2.8,0.8
			c0,0,3.9,0,4.9-0.1c0.8,0,1.6-0.2,2.4-0.4c0.6-0.2,1.1-0.5,1.6-0.9c0.4-0.4,0.8-0.9,1-1.5c0.2,0.4,0.4,0.7,0.6,1.1
			c0.3,0.4,0.6,0.7,1,1c0.5,0.3,1.1,0.5,1.7,0.7c0.8,0.2,1.7,0.3,2.5,0.2c1.4,0,2.8-0.2,4.1-0.5c1.1-0.4,2.1-1.2,2.5-2.4
			c0.2,0.8,0.7,1.6,1.4,2.1c0.8,0.6,1.8,0.9,2.8,0.8h7.4v-17.2h-3.7L298.7,159z"/>
		<path id="Path_146" class="st31" d="M329,159h-8v-21.7h-3.7V159h-10.1v3.7h25.4v-31.9H329L329,159z"/>
		<rect id="Rectangle_13" x="338.9" y="130.8" class="st31" width="3.7" height="31.9"/>
		<path id="Path_147" class="st31" d="M2.4,239H7l16.8,25.9h0.1V239h4v31.9h-4.7L6.5,245.3H6.5v25.6h-4L2.4,239z"/>
		<path id="Path_148" class="st31" d="M54.6,270.8c-0.8,0.5-1.8,0.7-2.7,0.6c-0.9,0-1.7-0.3-2.4-0.9c-0.6-0.8-1-1.7-0.9-2.7
			c-1,1.2-2.2,2.1-3.6,2.7c-1.4,0.6-3,0.9-4.5,0.9c-1,0-2-0.1-3-0.4c-0.9-0.2-1.7-0.6-2.4-1.1c-0.7-0.5-1.3-1.2-1.6-2
			c-0.4-0.9-0.6-1.9-0.6-3c0-1.1,0.2-2.2,0.7-3.2c0.4-0.8,1-1.5,1.8-2c0.8-0.5,1.6-0.9,2.5-1.2c0.9-0.3,1.9-0.5,2.9-0.7
			c1-0.2,2-0.4,3-0.5c0.8-0.1,1.7-0.2,2.5-0.4c0.6-0.1,1.2-0.4,1.7-0.8c0.4-0.4,0.7-1,0.6-1.6c0-0.7-0.1-1.4-0.5-2
			c-0.3-0.5-0.7-0.9-1.2-1.2c-0.5-0.3-1.1-0.5-1.7-0.5c-0.6-0.1-1.2-0.1-1.8-0.1c-1.4,0-2.8,0.3-4,0.9c-1.2,0.8-1.8,2.1-1.7,3.5
			h-3.8c0-1.3,0.3-2.5,0.9-3.6c0.5-1,1.2-1.8,2.1-2.4c0.9-0.6,2-1.1,3.1-1.3c1.2-0.3,2.4-0.4,3.7-0.4c1,0,2.1,0.1,3.1,0.2
			c1,0.1,1.9,0.4,2.8,0.9c0.8,0.5,1.5,1.1,2,1.9c0.5,1,0.8,2.1,0.8,3.3v11.9c0,0.7,0,1.3,0.2,2c0.1,0.4,0.5,0.6,1.1,0.6
			c0.4,0,0.8-0.1,1.2-0.2L54.6,270.8z M48.5,259c-0.4,0.3-0.9,0.5-1.3,0.6c-0.6,0.2-1.1,0.3-1.7,0.4c-0.6,0.1-1.2,0.2-1.9,0.3
			c-0.7,0.1-1.3,0.2-1.9,0.3c-0.6,0.1-1.2,0.3-1.8,0.4c-0.5,0.2-1,0.4-1.5,0.7c-0.4,0.3-0.8,0.7-1,1.2c-0.3,0.6-0.4,1.2-0.4,1.8
			c0,0.6,0.1,1.1,0.4,1.6c0.2,0.4,0.6,0.8,1,1c0.4,0.3,0.9,0.5,1.4,0.6c0.6,0.1,1.1,0.2,1.7,0.2c1.1,0,2.2-0.1,3.2-0.5
			c0.8-0.3,1.6-0.7,2.2-1.3c0.5-0.5,1-1.1,1.3-1.7c0.3-0.5,0.4-1.1,0.4-1.7L48.5,259z"/>
		<path id="Path_149" class="st31" d="M63.5,247.8h4.6v3.4h-4.6v14.4c0,0.4,0,0.7,0.1,1.1c0.1,0.3,0.2,0.5,0.4,0.6
			c0.3,0.2,0.6,0.3,0.9,0.3c0.5,0.1,1,0.1,1.5,0.1h1.7v3.4h-2.9c-0.8,0-1.7-0.1-2.5-0.2c-0.6-0.1-1.2-0.4-1.7-0.7
			c-0.5-0.4-0.8-0.9-1-1.5c-0.2-0.8-0.3-1.7-0.3-2.6v-14.7h-3.9v-3.4h3.9v-6.9h3.8L63.5,247.8z"/>
		<rect id="Rectangle_14" x="72.5" y="247.8" class="st31" width="3.8" height="23.1"/>
		<path id="Path_150" class="st31" d="M80.9,259.4c0-1.6,0.2-3.2,0.7-4.8c0.4-1.4,1.2-2.7,2.1-3.8c1-1.1,2.2-2,3.5-2.6
			c3.1-1.3,6.6-1.3,9.7,0c1.4,0.6,2.6,1.5,3.5,2.6c1,1.1,1.7,2.4,2.1,3.8c0.5,1.5,0.7,3.1,0.7,4.8c0,1.6-0.2,3.2-0.7,4.7
			c-0.4,1.4-1.2,2.7-2.1,3.8c-1,1.1-2.2,2-3.5,2.6c-3.1,1.3-6.6,1.3-9.7,0c-1.3-0.6-2.5-1.5-3.5-2.6c-1-1.1-1.7-2.4-2.1-3.8
			C81.2,262.6,80.9,261,80.9,259.4 M85,259.4c0,1.3,0.2,2.5,0.6,3.7c0.3,1,0.8,1.9,1.5,2.7c0.6,0.7,1.4,1.3,2.3,1.7
			c1.8,0.8,3.8,0.8,5.6,0c0.9-0.4,1.7-1,2.3-1.7c0.7-0.8,1.2-1.7,1.5-2.7c0.7-2.4,0.7-5,0-7.5c-0.3-1-0.9-1.9-1.5-2.8
			c-0.6-0.7-1.4-1.3-2.3-1.7c-1.8-0.8-3.8-0.8-5.6,0c-0.9,0.4-1.7,1-2.3,1.7c-0.7,0.8-1.2,1.7-1.5,2.8
			C85.1,256.8,84.9,258.1,85,259.4"/>
		<path id="Path_151" class="st31" d="M107.9,247.8h3.6v3.7h0.1c0.7-1.3,1.8-2.4,3.1-3.2c1.4-0.7,2.9-1.1,4.4-1
			c1.3,0,2.6,0.2,3.8,0.6c0.9,0.4,1.8,1,2.5,1.7c0.6,0.8,1.1,1.7,1.3,2.7c0.3,1.1,0.4,2.3,0.4,3.4v15.2h-3.8v-15.7
			c0.1-1.3-0.4-2.5-1.3-3.4c-0.9-0.9-2.2-1.3-3.4-1.3c-1,0-2.1,0.2-3,0.5c-0.8,0.3-1.5,0.9-2.1,1.5c-0.6,0.7-1,1.5-1.3,2.3
			c-0.3,0.9-0.4,1.9-0.4,2.9v13.1h-3.8L107.9,247.8z"/>
		<path id="Path_152" class="st31" d="M153.2,270.8c-0.8,0.5-1.8,0.7-2.7,0.6c-0.9,0-1.7-0.3-2.3-0.9c-0.6-0.8-1-1.7-0.9-2.7
			c-1,1.2-2.2,2.1-3.6,2.7c-1.4,0.6-3,0.9-4.5,0.9c-1,0-2-0.1-3-0.4c-0.9-0.2-1.7-0.6-2.4-1.1c-0.7-0.5-1.3-1.2-1.6-2
			c-0.4-0.9-0.6-1.9-0.6-3c0-1.1,0.2-2.2,0.7-3.2c0.4-0.8,1-1.5,1.8-2c0.8-0.5,1.6-0.9,2.5-1.2c0.9-0.3,1.9-0.5,2.9-0.7
			c1-0.2,2-0.4,3-0.5c0.8-0.1,1.7-0.2,2.5-0.4c0.6-0.1,1.2-0.4,1.7-0.8c0.4-0.4,0.7-1,0.6-1.6c0-0.7-0.1-1.4-0.5-2
			c-0.3-0.5-0.7-0.9-1.2-1.2c-0.5-0.3-1.1-0.5-1.7-0.5c-0.6-0.1-1.2-0.1-1.8-0.1c-1.4,0-2.8,0.3-4,0.9c-1.2,0.8-1.8,2.1-1.7,3.5
			h-3.8c0-1.3,0.3-2.5,0.9-3.6c0.5-1,1.3-1.8,2.1-2.4c0.9-0.6,2-1.1,3.1-1.3c1.2-0.3,2.4-0.4,3.7-0.4c1,0,2.1,0.1,3.1,0.2
			c1,0.1,1.9,0.4,2.8,0.9c0.8,0.5,1.5,1.1,2,1.9c0.5,1,0.8,2.1,0.8,3.3v11.9c0,0.7,0,1.3,0.2,2c0.1,0.4,0.5,0.6,1,0.6
			c0.4,0,0.8-0.1,1.2-0.2L153.2,270.8z M147.1,259c-0.4,0.3-0.9,0.5-1.3,0.6c-0.6,0.2-1.1,0.3-1.7,0.4c-0.6,0.1-1.2,0.2-1.9,0.3
			c-0.7,0.1-1.3,0.2-1.9,0.3c-0.6,0.1-1.2,0.3-1.8,0.4c-0.5,0.2-1,0.4-1.5,0.7c-0.4,0.3-0.8,0.7-1,1.2c-0.3,0.6-0.4,1.2-0.4,1.8
			c0,0.6,0.1,1.1,0.4,1.6c0.2,0.4,0.6,0.8,1,1c0.4,0.3,0.9,0.5,1.4,0.6c0.6,0.1,1.1,0.2,1.7,0.2c1.1,0,2.2-0.1,3.2-0.5
			c0.8-0.3,1.6-0.7,2.2-1.3c0.5-0.5,1-1.1,1.3-1.7c0.3-0.5,0.4-1.1,0.4-1.7L147.1,259z"/>
		<rect id="Rectangle_15" x="157" y="239" class="st31" width="3.8" height="31.9"/>
		<path id="Path_153" class="st31" d="M198.2,248.3c-0.1-1.9-1-3.8-2.5-5c-1.6-1.1-3.5-1.6-5.4-1.5c-0.9,0-1.8,0.1-2.6,0.3
			c-0.8,0.2-1.6,0.5-2.3,0.9c-0.7,0.4-1.2,1-1.6,1.7c-0.4,0.8-0.6,1.7-0.6,2.6c0,0.9,0.3,1.7,0.9,2.4c0.7,0.7,1.4,1.2,2.3,1.5
			c1.1,0.4,2.2,0.7,3.3,1c1.2,0.3,2.5,0.5,3.8,0.8s2.5,0.6,3.8,1c1.2,0.4,2.3,0.9,3.3,1.6c1,0.7,1.7,1.6,2.3,2.6
			c1.3,2.6,1.2,5.7-0.3,8.3c-0.7,1.2-1.7,2.2-2.9,3c-1.2,0.8-2.6,1.3-4,1.7c-3.1,0.8-6.4,0.7-9.5-0.1c-1.5-0.4-2.9-1.1-4.2-2.1
			c-1.2-0.9-2.2-2.1-2.9-3.5c-0.7-1.6-1.1-3.3-1-5h4c0,1.2,0.2,2.4,0.8,3.5c0.5,0.9,1.2,1.8,2.1,2.4c0.9,0.6,1.9,1.1,3,1.4
			c1.1,0.3,2.3,0.5,3.5,0.4c1,0,1.9-0.1,2.9-0.3c0.9-0.2,1.8-0.5,2.6-0.9c1.7-0.9,2.7-2.7,2.6-4.6c0-1-0.3-1.9-0.9-2.7
			c-0.6-0.7-1.4-1.3-2.3-1.7c-1-0.5-2.1-0.8-3.3-1.1c-1.2-0.3-2.5-0.6-3.8-0.8s-2.5-0.6-3.8-1c-1.2-0.3-2.3-0.8-3.3-1.5
			c-0.9-0.6-1.7-1.4-2.3-2.4c-0.6-1.1-0.9-2.4-0.9-3.6c0-1.5,0.3-2.9,1-4.2c0.6-1.2,1.5-2.2,2.6-2.9c1.1-0.8,2.4-1.4,3.7-1.7
			c1.4-0.4,2.8-0.6,4.3-0.6c1.5,0,3.1,0.2,4.6,0.6c1.3,0.4,2.6,1,3.7,1.8c1.1,0.9,1.9,1.9,2.5,3.2c0.7,1.4,1,3,1,4.5L198.2,248.3z"
			/>
		<path id="Path_154" class="st31" d="M213.4,247.8h4.6v3.4h-4.6v14.4c0,0.4,0,0.7,0.1,1.1c0.1,0.3,0.2,0.5,0.4,0.6
			c0.3,0.2,0.6,0.3,0.9,0.3c0.5,0.1,1,0.1,1.5,0.1h1.7v3.4h-2.9c-0.8,0-1.7-0.1-2.5-0.2c-0.6-0.1-1.2-0.4-1.7-0.7
			c-0.5-0.4-0.8-0.9-1-1.5c-0.2-0.8-0.3-1.7-0.3-2.6v-14.7h-3.9v-3.4h3.9v-6.9h3.8L213.4,247.8z"/>
		<path id="Path_155" class="st31" d="M222.1,247.8h3.6v4.9h0.1c0.7-1.7,1.9-3.1,3.4-4.2c1.5-0.9,3.3-1.4,5.1-1.3v4
			c-1.3,0-2.6,0.2-3.9,0.6c-1,0.4-1.9,1-2.6,1.8c-0.7,0.9-1.2,1.9-1.4,3c-0.3,1.3-0.5,2.6-0.4,3.9v10.3h-3.8L222.1,247.8z"/>
		<path id="Path_156" class="st31" d="M257.6,270.8c-0.8,0.5-1.8,0.7-2.7,0.6c-0.9,0-1.7-0.3-2.3-0.9c-0.6-0.8-1-1.7-0.9-2.7
			c-1,1.2-2.2,2.1-3.6,2.7c-1.4,0.6-3,0.9-4.5,0.9c-1,0-2-0.1-3-0.4c-0.9-0.2-1.7-0.6-2.4-1.1c-0.7-0.5-1.3-1.2-1.6-2
			c-0.4-0.9-0.6-1.9-0.6-3c0-1.1,0.2-2.2,0.7-3.2c0.4-0.8,1-1.5,1.8-2c0.8-0.5,1.6-0.9,2.5-1.2c0.9-0.3,1.9-0.5,2.9-0.7
			c1-0.2,2-0.4,3-0.5c0.8-0.1,1.7-0.2,2.5-0.4c0.6-0.1,1.2-0.4,1.7-0.8c0.4-0.4,0.7-1,0.6-1.6c0-0.7-0.1-1.4-0.5-2
			c-0.3-0.5-0.7-0.9-1.2-1.2c-0.5-0.3-1.1-0.5-1.7-0.5c-0.6-0.1-1.2-0.1-1.8-0.1c-1.4,0-2.8,0.3-4,0.9c-1.2,0.8-1.8,2.1-1.7,3.5
			h-3.8c0-1.3,0.3-2.5,0.9-3.6c0.5-1,1.2-1.8,2.1-2.4c0.9-0.6,2-1.1,3.1-1.3c1.2-0.3,2.4-0.4,3.7-0.4c1,0,2.1,0.1,3.1,0.2
			c1,0.1,1.9,0.4,2.8,0.9c0.8,0.5,1.5,1.1,2,1.9c0.5,1,0.8,2.1,0.8,3.3v11.9c0,0.7,0,1.3,0.2,2c0.1,0.4,0.5,0.6,1,0.6
			c0.4,0,0.8-0.1,1.2-0.2L257.6,270.8z M251.4,259c-0.4,0.3-0.9,0.5-1.3,0.6c-0.6,0.2-1.1,0.3-1.7,0.4c-0.6,0.1-1.2,0.2-1.9,0.3
			c-0.7,0.1-1.3,0.2-1.9,0.3c-0.6,0.1-1.2,0.3-1.8,0.4c-0.5,0.2-1,0.4-1.5,0.7c-0.4,0.3-0.8,0.7-1,1.2c-0.3,0.6-0.4,1.2-0.4,1.8
			c0,0.6,0.1,1.1,0.4,1.6c0.2,0.4,0.6,0.8,1,1c0.4,0.3,0.9,0.5,1.4,0.6c0.6,0.1,1.1,0.2,1.7,0.2c1.1,0,2.2-0.1,3.2-0.5
			c0.8-0.3,1.5-0.7,2.2-1.3c0.5-0.5,1-1.1,1.3-1.7c0.3-0.5,0.4-1.1,0.4-1.7L251.4,259z"/>
		<path id="Path_157" class="st31" d="M266.4,247.8h4.6v3.4h-4.6v14.4c0,0.4,0,0.7,0.1,1.1c0.1,0.3,0.2,0.5,0.4,0.6
			c0.3,0.2,0.6,0.3,0.9,0.3c0.5,0.1,1,0.1,1.5,0.1h1.7v3.4h-2.9c-0.8,0-1.7-0.1-2.5-0.2c-0.6-0.1-1.2-0.4-1.7-0.7
			c-0.5-0.4-0.8-0.9-1-1.5c-0.2-0.8-0.3-1.7-0.3-2.6v-14.7h-3.9v-3.4h3.9v-6.9h3.8L266.4,247.8z"/>
		<path id="Path_158" class="st31" d="M295,263.6c-0.4,2.3-1.6,4.4-3.4,5.9c-1.9,1.4-4.2,2.1-6.5,2c-1.7,0-3.3-0.3-4.8-0.9
			c-1.3-0.6-2.5-1.4-3.4-2.5c-1-1.1-1.7-2.4-2.1-3.8c-0.5-1.6-0.7-3.2-0.8-4.9c0-1.6,0.3-3.3,0.8-4.8c0.5-1.4,1.3-2.7,2.3-3.8
			c1-1.1,2.1-1.9,3.4-2.5c1.4-0.6,2.9-0.9,4.4-0.9c1.8-0.1,3.6,0.4,5.1,1.3c1.3,0.8,2.4,1.9,3.3,3.2c0.8,1.3,1.4,2.8,1.7,4.3
			c0.3,1.5,0.4,2.9,0.4,4.4H278c0,1,0.1,1.9,0.4,2.9c0.3,0.9,0.7,1.7,1.3,2.4c0.6,0.7,1.4,1.3,2.3,1.7c1,0.4,2.1,0.7,3.3,0.6
			c1.4,0.1,2.8-0.3,3.9-1.1c1.1-0.8,1.8-2,2.1-3.4L295,263.6z M291.3,257.1c-0.1-0.9-0.3-1.7-0.6-2.6c-1-2.4-3.4-4-6.1-4
			c-0.9,0-1.8,0.2-2.7,0.5c-0.8,0.3-1.5,0.8-2,1.4c-0.6,0.6-1,1.3-1.3,2.1c-0.3,0.8-0.5,1.7-0.6,2.5L291.3,257.1z"/>
		<path id="Path_159" class="st31" d="M319.2,268.9c0,3.8-0.9,6.6-2.6,8.5s-4.5,2.8-8.1,2.8c-1.1,0-2.2-0.1-3.3-0.4
			c-1.1-0.2-2.1-0.6-3-1.2c-0.9-0.5-1.7-1.2-2.3-2.1c-0.6-0.9-1-2-1-3.2h3.8c0,0.6,0.2,1.3,0.6,1.7c0.4,0.5,0.9,0.9,1.5,1.2
			c0.6,0.3,1.2,0.5,1.9,0.6c0.6,0.1,1.3,0.2,2,0.2c1.1,0,2.2-0.2,3.2-0.6c0.8-0.4,1.6-1,2.1-1.8c0.6-0.8,1-1.8,1.2-2.8
			c0.3-1.2,0.4-2.4,0.4-3.6V267h-0.1c-0.3,0.7-0.7,1.3-1.3,1.9c-0.5,0.5-1.1,1-1.7,1.3c-0.7,0.3-1.3,0.6-2.1,0.8
			c-0.7,0.2-1.4,0.3-2.2,0.3c-1.6,0-3.1-0.3-4.5-0.9c-1.2-0.6-2.3-1.5-3.2-2.5c-0.9-1.1-1.5-2.4-1.9-3.7c-0.4-1.5-0.7-3-0.6-4.5
			c0-1.4,0.2-2.8,0.5-4.2c0.3-1.4,1-2.7,1.8-3.9c0.9-1.2,2-2.2,3.3-2.9c1.6-0.8,3.3-1.2,5.1-1.1c1.4,0,2.8,0.3,4,1
			c1.2,0.6,2.2,1.7,2.9,2.9h0v-3.3h3.6L319.2,268.9z M308.6,267.8c2.2,0.1,4.2-1,5.3-2.8c0.6-0.9,1-1.9,1.2-2.9
			c0.3-1.1,0.4-2.1,0.4-3.2c0-1-0.1-2-0.4-3c-0.2-0.9-0.6-1.8-1.1-2.7c-0.5-0.8-1.2-1.4-2-1.9c-0.9-0.5-2-0.7-3-0.7
			c-1.1,0-2.2,0.2-3.1,0.7c-0.8,0.4-1.6,1.1-2.1,1.9c-0.6,0.8-1,1.7-1.2,2.7c-0.3,1-0.4,2.1-0.4,3.2c0,1.1,0.1,2.1,0.3,3.1
			c0.2,1,0.6,2,1.1,2.8c0.5,0.8,1.2,1.5,2,2.1C306.4,267.6,307.5,267.8,308.6,267.8"/>
		<path id="Path_160" class="st31" d="M334,274c-0.4,1-0.8,1.9-1.3,2.9c-0.4,0.7-0.9,1.3-1.4,1.9c-0.5,0.5-1.1,0.8-1.7,1.1
			c-0.7,0.2-1.5,0.3-2.2,0.3c-0.4,0-0.9,0-1.3-0.1c-0.4-0.1-0.9-0.2-1.3-0.3v-3.5c0.4,0.1,0.7,0.2,1.1,0.4c0.4,0.1,0.8,0.2,1.1,0.2
			c0.7,0,1.3-0.2,1.9-0.5c0.5-0.4,1-1,1.3-1.6l1.6-3.9l-9.2-23h4.3l6.8,18.9h0.1l6.5-18.9h4L334,274z"/>
		<path id="Path_161" class="st31" d="M361.3,251.1h-3.9v-3.4h3.9v-3.4c-0.1-1.6,0.5-3.2,1.6-4.3c1.4-1.1,3.1-1.6,4.8-1.5
			c0.4,0,0.8,0,1.2,0.1c0.4,0,0.8,0.1,1.2,0.3v3.3c-0.3-0.1-0.7-0.2-1.1-0.2c-0.4,0-0.7-0.1-1.1-0.1c-0.8,0-1.5,0.1-2.1,0.5
			c-0.6,0.5-0.9,1.3-0.8,2.1v3.2h4.5v3.4h-4.5v19.8h-3.8L361.3,251.1z"/>
		<path id="Path_162" class="st31" d="M371.7,259.4c0-1.6,0.2-3.2,0.7-4.8c0.4-1.4,1.2-2.7,2.1-3.8c1-1.1,2.2-2,3.5-2.6
			c3.1-1.3,6.6-1.3,9.7,0c1.4,0.6,2.6,1.5,3.5,2.6c1,1.1,1.7,2.4,2.1,3.8c0.5,1.5,0.7,3.1,0.7,4.8c0,1.6-0.2,3.2-0.7,4.7
			c-0.4,1.4-1.2,2.7-2.1,3.8c-1,1.1-2.2,2-3.5,2.6c-3.1,1.3-6.6,1.3-9.7,0c-1.3-0.6-2.5-1.5-3.5-2.6c-1-1.1-1.7-2.4-2.1-3.8
			C371.9,262.6,371.7,261,371.7,259.4 M375.7,259.4c0,1.3,0.2,2.5,0.6,3.7c0.3,1,0.8,1.9,1.5,2.7c0.6,0.7,1.4,1.3,2.3,1.7
			c1.8,0.8,3.8,0.8,5.6,0c0.9-0.4,1.7-1,2.3-1.7c0.7-0.8,1.2-1.7,1.5-2.7c0.7-2.4,0.7-5,0-7.5c-0.3-1-0.9-1.9-1.5-2.8
			c-0.6-0.7-1.4-1.3-2.3-1.7c-1.8-0.8-3.8-0.8-5.6,0c-0.9,0.4-1.7,1-2.3,1.7c-0.7,0.8-1.2,1.7-1.5,2.8
			C375.9,256.8,375.7,258.1,375.7,259.4"/>
		<path id="Path_163" class="st31" d="M398.5,247.8h3.6v4.9h0.1c0.7-1.7,1.9-3.1,3.4-4.2c1.5-0.9,3.3-1.4,5.1-1.3v4
			c-1.3,0-2.6,0.2-3.9,0.6c-1,0.4-1.9,1-2.6,1.8c-0.7,0.9-1.2,1.9-1.4,3c-0.3,1.3-0.5,2.6-0.4,3.9v10.3h-3.8L398.5,247.8z"/>
		<path id="Path_164" class="st31" d="M426.6,239h11c4.9,0,8.7,1.3,11.4,3.8c2.7,2.5,4,6.3,4,11.5c0,2.4-0.3,4.8-0.9,7.1
			c-0.5,1.9-1.5,3.7-2.8,5.2c-1.3,1.5-2.9,2.6-4.8,3.2c-2.2,0.8-4.5,1.2-6.9,1.1h-11V239z M430.9,267.3h7.1c0.5,0,1.1,0,1.8-0.1
			c0.8-0.1,1.5-0.3,2.3-0.5c0.8-0.3,1.7-0.7,2.4-1.2c0.8-0.6,1.6-1.3,2.1-2.2c0.7-1.1,1.2-2.2,1.5-3.5c0.4-1.6,0.6-3.3,0.6-5
			c0-1.7-0.2-3.4-0.6-5.1c-0.3-1.4-0.9-2.7-1.8-3.8c-0.9-1.1-2-1.9-3.3-2.4c-1.6-0.6-3.3-0.9-5-0.9h-7.2L430.9,267.3z"/>
		<path id="Path_165" class="st31" d="M478,270.8c-0.8,0.5-1.8,0.7-2.7,0.6c-0.9,0-1.7-0.3-2.3-0.9c-0.6-0.8-1-1.7-0.9-2.7
			c-1,1.2-2.2,2.1-3.6,2.7c-1.4,0.6-3,0.9-4.5,0.9c-1,0-2-0.1-3-0.4c-0.9-0.2-1.7-0.6-2.4-1.1c-0.7-0.5-1.3-1.2-1.6-2
			c-0.4-0.9-0.6-1.9-0.6-3c0-1.1,0.2-2.2,0.7-3.2c0.4-0.8,1-1.5,1.8-2c0.8-0.5,1.6-0.9,2.5-1.2c0.9-0.3,1.9-0.5,2.9-0.7
			c1-0.2,2-0.4,3-0.5c0.8-0.1,1.7-0.2,2.5-0.4c0.6-0.1,1.2-0.4,1.7-0.8c0.4-0.4,0.7-1,0.6-1.6c0-0.7-0.1-1.4-0.5-2
			c-0.3-0.5-0.7-0.9-1.2-1.2c-0.5-0.3-1.1-0.5-1.7-0.5c-0.6-0.1-1.2-0.1-1.8-0.1c-1.4,0-2.8,0.3-4,0.9c-1.2,0.8-1.8,2.1-1.7,3.5
			h-3.8c0-1.3,0.3-2.5,0.9-3.6c0.5-1,1.2-1.8,2.1-2.4c0.9-0.6,2-1.1,3.1-1.3c1.2-0.3,2.4-0.4,3.7-0.4c1,0,2.1,0.1,3.1,0.2
			c1,0.1,1.9,0.4,2.8,0.9c0.8,0.5,1.5,1.1,2,1.9c0.5,1,0.8,2.1,0.8,3.3v11.9c0,0.7,0,1.3,0.2,2c0.1,0.4,0.5,0.6,1.1,0.6
			c0.4,0,0.8-0.1,1.2-0.2L478,270.8z M471.8,259c-0.4,0.3-0.9,0.5-1.3,0.6c-0.6,0.2-1.1,0.3-1.7,0.4c-0.6,0.1-1.2,0.2-1.9,0.3
			s-1.3,0.2-1.9,0.3c-0.6,0.1-1.2,0.3-1.8,0.4c-0.5,0.2-1,0.4-1.5,0.7c-0.4,0.3-0.8,0.7-1,1.2c-0.3,0.6-0.4,1.2-0.4,1.8
			c0,0.6,0.1,1.1,0.4,1.6c0.2,0.4,0.6,0.8,1,1c0.4,0.3,0.9,0.5,1.4,0.6c0.6,0.1,1.1,0.2,1.7,0.2c1.1,0,2.2-0.1,3.2-0.5
			c0.8-0.3,1.6-0.7,2.2-1.3c0.5-0.5,1-1.1,1.3-1.7c0.3-0.5,0.4-1.1,0.4-1.7L471.8,259z"/>
		<path id="Path_166" class="st31" d="M486.8,247.8h4.6v3.4h-4.6v14.4c0,0.4,0,0.7,0.1,1.1c0.1,0.3,0.2,0.5,0.4,0.6
			c0.3,0.2,0.6,0.3,0.9,0.3c0.5,0.1,1,0.1,1.5,0.1h1.7v3.4h-2.9c-0.8,0-1.7-0.1-2.5-0.2c-0.6-0.1-1.2-0.4-1.7-0.7
			c-0.5-0.4-0.8-0.9-1-1.5c-0.2-0.8-0.3-1.7-0.3-2.6v-14.7H479v-3.4h3.9v-6.9h3.8L486.8,247.8z"/>
		<path id="Path_167" class="st31" d="M516.1,270.8c-0.8,0.5-1.8,0.7-2.7,0.6c-0.9,0-1.7-0.3-2.3-0.9c-0.6-0.8-1-1.7-0.9-2.7
			c-1,1.2-2.2,2.1-3.6,2.7c-1.4,0.6-3,0.9-4.5,0.9c-1,0-2-0.1-3-0.4c-0.9-0.2-1.7-0.6-2.4-1.1c-0.7-0.5-1.3-1.2-1.6-2
			c-0.4-0.9-0.6-1.9-0.6-3c0-1.1,0.2-2.2,0.7-3.2c0.4-0.8,1-1.5,1.8-2c0.8-0.5,1.6-0.9,2.5-1.2c0.9-0.3,1.9-0.5,2.9-0.7
			c1-0.2,2-0.4,3-0.5c0.8-0.1,1.7-0.2,2.5-0.4c0.6-0.1,1.2-0.4,1.7-0.8c0.4-0.4,0.7-1,0.6-1.6c0-0.7-0.1-1.4-0.5-2
			c-0.3-0.5-0.7-0.9-1.2-1.2c-0.5-0.3-1.1-0.5-1.7-0.5c-0.6-0.1-1.2-0.1-1.8-0.1c-1.4,0-2.8,0.3-4,0.9c-1.2,0.8-1.8,2.1-1.7,3.5
			h-3.8c0-1.3,0.3-2.5,0.9-3.6c0.5-1,1.2-1.8,2.1-2.4c0.9-0.6,2-1.1,3.1-1.3c1.2-0.3,2.4-0.4,3.7-0.4c1,0,2.1,0.1,3.1,0.2
			c1,0.1,1.9,0.4,2.8,0.9c0.8,0.5,1.5,1.1,2,1.9c0.5,1,0.8,2.1,0.8,3.3v11.9c0,0.7,0,1.3,0.2,2c0.1,0.4,0.5,0.6,1.1,0.6
			c0.4,0,0.8-0.1,1.2-0.2L516.1,270.8z M509.9,259c-0.4,0.3-0.9,0.5-1.3,0.6c-0.6,0.2-1.1,0.3-1.7,0.4c-0.6,0.1-1.2,0.2-1.9,0.3
			s-1.3,0.2-1.9,0.3c-0.6,0.1-1.2,0.3-1.8,0.4c-0.5,0.2-1,0.4-1.5,0.7c-0.4,0.3-0.8,0.7-1,1.2c-0.3,0.6-0.4,1.2-0.4,1.8
			c0,0.6,0.1,1.1,0.4,1.6c0.2,0.4,0.6,0.8,1,1c0.4,0.3,0.9,0.5,1.4,0.6c0.6,0.1,1.1,0.2,1.7,0.2c1.1,0,2.2-0.1,3.2-0.5
			c0.8-0.3,1.6-0.7,2.2-1.3c0.5-0.5,1-1.1,1.3-1.7c0.3-0.5,0.4-1.1,0.4-1.7L509.9,259z"/>
		<path id="Path_168" class="st31" d="M549.7,266.9c-0.5,0.7-1.1,1.4-1.7,2c-0.7,0.6-1.4,1-2.2,1.4c-0.8,0.4-1.6,0.7-2.5,0.8
			c-0.9,0.2-1.7,0.3-2.6,0.3c-1.8,0.1-3.6-0.3-5.2-1c-1.2-0.6-2.2-1.4-3-2.4c-0.7-0.8-1.2-1.8-1.4-2.9c-0.2-0.8-0.3-1.6-0.3-2.5
			c0-1.1,0.2-2.3,0.6-3.3c0.4-0.9,0.9-1.8,1.6-2.6c0.7-0.8,1.5-1.5,2.4-2.1c0.9-0.6,1.9-1.2,2.9-1.7c-0.4-0.6-0.9-1.2-1.3-1.8
			s-0.8-1.1-1.1-1.7c-0.7-1.2-1.1-2.6-1.1-4c0-0.8,0.2-1.7,0.5-2.5c0.3-0.8,0.8-1.5,1.4-2.1c0.6-0.6,1.4-1.1,2.3-1.5
			c1-0.4,2-0.6,3.1-0.5c1,0,1.9,0.1,2.9,0.4c0.9,0.2,1.7,0.7,2.5,1.2c0.7,0.6,1.3,1.3,1.7,2.1c0.4,0.9,0.7,1.9,0.6,2.8
			c0,0.9-0.2,1.8-0.5,2.7c-0.3,0.8-0.8,1.6-1.3,2.3c-0.6,0.7-1.2,1.3-1.9,1.9c-0.7,0.5-1.5,1.1-2.2,1.5l5.8,7c0.6-1.6,0.9-3.3,1-5
			h3.6c-0.1,1-0.2,1.8-0.3,2.4c-0.1,0.6-0.2,1.2-0.4,1.9c-0.2,0.6-0.4,1.1-0.6,1.7c-0.2,0.6-0.5,1.2-0.9,1.9l6.2,7.2h-5L549.7,266.9
			z M540.2,255.5c-0.7,0.4-1.5,0.9-2.1,1.3c-0.7,0.4-1.2,0.9-1.8,1.5c-0.5,0.6-0.9,1.2-1.2,1.9c-0.3,0.8-0.5,1.6-0.4,2.5
			c0,0.8,0.2,1.5,0.5,2.2c0.3,0.7,0.8,1.2,1.4,1.7c0.6,0.5,1.2,0.8,1.9,1.1c0.7,0.3,1.5,0.4,2.3,0.4c1.4,0,2.7-0.3,3.9-1
			c1.2-0.7,2.1-1.6,2.9-2.8L540.2,255.5z M541.5,251.3c0.5-0.3,0.9-0.6,1.4-1c0.5-0.4,1-0.8,1.4-1.2c0.4-0.4,0.8-1,1-1.5
			c0.3-0.6,0.4-1.2,0.4-1.9c0-0.9-0.3-1.8-1-2.4c-0.7-0.7-1.7-1.1-2.7-1c-0.9,0-1.8,0.3-2.5,0.8c-0.8,0.6-1.2,1.6-1.2,2.6
			c0,0.5,0.1,1,0.3,1.4c0.2,0.5,0.5,1,0.7,1.4c0.3,0.5,0.6,0.9,1,1.4S541.1,250.8,541.5,251.3"/>
		<path id="Path_169" class="st31" d="M582,239h4.7l12.5,31.9h-4.7l-3.5-9.6h-13.5l-3.6,9.6h-4.4L582,239z M578.8,257.7h10.8
			l-5.3-14.9h-0.1L578.8,257.7z"/>
		<rect id="Rectangle_16" x="602.5" y="239" class="st31" width="4.2" height="31.9"/>
		<path id="Path_170" class="st31" d="M76.3,238.3h-3.9v4.8l3.9-2.2V238.3z"/>
	</g>
</g>
<script  type="text/javascript">//<![CDATA[  <-- For SVG support
	if ('WebSocket' in window) {
		(function () {
			function refreshCSS() {
				var sheets = [].slice.call(document.getElementsByTagName("link"));
				var head = document.getElementsByTagName("head")[0];
				for (var i = 0; i < sheets.length; ++i) {
					var elem = sheets[i];
					var parent = elem.parentElement || head;
					parent.removeChild(elem);
					var rel = elem.rel;
					if (elem.href && typeof rel != "string" || rel.length == 0 || rel.toLowerCase() == "stylesheet") {
						var url = elem.href.replace(/(&|\?)_cacheOverride=\d+/, '');
						elem.href = url + (url.indexOf('?') >= 0 ? '&' : '?') + '_cacheOverride=' + (new Date().valueOf());
					}
					parent.appendChild(elem);
				}
			}
			var protocol = window.location.protocol === 'http:' ? 'ws://' : 'wss://';
			var address = protocol + window.location.host + window.location.pathname + '/ws';
			var socket = new WebSocket(address);
			socket.onmessage = function (msg) {
				if (msg.data == 'reload') window.location.reload();
				else if (msg.data == 'refreshcss') refreshCSS();
			};
			if (sessionStorage && !sessionStorage.getItem('IsThisFirstTime_Log_From_LiveServer')) {
				console.log('Live reload enabled.');
				sessionStorage.setItem('IsThisFirstTime_Log_From_LiveServer', true);
			}
		})();
	}
	else {
		console.error('Upgrade your browser. This Browser is NOT supported WebSocket for Live-Reloading.');
	}
	// 
	]]>
</script>
</svg>
