<?xml version="1.0" encoding="utf-8"?>
<!-- Generator: Adobe Illustrator 22.1.0, SVG Export Plug-In . SVG Version: 6.00 Build 0)  -->
<svg version="1.1" id="Layer_1" xmlns="http://www.w3.org/2000/svg" xmlns:xlink="http://www.w3.org/1999/xlink" x="0px" y="0px"
	 viewBox="0 0 149.6 32.1" style="enable-background:new 0 0 149.6 32.1;" xml:space="preserve">
<style type="text/css">
	.st0{fill:#fff;}
</style>
<g>
	<path class="st0" d="M33.8,15.9c0-2.8,0.7-5,2.2-6.7s3.4-2.5,5.8-2.5c0.8,0,1.5,0.1,2.1,0.3c0.7,0.2,1.2,0.4,1.6,0.7
		c0.4,0.3,0.7,0.6,1,0.8C46.8,8.8,47,9,47.1,9.2l0.1,0.3h0.1c0-0.3-0.1-0.7-0.1-1.2V0.1h3.4v24.6h-3.2V23v-1.2h-0.1
		c0,0.1-0.1,0.2-0.2,0.3c-0.1,0.1-0.3,0.4-0.6,0.8s-0.7,0.7-1.1,1c-0.4,0.3-1,0.6-1.7,0.8S42.2,25,41.4,25c-2.4,0-4.3-0.8-5.7-2.5
		C34.5,20.9,33.8,18.6,33.8,15.9z M37.2,15.9c0,1.9,0.5,3.4,1.4,4.6s2.1,1.7,3.6,1.7c1.4,0,2.7-0.5,3.6-1.6c1-1.1,1.5-2.6,1.5-4.8
		c0-1.7-0.4-3.2-1.3-4.4c-0.9-1.2-2.1-1.9-3.7-1.9c-1.4,0-2.7,0.6-3.6,1.7C37.7,12.4,37.2,13.9,37.2,15.9z"/>
	<path class="st0" d="M53.4,3.5V0h3.4v3.5H53.4z M53.5,24.7V7h3.4v17.7H53.5z"/>
	<path class="st0" d="M62,27.9c1.5,0.8,3.1,1.2,4.8,1.2c1.7,0,3-0.4,4-1.2s1.5-2.1,1.5-3.8v-1.3v-1.1h-0.1c-1.1,1.8-2.8,2.8-5.2,2.8
		c-2.4,0-4.3-0.9-5.7-2.6s-2.1-3.9-2.1-6.5s0.7-4.7,2.1-6.4c1.4-1.6,3.3-2.5,5.7-2.5c0.8,0,1.5,0.1,2.2,0.3c0.7,0.2,1.2,0.4,1.6,0.7
		c0.4,0.3,0.7,0.5,1,0.8s0.5,0.5,0.6,0.7l0.2,0.2h0.1c0-0.2,0-0.3,0-0.6V7h3.2v16.9c0,1.4-0.3,2.6-0.7,3.7c-0.5,1.1-1.2,1.9-2,2.5
		c-1,0.7-2,1.2-3,1.5s-2.1,0.5-3.3,0.5c-2.1,0-4.1-0.5-6-1.5L62,27.9z M67.8,21.5c1.4,0,2.5-0.5,3.4-1.4c0.9-1,1.3-2.5,1.3-4.6
		c0-4-1.7-5.9-5-5.9c-1.5,0-2.7,0.5-3.5,1.6c-0.8,1-1.3,2.5-1.3,4.3c0,1.9,0.5,3.4,1.4,4.5C65,21,66.3,21.5,67.8,21.5z"/>
	<path class="st0" d="M78.6,3.5V0H82v3.5H78.6z M78.7,24.7V7h3.4v17.7H78.7z"/>
	<path class="st0" d="M84.5,15.9c0-2.6,0.9-4.8,2.7-6.6c1.8-1.8,4-2.7,6.8-2.7c1.3,0,2.5,0.2,3.6,0.6s1.9,0.9,2.4,1.3l0.7,0.6
		l-1.6,2.4c-0.1-0.1-0.3-0.3-0.6-0.6c-0.3-0.2-0.8-0.5-1.7-0.9c-0.8-0.4-1.7-0.6-2.6-0.6c-1.8,0-3.2,0.6-4.4,1.8
		c-1.2,1.2-1.7,2.7-1.7,4.5s0.6,3.3,1.8,4.5c1.2,1.2,2.7,1.8,4.5,1.8c1,0,1.9-0.2,2.8-0.6s1.6-0.8,2-1.2l0.6-0.6l1.4,2.5
		c-0.1,0.1-0.2,0.2-0.3,0.3c-0.1,0.1-0.4,0.4-0.9,0.7c-0.4,0.3-0.9,0.6-1.4,0.9c-0.5,0.2-1.2,0.5-2,0.7S95,25,94.1,25
		c-2.8,0-5-0.9-6.8-2.6C85.4,20.7,84.5,18.5,84.5,15.9z"/>
	<path class="st0" d="M101.4,15.9c0-2.8,0.8-5,2.5-6.7s3.8-2.5,6.3-2.5c2.4,0,4.3,0.8,5.6,2.3c1.3,1.6,2,3.5,2,5.9l-0.1,1.5h-12.9
		c0.1,1.9,0.7,3.3,1.9,4.3c1.2,1,2.6,1.5,4.2,1.5c0.9,0,1.8-0.2,2.7-0.5c0.9-0.3,1.5-0.7,1.9-1l0.6-0.5l1.4,2.5
		c-0.2,0.2-0.5,0.4-0.8,0.7c-0.4,0.3-1.2,0.7-2.3,1.1c-1.2,0.5-2.4,0.7-3.7,0.7c-2.7,0-5-0.9-6.7-2.6
		C102.3,20.7,101.4,18.5,101.4,15.9z M105,13.8h9.4c0-1.5-0.5-2.6-1.3-3.3c-0.8-0.8-1.8-1.2-3-1.2c-1.3,0-2.5,0.4-3.4,1.2
		C105.8,11.3,105.3,12.4,105,13.8z"/>
	<path class="st0" d="M120.3,24.7V7h3.3v3.1l-0.1,1.3h0.1c0.4-1.3,1.1-2.5,2.1-3.3c1-0.9,2.1-1.3,3.5-1.3l0.9,0.1v3.3
		c-0.3-0.1-0.6-0.1-1-0.1c-1.1,0-2.1,0.4-3,1.1s-1.6,1.8-2,3c-0.3,0.9-0.4,2-0.4,3.2v7.2L120.3,24.7L120.3,24.7z"/>
	<path class="st0" d="M134.4,18.2V10h-2.3V7.3h2.4V2.2h3.3v5.1h4.3V10h-4.3v7.8c0,0.7,0.1,1.3,0.3,1.8s0.4,0.9,0.7,1.2
		s0.6,0.5,0.9,0.7c0.4,0.2,0.7,0.3,1,0.3s0.6,0.1,0.9,0.1l0.8-0.1v3c-0.3,0-0.7,0.1-1.2,0.1c-0.6,0-1.1,0-1.6-0.1s-1.1-0.2-1.7-0.5
		c-0.7-0.3-1.2-0.6-1.7-1.1s-0.9-1.1-1.2-1.9C134.6,20.3,134.4,19.4,134.4,18.2z"/>
	<path class="st0" d="M146.1,0c-1.9,0-3.5,1.5-3.5,3.5c0,1.9,1.5,3.5,3.5,3.5c1.9,0,3.5-1.6,3.5-3.5S148,0,146.1,0 M146.1,6.3
		c-1.5,0-2.8-1.2-2.8-2.8c0-1.5,1.2-2.8,2.8-2.8c1.5,0,2.8,1.2,2.8,2.8C148.9,5,147.7,6.3,146.1,6.3"/>
	<g>
		<path class="st0" d="M31.2,18.4c-0.5-5.8-4.5-9.7-7.6-13.9c1.3-1.9,4.2-1.3,6.3-0.9c-2.7-1.9-5.9-3-9.3-3.3
			C14.1,0.2,8.9,4,4.1,8.2C1.2,7.3,3.2,4.2,3.2,2C0.7,5.4-0.1,9.2,0,13.1c0.1,3.5,1.6,6.9,3.6,10c1.4,1.6,2.8,3.2,4.2,4.8
			c-1.4,2.3-4.2,1.3-6.3,0.9c3.4,2.5,7.2,3.3,11.1,3.2c3.5-0.1,6.9-1.6,9.9-3.6c1.6-1.4,3.2-2.8,4.8-4.2c1.4,1.6,1.7,4.3,0.9,6.3
			C30.6,27.1,31.5,22.9,31.2,18.4z M26.6,18.6c-1.2,1.5-2.7,3.3-2.7,3.3c-1.5,1.7-2.8,2.5-3.4,3c-2,1.5-4.5,2.4-7,2.5
			c0,0-0.3,0-0.6,0l-0.1-0.1c-1.2-1.2-2.8-2.8-2.8-2.8c-0.9-1.1-1.7-1.6-2.9-3.3c-1.5-2.1-2.4-4.5-2.5-7c0,0,0-0.4,0-0.8v-0.1
			l2.8-2.5c3.3-2.9,6.9-5.5,11.4-5.5H19l2.2,2.9c2.1,2.9,4.9,5.7,5.3,9.7C26.5,17.9,26.6,18.5,26.6,18.6z"/>
	</g>
	<g>
		<path class="st0" d="M144.9,5.4V1.6h1.2c0.3,0,0.6,0,0.7,0.1c0.2,0.1,0.4,0.2,0.5,0.4s0.2,0.4,0.2,0.7c0,0.2-0.1,0.5-0.2,0.6
			c-0.1,0.2-0.3,0.3-0.5,0.4l0,0c0,0,0.1,0.1,0.1,0.2l0.8,1.5h-0.6L146.3,4h-0.8v1.5L144.9,5.4L144.9,5.4z M145.5,3.4h0.8
			c0.2,0,0.4-0.1,0.5-0.2s0.2-0.3,0.2-0.5c0-0.3-0.1-0.5-0.3-0.6C146.6,2,146.4,2,146.2,2h-0.6L145.5,3.4L145.5,3.4z"/>
	</g>
</g>
</svg>
