<?xml version="1.0" encoding="utf-8"?>
<!-- Generator: Adobe Illustrator 25.0.0, SVG Export Plug-In . SVG Version: 6.00 Build 0)  -->
<svg version="1.1" id="Layer_1" xmlns:v="https://vecta.io/nano"
	 xmlns="http://www.w3.org/2000/svg" xmlns:xlink="http://www.w3.org/1999/xlink" x="0px" y="0px" viewBox="0 0 159.9 31.3"
	 style="enable-background:new 0 0 159.9 31.3;" xml:space="preserve">
<style type="text/css">
	.st0{fill-rule:evenodd;clip-rule:evenodd;fill:#FFFFFF;}
</style>
<path class="st0" d="M21.4,11.9c-0.1,0.7-0.3,1.3-0.6,1.8c-0.3,0.5-0.6,0.9-1,1.2s-0.9,0.5-1.3,0.7c-0.5,0.1-1,0.2-1.6,0.2
	c-0.5,0-1-0.1-1.5-0.2s-0.9-0.3-1.2-0.6s-0.6-0.7-0.8-1.1c-0.2-0.5-0.2-1-0.1-1.7c0.1-0.4,0.2-0.8,0.4-1.4s0.5-1.1,0.8-1.6l1.7,0.7
	c-0.1,0.3-0.2,0.5-0.3,0.7s-0.2,0.4-0.2,0.5c-0.1,0.2-0.1,0.3-0.2,0.5c0,0.2-0.1,0.3-0.1,0.5c0,0.4,0,0.7,0.1,0.9
	c0.1,0.3,0.2,0.5,0.4,0.6c0.2,0.2,0.4,0.3,0.6,0.3C16.7,14,17,14,17.2,14c0.6,0,1.1-0.2,1.5-0.5s0.6-0.8,0.7-1.6l1.3-9.7h2
	L21.4,11.9z M26.8,12.4c0,0.3-0.1,0.5-0.1,0.6s-0.1,0.2-0.1,0.2c-0.5,0-0.9,0-1.3-0.1s-0.8-0.2-1.1-0.4c-0.3-0.2-0.5-0.4-0.7-0.7
	c-0.1-0.3-0.2-0.7-0.1-1.1l1.1-8.6h2l-1,8c0,0.2,0,0.4,0,0.6s0.1,0.3,0.2,0.4c0.1,0.1,0.2,0.2,0.4,0.2c0.1,0,0.3,0,0.5,0
	c0.1,0,0.2,0.1,0.2,0.2C26.9,11.9,26.9,12.1,26.8,12.4"/>
<path class="st0" d="M31.9,8.2c-0.3,0-0.5,0.1-0.7,0.2S30.8,8.7,30.6,9c-0.2,0.2-0.3,0.5-0.4,0.8s-0.2,0.6-0.3,1
	c0.3,0.3,0.5,0.5,0.7,0.6s0.5,0.2,0.8,0.2c0.4,0,0.8-0.1,1-0.4c0.3-0.3,0.5-0.7,0.5-1.1c0.1-0.6,0-1-0.2-1.3
	C32.6,8.4,32.3,8.2,31.9,8.2L31.9,8.2z M26.6,13.2c-0.2,0-0.4-0.1-0.5-0.2c-0.1-0.1-0.2-0.3-0.1-0.5c0-0.3,0.1-0.5,0.2-0.7
	c0.1-0.1,0.2-0.2,0.4-0.2H27c0.2,0,0.3,0,0.5-0.1c0.1-0.1,0.2-0.2,0.3-0.3c0.1-0.1,0.1-0.3,0.2-0.4c0.1-0.2,0.1-0.4,0.2-0.6
	c0.1-0.5,0.3-1,0.5-1.5s0.5-0.8,0.8-1.2c0.3-0.3,0.7-0.6,1.1-0.8s0.9-0.3,1.4-0.3c0.6,0,1,0.1,1.5,0.3c0.4,0.2,0.7,0.4,1,0.7
	s0.4,0.7,0.5,1.1s0.1,0.9,0,1.4c0,0.2-0.1,0.4-0.1,0.5c0,0.2-0.1,0.3-0.1,0.5c0.1,0.2,0.3,0.4,0.5,0.5s0.5,0.2,0.7,0.2
	c0.1,0,0.2,0.1,0.2,0.2c0,0.1,0,0.3,0,0.6c0,0.2,0,0.3-0.1,0.4c0,0.1,0,0.2-0.1,0.3c0,0.1,0,0.1,0,0.1l0,0c-0.2,0-0.3,0-0.5,0
	s-0.4-0.1-0.6-0.1c-0.2-0.1-0.4-0.2-0.6-0.3c-0.2-0.1-0.3-0.3-0.4-0.5c-0.4,0.4-0.8,0.6-1.2,0.8s-0.9,0.2-1.4,0.2s-0.9-0.1-1.2-0.2
	c-0.4-0.1-0.7-0.3-1.1-0.7c-0.3,0.3-0.6,0.5-0.8,0.6c-0.3,0.1-0.7,0.2-1.1,0.2H26.6L26.6,13.2z"/>
<path class="st0" d="M36.1,13.2c-0.3,0-0.4-0.1-0.5-0.2c-0.1-0.1-0.2-0.3-0.1-0.6c0-0.3,0.1-0.5,0.2-0.7c0.1-0.1,0.2-0.2,0.4-0.2
	h1.3c-0.1-0.3-0.2-0.6-0.3-0.8c-0.1-0.3-0.1-0.6,0-0.9c0.1-0.5,0.2-1,0.5-1.5c0.3-0.4,0.6-0.8,1-1.1s0.8-0.5,1.3-0.6
	s0.9-0.2,1.4-0.2c0.4,0,0.8,0,1.1,0.1c0.4,0.1,0.7,0.1,1,0.2l-0.5,1.6c-0.1,0-0.4-0.1-0.6-0.1c-0.3,0-0.6-0.1-0.9-0.1
	c-0.2,0-0.4,0-0.7,0.1c-0.2,0.1-0.4,0.1-0.6,0.3c-0.2,0.1-0.4,0.3-0.5,0.5c-0.2,0.2-0.2,0.5-0.3,0.8c-0.1,0.5,0.1,1,0.4,1.3
	c0.3,0.3,0.8,0.5,1.4,0.5h2l-0.2,1.7C42.7,13.2,36.1,13.2,36.1,13.2z M47.1,2.2C47,2,47,1.7,47,1.5c0.1-0.5,0.3-0.8,0.6-1.1
	S48.3,0,48.9,0c0.1,0,0.3,0,0.4,0c0.2,0,0.3,0.1,0.5,0.1l-0.3,0.8c-0.2-0.1-0.4-0.1-0.7-0.1S48.3,0.9,48.2,1C48,1.1,48,1.3,47.9,1.5
	c0,0.2,0,0.4,0.2,0.5c0.1,0.1,0.3,0.2,0.6,0.2h0.9L49.5,3h-3l0.1-0.8C46.5,2.2,47.1,2.2,47.1,2.2z M46.9,4h2L48,10.9h-2L46.9,4z
	 M51.5,12.3c-0.3,0.3-0.6,0.6-1,0.7c-0.4,0.2-0.9,0.2-1.5,0.2h-4.7l0.2-1.7h3.9c0.6,0,1-0.1,1.3-0.4c0.3-0.3,0.5-0.7,0.5-1.4l1-7.4
	h2l-1,7.8c-0.1,0.4,0,0.8,0.3,1c0.3,0.3,0.7,0.4,1.2,0.4c0.1,0,0.2,0.1,0.3,0.2c0.1,0.1,0.1,0.3,0,0.6c0,0.3-0.1,0.6-0.1,0.7
	c0,0.1-0.1,0.2-0.2,0.2c-0.2,0-0.4,0-0.6-0.1c-0.2,0-0.4-0.1-0.6-0.2c-0.2-0.1-0.4-0.2-0.6-0.3C51.7,12.6,51.6,12.4,51.5,12.3z"/>
<path class="st0" d="M53.6,11.6c0.3,0,0.6,0,0.8-0.1s0.4-0.1,0.5-0.3c0.1-0.1,0.2-0.3,0.3-0.4c0.1-0.2,0.1-0.4,0.1-0.6l1-7.8h2
	l-1.1,8.2c-0.1,0.5-0.2,0.8-0.3,1.2c-0.2,0.3-0.4,0.6-0.6,0.8c-0.3,0.2-0.6,0.4-1.1,0.5c-0.4,0.1-1,0.2-1.6,0.2
	c-0.2,0-0.4-0.1-0.5-0.2C53,12.9,53,12.7,53,12.5c0-0.3,0.1-0.5,0.2-0.7C53.4,11.7,53.5,11.6,53.6,11.6 M67,16.9
	c0-0.3,0.2-0.6,0.4-0.8c0.2-0.2,0.5-0.3,0.8-0.3s0.5,0.1,0.7,0.3s0.2,0.4,0.2,0.8c0,0.3-0.2,0.6-0.4,0.8c-0.2,0.2-0.5,0.3-0.8,0.3
	s-0.6-0.1-0.7-0.3C67,17.5,67,17.2,67,16.9 M64.4,16.9c0-0.3,0.2-0.6,0.4-0.8c0.2-0.2,0.5-0.3,0.8-0.3s0.5,0.1,0.7,0.3
	s0.2,0.4,0.2,0.8c0,0.3-0.2,0.6-0.4,0.8c-0.2,0.2-0.5,0.3-0.8,0.3s-0.6-0.1-0.7-0.3C64.4,17.5,64.4,17.2,64.4,16.9 M64.6,10.9
	c-0.1,0.7,0.1,1.2,0.6,1.5s1.3,0.5,2.4,0.5c0.5,0,0.9,0,1.3-0.1s0.7-0.1,1-0.2c0.3-0.1,0.5-0.2,0.7-0.3c0.1-0.1,0.2-0.3,0.2-0.4
	c0-0.2-0.1-0.4-0.4-0.6c-0.3-0.2-0.7-0.5-1.2-0.8c-0.6-0.3-1-0.7-1.3-1s-0.4-0.8-0.3-1.4c0-0.4,0.2-0.7,0.4-1.1
	c0.2-0.3,0.5-0.6,0.8-0.9s0.7-0.5,1.2-0.6s1-0.2,1.6-0.2c0.1,0,0.3,0,0.4,0c0.2,0,0.3,0,0.5,0.1c0.2,0,0.3,0.1,0.5,0.1
	s0.3,0.1,0.4,0.1l-0.5,1.5c-0.1,0-0.3-0.1-0.6-0.1c-0.2,0-0.5-0.1-0.7-0.1s-0.3,0-0.5,0S70.7,7,70.5,7.1S70.2,7.3,70,7.4
	c-0.1,0.1-0.2,0.3-0.2,0.5c0,0.1,0,0.3,0.1,0.4s0.2,0.3,0.3,0.4c0.1,0.1,0.3,0.3,0.5,0.4s0.4,0.2,0.6,0.3c0.3,0.1,0.5,0.3,0.7,0.5
	s0.4,0.3,0.6,0.5s0.3,0.4,0.4,0.6c0.1,0.2,0.1,0.5,0.1,0.7c-0.1,0.4-0.2,0.8-0.5,1.2c-0.3,0.4-0.6,0.7-1.1,0.9
	c-0.5,0.3-1,0.4-1.7,0.6c-0.8,0.2-1.5,0.3-2.4,0.3c-0.8,0-1.6-0.1-2.2-0.2c-0.7-0.1-1.2-0.3-1.6-0.6s-0.7-0.7-0.9-1.1
	c-0.2-0.5-0.2-1-0.2-1.7c0-0.4,0.2-0.8,0.3-1.3c0.2-0.5,0.5-1,0.8-1.6l1.7,0.7c-0.2,0.4-0.4,0.7-0.5,1.1
	C64.7,10.3,64.6,10.7,64.6,10.9 M76.7,11.6c0.5,0,0.8-0.1,1.1-0.3c0.3-0.2,0.4-0.6,0.5-1.1l0.1-0.4c0.1-0.5-0.1-0.9-0.4-1.1
	c-0.3-0.3-0.8-0.4-1.4-0.4h-1.4l0.2-1.7h1.8c0.6,0,1.1,0.1,1.6,0.2c0.4,0.1,0.8,0.3,1,0.6c0.3,0.3,0.4,0.6,0.5,0.9s0.1,0.7,0.1,1.1
	l-0.1,1c-0.1,1-0.4,1.7-0.9,2.1s-1.2,0.7-2.1,0.7h-3.7l0.2-1.7L76.7,11.6L76.7,11.6z M83.9,9.9c-0.1,0.6,0,1,0.2,1.2
	c0.2,0.3,0.6,0.4,1.1,0.4h1.2l0.2-1.7c0-0.2,0-0.4,0-0.6s-0.1-0.4-0.2-0.5c-0.1-0.2-0.2-0.3-0.4-0.4c-0.2-0.1-0.3-0.1-0.6-0.1
	c-0.2,0-0.4,0-0.5,0.1c-0.2,0.1-0.4,0.2-0.5,0.3c-0.2,0.1-0.3,0.3-0.4,0.5C84,9.4,83.9,9.6,83.9,9.9 M84.2,14.2c0.3,0,0.6,0,0.8,0
	c0.2,0,0.4-0.1,0.6-0.1s0.3-0.2,0.4-0.3s0.2-0.3,0.2-0.5h-1.4c-0.5,0-0.9-0.1-1.3-0.2c-0.4-0.1-0.7-0.3-1-0.6s-0.5-0.6-0.6-1
	s-0.1-0.9-0.1-1.4c0.1-0.5,0.2-0.9,0.4-1.3C82.4,8.4,82.7,8,83,7.6s0.7-0.6,1.2-0.8s1-0.3,1.6-0.3c0.4,0,0.9,0.1,1.2,0.2
	c0.4,0.1,0.7,0.3,1,0.6s0.5,0.6,0.6,1s0.2,0.9,0.1,1.4l-0.2,1.8h1.1c0.1,0,0.2,0.1,0.3,0.2c0.1,0.1,0.1,0.3,0,0.6
	c0,0.3-0.1,0.6-0.1,0.7c0,0.1-0.1,0.2-0.1,0.2h-1.4c-0.1,0.5-0.3,0.9-0.5,1.2s-0.5,0.6-0.9,0.8s-0.8,0.4-1.2,0.4
	c-0.4,0.1-0.9,0.1-1.5,0.1c-0.3,0-0.6,0-0.9-0.1c-0.3,0-0.6-0.1-0.9-0.2l0.5-1.6c0.2,0,0.5,0.1,0.7,0.1
	C83.6,14.2,83.9,14.2,84.2,14.2"/>
<path class="st0" d="M94,8.2c-0.2,0-0.4,0-0.5,0c-0.2,0-0.4,0.1-0.5,0.1c-0.2,0-0.3,0.1-0.4,0.1s-0.2,0.1-0.3,0.1
	c0.4,0.3,0.7,0.7,1,1s0.5,0.7,0.7,1c0.2-0.1,0.3-0.2,0.5-0.3s0.3-0.3,0.4-0.4s0.3-0.3,0.3-0.4c0.1-0.2,0.1-0.3,0.2-0.5
	c0-0.1,0-0.2,0-0.3s-0.1-0.2-0.2-0.3S95,8.1,94.8,8.1C94.4,8.2,94.2,8.2,94,8.2L94,8.2z M89.6,13.2c-0.3,0-0.4-0.1-0.6-0.2
	c-0.1-0.1-0.2-0.3-0.1-0.6c0-0.3,0.1-0.5,0.2-0.7s0.2-0.2,0.4-0.2h1.6c0.3,0,0.5,0,0.8-0.1c0.2,0,0.4-0.1,0.5-0.1
	c-0.2-0.2-0.4-0.5-0.6-0.7s-0.3-0.4-0.5-0.5c-0.2-0.2-0.3-0.3-0.5-0.5c-0.2-0.1-0.4-0.3-0.7-0.5c0-0.1,0.1-0.2,0.1-0.4
	s0.1-0.4,0.2-0.5c0.1-0.2,0.1-0.4,0.2-0.5c0.1-0.2,0.1-0.3,0.1-0.4c0.2-0.1,0.4-0.2,0.7-0.3c0.3-0.1,0.6-0.2,0.9-0.3
	s0.6-0.2,0.9-0.2c0.3-0.1,0.6-0.1,1-0.1c0.5,0,0.9,0,1.3,0.1s0.8,0.2,1.1,0.4c0.3,0.2,0.5,0.4,0.7,0.7c0.1,0.3,0.2,0.6,0.1,1
	c0,0.3-0.1,0.5-0.2,0.8s-0.3,0.5-0.5,0.7s-0.4,0.4-0.7,0.7c-0.3,0.2-0.5,0.4-0.8,0.6c0.1,0,0.3,0.1,0.5,0.1s0.4,0,0.5,0h1.5
	c0.1,0,0.2,0.1,0.3,0.2c0.1,0.1,0.1,0.3,0,0.7c0,0.3-0.1,0.6-0.1,0.7c0,0.1-0.1,0.2-0.2,0.2h-2.1c-0.5,0-1-0.1-1.3-0.2
	c-0.4-0.1-0.7-0.2-0.9-0.4c-0.4,0.2-0.8,0.3-1.3,0.4c-0.5,0.1-0.9,0.2-1.4,0.2C90.7,13.2,89.6,13.2,89.6,13.2z"/>
<path class="st0" d="M102.6,13.2c-0.5,0-0.9-0.1-1.3-0.2c-0.3-0.2-0.6-0.4-0.7-0.7c-0.3,0.3-0.6,0.5-1.1,0.7s-1.1,0.2-1.8,0.2
	c-0.2,0-0.4-0.1-0.5-0.2c-0.2-0.1-0.3-0.3-0.2-0.5c0-0.3,0.1-0.5,0.2-0.7c0.1-0.1,0.2-0.2,0.4-0.2c0.6,0,1-0.1,1.2-0.3
	c0.3-0.2,0.4-0.5,0.5-1.1l0.3-2.3h2l-0.3,2.5c0,0.2,0,0.3,0,0.4c0,0.1,0.1,0.3,0.1,0.4c0.1,0.1,0.2,0.2,0.3,0.3
	c0.1,0.1,0.3,0.1,0.5,0.1c0.3,0,0.6-0.1,0.8-0.3c0.2-0.2,0.3-0.5,0.4-1.1l0.3-2.3h2l-0.3,2.5c0,0.2,0,0.3,0,0.4c0,0.1,0,0.3,0.1,0.4
	c0.1,0.1,0.2,0.2,0.3,0.3c0.1,0.1,0.3,0.1,0.6,0.1c0.4,0,0.6-0.1,0.8-0.3c0.2-0.2,0.3-0.5,0.4-1.1l0.5-3.6h2l-0.5,3.5
	c-0.1,0.4,0.1,0.8,0.3,1c0.3,0.3,0.6,0.4,1.2,0.4c0.1,0,0.3,0.1,0.3,0.2c0.1,0.1,0.1,0.3,0,0.6c0,0.3-0.1,0.6-0.1,0.7
	c0,0.1-0.1,0.2-0.2,0.2c-0.2,0-0.4,0-0.6,0s-0.4-0.1-0.6-0.2c-0.2-0.1-0.4-0.2-0.6-0.3s-0.3-0.3-0.4-0.5c-0.2,0.3-0.6,0.5-0.9,0.7
	c-0.4,0.2-0.8,0.2-1.2,0.2c-0.5,0-0.9-0.1-1.3-0.2c-0.3-0.2-0.6-0.4-0.7-0.7C104.2,12.9,103.5,13.2,102.6,13.2"/>
<path class="st0" d="M110.9,11.6c0.3,0,0.6,0,0.8-0.1c0.2-0.1,0.4-0.1,0.5-0.3c0.1-0.1,0.2-0.3,0.3-0.4c0.1-0.2,0.1-0.4,0.1-0.6
	l1-7.8h2l-1.1,8.2c-0.1,0.5-0.2,0.8-0.3,1.2c-0.2,0.3-0.4,0.6-0.6,0.8c-0.3,0.2-0.6,0.4-1.1,0.5c-0.4,0.1-1,0.2-1.6,0.2
	c-0.2,0-0.4-0.1-0.5-0.2c-0.1-0.1-0.2-0.3-0.1-0.6c0-0.3,0.1-0.5,0.2-0.7C110.7,11.7,110.8,11.6,110.9,11.6 M119.6,2.4l-1.4,10.9h-2
	l1.4-10.9H119.6z M126,4.1c0-0.3,0.2-0.6,0.4-0.8c0.2-0.2,0.5-0.3,0.8-0.3s0.5,0.1,0.7,0.3c0.2,0.2,0.2,0.4,0.2,0.8
	c0,0.3-0.2,0.6-0.4,0.8c-0.2,0.2-0.5,0.3-0.8,0.3s-0.6-0.1-0.7-0.3C126,4.7,125.9,4.4,126,4.1 M123.9,15.8c-0.3,0-0.6,0-0.8-0.1
	c-0.2,0-0.4-0.1-0.6-0.1L123,14c0.1,0,0.2,0,0.3,0.1c0.1,0,0.2,0,0.3,0c0.4,0,0.7-0.1,0.8-0.3c0.2-0.2,0.3-0.6,0.4-1l0.8-6.1h2
	l-0.6,5h1.2c0.1,0,0.2,0.1,0.3,0.2c0.1,0.1,0.1,0.3,0,0.6c0,0.3-0.1,0.5-0.1,0.7c0,0.1-0.1,0.2-0.1,0.2h-1.5c-0.1,0.5-0.2,1-0.4,1.3
	c-0.2,0.3-0.4,0.6-0.7,0.8c-0.3,0.2-0.6,0.3-0.9,0.4C124.5,15.8,124.2,15.8,123.9,15.8"/>
<path class="st0" d="M128.3,13.2c-0.2,0-0.4-0.1-0.5-0.2c-0.1-0.1-0.2-0.3-0.1-0.6c0-0.3,0.1-0.5,0.2-0.6c0.1-0.2,0.2-0.2,0.4-0.2
	h4.3c0.5,0,0.9-0.1,1.1-0.3c0.2-0.2,0.4-0.6,0.5-1l0.1-0.4c0.1-1-0.4-1.5-1.6-1.5h-3.2l0.2-1.7l4.6-4.3l1.2,1.3l-3.3,3h1.2
	c0.6,0,1.1,0.1,1.5,0.2s0.7,0.3,1,0.6c0.2,0.3,0.4,0.6,0.5,0.9c0.1,0.4,0.1,0.7,0,1.1l-0.1,1c-0.1,1-0.4,1.7-0.9,2.1
	s-1.2,0.7-2.1,0.7L128.3,13.2L128.3,13.2z M137.4,15.8c-0.3,0-0.6,0-0.8-0.1c-0.2,0-0.4-0.1-0.6-0.1l0.5-1.6c0.1,0,0.2,0,0.3,0.1
	c0.1,0,0.2,0,0.3,0c0.4,0,0.7-0.1,0.8-0.3c0.2-0.2,0.3-0.6,0.4-1l0.8-6.1h2l-0.6,5h1.2c0.1,0,0.2,0.1,0.3,0.2c0.1,0.1,0.1,0.3,0,0.6
	c0,0.3-0.1,0.5-0.1,0.7c0,0.1-0.1,0.2-0.1,0.2h-1.5c-0.1,0.5-0.2,1-0.4,1.3s-0.4,0.6-0.7,0.8s-0.6,0.3-0.9,0.4
	C138,15.8,137.7,15.8,137.4,15.8"/>
<path class="st0" d="M147,8.2c-0.3,0-0.5,0.1-0.7,0.2s-0.4,0.3-0.6,0.6c-0.2,0.2-0.3,0.5-0.4,0.8c-0.1,0.3-0.2,0.6-0.3,1
	c0.3,0.3,0.5,0.5,0.7,0.6s0.5,0.2,0.8,0.2c0.4,0,0.8-0.1,1-0.4c0.3-0.3,0.5-0.7,0.5-1.1c0.1-0.6,0-1-0.2-1.3
	C147.7,8.4,147.4,8.2,147,8.2L147,8.2z M141.8,13.2c-0.2,0-0.4-0.1-0.5-0.2c-0.1-0.1-0.2-0.3-0.1-0.6c0-0.3,0.1-0.5,0.2-0.7
	c0.1-0.1,0.2-0.2,0.4-0.2h0.4c0.2,0,0.3,0,0.5-0.1c0.1-0.1,0.2-0.2,0.3-0.3s0.1-0.3,0.2-0.4c0.1-0.2,0.1-0.4,0.2-0.6
	c0.1-0.5,0.3-1,0.5-1.5s0.5-0.8,0.8-1.2c0.3-0.3,0.7-0.6,1.1-0.8c0.4-0.2,0.9-0.3,1.4-0.3c0.6,0,1,0.1,1.5,0.3
	c0.4,0.2,0.7,0.4,1,0.7s0.4,0.7,0.5,1.1s0.1,0.9,0,1.4c0,0.2-0.1,0.4-0.1,0.5c0,0.2-0.1,0.3-0.1,0.5c0.1,0.2,0.3,0.4,0.5,0.5
	s0.5,0.2,0.7,0.2c0.1,0,0.2,0.1,0.2,0.2c0,0.1,0,0.3,0,0.6c0,0.2,0,0.3-0.1,0.4c0,0.1,0,0.2-0.1,0.3c0,0.1,0,0.1,0,0.1l0,0
	c-0.2,0-0.3,0-0.5,0s-0.4-0.1-0.6-0.1c-0.2-0.1-0.4-0.2-0.6-0.3c-0.2-0.1-0.3-0.3-0.4-0.5c-0.4,0.4-0.8,0.6-1.2,0.8
	s-0.9,0.2-1.4,0.2s-0.9-0.1-1.2-0.2c-0.4-0.1-0.7-0.3-1.1-0.7c-0.3,0.3-0.6,0.5-0.8,0.6c-0.3,0.1-0.7,0.2-1.1,0.2L141.8,13.2
	L141.8,13.2z"/>
<path class="st0" d="M151.2,11.6c0.3,0,0.6,0,0.8-0.1s0.4-0.1,0.5-0.3c0.1-0.1,0.2-0.3,0.3-0.4c0.1-0.2,0.1-0.4,0.1-0.6l1-7.8h2
	l-1.1,8.2c-0.1,0.5-0.2,0.8-0.3,1.2c-0.1,0.3-0.4,0.6-0.6,0.8c-0.3,0.2-0.6,0.4-1.1,0.5c-0.4,0.1-1,0.2-1.6,0.2
	c-0.2,0-0.4-0.1-0.5-0.2c-0.1-0.1-0.2-0.3-0.1-0.6c0-0.3,0.1-0.5,0.2-0.7C150.9,11.7,151,11.6,151.2,11.6 M159.9,2.4l-1.4,10.9h-2
	l1.4-10.9H159.9z M7.2,22.3c-0.4-0.1-0.7-0.2-1.1-0.3c-0.4-0.1-0.7-0.1-1.1-0.1c-0.2,0-0.4,0-0.6,0.1c-0.2,0-0.4,0.1-0.6,0.2
	c-0.2,0.1-0.3,0.2-0.4,0.3c-0.1,0.1-0.2,0.3-0.2,0.5s0,0.4,0.1,0.5s0.2,0.3,0.3,0.4s0.3,0.3,0.6,0.4c0.2,0.1,0.5,0.3,0.8,0.4
	c0.4,0.2,0.8,0.4,1.1,0.6s0.6,0.4,0.8,0.7c0.2,0.3,0.4,0.5,0.5,0.9c0.1,0.3,0.1,0.7,0.1,1.2c-0.1,0.5-0.2,1-0.5,1.4s-0.6,0.7-1,1
	c-0.4,0.3-0.8,0.4-1.3,0.6c-0.5,0.1-1,0.2-1.5,0.2s-1,0-1.5-0.1C1,30.9,0.5,30.8,0,30.6l0.6-1.8C1.1,29,1.5,29.1,2,29.2
	s0.9,0.1,1.3,0.1c0.6,0,1.1-0.1,1.4-0.3c0.3-0.2,0.5-0.5,0.6-0.9c0-0.2,0-0.4-0.1-0.5c-0.1-0.2-0.2-0.3-0.3-0.4
	c-0.2-0.1-0.4-0.3-0.6-0.4c-0.3-0.1-0.5-0.2-0.9-0.4s-0.8-0.3-1.1-0.5s-0.6-0.4-0.8-0.7C1.3,25,1.1,24.7,1,24.4
	c-0.1-0.4-0.1-0.7,0-1.1c0.1-0.5,0.2-1,0.5-1.4s0.6-0.7,1-1c0.4-0.2,0.8-0.4,1.3-0.5s0.9-0.2,1.3-0.2c0.5,0,1,0,1.5,0.1
	s0.9,0.2,1.2,0.3L7.2,22.3L7.2,22.3z M13.4,27.3c-0.4,0-0.7,0-1,0.1c-0.3,0-0.6,0.1-0.9,0.2c-0.3,0.1-0.5,0.2-0.6,0.4
	s-0.2,0.4-0.3,0.6c0,0.3,0,0.6,0.2,0.8c0.2,0.2,0.4,0.3,0.8,0.3c0.3,0,0.6,0,0.8-0.1s0.4-0.2,0.6-0.4c0.2-0.2,0.3-0.4,0.4-0.6
	c0.1-0.2,0.1-0.4,0.2-0.7l0.1-0.5h-0.3V27.3z M13.9,25.9c0.1-0.4,0-0.7-0.3-1c-0.3-0.2-0.7-0.3-1.3-0.3c-0.3,0-0.6,0-0.9,0.1
	c-0.3,0.1-0.7,0.2-1.1,0.3L10,23.4c0.4-0.1,0.8-0.2,1.3-0.3s0.9-0.1,1.3-0.1c1.3,0,2.2,0.3,2.7,0.8s0.7,1.3,0.6,2.2l-0.4,3.2
	c0,0.3-0.1,0.6-0.1,0.9s0,0.6,0,0.8h-1.9c0-0.1,0-0.3,0-0.5s0-0.4,0-0.5l0,0c-0.2,0.3-0.6,0.6-1,0.8S11.6,31,11.1,31
	c-0.3,0-0.7,0-1-0.1s-0.6-0.2-0.9-0.4c-0.3-0.2-0.4-0.4-0.5-0.7s-0.1-0.7-0.1-1.1c0.1-0.6,0.3-1,0.6-1.4s0.7-0.6,1.2-0.8
	s1-0.3,1.6-0.4S13.2,26,13.9,25.9L13.9,25.9z M22.6,31l0.1-1l0,0c-0.3,0.4-0.6,0.7-1.1,0.9s-0.9,0.3-1.4,0.3c-0.4,0-0.8-0.1-1.2-0.2
	c-0.3-0.1-0.6-0.3-0.8-0.6c-0.2-0.2-0.4-0.5-0.5-0.9c-0.1-0.3-0.1-0.7-0.1-1.2l0.7-5.1h2.1l-0.6,4.4c0,0.3-0.1,0.6,0,0.8
	c0,0.2,0.1,0.5,0.2,0.6c0.1,0.2,0.2,0.3,0.4,0.4c0.2,0.1,0.4,0.1,0.7,0.1c0.2,0,0.4,0,0.6-0.1s0.4-0.2,0.6-0.4s0.3-0.4,0.5-0.7
	c0.1-0.3,0.2-0.6,0.3-1l0.5-4.2h2.1l-1,7.8C24.6,31,22.6,31,22.6,31z M28.9,27.1c0,0.4-0.1,0.7,0,1c0,0.3,0.1,0.6,0.2,0.8
	s0.3,0.4,0.5,0.5s0.5,0.2,0.8,0.2s0.6-0.1,0.8-0.2s0.5-0.3,0.7-0.5c0.2-0.2,0.4-0.5,0.5-0.8c0.1-0.3,0.2-0.6,0.3-1c0-0.4,0-0.7,0-1
	s-0.1-0.6-0.3-0.8c-0.1-0.2-0.3-0.4-0.5-0.5s-0.5-0.2-0.8-0.2s-0.6,0.1-0.8,0.2c-0.2,0.1-0.5,0.3-0.6,0.5c-0.2,0.2-0.3,0.5-0.4,0.8
	C29,26.4,29,26.7,28.9,27.1z M33.4,20.1h2.1L34.1,31H32l0.1-1l0,0c-0.4,0.4-0.8,0.7-1.2,0.9c-0.5,0.2-0.9,0.3-1.3,0.3
	c-0.5,0-1-0.1-1.4-0.3s-0.7-0.5-0.9-0.9c-0.2-0.4-0.4-0.8-0.5-1.3s-0.1-1,0-1.6s0.2-1.1,0.4-1.6c0.2-0.5,0.5-0.9,0.8-1.3
	s0.7-0.7,1.2-0.9c0.4-0.2,0.9-0.3,1.5-0.3c0.5,0,0.9,0.1,1.3,0.2c0.4,0.2,0.7,0.4,0.9,0.8l0,0L33.4,20.1L33.4,20.1z M39.7,20.1
	l-0.2,1.8h-2.1l0.2-1.8H39.7L39.7,20.1z M39.3,23.1l-1,7.8h-2.1l1-7.8H39.3z M47.3,24.7h1.5c0.6,0,1-0.1,1.4-0.3
	c0.3-0.2,0.5-0.5,0.6-1c0-0.3,0-0.5-0.1-0.6c-0.1-0.2-0.2-0.3-0.3-0.4s-0.3-0.2-0.5-0.2s-0.4,0-0.6,0h-1.6L47.3,24.7L47.3,24.7z
	 M46.7,29.2h1.7c0.3,0,0.5,0,0.8-0.1c0.2,0,0.4-0.1,0.6-0.2c0.2-0.1,0.3-0.2,0.4-0.4c0.1-0.2,0.2-0.4,0.2-0.7s0-0.5-0.1-0.7
	s-0.2-0.3-0.4-0.4s-0.4-0.2-0.6-0.2c-0.3,0-0.5-0.1-0.8-0.1H47L46.7,29.2L46.7,29.2z M45.7,20.4h4.4c0.5,0,0.9,0,1.3,0.1
	c0.4,0.1,0.7,0.3,1,0.5s0.5,0.5,0.6,0.8s0.2,0.7,0.1,1.2c-0.1,0.7-0.3,1.2-0.7,1.6s-0.8,0.7-1.3,0.8l0,0c0.3,0.1,0.5,0.2,0.7,0.3
	s0.4,0.3,0.5,0.5c0.2,0.2,0.3,0.4,0.3,0.7c0.1,0.3,0.1,0.6,0,1c0,0.4-0.2,0.8-0.3,1.1c-0.2,0.4-0.4,0.7-0.7,0.9
	c-0.3,0.3-0.7,0.5-1.1,0.6c-0.4,0.2-1,0.2-1.6,0.2h-4.5L45.7,20.4L45.7,20.4z M59.1,31l0.1-1l0,0c-0.3,0.4-0.6,0.7-1.1,0.9
	s-0.9,0.3-1.4,0.3c-0.4,0-0.8-0.1-1.2-0.2c-0.3-0.1-0.6-0.3-0.8-0.6c-0.2-0.2-0.4-0.5-0.5-0.9c-0.1-0.3-0.1-0.7-0.1-1.2l0.7-5.1H57
	l-0.6,4.4c0,0.3-0.1,0.6,0,0.8c0,0.2,0.1,0.5,0.2,0.6c0.1,0.2,0.2,0.3,0.4,0.4s0.4,0.1,0.7,0.1c0.2,0,0.4,0,0.6-0.1
	c0.2-0.1,0.4-0.2,0.6-0.4c0.2-0.2,0.3-0.4,0.5-0.7c0.1-0.3,0.2-0.6,0.3-1l0.5-4.2h2.1l-1,7.8L59.1,31L59.1,31z M68.8,25
	c-0.4-0.2-0.7-0.3-1.1-0.3c-0.3-0.1-0.7-0.1-1-0.1s-0.6,0-0.8,0.1c-0.2,0.1-0.3,0.3-0.4,0.5c0,0.2,0,0.4,0.2,0.5s0.5,0.3,1.1,0.5
	c0.4,0.1,0.7,0.3,1,0.4c0.3,0.2,0.6,0.3,0.8,0.5c0.2,0.2,0.3,0.4,0.4,0.7s0.1,0.6,0.1,0.9c-0.1,0.4-0.2,0.8-0.4,1.1
	c-0.2,0.3-0.5,0.5-0.8,0.7s-0.7,0.3-1.1,0.4C66.4,31,66,31,65.6,31c-0.5,0-1,0-1.5-0.1s-1-0.2-1.4-0.4l0.6-1.6
	c0.4,0.2,0.8,0.3,1.3,0.4c0.4,0.1,0.8,0.1,1.1,0.1c0.4,0,0.7-0.1,1-0.2c0.2-0.1,0.4-0.3,0.4-0.5s-0.1-0.4-0.3-0.6
	c-0.2-0.2-0.6-0.3-1.2-0.5c-0.8-0.3-1.4-0.6-1.7-1s-0.5-0.8-0.4-1.4c0.1-0.4,0.2-0.8,0.4-1.1s0.5-0.6,0.8-0.8s0.7-0.3,1-0.4
	c0.4-0.1,0.8-0.1,1.1-0.1c0.4,0,0.8,0,1.3,0.1c0.4,0.1,0.8,0.2,1.2,0.3L68.8,25L68.8,25z M74,20.1l-0.2,1.8h-2.1l0.2-1.8H74z
	 M73.6,23.1l-1,7.8h-2.1l1-7.8H73.6L73.6,23.1z M77.8,23.1l-0.1,1l0,0c0.2-0.4,0.6-0.7,1.1-0.9s1-0.3,1.5-0.3c0.4,0,0.8,0.1,1.2,0.2
	c0.3,0.1,0.6,0.3,0.8,0.6c0.2,0.3,0.4,0.6,0.5,0.9c0.1,0.4,0.1,0.7,0.1,1.2L82,31h-2.1l0.6-4.4c0-0.3,0.1-0.6,0-0.9
	c0-0.3-0.1-0.5-0.1-0.6c-0.1-0.2-0.2-0.3-0.4-0.4c-0.2-0.1-0.4-0.1-0.7-0.1c-0.2,0-0.4,0-0.6,0.1s-0.4,0.2-0.6,0.4s-0.4,0.4-0.5,0.7
	s-0.2,0.6-0.3,1L76.8,31h-2.1l1-7.8C75.7,23.1,77.8,23.1,77.8,23.1z M88.4,24.4c-0.5,0-0.9,0.2-1.3,0.5s-0.6,0.8-0.7,1.3h3.4
	c0.1-0.5,0-1-0.3-1.3C89.3,24.6,88.9,24.4,88.4,24.4z M86.2,27.7c0,0.4,0,0.6,0.2,0.9c0.1,0.2,0.3,0.4,0.5,0.6
	c0.2,0.1,0.5,0.3,0.8,0.3c0.3,0.1,0.6,0.1,0.9,0.1s0.6,0,0.9-0.1c0.3,0,0.7-0.1,1-0.2v1.5c-0.4,0.1-0.7,0.2-1.1,0.2
	c-0.4,0.1-0.8,0.1-1.3,0.1c-0.7,0-1.3-0.1-1.8-0.3S85.4,30.3,85,30c-0.3-0.4-0.6-0.8-0.7-1.3s-0.2-1-0.1-1.7
	c0.1-0.6,0.2-1.1,0.5-1.6c0.2-0.5,0.6-0.9,0.9-1.3c0.4-0.4,0.8-0.6,1.3-0.9c0.5-0.2,1.1-0.3,1.7-0.3s1.1,0.1,1.5,0.3s0.7,0.4,1,0.8
	c0.3,0.3,0.4,0.7,0.5,1.2s0.1,1,0,1.6l-0.1,0.9H86.2L86.2,27.7z M98.3,25c-0.4-0.2-0.7-0.3-1.1-0.3c-0.3-0.1-0.7-0.1-1-0.1
	s-0.6,0-0.8,0.1c-0.2,0.1-0.3,0.3-0.4,0.5c0,0.2,0,0.4,0.2,0.5s0.5,0.3,1.1,0.5c0.4,0.1,0.7,0.3,1,0.4c0.3,0.2,0.6,0.3,0.8,0.5
	c0.2,0.2,0.3,0.4,0.4,0.7s0.1,0.6,0.1,0.9c-0.1,0.4-0.2,0.8-0.4,1.1c-0.2,0.3-0.5,0.5-0.8,0.7s-0.7,0.3-1.1,0.4
	C95.9,31,95.5,31,95.1,31c-0.5,0-1,0-1.5-0.1s-1-0.2-1.4-0.4l0.6-1.6c0.4,0.2,0.8,0.3,1.3,0.4c0.4,0.1,0.8,0.1,1.1,0.1
	c0.4,0,0.7-0.1,1-0.2c0.2-0.1,0.4-0.3,0.4-0.5s-0.1-0.4-0.3-0.6c-0.2-0.2-0.6-0.3-1.2-0.5c-0.8-0.3-1.4-0.6-1.7-1
	c-0.3-0.4-0.5-0.8-0.4-1.4c0.1-0.4,0.2-0.8,0.4-1.1c0.2-0.3,0.5-0.6,0.8-0.8s0.7-0.3,1-0.4c0.4-0.1,0.8-0.1,1.1-0.1
	c0.4,0,0.8,0,1.3,0.1c0.4,0.1,0.8,0.2,1.2,0.3L98.3,25L98.3,25z M105.4,25c-0.4-0.2-0.7-0.3-1.1-0.3c-0.3-0.1-0.7-0.1-1-0.1
	s-0.6,0-0.8,0.1c-0.2,0.1-0.3,0.3-0.4,0.5c0,0.2,0,0.4,0.2,0.5s0.5,0.3,1.1,0.5c0.4,0.1,0.7,0.3,1,0.4c0.3,0.2,0.6,0.3,0.8,0.5
	c0.2,0.2,0.3,0.4,0.4,0.7s0.1,0.6,0.1,0.9c-0.1,0.4-0.2,0.8-0.4,1.1c-0.2,0.3-0.5,0.5-0.8,0.7s-0.7,0.3-1.1,0.4
	c-0.4,0.1-0.8,0.1-1.2,0.1c-0.5,0-1,0-1.5-0.1s-1-0.2-1.4-0.4l0.6-1.6c0.4,0.2,0.8,0.3,1.3,0.4c0.4,0.1,0.8,0.1,1.1,0.1
	c0.4,0,0.7-0.1,1-0.2c0.2-0.1,0.4-0.3,0.4-0.5s-0.1-0.4-0.3-0.6c-0.2-0.2-0.6-0.3-1.2-0.5c-0.8-0.3-1.4-0.6-1.7-1
	c-0.3-0.4-0.5-0.8-0.4-1.4c0.1-0.4,0.2-0.8,0.4-1.1c0.2-0.3,0.5-0.6,0.8-0.8s0.7-0.3,1-0.4c0.4-0.1,0.8-0.1,1.1-0.1
	c0.4,0,0.8,0,1.3,0.1c0.4,0.1,0.8,0.2,1.2,0.3L105.4,25L105.4,25z M119.3,22.3c-0.3-0.1-0.6-0.2-0.9-0.3s-0.6-0.1-1-0.1
	c-0.6,0-1.1,0.1-1.5,0.3c-0.5,0.2-0.8,0.5-1.2,0.8c-0.3,0.3-0.6,0.7-0.8,1.2c-0.2,0.5-0.3,0.9-0.4,1.5c-0.1,0.5-0.1,0.9,0,1.4
	c0.1,0.4,0.2,0.8,0.5,1.2c0.2,0.3,0.6,0.6,1,0.8s0.9,0.3,1.4,0.3c0.4,0,0.8,0,1.1-0.1c0.3-0.1,0.7-0.2,1-0.3l0.2,1.7
	c-0.4,0.2-0.8,0.3-1.3,0.3c-0.5,0.1-0.9,0.1-1.4,0.1c-0.8,0-1.5-0.1-2.1-0.4s-1.1-0.6-1.5-1.1s-0.7-1.1-0.8-1.7
	c-0.2-0.7-0.2-1.4-0.1-2.2s0.3-1.5,0.6-2.2c0.3-0.7,0.8-1.3,1.3-1.7c0.5-0.5,1.1-0.9,1.8-1.1c0.7-0.3,1.5-0.4,2.3-0.4
	c0.5,0,0.9,0,1.3,0.1s0.8,0.2,1.1,0.3C119.9,20.6,119.3,22.3,119.3,22.3z M124.2,24.4c-0.5,0-0.9,0.2-1.3,0.5s-0.6,0.8-0.7,1.3h3.4
	c0.1-0.5,0-1-0.3-1.3C125.1,24.6,124.7,24.4,124.2,24.4z M122,27.7c0,0.4,0,0.6,0.2,0.9c0.1,0.2,0.3,0.4,0.5,0.6
	c0.2,0.1,0.5,0.3,0.7,0.3c0.3,0.1,0.6,0.1,0.9,0.1s0.6,0,0.9-0.1c0.3,0,0.7-0.1,0.9-0.2v1.5c-0.4,0.1-0.7,0.2-1.1,0.2
	c-0.4,0.1-0.8,0.1-1.3,0.1c-0.7,0-1.3-0.1-1.8-0.3s-0.9-0.5-1.3-0.8c-0.3-0.4-0.6-0.8-0.7-1.3s-0.2-1-0.1-1.7
	c0.1-0.6,0.2-1.1,0.5-1.6c0.2-0.5,0.6-0.9,0.9-1.3c0.4-0.4,0.8-0.6,1.3-0.9c0.5-0.2,1.1-0.3,1.7-0.3s1.1,0.1,1.5,0.3s0.7,0.4,1,0.8
	c0.3,0.3,0.4,0.7,0.5,1.2s0.1,1,0,1.6l-0.1,0.8C127.4,27.7,122,27.7,122,27.7z M131.7,23.1l-0.1,1l0,0c0.2-0.4,0.6-0.7,1.1-0.9
	s1-0.3,1.5-0.3c0.4,0,0.8,0.1,1.2,0.2c0.3,0.1,0.6,0.3,0.8,0.6s0.4,0.6,0.5,0.9c0.1,0.4,0.1,0.7,0.1,1.2l-0.7,5.1H134l0.6-4.4
	c0-0.3,0.1-0.6,0-0.9c0-0.3-0.1-0.5-0.1-0.6c-0.1-0.2-0.2-0.3-0.4-0.4s-0.4-0.1-0.7-0.1c-0.2,0-0.4,0-0.6,0.1
	c-0.2,0.1-0.4,0.2-0.6,0.4c-0.2,0.2-0.4,0.4-0.5,0.7s-0.2,0.6-0.3,1l-0.5,4.2h-2.1l1-7.8C129.6,23.1,131.7,23.1,131.7,23.1z
	 M138.1,23.1h1.2l0.3-2.1h2.1l-0.3,2.1h1.6l-0.2,1.6h-1.6l-0.4,3.5c0,0.3,0,0.5,0,0.7s0,0.3,0.1,0.4c0.1,0.1,0.1,0.1,0.2,0.2
	c0.1,0,0.3,0,0.4,0c0.1,0,0.2,0,0.4,0c0.1,0,0.2,0,0.4,0l-0.2,1.6c-0.2,0-0.4,0-0.7,0.1c-0.2,0-0.5,0-0.7,0c-0.5,0-0.9,0-1.2-0.1
	s-0.5-0.2-0.6-0.4s-0.2-0.4-0.3-0.7c0-0.3,0-0.6,0-1l0.5-4h-1.2L138.1,23.1L138.1,23.1z M147.6,24.4c-0.5,0-0.9,0.2-1.3,0.5
	c-0.4,0.3-0.6,0.8-0.7,1.3h3.4c0.1-0.5,0-1-0.3-1.3S148.1,24.4,147.6,24.4L147.6,24.4z M145.4,27.7c0,0.4,0,0.6,0.2,0.9
	c0.1,0.2,0.3,0.4,0.5,0.6c0.2,0.1,0.5,0.3,0.7,0.3c0.3,0.1,0.6,0.1,0.9,0.1c0.3,0,0.6,0,0.9-0.1c0.3,0,0.7-0.1,1-0.2v1.5
	c-0.4,0.1-0.7,0.2-1.1,0.2c-0.4,0.1-0.8,0.1-1.3,0.1c-0.7,0-1.3-0.1-1.8-0.3s-0.9-0.5-1.3-0.8c-0.3-0.4-0.6-0.8-0.7-1.3
	c-0.1-0.5-0.2-1-0.1-1.7c0.1-0.6,0.2-1.1,0.5-1.6c0.2-0.5,0.6-0.9,0.9-1.3c0.4-0.4,0.8-0.6,1.3-0.9c0.5-0.2,1.1-0.3,1.7-0.3
	c0.6,0,1.1,0.1,1.5,0.3s0.7,0.4,1,0.8c0.3,0.3,0.4,0.7,0.5,1.2s0.1,1,0,1.6l-0.1,0.8h-5.2L145.4,27.7L145.4,27.7z M157.4,24.6
	c-0.1,0-0.2,0-0.3,0s-0.2,0-0.3,0c-0.3,0-0.5,0-0.7,0.1s-0.5,0.2-0.7,0.4s-0.4,0.5-0.5,0.8s-0.2,0.8-0.3,1.2l-0.5,3.8H152l1-7.8h2.1
	l-0.1,1l0,0c0.5-0.8,1.2-1.2,2.2-1.2c0.1,0,0.2,0,0.3,0s0.2,0,0.3,0L157.4,24.6L157.4,24.6z"/>
</svg>
