<?xml version="1.0" encoding="utf-8"?>
<!-- Generator: Adobe Illustrator 22.1.0, SVG Export Plug-In . SVG Version: 6.00 Build 0)  -->
<svg version="1.1" id="Layer_1" xmlns="http://www.w3.org/2000/svg" xmlns:xlink="http://www.w3.org/1999/xlink" x="0px" y="0px"
	 viewBox="0 0 106.7 60" style="enable-background:new 0 0 106.7 60;" xml:space="preserve">
<style type="text/css">
	.st0{fill:#FFFFFF;}
</style>
<title>sadaia@1.5x</title>
<g id="Symbols">
	<g id="sadaia">
		<path id="Path_55_" class="st0" d="M5.7,53.6c-0.2-0.2-0.4-0.3-0.7-0.3c-0.3-0.1-0.5-0.2-0.8-0.2l-0.8-0.2c-0.2,0-0.5-0.1-0.7-0.2
			c-0.2-0.1-0.4-0.2-0.5-0.3C2.1,52.2,2,52,2,51.9c0-0.2,0-0.4,0.1-0.5s0.2-0.3,0.3-0.4c0.1-0.1,0.3-0.2,0.5-0.2s0.4-0.1,0.6-0.1
			c0.4,0,0.8,0.1,1.1,0.3c0.3,0.3,0.5,0.6,0.5,1h0.8c0-0.3-0.1-0.6-0.2-0.9c-0.1-0.3-0.3-0.5-0.5-0.7S4.7,50.1,4.4,50
			c-0.2,0-0.5,0-0.8,0S3,50,2.7,50.1s-0.5,0.2-0.8,0.4c-0.5,0.3-0.8,0.9-0.8,1.5c0,0.3,0.1,0.5,0.2,0.8c0.1,0.2,0.3,0.4,0.5,0.5
			s0.4,0.2,0.7,0.3s0.5,0.1,0.8,0.2L4.1,54c0.2,0,0.5,0.1,0.7,0.2c0.2,0.1,0.3,0.2,0.5,0.4c0.1,0.2,0.2,0.4,0.2,0.6
			c0,0.2,0,0.4-0.2,0.6c-0.1,0-0.3,0.1-0.4,0.2c-0.2,0.1-0.4,0.2-0.6,0.2s-0.4,0.1-0.6,0.1c-0.2,0-0.5,0-0.7-0.1S2.6,56,2.4,55.9
			S2.1,55.6,2,55.4c-0.1-0.2-0.2-0.5-0.2-0.7H0.9c0,0.4,0.1,0.7,0.2,1s0.3,0.5,0.6,0.7s0.6,0.3,0.9,0.4C3,57,3.3,57,3.7,57
			c0.3,0,0.6,0,0.9-0.1c0.3-0.1,0.6-0.2,0.8-0.4c0.2-0.2,0.5-0.4,0.6-0.6c0.2-0.3,0.3-0.6,0.2-0.9c0-0.3-0.1-0.6-0.2-0.8
			C6,53.9,5.9,53.8,5.7,53.6L5.7,53.6z"/>
		<path id="Shape" class="st0" d="M11.1,56.1c0-0.1,0-0.3,0-0.4v-2.5c0-0.2,0-0.5-0.2-0.7c-0.1-0.2-0.2-0.3-0.4-0.4
			c-0.2-0.1-0.4-0.2-0.6-0.2c-0.2,0-0.4,0-0.7,0s-0.5,0-0.8,0.1c-0.2,0.1-0.5,0.1-0.6,0.3c-0.2,0.1-0.3,0.3-0.4,0.5
			s-0.2,0.5-0.2,0.8H8c0-0.3,0.1-0.6,0.4-0.7c0.3-0.1,0.5-0.2,0.8-0.2c0.1,0,0.3,0,0.4,0c0.1,0,0.2,0.1,0.4,0.1
			c0.1,0.1,0.2,0.1,0.3,0.3c0.1,0.1,0.1,0.3,0.1,0.4c0,0.1,0,0.2-0.1,0.3s-0.2,0.1-0.4,0.2c-0.2,0-0.4,0-0.6,0s-0.4,0.1-0.6,0.1
			c-0.2,0-0.4,0.1-0.6,0.1c-0.2,0.1-0.4,0.1-0.5,0.3c-0.2,0.1-0.3,0.3-0.4,0.4c-0.1,0.2-0.2,0.4-0.1,0.7c0,0.2,0,0.4,0.1,0.6
			c0.1,0.2,0.2,0.3,0.3,0.4c0.1,0.1,0.3,0.2,0.5,0.2c0.2,0,0.4,0.1,0.6,0.1c0.3,0,0.6-0.1,0.9-0.2c0.3-0.1,0.6-0.3,0.8-0.6
			c0,0.2,0.1,0.4,0.2,0.6c0.1,0.1,0.3,0.2,0.5,0.2s0.4,0,0.6-0.1v-0.6c-0.1,0-0.2,0-0.2,0C11.2,56.3,11.1,56.2,11.1,56.1z
			 M10.3,55.2c0,0.1,0,0.2-0.1,0.4c-0.1,0.1-0.1,0.3-0.3,0.4c-0.1,0.1-0.3,0.2-0.5,0.3S9,56.4,8.7,56.4c-0.1,0-0.2,0-0.4,0
			c-0.1,0-0.2-0.1-0.3-0.1c0-0.3-0.1-0.5-0.1-0.7c0-0.1,0-0.3,0.1-0.4C8,55.1,8.1,55,8.2,55c0.1-0.1,0.2-0.1,0.3-0.2
			c0.1,0,0.2-0.1,0.4-0.1l0.4-0.1c0.1,0,0.3,0,0.4-0.1l0.4-0.1c0.1,0,0.2-0.1,0.3-0.1L10.3,55.2L10.3,55.2z"/>
		<path id="Path_56_" class="st0" d="M15.5,54.7c0,0.2,0,0.4-0.1,0.6c-0.1,0.2-0.1,0.3-0.3,0.5c-0.1,0.1-0.3,0.2-0.4,0.3
			c-0.2,0.1-0.4,0.1-0.6,0.1c-0.3,0-0.5-0.1-0.7-0.3s-0.3-0.4-0.3-0.7V52h-0.8v3.2c0,0.2,0,0.5,0.1,0.7c0,0.2,0.1,0.4,0.3,0.6
			c0.1,0.2,0.3,0.3,0.5,0.4C13.5,57,13.7,57,14,57s0.6-0.1,0.9-0.2c0.3-0.2,0.5-0.4,0.7-0.7l0,0v0.8h0.8V52h-0.8L15.5,54.7z"/>
		<path id="Shape_1_" class="st0" d="M21.1,52.6L21.1,52.6c-0.1-0.1-0.2-0.3-0.3-0.4c-0.1-0.1-0.3-0.2-0.4-0.2
			c-0.1-0.1-0.3-0.1-0.4-0.1s-0.3,0-0.4,0c-0.3,0-0.6,0.1-0.9,0.2c-0.3,0.1-0.5,0.3-0.7,0.5s-0.3,0.5-0.4,0.8s-0.1,0.6-0.1,0.9
			c0,0.3,0,0.6,0.1,0.9c0.1,0.3,0.2,0.6,0.4,0.8c0.2,0.2,0.4,0.4,0.7,0.6c0.3,0.1,0.6,0.2,1,0.2c0.3,0,0.6-0.1,0.9-0.2
			c0.3-0.1,0.5-0.3,0.6-0.6l0,0v0.7H22V50h-0.8L21.1,52.6z M21.1,55.1c-0.1,0.2-0.1,0.4-0.3,0.6c-0.1,0.2-0.3,0.3-0.5,0.4
			c-0.2,0.1-0.4,0.2-0.7,0.2c-0.2,0-0.5,0-0.7-0.1s-0.3-0.2-0.5-0.4c-0.1-0.2-0.2-0.4-0.3-0.6C18,55,18,54.8,18,54.5
			c0-0.2,0-0.5,0.1-0.7c0-0.2,0.1-0.4,0.2-0.6c0.1-0.2,0.3-0.3,0.4-0.4c0.2-0.1,0.5-0.2,0.7-0.2s0.5,0,0.7,0.2
			c0.2,0.1,0.4,0.2,0.5,0.4s0.2,0.4,0.3,0.6C21,54,21,54.3,21,54.5C21.1,54.6,21.1,54.9,21.1,55.1L21.1,55.1z"/>
		<rect id="Rectangle" x="23.2" y="52" class="st0" width="1" height="4.8"/>
		<path id="Shape_2_" class="st0" d="M30.2,50.1h-2.3v6.7h2.3c0.5,0,1-0.1,1.4-0.2c0.4-0.1,0.7-0.4,1-0.7s0.5-0.7,0.6-1.1
			c0.1-0.5,0.2-1,0.2-1.5c0.1-0.9-0.2-1.8-0.8-2.4C32,50.4,31.1,50.1,30.2,50.1z M32.4,54.5c-0.1,0.3-0.2,0.5-0.3,0.7
			s-0.3,0.3-0.4,0.5c-0.2,0.1-0.3,0.2-0.5,0.3c-0.2,0-0.4,0-0.5,0.1h-0.4h-1.5v-5.2h1.5c0.4,0,0.7,0.1,1,0.2
			c0.3,0.1,0.5,0.3,0.7,0.5c0.2,0.2,0.3,0.5,0.4,0.8c0.1,0.4,0.1,0.7,0.1,1.1C32.5,53.8,32.5,54.2,32.4,54.5L32.4,54.5z"/>
		<path id="Shape_3_" class="st0" d="M38.2,56.1c0-0.1,0-0.3,0-0.4v-2.5c0-0.2,0-0.5-0.2-0.7c-0.1-0.2-0.3-0.3-0.4-0.4
			c-0.2-0.1-0.4-0.2-0.6-0.2c-0.2,0-0.4,0-0.6,0c-0.3,0-0.5,0-0.8,0.1c-0.2,0.1-0.5,0.1-0.7,0.3c-0.2,0.1-0.3,0.3-0.5,0.5
			c-0.1,0.2-0.2,0.5-0.2,0.8H35c0-0.3,0.1-0.6,0.4-0.7c0.3-0.1,0.5-0.2,0.8-0.2h0.4c0.1,0,0.2,0.1,0.3,0.1c0.1,0.1,0.2,0.1,0.3,0.3
			c0.1,0.1,0.1,0.3,0.1,0.4c0,0.1,0,0.2-0.1,0.3S37,53.9,36.8,54c-0.2,0-0.3,0.1-0.5,0.1s-0.4,0.1-0.6,0.1c-0.2,0-0.4,0.1-0.6,0.1
			c-0.2,0.1-0.4,0.1-0.5,0.3c-0.2,0.1-0.3,0.3-0.4,0.4c-0.1,0.2-0.2,0.4-0.1,0.7c0,0.2,0,0.4,0.1,0.6c0.1,0.2,0.2,0.3,0.3,0.4
			c0.2,0.1,0.3,0.2,0.5,0.2s0.4,0.1,0.6,0.1c0.3,0,0.6-0.1,0.9-0.2c0.3-0.1,0.6-0.3,0.8-0.6c0,0.2,0,0.4,0.2,0.6
			c0.1,0.1,0.3,0.2,0.5,0.2s0.4,0,0.6-0.1v-0.6c-0.1,0-0.2,0-0.2,0C38.3,56.3,38.3,56.2,38.2,56.1z M37.4,55.2c0,0.1,0,0.2-0.1,0.4
			c-0.1,0.1-0.2,0.3-0.3,0.4c-0.1,0.1-0.3,0.2-0.5,0.3s-0.4,0.1-0.7,0.1c-0.1,0-0.2,0-0.4,0c-0.1,0-0.2-0.1-0.3-0.1
			c-0.1-0.1-0.2-0.1-0.2-0.2c0.1-0.3,0.1-0.4,0.1-0.5c0-0.1,0-0.3,0.1-0.4c0.1-0.1,0.1-0.2,0.2-0.3c0.1-0.1,0.2-0.1,0.3-0.2
			c0.1,0,0.2-0.1,0.4-0.1l0.4-0.1c0.1,0,0.3,0,0.4-0.1l0.4-0.1c0.1,0,0.2-0.1,0.3-0.1v1H37.4z"/>
		<path id="Path_57_" class="st0" d="M40.6,50.5h-0.8V52H39v0.7h0.8v3.1c0,0.2,0,0.4,0.1,0.5c0,0.1,0.1,0.2,0.2,0.3
			c0.1,0.1,0.2,0.1,0.4,0.1s0.4,0,0.5,0h0.6V56h-0.4h-0.3c-0.1,0-0.1,0-0.2-0.1l-0.1-0.1c0-0.1,0-0.2,0-0.2v-3h0.9V52h-0.9V50.5z"/>
		<path id="Shape_4_" class="st0" d="M46.2,56.1c0-0.1,0-0.3,0-0.4v-2.5c0-0.2,0-0.5-0.1-0.7s-0.3-0.3-0.4-0.4
			c-0.2-0.1-0.4-0.2-0.6-0.2c-0.2,0-0.4,0-0.7,0s-0.5,0-0.8,0.1c-0.2,0.1-0.5,0.1-0.6,0.3c-0.2,0.1-0.3,0.3-0.5,0.5
			c-0.1,0.2-0.2,0.5-0.2,0.8h0.8c0-0.3,0.1-0.6,0.4-0.7c0.3-0.1,0.5-0.2,0.8-0.2c0.1,0,0.3,0,0.4,0c0.1,0,0.2,0.1,0.3,0.1
			c0.1,0.1,0.2,0.1,0.3,0.3c0.1,0.1,0.1,0.3,0.1,0.4c0,0.1,0,0.3-0.1,0.3c-0.1,0.1-0.2,0.1-0.4,0.2c-0.2,0-0.3,0.1-0.5,0.1
			s-0.4,0.1-0.6,0.1c-0.2,0-0.4,0.1-0.6,0.1c-0.2,0.1-0.4,0.1-0.5,0.3c-0.2,0.1-0.3,0.3-0.4,0.4c-0.1,0.2-0.2,0.4-0.1,0.7
			c0,0.2,0,0.4,0.1,0.6c0.1,0.2,0.2,0.3,0.3,0.4c0.2,0.1,0.3,0.2,0.5,0.2s0.4,0.1,0.6,0.1c0.3,0,0.6-0.1,0.9-0.2
			c0.3-0.1,0.6-0.3,0.8-0.6c0,0.2,0.1,0.4,0.2,0.6c0.1,0.1,0.3,0.2,0.5,0.2s0.4,0,0.6-0.1v-0.6c-0.1,0-0.2,0-0.2,0
			C46.3,56.3,46.3,56.2,46.2,56.1z M45.4,55.2c0,0.1,0,0.2-0.1,0.4c-0.1,0.1-0.1,0.3-0.3,0.4c-0.1,0.1-0.3,0.2-0.5,0.3
			s-0.4,0.1-0.7,0.1c-0.1,0-0.2,0-0.4,0c-0.1,0-0.2-0.1-0.3-0.1c-0.1-0.1-0.2-0.1-0.2-0.2c0.1-0.3,0.1-0.4,0.1-0.5
			c0-0.1,0-0.3,0.1-0.4c0-0.1,0.1-0.2,0.2-0.3c0.1-0.1,0.2-0.1,0.3-0.2c0.1,0,0.2-0.1,0.4-0.1l0.4-0.1c0.1,0,0.3,0,0.4-0.1l0.4-0.1
			c0.1,0,0.2-0.1,0.3-0.1v1H45.4z"/>
		<path id="Shape_5_" class="st0" d="M54.4,54.9c0.1-0.1,0.1-0.2,0.1-0.3s0.1-0.3,0.1-0.4c0-0.1,0-0.3,0.1-0.5h-0.8
			c0,0.4-0.1,0.7-0.2,1l-1.2-1.5c0.2-0.1,0.3-0.2,0.5-0.3s0.3-0.2,0.4-0.4c0.1-0.1,0.2-0.3,0.3-0.5s0.1-0.4,0.1-0.6
			c0-0.2,0-0.4-0.1-0.6c-0.1-0.2-0.2-0.3-0.4-0.4c-0.2-0.1-0.3-0.2-0.5-0.3S52.4,50,52.2,50c-0.2,0-0.4,0-0.6,0.1
			c-0.2,0.1-0.3,0.2-0.5,0.3c-0.1,0.1-0.2,0.3-0.3,0.4c-0.1,0.3-0.1,0.6,0,0.9c0,0.1,0.1,0.3,0.2,0.4c0.1,0.1,0.1,0.2,0.2,0.4
			l0.3,0.4c-0.2,0.1-0.4,0.2-0.6,0.4c-0.2,0.1-0.4,0.3-0.5,0.4c-0.1,0.2-0.3,0.3-0.3,0.5C50,54.4,50,54.7,50,54.9s0,0.3,0.1,0.5
			s0.2,0.4,0.3,0.6c0.2,0.2,0.4,0.4,0.6,0.5c0.3,0.2,0.7,0.2,1.1,0.2c0.2,0,0.4,0,0.6-0.1c0.2,0,0.4-0.1,0.5-0.2
			c0.2-0.1,0.3-0.2,0.5-0.3c0.1-0.1,0.3-0.3,0.4-0.4l0.7,0.8h1L54.5,55C54.3,55.2,54.3,55,54.4,54.9z M51.6,51
			c0.2-0.1,0.3-0.2,0.5-0.2s0.4,0.1,0.6,0.2c0.1,0.1,0.2,0.3,0.2,0.5c0,0.1,0,0.3-0.1,0.4c-0.1,0.1-0.1,0.2-0.2,0.3
			c-0.1,0.1-0.2,0.2-0.3,0.3L52,52.7l-0.2-0.3l-0.2-0.3c-0.1-0.1-0.1-0.2-0.2-0.3c0-0.1-0.1-0.2-0.1-0.3
			C51.4,51.3,51.4,51.1,51.6,51L51.6,51z M52.7,56c-0.3,0.1-0.5,0.2-0.8,0.2c-0.2,0-0.3,0-0.5-0.1S51.1,56,51,55.9
			c-0.2-0.2-0.4-0.5-0.4-0.8c0-0.2,0-0.4,0.1-0.5s0.1-0.3,0.3-0.4c0.1-0.1,0.2-0.2,0.4-0.3c0.1-0.1,0.3-0.2,0.4-0.3l1.5,1.9
			C53.1,55.7,52.9,55.9,52.7,56z"/>
		<path id="Shape_6_" class="st0" d="M60.5,50.1l-2.6,6.7h0.9l0.8-2h2.8l0.7,2H64l-2.6-6.7H60.5z M59.9,54.1L61,51l0,0l1.1,3.1H59.9
			z"/>
		<rect id="Rectangle_1_" x="64.8" y="50.1" class="st0" width="1" height="6.7"/>
		<path id="Shape_7_" class="st0" d="M71.6,50.1L69,56.8h1l0.8-2h2.8l0.7,2h1l-2.6-6.7H71.6z M71,54.1l1.1-3.1l0,0l1.2,3.1H71z"/>
		<path id="Path_58_" class="st0" d="M79,54.7c0,0.2,0,0.4-0.1,0.6c-0.1,0.2-0.1,0.3-0.3,0.5c-0.1,0.1-0.3,0.2-0.4,0.3
			c-0.2,0.1-0.4,0.1-0.6,0.1c-0.3,0-0.5-0.1-0.7-0.3s-0.3-0.4-0.3-0.7V52h-0.8v3.2c0,0.2,0,0.5,0.1,0.7s0.1,0.4,0.3,0.6
			c0.1,0.2,0.3,0.3,0.5,0.4C77,57,77.2,57,77.5,57s0.6-0.1,0.9-0.2c0.3-0.2,0.5-0.4,0.7-0.7l0,0v0.8h0.8V52H79V54.7z"/>
		<path id="Path_59_" class="st0" d="M82.1,50.5h-0.8V52h-0.8v0.7h0.8v3.1c0,0.2,0,0.4,0.1,0.5c0,0.1,0.1,0.2,0.2,0.3
			s0.2,0.1,0.4,0.1c0.2,0,0.4,0,0.5,0h0.6V56h-0.4h-0.3c-0.1,0-0.1,0-0.2-0.1l-0.1-0.1c0-0.1,0-0.2,0-0.2v-3H83V52h-0.9V50.5z"/>
		<path id="Path_60_" class="st0" d="M87.6,52.4c-0.1-0.2-0.3-0.3-0.5-0.4c-0.3-0.1-0.5-0.1-0.8-0.1s-0.6,0.1-0.9,0.2
			c-0.1,0.1-0.3,0.2-0.4,0.3s-0.2,0.2-0.3,0.4l0,0v-2.6H84v6.7h0.8v-2.7c0-0.2,0-0.4,0.1-0.6c0.1-0.2,0.1-0.3,0.3-0.5
			c0.1-0.1,0.3-0.3,0.4-0.3c0.2-0.1,0.4-0.1,0.6-0.1c0.3,0,0.5,0.1,0.7,0.3s0.3,0.4,0.3,0.7V57H88v-3.2c0-0.2,0-0.5-0.1-0.7
			C87.8,52.7,87.7,52.5,87.6,52.4z"/>
		<path id="Shape_8_" class="st0" d="M93,52.6c-0.2-0.2-0.5-0.4-0.7-0.5c-0.3-0.1-0.7-0.2-1-0.2c-0.4,0-0.7,0.1-1,0.2
			c-0.3,0.1-0.5,0.3-0.7,0.5s-0.4,0.5-0.4,0.8c-0.1,0.3-0.2,0.7-0.1,1c0,0.3,0,0.7,0.1,1s0.2,0.6,0.4,0.8c0.2,0.2,0.4,0.4,0.7,0.5
			c0.3,0.1,0.7,0.2,1,0.2s0.7-0.1,1-0.2c0.3-0.1,0.5-0.3,0.7-0.5s0.4-0.5,0.4-0.8c0.1-0.3,0.2-0.7,0.2-1s0-0.7-0.2-1
			C93.3,53.1,93.2,52.8,93,52.6L93,52.6z M92.6,55.2c-0.1,0.2-0.2,0.4-0.3,0.6c-0.1,0.2-0.3,0.3-0.5,0.4c-0.4,0.2-0.8,0.2-1.2,0
			c-0.2-0.1-0.3-0.2-0.5-0.4c-0.1-0.2-0.3-0.4-0.3-0.6c-0.1-0.5-0.1-1.1,0-1.6c0.1-0.2,0.2-0.4,0.3-0.6c0.1-0.2,0.3-0.3,0.5-0.4
			c0.4-0.2,0.8-0.2,1.2,0c0.2,0.1,0.3,0.2,0.5,0.4c0.1,0.2,0.3,0.4,0.3,0.6C92.8,54.1,92.8,54.7,92.6,55.2L92.6,55.2z"/>
		<path id="Path_61_" class="st0" d="M95.3,53L95.3,53v-1h-0.8v4.9h0.8v-2.2c0-0.3,0-0.6,0.1-0.8s0.2-0.4,0.3-0.6
			c0.1-0.2,0.3-0.3,0.6-0.4c0.3-0.1,0.5-0.1,0.8-0.1V52c-0.4,0-0.8,0.1-1.1,0.3C95.7,52.3,95.4,52.7,95.3,53L95.3,53z"/>
		<rect id="Rectangle_2_" x="97.7" y="52" class="st0" width="1" height="4.8"/>
		<path id="Path_62_" class="st0" d="M100.9,50.5h-0.8V52h-0.8v0.7h0.8v3.1c0,0.2,0,0.4,0.1,0.5c0,0.1,0.1,0.2,0.2,0.3
			s0.2,0.1,0.4,0.1c0.2,0,0.4,0,0.5,0h0.6V56h-0.4h-0.3c-0.1,0-0.1,0-0.2-0.1l-0.1-0.1c0-0.1,0-0.2,0-0.2v-3h0.9V52h-0.9L100.9,50.5
			z"/>
		<path id="Path_63_" class="st0" d="M105.9,52l-1.4,4l0,0l-1.4-4h-0.9l1.9,4.8l-0.3,0.8c-0.1,0.1-0.2,0.2-0.3,0.3
			c-0.1,0.1-0.3,0.1-0.4,0.1s-0.2,0-0.2,0l-0.2-0.1v0.7c0.1,0,0.2,0.1,0.3,0.1h0.3c0.2,0,0.3,0,0.5-0.1c0.1,0,0.3-0.1,0.4-0.2
			c0.1-0.1,0.2-0.3,0.3-0.4c0.1-0.2,0.2-0.4,0.3-0.6l2.1-5.5L105.9,52z"/>
		<polygon id="Path_64_" class="st0" points="23.9,50.1 23.2,50.1 23.2,51.1 23.9,50.6 		"/>
		<polygon id="Path_65_" class="st0" points="98.5,50.1 97.7,50.1 97.7,51.1 98.5,50.6 		"/>
		<path id="Path_66_" class="st0" d="M1,33.8C1.2,33.9,1.4,34,1.6,34c0.3,0.1,0.6,0.1,0.9,0.1h5.7v-3.6H7.5v2.8H2.9
			c-0.3,0-0.5,0-0.7,0s-0.3-0.1-0.5-0.1c-0.1-0.1-0.2-0.1-0.2-0.3c-0.1-0.1-0.1-0.3-0.1-0.5v-1.2H0.6v1.5c0,0.2,0,0.4,0.1,0.6
			C0.8,33.6,0.9,33.7,1,33.8L1,33.8z"/>
		<path id="Path_67_" class="st0" d="M9.9,33.9c0.1,0.1,0.3,0.2,0.4,0.2c0.2,0,0.4,0.1,0.5,0.1h3.8v-3.6h-0.8v2.8h-3
			c-0.3,0-0.5-0.1-0.5-0.2c-0.1-0.2-0.1-0.4-0.1-0.6v-5.2H9.5v5.4c0,0.2,0,0.4,0.1,0.6C9.7,33.6,9.8,33.8,9.9,33.9z"/>
		<path id="Path_68_" class="st0" d="M16.4,33.9c0.1,0.1,0.3,0.2,0.4,0.2c0.2,0,0.4,0.1,0.6,0.1h2.4c0.3,0,0.6,0,0.9-0.1
			c0.2-0.1,0.4-0.3,0.5-0.5c0,0.2,0.2,0.3,0.3,0.4c0.2,0.1,0.4,0.2,0.6,0.2h0.8c0.3,0,0.6,0,0.9-0.1c0.2-0.1,0.4-0.3,0.5-0.5
			c0.1,0.2,0.2,0.3,0.3,0.4c0.2,0.1,0.4,0.2,0.6,0.2h0.7c0.3,0,0.6,0,0.9-0.1c0.2-0.1,0.4-0.3,0.5-0.5c0,0.2,0.1,0.3,0.3,0.4
			c0.2,0.1,0.4,0.2,0.6,0.2h2.2v-6.7h-0.8v5.9h-1.5c-0.2,0-0.5-0.1-0.6-0.3s-0.2-0.5-0.2-0.8v-4.9h-0.8v5.2c0,0.1,0,0.2-0.1,0.4
			s-0.2,0.3-0.4,0.3h-0.3h-0.8c-0.1,0-0.3,0-0.4-0.1s-0.2-0.1-0.3-0.2c-0.1-0.1-0.1-0.2-0.1-0.3s0-0.3,0-0.4v-1.8h-0.8v2.1
			c0,0.1,0,0.2,0,0.4c0,0.1-0.1,0.2-0.2,0.2s-0.2,0.1-0.3,0.1h-0.4h-0.6c-0.1,0-0.3,0-0.4-0.1s-0.2-0.1-0.3-0.2
			C21,32.9,21,32.8,21,32.7s0-0.3,0-0.4v-1.8h-0.8v2.1c0,0.1,0,0.2,0,0.4c0,0.1-0.1,0.2-0.2,0.2s-0.2,0.1-0.3,0.1h-0.4H17
			c-0.3,0-0.5-0.1-0.5-0.2c-0.1-0.2-0.1-0.4-0.1-0.6v-5.2H16v5.4c0,0.2,0,0.4,0.1,0.6C16.2,33.6,16.2,33.8,16.4,33.9L16.4,33.9z"/>
		<path id="Shape_9_" class="st0" d="M34.3,33.1c0.2,0.1,0.4,0.2,0.6,0.2c0.2,0,0.3,0.1,0.5,0.1s0.3,0,0.5,0s0.3-0.1,0.5-0.1
			c0,0.3,0.2,0.6,0.4,0.8c0.1,0.1,0.3,0.1,0.4,0.1c0.2,0,0.3,0,0.5,0h3.9v-3.6h-0.8v2.8h-3.1c-0.3,0-0.5-0.1-0.5-0.2
			c-0.1-0.2-0.1-0.4-0.1-0.6V30h-1.5c-0.2,0-0.5,0-0.7,0.1s-0.4,0.2-0.6,0.3c-0.2,0.2-0.3,0.3-0.5,0.6c-0.1,0.3-0.2,0.6-0.2,0.8
			c0,0.3,0.1,0.6,0.2,0.8C34,32.8,34.2,33,34.3,33.1z M34.8,31c0.2-0.2,0.5-0.2,0.8-0.2h0.8v1.7c-0.1,0-0.3,0.1-0.4,0.1
			c-0.1,0-0.3,0-0.4,0c-0.3,0-0.6-0.1-0.8-0.2c-0.2-0.2-0.3-0.4-0.3-0.7C34.4,31.3,34.6,31.1,34.8,31L34.8,31z"/>
		<path id="Path_69_" class="st0" d="M45.7,33.9c0.2-0.2,0.3-0.5,0.3-0.7c0-0.1,0-0.3-0.1-0.4c-0.1-0.2-0.2-0.4-0.3-0.5
			c-0.1-0.2-0.3-0.5-0.5-0.7c-0.2-0.3-0.4-0.7-0.7-1.1L43.7,31l0.8,1.1c0.2,0.3,0.3,0.5,0.4,0.6c0.1,0.1,0.1,0.2,0.2,0.3
			c0,0.1,0,0.1,0,0.2c0,0.1,0,0.2-0.1,0.2c-0.1,0.1-0.3,0.1-0.4,0.1h-2.2v0.8h2.2C45.1,34.2,45.5,34.1,45.7,33.9L45.7,33.9z"/>
		<path id="Shape_10_" class="st0" d="M65.5,33.4H64c-0.1,0-0.3,0-0.4-0.1c-0.1-0.1-0.2-0.1-0.3-0.2c-0.1-0.1-0.1-0.2-0.1-0.3
			s0-0.3,0-0.4v-1.8h-0.8v2.1c0,0.1,0,0.2,0,0.4c0,0.1-0.1,0.2-0.2,0.2c-0.1,0-0.1,0.1-0.2,0.1h-0.3c-0.2,0-0.3,0-0.4-0.1
			c-0.1,0-0.2-0.1-0.3-0.2c0-0.1,0-0.2-0.1-0.3c0-0.1,0-0.3,0-0.4V31h-0.8v1.7c0,0.1,0,0.2-0.1,0.4c0,0.1-0.1,0.2-0.2,0.2
			c-0.1,0-0.2,0.1-0.3,0.1h-0.4c-0.2,0-0.4,0-0.5-0.1c-0.1,0-0.2-0.1-0.3-0.2c-0.1-0.1-0.1-0.2-0.1-0.3s0-0.3,0-0.4V31h-0.8v1.7
			c0,0.1,0,0.2-0.1,0.4c0,0.1-0.1,0.2-0.2,0.2c-0.1,0.1-0.2,0.1-0.3,0.1h-0.5h-1.6c-0.2,0-0.3,0-0.5,0c0.3-0.2,0.6-0.5,0.8-0.8
			s0.3-0.6,0.3-0.9c0-0.1,0-0.3-0.1-0.4S55,31,54.9,30.9s-0.3-0.2-0.5-0.3c-0.2-0.1-0.5-0.1-0.7-0.1c-0.3,0-0.6,0.1-0.9,0.2
			c-0.3,0.1-0.5,0.3-0.7,0.5L52,31.3c0,0.1-0.1,0.1-0.1,0.2s-0.1,0.1-0.1,0.2s-0.1,0.1-0.1,0.2l1.2,1.3c-0.2,0.1-0.4,0.1-0.7,0.2
			c-0.2,0-0.5,0-0.7,0h-1.1V33c0-0.3,0-0.7-0.1-1s-0.2-0.5-0.3-0.8c-0.1-0.2-0.3-0.4-0.5-0.5c-0.3-0.1-0.5-0.2-0.8-0.2
			s-0.5,0.1-0.8,0.2c-0.2,0.1-0.4,0.3-0.6,0.5c-0.2,0.2-0.3,0.4-0.4,0.6c-0.1,0.2-0.1,0.5-0.1,0.7c0,0.3,0,0.5,0.1,0.8
			c0.1,0.2,0.2,0.4,0.4,0.5s0.4,0.2,0.6,0.3c0.2,0.1,0.5,0.1,0.7,0.1h1.1c0,0.2-0.1,0.4-0.2,0.6c-0.1,0.2-0.2,0.3-0.4,0.4
			c-0.2,0.1-0.4,0.2-0.6,0.2c-0.3,0-0.5,0-0.8,0h-0.3v0.8h0.4c0.4,0,0.7,0,1.1-0.1c0.3-0.1,0.6-0.2,0.8-0.3s0.4-0.4,0.5-0.6
			c0.1-0.3,0.2-0.6,0.2-0.9h1.1c0.3,0,0.6,0,0.9-0.1c0.3-0.1,0.6-0.2,0.9-0.3c0.2,0.1,0.3,0.2,0.5,0.3c0.2,0,0.3,0.1,0.5,0.1h1.9
			c0.3,0,0.5,0,0.7,0s0.3,0,0.5-0.1c0.1,0,0.2-0.1,0.3-0.2c0.1-0.1,0.2-0.2,0.2-0.3c0,0.1,0,0.1,0.1,0.2c0.1,0.1,0.1,0.1,0.2,0.2
			c0.1,0.1,0.2,0.1,0.4,0.1s0.4,0.1,0.6,0.1c0.3,0,0.6,0,0.8-0.1s0.4-0.3,0.5-0.5c0,0.1,0.1,0.1,0.1,0.2c0.1,0.1,0.1,0.1,0.2,0.2
			c0.1,0.1,0.2,0.1,0.4,0.2c0.2,0,0.3,0.1,0.5,0.1H62c0.1,0,0.2,0,0.3-0.1c0.1,0,0.2-0.1,0.3-0.2c0.1-0.1,0.2-0.2,0.2-0.3
			c0.1,0.2,0.2,0.3,0.3,0.4c0.2,0.1,0.4,0.2,0.6,0.2H66v-6.7h-0.8L65.5,33.4z M49.7,33.4h-1c-0.3,0-0.6-0.1-0.8-0.2
			c-0.2-0.2-0.3-0.4-0.3-0.7c0-0.1,0-0.3,0.1-0.4c0-0.1,0.1-0.3,0.2-0.4c0.1-0.1,0.2-0.2,0.3-0.3c0.1-0.1,0.3-0.1,0.5-0.1
			c0.3,0,0.6,0.1,0.8,0.4s0.3,0.7,0.2,1.1V33.4z M53.6,32.9l-1.1-1.2c0.1-0.2,0.3-0.3,0.5-0.4s0.5-0.2,0.7-0.1c0.2,0,0.5,0,0.7,0.2
			c0.1,0.1,0.2,0.2,0.2,0.4s-0.1,0.5-0.3,0.7C54.2,32.6,53.9,32.8,53.6,32.9L53.6,32.9z"/>
		<rect id="Rectangle_3_" x="67.6" y="27.5" class="st0" width="1" height="6.7"/>
		<path id="Path_70_" class="st0" d="M80.3,29h-0.6c-0.2,0-0.3,0-0.5-0.2C79,28.7,79,28.5,79,28.3c0-0.1,0-0.3,0.1-0.4
			s0.3-0.2,0.4-0.2c0.2,0,0.3,0,0.5,0.1v-0.5h-0.2c-0.1,0-0.2,0-0.3,0c-0.1,0-0.3,0-0.4,0.1c-0.1,0-0.2,0.1-0.3,0.2
			c-0.1,0.1-0.2,0.2-0.2,0.3c-0.1,0.1-0.1,0.3-0.1,0.5s0.1,0.5,0.2,0.6h-0.5v0.5h2V29H80.3z"/>
		<path id="Shape_11_" class="st0" d="M90.7,27.5h-0.8v5.9h-2.8l0,0c0.2-0.2,0.3-0.4,0.5-0.6c0.1-0.3,0.2-0.6,0.2-0.9
			c0-0.2,0-0.3-0.1-0.5s-0.1-0.3-0.3-0.5c-0.1-0.2-0.3-0.3-0.4-0.4c-0.2-0.1-0.5-0.2-0.7-0.1c-0.5,0-1,0.2-1.3,0.6
			c-0.3,0.5-0.5,1.1-0.5,1.7v0.5h-0.9c-0.1,0-0.3,0-0.4-0.1S83,33,82.9,32.9c-0.1-0.1-0.1-0.2-0.1-0.3s0-0.3,0-0.4v-1.8H82v2.1
			c0,0.1,0,0.2,0,0.4c0,0.1-0.1,0.2-0.2,0.2s-0.2,0.1-0.3,0.1h-0.4h-0.6c-0.1,0-0.3,0-0.4-0.1s-0.2-0.1-0.3-0.2
			c-0.1-0.1-0.1-0.2-0.1-0.3s0-0.3,0-0.4v-1.8h-0.9v2.1c0,0.1,0,0.2-0.1,0.4c0,0.1-0.1,0.2-0.2,0.2s-0.2,0.1-0.3,0.1H78h-2.3
			c-0.3,0-0.5-0.1-0.5-0.2c-0.1-0.2-0.1-0.4-0.1-0.6V30h-1.5c-0.2,0-0.5,0-0.7,0.1s-0.4,0.2-0.6,0.3c-0.2,0.2-0.3,0.3-0.5,0.6
			c-0.1,0.3-0.2,0.6-0.2,0.8c0,0.3,0.1,0.6,0.2,0.8s0.3,0.4,0.5,0.5s0.4,0.2,0.6,0.2s0.3,0.1,0.5,0.1s0.3,0,0.5,0s0.3-0.1,0.5-0.1
			c0,0.2,0.1,0.3,0.2,0.5c0.1,0.1,0.2,0.2,0.3,0.3c0.1,0.1,0.3,0.1,0.4,0.1c0.2,0,0.3,0,0.5,0h2.5c0.3,0,0.6,0,0.9-0.1
			c0.2-0.1,0.4-0.3,0.5-0.5c0,0.2,0.2,0.3,0.3,0.4c0.2,0.1,0.4,0.2,0.6,0.2h0.8c0.3,0,0.6,0,0.9-0.1c0.2-0.1,0.4-0.3,0.5-0.5
			c0,0.2,0.2,0.3,0.3,0.4c0.2,0.1,0.4,0.2,0.6,0.2h1v0.1c0,0.3,0,0.6,0.1,0.9c0.1,0.2,0.1,0.5,0.3,0.7c0.1,0.2,0.3,0.3,0.5,0.4
			c0.3,0.1,0.5,0.2,0.8,0.2c0.2,0,0.4,0,0.6-0.1s0.3-0.2,0.5-0.3c0.1-0.1,0.2-0.3,0.3-0.4c0.1-0.2,0.1-0.3,0.1-0.5
			c0-0.1,0-0.3-0.1-0.4c-0.1-0.2-0.2-0.3-0.3-0.5l0,0h3.3L90.7,27.5z M74.3,32.4c-0.1,0-0.3,0.1-0.4,0.1s-0.3,0-0.4,0
			c-0.3,0-0.6-0.1-0.8-0.2c-0.2-0.2-0.3-0.4-0.3-0.6c0-0.3,0.1-0.6,0.3-0.7c0.2-0.2,0.5-0.2,0.8-0.2h0.8V32.4z M85.3,32.8
			c0-0.4,0.1-0.8,0.3-1.2c0.1-0.3,0.4-0.4,0.7-0.4c0.2,0,0.4,0.1,0.5,0.2c0.2,0.2,0.2,0.4,0.2,0.7c0,0.1,0,0.3-0.1,0.4
			c0,0.2-0.1,0.3-0.2,0.4c-0.1,0.1-0.2,0.3-0.4,0.3c-0.2,0.1-0.4,0.1-0.6,0.1h-0.4V32.8z M86.8,35.6c-0.2,0.1-0.4,0.2-0.6,0.2
			s-0.3,0-0.5-0.1c-0.1-0.1-0.2-0.2-0.3-0.3c-0.1-0.1-0.1-0.3-0.1-0.4c0-0.2,0-0.4,0-0.6v-0.2H86c0.2,0,0.4,0,0.6,0.1
			c0.1,0.1,0.2,0.1,0.3,0.2c0.1,0.1,0.1,0.2,0.1,0.3s0,0.2,0,0.2C87.1,35.2,87,35.4,86.8,35.6L86.8,35.6z"/>
		<rect id="Rectangle_4_" x="92" y="27.5" class="st0" width="1" height="6.7"/>
		<path id="Path_71_" class="st0" d="M6.6,45.5h4.8v-0.8H10c-0.3,0-0.7-0.1-0.9-0.3s-0.3-0.5-0.3-0.8s0.1-0.6,0.3-0.8
			c0.3-0.2,0.6-0.3,0.9-0.3c0.2,0,0.3,0,0.5,0c0.1,0,0.3,0.1,0.4,0.1v-0.8c-0.1,0-0.2-0.1-0.3-0.1c-0.2,0-0.4,0-0.6,0
			c-0.2,0-0.5,0-0.7,0.1S8.8,42,8.6,42.1c-0.2,0.2-0.4,0.4-0.5,0.6C8.1,43,8,43.3,8,43.6c0,0.2,0,0.4,0.1,0.6
			c0.1,0.2,0.2,0.3,0.3,0.5H6.3c-0.8,0-1.5-0.2-2.3-0.4V45l0.7,0.2c0.2,0.1,0.5,0.1,0.7,0.2c0.2,0.1,0.4,0.2,0.5,0.3
			s0.2,0.2,0.2,0.4c0,0.1-0.1,0.3-0.2,0.3c-0.2,0.1-0.3,0.2-0.5,0.3s-0.5,0.1-0.8,0.2c-0.3,0-0.6,0-0.9,0c-0.6,0-1.3-0.1-1.9-0.4
			c-0.4-0.3-0.6-0.7-0.6-1.2v-1.2H0.6v1.4c0,0.3,0,0.6,0.1,0.9c0.1,0.3,0.3,0.5,0.5,0.7c0.3,0.2,0.6,0.4,0.9,0.5
			c0.5,0.1,1,0.2,1.6,0.2c0.5,0,1,0,1.4-0.1c0.3-0.1,0.6-0.2,0.9-0.3c0.2-0.1,0.4-0.3,0.5-0.5s0.2-0.4,0.2-0.6c0-0.1,0-0.3-0.1-0.4
			C6.7,45.7,6.7,45.6,6.6,45.5L6.6,45.5z"/>
		<path id="Shape_12_" class="st0" d="M32,41.8c-0.4,0-0.8,0.1-1.2,0.3c-0.4,0.2-0.7,0.4-1,0.7s-0.5,0.6-0.8,0.9
			c-0.2,0.3-0.4,0.7-0.5,1c-0.1,0-0.2,0-0.4-0.1c-0.1,0-0.2-0.1-0.2-0.2c0.1-0.1,0.1-0.2,0.1-0.3c0-0.1,0-0.3,0-0.4v-1.3h-0.8v1.7
			c0,0.1,0,0.2-0.1,0.4c0,0.1-0.1,0.2-0.2,0.2c-0.1,0.1-0.2,0.1-0.3,0.1h-0.5h-1V44c0-0.6-0.2-1.1-0.5-1.6c-0.4-0.4-0.9-0.6-1.4-0.6
			s-1,0.1-1.5,0.4c-0.5,0.3-0.8,0.7-1.1,1.2v-4.6h-0.8v5.9h-1.1c-0.1,0-0.3,0-0.4-0.1c-0.1,0-0.2-0.1-0.3-0.2
			c-0.1-0.1-0.1-0.2-0.1-0.3s0-0.3,0-0.4v-1.8h-0.8v2.2c0,0.1,0,0.2-0.1,0.4c0,0.1-0.1,0.2-0.2,0.2s-0.2,0.1-0.3,0.1h-0.4H14
			c-0.3,0-0.5-0.1-0.5-0.2c-0.1-0.2-0.1-0.4-0.1-0.6v-5.2h-0.8v5.4c0,0.2,0,0.4,0.1,0.6c0.1,0.2,0.1,0.3,0.3,0.4
			c0.1,0.1,0.3,0.2,0.4,0.2c0.2,0,0.4,0.1,0.5,0.1h2.4c0.3,0,0.6,0,0.9-0.1c0.2-0.1,0.4-0.3,0.5-0.5c0,0.2,0.2,0.3,0.3,0.4
			c0.2,0.1,0.4,0.2,0.6,0.2H26c0.3,0,0.5,0,0.7,0s0.4,0,0.5-0.1c0.1,0,0.3-0.1,0.4-0.2c0.1-0.1,0.2-0.2,0.2-0.3
			c0,0.1,0.1,0.1,0.1,0.2c0,0.1,0.1,0.1,0.2,0.2c0.1,0.1,0.2,0.1,0.3,0.1c0.2,0,0.3,0.1,0.5,0.1H34v-1.6c0-0.6-0.1-1.1-0.5-1.6
			C33.1,41.9,32.6,41.7,32,41.8L32,41.8z M24.3,44.7h-3.8c0.1-0.3,0.2-0.5,0.4-0.8c0.1-0.3,0.3-0.5,0.5-0.7s0.4-0.4,0.7-0.5
			c0.3-0.1,0.5-0.2,0.8-0.2c0.2,0,0.4,0,0.6,0.1s0.3,0.2,0.4,0.3s0.2,0.3,0.2,0.5s0.1,0.4,0.1,0.6L24.3,44.7z M33.3,44.7h-3.8
			c0.1-0.3,0.2-0.5,0.4-0.8c0.2-0.3,0.3-0.5,0.6-0.7c0.2-0.2,0.5-0.4,0.7-0.5c0.3-0.1,0.5-0.2,0.8-0.2c0.2,0,0.4,0,0.6,0.1
			c0.2,0.1,0.3,0.2,0.4,0.3c0.1,0.1,0.2,0.3,0.2,0.5s0.1,0.4,0.1,0.6V44.7z"/>
		<polygon id="Path_72_" class="st0" points="37.1,40.2 37.1,44.7 35,44.7 35,45.5 40.3,45.5 40.3,38.8 39.5,38.8 39.5,44.7 
			37.9,44.7 37.9,40.2 		"/>
		<rect id="Rectangle_5_" x="41.6" y="38.8" class="st0" width="1" height="6.7"/>
		<path id="Path_73_" class="st0" d="M47.2,44.6C47,44.4,46.9,44.2,47,44c0-0.1,0-0.2,0-0.3s0.1-0.2,0.1-0.2
			c0.1-0.1,0.2-0.1,0.2-0.2c0.1,0,0.2-0.1,0.4-0.1s0.5,0,0.7,0.1v-0.7l-0.3-0.1c-0.2,0-0.3,0-0.5,0s-0.3,0-0.5,0.1s-0.3,0.1-0.4,0.3
			c-0.1,0.1-0.2,0.3-0.3,0.4c-0.1,0.2-0.1,0.4-0.1,0.6c0,0.3,0.1,0.6,0.3,0.9h-0.7v0.7h2.8v-0.7h-0.9C47.6,44.8,47.3,44.7,47.2,44.6
			L47.2,44.6z"/>
		<path id="Path_74_" class="st0" d="M53.3,41.1c0,0.1-0.1,0.1-0.1,0.2c0,0.1-0.1,0.1-0.1,0.2c0,0.1,0,0.2-0.1,0.2
			c0.3,0.2,0.7,0.4,1,0.6c0.3,0.2,0.6,0.4,0.9,0.6c0.2,0.2,0.4,0.4,0.6,0.6c0.1,0.2,0.2,0.4,0.2,0.6c0,0.2-0.1,0.4-0.2,0.5
			c-0.2,0.1-0.4,0.1-0.6,0.1h-3.8c-0.3,0-0.5-0.1-0.5-0.2c-0.1-0.2-0.1-0.4-0.1-0.6v-5.2h-0.8v5.4c0,0.2,0,0.4,0.1,0.6
			c0.1,0.2,0.2,0.3,0.3,0.4c0.1,0.1,0.3,0.2,0.4,0.2c0.2,0,0.4,0.1,0.6,0.1H55c0.3,0,0.5,0,0.8-0.1c0.2-0.1,0.3-0.2,0.5-0.3
			c0.1-0.1,0.2-0.3,0.2-0.4c0-0.1,0.1-0.3,0.1-0.4c0-0.2-0.1-0.4-0.1-0.6c-0.1-0.2-0.2-0.5-0.4-0.6c-0.2-0.3-0.5-0.5-0.8-0.7
			c-0.4-0.3-0.7-0.5-1.1-0.8l2.8-1.2v-0.8L53.4,41L53.3,41.1z"/>
		<path id="Path_75_" class="st0" d="M59.7,44.6c-0.2,0.1-0.4,0.1-0.6,0.1h-1.7v0.8h1.4h0.5c0.1,0,0.3,0,0.4-0.1
			c0.1,0,0.3-0.1,0.4-0.2c0.1-0.1,0.2-0.2,0.3-0.4c0.1,0.2,0.3,0.4,0.5,0.6c0.2,0.1,0.4,0.2,0.6,0.2h2.2v-6.7H63v5.9h-1.5
			c-0.1,0-0.2,0-0.2-0.1c-0.1-0.1-0.2-0.1-0.2-0.2c-0.1-0.1-0.2-0.2-0.3-0.4l-0.3-0.5l-1.1-1.9l-0.7,0.5l1,1.5
			c0.1,0.1,0.2,0.3,0.2,0.4c0.1,0.1,0.1,0.2,0.1,0.4C59.9,44.5,59.9,44.6,59.7,44.6z"/>
		<rect id="Rectangle_6_" x="65.1" y="38.8" class="st0" width="1" height="6.7"/>
		<path id="Shape_13_" class="st0" d="M70.3,46.3c0.1-0.4,0.2-0.8,0.2-1.1v-0.9c0-0.3,0-0.6-0.1-0.9c0-0.3-0.1-0.5-0.3-0.8
			c-0.1-0.2-0.3-0.4-0.6-0.5c-0.3-0.1-0.5-0.2-0.8-0.2s-0.5,0.1-0.8,0.2c-0.2,0.1-0.4,0.3-0.6,0.4c-0.2,0.2-0.3,0.4-0.4,0.6
			c-0.1,0.2-0.1,0.5-0.1,0.7c0,0.3,0,0.5,0.1,0.8c0.1,0.2,0.2,0.4,0.4,0.5c0.2,0.1,0.3,0.2,0.5,0.3s0.5,0.1,0.7,0.1s0.5,0,0.7-0.1
			c0.2,0,0.3-0.1,0.4-0.2v0.2c0,0.2,0,0.5-0.2,0.7c-0.1,0.2-0.2,0.3-0.4,0.4c-0.2,0.1-0.4,0.1-0.6,0.2c-0.3,0-0.5,0-0.8,0h-0.3v0.8
			h0.4c0.4,0,0.8,0,1.1-0.1c0.3-0.1,0.6-0.2,0.9-0.3C70,46.8,70.2,46.6,70.3,46.3L70.3,46.3z M69.7,44.4c-0.1,0.1-0.3,0.2-0.4,0.2
			c-0.2,0.1-0.4,0.1-0.6,0.1c-0.3,0-0.5-0.1-0.8-0.2c-0.2-0.2-0.3-0.5-0.3-0.8c0-0.1,0-0.3,0.1-0.4c0-0.1,0.1-0.3,0.2-0.4
			c0.1-0.1,0.2-0.2,0.3-0.3c0.2-0.1,0.3-0.1,0.5-0.1c0.3,0,0.6,0.1,0.8,0.4c0.1,0.1,0.1,0.3,0.2,0.5c0,0.2,0.1,0.4,0.1,0.6
			L69.7,44.4L69.7,44.4z"/>
		<polygon id="Path_76_" class="st0" points="83.3,35.1 82.5,35.1 82.5,36.1 83.3,35.6 		"/>
		<polygon id="Path_77_" class="st0" points="82.1,35.1 81.3,35.1 81.3,36.1 82.1,35.6 		"/>
		<polygon id="Path_78_" class="st0" points="74.8,28 74,28 74,29 74.8,28.6 		"/>
		<polygon id="Path_79_" class="st0" points="73.5,28 72.7,28 72.7,29 73.5,28.6 		"/>
		<polygon id="Path_80_" class="st0" points="36.8,28 36,28 36,29 36.8,28.6 		"/>
		<polygon id="Path_81_" class="st0" points="35.5,28 34.7,28 34.7,29 35.5,28.6 		"/>
		<polygon id="Path_82_" class="st0" points="41.9,35.1 41.1,35.1 41.1,36.1 41.9,35.6 		"/>
		<polygon id="Path_83_" class="st0" points="40.7,35.1 39.9,35.1 39.9,36.1 40.7,35.6 		"/>
		<polygon id="Path_84_" class="st0" points="21.8,35.1 21,35.1 21,36.1 21.8,35.6 		"/>
		<polygon id="Path_85_" class="st0" points="20.6,35.1 19.8,35.1 19.8,36.1 20.6,35.6 		"/>
		<polygon id="Path_86_" class="st0" points="24.2,35.1 23.4,35.1 23.4,36.1 24.2,35.6 		"/>
		<polygon id="Path_87_" class="st0" points="59.4,39.8 58.6,39.8 58.6,40.8 59.4,40.3 		"/>
		<polygon id="Path_88_" class="st0" points="17.9,39.8 17.1,39.8 17.1,40.8 17.9,40.3 		"/>
		<polygon id="Path_89_" class="st0" points="5.5,29 4.7,29 4.7,30 5.5,29.5 		"/>
		<polygon id="Path_90_" class="st0" points="4.2,29 3.4,29 3.4,30 4.2,29.5 		"/>
		<polygon id="Path_91_" class="st0" points="4.7,48.3 3.9,48.3 3.9,49.3 4.7,48.8 		"/>
		<polygon id="Path_92_" class="st0" points="3.5,48.3 2.7,48.3 2.7,49.3 3.5,48.8 		"/>
		<polygon id="Path_93_" class="st0" points="14.7,28.5 13.9,28.5 13.9,29.4 14.7,29 		"/>
		<path id="Shape_14_" class="st0" d="M31.4,0.7h-8.8v21.1h8.7c7.3,0,12.1-4.2,12.1-10.6S38.7,0.7,31.4,0.7z M31.4,17.1h-2.5V5.5
			h2.5C33,5.4,34.5,6,35.6,7.1s1.7,2.6,1.5,4.2c0.1,1.5-0.5,3.1-1.5,4.2C34.5,16.6,33,17.2,31.4,17.1L31.4,17.1z"/>
		<polygon id="Path_94_" class="st0" points="60,0.7 50.6,0.7 44.1,21.9 50.8,21.9 52,17.7 57.8,14.3 52.9,14.3 55.3,6.1 57.8,14.3 
			59.9,21.8 66.6,21.8 		"/>
		<polygon id="Path_95_" class="st0" points="93.6,0.7 84.2,0.7 77.6,21.9 84.3,21.9 85.5,17.7 91.4,14.3 86.4,14.3 88.9,6.1 
			91.4,14.3 93.5,21.8 100.2,21.8 		"/>
		<polygon id="Path_96_" class="st0" points="68.9,4.4 68.9,21.9 75.3,21.9 75.3,0.7 		"/>
		<path id="Path_97_" class="st0" d="M10.9,8.5C8.6,8.3,6.8,8,6.8,6.6c0-1.1,1.2-1.9,3-1.9c2.1,0,3.7,1.2,3.6,2.8l4.8-2.8
			C16.9,1.9,13.7,0,9.6,0c-5.3,0-9,2.9-9,7.2c0,5,4.1,6.1,8.4,6.6c2.2,0.3,4.1,0.5,4.1,2.1c0,1.3-1.2,2.2-3.1,2.2
			c-2.3,0-4-1.3-4-3.1H0.5c0,1,0.2,2,0.6,2.9c1.3,2.9,4.6,4.8,8.8,4.8c5.6,0,9.5-3.1,9.5-7.6C19.3,10.1,15.2,9,10.9,8.5z"/>
	</g>
</g>
</svg>
