<?xml version="1.0" encoding="utf-8"?>
<!-- Generator: Adobe Illustrator 25.4.1, SVG Export Plug-In . SVG Version: 6.00 Build 0)  -->
<svg version="1.1" id="Layer_1" xmlns="http://www.w3.org/2000/svg" xmlns:xlink="http://www.w3.org/1999/xlink" x="0px" y="0px"
	 viewBox="0 0 792.1 275.1" style="enable-background:new 0 0 792.1 275.1;" xml:space="preserve">
<style type="text/css">
	.st0{fill:#33CC99;}
	.st1{fill:url(#Path_00000130634749412241822070000006490318126476028291_);}
	.st2{fill:url(#Path_00000123423054757966932140000000030762251636946348_);}
	.st3{fill:url(#Path_00000135686187524129880300000015965779450504001927_);}
	.st4{fill:url(#Path_00000091704252377790855650000008773913828517294722_);}
	.st5{fill:url(#Path_00000048492145002760876790000017925146888767800200_);}
	.st6{fill:url(#Path_00000163756471584355037020000011542717274835739030_);}
	.st7{fill:url(#Path_00000016071883898085994220000015659766707510401715_);}
	.st8{fill:url(#Path_00000137811121054479670920000006490516454592471460_);}
	.st9{fill:url(#Path_00000071547927229492308670000008370717696971401118_);}
	.st10{fill:url(#Path_00000073708370868095060750000009273844002631862428_);}
	.st11{fill:url(#Path_00000182530411473111688570000017557302044230148766_);}
	.st12{fill:url(#Path_00000127045971270182936970000003132584798708731035_);}
	.st13{fill:url(#Path_00000106133057620465333650000004202454656328327586_);}
	.st14{fill:url(#Path_00000103259189164201724400000009476256445876817304_);}
	.st15{fill:url(#Path_00000008850787136959905990000009955269278814955187_);}
	.st16{fill:url(#Path_00000095307708586657047110000001421594546533557911_);}
	.st17{fill:url(#Path_00000003095550522688190590000003722968387172796315_);}
	.st18{fill:url(#Path_00000022559539352302416300000006254555281341800878_);}
	.st19{fill:url(#Path_00000013874786952265718840000011557085487635131068_);}
	.st20{fill:url(#Path_00000035522564886539429580000005523515522858994104_);}
	.st21{fill:url(#Path_00000091723792657099906860000012771210195056028057_);}
	.st22{fill:url(#Path_00000077314819362652552720000003704409524209131708_);}
	.st23{fill:url(#Path_00000117649309334598460140000016155818990294644381_);}
	.st24{fill:url(#Path_00000023980613865883119750000008795583921618711948_);}
	.st25{fill:url(#Path_00000142167684327034281400000012254547207337187238_);}
	.st26{fill:url(#Path_00000034803963870306142640000004789980837532713118_);}
	.st27{fill:url(#Path_00000086681027580395305680000015083986952601070726_);}
	.st28{fill:url(#Path_00000132071542387194850310000004230009700336075193_);}
	.st29{fill:url(#Path_00000005260983177171099810000011786599930858999721_);}
	.st30{fill:url(#Path_00000048474265236861337200000012189907819319334799_);}
	.st31{fill:url(#Path_00000031910086916507145180000012479399728698754697_);}
	.st32{fill:url(#Path_00000139255274151677280820000005495779210461732793_);}
	.st33{fill:url(#Path_00000059283642524206027090000011007135343068008863_);}
	.st34{fill:url(#Path_00000072962925404743368910000009912764546518953880_);}
	.st35{fill:url(#Path_00000176032427358250581710000010582305648072453784_);}
	.st36{fill:url(#Path_00000035521820502832842940000010771365524662014858_);}
	.st37{fill:url(#Path_00000137818029438303243390000006560000990956769165_);}
	.st38{fill:url(#Path_00000048498641360732658400000017293577964652443054_);}
	.st39{fill:url(#Path_00000070104709756414467840000015508762646361228450_);}
	.st40{fill:url(#Path_00000016050234107533229120000004718483571405788079_);}
	.st41{fill:url(#Path_00000087410951871516066810000013504174038090174095_);}
	.st42{fill:url(#Path_00000087375191818166034790000007705676708681060279_);}
	.st43{fill:url(#Path_00000176765878030357325440000001926198804927383425_);}
	.st44{fill:url(#Path_00000141418136738920071590000015518076505385668748_);}
	.st45{fill:url(#Path_00000147195362481184383320000012003302233225854633_);}
	.st46{fill:url(#Path_00000073679867582647281220000001849199749932893096_);}
	.st47{fill:url(#Path_00000044169748698425964110000004454986589992233864_);}
	.st48{fill:url(#Path_00000178906672869317495940000015590633440889164436_);}
	.st49{fill:url(#Path_00000095328286827503681860000016240038618203125683_);}
	.st50{fill:url(#Path_00000098943836448848702440000017789587442220502144_);}
	.st51{fill:url(#Path_00000017477003141541778100000003242150188162776494_);}
	.st52{fill:url(#Path_00000001626304487678549970000007479969538197416868_);}
	.st53{fill:url(#Path_00000047754032058954317320000004090946899491132846_);}
	.st54{fill:url(#Path_00000179614653442837732680000003097315978886591678_);}
	.st55{fill:#FFFFFF;}
</style>
<g id="Symbols">
	<g id="sadaia">
		<polygon id="Path" class="st0" points="127.1,93.6 86.7,116.9 86.7,163.5 127.1,186.8 167.5,163.5 167.5,116.9 		"/>
		
			<linearGradient id="Path_00000141444051886300578810000014124556914036475805_" gradientUnits="userSpaceOnUse" x1="-535.1696" y1="378.9211" x2="-518.2917" y2="389.2867" gradientTransform="matrix(5.2687 0 0 6.0844 3015.9663 -2255.717)">
			<stop  offset="0" style="stop-color:#99D633"/>
			<stop  offset="0.5" style="stop-color:#33CC99"/>
			<stop  offset="1" style="stop-color:#273470"/>
		</linearGradient>
		<polygon id="Path_1_" style="fill:url(#Path_00000141444051886300578810000014124556914036475805_);" points="252,73.7 252,101.7 
			227.8,87.7 		"/>
		
			<linearGradient id="Path_00000158719927615117347660000016399967911704245142_" gradientUnits="userSpaceOnUse" x1="-540.7867" y1="388.3748" x2="-523.8809" y2="398.7564" gradientTransform="matrix(5.2594 0 0 6.075 3009.2312 -2231.8408)">
			<stop  offset="0" style="stop-color:#99D633"/>
			<stop  offset="0.5" style="stop-color:#33CC99"/>
			<stop  offset="1" style="stop-color:#273470"/>
		</linearGradient>
		<polygon id="Path_2_" style="fill:url(#Path_00000158719927615117347660000016399967911704245142_);" points="250.8,172.8 
			250.8,200.8 226.6,186.8 		"/>
		
			<linearGradient id="Path_00000050661976728019382530000014468973812881222033_" gradientUnits="userSpaceOnUse" x1="-540.9316" y1="388.5166" x2="-524.0538" y2="398.8822" gradientTransform="matrix(5.2687 0 0 6.0844 3013.3882 -2239.2554)">
			<stop  offset="0" style="stop-color:#99D633"/>
			<stop  offset="0.5" style="stop-color:#33CC99"/>
			<stop  offset="1" style="stop-color:#273470"/>
		</linearGradient>
		<polygon id="Path_3_" style="fill:url(#Path_00000050661976728019382530000014468973812881222033_);" points="240.2,163.5 
			215.9,177.5 215.9,149.5 		"/>
		
			<linearGradient id="Path_00000039125518254281505050000011950204836231618718_" gradientUnits="userSpaceOnUse" x1="-538.0585" y1="383.4085" x2="-521.1746" y2="393.7742" gradientTransform="matrix(5.2687 0 0 6.0844 3016.6787 -2244.6357)">
			<stop  offset="0" style="stop-color:#99D633"/>
			<stop  offset="0.5" style="stop-color:#33CC99"/>
			<stop  offset="1" style="stop-color:#273470"/>
		</linearGradient>
		<polygon id="Path_4_" style="fill:url(#Path_00000039125518254281505050000011950204836231618718_);" points="255.3,124.7 
			255.3,152.7 231.1,138.7 		"/>
		
			<linearGradient id="Path_00000112620583094622095440000016529899115350366642_" gradientUnits="userSpaceOnUse" x1="-544.6461" y1="394.4167" x2="-527.7161" y2="404.7983" gradientTransform="matrix(5.2688 0 0 6.075 3004.6697 -2225.8298)">
			<stop  offset="0" style="stop-color:#99D633"/>
			<stop  offset="0.5" style="stop-color:#33CC99"/>
			<stop  offset="1" style="stop-color:#273470"/>
		</linearGradient>
		<polygon id="Path_5_" style="fill:url(#Path_00000112620583094622095440000016529899115350366642_);" points="199.8,200.5 
			199.8,228.4 175.5,214.4 		"/>
		
			<linearGradient id="Path_00000008862404853420784220000011714593337605428903_" gradientUnits="userSpaceOnUse" x1="-579.4882" y1="354.0839" x2="-566.8472" y2="361.8611" gradientTransform="matrix(7.0125 0 0 8.1094 4215.5581 -2742.6948)">
			<stop  offset="0" style="stop-color:#99D633"/>
			<stop  offset="0.5" style="stop-color:#33CC99"/>
			<stop  offset="1" style="stop-color:#273470"/>
		</linearGradient>
		<polygon id="Path_6_" style="fill:url(#Path_00000008862404853420784220000011714593337605428903_);" points="203.8,182.1 
			171.5,163.5 203.8,144.8 		"/>
		
			<linearGradient id="Path_00000161633562814989898640000016615838294152336055_" gradientUnits="userSpaceOnUse" x1="-581.3767" y1="357.6067" x2="-568.7019" y2="365.393" gradientTransform="matrix(7.0125 0 0 8.1 4215.5581 -2735.2808)">
			<stop  offset="0" style="stop-color:#99D633"/>
			<stop  offset="0.5" style="stop-color:#33CC99"/>
			<stop  offset="1" style="stop-color:#273470"/>
		</linearGradient>
		<polygon id="Path_7_" style="fill:url(#Path_00000161633562814989898640000016615838294152336055_);" points="203.8,186.8 
			171.5,205.4 171.5,168.2 		"/>
		
			<linearGradient id="Path_00000136412040247079317870000008745067471244527796_" gradientUnits="userSpaceOnUse" x1="-579.313" y1="354.3714" x2="-566.6335" y2="362.1629" gradientTransform="matrix(7.0125 0 0 8.1 4215.5581 -2745.4136)">
			<stop  offset="0" style="stop-color:#99D633"/>
			<stop  offset="0.5" style="stop-color:#33CC99"/>
			<stop  offset="1" style="stop-color:#273470"/>
		</linearGradient>
		<polygon id="Path_8_" style="fill:url(#Path_00000136412040247079317870000008745067471244527796_);" points="203.8,140.2 
			171.5,158.8 171.5,121.5 		"/>
		
			<linearGradient id="Path_00000053527617516831549960000002325876725399860146_" gradientUnits="userSpaceOnUse" x1="-546.9201" y1="398.8575" x2="-530.0141" y2="409.2391" gradientTransform="matrix(5.2594 0 0 6.075 2999.5649 -2218.5454)">
			<stop  offset="0" style="stop-color:#99D633"/>
			<stop  offset="0.5" style="stop-color:#33CC99"/>
			<stop  offset="1" style="stop-color:#273470"/>
		</linearGradient>
		<polygon id="Path_9_" style="fill:url(#Path_00000053527617516831549960000002325876725399860146_);" points="206.3,248 
			182.1,261.9 182.1,234 		"/>
		
			<linearGradient id="Path_00000170992349233623553650000003558703912220681649_" gradientUnits="userSpaceOnUse" x1="-602.5933" y1="333.1891" x2="-592.4577" y2="339.4166" gradientTransform="matrix(8.775 0 0 10.1344 5430.7212 -3251.198)">
			<stop  offset="0" style="stop-color:#99D633"/>
			<stop  offset="0.5" style="stop-color:#33CC99"/>
			<stop  offset="1" style="stop-color:#273470"/>
		</linearGradient>
		<polygon id="Path_10_" style="fill:url(#Path_00000170992349233623553650000003558703912220681649_);" points="167.5,163.5 
			127.1,140.2 167.5,116.9 		"/>
		
			<linearGradient id="Path_00000008134249266820913530000017279958709984026527_" gradientUnits="userSpaceOnUse" x1="-583.777" y1="361.528" x2="-571.1314" y2="369.3105" gradientTransform="matrix(7.0125 0 0 8.1094 4206.7837 -2731.4167)">
			<stop  offset="0" style="stop-color:#99D633"/>
			<stop  offset="0.5" style="stop-color:#33CC99"/>
			<stop  offset="1" style="stop-color:#273470"/>
		</linearGradient>
		<polygon id="Path_11_" style="fill:url(#Path_00000008134249266820913530000017279958709984026527_);" points="163.4,215.4 
			131.1,234 131.1,196.7 		"/>
		
			<linearGradient id="Path_00000131341482882335281930000007361404768282582413_" gradientUnits="userSpaceOnUse" x1="-549.7534" y1="403.2747" x2="-532.8234" y2="413.6563" gradientTransform="matrix(5.2687 0 0 6.075 2995.8381 -2215.6953)">
			<stop  offset="0" style="stop-color:#99D633"/>
			<stop  offset="0.5" style="stop-color:#33CC99"/>
			<stop  offset="1" style="stop-color:#273470"/>
		</linearGradient>
		<polygon id="Path_12_" style="fill:url(#Path_00000131341482882335281930000007361404768282582413_);" points="159.4,261.1 
			135.2,275.1 135.2,247.1 		"/>
		
			<linearGradient id="Path_00000183950956638486358410000011191495377875728773_" gradientUnits="userSpaceOnUse" x1="-548.8942" y1="386.0233" x2="-527.7025" y2="403.2363" gradientTransform="matrix(5.2687 0 0 6.075 3014.8599 -2225.0908)">
			<stop  offset="0" style="stop-color:#99D633"/>
			<stop  offset="0.5" style="stop-color:#33CC99"/>
			<stop  offset="1" style="stop-color:#273470"/>
		</linearGradient>
		<polygon id="Path_13_" style="fill:url(#Path_00000183950956638486358410000011191495377875728773_);" points="246.9,217.8 
			222.7,231.8 222.7,203.9 		"/>
		
			<linearGradient id="Path_00000101783392385023473800000001448382733731319725_" gradientUnits="userSpaceOnUse" x1="-542.472" y1="379.0472" x2="-521.2742" y2="396.2672" gradientTransform="matrix(5.2687 0 0 6.075 3013.3882 -2247.0361)">
			<stop  offset="0" style="stop-color:#99D633"/>
			<stop  offset="0.5" style="stop-color:#33CC99"/>
			<stop  offset="1" style="stop-color:#273470"/>
		</linearGradient>
		<polygon id="Path_14_" style="fill:url(#Path_00000101783392385023473800000001448382733731319725_);" points="240.2,116.9 
			215.9,130.8 215.9,102.9 		"/>
		
			<linearGradient id="Path_00000005230109081547743680000016652993506321716905_" gradientUnits="userSpaceOnUse" x1="-581.0251" y1="347.4429" x2="-565.1551" y2="360.3579" gradientTransform="matrix(7.0125 0 0 8.1 4215.5581 -2750.4768)">
			<stop  offset="0" style="stop-color:#99D633"/>
			<stop  offset="0.5" style="stop-color:#33CC99"/>
			<stop  offset="1" style="stop-color:#273470"/>
		</linearGradient>
		<polygon id="Path_15_" style="fill:url(#Path_00000005230109081547743680000016652993506321716905_);" points="203.8,98.2 
			203.8,135.5 171.5,116.9 		"/>
		
			<linearGradient id="Path_00000080910691062445262110000014066378326935065995_" gradientUnits="userSpaceOnUse" x1="-553.5232" y1="392.6009" x2="-532.363" y2="409.8137" gradientTransform="matrix(5.2594 0 0 6.075 2989.3748 -2221.2002)">
			<stop  offset="0" style="stop-color:#99D633"/>
			<stop  offset="0.5" style="stop-color:#33CC99"/>
			<stop  offset="1" style="stop-color:#273470"/>
		</linearGradient>
		<polygon id="Path_16_" style="fill:url(#Path_00000080910691062445262110000014066378326935065995_);" points="159.4,221.8 
			159.4,249.7 135.2,235.8 		"/>
		
			<linearGradient id="Path_00000039134247417731032840000002502938334280372370_" gradientUnits="userSpaceOnUse" x1="-586.4153" y1="353.8584" x2="-570.5865" y2="366.7531" gradientTransform="matrix(7.0125 0 0 8.1094 4206.7837 -2736.4792)">
			<stop  offset="0" style="stop-color:#99D633"/>
			<stop  offset="0.5" style="stop-color:#33CC99"/>
			<stop  offset="1" style="stop-color:#273470"/>
		</linearGradient>
		<polygon id="Path_17_" style="fill:url(#Path_00000039134247417731032840000002502938334280372370_);" points="163.4,210.7 
			131.1,192.1 163.4,173.4 		"/>
		
			<linearGradient id="Path_00000041286449264896658360000004102151769107133873_" gradientUnits="userSpaceOnUse" x1="-607.8218" y1="332.9364" x2="-595.132" y2="343.2589" gradientTransform="matrix(8.775 0 0 10.1344 5430.7212 -3246.1355)">
			<stop  offset="0" style="stop-color:#99D633"/>
			<stop  offset="0.5" style="stop-color:#33CC99"/>
			<stop  offset="1" style="stop-color:#273470"/>
		</linearGradient>
		<polygon id="Path_18_" style="fill:url(#Path_00000041286449264896658360000004102151769107133873_);" points="127.1,140.2 
			167.5,163.5 127.1,186.8 		"/>
		
			<linearGradient id="Path_00000057135566878337616700000016834327267087061130_" gradientUnits="userSpaceOnUse" x1="-528.8388" y1="395.8879" x2="-527.5824" y2="372.7386" gradientTransform="matrix(5.2687 0 0 6.075 3014.335 -2259.3833)">
			<stop  offset="0" style="stop-color:#66CCFF"/>
			<stop  offset="0.5" style="stop-color:#6258A6"/>
			<stop  offset="1" style="stop-color:#273470"/>
		</linearGradient>
		<polygon id="Path_19_" style="fill:url(#Path_00000057135566878337616700000016834327267087061130_);" points="244.5,60 220.3,74 
			220.3,46.1 		"/>
		
			<linearGradient id="Path_00000178910599289295955850000005238476953876516236_" gradientUnits="userSpaceOnUse" x1="-535.0684" y1="396.6851" x2="-533.8221" y2="373.5715" gradientTransform="matrix(5.2687 0 0 6.0844 3005.71 -2270.595)">
			<stop  offset="0" style="stop-color:#66CCFF"/>
			<stop  offset="0.5" style="stop-color:#6258A6"/>
			<stop  offset="1" style="stop-color:#273470"/>
		</linearGradient>
		<polygon id="Path_20_" style="fill:url(#Path_00000178910599289295955850000005238476953876516236_);" points="204.8,19.2 
			180.6,33.3 180.6,5.3 		"/>
		
			<linearGradient id="Path_00000145032341381890025080000012148502650109602447_" gradientUnits="userSpaceOnUse" x1="-574.7814" y1="357.7137" x2="-573.8431" y2="340.3718" gradientTransform="matrix(7.0125 0 0 8.1094 4215.5581 -2757.8916)">
			<stop  offset="0" style="stop-color:#66CCFF"/>
			<stop  offset="0.5" style="stop-color:#6258A6"/>
			<stop  offset="1" style="stop-color:#273470"/>
		</linearGradient>
		<polygon id="Path_21_" style="fill:url(#Path_00000145032341381890025080000012148502650109602447_);" points="203.8,93.6 
			171.5,112.2 171.5,74.9 		"/>
		
			<linearGradient id="Path_00000093179118335125288610000014103497859445401753_" gradientUnits="userSpaceOnUse" x1="-541.5107" y1="395.8207" x2="-540.2543" y2="372.6786" gradientTransform="matrix(5.2687 0 0 6.075 2995.8381 -2264.3237)">
			<stop  offset="0" style="stop-color:#66CCFF"/>
			<stop  offset="0.5" style="stop-color:#6258A6"/>
			<stop  offset="1" style="stop-color:#273470"/>
		</linearGradient>
		<polygon id="Path_22_" style="fill:url(#Path_00000093179118335125288610000014103497859445401753_);" points="159.4,51.3 
			135.2,37.3 159.4,23.3 		"/>
		
			<linearGradient id="Path_00000022545880599085859940000009133794570397442211_" gradientUnits="userSpaceOnUse" x1="-579.1859" y1="357.5513" x2="-578.2474" y2="340.2094" gradientTransform="matrix(7.0125 0 0 8.1094 4206.7837 -2759.0354)">
			<stop  offset="0" style="stop-color:#66CCFF"/>
			<stop  offset="0.5" style="stop-color:#6258A6"/>
			<stop  offset="1" style="stop-color:#273470"/>
		</linearGradient>
		<polygon id="Path_23_" style="fill:url(#Path_00000022545880599085859940000009133794570397442211_);" points="163.4,69.6 
			163.4,106.9 131.1,88.3 		"/>
		
			<linearGradient id="Path_00000075873659295360438230000008140110333254497433_" gradientUnits="userSpaceOnUse" x1="-605.7544" y1="335.0128" x2="-605.0011" y2="321.1275" gradientTransform="matrix(8.775 0 0 10.125 5421.9463 -3253.9172)">
			<stop  offset="0" style="stop-color:#66CCFF"/>
			<stop  offset="0.5" style="stop-color:#6258A6"/>
			<stop  offset="1" style="stop-color:#273470"/>
		</linearGradient>
		<polygon id="Path_24_" style="fill:url(#Path_00000075873659295360438230000008140110333254497433_);" points="127.1,93.6 
			127.1,140.2 86.7,116.9 		"/>
		
			<linearGradient id="Path_00000114040570256569729580000015559799148184030110_" gradientUnits="userSpaceOnUse" x1="-583.9689" y1="357.8528" x2="-583.0292" y2="340.5163" gradientTransform="matrix(7.0219 0 0 8.1094 4204.5376 -2764.1069)">
			<stop  offset="0" style="stop-color:#66CCFF"/>
			<stop  offset="0.5" style="stop-color:#6258A6"/>
			<stop  offset="1" style="stop-color:#273470"/>
		</linearGradient>
		<polygon id="Path_25_" style="fill:url(#Path_00000114040570256569729580000015559799148184030110_);" points="123.1,83.6 
			90.8,65 123.1,46.3 		"/>
		
			<linearGradient id="Path_00000173870702138525994560000000111294074687659936_" gradientUnits="userSpaceOnUse" x1="-547.6983" y1="396.2295" x2="-546.4419" y2="373.0802" gradientTransform="matrix(5.2688 0 0 6.075 2987.1194 -2269.3958)">
			<stop  offset="0" style="stop-color:#66CCFF"/>
			<stop  offset="0.5" style="stop-color:#6258A6"/>
			<stop  offset="1" style="stop-color:#273470"/>
		</linearGradient>
		<polygon id="Path_26_" style="fill:url(#Path_00000173870702138525994560000000111294074687659936_);" points="119,28 94.8,14 
			119,0 		"/>
		
			<linearGradient id="Path_00000026875082384449147020000009399615393128609468_" gradientUnits="userSpaceOnUse" x1="-588.1228" y1="356.7936" x2="-587.1843" y2="339.4517" gradientTransform="matrix(7.0125 0 0 8.1094 4189.2334 -2757.8916)">
			<stop  offset="0" style="stop-color:#66CCFF"/>
			<stop  offset="0.5" style="stop-color:#6258A6"/>
			<stop  offset="1" style="stop-color:#273470"/>
		</linearGradient>
		<polygon id="Path_27_" style="fill:url(#Path_00000026875082384449147020000009399615393128609468_);" points="82.7,112.2 
			50.4,93.5 82.7,74.9 		"/>
		
			<linearGradient id="Path_00000155830118966152377040000006520946734434238342_" gradientUnits="userSpaceOnUse" x1="-554.545" y1="394.7454" x2="-553.3009" y2="371.639" gradientTransform="matrix(5.2594 0 0 6.0844 2969.8748 -2267.1169)">
			<stop  offset="0" style="stop-color:#66CCFF"/>
			<stop  offset="0.5" style="stop-color:#6258A6"/>
			<stop  offset="1" style="stop-color:#273470"/>
		</linearGradient>
		<polygon id="Path_28_" style="fill:url(#Path_00000155830118966152377040000006520946734434238342_);" points="69.7,21.3 
			69.7,49.3 45.5,35.3 		"/>
		
			<linearGradient id="Path_00000090281265499424924210000010786228288113699752_" gradientUnits="userSpaceOnUse" x1="-534.6606" y1="394.0482" x2="-534.6606" y2="371.1827" gradientTransform="matrix(5.2688 0 0 6.0844 3004.6697 -2260.4612)">
			<stop  offset="0" style="stop-color:#66CCFF"/>
			<stop  offset="0.5" style="stop-color:#6258A6"/>
			<stop  offset="1" style="stop-color:#273470"/>
		</linearGradient>
		<polygon id="Path_29_" style="fill:url(#Path_00000090281265499424924210000010786228288113699752_);" points="199.8,79.9 
			175.5,65.9 199.8,51.9 		"/>
		
			<linearGradient id="Path_00000025430730740372577350000005772657700727663802_" gradientUnits="userSpaceOnUse" x1="-540.653" y1="396.1301" x2="-540.653" y2="373.2293" gradientTransform="matrix(5.2687 0 0 6.075 2995.8381 -2269.3958)">
			<stop  offset="0" style="stop-color:#66CCFF"/>
			<stop  offset="0.5" style="stop-color:#6258A6"/>
			<stop  offset="1" style="stop-color:#273470"/>
		</linearGradient>
		<polygon id="Path_30_" style="fill:url(#Path_00000025430730740372577350000005772657700727663802_);" points="159.4,14 135.2,28 
			135.2,0 		"/>
		
			<linearGradient id="Path_00000137118784503614809880000005746932137762895537_" gradientUnits="userSpaceOnUse" x1="-578.8997" y1="357.8827" x2="-578.8997" y2="340.7071" gradientTransform="matrix(7.0125 0 0 8.1 4206.7837 -2761.7549)">
			<stop  offset="0" style="stop-color:#66CCFF"/>
			<stop  offset="0.5" style="stop-color:#6258A6"/>
			<stop  offset="1" style="stop-color:#273470"/>
		</linearGradient>
		<polygon id="Path_31_" style="fill:url(#Path_00000137118784503614809880000005746932137762895537_);" points="163.4,65 
			131.1,83.6 131.1,46.3 		"/>
		
			<linearGradient id="Path_00000028291862932980462480000014105601111521811895_" gradientUnits="userSpaceOnUse" x1="-602.0993" y1="334.9148" x2="-602.0993" y2="321.1743" gradientTransform="matrix(8.775 0 0 10.125 5430.7212 -3253.9172)">
			<stop  offset="0" style="stop-color:#66CCFF"/>
			<stop  offset="0.5" style="stop-color:#6258A6"/>
			<stop  offset="1" style="stop-color:#273470"/>
		</linearGradient>
		<polygon id="Path_32_" style="fill:url(#Path_00000028291862932980462480000014105601111521811895_);" points="167.5,116.9 
			127.1,140.2 127.1,93.6 		"/>
		
			<linearGradient id="Path_00000065057899254972320330000008930142712287862683_" gradientUnits="userSpaceOnUse" x1="-546.6557" y1="394.7878" x2="-546.6557" y2="371.9224" gradientTransform="matrix(5.2688 0 0 6.0844 2987.1194 -2264.9607)">
			<stop  offset="0" style="stop-color:#66CCFF"/>
			<stop  offset="0.5" style="stop-color:#6258A6"/>
			<stop  offset="1" style="stop-color:#273470"/>
		</linearGradient>
		<polygon id="Path_33_" style="fill:url(#Path_00000065057899254972320330000008930142712287862683_);" points="119,45.2 
			94.8,59.2 94.8,31.2 		"/>
		
			<linearGradient id="Path_00000157274888154327685440000006863964972356206241_" gradientUnits="userSpaceOnUse" x1="-583.4023" y1="357.1313" x2="-583.4023" y2="339.9756" gradientTransform="matrix(7.0125 0 0 8.1094 4198.0083 -2759.0354)">
			<stop  offset="0" style="stop-color:#66CCFF"/>
			<stop  offset="0.5" style="stop-color:#6258A6"/>
			<stop  offset="1" style="stop-color:#273470"/>
		</linearGradient>
		<polygon id="Path_34_" style="fill:url(#Path_00000157274888154327685440000006863964972356206241_);" points="123,88.3 
			90.8,106.9 90.8,69.6 		"/>
		
			<linearGradient id="Path_00000125570825627475774750000010136950251358780051_" gradientUnits="userSpaceOnUse" x1="-552.658" y1="394.2737" x2="-552.658" y2="371.3729" gradientTransform="matrix(5.2688 0 0 6.075 2978.3445 -2258.1177)">
			<stop  offset="0" style="stop-color:#66CCFF"/>
			<stop  offset="0.5" style="stop-color:#6258A6"/>
			<stop  offset="1" style="stop-color:#273470"/>
		</linearGradient>
		<polygon id="Path_35_" style="fill:url(#Path_00000125570825627475774750000010136950251358780051_);" points="78.6,65.9 
			54.4,79.8 54.4,51.9 		"/>
		
			<linearGradient id="Path_00000165948751463395597370000007827286099540533675_" gradientUnits="userSpaceOnUse" x1="-560.3738" y1="393.7914" x2="-560.3738" y2="370.9402" gradientTransform="matrix(5.2687 0 0 6.0844 2966.9915 -2258.9419)">
			<stop  offset="0" style="stop-color:#66CCFF"/>
			<stop  offset="0.5" style="stop-color:#6258A6"/>
			<stop  offset="1" style="stop-color:#273470"/>
		</linearGradient>
		<polygon id="Path_36_" style="fill:url(#Path_00000165948751463395597370000007827286099540533675_);" points="26.7,86.9 
			2.4,72.9 26.7,58.9 		"/>
		
			<linearGradient id="Path_00000127013557091870374730000000650185873132269244_" gradientUnits="userSpaceOnUse" x1="-531.0212" y1="399.0864" x2="-556.2283" y2="414.8364" gradientTransform="matrix(5.2688 0 0 6.075 2987.1194 -2215.6953)">
			<stop  offset="0" style="stop-color:#FDBD4D"/>
			<stop  offset="0.5" style="stop-color:#FF6633"/>
			<stop  offset="1" style="stop-color:#273470"/>
		</linearGradient>
		<polygon id="Path_37_" style="fill:url(#Path_00000127013557091870374730000000650185873132269244_);" points="119,275.1 
			94.8,261.1 119,247.1 		"/>
		
			<linearGradient id="Path_00000000910170685650308380000016373123165763139496_" gradientUnits="userSpaceOnUse" x1="-599.6703" y1="333.8156" x2="-614.7559" y2="343.2569" gradientTransform="matrix(8.775 0 0 10.1344 5421.9463 -3246.1355)">
			<stop  offset="0" style="stop-color:#FDBD4D"/>
			<stop  offset="0.5" style="stop-color:#FF6633"/>
			<stop  offset="1" style="stop-color:#273470"/>
		</linearGradient>
		<polygon id="Path_38_" style="fill:url(#Path_00000000910170685650308380000016373123165763139496_);" points="127.1,140.2 
			127.1,186.8 86.7,163.5 		"/>
		
			<linearGradient id="Path_00000121997672662234789300000015630014991884059279_" gradientUnits="userSpaceOnUse" x1="-533.3267" y1="395.0028" x2="-558.45" y2="410.7286" gradientTransform="matrix(5.2688 0 0 6.0844 2978.3445 -2220.5786)">
			<stop  offset="0" style="stop-color:#FDBD4D"/>
			<stop  offset="0.5" style="stop-color:#FF6633"/>
			<stop  offset="1" style="stop-color:#273470"/>
		</linearGradient>
		<polygon id="Path_39_" style="fill:url(#Path_00000121997672662234789300000015630014991884059279_);" points="78.6,235.4 
			78.6,263.4 54.4,249.4 		"/>
		
			<linearGradient id="Path_00000112615223086660482290000004426552707179763887_" gradientUnits="userSpaceOnUse" x1="-578.0076" y1="351.0153" x2="-596.8264" y2="362.8141" gradientTransform="matrix(7.0125 0 0 8.1094 4189.2334 -2742.6948)">
			<stop  offset="0" style="stop-color:#FDBD4D"/>
			<stop  offset="0.5" style="stop-color:#FF6633"/>
			<stop  offset="1" style="stop-color:#273470"/>
		</linearGradient>
		<polygon id="Path_40_" style="fill:url(#Path_00000112615223086660482290000004426552707179763887_);" points="82.7,163.5 
			50.4,182.1 50.4,144.8 		"/>
		
			<linearGradient id="Path_00000141439164882311188000000008132933932492422273_" gradientUnits="userSpaceOnUse" x1="-580.069" y1="347.9368" x2="-598.9361" y2="359.7493" gradientTransform="matrix(7.0125 0 0 8.1 4189.2334 -2750.4768)">
			<stop  offset="0" style="stop-color:#FDBD4D"/>
			<stop  offset="0.5" style="stop-color:#FF6633"/>
			<stop  offset="1" style="stop-color:#273470"/>
		</linearGradient>
		<polygon id="Path_41_" style="fill:url(#Path_00000141439164882311188000000008132933932492422273_);" points="82.7,116.9 
			50.4,135.5 50.4,98.2 		"/>
		
			<linearGradient id="Path_00000164516192776575912540000014039228350244825005_" gradientUnits="userSpaceOnUse" x1="-536.524" y1="389.7683" x2="-561.7311" y2="405.5254" gradientTransform="matrix(5.2688 0 0 6.075 2968.6226 -2223.8721)">
			<stop  offset="0" style="stop-color:#FDBD4D"/>
			<stop  offset="0.5" style="stop-color:#FF6633"/>
			<stop  offset="1" style="stop-color:#273470"/>
		</linearGradient>
		<polygon id="Path_42_" style="fill:url(#Path_00000164516192776575912540000014039228350244825005_);" points="33.9,209.5 
			33.9,237.4 9.7,223.5 		"/>
		
			<linearGradient id="Path_00000059296439074145647420000014456727482941995918_" gradientUnits="userSpaceOnUse" x1="-542.8405" y1="380.0368" x2="-567.9698" y2="395.7626" gradientTransform="matrix(5.2688 0 0 6.0844 2969.5693 -2249.595)">
			<stop  offset="0" style="stop-color:#FDBD4D"/>
			<stop  offset="0.5" style="stop-color:#FF6633"/>
			<stop  offset="1" style="stop-color:#273470"/>
		</linearGradient>
		<polygon id="Path_43_" style="fill:url(#Path_00000059296439074145647420000014456727482941995918_);" points="38.3,101.9 
			38.3,129.9 14,115.9 		"/>
		
			<linearGradient id="Path_00000166641937542915448090000015226644791683198883_" gradientUnits="userSpaceOnUse" x1="-542.6551" y1="379.8273" x2="-567.856" y2="395.5773" gradientTransform="matrix(5.2688 0 0 6.075 2966.5225 -2241.7109)">
			<stop  offset="0" style="stop-color:#FDBD4D"/>
			<stop  offset="0.5" style="stop-color:#FF6633"/>
			<stop  offset="1" style="stop-color:#273470"/>
		</linearGradient>
		<polygon id="Path_44_" style="fill:url(#Path_00000166641937542915448090000015226644791683198883_);" points="24.2,141.4 
			0,155.3 0,127.4 		"/>
		
			<linearGradient id="Path_00000167370210141857660350000005667618766271331229_" gradientUnits="userSpaceOnUse" x1="-577.9562" y1="360.8645" x2="-591.2595" y2="369.8174" gradientTransform="matrix(7.0125 0 0 8.1094 4198.0083 -2731.4167)">
			<stop  offset="0" style="stop-color:#FDBD4D"/>
			<stop  offset="0.5" style="stop-color:#FF6633"/>
			<stop  offset="1" style="stop-color:#273470"/>
		</linearGradient>
		<polygon id="Path_45_" style="fill:url(#Path_00000167370210141857660350000005667618766271331229_);" points="123,234 
			90.8,215.4 123,196.7 		"/>
		
			<linearGradient id="Path_00000178182139423128323410000000947797805956375953_" gradientUnits="userSpaceOnUse" x1="-604.908" y1="333.0369" x2="-615.5867" y2="340.2075" gradientTransform="matrix(8.775 0 0 10.125 5421.9463 -3248.8555)">
			<stop  offset="0" style="stop-color:#FDBD4D"/>
			<stop  offset="0.5" style="stop-color:#FF6633"/>
			<stop  offset="1" style="stop-color:#273470"/>
		</linearGradient>
		<polygon id="Path_46_" style="fill:url(#Path_00000178182139423128323410000000947797805956375953_);" points="127.1,140.2 
			86.7,163.5 86.7,116.9 		"/>
		
			<linearGradient id="Path_00000096762159665448957340000009288951455454573216_" gradientUnits="userSpaceOnUse" x1="-539.01" y1="398.1735" x2="-556.7657" y2="410.1061" gradientTransform="matrix(5.2688 0 0 6.0844 2987.1194 -2223.1099)">
			<stop  offset="0" style="stop-color:#FDBD4D"/>
			<stop  offset="0.5" style="stop-color:#FF6633"/>
			<stop  offset="1" style="stop-color:#273470"/>
		</linearGradient>
		<polygon id="Path_47_" style="fill:url(#Path_00000096762159665448957340000009288951455454573216_);" points="119,237.8 
			94.8,251.8 94.8,223.8 		"/>
		
			<linearGradient id="Path_00000004521822039644350510000014162694490652498586_" gradientUnits="userSpaceOnUse" x1="-579.9002" y1="357.6241" x2="-593.2036" y2="366.5769" gradientTransform="matrix(7.0125 0 0 8.1094 4198.0083 -2736.4792)">
			<stop  offset="0" style="stop-color:#FDBD4D"/>
			<stop  offset="0.5" style="stop-color:#FF6633"/>
			<stop  offset="1" style="stop-color:#273470"/>
		</linearGradient>
		<polygon id="Path_48_" style="fill:url(#Path_00000004521822039644350510000014162694490652498586_);" points="123,192.1 
			90.8,210.7 90.8,173.4 		"/>
		
			<linearGradient id="Path_00000124147243610232936170000008243689707702237628_" gradientUnits="userSpaceOnUse" x1="-542.1312" y1="393.4806" x2="-559.9418" y2="405.4245" gradientTransform="matrix(5.2688 0 0 6.075 2978.3445 -2225.8298)">
			<stop  offset="0" style="stop-color:#FDBD4D"/>
			<stop  offset="0.5" style="stop-color:#FF6633"/>
			<stop  offset="1" style="stop-color:#273470"/>
		</linearGradient>
		<polygon id="Path_49_" style="fill:url(#Path_00000124147243610232936170000008243689707702237628_);" points="78.6,214.4 
			54.4,228.4 54.4,200.5 		"/>
		
			<linearGradient id="Path_00000091731532443033126870000010195212889423316373_" gradientUnits="userSpaceOnUse" x1="-580.5547" y1="356.958" x2="-593.889" y2="365.9213" gradientTransform="matrix(7.0125 0 0 8.1 4189.2334 -2735.2808)">
			<stop  offset="0" style="stop-color:#FDBD4D"/>
			<stop  offset="0.5" style="stop-color:#FF6633"/>
			<stop  offset="1" style="stop-color:#273470"/>
		</linearGradient>
		<polygon id="Path_50_" style="fill:url(#Path_00000091731532443033126870000010195212889423316373_);" points="82.7,168.2 
			82.7,205.4 50.4,186.8 		"/>
		
			<linearGradient id="Path_00000161608280865330827320000007216452838878843013_" gradientUnits="userSpaceOnUse" x1="-582.7188" y1="353.9106" x2="-596.0529" y2="362.8738" gradientTransform="matrix(7.0125 0 0 8.1 4189.2334 -2745.4136)">
			<stop  offset="0" style="stop-color:#FDBD4D"/>
			<stop  offset="0.5" style="stop-color:#FF6633"/>
			<stop  offset="1" style="stop-color:#273470"/>
		</linearGradient>
		<polygon id="Path_51_" style="fill:url(#Path_00000161608280865330827320000007216452838878843013_);" points="82.7,121.5 
			82.7,158.8 50.4,140.2 		"/>
		
			<linearGradient id="Path_00000069368181499943683810000005571998282448745347_" gradientUnits="userSpaceOnUse" x1="-546.1118" y1="387.8667" x2="-563.9224" y2="399.8177" gradientTransform="matrix(5.2688 0 0 6.075 2969.5693 -2236.9033)">
			<stop  offset="0" style="stop-color:#FDBD4D"/>
			<stop  offset="0.5" style="stop-color:#FF6633"/>
			<stop  offset="1" style="stop-color:#273470"/>
		</linearGradient>
		<polygon id="Path_52_" style="fill:url(#Path_00000069368181499943683810000005571998282448745347_);" points="38.3,177.5 
			14,163.5 38.3,149.5 		"/>
		
			<linearGradient id="Path_00000037691655796838988360000012729779497755064198_" gradientUnits="userSpaceOnUse" x1="-551.895" y1="378.9059" x2="-569.6508" y2="390.8385" gradientTransform="matrix(5.2687 0 0 6.0844 2966.6726 -2254.4514)">
			<stop  offset="0" style="stop-color:#FDBD4D"/>
			<stop  offset="0.5" style="stop-color:#FF6633"/>
			<stop  offset="1" style="stop-color:#273470"/>
		</linearGradient>
		<polygon id="Path_53_" style="fill:url(#Path_00000037691655796838988360000012729779497755064198_);" points="25.2,93.6 1,107.5 
			0.9,79.5 		"/>
		
			<linearGradient id="Path_00000090989368505246907490000010779951718001727127_" gradientUnits="userSpaceOnUse" x1="-545.9584" y1="387.2812" x2="-563.7141" y2="399.2137" gradientTransform="matrix(5.2687 0 0 6.0844 2966.9915 -2233.8179)">
			<stop  offset="0" style="stop-color:#FDBD4D"/>
			<stop  offset="0.5" style="stop-color:#FF6633"/>
			<stop  offset="1" style="stop-color:#273470"/>
		</linearGradient>
		<polygon id="Path_54_" style="fill:url(#Path_00000090989368505246907490000010779951718001727127_);" points="26.7,188.5 
			2.4,202.5 2.4,174.5 		"/>
		<path id="Path_55_" class="st55" d="M327.4,246.8c-1-0.7-2-1.2-3.1-1.6c-1.2-0.4-2.4-0.7-3.7-1l-3.6-0.8c-1.1-0.2-2.1-0.5-3.1-0.9
			c-0.9-0.3-1.6-0.8-2.2-1.4c-0.6-0.6-0.9-1.5-0.9-2.3c0-0.9,0.2-1.7,0.6-2.5c0.4-0.7,0.9-1.2,1.6-1.6c0.7-0.4,1.4-0.7,2.2-0.9
			c0.8-0.2,1.7-0.3,2.5-0.3c1.9-0.1,3.7,0.4,5.3,1.5c1.5,1.2,2.3,2.9,2.4,4.8h3.9c0-1.5-0.4-3-1-4.3c-0.6-1.2-1.4-2.2-2.4-3.1
			c-1.1-0.8-2.3-1.4-3.6-1.8c-1.4-0.4-2.9-0.6-4.3-0.6c-1.5,0-2.9,0.2-4.3,0.6c-1.3,0.3-2.5,0.9-3.6,1.6c-2.3,1.5-3.6,4.1-3.5,6.8
			c0,1.2,0.3,2.4,0.9,3.5c0.6,0.9,1.3,1.7,2.2,2.3c1,0.6,2,1.1,3.1,1.4c1.2,0.3,2.4,0.7,3.6,0.9l3.6,0.8c1.1,0.2,2.2,0.6,3.2,1
			c0.8,0.4,1.6,0.9,2.2,1.6c0.6,0.7,0.9,1.6,0.9,2.6s-0.2,1.9-0.7,2.8c-0.5,0.7-1.1,1.3-1.8,1.7c-0.8,0.4-1.7,0.7-2.5,0.9
			c-0.9,0.2-1.9,0.3-2.8,0.3c-1.1,0-2.3-0.1-3.4-0.4c-1-0.3-2-0.7-2.8-1.3c-0.8-0.6-1.5-1.4-2-2.3c-0.5-1-0.8-2.2-0.8-3.3h-3.9
			c0,1.7,0.3,3.3,1,4.8c0.6,1.3,1.6,2.5,2.8,3.4c1.2,0.9,2.6,1.6,4.1,2c1.6,0.4,3.2,0.7,4.9,0.6c1.5,0,2.9-0.2,4.3-0.5
			s2.7-0.9,3.9-1.6c1.1-0.7,2.1-1.7,2.8-2.8c0.8-1.3,1.2-2.8,1.1-4.3c0-1.3-0.3-2.6-0.9-3.8C329,248.2,328.3,247.4,327.4,246.8
			L327.4,246.8z"/>
		<path id="Shape" class="st55" d="M352.4,258.2c-0.1-0.6-0.1-1.3,0-1.9v-11.5c0-1.1-0.2-2.2-0.7-3.2c-0.5-0.8-1.1-1.4-1.9-1.9
			c-0.8-0.4-1.7-0.7-2.7-0.9c-1-0.1-2-0.1-3,0c-1.2,0-2.4,0.1-3.5,0.4c-1.1,0.2-2.1,0.7-3,1.3s-1.6,1.4-2.1,2.3
			c-0.6,1.1-0.8,2.3-0.9,3.5h3.7c-0.1-1.3,0.6-2.6,1.7-3.4c1.2-0.6,2.5-1,3.9-0.9c0.6,0,1.2,0,1.7,0c0.6,0.1,1.1,0.2,1.6,0.5
			s0.9,0.7,1.2,1.2c0.3,0.6,0.5,1.3,0.4,1.9c0,0.6-0.2,1.1-0.6,1.6c-0.5,0.4-1,0.7-1.6,0.8c-0.8,0.2-1.6,0.3-2.4,0.4
			c-1,0.1-1.9,0.3-2.8,0.5c-0.9,0-1.9,0.4-2.8,0.6c-0.9,0.2-1.7,0.6-2.4,1.2c-0.7,0.5-1.3,1.2-1.7,1.9c-0.5,1-0.7,2-0.6,3.1
			c0,1,0.2,2,0.6,2.8c0.3,0.8,0.9,1.4,1.6,1.9s1.5,0.9,2.3,1.1c0.9,0.2,1.9,0.3,2.9,0.3c1.5,0,2.9-0.3,4.3-0.8
			c1.4-0.6,2.6-1.5,3.5-2.6c-0.1,1,0.2,1.9,0.9,2.6c0.6,0.6,1.4,0.9,2.2,0.8c0.9,0,1.8-0.2,2.6-0.6v-2.8c-0.4,0.1-0.7,0.2-1.1,0.2
			C352.9,258.8,352.5,258.6,352.4,258.2z M348.6,253.9c0,0.6-0.1,1.1-0.4,1.6c-0.3,0.6-0.7,1.2-1.2,1.6c-0.6,0.6-1.3,1-2.1,1.3
			c-1,0.4-2,0.5-3.1,0.5c-0.5,0.1-1.1,0.1-1.6,0s-1-0.3-1.4-0.6c-0.8-0.6-1.3-1.5-1.3-2.5c0-0.6,0.1-1.2,0.3-1.7
			c0.2-0.5,0.6-0.9,1-1.2s0.9-0.5,1.4-0.7c0.6-0.2,1.1-0.3,1.7-0.4l1.9-0.3c0.6,0,1.2-0.1,1.9-0.3l1.6-0.3c0.5-0.1,0.9-0.3,1.3-0.6
			L348.6,253.9L348.6,253.9z"/>
		<path id="Path_56_" class="st55" d="M372.8,251.8c0,0.9-0.1,1.9-0.4,2.8c-0.3,0.8-0.7,1.6-1.2,2.2c-0.6,0.6-1.3,1.1-2.1,1.5
			c-0.9,0.4-1.9,0.5-2.9,0.5c-1.2,0.1-2.4-0.3-3.3-1.2c-0.8-0.9-1.3-2.1-1.2-3.3v-15.1h-3.6v14.7c0,1.1,0.1,2.2,0.4,3.3
			c0.2,1,0.6,1.8,1.3,2.6c0.6,0.7,1.5,1.3,2.4,1.7c1.2,0.4,2.4,0.6,3.7,0.6c1.5,0,3-0.3,4.3-1s2.3-1.8,3-3.1l0,0v3.5h3.5v-22.3H373
			L372.8,251.8z"/>
		<path id="Shape_1_" class="st55" d="M398.3,242.1L398.3,242.1c-0.4-0.6-0.9-1.2-1.5-1.6c-0.6-0.4-1.2-0.8-1.9-1.1
			c-0.6-0.3-1.3-0.5-2-0.6c-0.6,0-1.2,0-1.9,0c-1.5,0-3,0.3-4.3,0.9c-1.2,0.6-2.3,1.4-3.2,2.5c-0.8,1.1-1.5,2.4-1.9,3.7
			c-0.4,1.4-0.6,2.9-0.6,4.3c0,1.5,0.2,2.9,0.6,4.3c0.4,1.3,1.1,2.6,1.9,3.7c0.9,1.1,2,2,3.2,2.6c1.4,0.7,3,1,4.5,0.9
			c1.5,0,3-0.3,4.3-0.9c1.2-0.5,2.3-1.5,2.8-2.7l0,0v3h3.7v-30.7h-3.7V242.1z M398.3,253.4c-0.2,1-0.6,1.9-1.2,2.7
			c-0.6,0.8-1.3,1.5-2.1,1.9c-1,0.5-2.1,0.8-3.1,0.7c-1.1,0-2.1-0.2-3.1-0.7c-0.8-0.4-1.6-1.1-2.2-1.9c-0.6-0.8-1-1.7-1.3-2.7
			s-0.4-2-0.4-3c0-1.1,0.1-2.1,0.3-3.2c0.2-1,0.6-1.9,1.1-2.8c0.5-0.8,1.2-1.5,2-2c1-0.5,2.1-0.8,3.2-0.7c1.1,0,2.2,0.2,3.2,0.7
			c0.9,0.5,1.6,1.1,2.2,1.9c0.6,0.8,1,1.7,1.2,2.7c0.3,1,0.4,2.1,0.4,3.2c-0.1,1-0.3,2.1-0.6,3.1L398.3,253.4L398.3,253.4z"/>
		<rect id="Rectangle" x="407.8" y="239.2" class="st55" width="4.6" height="22.3"/>
		<path id="Shape_2_" class="st55" d="M440.4,230.7h-10.6v30.8h10.6c2.3,0.1,4.5-0.3,6.6-1.1c1.8-0.7,3.4-1.7,4.6-3.1
			c1.3-1.4,2.2-3.2,2.7-5c0.6-2.2,0.9-4.5,0.9-6.9c0.3-4.1-1.1-8.1-3.8-11.1C448.3,231.7,444.3,230.4,440.4,230.7z M450.5,250.8
			c-0.3,1.2-0.8,2.3-1.5,3.4c-0.6,0.8-1.2,1.5-2,2.1c-0.7,0.5-1.5,0.9-2.3,1.2c-0.7,0.3-1.4,0.5-2.2,0.5h-1.7H434v-23.8h6.9
			c1.6,0,3.3,0.2,4.8,0.8c1.2,0.5,2.2,1.3,3.1,2.3c0.8,1.1,1.4,2.4,1.8,3.7c0.4,1.6,0.5,3.3,0.5,5
			C451,247.6,450.9,249.2,450.5,250.8L450.5,250.8z"/>
		<path id="Shape_3_" class="st55" d="M477.2,258.2c-0.1-0.6-0.1-1.3,0-1.9v-11.5c0-1.1-0.2-2.2-0.7-3.2c-0.5-0.8-1.2-1.4-1.9-1.9
			c-0.9-0.4-1.8-0.7-2.7-0.9c-1-0.1-2-0.1-3,0c-1.2,0-2.4,0.1-3.5,0.4c-1.1,0.2-2.1,0.7-3,1.3s-1.6,1.4-2.1,2.3
			c-0.5,1.1-0.8,2.3-0.9,3.5h3.7c-0.1-1.3,0.6-2.6,1.7-3.4c1.2-0.6,2.5-1,3.9-0.9h1.7c0.6,0.1,1.1,0.2,1.6,0.5s0.9,0.7,1.2,1.2
			c0.3,0.6,0.5,1.3,0.5,1.9c0,0.6-0.2,1.1-0.6,1.6c-0.5,0.4-1,0.7-1.6,0.8c-0.8,0.2-1.6,0.3-2.4,0.4c-1,0.1-1.9,0.3-2.8,0.5
			c-0.9,0-1.9,0.4-2.8,0.6c-0.9,0.2-1.7,0.6-2.4,1.2c-0.7,0.5-1.3,1.2-1.7,1.9c-0.5,1-0.7,2-0.6,3.1c0,1,0.2,2,0.6,2.8
			c0.3,0.8,0.9,1.4,1.6,1.9s1.5,0.9,2.4,1.1s1.9,0.3,2.9,0.3c1.5,0,2.9-0.3,4.3-0.8c1.4-0.6,2.6-1.5,3.5-2.6c-0.1,1,0.2,1.9,0.8,2.6
			c0.6,0.6,1.4,0.9,2.3,0.8c0.9,0,1.8-0.2,2.6-0.6v-2.8c-0.4,0.1-0.7,0.2-1.1,0.2C477.6,258.8,477.3,258.6,477.2,258.2z
			 M473.4,253.9c0,0.6-0.1,1.1-0.4,1.6c-0.3,0.6-0.7,1.2-1.2,1.6c-0.6,0.6-1.3,1-2.1,1.3c-1,0.4-2,0.5-3.1,0.5
			c-0.5,0.1-1.1,0.1-1.6,0s-1-0.3-1.4-0.6c-0.4-0.3-0.7-0.6-0.9-1c-0.3-0.5-0.4-1-0.4-1.5c0-0.6,0.1-1.2,0.4-1.7
			c0.2-0.5,0.6-0.9,1-1.2s0.9-0.5,1.4-0.7c0.6-0.2,1.1-0.3,1.7-0.4l1.9-0.3c0.6,0,1.2-0.1,1.9-0.3l1.6-0.3c0.5-0.1,0.9-0.3,1.3-0.6
			L473.4,253.9L473.4,253.9z"/>
		<path id="Path_57_" class="st55" d="M487.9,232.5h-3.7v6.7h-3.8v3.2h3.8v14.2c0,0.8,0.1,1.7,0.3,2.5c0.2,0.6,0.5,1.1,0.9,1.5
			c0.5,0.4,1.1,0.6,1.7,0.7c0.8,0.1,1.6,0.1,2.4,0h2.8v-3.2h-1.7h-1.4c-0.3,0-0.6-0.1-0.9-0.3c-0.2-0.1-0.3-0.4-0.4-0.6
			c-0.1-0.3-0.1-0.7,0-1v-13.8h4.3v-3.2H488L487.9,232.5z"/>
		<path id="Shape_4_" class="st55" d="M514,258.2c-0.1-0.6-0.1-1.3,0-1.9v-11.5c0.1-1.1-0.1-2.2-0.6-3.2c-0.5-0.8-1.2-1.4-1.9-1.9
			c-0.9-0.4-1.8-0.7-2.7-0.9c-1-0.1-2-0.1-3,0c-1.2,0-2.4,0.1-3.5,0.4c-1.1,0.2-2.1,0.7-3,1.3s-1.6,1.4-2.1,2.3
			c-0.5,1.1-0.8,2.3-0.9,3.5h3.7c-0.1-1.3,0.6-2.6,1.7-3.4c1.2-0.6,2.5-1,3.9-0.9c0.6,0,1.2,0,1.8,0c0.6,0.1,1.1,0.2,1.6,0.5
			s0.9,0.7,1.2,1.2c0.3,0.6,0.5,1.3,0.4,1.9c0.1,0.6-0.2,1.2-0.6,1.6c-0.5,0.4-1,0.7-1.6,0.8c-0.8,0.2-1.6,0.3-2.4,0.4
			c-1,0.1-1.9,0.3-2.9,0.5c-0.9,0-1.9,0.4-2.8,0.6c-0.9,0.2-1.7,0.6-2.4,1.2c-0.7,0.5-1.3,1.2-1.7,1.9c-0.5,1-0.7,2-0.6,3.1
			c0,1,0.2,2,0.6,2.8c0.3,0.8,0.9,1.4,1.6,1.9s1.5,0.9,2.4,1.1s1.9,0.3,2.8,0.3c1.5,0,2.9-0.3,4.3-0.8c1.4-0.6,2.6-1.5,3.5-2.6
			c-0.1,1,0.2,1.9,0.9,2.6c0.6,0.6,1.4,0.9,2.3,0.8c0.9,0,1.8-0.2,2.6-0.6v-2.8c-0.4,0.1-0.7,0.2-1.1,0.2
			C514.4,258.8,514.1,258.6,514,258.2z M510.2,253.9c0,0.6-0.1,1.1-0.4,1.6c-0.3,0.6-0.7,1.2-1.2,1.6c-0.6,0.6-1.3,1-2.1,1.3
			c-1,0.4-2,0.5-3.1,0.5c-0.5,0.1-1.1,0.1-1.6,0s-0.9-0.3-1.3-0.6c-0.4-0.3-0.7-0.6-0.9-1c-0.3-0.5-0.4-1-0.4-1.5
			c0-0.6,0.1-1.2,0.4-1.7c0.2-0.5,0.5-0.9,0.9-1.2s0.9-0.5,1.4-0.7c0.6-0.2,1.1-0.3,1.7-0.4l1.9-0.3c0.6,0,1.2-0.1,1.8-0.3l1.6-0.3
			c0.5-0.1,0.9-0.3,1.3-0.6L510.2,253.9L510.2,253.9z"/>
		<path id="Shape_5_" class="st55" d="M551.4,252.7c0.2-0.5,0.4-1.1,0.6-1.6c0.2-0.6,0.3-1.2,0.4-1.8c0-0.7,0.1-1.4,0.3-2.3h-3.5
			c-0.1,1.6-0.4,3.3-1,4.8l-5.6-6.8c0.8-0.4,1.5-0.9,2.2-1.5c0.7-0.5,1.3-1.1,1.9-1.8c0.6-0.6,1-1.4,1.3-2.2s0.5-1.7,0.5-2.6
			c0-0.9-0.2-1.9-0.6-2.7c-0.4-0.8-1-1.5-1.7-2c-0.7-0.6-1.5-1-2.4-1.2c-0.9-0.3-1.9-0.4-2.8-0.4c-1,0-2,0.2-3,0.5
			c-0.8,0.3-1.6,0.8-2.2,1.4c-0.6,0.6-1.1,1.3-1.3,2c-0.5,1.4-0.5,2.9,0,4.3c0.2,0.6,0.4,1.2,0.8,1.8c0.3,0.6,0.7,1.1,1.1,1.6
			l1.3,1.8c-1,0.5-1.9,1-2.8,1.6c-0.9,0.6-1.6,1.2-2.3,2c-0.7,0.7-1.2,1.6-1.6,2.5c-0.4,1-0.6,2.1-0.6,3.2c0,0.8,0.1,1.6,0.3,2.4
			c0.3,1,0.7,2,1.4,2.8c0.8,1,1.8,1.7,2.9,2.3c1.6,0.7,3.3,1.1,5,1c0.9,0,1.7-0.1,2.5-0.3c0.8-0.2,1.6-0.4,2.4-0.8
			c0.8-0.3,1.5-0.8,2.1-1.3s1.2-1.2,1.6-1.9l3.3,3.8h4.5l-5.9-6.8C551,253.9,551.2,253.3,551.4,252.7z M538.8,234.7
			c0.7-0.5,1.6-0.8,2.5-0.8c1,0,1.9,0.3,2.6,1c0.6,0.6,1,1.4,0.9,2.3c0,0.6-0.1,1.2-0.4,1.8c-0.3,0.5-0.6,1-1,1.4s-0.9,0.8-1.3,1.2
			l-1.4,0.9l-1.1-1.3l-0.9-1.3c-0.3-0.4-0.5-0.9-0.7-1.4c-0.2-0.4-0.3-0.9-0.3-1.4C537.6,236.2,538,235.3,538.8,234.7L538.8,234.7z
			 M543.8,257.8c-1.2,0.7-2.5,1-3.8,1c-0.7,0-1.5-0.1-2.2-0.4c-0.7-0.2-1.3-0.6-1.9-1.1c-1.1-0.9-1.8-2.3-1.8-3.8
			c0-0.8,0.1-1.6,0.4-2.4c0.3-0.7,0.7-1.3,1.2-1.8c0.5-0.6,1.1-1.1,1.7-1.5c0.7-0.5,1.3-0.9,2-1.3l7.1,8.6
			C545.8,256.3,544.8,257.1,543.8,257.8z"/>
		<path id="Shape_6_" class="st55" d="M579.7,230.7l-12,30.8h4.3l3.5-9.3h12.9l3.4,9.3h4.3l-12-30.8H579.7z M576.7,248.8l5.2-14.4
			l0,0l5.1,14.4H576.7z"/>
		<rect id="Rectangle_1_" x="599.5" y="230.7" class="st55" width="4.6" height="30.8"/>
		<path id="Shape_7_" class="st55" d="M630.9,230.7l-12,30.8h4.3l3.5-9.3h12.9l3.4,9.3h4.5l-12-30.8H630.9z M627.8,248.8l5.2-14.4
			l0,0l5.4,14.4H627.8z"/>
		<path id="Path_58_" class="st55" d="M664.7,251.8c0,0.9-0.1,1.9-0.4,2.8c-0.3,0.8-0.7,1.6-1.2,2.2c-0.6,0.6-1.3,1.1-2.1,1.5
			c-0.9,0.4-1.9,0.5-2.9,0.5c-1.2,0.1-2.3-0.4-3.2-1.2c-0.9-0.8-1.3-1.9-1.3-3.1v-15.3h-3.7v14.7c0,1.1,0.1,2.2,0.4,3.3
			c0.2,0.9,0.7,1.8,1.3,2.6c0.6,0.8,1.4,1.3,2.4,1.7c1.2,0.4,2.4,0.6,3.7,0.6c1.5,0,3-0.3,4.3-1s2.3-1.8,3-3.1l0,0v3.5h3.5v-22.3
			h-3.7L664.7,251.8L664.7,251.8z"/>
		<path id="Path_59_" class="st55" d="M679,232.5h-3.7v6.7h-3.8v3.2h3.8v14.2c0,0.8,0.1,1.7,0.3,2.5c0.2,0.6,0.5,1.1,0.9,1.5
			c0.5,0.4,1,0.6,1.6,0.7c0.8,0.1,1.6,0.1,2.4,0h2.8v-3.2h-1.9H680c-0.3,0-0.6-0.1-0.9-0.3c-0.2-0.1-0.3-0.4-0.4-0.6
			c-0.1-0.3-0.1-0.7,0-1v-13.8h4.3v-3.2h-4V232.5z"/>
		<path id="Path_60_" class="st55" d="M704.4,240.9c-0.7-0.7-1.5-1.3-2.4-1.7c-1.2-0.4-2.4-0.6-3.7-0.6c-1.4,0-2.8,0.3-4.1,0.9
			c-0.6,0.3-1.2,0.7-1.7,1.2s-0.9,1.1-1.3,1.7l0,0v-11.8h-3.7v30.8h3.7v-12.6c0-1,0.1-1.9,0.4-2.8c0.2-0.8,0.7-1.6,1.2-2.2
			c0.6-0.7,1.3-1.2,2.1-1.5c0.9-0.4,1.9-0.5,2.9-0.5c1.2-0.1,2.3,0.4,3.2,1.2s1.3,1.9,1.3,3.1v15.1h3.7v-14.7c0-1.1-0.1-2.2-0.4-3.3
			C705.4,242.4,705,241.6,704.4,240.9z"/>
		<path id="Shape_8_" class="st55" d="M729,242.1c-0.9-1.1-2.1-1.9-3.4-2.5c-1.5-0.6-3.1-0.9-4.7-0.9c-1.6,0-3.2,0.3-4.7,0.9
			c-1.3,0.6-2.4,1.4-3.4,2.5s-1.7,2.3-2.1,3.7c-0.5,1.5-0.7,3.1-0.7,4.6c0,1.6,0.2,3.1,0.7,4.6c0.4,1.4,1.1,2.6,2.1,3.7
			c0.9,1.1,2.1,1.9,3.4,2.5c1.5,0.6,3.1,0.9,4.7,0.9c1.6,0,3.2-0.3,4.7-0.9c1.3-0.5,2.5-1.3,3.4-2.3c1-1.1,1.7-2.3,2.1-3.7
			c0.5-1.5,0.7-3,0.7-4.6s-0.2-3.1-0.7-4.6C730.7,244.5,730,243.2,729,242.1L729,242.1z M727.4,254c-0.3,1-0.8,1.9-1.5,2.6
			c-0.6,0.7-1.4,1.3-2.2,1.6c-1.7,0.7-3.7,0.7-5.4,0c-0.8-0.4-1.6-0.9-2.2-1.6c-0.7-0.8-1.2-1.7-1.5-2.6c-0.7-2.4-0.7-4.9,0-7.2
			c0.3-1,0.8-1.9,1.5-2.6c0.6-0.7,1.4-1.3,2.2-1.7c1.7-0.7,3.7-0.7,5.4,0c0.8,0.4,1.6,1,2.2,1.7c0.7,0.8,1.2,1.7,1.5,2.6
			C728.1,249.1,728.1,251.6,727.4,254L727.4,254z"/>
		<path id="Path_61_" class="st55" d="M739.7,243.9L739.7,243.9v-4.7h-3.5v22.3h3.7v-9.9c0-1.3,0.1-2.6,0.4-3.8c0.3-1,0.7-2,1.4-2.8
			s1.6-1.4,2.5-1.8c1.2-0.5,2.5-0.7,3.8-0.6v-3.9c-1.7-0.1-3.5,0.3-5,1.2C741.6,240.9,740.4,242.3,739.7,243.9L739.7,243.9z"/>
		<rect id="Rectangle_2_" x="750.9" y="239.2" class="st55" width="4.6" height="22.3"/>
		<path id="Path_62_" class="st55" d="M765.4,232.5h-3.7v6.7h-3.8v3.2h3.8v14.2c0,0.8,0.1,1.7,0.3,2.5c0.2,0.6,0.5,1.1,0.9,1.5
			c0.5,0.4,1,0.6,1.6,0.7c0.8,0.1,1.6,0.1,2.5,0h2.8v-3.2h-1.7h-1.4c-0.3,0-0.6-0.1-0.8-0.3c-0.2-0.2-0.4-0.4-0.4-0.6
			c0-0.3,0-0.7,0-1v-13.8h4.3v-3.2h-4.3L765.4,232.5z"/>
		<path id="Path_63_" class="st55" d="M788.4,239.2l-6.3,18.3l0,0l-6.5-18.3h-4.3l8.6,22.2l-1.5,3.8c-0.3,0.6-0.7,1.1-1.2,1.5
			s-1.2,0.6-1.8,0.5c-0.4,0.1-0.7,0.1-1.1,0l-1.1-0.3v3.4c0.4,0.1,0.8,0.2,1.3,0.3h1.3c0.7,0,1.5-0.1,2.2-0.3c0.6-0.2,1.2-0.6,1.7-1
			c0.5-0.5,1-1.2,1.4-1.9c0.5-0.9,0.9-1.8,1.3-2.8l9.7-25.3L788.4,239.2z"/>
		<polygon id="Path_64_" class="st55" points="411.5,230.7 407.8,230.7 407.8,235.1 411.5,233 		"/>
		<polygon id="Path_65_" class="st55" points="754.6,230.7 750.9,230.7 750.9,235.1 754.6,233 		"/>
		<path id="Path_66_" class="st55" d="M305.9,155.7c0.8,0.6,1.7,1,2.7,1.1c1.4,0.3,2.9,0.4,4.3,0.3h26.2v-16.6h-3.5v12.9h-21.1
			c-1.4,0-2.5,0-3.4,0c-0.7,0-1.5-0.2-2.1-0.6c-0.5-0.2-0.9-0.7-1.1-1.2c-0.2-0.7-0.4-1.4-0.3-2.1v-5.4H304v6.8c0,1,0.1,2,0.4,2.9
			C304.8,154.6,305.3,155.3,305.9,155.7L305.9,155.7z"/>
		<path id="Path_67_" class="st55" d="M346.7,155.9c0.6,0.5,1.2,0.8,1.9,0.9c0.8,0.2,1.7,0.3,2.5,0.3h17.7v-16.6h-3.5v12.9h-13.7
			c-1.3,0-2.1-0.3-2.5-0.8c-0.4-0.8-0.6-1.7-0.6-2.5v-23.9h-3.4v24.9c0,1,0.1,1.9,0.4,2.8C345.8,154.8,346.2,155.4,346.7,155.9z"/>
		<path id="Path_68_" class="st55" d="M376.6,155.9c0.6,0.5,1.2,0.8,1.9,0.9c0.8,0.2,1.7,0.3,2.5,0.3h11c1.5,0.1,2.9-0.1,4.3-0.5
			c1.1-0.4,2-1.2,2.4-2.3c0.2,0.8,0.7,1.5,1.4,2c0.8,0.6,1.7,0.9,2.7,0.8h3.5c1.5,0.1,2.9-0.1,4.3-0.5c1.1-0.4,2-1.2,2.4-2.3
			c0.2,0.8,0.7,1.5,1.4,2c0.8,0.6,1.7,0.9,2.7,0.8h3.1c1.5,0,2.9-0.1,4.3-0.5c1.1-0.3,2.1-1.2,2.5-2.3c0.2,0.8,0.7,1.5,1.3,2
			c0.8,0.6,1.7,0.9,2.7,0.8h10.3v-30.8H438v27.3h-7.1c-1.1,0.1-2.2-0.4-2.8-1.3c-0.6-1-0.9-2.2-0.9-3.5v-22.5h-3.5v24.1
			c0,0.6-0.1,1.1-0.3,1.7c-0.2,0.7-0.9,1.3-1.6,1.4h-1.4h-3.5c-0.6,0-1.3-0.1-1.9-0.3c-0.5-0.2-0.8-0.6-1.2-0.9
			c-0.3-0.4-0.4-0.8-0.6-1.3c0-0.6,0-1.3,0-1.9v-8.5h-3.5v9.9c0.1,0.6,0.1,1.1,0,1.7c-0.1,0.4-0.4,0.7-0.7,0.9
			c-0.4,0.2-0.8,0.4-1.3,0.4H406h-2.9c-0.6,0-1.3-0.1-1.9-0.3c-0.5-0.2-0.8-0.6-1.2-0.9c-0.3-0.4-0.5-1-0.6-1.5
			c-0.1-0.6-0.1-1.3,0-1.9v-8.2H396v9.9c0.1,0.6,0.1,1.1,0,1.7c-0.1,0.4-0.4,0.7-0.7,0.9c-0.4,0.2-0.8,0.4-1.3,0.4h-1.8h-10.7
			c-1.3,0-2.2-0.3-2.5-0.8c-0.4-0.8-0.6-1.7-0.6-2.5v-23.9h-3.5v24.9c0,1,0.1,1.9,0.4,2.8C375.6,154.8,376,155.4,376.6,155.9
			L376.6,155.9z"/>
		<path id="Shape_9_" class="st55" d="M459.3,152.2c0.8,0.5,1.7,0.9,2.6,1.1c0.8,0.2,1.6,0.3,2.4,0.3c0.8,0.1,1.5,0.1,2.3,0
			c0.7-0.2,1.4-0.3,2.2-0.6c0.1,1.4,0.9,2.7,2.1,3.5c0.6,0.3,1.2,0.6,1.8,0.7c0.7,0.1,1.4,0.1,2.2,0H493v-16.6h-3.5v12.9h-14.1
			c-1.3,0-2.2-0.3-2.5-0.8c-0.4-0.8-0.6-1.7-0.6-2.5V138h-6.9c-1.1,0-2.1,0.2-3.1,0.4c-1,0.3-2,0.8-2.9,1.4
			c-0.9,0.7-1.6,1.6-2.1,2.6c-0.6,1.2-0.9,2.5-0.8,3.9c0,1.3,0.3,2.6,0.9,3.8C457.7,151,458.4,151.7,459.3,152.2z M461.2,142.6
			c1.1-0.7,2.3-1.1,3.6-1h3.8v7.6c-0.7,0.2-1.3,0.4-2,0.6c-0.7,0.1-1.4,0.1-2,0c-1.3,0.1-2.6-0.3-3.7-1.1c-0.8-0.9-1.3-2-1.2-3.2
			c0.1-1.2,0.6-2.3,1.5-3.1L461.2,142.6L461.2,142.6z"/>
		<path id="Path_69_" class="st55" d="M511.7,155.9c1-0.9,1.5-2.1,1.4-3.4c0-0.7-0.2-1.4-0.4-2c-0.4-0.8-0.8-1.6-1.2-2.4
			c-0.6-0.9-1.3-2.1-2.1-3.5c-0.9-1.3-1.9-3-3-5l-3.3,2.1l3.5,5.1c0.9,1.3,1.5,2.2,1.9,2.9c0.3,0.5,0.6,1,0.8,1.5
			c0.1,0.3,0.1,0.6,0,0.9c0,0.4-0.1,0.7-0.4,1c-0.5,0.4-1.2,0.6-1.9,0.5h-10v3.6h10.3C508.9,157.3,510.4,156.9,511.7,155.9
			L511.7,155.9z"/>
		<path id="Shape_10_" class="st55" d="M602.8,153.6H596c-0.6,0-1.3-0.1-1.9-0.3c-0.5-0.2-0.8-0.6-1.2-0.9c-0.3-0.5-0.5-1-0.6-1.5
			c-0.1-0.6-0.1-1.3,0-1.9v-8.3h-3.5v9.9c0,0.6-0.1,1.1-0.2,1.7c-0.1,0.4-0.4,0.7-0.7,0.9s-0.7,0.4-1,0.4h-1.3
			c-0.7,0-1.4-0.1-2.1-0.3c-0.5-0.2-0.9-0.5-1.3-0.9c-0.3-0.4-0.5-1-0.6-1.5c-0.1-0.6-0.1-1.3,0-1.9v-6h-3.5v7.7
			c0,0.6-0.1,1.1-0.3,1.7c-0.1,0.4-0.4,0.7-0.7,0.9c-0.4,0.2-0.7,0.4-1.2,0.4h-1.6c-0.8,0-1.6-0.1-2.4-0.3c-0.5-0.2-1-0.5-1.3-0.9
			s-0.5-1-0.6-1.5c0-0.6,0-1.3,0-1.9v-6h-3.5v7.7c0,0.6-0.1,1.1-0.3,1.7c-0.2,0.4-0.5,0.7-0.9,0.9c-0.5,0.2-1,0.4-1.6,0.4h-2.4h-7.5
			c-0.7,0.1-1.4,0.1-2.2,0c1.4-1,2.7-2.2,3.7-3.7c0.9-1.3,1.3-2.8,1.3-4.3c0-0.7-0.1-1.4-0.4-2c-0.3-0.7-0.8-1.3-1.4-1.7
			c-0.7-0.6-1.5-1-2.3-1.2c-1.1-0.3-2.2-0.5-3.3-0.4c-1.5,0-2.9,0.2-4.3,0.8c-1.3,0.5-2.4,1.2-3.4,2.2c-0.2,0.2-0.4,0.4-0.5,0.6
			c-0.2,0.3-0.4,0.6-0.5,0.9c-0.2,0.3-0.3,0.7-0.4,1c-0.1,0.3-0.2,0.7-0.3,1l5.4,6.1c-1,0.3-2,0.5-3.1,0.7c-1.1,0.1-2.2,0.1-3.2,0
			h-5v-2c0-1.5-0.1-3.1-0.4-4.6c-0.2-1.3-0.7-2.5-1.4-3.5c-0.6-1-1.5-1.8-2.5-2.3c-1.2-0.5-2.5-0.8-3.8-0.8s-2.5,0.2-3.6,0.8
			c-1,0.5-1.9,1.2-2.7,2.1c-0.7,0.9-1.3,1.9-1.7,3s-0.6,2.3-0.6,3.5s0.2,2.4,0.6,3.5c0.4,0.9,1,1.7,1.7,2.3c0.8,0.6,1.6,1.1,2.6,1.3
			c1.1,0.3,2.2,0.4,3.3,0.4h4.9c0,1-0.3,2-0.8,2.8c-0.5,0.7-1.1,1.3-1.9,1.6c-0.9,0.5-1.9,0.7-2.9,0.8c-1.2,0.1-2.5,0.1-3.7,0h-1.3
			v3.6h1.8c1.6,0,3.3-0.1,4.9-0.4c1.4-0.2,2.7-0.7,3.8-1.5c1.1-0.7,1.9-1.6,2.5-2.8c0.7-1.3,1.1-2.8,1.1-4.3h5.3
			c1.4,0,2.9-0.2,4.3-0.5c1.5-0.3,2.9-0.7,4.3-1.3c0.7,0.6,1.5,1.1,2.4,1.4c0.8,0.2,1.6,0.3,2.4,0.3h8.6c1.3,0,2.3,0,3.2,0
			c0.8,0,1.5-0.2,2.3-0.4c0.6-0.2,1.1-0.5,1.5-0.9s0.8-0.9,1-1.4c0.1,0.3,0.1,0.6,0.3,0.9c0.3,0.4,0.6,0.7,1,0.9
			c0.5,0.3,1.1,0.5,1.6,0.6c0.8,0.2,1.7,0.3,2.5,0.3c1.3,0,2.6-0.1,3.8-0.5c1.1-0.4,2-1.2,2.4-2.3c0.2,0.3,0.4,0.7,0.6,0.9
			c0.3,0.4,0.6,0.7,1,0.9c0.5,0.3,1.1,0.6,1.6,0.7c0.8,0.2,1.6,0.3,2.4,0.3h1.3c0.5-0.1,1-0.2,1.5-0.4s1-0.5,1.5-0.9
			s0.9-0.9,1.1-1.4c0.2,0.8,0.7,1.5,1.4,2c0.8,0.6,1.7,0.9,2.7,0.8h10.4v-30.9h-3.6L602.8,153.6z M529.9,153.6h-4.6
			c-1.3,0.1-2.7-0.3-3.8-1c-0.9-0.8-1.3-2-1.3-3.2c0-0.7,0.1-1.3,0.3-2s0.5-1.3,0.9-1.8s0.9-1,1.5-1.3c0.7-0.3,1.4-0.5,2.2-0.5
			c1.5-0.1,2.9,0.6,3.7,1.9c0.8,1.6,1.2,3.3,1.1,5.1L529.9,153.6L529.9,153.6z M548.1,151.4l-5.3-5.6c0.6-0.8,1.5-1.4,2.5-1.8
			c1-0.5,2.1-0.7,3.2-0.7c1.1-0.1,2.2,0.2,3.2,0.8c0.6,0.4,1,1.1,1,1.8c0,1.1-0.5,2.2-1.3,3C550.5,150,549.3,150.8,548.1,151.4
			L548.1,151.4z"/>
		<rect id="Rectangle_3_" x="612.4" y="126.4" class="st55" width="4.6" height="30.8"/>
		<path id="Path_70_" class="st55" d="M670.6,133.3h-3c-0.8,0.1-1.6-0.2-2.2-0.7c-0.6-0.6-0.9-1.3-0.8-2.1c0-0.6,0.2-1.2,0.6-1.7
			c0.5-0.6,1.3-0.9,2-0.8c0.8,0,1.5,0.1,2.2,0.4v-2.3l-0.9-0.2c-0.5-0.1-1-0.1-1.6,0c-0.6,0-1.2,0.1-1.7,0.3c-0.5,0.2-1,0.5-1.5,0.9
			c-0.4,0.4-0.8,0.9-1,1.5c-0.3,0.7-0.4,1.4-0.4,2.1c0,1.1,0.3,2.1,1,2.9h-2.2v2.3h9.4v-2.6H670.6z"/>
		<path id="Shape_11_" class="st55" d="M718.5,126.4H715v27.3h-13l0,0c0.8-0.7,1.6-1.6,2.1-2.6c0.7-1.2,1-2.6,0.9-3.9
			c0-0.8-0.1-1.5-0.3-2.2c-0.3-0.8-0.7-1.6-1.2-2.2c-0.5-0.7-1.3-1.3-2.1-1.7c-1-0.5-2.1-0.7-3.2-0.7c-2.3-0.1-4.5,1-5.9,2.9
			c-1.5,2.3-2.3,5.1-2.2,7.9v2.5h-4.3c-0.6,0-1.3-0.1-1.9-0.3c-0.5-0.2-0.8-0.6-1.2-0.9c-0.3-0.4-0.5-1-0.6-1.5
			c-0.1-0.6-0.1-1.3,0-1.9v-8.2h-3.5v9.9c0.1,0.6,0.1,1.1,0,1.7c-0.1,0.4-0.4,0.7-0.7,0.9c-0.4,0.2-0.8,0.4-1.3,0.4H675h-2.9
			c-0.6,0-1.3-0.1-1.9-0.3c-0.5-0.2-0.8-0.6-1.2-0.9c-0.3-0.5-0.5-1-0.6-1.5c0-0.6,0-1.3,0-1.9V141h-4.2v9.9c0,0.6-0.1,1.1-0.3,1.7
			c-0.1,0.4-0.4,0.7-0.7,0.9c-0.4,0.2-0.8,0.4-1.2,0.4h-1.8H650c-1.3,0-2.1-0.3-2.5-0.8c-0.4-0.8-0.6-1.7-0.6-2.5V138H640
			c-1,0-2.1,0.2-3.1,0.4c-1,0.3-2,0.8-2.9,1.4c-0.9,0.7-1.6,1.6-2.1,2.6c-0.6,1.2-0.9,2.5-0.8,3.9c0,1.3,0.3,2.6,0.9,3.8
			c0.5,0.9,1.2,1.6,2.1,2.2c0.8,0.5,1.7,0.9,2.6,1.1c0.8,0.2,1.6,0.3,2.4,0.3c0.8,0.1,1.6,0.1,2.3,0s1.4-0.3,2.1-0.6
			c0.1,0.7,0.3,1.5,0.7,2.1c0.4,0.5,0.8,1,1.4,1.3c0.6,0.4,1.2,0.6,1.8,0.7c0.7,0.1,1.4,0.1,2.1,0H661c1.4,0,2.7-0.1,4.1-0.5
			c1.1-0.3,2-1.2,2.5-2.3c0.2,0.8,0.7,1.5,1.4,2c0.8,0.6,1.7,0.9,2.7,0.8h3.5c1.4,0,2.8-0.1,4.1-0.5c1.1-0.4,2-1.2,2.4-2.3
			c0.2,0.8,0.7,1.5,1.4,2c0.8,0.6,1.7,0.9,2.7,0.8h4.4v0.5c0,1.4,0.1,2.9,0.4,4.3c0.2,1.1,0.7,2.2,1.3,3.2c0.6,0.9,1.4,1.6,2.4,2
			c1.2,0.5,2.5,0.7,3.8,0.7c1,0,2-0.2,3-0.5c0.8-0.3,1.5-0.8,2.1-1.4c0.6-0.6,1-1.3,1.3-2c0.3-0.8,0.4-1.6,0.4-2.4
			c0-0.7-0.1-1.3-0.3-1.9c-0.2-0.8-0.7-1.6-1.3-2.2l0,0h15.1L718.5,126.4z M643.3,149.2c-0.6,0.2-1.3,0.4-1.9,0.6
			c-0.7,0.1-1.4,0.1-2.1,0c-1.3,0.1-2.6-0.3-3.6-1.1c-0.8-0.8-1.2-1.8-1.2-2.9c-0.1-1.3,0.4-2.5,1.5-3.3c1-0.7,2.3-1.1,3.5-1h3.8
			V149.2z M693.8,150.8c-0.1-1.9,0.3-3.7,1.2-5.4c0.7-1.2,1.9-1.9,3.2-1.9c0.9,0,1.8,0.3,2.5,0.9c0.8,0.8,1.1,1.9,1,3.1
			c0,0.6-0.1,1.3-0.3,1.9c-0.2,0.7-0.6,1.4-1,2c-0.5,0.7-1.1,1.2-1.9,1.6c-0.9,0.5-1.8,0.7-2.8,0.6h-1.9V150.8z M700.9,163.7
			c-0.7,0.7-1.7,1-2.7,0.9c-0.8,0-1.5-0.1-2.2-0.5c-0.5-0.4-1-0.8-1.3-1.4c-0.3-0.6-0.5-1.3-0.6-2c0-0.8,0-1.7,0-2.5v-0.8h3.2
			c0.9,0,1.7,0.1,2.5,0.4c0.5,0.3,1,0.6,1.4,1.1c0.3,0.4,0.5,0.8,0.6,1.3c0,0.4,0,0.7,0,1.1C701.8,162.2,701.5,163,700.9,163.7
			L700.9,163.7z"/>
		<rect id="Rectangle_4_" x="724.6" y="126.4" class="st55" width="4.6" height="30.8"/>
		<path id="Path_71_" class="st55" d="M331.7,209.4h22v-3.6h-6.3c-1.6,0.2-3.1-0.4-4.3-1.4c-0.9-1-1.4-2.2-1.4-3.6
			c-0.1-1.4,0.5-2.8,1.6-3.7c1.2-0.9,2.8-1.4,4.3-1.3c0.8-0.1,1.6-0.1,2.3,0c0.6,0.1,1.2,0.3,1.8,0.5v-3.8c-0.5-0.2-1-0.4-1.6-0.4
			c-0.9-0.1-1.8-0.1-2.6,0c-1.1,0-2.3,0.2-3.4,0.5s-2.1,0.9-3,1.6c-0.9,0.7-1.7,1.7-2.2,2.7c-0.6,1.2-0.9,2.5-0.8,3.9
			c0,1,0.2,2,0.5,2.9c0.3,0.8,0.7,1.5,1.3,2.1h-9.5c-3.6-0.1-7.1-0.7-10.4-2v3.3l3,0.9c1.1,0.3,2.1,0.6,3.1,1
			c0.9,0.3,1.7,0.8,2.5,1.3c0.6,0.4,1,1,1,1.8c0,0.6-0.3,1.2-0.9,1.6c-0.7,0.5-1.5,0.9-2.4,1.2c-1.1,0.3-2.3,0.6-3.5,0.7
			c-1.3,0-2.7,0-4.3,0c-3,0.2-6-0.4-8.6-1.8c-1.8-1.3-2.8-3.4-2.6-5.7v-5.3h-3.5v6.6c0,1.4,0.2,2.7,0.6,4.1c0.4,1.3,1.2,2.4,2.3,3.3
			c1.3,1,2.7,1.8,4.3,2.2c2.3,0.6,4.8,0.8,7.2,0.8c2.2,0,4.5-0.1,6.6-0.6c1.5-0.3,3-0.8,4.3-1.6c1-0.5,1.8-1.3,2.4-2.2
			c0.5-0.8,0.8-1.6,0.8-2.5c0-0.6-0.1-1.2-0.3-1.8C332.1,210.4,332,209.9,331.7,209.4L331.7,209.4z"/>
		<path id="Shape_12_" class="st55" d="M448.6,192.2c-1.9,0-3.8,0.4-5.5,1.2s-3.2,1.9-4.6,3.2c-1.3,1.3-2.5,2.7-3.5,4.3
			c-0.9,1.5-1.7,3.1-2.2,4.8c-0.6,0-1.1-0.1-1.6-0.3c-0.4-0.2-0.7-0.6-0.9-0.9c-0.2-0.5-0.4-1-0.4-1.5c0-0.6,0-1.3,0-1.9v-6h-3.5
			v7.9c0,0.6-0.1,1.1-0.3,1.7c-0.2,0.4-0.5,0.7-0.9,0.9c-0.5,0.2-1,0.4-1.6,0.4h-2.4h-4.7v-3.7c0.1-2.7-0.7-5.3-2.4-7.3
			c-1.7-1.8-4.1-2.7-6.6-2.6c-2.4,0-4.8,0.6-6.8,1.9c-2.1,1.4-3.9,3.3-5.2,5.6v-21.2H392V206h-4.9c-0.6,0-1.3-0.1-1.9-0.3
			c-0.5-0.2-0.9-0.5-1.2-0.9c-0.3-0.5-0.5-1-0.6-1.5c0-0.6,0-1.3,0-1.9v-8.3H380v10c0,0.6-0.1,1.1-0.3,1.7c-0.1,0.4-0.4,0.7-0.7,0.9
			c-0.4,0.2-0.8,0.4-1.2,0.4H376h-10.1c-1.3,0-2.1-0.3-2.5-0.8c-0.4-0.8-0.6-1.7-0.6-2.5v-24h-3.5v24.9c0,1,0.1,1.9,0.5,2.8
			c0.2,0.7,0.7,1.4,1.3,1.9c0.6,0.5,1.2,0.8,1.9,0.9c0.8,0.2,1.7,0.3,2.5,0.3h11.1c1.4,0,2.7-0.1,4.1-0.5c1.1-0.3,2-1.2,2.5-2.3
			c0.2,0.8,0.7,1.5,1.4,2c0.8,0.6,1.7,0.9,2.7,0.8h34.1c1.3,0,2.3,0,3.3,0c0.8,0,1.6-0.2,2.4-0.4c0.6-0.2,1.2-0.5,1.6-0.9
			c0.5-0.4,0.8-0.9,1-1.4c0,0.3,0.3,0.7,0.6,1c0.2,0.4,0.5,0.7,0.9,0.9c0.4,0.3,0.9,0.5,1.4,0.6c0.7,0.2,1.5,0.3,2.2,0.3H458v-7.4
			c0.2-2.7-0.7-5.3-2.4-7.3C453.8,192.9,451.2,192,448.6,192.2L448.6,192.2z M413,205.8h-17.3c0.5-1.2,1-2.4,1.7-3.5
			c0.7-1.2,1.5-2.3,2.5-3.2c0.9-1,2-1.8,3.2-2.4c1.2-0.6,2.5-1,3.8-0.9c1,0,2,0.2,2.9,0.6c0.8,0.3,1.4,0.8,1.9,1.5
			c0.5,0.6,0.9,1.4,1,2.2c0.2,0.9,0.3,1.9,0.3,2.8V205.8z M454.4,205.8h-17.6c0.5-1.2,1-2.4,1.7-3.6c0.7-1.2,1.6-2.2,2.6-3.2
			c1-0.9,2.1-1.7,3.3-2.3c1.2-0.6,2.5-0.9,3.8-0.9c1,0,2,0.2,2.9,0.5c0.8,0.3,1.4,0.8,1.9,1.5s0.9,1.4,1.1,2.2
			c0.2,0.9,0.3,1.9,0.3,2.9L454.4,205.8L454.4,205.8z"/>
		<polygon id="Path_72_" class="st55" points="472,184.8 472,205.8 462.3,205.8 462.3,209.4 486.8,209.4 486.8,178.5 483.2,178.5 
			483.2,205.8 475.5,205.8 475.5,184.8 		"/>
		<rect id="Rectangle_5_" x="492.8" y="178.5" class="st55" width="4.6" height="30.8"/>
		<path id="Path_73_" class="st55" d="M518.3,205.1c-0.7-0.8-1-1.7-1-2.8c-0.1-0.4-0.1-0.9,0-1.3c0.1-0.4,0.4-0.8,0.6-1.1
			c0.3-0.3,0.7-0.6,1.1-0.8c0.5-0.2,1.1-0.3,1.7-0.3c1,0,2.1,0.2,3.1,0.6V196l-1.3-0.3c-0.7,0-1.4,0-2.2,0s-1.6,0.1-2.4,0.4
			c-0.7,0.3-1.4,0.7-2,1.2c-0.6,0.6-1.1,1.3-1.4,2c-0.4,0.9-0.5,1.9-0.5,2.9c0,1.5,0.5,2.9,1.4,4.1h-3.1v3.1h12.9v-3.1h-4.1
			C520.1,206.4,519.1,205.9,518.3,205.1L518.3,205.1z"/>
		<path id="Path_74_" class="st55" d="M546.3,189.1c-0.2,0.3-0.4,0.5-0.6,0.8c0,0.3-0.3,0.6-0.5,1c-0.1,0.3-0.2,0.7-0.3,1.1
			c1.6,0.8,3.2,1.6,4.7,2.6c1.4,0.9,2.7,1.9,4,2.9c1,0.9,2,1.9,2.8,2.9c0.6,0.7,1,1.6,1.1,2.6c0.1,0.9-0.3,1.7-1.1,2.2
			c-0.8,0.4-1.8,0.6-2.7,0.6h-17.3c-1.3,0-2.1-0.3-2.5-0.8c-0.4-0.8-0.6-1.7-0.6-2.5v-23.9H530v24.9c0,1,0.1,1.9,0.4,2.8
			c0.3,0.7,0.7,1.3,1.3,1.9c0.6,0.5,1.2,0.8,1.9,0.9c0.8,0.2,1.7,0.3,2.5,0.3h17.7c1.3,0,2.5-0.2,3.7-0.6c0.8-0.3,1.6-0.8,2.2-1.5
			c0.5-0.6,0.9-1.2,1-2c0.2-0.6,0.3-1.3,0.3-2c0-0.9-0.2-1.9-0.6-2.8c-0.5-1.1-1.1-2.1-1.9-3c-1.1-1.2-2.2-2.3-3.5-3.2
			c-1.6-1.3-3.3-2.5-5.1-3.5l12.7-5.6v-3.5l-15.8,6.9L546.3,189.1z"/>
		<path id="Path_75_" class="st55" d="M576.1,205.3c-0.9,0.4-1.8,0.5-2.8,0.5h-7.7v3.6h6.6h2.1c0.7-0.1,1.3-0.2,1.9-0.4
			c0.6-0.2,1.2-0.5,1.7-1c0.6-0.5,1-1.1,1.3-1.9c0.6,1,1.4,1.9,2.4,2.6c0.9,0.5,1.9,0.8,3,0.7h10.3v-30.9h-3.5v27.3h-6.7
			c-0.4,0-0.8-0.1-1.1-0.3c-0.4-0.2-0.8-0.6-1.1-0.9c-0.5-0.5-0.9-1.1-1.3-1.7l-1.5-2.5l-5.2-8.6l-3.3,2.1l4.6,6.8
			c0.4,0.6,0.8,1.2,1.1,1.8c0.3,0.5,0.4,1.1,0.4,1.6C577.1,204.6,576.7,205.1,576.1,205.3z"/>
		<rect id="Rectangle_6_" x="600.8" y="178.5" class="st55" width="4.6" height="30.8"/>
		<path id="Shape_13_" class="st55" d="M624.9,213.1c0.6-1.7,0.9-3.5,0.9-5.3v-4.1c0-1.4-0.1-2.9-0.4-4.3c-0.2-1.3-0.7-2.5-1.3-3.5
			s-1.5-1.8-2.5-2.3c-1.2-0.6-2.5-0.9-3.8-0.8c-1.3,0-2.5,0.2-3.7,0.8c-1,0.5-2,1.2-2.7,2.1c-0.7,0.9-1.3,1.9-1.6,2.9
			c-0.4,1.1-0.6,2.2-0.6,3.4s0.2,2.5,0.6,3.6c0.4,0.9,0.9,1.7,1.7,2.3c0.7,0.6,1.6,1.1,2.5,1.3c1,0.3,2.1,0.4,3.1,0.4
			s2.1-0.1,3.1-0.4c0.7-0.2,1.4-0.5,2-0.9v0.8c0.1,1.1-0.2,2.2-0.7,3.1c-0.4,0.8-1.1,1.4-1.9,1.8c-0.9,0.4-1.9,0.7-2.9,0.8
			c-1.2,0.1-2.5,0.1-3.8,0h-1.3v3.6h1.8c1.7,0,3.5-0.1,5.2-0.4c1.4-0.2,2.7-0.8,3.9-1.6C623.6,215.5,624.4,214.4,624.9,213.1
			L624.9,213.1z M622.1,204.4c-0.6,0.4-1.2,0.7-1.9,0.9c-0.9,0.3-1.9,0.4-2.9,0.4c-1.3,0.1-2.5-0.3-3.5-1.1c-1-0.9-1.4-2.2-1.3-3.5
			c0-0.6,0.1-1.3,0.3-1.9c0.2-0.6,0.5-1.2,0.9-1.7s0.9-1,1.5-1.3c0.7-0.4,1.5-0.5,2.3-0.5c1.5-0.1,2.9,0.7,3.7,2
			c0.4,0.7,0.7,1.5,0.8,2.2c0.2,0.9,0.3,1.8,0.3,2.8v1.7H622.1z"/>
		<polygon id="Path_76_" class="st55" points="684.7,161.5 681,161.5 681,166 684.7,163.8 		"/>
		<polygon id="Path_77_" class="st55" points="679.1,161.5 675.4,161.5 675.4,166 679.1,163.8 		"/>
		<polygon id="Path_78_" class="st55" points="645.2,129 641.6,129 641.6,133.5 645.2,131.4 		"/>
		<polygon id="Path_79_" class="st55" points="639.6,129 635.9,129 635.9,133.5 639.6,131.4 		"/>
		<polygon id="Path_80_" class="st55" points="470.4,129 466.8,129 466.8,133.5 470.4,131.4 		"/>
		<polygon id="Path_81_" class="st55" points="464.8,129 461.2,129 461.2,133.5 464.8,131.4 		"/>
		<polygon id="Path_82_" class="st55" points="494.1,161.4 490.4,161.4 490.4,165.9 494.1,163.8 		"/>
		<polygon id="Path_83_" class="st55" points="488.4,161.4 484.7,161.4 484.7,165.9 488.4,163.8 		"/>
		<polygon id="Path_84_" class="st55" points="401.7,161.4 398,161.4 398,165.9 401.7,163.8 		"/>
		<polygon id="Path_85_" class="st55" points="396.1,161.4 392.4,161.4 392.4,165.9 396.1,163.8 		"/>
		<polygon id="Path_86_" class="st55" points="412.4,161.4 408.7,161.4 408.7,165.9 412.4,163.8 		"/>
		<polygon id="Path_87_" class="st55" points="574.6,183.2 571,183.2 571,187.7 574.6,185.5 		"/>
		<polygon id="Path_88_" class="st55" points="383.6,183.2 379.9,183.2 379.9,187.7 383.6,185.5 		"/>
		<polygon id="Path_89_" class="st55" points="326.4,133.6 322.7,133.6 322.7,138.1 326.4,135.9 		"/>
		<polygon id="Path_90_" class="st55" points="320.8,133.6 317.1,133.6 317.1,138.1 320.8,135.9 		"/>
		<polygon id="Path_91_" class="st55" points="322.8,222.2 319.1,222.2 319.1,226.7 322.8,224.6 		"/>
		<polygon id="Path_92_" class="st55" points="317.2,222.2 313.5,222.2 313.5,226.7 317.2,224.6 		"/>
		<polygon id="Path_93_" class="st55" points="368.8,131 365.1,131 365.1,135.5 368.8,133.4 		"/>
		<path id="Shape_14_" class="st55" d="M445.8,3.4h-40.3v97.2h40.2c33.4,0,55.7-19.4,55.7-48.6S479.2,3.4,445.8,3.4z M445.8,78.6
			h-11.7V25.4h11.7c7.1-0.4,14.1,2.3,19.1,7.4s7.6,12.1,7.1,19.2c0.5,7.1-2.1,14.1-7.1,19.2C459.9,76.3,452.9,79,445.8,78.6
			L445.8,78.6z"/>
		<polygon id="Path_94_" class="st55" points="577.2,3.4 534.2,3.4 504,100.6 534.9,100.6 540.4,81.7 567.4,66 544.5,66 555.9,28.3 
			567.4,66 577,100.5 607.8,100.5 		"/>
		<polygon id="Path_95_" class="st55" points="732,3.4 688.8,3.4 658.4,100.6 689.3,100.6 694.8,81.7 721.8,66 698.9,66 710.3,28.3 
			721.8,66 731.4,100.5 762.2,100.5 		"/>
		<polygon id="Path_96_" class="st55" points="618.3,20.4 618.3,100.6 647.8,100.6 647.8,3.4 		"/>
		<path id="Path_97_" class="st55" d="M351.4,39.3c-10.6-1.2-18.9-2.3-18.9-9.1c0-5.2,5.7-9,14-9c9.6,0,16.8,5.4,16.7,12.9l22-12.7
			C379.2,8.6,364.4,0,345.5,0C321.2,0,304,13.3,304,33.3c0,22.9,18.8,28,38.8,30.2c10.3,1.3,18.9,2.5,18.9,9.5
			c0,5.9-5.7,9.9-14.2,9.9c-10.6,0-18.3-6.1-18.5-14.3h-25.5c0,4.6,1,9.2,2.9,13.4c6,13.4,21.1,22.3,40.3,22.3
			c25.9,0,43.7-14.1,43.7-34.8C390.2,46.3,371,41.3,351.4,39.3z"/>
	</g>
</g>
<script  type="text/javascript">//<![CDATA[  <-- For SVG support
	if ('WebSocket' in window) {
		(function () {
			function refreshCSS() {
				var sheets = [].slice.call(document.getElementsByTagName("link"));
				var head = document.getElementsByTagName("head")[0];
				for (var i = 0; i < sheets.length; ++i) {
					var elem = sheets[i];
					var parent = elem.parentElement || head;
					parent.removeChild(elem);
					var rel = elem.rel;
					if (elem.href && typeof rel != "string" || rel.length == 0 || rel.toLowerCase() == "stylesheet") {
						var url = elem.href.replace(/(&|\?)_cacheOverride=\d+/, '');
						elem.href = url + (url.indexOf('?') >= 0 ? '&' : '?') + '_cacheOverride=' + (new Date().valueOf());
					}
					parent.appendChild(elem);
				}
			}
			var protocol = window.location.protocol === 'http:' ? 'ws://' : 'wss://';
			var address = protocol + window.location.host + window.location.pathname + '/ws';
			var socket = new WebSocket(address);
			socket.onmessage = function (msg) {
				if (msg.data == 'reload') window.location.reload();
				else if (msg.data == 'refreshcss') refreshCSS();
			};
			if (sessionStorage && !sessionStorage.getItem('IsThisFirstTime_Log_From_LiveServer')) {
				console.log('Live reload enabled.');
				sessionStorage.setItem('IsThisFirstTime_Log_From_LiveServer', true);
			}
		})();
	}
	else {
		console.error('Upgrade your browser. This Browser is NOT supported WebSocket for Live-Reloading.');
	}
	// 
	]]>
</script>
</svg>
