<?xml version="1.0" encoding="utf-8"?>
<!-- Generator: Adobe Illustrator 22.1.0, SVG Export Plug-In . SVG Version: 6.00 Build 0)  -->
<svg version="1.1" id="Layer_1" xmlns="http://www.w3.org/2000/svg" xmlns:xlink="http://www.w3.org/1999/xlink" x="0px" y="0px"
	 viewBox="0 0 512 512" style="enable-background:new 0 0 512 512;" xml:space="preserve">
<style type="text/css">
	.st0{fill:#b5b5b5;}
</style>
<path class="st0" d="M190.2,344c0-5,4.3-8.1,11.9-8.1c8.8,0,11.2,4,14.5,4c3.8,0,5.5-4.8,5.5-7.2c0-6.9-13.7-8.4-19.9-8.4
	c-12.1,0-25.5,5.4-25.5,21c0,24.9,33.7,20,33.7,35.8c0,6.3-5.5,9.1-11.8,9.1c-10.7,0-13.5-8.1-17.8-8.1c-3.3,0-6,4.4-6,7.3
	c0,6.1,10.5,13,24.2,13c14.5,0,25-7.8,25-22.8C223.9,352.5,190.2,357,190.2,344z"/>
<path class="st0" d="M251.7,344c0-5,4.3-8.1,11.9-8.1c8.8,0,11.2,4,14.5,4c3.8,0,5.5-4.8,5.5-7.2c0-6.9-13.7-8.4-19.9-8.4
	c-12.1,0-25.5,5.4-25.5,21c0,24.9,33.7,20,33.7,35.8c0,6.3-5.5,9.1-11.8,9.1c-10.7,0-13.5-8.1-17.8-8.1c-3.3,0-6,4.4-6,7.3
	c0,6.1,10.5,13,24.2,13c14.5,0,25-7.8,25-22.8C285.4,352.5,251.7,357,251.7,344z"/>
<path class="st0" d="M340.6,389.5H315V329c0-2.9-3.5-4.2-6.8-4.2c-3.5,0-6.8,1.3-6.8,4.2v68.2c0,2.8,2.9,4.3,6,4.3h33.3
	c2.7,0,4.1-3,4.1-6C344.7,392.4,343.4,389.5,340.6,389.5z"/>
<path class="st0" d="M424.2,223.4h-10.1v-65.5C414.1,70.9,343.3,0,256.2,0C169.1,0,98.2,70.9,98.2,157.9v65.5H88.1
	c-13.3,0-24.1,10.8-24.1,24.1v240.4c0,13.3,10.8,24.1,24.1,24.1h336.1c13.3,0,24.1-10.8,24.1-24.1V247.5
	C448.3,234.2,437.5,223.4,424.2,223.4z M433.3,354.2H402V326h31.4V354.2z M402,369.2h31.4v28.2H402V369.2z M113.2,157.9
	C113.2,79.1,177.3,15,256.2,15s142.9,64.1,142.9,142.9v65.5h-28.5v-65.5c0-63.1-51.3-114.4-114.4-114.4
	c-63.1,0-114.4,51.3-114.4,114.4v65.5h-28.5V157.9z M355.6,223.4H156.7v-65.5c0-54.8,44.6-99.4,99.4-99.4
	c54.8,0,99.4,44.6,99.4,99.4V223.4z M79,369.2h31.4v28.2H79V369.2z M110.4,354.2H79V326h31.4V354.2z M424.2,497H88.1
	c-5,0-9.1-4.1-9.1-9.1v-75.6h31.4v11.8c0,8.7,7.1,15.8,15.8,15.8h189.1c4.1,0,7.5-3.4,7.5-7.5s-3.4-7.5-7.5-7.5H126.2
	c-0.5,0-0.8-0.4-0.8-0.8V304.1c0-0.5,0.4-0.8,0.8-0.8h36c4.1,0,7.5-3.4,7.5-7.5s-3.4-7.5-7.5-7.5h-36c-8.7,0-15.8,7.1-15.8,15.8v7
	H79v-63.5c0-5,4.1-9.1,9.1-9.1h336.1c5,0,9.1,4.1,9.1,9.1V311H402v-7c0-8.7-7.1-15.8-15.8-15.8H197.1c-4.1,0-7.5,3.4-7.5,7.5
	s3.4,7.5,7.5,7.5h189.1c0.5,0,0.8,0.4,0.8,0.8v120.1c0,0.5-0.4,0.8-0.8,0.8h-35c-4.1,0-7.5,3.4-7.5,7.5c0,4.1,3.4,7.5,7.5,7.5h35
	c8.7,0,15.8-7.1,15.8-15.8v-11.8h31.4v75.6C433.3,492.9,429.2,497,424.2,497z"/>
</svg>
