<?xml version="1.0" encoding="utf-8"?>
<!-- Generator: Adobe Illustrator 25.0.0, SVG Export Plug-In . SVG Version: 6.00 Build 0)  -->
<svg version="1.1" id="Icons" xmlns="http://www.w3.org/2000/svg" xmlns:xlink="http://www.w3.org/1999/xlink" x="0px" y="0px"
	 viewBox="0 0 145.6 53.1" style="enable-background:new 0 0 145.6 53.1;" xml:space="preserve">
<style type="text/css">
	.st0{fill:#FFFFFF;}
	.st1{fill:#BABABD;}
</style>
<g>
	<g>
		<path class="st0" d="M7.2,16.8c-1-0.4-1.8-0.8-2.6-1.2c-0.8-0.4-1.4-1-1.9-1.6c-0.5-0.6-1-1.3-1.2-2.2C1.2,11,1,10,1,8.8
			C1,7.4,1.3,6.1,1.8,5C2.3,3.9,3,3,3.9,2.3c0.9-0.7,2-1.3,3.3-1.7C8.4,0.2,9.8,0,11.4,0c1.4,0,2.8,0.1,4,0.4
			C16.7,0.6,18,1,19.4,1.5c-0.2,1.6-0.6,3.2-1.4,4.8c-0.4-0.2-0.9-0.3-1.3-0.5c-0.4-0.2-0.9-0.3-1.4-0.4c-0.5-0.1-1-0.2-1.7-0.3
			C13,5,12.3,5,11.5,5c-0.5,0-1,0-1.5,0.1C9.6,5.2,9.2,5.3,8.8,5.6c-0.4,0.2-0.7,0.6-1,1C7.5,7,7.4,7.6,7.4,8.3c0,0.6,0.1,1,0.3,1.4
			c0.2,0.4,0.5,0.7,0.8,1c0.3,0.3,0.7,0.5,1.1,0.7c0.4,0.2,0.8,0.4,1.3,0.5l2.5,1c1.1,0.4,2,0.9,2.9,1.3c0.9,0.5,1.6,1,2.2,1.7
			c0.6,0.7,1.1,1.5,1.4,2.4c0.3,0.9,0.5,2.1,0.5,3.5c0,1.4-0.3,2.7-0.8,3.9s-1.3,2.2-2.3,3c-1,0.8-2.2,1.5-3.7,2
			c-1.5,0.5-3.1,0.7-5,0.7c-0.9,0-1.8,0-2.5-0.1c-0.7-0.1-1.4-0.1-2.1-0.3c-0.7-0.1-1.3-0.3-2-0.5c-0.6-0.2-1.3-0.4-2-0.7
			c0.1-0.8,0.2-1.7,0.5-2.6c0.2-0.9,0.5-1.8,0.8-2.7c1.2,0.5,2.3,0.8,3.3,1.1C5.9,25.9,7,26,8.2,26c1.8,0,3.2-0.3,4.2-1
			c1-0.7,1.5-1.7,1.5-3c0-0.7-0.1-1.2-0.4-1.7c-0.2-0.4-0.5-0.8-0.9-1.1c-0.4-0.3-0.8-0.6-1.3-0.8c-0.5-0.2-1-0.4-1.5-0.6L7.2,16.8z
			"/>
		<path class="st0" d="M24.9,0.5h17.2c0.2,0.8,0.3,1.7,0.3,2.6c0,0.9-0.1,1.8-0.3,2.7H31.1v6.6h8.8c0.2,0.9,0.3,1.8,0.3,2.6
			c0,0.9-0.1,1.8-0.3,2.7h-8.8v8h11.4c0.2,0.8,0.3,1.7,0.3,2.6c0,0.9-0.1,1.8-0.3,2.7H24.9V0.5z"/>
		<path class="st0" d="M67.4,25.1c0.4,0.8,0.7,1.6,0.9,2.4c0.2,0.8,0.4,1.7,0.5,2.5c-1.5,0.5-2.8,0.9-3.9,1.1
			c-1.2,0.2-2.4,0.3-3.8,0.3c-2.4,0-4.5-0.4-6.3-1.2c-1.8-0.8-3.3-1.9-4.5-3.3c-1.2-1.4-2.1-3-2.8-5c-0.6-1.9-0.9-4-0.9-6.2
			c0-2.3,0.3-4.3,1-6.3c0.6-1.9,1.6-3.6,2.8-5c1.2-1.4,2.7-2.5,4.5-3.3C56.7,0.4,58.7,0,61,0c1.4,0,2.6,0.1,3.7,0.3
			c1.1,0.2,2.4,0.5,3.7,1.1c-0.1,0.8-0.2,1.7-0.5,2.5c-0.3,0.8-0.6,1.6-0.9,2.4c-1-0.3-1.9-0.6-2.6-0.7c-0.8-0.1-1.7-0.2-2.7-0.2
			c-2.7,0-4.8,0.9-6.2,2.6c-1.5,1.8-2.2,4.4-2.2,7.8c0,6.9,2.9,10.3,8.7,10.3c1,0,2-0.1,2.7-0.2C65.5,25.7,66.4,25.5,67.4,25.1z"/>
		<path class="st0" d="M73.3,0.5c0.5-0.1,1.1-0.1,1.6-0.2c0.5,0,1,0,1.6,0c0.5,0,1,0,1.5,0c0.5,0,1,0.1,1.6,0.2v15.8
			c0,1.7,0.1,3.2,0.2,4.4c0.1,1.2,0.4,2.2,0.8,3c0.4,0.8,0.9,1.4,1.6,1.8c0.7,0.4,1.6,0.6,2.7,0.6c1.1,0,2-0.2,2.7-0.6
			c0.7-0.4,1.2-1,1.6-1.8c0.4-0.8,0.6-1.8,0.8-3c0.1-1.2,0.2-2.7,0.2-4.4V0.5c0.6-0.1,1.1-0.1,1.6-0.2c0.5,0,1,0,1.5,0
			c0.5,0,1,0,1.5,0c0.5,0,1,0.1,1.6,0.2v17.1c0,2.1-0.2,3.9-0.5,5.6c-0.3,1.7-0.9,3.2-1.8,4.4c-0.9,1.2-2,2.1-3.5,2.8
			c-1.5,0.7-3.3,1-5.6,1c-2.3,0-4.1-0.3-5.6-1c-1.5-0.7-2.6-1.6-3.5-2.8c-0.9-1.2-1.5-2.7-1.8-4.4c-0.3-1.7-0.5-3.6-0.5-5.6V0.5z"/>
		<path class="st0" d="M102.1,0.5c1.2-0.1,2.4-0.3,3.5-0.4c1.1-0.1,2.3-0.1,3.6-0.1c1.5,0,3.1,0.1,4.6,0.4c1.5,0.3,2.9,0.8,4.1,1.5
			c1.2,0.7,2.2,1.7,2.9,2.9s1.1,2.8,1.1,4.7c0,1.1-0.1,2.1-0.4,3c-0.3,0.9-0.6,1.6-1.1,2.3c-0.4,0.6-0.9,1.2-1.4,1.7
			c-0.5,0.5-1,0.8-1.4,1.1l-0.7,0.5l7.4,12.8c-0.6,0.1-1.2,0.1-1.8,0.2c-0.6,0.1-1.3,0.1-1.9,0.1c-1.1,0-2.1-0.1-3.2-0.3l-7.9-14.1
			l1-0.5c0.4-0.2,0.9-0.5,1.4-0.8c0.6-0.3,1.1-0.7,1.6-1.2c0.5-0.5,1-1,1.3-1.7c0.4-0.7,0.5-1.4,0.5-2.3c0-1.8-0.5-3.1-1.5-3.9
			c-1-0.8-2.3-1.2-3.9-1.2c-0.6,0-1.2,0-1.7,0.1v25.6c-0.5,0.1-1,0.1-1.5,0.1c-0.5,0-1,0.1-1.5,0.1c-0.5,0-1,0-1.5,0
			c-0.5,0-1.1-0.1-1.6-0.2V0.5z"/>
		<path class="st0" d="M127.6,0.5h17.2c0.2,0.8,0.3,1.7,0.3,2.6c0,0.9-0.1,1.8-0.3,2.7h-11.1v6.6h8.8c0.2,0.9,0.3,1.8,0.3,2.6
			c0,0.9-0.1,1.8-0.3,2.7h-8.8v8h11.4c0.2,0.8,0.3,1.7,0.3,2.6c0,0.9-0.1,1.8-0.3,2.7h-17.5V0.5z"/>
	</g>
	<g>
		<path class="st1" d="M3.2,46.5c-0.4-0.2-0.8-0.4-1.2-0.6c-0.3-0.2-0.6-0.4-0.9-0.7c-0.2-0.3-0.4-0.6-0.6-1
			c-0.1-0.4-0.2-0.8-0.2-1.4c0-0.7,0.1-1.2,0.3-1.7c0.2-0.5,0.5-0.9,1-1.3c0.4-0.3,0.9-0.6,1.5-0.8c0.6-0.2,1.2-0.3,2-0.3
			c0.7,0,1.3,0.1,1.8,0.2c0.6,0.1,1.2,0.3,1.8,0.5c-0.1,0.7-0.3,1.5-0.6,2.2c-0.2-0.1-0.4-0.2-0.6-0.2c-0.2-0.1-0.4-0.1-0.6-0.2
			c-0.2-0.1-0.5-0.1-0.8-0.1c-0.3,0-0.6,0-1,0c-0.2,0-0.4,0-0.7,0.1c-0.2,0-0.4,0.1-0.6,0.2c-0.2,0.1-0.3,0.3-0.4,0.5
			c-0.1,0.2-0.2,0.5-0.2,0.8c0,0.3,0,0.5,0.1,0.6c0.1,0.2,0.2,0.3,0.4,0.4c0.2,0.1,0.3,0.2,0.5,0.3c0.2,0.1,0.4,0.2,0.6,0.2L6,44.7
			c0.5,0.2,0.9,0.4,1.3,0.6c0.4,0.2,0.7,0.5,1,0.8c0.3,0.3,0.5,0.7,0.6,1.1c0.2,0.4,0.2,1,0.2,1.6c0,0.7-0.1,1.3-0.4,1.8
			c-0.2,0.5-0.6,1-1,1.4c-0.5,0.4-1,0.7-1.7,0.9c-0.7,0.2-1.4,0.3-2.3,0.3c-0.4,0-0.8,0-1.1,0c-0.3,0-0.7-0.1-1-0.1
			c-0.3-0.1-0.6-0.1-0.9-0.2c-0.3-0.1-0.6-0.2-0.9-0.3c0-0.4,0.1-0.8,0.2-1.2c0.1-0.4,0.2-0.8,0.4-1.2c0.5,0.2,1,0.4,1.5,0.5
			c0.5,0.1,1,0.2,1.5,0.2c0.8,0,1.4-0.2,1.9-0.5c0.5-0.3,0.7-0.8,0.7-1.4c0-0.3-0.1-0.6-0.2-0.8c-0.1-0.2-0.3-0.4-0.4-0.5
			c-0.2-0.1-0.4-0.3-0.6-0.4c-0.2-0.1-0.4-0.2-0.7-0.3L3.2,46.5z"/>
		<path class="st1" d="M13.3,46.5c-0.4-0.2-0.8-0.4-1.2-0.6c-0.3-0.2-0.6-0.4-0.9-0.7c-0.2-0.3-0.4-0.6-0.6-1
			c-0.1-0.4-0.2-0.8-0.2-1.4c0-0.7,0.1-1.2,0.3-1.7c0.2-0.5,0.5-0.9,1-1.3c0.4-0.3,0.9-0.6,1.5-0.8c0.6-0.2,1.2-0.3,2-0.3
			c0.7,0,1.3,0.1,1.8,0.2c0.6,0.1,1.2,0.3,1.8,0.5c-0.1,0.7-0.3,1.5-0.6,2.2c-0.2-0.1-0.4-0.2-0.6-0.2c-0.2-0.1-0.4-0.1-0.6-0.2
			c-0.2-0.1-0.5-0.1-0.8-0.1c-0.3,0-0.6,0-1,0c-0.2,0-0.4,0-0.7,0.1c-0.2,0-0.4,0.1-0.6,0.2c-0.2,0.1-0.3,0.3-0.4,0.5
			c-0.1,0.2-0.2,0.5-0.2,0.8c0,0.3,0,0.5,0.1,0.6c0.1,0.2,0.2,0.3,0.4,0.4c0.2,0.1,0.3,0.2,0.5,0.3c0.2,0.1,0.4,0.2,0.6,0.2l1.2,0.4
			c0.5,0.2,0.9,0.4,1.3,0.6c0.4,0.2,0.7,0.5,1,0.8c0.3,0.3,0.5,0.7,0.6,1.1c0.2,0.4,0.2,1,0.2,1.6c0,0.7-0.1,1.3-0.4,1.8
			c-0.2,0.5-0.6,1-1,1.4c-0.5,0.4-1,0.7-1.7,0.9c-0.7,0.2-1.4,0.3-2.3,0.3c-0.4,0-0.8,0-1.1,0c-0.3,0-0.7-0.1-1-0.1
			c-0.3-0.1-0.6-0.1-0.9-0.2c-0.3-0.1-0.6-0.2-0.9-0.3c0-0.4,0.1-0.8,0.2-1.2c0.1-0.4,0.2-0.8,0.4-1.2c0.5,0.2,1,0.4,1.5,0.5
			c0.5,0.1,1,0.2,1.5,0.2c0.8,0,1.4-0.2,1.9-0.5c0.5-0.3,0.7-0.8,0.7-1.4c0-0.3-0.1-0.6-0.2-0.8c-0.1-0.2-0.3-0.4-0.4-0.5
			c-0.2-0.1-0.4-0.3-0.6-0.4c-0.2-0.1-0.4-0.2-0.7-0.3L13.3,46.5z"/>
		<path class="st1" d="M21.4,39c0.5-0.1,0.9-0.1,1.4-0.1c0.5,0,0.9,0,1.4,0.1v11.5H29c0,0.2,0.1,0.4,0.1,0.6c0,0.2,0,0.4,0,0.6
			c0,0.2,0,0.4,0,0.6c0,0.2,0,0.4-0.1,0.6h-7.6V39z"/>
		<path class="st1" d="M35.2,39h7.9c0.1,0.4,0.1,0.8,0.1,1.2c0,0.4,0,0.8-0.1,1.2H38v3h4c0.1,0.4,0.1,0.8,0.1,1.2
			c0,0.4,0,0.8-0.1,1.2h-4v3.7h5.2c0.1,0.4,0.1,0.8,0.1,1.2c0,0.4,0,0.8-0.1,1.2h-8V39z"/>
		<path class="st1" d="M45.5,39c0.4-0.1,0.8-0.1,1.1-0.1c0.4,0,0.8,0,1.2,0.1l5.4,8.8V39c0.5-0.1,0.9-0.1,1.3-0.1
			c0.4,0,0.8,0,1.2,0.1v13.9C55.2,53,54.9,53,54.5,53c-0.4,0-0.8,0-1.2-0.1L48,44.1v8.8C47.5,53,47.1,53,46.7,53
			c-0.4,0-0.8,0-1.2-0.1V39z"/>
		<path class="st1" d="M67.5,50.3c0.2,0.4,0.3,0.7,0.4,1.1c0.1,0.4,0.2,0.8,0.2,1.1c-0.7,0.2-1.3,0.4-1.8,0.5
			c-0.5,0.1-1.1,0.1-1.7,0.1c-1.1,0-2.1-0.2-2.9-0.5c-0.8-0.4-1.5-0.8-2.1-1.5c-0.6-0.6-1-1.4-1.3-2.3C58.2,48,58,47,58,46
			c0-1,0.1-2,0.4-2.9c0.3-0.9,0.7-1.6,1.3-2.3c0.6-0.6,1.2-1.1,2.1-1.5c0.8-0.4,1.7-0.5,2.8-0.5c0.6,0,1.2,0,1.7,0.1
			c0.5,0.1,1.1,0.2,1.7,0.5c0,0.4-0.1,0.8-0.2,1.1c-0.1,0.4-0.3,0.7-0.4,1.1c-0.5-0.2-0.8-0.3-1.2-0.3c-0.3-0.1-0.8-0.1-1.2-0.1
			c-1.2,0-2.2,0.4-2.8,1.2c-0.7,0.8-1,2-1,3.6c0,3.1,1.3,4.7,4,4.7c0.5,0,0.9,0,1.3-0.1C66.7,50.5,67.1,50.4,67.5,50.3z"/>
		<path class="st1" d="M70.4,39c0.6-0.1,1.1-0.1,1.6-0.2c0.5,0,1-0.1,1.7-0.1c0.7,0,1.4,0.1,2.1,0.2c0.7,0.1,1.3,0.4,1.9,0.7
			c0.6,0.3,1,0.8,1.3,1.3c0.3,0.6,0.5,1.3,0.5,2.1c0,0.5-0.1,1-0.2,1.4c-0.1,0.4-0.3,0.7-0.5,1c-0.2,0.3-0.4,0.5-0.6,0.8
			c-0.2,0.2-0.5,0.4-0.7,0.5L77.2,47l3.4,5.9c-0.3,0-0.5,0.1-0.8,0.1c-0.3,0-0.6,0-0.9,0c-0.5,0-1,0-1.4-0.1l-3.6-6.5l0.5-0.2
			c0.2-0.1,0.4-0.2,0.7-0.3c0.3-0.1,0.5-0.3,0.7-0.5c0.2-0.2,0.4-0.5,0.6-0.8c0.2-0.3,0.3-0.7,0.3-1.1c0-0.8-0.2-1.4-0.7-1.8
			c-0.5-0.4-1.1-0.6-1.8-0.6c-0.3,0-0.5,0-0.8,0.1v11.7c-0.2,0-0.5,0-0.7,0.1c-0.2,0-0.5,0-0.7,0c-0.2,0-0.5,0-0.7,0
			c-0.2,0-0.5,0-0.8-0.1V39z"/>
		<path class="st1" d="M84.9,47.9L80.5,39c0.5-0.1,1.1-0.1,1.6-0.1c0.5,0,1,0,1.5,0.1l2.7,6.3l2.7-6.3c0.5-0.1,1-0.1,1.5-0.1
			c0.5,0,1,0,1.5,0.1l-4.3,8.9v5C87.5,53,87.2,53,87,53c-0.2,0-0.5,0-0.7,0c-0.2,0-0.4,0-0.7,0c-0.2,0-0.5,0-0.7-0.1V47.9z"/>
		<path class="st1" d="M93.6,39c0.6-0.1,1.2-0.1,1.8-0.1c0.6,0,1.2,0,1.8,0c0.6,0,1.3,0.1,2,0.2c0.7,0.1,1.3,0.4,1.8,0.7
			c0.5,0.4,1,0.8,1.3,1.5c0.3,0.6,0.5,1.4,0.5,2.5s-0.2,1.8-0.5,2.4c-0.3,0.6-0.8,1.1-1.3,1.5c-0.5,0.4-1.1,0.6-1.8,0.7
			c-0.7,0.1-1.3,0.2-1.9,0.2c-0.2,0-0.3,0-0.5,0c-0.1,0-0.3,0-0.4,0v4.5c-0.2,0-0.5,0.1-0.7,0.1c-0.2,0-0.5,0-0.7,0
			c-0.2,0-0.4,0-0.7,0c-0.2,0-0.5,0-0.8-0.1V39z M96.4,46.1c0.2,0,0.3,0,0.4,0c0.1,0,0.3,0,0.5,0c0.3,0,0.6,0,0.9-0.1
			c0.3-0.1,0.6-0.2,0.8-0.4c0.2-0.2,0.4-0.4,0.6-0.8c0.1-0.3,0.2-0.7,0.2-1.2c0-0.5-0.1-0.9-0.2-1.2c-0.1-0.3-0.3-0.6-0.6-0.8
			c-0.2-0.2-0.5-0.3-0.8-0.4c-0.3-0.1-0.6-0.1-0.9-0.1c-0.1,0-0.3,0-0.4,0s-0.3,0-0.5,0V46.1z"/>
		<path class="st1" d="M107.5,41.4h-3.5c-0.1-0.4-0.1-0.8-0.1-1.2c0-0.4,0-0.8,0.1-1.2h9.8c0.1,0.4,0.1,0.8,0.1,1.2
			c0,0.4,0,0.8-0.1,1.2h-3.5v11.5c-0.2,0-0.5,0-0.7,0.1c-0.2,0-0.5,0-0.7,0c-0.2,0-0.5,0-0.7,0c-0.3,0-0.5,0-0.8-0.1V41.4z"/>
		<path class="st1" d="M115.8,39c0.5-0.1,0.9-0.1,1.4-0.1c0.5,0,0.9,0,1.4,0.1v13.9c-0.5,0.1-1,0.1-1.4,0.1c-0.5,0-1,0-1.4-0.1V39z"
			/>
		<path class="st1" d="M127,53.1c-1,0-1.9-0.2-2.7-0.5c-0.8-0.4-1.4-0.9-1.9-1.5c-0.5-0.6-0.9-1.4-1.1-2.3C121.1,48,121,47,121,46
			c0-1,0.1-2,0.4-2.9c0.2-0.9,0.6-1.6,1.1-2.3c0.5-0.6,1.1-1.1,1.9-1.5c0.8-0.4,1.7-0.5,2.7-0.5c1,0,1.9,0.2,2.7,0.5
			c0.8,0.4,1.4,0.9,1.9,1.5c0.5,0.6,0.9,1.4,1.1,2.3C132.9,44,133,45,133,46c0,1-0.1,2-0.4,2.8c-0.2,0.9-0.6,1.6-1.1,2.3
			c-0.5,0.6-1.1,1.1-1.9,1.5C128.9,53,128,53.1,127,53.1z M127,50.8c2,0,3-1.6,3-4.8c0-1.6-0.2-2.8-0.7-3.6
			c-0.5-0.8-1.2-1.2-2.2-1.2c-2,0-3,1.6-3,4.8C124,49.2,125,50.8,127,50.8z"/>
		<path class="st1" d="M135.4,39c0.4-0.1,0.8-0.1,1.1-0.1c0.4,0,0.8,0,1.2,0.1l5.4,8.8V39c0.5-0.1,0.9-0.1,1.3-0.1
			c0.4,0,0.8,0,1.2,0.1v13.9c-0.4,0.1-0.8,0.1-1.1,0.1c-0.4,0-0.8,0-1.2-0.1l-5.4-8.8v8.8c-0.4,0.1-0.8,0.1-1.3,0.1
			c-0.4,0-0.8,0-1.2-0.1V39z"/>
	</g>
</g>
</svg>
