<?xml version="1.0" encoding="utf-8"?>
<!-- Generator: Adobe Illustrator 26.0.3, SVG Export Plug-In . SVG Version: 6.00 Build 0)  -->
<svg version="1.1" id="Ñëîé_1" xmlns="http://www.w3.org/2000/svg" xmlns:xlink="http://www.w3.org/1999/xlink" x="0px" y="0px"
	 viewBox="0 0 1304.39 1219.95" style="enable-background:new 0 0 1304.39 1219.95;" xml:space="preserve">
<style type="text/css">
	.st0{fill:#EFEEFE;}
	.st1{fill:#FB9C98;}
	.st2{fill:#F26D6D;}
	.st3{fill:#653087;}
	.st4{fill:#8754AF;}
	.st5{fill:#D3D5FC;}
	.st6{fill:#BBB4F8;}
	.st7{fill:#F95F6A;}
	.st8{fill:#FFFFFF;}
	.st9{clip-path:url(#SVGID_00000149351016330671181030000016168218181213245365_);fill:#FB9C98;}
	.st10{fill:none;stroke:#2B2E4A;stroke-width:1.921;stroke-linecap:round;stroke-miterlimit:10;}
	.st11{fill:none;stroke:#F26D6D;stroke-width:3.1578;stroke-miterlimit:10;}
	.st12{fill:#FFB6B6;}
	.st13{fill:#FDC854;}
	.st14{fill:#F89F4F;}
	.st15{fill:none;stroke:#F89F4F;stroke-width:3.6023;stroke-miterlimit:10;}
</style>
<path class="st0" d="M170.91,1075.83c-31.68-34.16-103.03-111.1-97.23-207.38c4.68-77.68,54.89-90.02,76.4-192.05
	c21.42-101.56-21.75-120.51-3.79-217.7c2.63-14.25,33.21-168.17,147.66-223.38c95.84-46.23,147.92,26.22,257.34-17.76
	c100.33-40.33,86.04-113.11,183.74-154.51c96.35-40.83,238.19-33.9,313.87,50.1c74.71,82.93,57.12,209.21,54.61,227.21
	c-12.01,86.2-52.88,105.02-48.98,185.84c2.99,61.97,29.84,109.64,53.5,151.66c49.18,87.32,83.22,88.09,107.57,150.79
	c16.92,43.56,38.92,142.14-7.68,190.17c-67.95,70.04-241.62-8.73-378.95,42.88c-37.83,14.22-60.81,29.44-60.81,29.44
	c-56.74,38.48-67.54,85.86-161.34,113.84C456.87,1249.73,277.19,1190.44,170.91,1075.83z"/>
<path class="st1" d="M783.58,1005.51L783.58,1005.51c73.12,0.41,132.72-58.52,133.14-131.64l1.79-316.55l-456.74-2.59l-0.71,124.59
	C460.05,858.46,604.44,1004.5,783.58,1005.51z"/>
<path class="st2" d="M359.27,253.43l4.84-4.84c19.75-19.75,51.77-19.75,71.52,0l18.05,18.05c15.11,15.11,15.11,39.6,0,54.7
	l-13.07,69.97l-81.34-83.18C344.17,293.03,344.17,268.53,359.27,253.43z"/>
<g>
	<path class="st3" d="M820.34,143.43L820.34,143.43V92.3l0,0c4.55,0,8.24,3.69,8.24,8.24v34.65
		C828.57,139.74,824.89,143.43,820.34,143.43z"/>
	<path class="st3" d="M820.34,209.95L820.34,209.95v-51.12l0,0c4.55,0,8.24,3.69,8.24,8.24v34.65
		C828.57,206.27,824.89,209.95,820.34,209.95z"/>
	<path class="st4" d="M470.49,689.9h316.7c19.04,0,34.47-15.43,34.47-34.48V34.47C821.67,15.44,806.23,0,787.19,0h-316.7
		c-19.04,0-34.48,15.44-34.48,34.47v620.95C436.02,674.47,451.45,689.9,470.49,689.9z"/>
	
		<rect x="451.25" y="61.78" transform="matrix(-1 -1.224647e-16 1.224647e-16 -1 1257.6873 689.9038)" class="st5" width="355.19" height="566.34"/>
	<circle class="st5" cx="676.88" cy="33.76" r="11.05"/>
	<polygon class="st6" points="451.25,264.97 451.25,392.78 782.25,61.78 654.44,61.78 	"/>
	<polygon class="st6" points="806.44,133.67 451.25,488.85 451.25,628.12 502.79,628.12 806.44,324.48 	"/>
	<rect x="485.82" y="109.97" class="st0" width="286.05" height="52.94"/>
	<rect x="485.82" y="182.97" class="st0" width="286.05" height="52.94"/>
	<rect x="485.82" y="255.24" class="st0" width="286.05" height="191.02"/>
	<path class="st6" d="M677.63,143.27H515.71c-3.77,0-6.82-3.05-6.82-6.82l0,0c0-3.77,3.05-6.82,6.82-6.82h161.92
		c3.77,0,6.82,3.05,6.82,6.82l0,0C684.45,140.21,681.4,143.27,677.63,143.27z"/>
	<path class="st6" d="M637.17,216.27H515.08c-3.42,0-6.19-2.77-6.19-6.19v-1.26c0-3.42,2.77-6.19,6.19-6.19h122.08
		c3.42,0,6.19,2.77,6.19,6.19v1.26C643.36,213.49,640.59,216.27,637.17,216.27z"/>
	<path class="st6" d="M661.14,287.97H515.62c-3.72,0-6.73-3.01-6.73-6.73v-0.18c0-3.72,3.01-6.73,6.73-6.73h145.51
		c3.72,0,6.73,3.01,6.73,6.73v0.18C667.87,284.96,664.86,287.97,661.14,287.97z"/>
	<path class="st6" d="M711.88,315H515.71c-3.77,0-6.82-3.05-6.82-6.82l0,0c0-3.77,3.05-6.82,6.82-6.82h196.16
		c3.77,0,6.82,3.05,6.82,6.82l0,0C718.7,311.95,715.65,315,711.88,315z"/>
	<path class="st6" d="M744.31,345.12H515.71c-3.77,0-6.82-3.05-6.82-6.82l0,0c0-3.77,3.05-6.82,6.82-6.82h228.59
		c3.77,0,6.82,3.05,6.82,6.82l0,0C751.13,342.07,748.08,345.12,744.31,345.12z"/>
	<g>
		<path class="st7" d="M546.24,534.52h165.22c14.67,0,26.56-11.89,26.56-26.56v0c0-14.67-11.89-26.56-26.56-26.56H546.24
			c-14.67,0-26.56,11.89-26.56,26.56v0C519.67,522.63,531.57,534.52,546.24,534.52z"/>
		<g>
			<path class="st0" d="M569.47,516.32c-0.71,0.34-2.38,0.76-4.5,0.76c-6.1,0-9.24-3.82-9.24-8.85c0-6.02,4.29-9.34,9.63-9.34
				c2.07,0,3.64,0.39,4.35,0.79l-0.84,3.14c-0.79-0.34-1.91-0.65-3.35-0.65c-3.14,0-5.6,1.91-5.6,5.84c0,3.53,2.09,5.76,5.63,5.76
				c1.23,0,2.54-0.24,3.35-0.58L569.47,516.32z"/>
			<path class="st0" d="M587.48,507.79c0,5.81-3.48,9.29-8.66,9.29c-5.21,0-8.3-3.95-8.3-9c0-5.29,3.4-9.24,8.59-9.24
				C584.52,498.84,587.48,502.9,587.48,507.79z M574.73,508c0,3.48,1.62,5.92,4.29,5.92c2.7,0,4.24-2.57,4.24-5.99
				c0-3.19-1.49-5.92-4.24-5.92C576.3,502.01,574.73,504.57,574.73,508z"/>
			<path class="st0" d="M590.09,516.79v-17.64h4.66l3.66,6.47c1.05,1.86,2.07,4.06,2.88,6.05h0.05c-0.24-2.33-0.31-4.71-0.31-7.38
				v-5.13h3.66v17.64h-4.19l-3.77-6.81c-1.05-1.88-2.22-4.16-3.06-6.23h-0.1c0.13,2.36,0.18,4.84,0.18,7.72v5.31H590.09z"/>
			<path class="st0" d="M611.58,502.5h-4.76v-3.35h13.56v3.35h-4.82v14.29h-3.98V502.5z"/>
			<path class="st0" d="M624.72,512.27l-1.26,4.53h-4.11l5.37-17.64h5.23l5.5,17.64h-4.32l-1.36-4.53H624.72z M629.2,509.28
				l-1.1-3.74c-0.31-1.05-0.63-2.36-0.89-3.4h-0.05c-0.26,1.05-0.52,2.38-0.81,3.4l-1.05,3.74H629.2z"/>
			<path class="st0" d="M650.06,516.32c-0.71,0.34-2.38,0.76-4.5,0.76c-6.1,0-9.24-3.82-9.24-8.85c0-6.02,4.29-9.34,9.63-9.34
				c2.07,0,3.64,0.39,4.35,0.79l-0.84,3.14c-0.79-0.34-1.91-0.65-3.35-0.65c-3.14,0-5.6,1.91-5.6,5.84c0,3.53,2.09,5.76,5.63,5.76
				c1.23,0,2.54-0.24,3.35-0.58L650.06,516.32z"/>
			<path class="st0" d="M656.5,502.5h-4.76v-3.35h13.56v3.35h-4.82v14.29h-3.98V502.5z"/>
			<path class="st0" d="M676.68,499.15v10.13c0,3.06,1.18,4.61,3.19,4.61c2.09,0,3.25-1.47,3.25-4.61v-10.13h3.98v9.89
				c0,5.44-2.75,8.04-7.35,8.04c-4.45,0-7.04-2.49-7.04-8.09v-9.84H676.68z"/>
			<path class="st0" d="M690.68,512.69c1.05,0.55,2.72,1.1,4.42,1.1c1.83,0,2.8-0.76,2.8-1.91c0-1.1-0.84-1.73-2.96-2.46
				c-2.93-1.05-4.87-2.67-4.87-5.24c0-3.01,2.54-5.29,6.67-5.29c2.02,0,3.45,0.39,4.5,0.89l-0.89,3.19
				c-0.68-0.34-1.96-0.84-3.66-0.84c-1.73,0-2.57,0.81-2.57,1.7c0,1.13,0.97,1.62,3.27,2.49c3.11,1.15,4.55,2.77,4.55,5.26
				c0,2.96-2.25,5.47-7.09,5.47c-2.02,0-4-0.55-5-1.1L690.68,512.69z"/>
		</g>
	</g>
	<path class="st3" d="M658.27,637.14h-45.63c-11.95,0-21.63,9.68-21.63,21.63v0c0,11.95,9.68,21.63,21.63,21.63h45.63
		c11.95,0,21.63-9.68,21.63-21.63v0C679.9,646.83,670.21,637.14,658.27,637.14z"/>
	<path class="st5" d="M588.76,39.73h59.99c3.3,0,5.97-2.67,5.97-5.97l0,0c0-3.3-2.67-5.97-5.97-5.97h-59.99
		c-3.3,0-5.97,2.67-5.97,5.97l0,0C582.79,37.06,585.47,39.73,588.76,39.73z"/>
</g>
<g>
	<path class="st6" d="M417.57,832.45H282.46c-14.63,0-26.48,11.86-26.48,26.48v135.11c0,14.63,11.86,26.48,26.48,26.48h135.11
		c14.63,0,26.48-11.86,26.48-26.48V858.93C444.05,844.3,432.19,832.45,417.57,832.45z"/>
	<g>
		<path class="st8" d="M291.5,960.61c1.57,0.01,3.14,0.2,4.66,0.58c3.24,0.8,6.42,2.61,8.48,5.66c2.06,3.05,2.74,7.14,1.87,11.45
			l-0.04,0.18l-0.05,0.18c-1.17,4.04-4.34,6.77-7.29,8.07c-2.95,1.3-5.79,1.7-8,2.22c-1.31,0.25-2.38,0.73-3.04,1.66
			c-0.47,0.67-0.73,1.58-0.72,2.8l0.1,4.81h18.4v9.08h-28.13v-9.08l-0.1-7.4c0.36-2.66,1.38-4.97,3.02-6.65
			c2.6-2.65,5.76-3.44,8.4-4.06c2.64-0.62,4.99-1.06,6.42-1.69c1.5-0.61,2.31-1.99,2.41-3.48c0.08-1.03-0.18-2.1-0.77-3
			c-0.58-0.85-1.59-1.55-3.14-1.93c-3.1-0.77-7.78,0.43-9.87,2.68l-6.63-6.2c3.64-3.9,8.68-5.83,13.71-5.87
			C291.29,960.61,291.39,960.61,291.5,960.61z"/>
		<path class="st8" d="M344.49,960.62v22.91h3.7v9.08h-3.7v14.68h-9.08V992.6H315.9l4.65-31.99h9.17l-3.33,22.91h9.02v-22.91H344.49
			z"/>
		<path class="st8" d="M382.36,960.62l-15.55,46.66h-9.57l15.55-46.66H382.36z"/>
		<path class="st8" d="M422.56,960.62l-16.47,46.66h-9.63l13.27-37.59h-18.29v-9.08H422.56z"/>
	</g>
	<g>
		<path class="st8" d="M350.67,942.4c-27.37,0-49.65-22.27-49.65-49.64s22.27-49.64,49.65-49.64c27.37,0,49.64,22.27,49.64,49.64
			S378.04,942.4,350.67,942.4z M350.67,847.9c-24.73,0-44.85,20.12-44.85,44.85c0,24.73,20.12,44.85,44.85,44.85
			c24.73,0,44.85-20.12,44.85-44.85C395.52,868.02,375.4,847.9,350.67,847.9z"/>
	</g>
	<g>
		<polygon class="st8" points="380.41,895.15 348.27,895.15 348.27,857.9 353.07,857.9 353.07,890.35 380.41,890.35 		"/>
	</g>
</g>
<g>
	<defs>
		<path id="SVGID_1_" d="M170.91,1075.83c-31.68-34.16-103.03-111.1-97.23-207.38c4.68-77.68,54.89-90.02,76.4-192.05
			c21.42-101.56-21.75-120.51-3.79-217.7c2.63-14.25,33.21-168.17,147.66-223.38c95.83-46.23,147.92,26.22,257.34-17.76
			c100.33-40.33,86.04-113.11,183.74-154.51c104.19-44.15,231.19-8.31,313.87,50.1c6.09,4.3,120.12,87.45,148.04,233.86
			c19.24,100.88-24.28,117.11-7.7,228.94c16.67,112.45,64.51,122.04,92.89,244.32c15.94,68.66,46.87,201.94-13.25,257.46
			c-82.44,76.12-237.91-84.58-439.9-16.01c-117.96,40.05-102.25,107.52-222.15,143.28C456.87,1249.73,277.19,1190.44,170.91,1075.83
			z"/>
	</defs>
	<clipPath id="SVGID_00000164477636287377035980000007991408855221857469_">
		<use xlink:href="#SVGID_1_"  style="overflow:visible;"/>
	</clipPath>
	<path style="clip-path:url(#SVGID_00000164477636287377035980000007991408855221857469_);fill:#FB9C98;" d="M718.46,693.47
		L718.46,693.47c86.71-24.05,156.06,28.28,180.11,114.99l91.38,419.09l-333.29,0.43l-26.85-331.07
		C605.76,810.2,631.74,717.52,718.46,693.47z"/>
</g>
<path class="st10" d="M557.16,701.86"/>
<path class="st10" d="M667.35,923.1"/>
<path class="st1" d="M381.63,623.09l0.05-8.46c0.14-24.2,19.87-43.71,44.07-43.57l11.65,0.07c24.2,0.14,43.71,19.87,43.57,44.07
	l-0.05,8.46c-0.14,24.2-19.87,43.71-44.07,43.57l-11.65-0.07C401,667.02,381.49,647.29,381.63,623.09z"/>
<path class="st1" d="M382.19,527.86l0.06-9.88c0.13-23.81,19.54-43,43.35-42.86l9.88,0.06c23.81,0.13,43,19.55,42.86,43.35
	l-0.06,9.88c-0.13,23.81-19.55,43-43.35,42.86l-9.88-0.06C401.25,571.08,382.06,551.67,382.19,527.86z"/>
<path class="st1" d="M873.69,920.47l49.34-0.03l-0.22-400.33l-14.38,0.01c-99.04,0.05-179.29,80.39-179.24,179.43l0.04,76.62
	C729.28,855.91,793.95,920.52,873.69,920.47z"/>
<path class="st11" d="M727.73,715.21v35.2c0,25.89,8.19,56.29,23.6,80.21l23.19,36"/>
<path class="st12" d="M436.02,490.34c18.14,0,32.85,14.71,32.85,32.85s-14.71,32.85-32.85,32.85V490.34z"/>
<path class="st12" d="M436.02,586.29c18.14,0,32.85,14.71,32.85,32.85c0,18.14-14.71,32.85-32.85,32.85V586.29z"/>
<path class="st1" d="M382.19,428.83l0.05-9.88c0.12-23.81,16.82-43,37.3-42.87l8.5,0.06c20.49,0.13,37,19.55,36.88,43.35l-0.05,9.88
	c-0.12,23.81-16.82,43-37.3,42.86l-8.5-0.06C398.59,472.05,382.08,452.64,382.19,428.83z"/>
<path class="st12" d="M428.51,391.31c15.61,0,28.27,14.71,28.27,32.85c0,18.14-12.66,32.85-28.27,32.85V391.31z"/>
<path class="st1" d="M789.3,247.12l0.13,0l61.95,70.37l39.58,45.2c20.49,23.4,31.8,53.44,31.81,84.54l0.08,153.92l-101.27,0.05
	l-0.08-156.34c0-5.07-1.86-9.96-5.21-13.75l-36.04-40.73C743.21,348.31,747.27,284.19,789.3,247.12z"/>
<polygon class="st12" points="789.43,247.13 812.94,302.73 838.38,302.73 "/>
<g>
	<g>
		<path class="st13" d="M907.06,131.17h121.7c9,0,16.3,7.3,16.3,16.3v63.32c0,9-7.3,16.3-16.3,16.3h-40.37h-3.43h-34.1h-5.97h-37.83
			c-9,0-16.3-7.3-16.3-16.3v-63.32C890.76,138.47,898.06,131.17,907.06,131.17z"/>
		<polygon class="st13" points="905.83,249.29 905.83,227.08 939.93,227.08 		"/>
		<path class="st6" d="M1072.39,103.29h-121.7c-9,0-16.3,7.3-16.3,16.3v63.32c0,9,7.3,16.3,16.3,16.3h40.37h3.43h34.1h5.97h37.83
			c9,0,16.3-7.3,16.3-16.3l0-63.32C1088.68,110.58,1081.39,103.29,1072.39,103.29z"/>
		<path class="st8" d="M1020.69,153.57c0-5.05-4.1-9.15-9.15-9.15c-5.05,0-9.15,4.1-9.15,9.15s4.1,9.15,9.15,9.15
			C1016.59,162.72,1020.69,158.62,1020.69,153.57z"/>
		<circle class="st8" cx="1046.01" cy="153.57" r="9.15"/>
		
			<ellipse transform="matrix(0.7071 -0.7071 0.7071 0.7071 177.5829 735.8636)" class="st8" cx="977.06" cy="153.57" rx="9.15" ry="9.15"/>
	</g>
	<polygon class="st6" points="1073.62,221.4 1073.62,199.2 1039.52,199.2 	"/>
</g>
<g>
	<g>
		<rect y="329.04" class="st14" width="296.29" height="190.24"/>
		<polygon class="st13" points="0,519.29 148.14,424.17 296.29,519.29 		"/>
		<polyline class="st15" points="222.21,390.62 148.14,452.2 74.07,390.62 		"/>
		<polygon class="st13" points="0,329.04 148.14,449.83 296.29,329.04 		"/>
	</g>
	<g>
		<path class="st14" d="M149.7,342.48c19.88,0,36.36,14.94,38.8,34.17c0.6,4.79,0.33,8.5-2.78,12.95
			c-2.89,3.68-7.48,6.31-12.36,7.17c-3.85,0.51-8-0.22-11.27-2.84c-0.55-0.44-1.07-0.93-1.54-1.47c-2.79,2.78-6.62,4.5-10.83,4.5
			c-8.44,0-15.37-6.93-15.37-15.37c0-8.44,6.93-15.37,15.37-15.37c2.56,0,4.98,0.64,7.11,1.76v-1.38h8.26v14.99
			c0,3.44,0.98,4.95,2.15,5.89c1.17,0.94,2.96,1.38,5.04,1.1c4.04-0.53,8.02-3.55,8.26-7.83c-0.44-16.69-14.03-30.01-30.83-30.01
			c-17.09,0-30.85,13.76-30.85,30.85c0,17.08,13.76,30.85,30.85,30.85c6.84,0,13.15-2.21,18.25-5.95l5.05,6.49
			c-6.51,4.85-14.58,7.73-23.3,7.73c-21.55,0-39.11-17.56-39.11-39.11C110.59,360.03,128.15,342.48,149.7,342.48z M149.7,374.47
			c-3.98,0-7.11,3.14-7.11,7.11c0,3.98,3.13,7.11,7.11,7.11c3.98,0,7.11-3.13,7.11-7.11C156.81,377.61,153.67,374.47,149.7,374.47z"
			/>
	</g>
</g>
</svg>
