<svg id="Layer_1" data-name="Layer 1" xmlns="http://www.w3.org/2000/svg" viewBox="0 0 288 288"><defs><style>.cls-1{fill:#000b63;}.cls-2{fill:#8347ad;}.cls-3{fill:#56bbe8;}</style></defs><path class="cls-1" d="M29.46,228.09c-7.07,0-12.82-.91-16.87-2.8-4.73-2.2-6.64-5.38-7.41-7.66-6.12-18.1,36.18-45.33,81.13-62.86,40.83-15.93,78.17-22,92.92-15.12,4.73,2.2,6.64,5.38,7.41,7.66h0c6.12,18.1-36.18,45.32-81.13,62.86C75.9,221.72,48.11,228.09,29.46,228.09Zm132.93-81.71c-15.67,0-41.53,5.23-72.59,17.35C36,184.7,12.06,208,14.29,214.55a4.37,4.37,0,0,0,2.36,2c10.41,4.86,43.07,1.13,85.37-15.37,53.77-21,77.74-44.24,75.51-50.82h0a4.37,4.37,0,0,0-2.36-2C172.4,147.07,168.06,146.38,162.39,146.38Z"/><polygon class="cls-2" points="264.18 276.22 100.72 276.22 100.72 253.62 110.33 253.62 161.77 232.95 161.77 223.33 264.18 223.33 264.18 276.22"/><rect class="cls-1" x="192.84" y="223.33" width="9.62" height="24.04"/><path class="cls-1" d="M102.33,117.53A59.31,59.31,0,0,1,77,111.79C60,103.73,32.62,80.72,39.2,17.07l.4-3.89,3.89-.4c63.63-6.56,86.66,20.82,94.72,37.74,10.33,21.71,5.55,45.64-5,56.23C126.69,113.23,115.22,117.53,102.33,117.53ZM48.4,22C43.87,76.76,66.78,96.3,81.08,103.1c17.64,8.4,37.24,4.91,45.29-3.15s11.55-27.65,3.15-45.29C122.72,40.36,103.18,17.43,48.4,22Z"/><path class="cls-1" d="M144,143.29c-.08-.53-8.49-53.08-53.95-76.2l4.35-8.57c50,25.41,58.76,81,59.11,83.36Z"/><path class="cls-1" d="M153.59,143l-9.59-.74c0-.37,3.38-37.83,46.18-49.71l2.57,9.27C156.38,111.86,153.61,142.64,153.59,143Z"/><path class="cls-1" d="M43.88,271.36c-7.07,0-12.82-.91-16.87-2.8-4.73-2.2-6.64-5.38-7.41-7.66L5.16,217.58l9.12-3,14.43,43.3a4.49,4.49,0,0,0,2.37,2c10.4,4.86,43.06,1.13,85.36-15.37,53.77-21,77.75-44.22,75.52-50.8L177.54,150.4l9.11-3.05,14.43,43.27c6.11,18.07-36.2,45.28-81.15,62.82C90.32,265,62.54,271.36,43.88,271.36Z"/><polygon class="cls-1" points="93.11 238.56 80.16 212.31 109.44 148.36 118.18 152.36 90.81 212.16 101.73 234.31 93.11 238.56"/><path class="cls-3" d="M202.28,127.19a51.24,51.24,0,0,1-8.1-.65c-12.17-2-22.19-8.44-27.47-17.73h0c-7.93-14-2.1-33.73,14.53-49.2,18.43-17.16,51.9-29.22,85.61-6.72l4.38,2.92-3.31,4.1C256.39,74.15,253,83.8,250,92.31c-2.77,7.86-5.16,14.64-12.94,21.62A52.42,52.42,0,0,1,202.28,127.19Z"/><path class="cls-1" d="M262.41,86.42c-1.39,3.17-2.42,6.12-3.45,9-.12.33-.23.66-.35,1a62.47,62.47,0,0,1-47.32,103.29h-.73a31.77,31.77,0,0,1-4.19,9.46c1.62.11,3.27.17,4.92.17A72.08,72.08,0,0,0,262.41,86.42Z"/></svg>