<svg id="Layer_1" data-name="Layer 1" xmlns="http://www.w3.org/2000/svg" viewBox="0 0 288 288"><defs><style>.cls-1{fill:#8347ad;}.cls-2{fill:#000b63;}.cls-3{fill:#56bbe8;}</style></defs><polygon class="cls-1" points="213.4 274.09 213.4 254.77 72.44 254.77 72.44 274.09 51.16 274.09 51.16 283.7 72.44 283.7 213.4 283.7 234.67 283.7 234.67 274.09 213.4 274.09"/><path class="cls-2" d="M212,92.74v26.33a8.87,8.87,0,0,1-1.08,4.23,14.46,14.46,0,0,1-3,3.73,36.12,36.12,0,0,1-10.23,6.25c-6.58,2.85-15.11,5.1-24.57,6.59a197.47,197.47,0,0,1-30.25,2.25,200.4,200.4,0,0,1-26.54-1.71,137,137,0,0,1-17.66-3.48,80.22,80.22,0,0,1-10.89-3.76,33.43,33.43,0,0,1-10.78-6.95,12.88,12.88,0,0,1-2.46-3.57,8.62,8.62,0,0,1-.76-3.58V92.74h-10v26.33A18.91,18.91,0,0,0,66.07,128a24.24,24.24,0,0,0,5,6.34,45.63,45.63,0,0,0,13.09,8.13c7.68,3.32,16.92,5.69,27,7.29a206.15,206.15,0,0,0,31.81,2.37,211.18,211.18,0,0,0,27.87-1.8,147.47,147.47,0,0,0,19-3.74A90.21,90.21,0,0,0,202,142.33c5.6-2.47,10.4-5.43,14-9.23a22.73,22.73,0,0,0,4.35-6.4,18.78,18.78,0,0,0,1.62-7.63V92.74Z"/><path class="cls-2" d="M252.74,58h-5V221.62A23.34,23.34,0,0,1,224.4,245H63.6a23.34,23.34,0,0,1-23.34-23.34V58A23.32,23.32,0,0,1,63.6,34.61H224.4A23.32,23.32,0,0,1,247.74,58h10A33.32,33.32,0,0,0,224.4,24.61H63.6A33.32,33.32,0,0,0,30.26,58V221.62A33.34,33.34,0,0,0,63.6,255H224.4a33.34,33.34,0,0,0,33.34-33.34V58Z"/><polyline class="cls-2" points="252.74 62.77 35.26 62.77 35.26 72.78 252.74 72.78"/><polyline class="cls-2" points="168.74 43.69 119.26 43.69 119.26 53.69 168.74 53.69"/><polyline class="cls-2" points="177.01 3.17 177.01 25.5 187.01 25.5 187.01 3.17"/><polyline class="cls-2" points="100.99 3.17 100.99 25.5 110.99 25.5 110.99 3.17"/><circle class="cls-3" cx="205.12" cy="215.5" r="19.16"/><circle class="cls-3" cx="82.19" cy="215.5" r="19.16"/><polygon class="cls-2" points="251.4 157.9 144.01 187.88 38.18 157.9 35.45 167.52 143.99 198.27 254.09 167.53 251.4 157.9 251.4 157.9"/></svg>