<svg id="Layer_1" data-name="Layer 1" xmlns="http://www.w3.org/2000/svg" viewBox="0 0 288 288"><defs><style>.cls-1{fill:#8347ad;}.cls-2{fill:#000b63;}.cls-3{fill:#56bbe8;}</style></defs><path class="cls-1" d="M153.76,117.41a40.17,40.17,0,0,1,0,80.16Z"/><path class="cls-2" d="M262.15,150.4H204.63V141h57.52a9.46,9.46,0,0,0,9.45-9.45v-104a9.46,9.46,0,0,0-9.45-9.45H120.37a9.46,9.46,0,0,0-9.45,9.45v75.62h-9.45V27.53a18.92,18.92,0,0,1,18.9-18.9H262.15a18.92,18.92,0,0,1,18.9,18.9v104A18.92,18.92,0,0,1,262.15,150.4Z"/><polygon class="cls-2" points="129.82 46.44 120.37 46.44 120.37 55.89 129.82 55.89 129.82 46.44 129.82 46.44"/><polygon class="cls-2" points="129.82 65.34 120.37 65.34 120.37 74.79 129.82 74.79 129.82 65.34 129.82 65.34"/><polygon class="cls-2" points="129.82 27.53 120.37 27.53 120.37 36.98 129.82 36.98 129.82 27.53 129.82 27.53"/><path class="cls-2" d="M158.18,231.16,150,222.65c-15-15.65-40.19-25-67.48-25H47.12a40.17,40.17,0,0,1,0-80.34H82.56c27.29,0,52.51-9.34,67.48-25l8.14-8.51ZM47.12,126.77a30.72,30.72,0,0,0,0,61.44H82.56c25.39,0,49.31,7.56,66.17,20.6V106.17c-16.86,13-40.78,20.6-66.17,20.6Z"/><rect class="cls-2" x="54.21" y="155.13" width="9.45" height="37.81"/><path class="cls-2" d="M96.74,273.28a18.8,18.8,0,0,1-16-8.92L37.3,195l8-5,43.44,69.4a9.42,9.42,0,1,0,16-10L71,195.44l8-5,33.69,54a18.85,18.85,0,0,1-16,28.89Z"/><path class="cls-2" d="M188.37,241l-3.46-8.8a47,47,0,0,0,30-44h9.45A56.42,56.42,0,0,1,188.37,241Z"/><path class="cls-2" d="M192.68,279.37l-2.5-9.12a85.24,85.24,0,0,0,62.51-82,82.52,82.52,0,0,0-.44-8.75l9.4-1a90.42,90.42,0,0,1,.5,9.74A94.72,94.72,0,0,1,192.68,279.37Z"/><path class="cls-3" d="M183.8,51.16l33.82,28.52L183.8,107.89Z"/></svg>