<?xml version="1.0" encoding="utf-8"?>
<!-- Generator: Adobe Illustrator 25.0.1, SVG Export Plug-In . SVG Version: 6.00 Build 0)  -->
<svg version="1.1" id="Layer_1" xmlns="http://www.w3.org/2000/svg" xmlns:xlink="http://www.w3.org/1999/xlink" x="0px" y="0px"
	 viewBox="0 0 124 124" style="enable-background:new 0 0 124 124;" xml:space="preserve">
<style type="text/css">
	.st0{fill:#7F47AC;}
	.st1{fill:#000B63;}
	.st2{fill:#56BBE8;}
</style>
<g>
	<g>
		<path class="st0" d="M59.7,69.8c-0.4,0-0.8-0.1-1.1-0.2l-50-21.7c-1-0.4-1.7-1.4-1.7-2.5s0.7-2.1,1.7-2.5l50-20.8
			c0.7-0.3,1.5-0.3,2.2,0l50,21.7c1,0.4,1.7,1.4,1.7,2.5c0,1.1-0.7,2.1-1.7,2.5l-50,20.8C60.4,69.7,60,69.8,59.7,69.8z M16.7,45.4
			l43,18.7l42.9-17.8l-43-18.7L16.7,45.4z"/>
	</g>
	<g>
		<path class="st0" d="M59.7,69.8c-0.4,0-0.8-0.1-1.1-0.2L18.3,52.1l2.2-5l39.2,17l42.9-17.8l-25.2-11l2.2-5l31.2,13.5
			c1,0.4,1.7,1.4,1.7,2.5c0,1.1-0.7,2.1-1.7,2.5l-50,20.8C60.4,69.7,60,69.8,59.7,69.8z"/>
	</g>
	<g>
		<path class="st1" d="M78.9,91.7H40.5c-9.5,0-17.3-8.9-17.3-19.8v-9.6h5.5v9.6c0,7.9,5.3,14.3,11.8,14.3h38.4
			c6.5,0,11.8-6.4,11.8-14.3v-9.6h5.5v9.6C96.2,82.8,88.4,91.7,78.9,91.7z"/>
	</g>
	<g>
		<path class="st2" d="M109.5,57.6c-1.1-0.1-1.9-1.1-1.8-2.2c0.1-1.1,1.1-1.9,2.2-1.8s1.9,1.1,1.8,2.2
			C111.6,56.9,110.6,57.8,109.5,57.6L109.5,57.6z"/>
	</g>
	<g>
		<path class="st2" d="M109.5,69.9c-1.1-0.1-1.9-1.1-1.8-2.2s1.1-1.9,2.2-1.8s1.9,1.1,1.8,2.2C111.6,69.2,110.6,70,109.5,69.9
			L109.5,69.9"/>
	</g>
	<g>
		<path class="st2" d="M109.5,82.1c-1.1-0.1-1.9-1.1-1.8-2.2s1.1-1.9,2.2-1.8s1.9,1.1,1.8,2.2C111.6,81.4,110.6,82.2,109.5,82.1"/>
	</g>
	<g>
		<path class="st1" d="M109.7,102.7c-4.6,0-8.3-3.7-8.3-8.3c0-4.6,3.7-8.3,8.3-8.3c4.6,0,8.3,3.7,8.3,8.3
			C117.9,99,114.2,102.7,109.7,102.7z M109.7,91.7c-1.5,0-2.8,1.2-2.8,2.8c0,1.5,1.2,2.8,2.8,2.8c1.5,0,2.8-1.2,2.8-2.8
			C112.4,92.9,111.2,91.7,109.7,91.7z"/>
	</g>
</g>
</svg>
