<svg id="Layer_1" data-name="Layer 1" xmlns="http://www.w3.org/2000/svg" viewBox="0 0 288 288"><defs><style>.cls-1{fill:#000b63;}.cls-2{fill:#56bbe8;}.cls-3{fill:#8347ad;}</style></defs><path class="cls-1" d="M125.58,78.79h36.84V88.4H125.58Z"/><polygon class="cls-1" points="58.56 257.4 49.75 253.57 125.58 78.79 136.13 78.77 58.56 257.4"/><polygon class="cls-1" points="229.44 257.4 156.05 88.4 162.42 78.79 238.25 253.56 229.44 257.4"/><rect class="cls-1" x="104.17" y="109.5" width="65.6" height="9.62" transform="translate(-38.55 82.4) rotate(-29.54)"/><rect class="cls-1" x="59.74" y="199.4" width="145.32" height="9.61" transform="translate(-65.76 62.91) rotate(-21.55)"/><rect class="cls-1" x="82.33" y="149.19" width="102.91" height="9.62" transform="matrix(0.89, -0.46, 0.46, 0.89, -55.58, 78.15)"/><path class="cls-2" d="M144,66.05a19.23,19.23,0,1,1,19.23-19.23A19.24,19.24,0,0,1,144,66.05Z"/><rect class="cls-1" x="146.22" y="81.5" width="9.62" height="65.6" transform="translate(-22.9 189.3) rotate(-60.45)"/><rect class="cls-1" x="150.79" y="131.55" width="9.61" height="145.32" transform="translate(-91.51 273.87) rotate(-68.44)"/><rect class="cls-1" x="149.4" y="102.54" width="9.62" height="102.91" transform="translate(-53.23 220.81) rotate(-62.81)"/><path class="cls-1" d="M109.39,70.38a43.26,43.26,0,0,1,0-51.93l7.69,5.77a33.67,33.67,0,0,0,0,40.39Z"/><path class="cls-1" d="M96.12,84.7A64.4,64.4,0,0,1,81.5,44.42,64.35,64.35,0,0,1,96.12,4.14l7.41,6.12A54.6,54.6,0,0,0,91.12,44.42a54.6,54.6,0,0,0,12.41,34.15Z"/><path class="cls-1" d="M178.61,70.4l-7.69-5.78a33.65,33.65,0,0,0,0-40.38l7.69-5.78a43.27,43.27,0,0,1,0,51.94Z"/><path class="cls-1" d="M191.88,84.71l-7.41-6.12a54.63,54.63,0,0,0,12.41-34.17,54.6,54.6,0,0,0-12.41-34.15l7.41-6.12A64.37,64.37,0,0,1,206.5,44.42,64.38,64.38,0,0,1,191.88,84.71Z"/><path class="cls-3" d="M254.58,279.52H33.42V250.68H254.58Z"/></svg>