<?xml version="1.0" encoding="utf-8"?>
<!-- Generator: Adobe Illustrator 25.0.1, SVG Export Plug-In . SVG Version: 6.00 Build 0)  -->
<svg version="1.1" id="Layer_1" xmlns="http://www.w3.org/2000/svg" xmlns:xlink="http://www.w3.org/1999/xlink" x="0px" y="0px"
	 viewBox="0 0 124 124" style="enable-background:new 0 0 124 124;" xml:space="preserve">
<style type="text/css">
	.st0{fill:#000B63;}
	.st1{fill:#7F47AC;}
	.st2{fill:#56BBE8;}
</style>
<g>
	<g>
		<path class="st0" d="M88.5,59.6l-0.1-0.2c-0.5-1-1.4-2.7-0.6-4.9C87,53.2,86,52,84.8,51c-2.4-1.7-4.5-3.8-6.2-6.3
			c-0.1,0-0.2-0.1-0.2-0.1c-0.2-0.1-0.3-0.1-0.5-0.2l-0.1,0c-0.6-0.1-2-0.3-2.9-1.6c-0.5-0.7-1.2-0.8-3.4-0.9c-0.4,0-0.8,0-1.2,0
			c-4.2,0.1-8.2-1.2-11.5-3.8c0,0-0.1,0-0.1-0.1c-4.3-3.6-9-6.8-13.9-9.5l3.1-5.6c5.2,2.9,10.2,6.3,14.8,10.1
			c2.2,1.7,4.8,2.5,7.6,2.4c0.1,0,0.2,0,0.3,0c0.4,0,0.7,0,1.1,0c2.2,0,5.3,0.1,7.8,2.7c0.2,0.1,0.5,0.1,0.8,0.3
			c0.1,0,0.3,0.1,0.4,0.2c0.8,0.3,2.1,0.8,3,2c1.4,2.1,3.1,3.8,5,5.2c0.1,0.1,0.2,0.2,0.3,0.3c1.8,1.7,3.4,3.6,4.6,5.8
			c0.8,1.3,0.9,2.9,0.4,4.3c0,0,0,0.1-0.1,0.1c0,0.1,0.1,0.2,0.1,0.2l0.1,0.2L88.5,59.6z M88.1,55.2L88.1,55.2L88.1,55.2z
			 M77.7,44.3C77.7,44.3,77.7,44.3,77.7,44.3C77.7,44.3,77.7,44.3,77.7,44.3z M80.2,39C80.2,39.1,80.2,39.1,80.2,39
			C80.2,39.1,80.2,39.1,80.2,39z"/>
	</g>
	<g>
		<path class="st0" d="M59.5,109.9c-0.6,0-1.2-0.1-1.9-0.3l-0.1,0c-3.2-1-7.5-2.3-9.4-7c-0.3-0.7-1-2.9,0.1-4.6c0,0,0-0.1-0.1-0.1
			c-0.1-0.2-0.2-0.4-0.4-0.6c-0.4-0.8-0.8-1.5-1.1-2.2c-0.4-0.8-0.7-1.6-1.1-2.2c0-0.1-0.1-0.2-0.1-0.2c-0.5-1-1.2-1.8-2.1-2.5
			c-6.3-3.6-7.3-9.7-7.5-14c-0.2-2.4-1.5-4.5-3.5-5.8c-0.1-0.1-0.2-0.2-0.3-0.2c-2-1.7-3.5-3.6-4.7-5.9c-0.6-1-1-2-1.3-2.9
			c-0.2-0.6-0.5-1.2-0.7-1.7c-0.9-1.5-1.9-3.1-3-4.6c-0.2-0.3-0.3-0.5-0.5-0.7c-0.7-1-0.8-1.1-1.1-1.1l1.2-6.3
			c3.1,0.6,4.4,2.6,5.3,3.9c0.1,0.2,0.2,0.3,0.3,0.5c1.2,1.6,2.3,3.4,3.3,5.2c0.5,1,0.8,1.8,1.1,2.6c0.3,0.7,0.5,1.4,0.8,1.9
			c0,0.1,0.1,0.2,0.2,0.3c0.7,1.5,1.7,2.8,3,3.8c3.6,2.4,5.8,6.2,6.2,10.5c0,0.1,0,0.1,0,0.2c0.2,4.6,1.5,7.2,4.4,8.8
			c0.1,0.1,0.2,0.1,0.3,0.2c1.7,1.2,3.1,2.8,4.1,4.7c0.6,1,1.1,2,1.5,2.9c0.3,0.6,0.6,1.2,0.8,1.8c0.1,0.1,0.2,0.3,0.2,0.4
			c0.6,0.9,2,3.3,0.6,5.9c0.8,1.6,2.5,2.2,5.2,3c0.3-0.3,0.8-1,1-1.4c0.2-0.2,0.3-0.5,0.5-0.7c0.1-0.1,0.1-0.2,0.1-0.2
			c0.4-0.6,1.1-1.7,2.4-2.2c4.6-1.6,8.8-0.4,12.5,0.8c1.2,0.4,2,0.4,2.2,0.3c0.2-0.1,0.4-0.4,0.6-0.9c0.8-2.8,2.8-5.1,5.6-6.1
			c0.1,0,0.1,0,0.2-0.1c1.8-0.6,3.6-1,5.4-1.2l0.8,6.3c-1.4,0.2-2.8,0.5-4.2,0.9c-0.8,0.3-1.4,1-1.6,1.9c0,0.1,0,0.1-0.1,0.2
			c-0.9,2.8-2.6,4.1-3.8,4.7c-2,1-4.4,1-7.2,0.1c-2.5-0.9-5.2-1.6-7.6-1.1c-0.1,0.1-0.1,0.1-0.1,0.2c-0.1,0.2-0.3,0.4-0.4,0.6
			C64.7,107,62.8,109.9,59.5,109.9z M53.4,101.5C53.4,101.5,53.4,101.5,53.4,101.5C53.4,101.5,53.4,101.5,53.4,101.5z"/>
	</g>
	<g>
		<path class="st1" d="M20.8,52.8c-1.5-0.3-2.8-1.2-3.7-2.5c-1.1-1.6-1.5-3.7-1.1-5.7l0.1-0.4c0.2-1,0.4-2,0.5-3
			c0.3-2.6,1.2-4.5,2.8-5.6c1.5-1.1,3.4-1.4,5.9-0.9c0.3-0.4,0.7-0.7,1.1-1.1c-0.2-0.2-0.4-0.4-0.5-0.7c-1.6-2-1.6-3.8-1.3-4.9
			c0.3-1.1,1.2-2.6,3.5-3.5c0.8-0.3,1.5-0.6,2.3-0.9c2.4-1,4.9-2,7.6-2.3c3.4-0.4,6.8,0.3,9.8,1.9l-2.7,5.2c-2-1-4.2-1.5-6.5-1.2
			c-1.9,0.2-3.9,1-6.1,1.9c-0.6,0.3-1.3,0.5-1.9,0.8c0.4,0.5,0.9,1,1.3,1.5c0.3,0.3,0.5,0.6,0.8,0.9c0.5,0.6,0.8,1.5,0.7,2.3
			c-0.1,0.8-0.6,1.6-1.3,2c-0.9,0.6-1.7,1.3-2.5,2.1c-1.2,1.8-3.5,2.5-5.6,1.9c-0.9-0.2-1.2-0.1-1.3-0.1c0,0-0.2,0.4-0.4,1.5
			c-0.1,1.2-0.4,2.4-0.6,3.5l-0.1,0.4c-0.1,0.7,0.1,1.2,0.2,1.4L20.8,52.8z"/>
	</g>
	<g>
		<path class="st1" d="M90.4,97.7l-0.5-5.8c2.9-0.3,5.9-0.7,8.8-1.3c1.8-0.6,3.6-1.4,5.5-2.2c1.4-0.7,2.9-1.3,4.5-1.9
			c1-0.3,1.7-1.2,1.8-2.2c0-0.1,0-0.2,0-0.2c0.3-2,0.7-3.8,1.1-5.5c0.4-2.4-0.4-4.8-2.1-6.4c-2.4,0.9-4.6,0.4-6.3,0.1
			c-0.8-0.2-1.5-0.3-2.1-0.3c-0.1,0-0.1,0-0.1,0c-1.4-0.1-2.7-0.8-3.5-1.8c-0.1-0.1-0.1-0.2-0.2-0.3c-0.6-0.9-1.1-1.9-1.7-2.8
			c-0.6-0.9-1.1-1.8-1.6-2.7c0-0.1-0.1-0.1-0.1-0.2c-0.1-0.1-0.2-0.2-0.3-0.3c-2.3-0.7-4.2-2.4-4.9-4.7l5.5-1.8
			c0.2,0.5,0.5,0.8,1,0.9c0.2,0,0.3,0.1,0.4,0.1c1.4,0.6,2.5,1.6,3.2,2.9c0.6,1,1.2,1.9,1.7,2.9c0.4,0.7,0.8,1.3,1.2,2
			c0.9,0.1,1.8,0.3,2.6,0.4c1.6,0.3,2.5,0.5,3.4,0c2-1.2,4.2,0.2,4.6,0.4c0.1,0.1,0.2,0.1,0.2,0.2c3.8,3,5.6,7.8,4.7,12.6
			c0,0.1,0,0.1,0,0.2c-0.4,1.5-0.7,3.2-1,5c-0.3,3.3-2.5,6.1-5.6,7.1c-1.3,0.5-2.6,1.1-4,1.7c-2,0.9-4.1,1.8-6.3,2.5
			c-0.1,0-0.1,0-0.2,0.1C96.9,96.9,93.7,97.4,90.4,97.7z M110.6,71.6C110.6,71.6,110.5,71.6,110.6,71.6
			C110.5,71.6,110.6,71.6,110.6,71.6z"/>
	</g>
	<g>
		<path class="st2" d="M28.2,102l-1.8-5.5c12-3.9,23.1-9.8,33.2-17.3c3.7-2.8,7.2-5.9,10.4-9.3c3.3-3.5,6.3-7.4,8.8-11.6
			c5.6-9.2,8.5-19.7,8.4-30.5V13.7H93v14.1c0.1,11.8-3.1,23.4-9.2,33.5c-2.7,4.5-5.9,8.7-9.6,12.5c-3.4,3.6-7.1,6.9-11.1,9.9
			C52.5,91.7,40.8,97.9,28.2,102z"/>
	</g>
	<g>
		<path class="st0" d="M19,112.6L19,112.6c-6.4,0-11.5-5.2-11.5-11.5S12.6,89.5,19,89.5l0,0c6.4,0,11.5,5.2,11.5,11.5v0
			C30.5,107.4,25.3,112.6,19,112.6z M19,95.9L19,95.9c-2.8,0-5.1,2.3-5.1,5.1c0,2.8,2.3,5.1,5.1,5.1l0,0c2.8,0,5.1-2.3,5.1-5.1v0
			C24.1,98.2,21.8,95.9,19,95.9z"/>
	</g>
	<g>
		<path class="st0" d="M80.5,27.8L76,23.2l11.8-11.8c1.2-1.2,3.3-1.2,4.5,0l11.8,11.8l-4.5,4.5l-9.5-9.5L80.5,27.8z"/>
	</g>
</g>
</svg>
