<?xml version="1.0" encoding="utf-8"?>
<!-- Generator: Adobe Illustrator 25.0.1, SVG Export Plug-In . SVG Version: 6.00 Build 0)  -->
<svg version="1.1" id="Layer_1" xmlns="http://www.w3.org/2000/svg" xmlns:xlink="http://www.w3.org/1999/xlink" x="0px" y="0px"
	 viewBox="0 0 124 124" style="enable-background:new 0 0 124 124;" xml:space="preserve">
<style type="text/css">
	.st0{fill:#7F47AC;}
	.st1{fill:#000B63;}
	.st2{fill:#56BBE8;}
</style>
<g>
	<g>
		<path class="st0" d="M83.4,59c1.8,0.2,3.2,1.8,3,3.6c-0.2,1.8-1.8,3.2-3.6,3c-1.8-0.2-3.2-1.8-3-3.6l0,0
			C80,60.2,81.6,58.8,83.4,59"/>
	</g>
	<g>
		<path class="st0" d="M83.4,38.9c1.8,0.2,3.2,1.8,3,3.6s-1.8,3.2-3.6,3c-1.8-0.2-3.2-1.8-3-3.6l0,0C80,40,81.6,38.7,83.4,38.9"/>
	</g>
	<g>
		<path class="st1" d="M84.4,109.6c-1.8,0-3.3-1.4-3.4-3.3c0-0.5-0.4-11.7,6.7-18.5c4-3.8,9.4-5.4,16.1-4.7c1.5,0.2,2.8,1.3,3,2.8
			c0.1,0.4,1.5,9-3.9,15.8C99,106.5,92.8,109.2,84.4,109.6C84.5,109.6,84.5,109.6,84.4,109.6z M100.3,89.9C97,90,94.4,91,92.4,92.8
			c-2.8,2.7-3.9,6.7-4.3,9.6c4.3-0.7,7.5-2.3,9.5-4.8C99.6,95,100.2,92,100.3,89.9z"/>
	</g>
	<g>
		<rect x="79.7" y="72.5" class="st2" width="6.8" height="43.3"/>
	</g>
	<g>
		<rect x="50.6" y="92.7" class="st1" width="6.8" height="21.7"/>
	</g>
	<g>
		<path class="st1" d="M57.9,95.2c-22.2,0-40.2-18.1-40.2-40.2c0-22.2,18-40.2,40.2-40.2v6.8c-18.4,0-33.4,15-33.4,33.4
			s15,33.4,33.4,33.4V95.2z"/>
	</g>
	<g>
		<path class="st1" d="M83.1,32.3c-6.9,0-12.5-5.6-12.5-12.5S76.2,7.3,83.1,7.3s12.5,5.6,12.5,12.5l0,0C95.6,26.7,90,32.3,83.1,32.3
			z M83.1,14.2c-3.1,0-5.7,2.5-5.7,5.6s2.5,5.6,5.6,5.6s5.6-2.5,5.6-5.6S86.2,14.2,83.1,14.2z"/>
	</g>
	<g>
		<path class="st0" d="M49.5,77.4l-5.8-3.6l9.2-14.9h-6.3c-1.2,0-2.4-0.7-3-1.7c-0.6-1.1-0.6-2.4,0-3.4l12.4-21l5.9,3.5L52.5,52h6.4
			c1.2,0,2.4,0.7,3,1.8s0.6,2.4-0.1,3.5L49.5,77.4z"/>
	</g>
</g>
</svg>
