<?xml version="1.0" encoding="utf-8"?>
<!-- Generator: Adobe Illustrator 25.0.1, SVG Export Plug-In . SVG Version: 6.00 Build 0)  -->
<svg version="1.1" id="Layer_1" xmlns="http://www.w3.org/2000/svg" xmlns:xlink="http://www.w3.org/1999/xlink" x="0px" y="0px"
	 viewBox="0 0 124 124" style="enable-background:new 0 0 124 124;" xml:space="preserve">
<style type="text/css">
	.st0{fill:#000B63;}
	.st1{fill:#7F47AC;}
	.st2{fill:#56BBE8;}
</style>
<g>
	<g>
		<path class="st0" d="M109.2,56.3c-4.6,0-8.3-3.7-8.3-8.3s3.7-8.3,8.3-8.3l0,0c4.6,0,8.3,3.7,8.3,8.3l0,0
			C117.5,52.5,113.8,56.3,109.2,56.3z M109.2,45.4L109.2,45.4c-1.4,0-2.6,1.2-2.6,2.6s1.2,2.6,2.6,2.6s2.6-1.2,2.6-2.6
			c0-0.7-0.3-1.3-0.8-1.8C110.5,45.7,109.8,45.4,109.2,45.4z"/>
	</g>
	<g>
		<path class="st1" d="M96.6,81.2c-0.1,0-0.1,0-0.2,0c-1.2-0.1-2.3-1-2.6-2.2l-1-4.3l2.4-0.6l3.9-9.8c0.4-1.1,1.5-1.8,2.7-1.8h10.8
			v5.8h-8.9l-4.4,11.1C98.8,80.5,97.8,81.2,96.6,81.2z"/>
	</g>
	<g>
		<path class="st1" d="M65.9,80c-0.1,0-0.2,0-0.2,0c-1.2-0.1-2.2-0.9-2.5-2L55.1,51l-6,15.9l-5.4-2l9-23.8c0.4-1.2,1.5-1.9,2.8-1.9
			c1.2,0,2.3,0.9,2.7,2l8.4,28.1l2-4c0.5-1,1.5-1.6,2.6-1.6h3.6l1.1-4l5.6,1.5l-1.7,6.1c-0.3,1.2-1.5,2.1-2.8,2.1H73l-4.4,9
			C68,79.4,67,80,65.9,80z"/>
	</g>
	<g>
		<path class="st0" d="M27.7,61.8c-1.2-2.4-2.2-4.8-3-7.4c-0.4-1.3-0.6-2.6-0.8-3.8c-0.1-0.5-0.2-1-0.3-1.6c0-0.2-0.1-0.4-0.1-0.6
			v-4.2c0-0.2,0-0.4,0-0.5l0.1-0.3c0-0.1,0-0.2,0.1-0.3c0.3-3.3,1.1-6.6,2.5-9.7C31.3,22,44.5,16.5,56.2,20.9c4.7,1.9,8.7,5,11.7,9
			c1.1-1.3,2.2-2.6,3.4-3.8c7.8-7.6,19.7-8.9,29-3.1c5.6,3.5,9.6,9.2,10.8,15.8c0.3,1.2,0.5,2.4,0.6,3.5c0.1,0.5,0.2,1,0.2,1.5
			l-5.7,0.9c-0.1-0.5-0.2-1.1-0.2-1.6c-0.2-1.1-0.3-2.1-0.5-3.1c0,0,0-0.1,0-0.1c-0.9-5-3.9-9.4-8.2-12c-7-4.4-16.1-3.4-22,2.4
			c-1.9,1.8-3.6,3.9-5,6.1c-0.5,0.8-1.4,1.4-2.4,1.4c-1,0-1.9-0.4-2.4-1.2l-0.6-0.8c-0.3-0.5-0.6-0.9-0.9-1.3
			c-2.5-3.7-5.9-6.5-10-8.1c-8.8-3.3-18.7,0.9-22.5,9.5c-1.1,2.5-1.8,5.1-2,7.9c0,0.3-0.1,0.6-0.1,0.9v3.6c0.1,0.5,0.2,0.9,0.3,1.4
			c0.2,1.2,0.4,2.3,0.7,3.3c0.6,2.2,1.5,4.3,2.5,6.3L27.7,61.8z"/>
	</g>
	<g>
		<path class="st0" d="M67.8,104.7c-0.9,0-1.7-0.3-2.4-0.9c-5.7-4-11.2-8.4-16.3-13c-4.8-4.2-9.3-8.9-13.4-13.9l4.4-3.7
			c3.9,4.7,8.2,9.2,12.8,13.2c4.7,4.3,9.7,8.3,14.9,12c6.6-4.7,12.9-9.9,18.8-15.6l4,4.1c-6.3,6.1-13.2,11.8-20.4,16.8
			C69.4,104.4,68.6,104.7,67.8,104.7z M66.4,99.4C66.4,99.4,66.4,99.4,66.4,99.4C66.4,99.4,66.4,99.4,66.4,99.4z"/>
	</g>
	<g>
		<path class="st2" d="M31.5,66.3c0.1-1.1,1.1-1.9,2.2-1.8c1.1,0.1,1.9,1.1,1.8,2.2c-0.1,1.1-1.1,1.9-2.2,1.8
			C32.2,68.4,31.4,67.4,31.5,66.3C31.5,66.3,31.5,66.3,31.5,66.3"/>
	</g>
	<g>
		<path class="st2" d="M19.4,66.3c0.1-1.1,1.1-1.9,2.2-1.8c1.1,0.1,1.9,1.1,1.8,2.2c-0.1,1.1-1.1,1.9-2.2,1.8
			C20.1,68.4,19.3,67.4,19.4,66.3L19.4,66.3"/>
	</g>
	<g>
		<path class="st2" d="M7.3,66.3c0.1-1.1,1.1-1.9,2.2-1.8c1.1,0.1,1.9,1.1,1.8,2.2c-0.1,1.1-1.1,1.9-2.2,1.8
			C8,68.4,7.2,67.4,7.3,66.3L7.3,66.3"/>
	</g>
	<g>
		<path class="st0" d="M92.8,74.7l-7-29.5l-4.4,16l-5.6-1.5l7.3-26.9c0.3-1.2,1.5-2.1,2.8-2.1c0,0,0,0,0.1,0c1.3,0,2.4,0.9,2.8,2.2
			l9.6,40.5L92.8,74.7z"/>
	</g>
</g>
</svg>
