<svg id="Layer_1" data-name="Layer 1" xmlns="http://www.w3.org/2000/svg" viewBox="0 0 288 288"><defs><style>.cls-1{fill:#000b63;}.cls-2{fill:#56bbe8;}.cls-3{fill:#8347ad;}</style></defs><path class="cls-1" d="M189.52,279.18a91,91,0,1,1,91-91.05A91.14,91.14,0,0,1,189.52,279.18Zm0-172a80.94,80.94,0,1,0,80.94,80.93A81,81,0,0,0,189.52,107.2Z"/><rect class="cls-1" x="103.53" y="183.08" width="45.52" height="10.12"/><rect class="cls-1" x="152.85" y="110.59" width="10.12" height="45.21" transform="translate(-45.59 97.62) rotate(-30.23)"/><rect class="cls-1" x="198.53" y="128.14" width="45.21" height="10.12" transform="translate(-5.31 257.15) rotate(-59.76)"/><rect class="cls-1" x="135.3" y="238.01" width="45.21" height="10.12" transform="translate(-131.61 257.06) rotate(-59.76)"/><rect class="cls-1" x="216.08" y="220.47" width="10.12" height="45.21" transform="translate(-92.31 144.39) rotate(-30.23)"/><rect class="cls-1" x="229.99" y="183.08" width="30.35" height="10.12"/><polygon class="cls-1" points="32.72 172.96 22.6 172.96 22.6 16.16 275.51 16.16 275.51 122.38 265.4 122.38 265.4 26.27 32.72 26.27 32.72 172.96"/><polygon class="cls-1" points="81.69 172.96 71.58 172.96 71.58 60.38 224.16 60.38 224.16 105.96 214.05 105.96 214.05 70.5 81.69 70.5 81.69 172.96"/><rect class="cls-1" x="47.89" y="9.95" width="10.12" height="68.05" transform="translate(-15.16 53.92) rotate(-48.01)"/><rect class="cls-1" x="211.14" y="38.92" width="68.05" height="10.12" transform="translate(33.52 175.3) rotate(-41.99)"/><rect class="cls-1" x="7.43" y="167.9" width="80.93" height="10.12"/><rect class="cls-2" x="7.43" y="188.13" width="45.52" height="10.12"/><rect class="cls-2" x="63.07" y="188.13" width="25.29" height="10.12"/><rect class="cls-2" x="7.43" y="208.37" width="80.93" height="10.12"/><path class="cls-3" d="M212.69,228.6H166.36l-23.13-40.47,23.13-40.46h46.33l23.12,40.46Z"/></svg>