<?xml version="1.0" encoding="utf-8"?>
<!-- Generator: Adobe Illustrator 25.0.1, SVG Export Plug-In . SVG Version: 6.00 Build 0)  -->
<svg version="1.1" id="Layer_1" xmlns="http://www.w3.org/2000/svg" xmlns:xlink="http://www.w3.org/1999/xlink" x="0px" y="0px"
	 viewBox="0 0 124 124" style="enable-background:new 0 0 124 124;" xml:space="preserve">
<style type="text/css">
	.st0{fill:#7F47AC;}
	.st1{fill:#000B63;}
	.st2{fill:#56BBE8;}
	.st3{fill:#FFFFFF;}
</style>
<g>
	<path class="st0" d="M83.2,88h-4.3c0-28.6,8.9-46.3,16.5-56.1l3.4,2.6C91.6,43.8,83.2,60.6,83.2,88"/>
	<path class="st1" d="M106.6,58.2h-6.4c0,0,8.2-6.8,8.6-7.2c1.3-1.4,4.2-5,4.2-9.8c0-3.4-2.5-6.7-2.5-6.7l3.3-2.6
		c0.1,0.2,3.4,4.4,3.4,9.4c0,6.5-3.8,11.2-5.6,12.9C111.3,54.5,106.7,58.1,106.6,58.2"/>
	<path class="st1" d="M106.8,36.8l-0.3-4.3l0.1,2.1l-0.1-2.1c0.1,0,6.5-0.5,6.5-4.3V15.5c0,0-0.1,0.1-0.2,0.1l-0.3,0.1
		c-4.2,0.9-14.4,2.6-15.6,2.8c-1.8,0.5-3.1,2.2-3.1,4.1v4.9l-3-0.9c-0.8-0.2-1.3-0.9-1.3-1.7v-2.3c0-3.8,2.6-7.2,6.3-8.2l0.2-0.1
		c0.1,0,15.6-2.8,15.6-2.8l5.7-1.1v18C117.3,34.5,110.4,36.6,106.8,36.8"/>
	<rect x="19.2" y="11.2" class="st1" width="64" height="4.3"/>
	<rect x="36.2" y="24" class="st2" width="29.9" height="4.3"/>
	<rect x="70.4" y="24" class="st2" width="4.3" height="4.3"/>
	<rect x="36.2" y="34.7" class="st2" width="25.6" height="4.3"/>
	<rect x="36.2" y="45.3" class="st2" width="25.6" height="4.3"/>
	<rect x="36.2" y="54.9" class="st2" width="25.6" height="4.3"/>
	<polygon class="st1" points="51.2,109.3 27.7,109.3 27.7,92.3 32,92.3 32,105.1 51.2,105.1 	"/>
	<path class="st1" d="M19.2,11.2c7.9,0,12.8,9.7,12.8,16.6v65.5h-4.3V27.8c0-5-3.6-12.4-8.5-12.4"/>
	<path class="st1" d="M19.2,11.2c-7.9,0-12.8,9.7-12.8,16.6v11.1h4.3V27.8c0-5,3.6-12.4,8.5-12.4"/>
	<polyline class="st1" points="10.6,34.7 23.4,34.7 23.4,39 10.6,39 6.4,39 	"/>
	<path class="st1" d="M106.6,58.2h-6.4v4.3h6.4c0,1.5-0.8,3.2-1.6,4c-5.8,6.5-19.1,9.8-23,10.7c-3.3-3.4-6.3-7.1-8.8-11.1
		c-2.9-4.8-3.5-10.8-1.7-16c1.9-5.7,6.8-9.9,11.8-13c1.7-1,3.4-2.2,5-3.3c3.6-2.4,5.5-4.6,9.4-11.1l-0.9-1
		c-3.8,3.6-7.6,6.2-11.1,8.6c-2.6,1.8-5.2,3.3-7.5,5c-1.7,1.2-3.4,2.5-4.9,3.9c-2.2,2.1-4.1,4.6-5.4,7.7c-2,4.8-2.6,10.1-1.3,15.2
		c1.4,5.3,5,9.9,8.5,14c1.4,1.7,2.9,3.3,4.5,4.9l0.8,0.8l1.1-0.2c0.8-0.1,18.8-3.5,26.5-12.3c1.2-1.4,2.7-4,2.7-6.9
		C110.9,60.1,109,58.2,106.6,58.2"/>
	<path class="st1" d="M101.9,98.7l-5.2-12.8H67.5c0,0-3.7,9.2-5.2,12.8h-6.9v14.9h29.9h2.1h21.3V98.7H101.9z"/>
	<rect x="76.8" y="98.7" class="st3" width="4.3" height="4.3"/>
	<rect x="36.2" y="64.4" class="st0" width="25.6" height="23.3"/>
</g>
</svg>
