<svg id="Layer_1" data-name="Layer 1" xmlns="http://www.w3.org/2000/svg" viewBox="0 0 288 288"><defs><style>.cls-1{fill:#000b63;}.cls-2{fill:#56bbe8;}.cls-3{fill:#8347ad;}</style></defs><polygon class="cls-1" points="278.4 192 259.2 192 259.2 182.4 268.8 182.4 268.8 24 19.2 24 19.2 182.4 28.8 182.4 28.8 192 9.6 192 9.6 14.4 278.4 14.4 278.4 192"/><rect class="cls-1" x="86.41" y="182.4" width="28.78" height="9.6"/><rect class="cls-1" x="172.8" y="182.4" width="28.8" height="9.6"/><rect class="cls-1" x="28.8" y="33.6" width="9.6" height="48"/><rect class="cls-1" x="249.6" y="86.4" width="9.6" height="48"/><path class="cls-2" d="M144,206.4a19.22,19.22,0,0,1-19.2-19.2v-9.6a19.2,19.2,0,1,1,38.4,0v9.6A19.22,19.22,0,0,1,144,206.4Z"/><path class="cls-1" d="M230.4,206.4a19.22,19.22,0,0,1-19.2-19.2v-9.6a19.2,19.2,0,1,1,38.4,0v9.6A19.22,19.22,0,0,1,230.4,206.4Zm0-38.4a9.62,9.62,0,0,0-9.6,9.6v9.6a9.6,9.6,0,1,0,19.2,0v-9.6A9.62,9.62,0,0,0,230.4,168Z"/><polygon class="cls-3" points="259.2 240 249.6 240 211.2 240 201.6 240 201.6 216 259.2 216 259.2 240"/><polygon class="cls-3" points="268.8 278.4 259.2 278.4 201.6 278.4 192 278.4 192 235.2 268.8 235.2 268.8 278.4"/><path class="cls-1" d="M57.6,206.4a19.22,19.22,0,0,1-19.2-19.2v-9.6a19.2,19.2,0,0,1,38.4,0v9.6A19.22,19.22,0,0,1,57.6,206.4Zm0-38.4a9.62,9.62,0,0,0-9.6,9.6v9.6a9.6,9.6,0,1,0,19.2,0v-9.6A9.62,9.62,0,0,0,57.6,168Z"/><path class="cls-1" d="M115.3,65.41v80.35l72-40.16Zm9.5,16.18,43,24-43,24Z"/><polygon class="cls-1" points="172.8 240 163.2 240 163.2 225.6 124.8 225.6 124.8 240 115.2 240 115.2 216 172.8 216 172.8 240"/><polygon class="cls-1" points="182.4 278.4 172.8 278.4 172.8 244.8 115.2 244.8 115.2 278.4 105.6 278.4 105.6 235.2 182.4 235.2 182.4 278.4"/><polygon class="cls-3" points="86.4 240 76.8 240 38.4 240 28.8 240 28.8 216 86.4 216 86.4 240"/><polygon class="cls-3" points="96 278.4 86.4 278.4 28.8 278.4 19.2 278.4 19.2 235.2 96 235.2 96 278.4"/></svg>