<svg id="Logo" xmlns="http://www.w3.org/2000/svg" width="171.5" height="40.403" viewBox="0 0 171.5 40.403">
  <path id="Path_7" data-name="Path 7" d="M1142.066,25.236a3.856,3.856,0,0,1-.436,1.418,2.854,2.854,0,0,1-.8.919,3.152,3.152,0,0,1-1.057.5,4.9,4.9,0,0,1-1.254.151,4.519,4.519,0,0,1-1.164-.146,2.519,2.519,0,0,1-.947-.469,1.922,1.922,0,0,1-.588-.86,2.733,2.733,0,0,1-.093-1.276,4.813,4.813,0,0,1,.3-1.065,6.312,6.312,0,0,1,.63-1.214l1.337.5c-.1.2-.19.37-.26.518s-.129.287-.178.421a3.992,3.992,0,0,0-.119.392,3.109,3.109,0,0,0-.076.4,1.675,1.675,0,0,0,.039.715.988.988,0,0,0,.306.473,1.2,1.2,0,0,0,.5.243,2.344,2.344,0,0,0,.571.07,1.656,1.656,0,0,0,1.167-.383,1.911,1.911,0,0,0,.524-1.2l.985-7.49h1.588Z" transform="translate(-1125.317 0.376)" fill="#fff"/>
  <path id="Path_8" data-name="Path 8" d="M1146.2,25.612c-.029.221-.056.38-.08.479s-.048.148-.072.148a6.83,6.83,0,0,1-1.021-.075,2.756,2.756,0,0,1-.862-.273,1.265,1.265,0,0,1-.548-.546,1.463,1.463,0,0,1-.109-.849l.869-6.629h1.588l-.8,6.126a1.3,1.3,0,0,0,.011.474.563.563,0,0,0,.181.306.736.736,0,0,0,.3.148,1.588,1.588,0,0,0,.353.04.186.186,0,0,1,.193.159,1.361,1.361,0,0,1,0,.49" transform="translate(-1125.153 0.376)" fill="#fff"/>
  <path id="Path_9" data-name="Path 9" d="M1149.708,26.218a2.98,2.98,0,0,1-.961-.143,2.587,2.587,0,0,1-.832-.505,1.875,1.875,0,0,1-.664.477,2.515,2.515,0,0,1-.874.126h-.373a.476.476,0,0,1-.532-.6,1.081,1.081,0,0,1,.172-.5.376.376,0,0,1,.306-.171h.306a.747.747,0,0,0,.364-.079.679.679,0,0,0,.237-.216,1.423,1.423,0,0,0,.159-.324c.041-.117.084-.26.135-.449a4.354,4.354,0,0,1,.4-1.153,3.417,3.417,0,0,1,.671-.9,2.833,2.833,0,0,1,.9-.581,2.878,2.878,0,0,1,1.089-.2,3.078,3.078,0,0,1,1.144.194,1.994,1.994,0,0,1,.786.546,1.95,1.95,0,0,1,.408.832,2.961,2.961,0,0,1,.042,1.048,3.894,3.894,0,0,1-.079.42c-.034.134-.068.253-.1.366a.857.857,0,0,0,.392.363,1.284,1.284,0,0,0,.583.137.178.178,0,0,1,.194.16h0a1.551,1.551,0,0,1-.009.476c-.016.125-.034.243-.05.342a1.741,1.741,0,0,1-.043.2.867.867,0,0,1-.03.085.02.02,0,0,1-.018.018,3.217,3.217,0,0,1-.408-.03,2,2,0,0,1-.448-.113,1.935,1.935,0,0,1-.434-.234,1.225,1.225,0,0,1-.347-.388,2.757,2.757,0,0,1-.975.621,3.3,3.3,0,0,1-1.107.189m.386-3.92a1,1,0,0,0-.56.165,1.678,1.678,0,0,0-.441.445,2.9,2.9,0,0,0-.326.633,5.266,5.266,0,0,0-.226.786,2.1,2.1,0,0,0,.579.444,1.47,1.47,0,0,0,.642.138,1.124,1.124,0,0,0,.815-.332,1.444,1.444,0,0,0,.408-.866,1.559,1.559,0,0,0-.148-1.036.817.817,0,0,0-.744-.377Z" transform="translate(-1125.111 0.442)" fill="#fff"/>
  <path id="Path_10" data-name="Path 10" d="M1153.27,26.173a.542.542,0,0,1-.43-.154.558.558,0,0,1-.091-.449,1.089,1.089,0,0,1,.17-.5.379.379,0,0,1,.309-.171h1.056a2.582,2.582,0,0,1-.24-.653,1.986,1.986,0,0,1-.027-.668,2.867,2.867,0,0,1,.385-1.132,2.761,2.761,0,0,1,.751-.817,3.306,3.306,0,0,1,.989-.476,3.946,3.946,0,0,1,1.123-.16,6.48,6.48,0,0,1,.9.063,3.666,3.666,0,0,1,.76.177l-.426,1.207a4.673,4.673,0,0,0-.5-.1,4.478,4.478,0,0,0-.681-.052,2.262,2.262,0,0,0-.51.063,1.814,1.814,0,0,0-.51.2,1.345,1.345,0,0,0-.643,1.021,1.053,1.053,0,0,0,.3.974,1.557,1.557,0,0,0,1.095.347h1.576l-.168,1.276Z" transform="translate(-1124.959 0.442)" fill="#fff"/>
  <path id="Path_11" data-name="Path 11" d="M1166.918,26.276a3.257,3.257,0,0,1-.488-.04,2.41,2.41,0,0,1-.493-.125,2.089,2.089,0,0,1-.433-.229,1.065,1.065,0,0,1-.331-.36,1.8,1.8,0,0,1-.8.576,3.373,3.373,0,0,1-1.153.177h-3.71l.169-1.276h3.036a1.516,1.516,0,0,0,1.036-.3,1.745,1.745,0,0,0,.43-1.066l.75-5.724h1.576l-.786,6a.876.876,0,0,0,.248.8,1.282,1.282,0,0,0,.906.3.232.232,0,0,1,.235.149.97.97,0,0,1,.018.478,3.484,3.484,0,0,1-.092.524c-.025.08-.065.123-.12.123m-4.479-1.81h-1.577l.69-5.286h1.579l-.693,5.285Zm1.156-6.016h-2.372l.085-.643h.464a1.066,1.066,0,0,1-.088-.557,1.3,1.3,0,0,1,.451-.854,1.488,1.488,0,0,1,.988-.325,2.575,2.575,0,0,1,.32.023,1.754,1.754,0,0,1,.362.079l-.235.627a1.471,1.471,0,0,0-.51-.079.77.77,0,0,0-.494.143.575.575,0,0,0-.214.393.429.429,0,0,0,.126.408.771.771,0,0,0,.5.136h.707l-.088.647Z" transform="translate(-1124.816 0.339)" fill="#fff"/>
  <path id="Path_12" data-name="Path 12" d="M1166.736,24.963a2.507,2.507,0,0,0,.6-.062.9.9,0,0,0,.391-.192.8.8,0,0,0,.216-.325,2.082,2.082,0,0,0,.1-.468l.8-6.049h1.575l-.83,6.32a3.143,3.143,0,0,1-.245.907,1.732,1.732,0,0,1-.51.639,2.22,2.22,0,0,1-.832.38,5.191,5.191,0,0,1-1.23.127.478.478,0,0,1-.532-.6,1.081,1.081,0,0,1,.171-.5.379.379,0,0,1,.313-.171" transform="translate(-1124.674 0.376)" fill="#fff"/>
  <path id="Path_13" data-name="Path 13" d="M1177.8,29.853a.732.732,0,0,1-.574-.229.715.715,0,0,1-.154-.592.894.894,0,0,1,.306-.582.936.936,0,0,1,.632-.227.7.7,0,0,1,.555.227.712.712,0,0,1,.153.586.945.945,0,0,1-.306.592.893.893,0,0,1-.613.225m-2.051,0a.732.732,0,0,1-.574-.229.716.716,0,0,1-.154-.592.894.894,0,0,1,.306-.582.951.951,0,0,1,.633-.227.668.668,0,0,1,.706.809.92.92,0,0,1-.306.592.9.9,0,0,1-.611.229m1.653-2.536a8.945,8.945,0,0,1-1.746-.151,3.53,3.53,0,0,1-1.267-.5,1.938,1.938,0,0,1-.725-.877,2.542,2.542,0,0,1-.12-1.3,4.459,4.459,0,0,1,.275-.991,6.148,6.148,0,0,1,.639-1.2l1.347.511a8.671,8.671,0,0,0-.408.856,3.061,3.061,0,0,0-.221.763,1.142,1.142,0,0,0,.481,1.189,3.41,3.41,0,0,0,1.848.392,7.1,7.1,0,0,0,1.052-.068,4.484,4.484,0,0,0,.8-.188,1.718,1.718,0,0,0,.51-.262.471.471,0,0,0,.2-.29c.017-.137-.074-.286-.277-.454a5.939,5.939,0,0,0-.943-.592,3.073,3.073,0,0,1-1.021-.793,1.411,1.411,0,0,1-.242-1.076,2.159,2.159,0,0,1,.288-.817,2.431,2.431,0,0,1,.613-.679,2.954,2.954,0,0,1,.919-.46,4.05,4.05,0,0,1,1.225-.174c.092,0,.2.005.334.016s.26.032.377.052c.141.027.258.049.372.074a2.608,2.608,0,0,1,.314.088l-.419,1.161a3.746,3.746,0,0,0-.434-.1,3.216,3.216,0,0,0-.577-.051,3.005,3.005,0,0,0-.428.034,1.827,1.827,0,0,0-.445.125,1.076,1.076,0,0,0-.364.246.662.662,0,0,0-.178.381.506.506,0,0,0,.069.326,1.229,1.229,0,0,0,.261.3,2.588,2.588,0,0,0,.392.28c.17.1.312.182.447.257.191.107.38.224.562.346a2.6,2.6,0,0,1,.45.382,1.47,1.47,0,0,1,.282.45,1.133,1.133,0,0,1,.055.553,1.88,1.88,0,0,1-.387.919,2.71,2.71,0,0,1-.863.707,5.1,5.1,0,0,1-1.312.454,8.3,8.3,0,0,1-1.734.161" transform="translate(-1124.522 0.425)" fill="#fff"/>
  <path id="Path_14" data-name="Path 14" d="M1184.482,24.895a1.385,1.385,0,0,0,.866-.233,1.206,1.206,0,0,0,.374-.827l.039-.294a.927.927,0,0,0-.279-.884,1.64,1.64,0,0,0-1.083-.3h-1.1l.167-1.276h1.415a3.979,3.979,0,0,1,1.225.165,2.03,2.03,0,0,1,.81.462,1.569,1.569,0,0,1,.419.694,2.085,2.085,0,0,1,.054.866l-.1.751a2.7,2.7,0,0,1-.685,1.647,2.371,2.371,0,0,1-1.671.511h-2.863l.169-1.276Z" transform="translate(-1124.341 0.444)" fill="#fff"/>
  <path id="Path_15" data-name="Path 15" d="M1190.11,28.165a5.6,5.6,0,0,1-.74-.05,6.783,6.783,0,0,1-.715-.133l.386-1.207c.176.04.361.075.554.1a4.227,4.227,0,0,0,.632.045c.216,0,.426-.009.623-.027a1.671,1.671,0,0,0,.472-.11.71.71,0,0,0,.306-.227.8.8,0,0,0,.147-.386h-1.114a3.569,3.569,0,0,1-1.042-.143,2.011,2.011,0,0,1-.777-.434,1.611,1.611,0,0,1-.453-.75,2.614,2.614,0,0,1-.055-1.075,3.57,3.57,0,0,1,.306-1.037,3.068,3.068,0,0,1,.631-.894,2.952,2.952,0,0,1,.957-.622,3.323,3.323,0,0,1,1.252-.227,2.824,2.824,0,0,1,.965.16,2.118,2.118,0,0,1,.761.468,1.8,1.8,0,0,1,.464.773,2.528,2.528,0,0,1,.068,1.081l-.186,1.424h.834a.234.234,0,0,1,.229.154.993.993,0,0,1,.022.5,2.375,2.375,0,0,1-.1.505c-.034.081-.07.122-.108.122h-1.077a2.607,2.607,0,0,1-.429.927,2.3,2.3,0,0,1-.707.621,3.089,3.089,0,0,1-.95.343,6.257,6.257,0,0,1-1.155.1m1.187-5.877a1.355,1.355,0,0,0-.427.075,1.178,1.178,0,0,0-.4.234,1.44,1.44,0,0,0-.306.416,1.86,1.86,0,0,0-.178.613,1.182,1.182,0,0,0,.192.962,1.111,1.111,0,0,0,.869.312h.9l.168-1.311a2.079,2.079,0,0,0,.013-.491,1.113,1.113,0,0,0-.118-.415.7.7,0,0,0-.281-.291.9.9,0,0,0-.439-.1" transform="translate(-1124.211 0.442)" fill="#fff"/>
  <path id="Path_16" data-name="Path 16" d="M1200.651,26.173h-1.634a3.747,3.747,0,0,1-1.044-.127,2.066,2.066,0,0,1-.683-.318,5.558,5.558,0,0,1-.993.318,4.969,4.969,0,0,1-1.106.127h-.881a.525.525,0,0,1-.43-.16.57.57,0,0,1-.092-.445,1.068,1.068,0,0,1,.171-.5.371.371,0,0,1,.311-.171h1.225a3.724,3.724,0,0,0,.613-.045,2.574,2.574,0,0,0,.429-.1c-.155-.183-.3-.347-.432-.5a5.246,5.246,0,0,0-.379-.391c-.114-.106-.251-.227-.408-.348s-.329-.243-.519-.365c.014-.07.04-.164.073-.284l.011-.032c.031-.115.071-.268.118-.421s.087-.287.128-.4a2.225,2.225,0,0,1,.112-.274,4.569,4.569,0,0,1,.525-.261,7.01,7.01,0,0,1,.675-.239,6.856,6.856,0,0,1,.741-.176,4.31,4.31,0,0,1,.75-.068,4.814,4.814,0,0,1,1.041.107,2.5,2.5,0,0,1,.828.332,1.482,1.482,0,0,1,.511.546,1.249,1.249,0,0,1,.113.768,1.737,1.737,0,0,1-.192.587,2.9,2.9,0,0,1-.392.557,3.93,3.93,0,0,1-.547.511,5.131,5.131,0,0,1-.66.433,1.5,1.5,0,0,0,.381.058c.164.007.306.011.408.011h1.184a.235.235,0,0,1,.229.148.993.993,0,0,1,.021.5,3.448,3.448,0,0,1-.09.511c-.026.074-.065.112-.12.112m-2.889-3.885a2.74,2.74,0,0,0-.419.03c-.133.023-.273.049-.408.082a2.7,2.7,0,0,0-.344.1,1.566,1.566,0,0,0-.228.1,5.431,5.431,0,0,1,.754.786,8.139,8.139,0,0,1,.546.8,3.414,3.414,0,0,0,.379-.245,2.656,2.656,0,0,0,.353-.306,1.7,1.7,0,0,0,.266-.342.954.954,0,0,0,.133-.363.448.448,0,0,0-.031-.216.491.491,0,0,0-.162-.21.9.9,0,0,0-.329-.157,1.868,1.868,0,0,0-.51-.058" transform="translate(-1124.095 0.442)" fill="#fff"/>
  <path id="Path_17" data-name="Path 17" d="M1204.38,26.171a2.365,2.365,0,0,1-.988-.19,1.032,1.032,0,0,1-.552-.517,1.914,1.914,0,0,1-.876.53,4.884,4.884,0,0,1-1.443.177.477.477,0,0,1-.531-.6,1.083,1.083,0,0,1,.179-.505.376.376,0,0,1,.306-.171,1.666,1.666,0,0,0,.957-.216,1.156,1.156,0,0,0,.4-.828l.229-1.776h1.578l-.252,1.912a1.7,1.7,0,0,0-.011.347.665.665,0,0,0,.09.291.513.513,0,0,0,.235.2,1,1,0,0,0,.424.074.86.86,0,0,0,.613-.193,1.5,1.5,0,0,0,.291-.855l.232-1.781h1.576l-.251,1.912a1.721,1.721,0,0,0-.01.347.694.694,0,0,0,.084.291.473.473,0,0,0,.235.2,1.037,1.037,0,0,0,.431.074.849.849,0,0,0,.613-.2,1.557,1.557,0,0,0,.286-.848l.367-2.767h1.576L1209.8,23.8a.881.881,0,0,0,.245.791,1.248,1.248,0,0,0,.911.306.232.232,0,0,1,.235.148,1.012,1.012,0,0,1,.019.479,4.291,4.291,0,0,1-.092.524c-.028.084-.068.126-.121.126a3.635,3.635,0,0,1-.472-.034,2.562,2.562,0,0,1-.494-.119,1.863,1.863,0,0,1-.446-.234,1.12,1.12,0,0,1-.325-.347,1.839,1.839,0,0,1-.721.547,2.455,2.455,0,0,1-.964.182,2.269,2.269,0,0,1-.981-.19,1.088,1.088,0,0,1-.547-.517,2.076,2.076,0,0,1-1.669.707" transform="translate(-1123.965 0.444)" fill="#fff"/>
  <path id="Path_18" data-name="Path 18" d="M1210.74,24.963a2.507,2.507,0,0,0,.6-.062.9.9,0,0,0,.391-.192.794.794,0,0,0,.217-.325,2.1,2.1,0,0,0,.1-.468l.8-6.049h1.575l-.83,6.32a3.147,3.147,0,0,1-.245.907,1.731,1.731,0,0,1-.51.639,2.221,2.221,0,0,1-.832.38,5.193,5.193,0,0,1-1.23.127.478.478,0,0,1-.532-.6,1.066,1.066,0,0,1,.171-.5.375.375,0,0,1,.313-.171" transform="translate(-1123.75 0.376)" fill="#fff"/>
  <path id="Path_19" data-name="Path 19" d="M1217.462,17.867l-1.1,8.372h-1.588l1.1-8.372Z" transform="translate(-1123.654 0.376)" fill="#fff"/>
  <path id="Path_20" data-name="Path 20" d="M1220.708,28.219a4.092,4.092,0,0,1-.632-.044,3.233,3.233,0,0,1-.462-.1l.356-1.22c.083.015.162.027.24.038h.021a1.893,1.893,0,0,0,.252.018.851.851,0,0,0,.662-.25,1.5,1.5,0,0,0,.3-.8l.618-4.719h1.589l-.5,3.815h.973a.238.238,0,0,1,.23.154,1,1,0,0,1,.021.5,2.871,2.871,0,0,1-.095.5c-.031.084-.069.126-.115.126h-1.183a3,3,0,0,1-.328,1,1.914,1.914,0,0,1-.538.613,1.884,1.884,0,0,1-.677.306,3.466,3.466,0,0,1-.733.072m2.337-8.184a.689.689,0,0,1-.726-.823.891.891,0,0,1,.312-.582.938.938,0,0,1,.628-.229.694.694,0,0,1,.555.229.717.717,0,0,1,.15.582.93.93,0,0,1-.306.591.892.892,0,0,1-.613.232" transform="translate(-1123.552 0.387)" fill="#fff"/>
  <path id="Path_21" data-name="Path 21" d="M1224.085,26.239a.478.478,0,0,1-.533-.6,1.152,1.152,0,0,1,.163-.491.37.37,0,0,1,.318-.182h3.416a1.3,1.3,0,0,0,.883-.254,1.253,1.253,0,0,0,.357-.808l.039-.3q.155-1.184-1.27-1.184h-2.515l.166-1.276,3.583-3.277.949.978-2.552,2.3h.928a3.572,3.572,0,0,1,1.16.165,1.881,1.881,0,0,1,.758.456,1.5,1.5,0,0,1,.378.693,2.387,2.387,0,0,1,.036.872l-.1.751a2.673,2.673,0,0,1-.692,1.652,2.38,2.38,0,0,1-1.664.5Z" transform="translate(-1123.47 0.376)" fill="#fff"/>
  <path id="Path_22" data-name="Path 22" d="M1231.034,28.162a4.226,4.226,0,0,1-.632-.044,3.407,3.407,0,0,1-.46-.1l.357-1.218c.09.017.179.029.261.041a1.75,1.75,0,0,0,.253.018.839.839,0,0,0,.66-.254,1.485,1.485,0,0,0,.3-.808l.622-4.715h1.589l-.5,3.815h.974a.231.231,0,0,1,.228.154,1,1,0,0,1,.021.5,2.88,2.88,0,0,1-.094.5c-.03.084-.069.126-.115.126h-1.184a3,3,0,0,1-.328,1,1.917,1.917,0,0,1-.536.613,1.888,1.888,0,0,1-.678.306,3.42,3.42,0,0,1-.735.078" transform="translate(-1123.336 0.444)" fill="#fff"/>
  <path id="Path_23" data-name="Path 23" d="M1238.115,26.218a2.979,2.979,0,0,1-.961-.143,2.551,2.551,0,0,1-.832-.505,1.869,1.869,0,0,1-.665.477,2.515,2.515,0,0,1-.874.126h-.371a.537.537,0,0,1-.43-.153.543.543,0,0,1-.1-.448,1.093,1.093,0,0,1,.17-.5.379.379,0,0,1,.313-.171h.308a.763.763,0,0,0,.365-.079.675.675,0,0,0,.236-.216,1.355,1.355,0,0,0,.159-.324c.044-.13.09-.281.134-.449a4.437,4.437,0,0,1,.4-1.153,3.428,3.428,0,0,1,.664-.9,2.788,2.788,0,0,1,.9-.581,2.878,2.878,0,0,1,1.088-.2,3.082,3.082,0,0,1,1.145.194,1.994,1.994,0,0,1,.786.546,1.935,1.935,0,0,1,.408.832,2.965,2.965,0,0,1,.037,1.049,3.874,3.874,0,0,1-.078.42c-.031.124-.064.243-.1.366a.852.852,0,0,0,.393.363,1.285,1.285,0,0,0,.584.137.178.178,0,0,1,.193.161,1.615,1.615,0,0,1-.009.476c-.022.164-.038.266-.05.342s-.031.149-.043.2a.64.64,0,0,1-.029.085c0,.01-.012.018-.019.018a3.217,3.217,0,0,1-.408-.03,1.981,1.981,0,0,1-.447-.113,1.936,1.936,0,0,1-.434-.234,1.253,1.253,0,0,1-.348-.388,2.755,2.755,0,0,1-.975.621,3.28,3.28,0,0,1-1.1.188m.387-3.92a1,1,0,0,0-.56.165,1.647,1.647,0,0,0-.441.445,2.948,2.948,0,0,0-.326.633,5.413,5.413,0,0,0-.225.786,2.1,2.1,0,0,0,.579.444,1.47,1.47,0,0,0,.642.138,1.128,1.128,0,0,0,.815-.332,1.459,1.459,0,0,0,.408-.866,1.572,1.572,0,0,0-.149-1.036.817.817,0,0,0-.743-.377Z" transform="translate(-1123.253 0.442)" fill="#fff"/>
  <path id="Path_24" data-name="Path 24" d="M1241.636,24.963a2.559,2.559,0,0,0,.6-.062.892.892,0,0,0,.39-.192.806.806,0,0,0,.218-.325,2.224,2.224,0,0,0,.1-.468l.8-6.049h1.575l-.829,6.32a3.072,3.072,0,0,1-.246.907,1.713,1.713,0,0,1-.51.639,2.221,2.221,0,0,1-.832.38,5.184,5.184,0,0,1-1.229.127.478.478,0,0,1-.532-.6,1.064,1.064,0,0,1,.17-.5.375.375,0,0,1,.313-.171" transform="translate(-1123.1 0.376)" fill="#fff"/>
  <path id="Path_25" data-name="Path 25" d="M1248.358,17.867l-1.1,8.372h-1.588l1.1-8.372Z" transform="translate(-1123.005 0.376)" fill="#fff"/>
  <path id="Path_26" data-name="Path 26" d="M1131.174,32.965a4.108,4.108,0,0,0-.862-.228,5.542,5.542,0,0,0-.872-.072,3.12,3.12,0,0,0-.5.04,1.5,1.5,0,0,0-.442.143,1.006,1.006,0,0,0-.331.269.817.817,0,0,0-.165.416.7.7,0,0,0,.044.383.876.876,0,0,0,.243.312,2.263,2.263,0,0,0,.448.291c.186.095.408.2.662.306a8.4,8.4,0,0,1,.873.428,2.871,2.871,0,0,1,.662.511,1.636,1.636,0,0,1,.387.671,2.23,2.23,0,0,1,.042.919,2.414,2.414,0,0,1-.388,1.06,2.613,2.613,0,0,1-.777.752,3.486,3.486,0,0,1-1.036.437,4.772,4.772,0,0,1-1.172.143,8,8,0,0,1-1.21-.1,6.542,6.542,0,0,1-1.252-.318l.48-1.357a5.631,5.631,0,0,0,2.1.432,2.105,2.105,0,0,0,1.085-.228.954.954,0,0,0,.464-.715.817.817,0,0,0-.044-.408.873.873,0,0,0-.251-.331,2.555,2.555,0,0,0-.471-.306,6.473,6.473,0,0,0-.684-.306,6.109,6.109,0,0,1-.851-.422,2.887,2.887,0,0,1-.638-.518,1.738,1.738,0,0,1-.373-.647,1.919,1.919,0,0,1-.053-.83,2.4,2.4,0,0,1,.4-1.078,2.632,2.632,0,0,1,.773-.733,3.451,3.451,0,0,1,.995-.417,4.479,4.479,0,0,1,1.055-.13,8.645,8.645,0,0,1,1.149.074,5.251,5.251,0,0,1,.978.221Z" transform="translate(-1125.53 0.659)" fill="#fff"/>
  <path id="Path_27" data-name="Path 27" d="M1134.077,39.7a3.2,3.2,0,0,1-.788-.1,1.822,1.822,0,0,1-.676-.326,1.3,1.3,0,0,1-.428-.574,1.864,1.864,0,0,1-.077-.871,1.982,1.982,0,0,1,.44-1.061,2.287,2.287,0,0,1,.919-.626,5.229,5.229,0,0,1,1.291-.3,11.946,11.946,0,0,1,1.282-.069h.2l.018-.148a.784.784,0,0,0-.24-.739,1.493,1.493,0,0,0-.984-.262,4.494,4.494,0,0,0-.74.068,5.908,5.908,0,0,0-.876.227l-.156-1.159a6.942,6.942,0,0,1,2.04-.353,3.034,3.034,0,0,1,2.129.6,1.846,1.846,0,0,1,.454,1.7l-.326,2.484c-.029.226-.054.466-.077.715a3.917,3.917,0,0,0-.009.655h-1.46a2.367,2.367,0,0,1-.032-.371v-.371h-.022a2,2,0,0,1-.778.638,2.533,2.533,0,0,1-1.109.235m1.807-2.916a7.615,7.615,0,0,0-.793.041,2.942,2.942,0,0,0-.675.148,1.2,1.2,0,0,0-.48.306.869.869,0,0,0-.221.489.687.687,0,0,0,.164.6.858.858,0,0,0,.633.218,1.624,1.624,0,0,0,.623-.114,1.349,1.349,0,0,0,.471-.32,1.584,1.584,0,0,0,.306-.444,1.9,1.9,0,0,0,.143-.5l.049-.427Z" transform="translate(-1125.392 0.702)" fill="#fff"/>
  <path id="Path_28" data-name="Path 28" d="M1142.931,39.559l.1-.809h-.019a1.876,1.876,0,0,1-.833.7,2.718,2.718,0,0,1-1.134.244,2.5,2.5,0,0,1-.919-.159,1.667,1.667,0,0,1-.656-.443,1.7,1.7,0,0,1-.361-.683,2.266,2.266,0,0,1-.044-.9l.517-3.964h1.646l-.441,3.359a3.644,3.644,0,0,0-.034.65,1.216,1.216,0,0,0,.121.494.706.706,0,0,0,.306.319,1.172,1.172,0,0,0,.543.108,1.369,1.369,0,0,0,.487-.092,1.426,1.426,0,0,0,.453-.279,1.656,1.656,0,0,0,.369-.511,2.519,2.519,0,0,0,.22-.792l.433-3.257h1.645l-.789,6.013Z" transform="translate(-1125.247 0.706)" fill="#fff"/>
  <path id="Path_29" data-name="Path 29" d="M1148.3,39.742a2.248,2.248,0,0,1-1.079-.243,1.9,1.9,0,0,1-.726-.673,2.643,2.643,0,0,1-.362-1,4.248,4.248,0,0,1-.007-1.225,4.678,4.678,0,0,1,.339-1.241,3.6,3.6,0,0,1,.635-1,2.883,2.883,0,0,1,.91-.666,2.729,2.729,0,0,1,1.151-.244,2.514,2.514,0,0,1,.983.187,1.588,1.588,0,0,1,.729.621h.023l.4-3.029h1.646l-1.1,8.372h-1.611l.1-.764h-.026a2.5,2.5,0,0,1-.954.69,2.843,2.843,0,0,1-1.054.207m1.123-5.067a1.41,1.41,0,0,0-.64.148,1.447,1.447,0,0,0-.493.408,2.227,2.227,0,0,0-.331.613,3.578,3.578,0,0,0-.179.759,3.38,3.38,0,0,0-.027.76,1.671,1.671,0,0,0,.176.613,1.047,1.047,0,0,0,.381.408,1.135,1.135,0,0,0,.6.149,1.5,1.5,0,0,0,.663-.149,1.657,1.657,0,0,0,.527-.408,2.229,2.229,0,0,0,.378-.613,2.943,2.943,0,0,0,.2-.78,2.5,2.5,0,0,0,0-.763,1.587,1.587,0,0,0-.221-.613,1.153,1.153,0,0,0-.428-.4,1.271,1.271,0,0,0-.615-.133Z" transform="translate(-1125.098 0.657)" fill="#fff"/>
  <path id="Path_30" data-name="Path 30" d="M1154.961,39.607h-1.646l.789-6.014h1.644l-.787,6.013Zm.907-6.937h-1.643l.184-1.4h1.647l-.188,1.4Z" transform="translate(-1124.946 0.659)" fill="#fff"/>
  <path id="Path_31" data-name="Path 31" d="M1163.082,39.6h-3.525l1.067-8.132h3.454a4.061,4.061,0,0,1,.992.113,1.973,1.973,0,0,1,.759.365,1.455,1.455,0,0,1,.448.639,2,2,0,0,1,.069.933,2.115,2.115,0,0,1-.546,1.217,2.522,2.522,0,0,1-1.028.632v.023a2.376,2.376,0,0,1,.572.238,1.617,1.617,0,0,1,.432.376,1.376,1.376,0,0,1,.261.558,2.156,2.156,0,0,1,.021.776,2.684,2.684,0,0,1-.269.865,2.348,2.348,0,0,1-.587.718,2.823,2.823,0,0,1-.9.5,3.761,3.761,0,0,1-1.222.184m-1.374-3.485-.282,2.151h1.366a3.391,3.391,0,0,0,.592-.046,1.451,1.451,0,0,0,.479-.164.956.956,0,0,0,.345-.33,1.331,1.331,0,0,0,.172-.529.951.951,0,0,0-.058-.53.748.748,0,0,0-.3-.331,1.441,1.441,0,0,0-.5-.173,3.867,3.867,0,0,0-.661-.05Zm.436-3.32-.26,1.981h1.192a2.055,2.055,0,0,0,1.077-.234,1.058,1.058,0,0,0,.467-.786.878.878,0,0,0-.046-.483.629.629,0,0,0-.257-.29,1.19,1.19,0,0,0-.408-.143,3,3,0,0,0-.478-.045Z" transform="translate(-1124.815 0.663)" fill="#fff"/>
  <path id="Path_32" data-name="Path 32" d="M1171.034,39.559l.1-.809h-.019a1.876,1.876,0,0,1-.833.7,2.718,2.718,0,0,1-1.134.244,2.5,2.5,0,0,1-.919-.159,1.654,1.654,0,0,1-.655-.443,1.674,1.674,0,0,1-.363-.683,2.264,2.264,0,0,1-.044-.9l.517-3.964h1.646l-.44,3.359a3.545,3.545,0,0,0-.035.65,1.218,1.218,0,0,0,.12.494.706.706,0,0,0,.306.319,1.172,1.172,0,0,0,.543.108,1.37,1.37,0,0,0,.487-.092,1.425,1.425,0,0,0,.453-.279,1.677,1.677,0,0,0,.37-.511,2.544,2.544,0,0,0,.219-.792l.433-3.257h1.645l-.789,6.013Z" transform="translate(-1124.656 0.706)" fill="#fff"/>
  <path id="Path_33" data-name="Path 33" d="M1178.487,34.944a4.146,4.146,0,0,0-.855-.251,4.665,4.665,0,0,0-.773-.067,1.427,1.427,0,0,0-.594.107.487.487,0,0,0-.282.381.426.426,0,0,0,.182.423,3.391,3.391,0,0,0,.85.365,5.572,5.572,0,0,1,.817.325,2.2,2.2,0,0,1,.589.408,1.291,1.291,0,0,1,.331.53,1.6,1.6,0,0,1,.043.694,1.763,1.763,0,0,1-.34.866,2.077,2.077,0,0,1-.66.565,3.021,3.021,0,0,1-.858.306,4.486,4.486,0,0,1-.919.1,6.361,6.361,0,0,1-1.172-.112,5.37,5.37,0,0,1-1.065-.3l.486-1.225a4.777,4.777,0,0,0,1.006.325,4.557,4.557,0,0,0,.9.108,1.918,1.918,0,0,0,.746-.118.5.5,0,0,0,.306-.418.436.436,0,0,0-.226-.438,4,4,0,0,0-.951-.394,3.119,3.119,0,0,1-1.332-.755,1.286,1.286,0,0,1-.306-1.081,1.971,1.971,0,0,1,.934-1.428,2.852,2.852,0,0,1,.818-.337,3.677,3.677,0,0,1,.883-.1,6.189,6.189,0,0,1,1.009.085,4.509,4.509,0,0,1,.951.255Z" transform="translate(-1124.516 0.704)" fill="#fff"/>
  <path id="Path_34" data-name="Path 34" d="M1181.35,39.607H1179.7l.788-6.014h1.645l-.788,6.013Zm.908-6.937h-1.643l.183-1.4h1.646l-.186,1.4Z" transform="translate(-1124.391 0.659)" fill="#fff"/>
  <path id="Path_35" data-name="Path 35" d="M1185.3,33.548l-.1.809h.019a1.867,1.867,0,0,1,.839-.7,2.774,2.774,0,0,1,1.138-.244,2.538,2.538,0,0,1,.919.153,1.665,1.665,0,0,1,.656.443,1.636,1.636,0,0,1,.36.694,2.333,2.333,0,0,1,.039.894l-.521,3.963h-1.646l.441-3.359a3.929,3.929,0,0,0,.036-.666,1.157,1.157,0,0,0-.115-.5.705.705,0,0,0-.306-.306,1.163,1.163,0,0,0-.541-.108,1.381,1.381,0,0,0-.481.086,1.412,1.412,0,0,0-.46.284,1.7,1.7,0,0,0-.381.525,2.445,2.445,0,0,0-.219.781l-.43,3.26H1182.9l.789-6.013Z" transform="translate(-1124.324 0.704)" fill="#fff"/>
  <path id="Path_36" data-name="Path 36" d="M1193.223,39.7a4.16,4.16,0,0,1-1.436-.227,2.516,2.516,0,0,1-1-.647,2.349,2.349,0,0,1-.54-.987,3.218,3.218,0,0,1-.068-1.271,3.976,3.976,0,0,1,.381-1.264,3.5,3.5,0,0,1,.74-1,3.256,3.256,0,0,1,1.054-.655,3.686,3.686,0,0,1,1.311-.232,2.945,2.945,0,0,1,1.16.209,1.961,1.961,0,0,1,.785.6,2.246,2.246,0,0,1,.408.933,3.824,3.824,0,0,1,.017,1.225l-.086.649h-4.2a1.472,1.472,0,0,0,.13.683,1.148,1.148,0,0,0,.376.438,1.751,1.751,0,0,0,.587.255,2.981,2.981,0,0,0,.736.087,5.825,5.825,0,0,0,.742-.051,4.329,4.329,0,0,0,.746-.164l.031,1.184a6.918,6.918,0,0,1-.875.177,7.463,7.463,0,0,1-1,.061m.275-5.193a1.475,1.475,0,0,0-1.013.389,1.918,1.918,0,0,0-.584,1.012h2.655a1.3,1.3,0,0,0-.2-1.012,1.013,1.013,0,0,0-.861-.389" transform="translate(-1124.172 0.704)" fill="#fff"/>
  <path id="Path_37" data-name="Path 37" d="M1201.142,34.944a4.146,4.146,0,0,0-.855-.251,4.666,4.666,0,0,0-.773-.067,1.427,1.427,0,0,0-.594.107.487.487,0,0,0-.282.381.426.426,0,0,0,.182.423,3.391,3.391,0,0,0,.85.365,5.572,5.572,0,0,1,.817.325,2.2,2.2,0,0,1,.589.408,1.291,1.291,0,0,1,.331.53,1.6,1.6,0,0,1,.043.694,1.765,1.765,0,0,1-.34.866,2.078,2.078,0,0,1-.66.565,3.021,3.021,0,0,1-.858.306,4.484,4.484,0,0,1-.919.1,6.367,6.367,0,0,1-1.172-.112,5.369,5.369,0,0,1-1.065-.3l.486-1.225a4.778,4.778,0,0,0,1.006.325,4.557,4.557,0,0,0,.9.108,1.918,1.918,0,0,0,.746-.118.5.5,0,0,0,.306-.418.436.436,0,0,0-.226-.438,3.994,3.994,0,0,0-.95-.394,3.12,3.12,0,0,1-1.332-.755,1.289,1.289,0,0,1-.306-1.081,1.97,1.97,0,0,1,.934-1.428,2.854,2.854,0,0,1,.818-.337,3.676,3.676,0,0,1,.883-.1,6.18,6.18,0,0,1,1.009.085,4.493,4.493,0,0,1,.951.255Z" transform="translate(-1124.04 0.704)" fill="#fff"/>
  <path id="Path_38" data-name="Path 38" d="M1206.59,34.944a4.15,4.15,0,0,0-.855-.251,4.666,4.666,0,0,0-.773-.067,1.427,1.427,0,0,0-.594.107.487.487,0,0,0-.282.381.428.428,0,0,0,.182.423,3.391,3.391,0,0,0,.85.365,5.572,5.572,0,0,1,.817.325,2.2,2.2,0,0,1,.589.408,1.292,1.292,0,0,1,.331.53,1.582,1.582,0,0,1,.043.694,1.765,1.765,0,0,1-.34.866,2.078,2.078,0,0,1-.66.565,3.021,3.021,0,0,1-.858.306,4.484,4.484,0,0,1-.919.1,6.359,6.359,0,0,1-1.172-.112,5.348,5.348,0,0,1-1.065-.3l.486-1.225a4.78,4.78,0,0,0,1.006.325,4.557,4.557,0,0,0,.9.108,1.918,1.918,0,0,0,.746-.118.5.5,0,0,0,.306-.418.439.439,0,0,0-.227-.438,3.993,3.993,0,0,0-.951-.394,3.131,3.131,0,0,1-1.33-.755,1.285,1.285,0,0,1-.306-1.081,2.009,2.009,0,0,1,.322-.846,2.032,2.032,0,0,1,.613-.582,2.854,2.854,0,0,1,.818-.337,3.676,3.676,0,0,1,.883-.1,6.189,6.189,0,0,1,1.009.085,4.512,4.512,0,0,1,.951.255Z" transform="translate(-1123.925 0.704)" fill="#fff"/>
  <path id="Path_39" data-name="Path 39" d="M1217.246,32.954a4.457,4.457,0,0,0-.693-.2,3.6,3.6,0,0,0-.753-.08,2.942,2.942,0,0,0-1.195.233,2.765,2.765,0,0,0-.911.628,3.18,3.18,0,0,0-.613.919,3.979,3.979,0,0,0-.317,1.123,3.262,3.262,0,0,0,.028,1.072,2.317,2.317,0,0,0,.379.907,1.989,1.989,0,0,0,.746.626,2.481,2.481,0,0,0,1.117.233,4.391,4.391,0,0,0,.857-.078,4.128,4.128,0,0,0,.751-.232l.121,1.286a4.81,4.81,0,0,1-1,.269,6.874,6.874,0,0,1-1.094.085,4.215,4.215,0,0,1-1.663-.306,3.172,3.172,0,0,1-1.2-.866,3.248,3.248,0,0,1-.661-1.321,4.523,4.523,0,0,1-.067-1.686,5.35,5.35,0,0,1,.505-1.7,4.607,4.607,0,0,1,1-1.339,4.417,4.417,0,0,1,1.442-.876,5.066,5.066,0,0,1,1.805-.313,6.4,6.4,0,0,1,1.036.081,3.872,3.872,0,0,1,.867.24Z" transform="translate(-1123.733 0.659)" fill="#fff"/>
  <path id="Path_40" data-name="Path 40" d="M1220.735,39.7a4.127,4.127,0,0,1-1.429-.227,2.539,2.539,0,0,1-1.006-.647,2.325,2.325,0,0,1-.539-.987,3.215,3.215,0,0,1-.068-1.271,3.945,3.945,0,0,1,.381-1.264,3.5,3.5,0,0,1,.74-1,3.253,3.253,0,0,1,1.054-.655,3.662,3.662,0,0,1,1.311-.232,2.946,2.946,0,0,1,1.16.209,1.971,1.971,0,0,1,.785.6,2.248,2.248,0,0,1,.408.933,3.824,3.824,0,0,1,.017,1.225l-.086.649h-4.2a1.471,1.471,0,0,0,.13.683,1.137,1.137,0,0,0,.376.438,1.751,1.751,0,0,0,.587.255,2.968,2.968,0,0,0,.735.087,5.842,5.842,0,0,0,.743-.051,4.324,4.324,0,0,0,.746-.164l.03,1.184a6.915,6.915,0,0,1-.875.177,7.461,7.461,0,0,1-1,.061m.276-5.193a1.475,1.475,0,0,0-1.013.389,1.919,1.919,0,0,0-.584,1.012h2.655a1.3,1.3,0,0,0-.2-1.012,1.013,1.013,0,0,0-.861-.389" transform="translate(-1123.593 0.704)" fill="#fff"/>
  <path id="Path_41" data-name="Path 41" d="M1226.687,33.548l-.1.809h.024a1.877,1.877,0,0,1,.834-.7,2.772,2.772,0,0,1,1.138-.244,2.515,2.515,0,0,1,.919.153,1.669,1.669,0,0,1,.657.443,1.644,1.644,0,0,1,.359.694,2.335,2.335,0,0,1,.039.894l-.52,3.964h-1.646l.441-3.36a3.737,3.737,0,0,0,.036-.666,1.154,1.154,0,0,0-.114-.5.705.705,0,0,0-.306-.306,1.168,1.168,0,0,0-.542-.108,1.377,1.377,0,0,0-.941.37,1.7,1.7,0,0,0-.381.525,2.5,2.5,0,0,0-.218.781l-.431,3.26h-1.645l.789-6.013Z" transform="translate(-1123.455 0.704)" fill="#fff"/>
  <path id="Path_42" data-name="Path 42" d="M1231.556,33.578h.938l.209-1.595h1.646l-.209,1.595h1.274l-.16,1.219h-1.274l-.352,2.687a3.436,3.436,0,0,0-.037.5.511.511,0,0,0,.066.284.321.321,0,0,0,.189.126,1.431,1.431,0,0,0,.349.034,2.52,2.52,0,0,0,.278-.013c.082-.007.175-.018.277-.034l-.158,1.21c-.156.016-.328.03-.516.041s-.373.016-.558.016a3.005,3.005,0,0,1-.919-.112,1.038,1.038,0,0,1-.505-.332.981.981,0,0,1-.2-.541,3.626,3.626,0,0,1,.031-.759l.408-3.109h-.939Z" transform="translate(-1123.305 0.673)" fill="#fff"/>
  <path id="Path_43" data-name="Path 43" d="M1238.658,39.7a4.166,4.166,0,0,1-1.437-.227,2.512,2.512,0,0,1-1-.647,2.337,2.337,0,0,1-.54-.987,3.252,3.252,0,0,1-.069-1.271A3.944,3.944,0,0,1,1236,35.3a3.5,3.5,0,0,1,.74-1,3.22,3.22,0,0,1,1.054-.655,3.685,3.685,0,0,1,1.311-.232,2.946,2.946,0,0,1,1.16.209,1.962,1.962,0,0,1,.785.6,2.248,2.248,0,0,1,.408.933,3.856,3.856,0,0,1,.017,1.225l-.086.649h-4.2a1.471,1.471,0,0,0,.13.683,1.14,1.14,0,0,0,.377.438,1.749,1.749,0,0,0,.587.255,2.973,2.973,0,0,0,.735.087,5.825,5.825,0,0,0,.742-.051,4.324,4.324,0,0,0,.746-.164l.032,1.184a7.1,7.1,0,0,1-.875.177,7.492,7.492,0,0,1-1,.061m.275-5.193a1.475,1.475,0,0,0-1.013.389,1.921,1.921,0,0,0-.585,1.012h2.655a1.3,1.3,0,0,0-.2-1.012,1.012,1.012,0,0,0-.86-.389" transform="translate(-1123.217 0.704)" fill="#fff"/>
  <path id="Path_44" data-name="Path 44" d="M1246.455,34.676a2.1,2.1,0,0,0-.227-.039,2.374,2.374,0,0,0-.241-.008,1.659,1.659,0,0,0-.581.1,1.4,1.4,0,0,0-.521.343,1.952,1.952,0,0,0-.408.631,3.676,3.676,0,0,0-.242.951l-.38,2.9h-1.646l.789-6.013h1.61l-.1.783h.021a1.875,1.875,0,0,1,1.721-.919c.078,0,.154,0,.23.006s.151.008.223.015Z" transform="translate(-1123.078 0.704)" fill="#fff"/>
  <path id="Path_45" data-name="Path 45" d="M1287.649,24.232a.967.967,0,0,1-1.08.429c-.8-.227-1.582-.484-2.384-.688-.785-.227-1.581-.436-2.366-.639-1.589-.4-3.165-.757-4.775-1.038l-.016-.008a1.363,1.363,0,0,1-1.129-1.562l0-.019a1.38,1.38,0,0,1,.151-.415,34.438,34.438,0,0,1,2.518-3.849,36.85,36.85,0,0,1,2.867-3.5.956.956,0,0,1,1.335-.064.929.929,0,0,1,.2,1.116l-.008.008c-.691,1.312-1.462,2.583-2.216,3.841l-1.135,1.882c-.048.085-.1.163-.152.249a31.25,31.25,0,0,1,3.122.9c.817.274,1.62.593,2.406.936.787.359,1.573.715,2.32,1.14a.929.929,0,0,1,.345,1.268l0,.005" transform="translate(-1122.37 0.266)" fill="#fff"/>
  <path id="Path_46" data-name="Path 46" d="M1269.441,22.148a1.362,1.362,0,0,1-.421.14L1269,22.3c-1.6.282-3.194.64-4.774,1.038-.794.2-1.581.408-2.375.639-.794.2-1.572.46-2.375.688h-.007a.951.951,0,0,1-1.168-.64.932.932,0,0,1,.437-1.061c.746-.422,1.531-.782,2.312-1.14s1.6-.663,2.415-.936a30.717,30.717,0,0,1,3.121-.9c-.05-.091-.1-.165-.152-.251l-1.135-1.882c-.762-1.257-1.525-2.529-2.223-3.841V14a.919.919,0,0,1,.375-1.245l.022-.011a.963.963,0,0,1,1.135.2,39.121,39.121,0,0,1,2.867,3.5A35.405,35.405,0,0,1,1270,20.288a1.36,1.36,0,0,1-.536,1.848l-.021.011" transform="translate(-1122.74 0.266)" fill="#fff"/>
  <path id="Path_47" data-name="Path 47" d="M1279.079,39.208a.961.961,0,0,1-1.135-.375v-.008c-.532-.842-1.021-1.7-1.55-2.553l-1.5-2.567-1.5-2.553c-.11-.2-.232-.383-.341-.578-.12.2-.238.391-.35.586l-1.486,2.559-1.51,2.569c-.524.842-1.032,1.7-1.572,2.537l-.008.008a.947.947,0,0,1-1.3.272.92.92,0,0,1-.374-1.1c.349-.942.758-1.85,1.152-2.78q.613-1.369,1.271-2.716c.438-.9.906-1.795,1.4-2.685a29.5,29.5,0,0,1,1.6-2.655l.015-.021a1.4,1.4,0,0,1,1.923-.368,1.534,1.534,0,0,1,.389.39c.6.908,1.1,1.772,1.582,2.67s.945,1.78,1.382,2.685.874,1.8,1.277,2.716.817,1.826,1.184,2.764a.925.925,0,0,1-.534,1.2l-.015.006" transform="translate(-1122.569 0.559)" fill="#fff"/>
  <path id="Path_48" data-name="Path 48" d="M1271.974,9.135a11,11,0,0,1-.378-2.1,19.543,19.543,0,0,1-.067-2.1,19.23,19.23,0,0,1,.479-4.206.97.97,0,0,1,1.878.008,19.185,19.185,0,0,1,.445,4.209,19.061,19.061,0,0,1-.085,2.105,11.06,11.06,0,0,1-.4,2.1.984.984,0,0,1-1.877-.012" transform="translate(-1122.462 0.001)" fill="#fff"/>
  <path id="Path_49" data-name="Path 49" d="M1291.037,30.239a1.1,1.1,0,0,1-1.279.446h-.006c-1.021-.352-2.025-.726-3.051-1.038-1.015-.336-2.042-.64-3.063-.93q-1.477-.4-2.961-.741c.66,1.186,1.352,2.374,2.042,3.583.62,1.085,1.239,2.193,1.826,3.318.566,1.139,1.153,2.271,1.634,3.449a1.037,1.037,0,0,1-.547,1.361l-.033.013a1.09,1.09,0,0,1-1.31-.4l-4.138-6.228a65.318,65.318,0,0,1-3.9-6.579l-.006-.006a1.556,1.556,0,0,1,.686-2.092l.035-.017a1.62,1.62,0,0,1,.986-.14,38.857,38.857,0,0,1,6.592,1.712c1.073.375,2.122.8,3.146,1.273,1.021.492,2.026.983,2.995,1.561a1.051,1.051,0,0,1,.365,1.442l-.007.012" transform="translate(-1122.366 0.51)" fill="#fff"/>
  <path id="Path_50" data-name="Path 50" d="M1269.845,26.495l-.008.008a65.066,65.066,0,0,1-3.892,6.588l-4.115,6.244a1.1,1.1,0,0,1-1.485.306,1.048,1.048,0,0,1-.408-1.289c.485-1.179,1.064-2.318,1.634-3.457.575-1.118,1.187-2.225,1.818-3.311.681-1.209,1.373-2.4,2.032-3.583q-1.489.338-2.961.75c-1.021.289-2.049.594-3.063.928-1.033.313-2.034.7-3.051,1.047h-.011a1.082,1.082,0,0,1-1.374-.64,1.045,1.045,0,0,1,.453-1.257c.961-.586,1.97-1.078,2.987-1.569,1.021-.469,2.072-.907,3.136-1.28a39.654,39.654,0,0,1,6.594-1.736,1.6,1.6,0,0,1,1.85,1.279,1.538,1.538,0,0,1-.135.968" transform="translate(-1122.811 0.51)" fill="#fff"/>
  <path id="Path_51" data-name="Path 51" d="M1287.192,32.056a11.066,11.066,0,0,1,1.905,1.209,17.785,17.785,0,0,1,1.668,1.48,16.363,16.363,0,0,1,2.779,3.518.938.938,0,0,1-.367,1.275l-.014.008a.972.972,0,0,1-1.014-.055l-.012-.008a29.085,29.085,0,0,1-3.34-2.781c-.529-.49-1.031-1.008-1.518-1.544a13.255,13.255,0,0,1-1.347-1.736.949.949,0,0,1,.288-1.31l.03-.018a1,1,0,0,1,.941-.039" transform="translate(-1122.162 0.673)" fill="#fff"/>
  <path id="Path_52" data-name="Path 52" d="M1260.017,33.4a13.219,13.219,0,0,1-1.343,1.744c-.486.537-.987,1.056-1.514,1.548a29.1,29.1,0,0,1-3.325,2.788l-.015.011a.972.972,0,0,1-1.341-.23.938.938,0,0,1-.059-1,16.343,16.343,0,0,1,2.767-3.526,17.65,17.65,0,0,1,1.663-1.486,11.252,11.252,0,0,1,1.9-1.217.985.985,0,0,1,1.311.431.941.941,0,0,1-.038.919Z" transform="translate(-1122.866 0.673)" fill="#fff"/>
  <path id="Path_53" data-name="Path 53" d="M1280.747,8.022c-.919,1.92-1.953,3.771-3.01,5.6-1.073,1.827-2.169,3.638-3.312,5.426l-.008.008a1.641,1.641,0,0,1-1.358.733h-.009a1.585,1.585,0,0,1-1.35-.74c-1.123-1.8-2.216-3.615-3.267-5.449-.54-.919-1.057-1.838-1.565-2.764s-1.021-1.865-1.491-2.818a1.046,1.046,0,0,1,.478-1.4l.026-.012a1.077,1.077,0,0,1,1.319.306c.658.835,1.271,1.708,1.9,2.559q.93,1.3,1.827,2.608,1.083,1.582,2.119,3.185,1.037-1.619,2.121-3.2c1.2-1.757,2.423-3.481,3.766-5.151a1.086,1.086,0,0,1,1.509-.181,1.054,1.054,0,0,1,.306,1.289" transform="translate(-1122.593 0.137)" fill="#fff"/>
</svg>
