<svg id="Layer_1" data-name="Layer 1" xmlns="http://www.w3.org/2000/svg" viewBox="0 0 288 288"><defs><style>.cls-1{fill:#000b63;}.cls-2{fill:#56bbe8;}.cls-3{fill:#8347ad;}</style></defs><path class="cls-1" d="M144.62,238.54l-1.12-.26c-27.62-6.55-46.92-29.51-46.92-55.82,0-20.39,8.74-31,17.19-41.22s16.47-20,16.47-40.51a53.5,53.5,0,0,0-1.7-13.07l-1.61-6.31,6.49.32c38.66,1.87,68.93,36.63,68.93,79.16,0,37-23.81,69.53-56.61,77.44ZM139.19,91.92a60.09,60.09,0,0,1,.66,8.81c0,24-9.92,36-18.67,46.63-8,9.75-15,18.16-15,35.1,0,21.49,15.73,40.33,38.4,46.19,28-7.36,48.14-35.67,48.14-67.82C192.74,125.79,169.68,96.76,139.19,91.92Z"/><path class="cls-1" d="M140.36,235.84c-4.91-9.3-5.32-20-5.32-29.34,0-20.51,5.21-29.63,10.25-38.44,4.62-8.09,9-15.72,9-33.68a52.69,52.69,0,0,0-23.74-43.9l5.33-8a62.32,62.32,0,0,1,28,51.91c0,20.51-5.21,29.63-10.25,38.45-4.62,8.08-9,15.72-9,33.67,0,10.42.7,18.22,4.21,24.86Z"/><path class="cls-1" d="M139.86,195.53c-17-4.91-28.86-22.15-28.86-41.91a50,50,0,0,1,.86-9.16l9.45,1.81a39.11,39.11,0,0,0-.69,7.35c0,15.5,9,28.94,21.91,32.67Z"/><path class="cls-1" d="M150,179.63l-8.37-4.72c4.23-7.52,10-11.66,15.56-15.65,6.6-4.73,13.42-9.62,19-21.06l8.65,4.2c-6.63,13.63-14.81,19.5-22,24.68C157.59,170.77,153.15,174,150,179.63Z"/><path class="cls-1" d="M198.42,39.4A14.42,14.42,0,0,0,186.7,65.75c32.87,15.87,54.11,50.36,54.11,87.87a96.16,96.16,0,0,1-192.31,0c0-37.51,21.24-72,54.11-87.87A14.42,14.42,0,0,0,90.9,39.4C47.56,59.94,19.66,104.74,19.66,153.62a125,125,0,0,0,250,0C269.66,104.74,241.76,59.94,198.42,39.4ZM144.66,269A115.52,115.52,0,0,1,29.27,153.62c0-45.18,25.75-86.57,65.58-105.46A4.81,4.81,0,0,1,98.55,57c-36.29,17.52-59.66,55.4-59.66,96.58a105.77,105.77,0,0,0,211.54,0c0-41.18-23.37-79.06-59.67-96.58a4.81,4.81,0,0,1,2-9.19,4.72,4.72,0,0,1,1.72.31C234.3,67.05,260,108.44,260,153.62A115.51,115.51,0,0,1,144.66,269Z"/><path class="cls-2" d="M144,71.88a22.32,22.32,0,0,1-22.29-22.29c0-18.77,17.56-33,18.31-33.64l4-3.18L148,16c.75.6,18.31,14.87,18.31,33.64A22.32,22.32,0,0,1,144,71.88Z"/><path class="cls-3" d="M147.32,227.86c-2.17-5.87-2.66-12.71-2.66-21.36,0-13.12,2.33-20.73,5.38-27,3.19-5.57,7.6-8.74,12.7-12.39,7.22-5.18,15.4-11.05,22-24.68l-8.65-4.2a47.38,47.38,0,0,1-15,18.11,77.62,77.62,0,0,0,2.72-21.93,61.93,61.93,0,0,0-14.56-39.86c25.32,9,43.41,35.28,43.41,66.31S173.86,219.44,147.32,227.86Z"/></svg>