<svg id="Layer_1" data-name="Layer 1" xmlns="http://www.w3.org/2000/svg" viewBox="0 0 288 288"><defs><style>.cls-1{fill:#000b63;}.cls-2{fill:#8347ad;}.cls-3{fill:#56bbe8;}</style></defs><path class="cls-1" d="M210.8,149.31l-10.27-1.73a48.52,48.52,0,0,0,.74-8.79h10.41A59.52,59.52,0,0,1,210.8,149.31Z"/><path class="cls-2" d="M144,144a20.84,20.84,0,0,1-20.82-20.82V112.76a20.82,20.82,0,1,1,41.64,0v10.42A20.84,20.84,0,0,1,144,144Z"/><path class="cls-1" d="M118,193l-10.42-.06c0-1,0-1.37,0-1.54h0l0-.5c0-10.58,3.4-19.63,9.92-26.16s16-10.28,26.52-10.28c21.79,0,36.44,14.65,36.44,36.44v2.06H170v-2.06c0-19.21-14-26-26-26-7.71,0-14.5,2.57-19.15,7.22S118,182.92,118,190.77C118,191.17,118,191.84,118,193Z"/><path class="cls-1" d="M170,279.35H118V260.86A118.16,118.16,0,0,1,79.77,245L66.69,258.11l-36.8-36.8L43,208.23A118,118,0,0,1,27.14,170H8.65V118H27.14A118,118,0,0,1,43,79.77L29.89,66.69l36.8-36.8L79.77,43A118.16,118.16,0,0,1,118,27.14V8.65H170V27.14A118.16,118.16,0,0,1,208.23,43l13.08-13.07,36.8,36.8L245,79.77A118,118,0,0,1,260.86,118h18.49V170H260.86A118,118,0,0,1,245,208.23l13.07,13.08-36.8,36.8L208.23,245A118.16,118.16,0,0,1,170,260.86Zm-41.65-10.41h31.24V252.27l4.26-.78A108.27,108.27,0,0,0,206,234.07l3.57-2.46,11.79,11.78,22.08-22.08-11.78-11.79,2.46-3.57a108.21,108.21,0,0,0,17.42-42.07l.78-4.26h16.67V128.38H252.27l-.78-4.26a108.21,108.21,0,0,0-17.42-42.07l-2.46-3.57,11.78-11.79L221.31,44.61,209.52,56.39,206,53.93a108.27,108.27,0,0,0-42.07-17.42l-4.26-.78V19.06H128.38V35.73l-4.26.78A108.27,108.27,0,0,0,82.05,53.93l-3.57,2.46L66.69,44.61,44.61,66.69,56.39,78.48l-2.46,3.57a108.21,108.21,0,0,0-17.42,42.07l-.78,4.26H19.06v31.24H35.73l.78,4.26A108.21,108.21,0,0,0,53.93,206l2.46,3.57L44.61,221.31l22.08,22.08,11.79-11.78,3.57,2.46a108.27,108.27,0,0,0,42.07,17.42l4.26.78Z"/><path class="cls-3" d="M144,206.47a67.68,67.68,0,1,1,0-135.35V81.53a57.27,57.27,0,1,0,53.66,77.32l9.75,3.65A68,68,0,0,1,144,206.47Z"/><path class="cls-3" d="M199.34,124A57.32,57.32,0,0,0,144,81.53V71.12a67.72,67.72,0,0,1,65.39,50.2Z"/></svg>