<svg id="Layer_1" data-name="Layer 1" xmlns="http://www.w3.org/2000/svg" viewBox="0 0 288 288"><defs><style>.cls-1{fill:#000b63;}.cls-2{fill:#56bbe8;}.cls-3{fill:#8347ad;}</style></defs><path class="cls-1" d="M144,100.73a24.07,24.07,0,0,1-24-24h9.62A14.42,14.42,0,1,0,144,62.27h-4.81V33.42h9.62V53.14A24,24,0,0,1,144,100.73Z"/><rect class="cls-1" x="14.19" y="254.58" width="259.62" height="9.62"/><rect class="cls-2" x="100.73" y="196.88" width="9.62" height="43.27"/><rect class="cls-2" x="134.38" y="196.88" width="9.62" height="43.27"/><rect class="cls-2" x="67.08" y="196.88" width="9.62" height="43.27"/><polygon class="cls-1" points="172.85 259.38 163.23 259.38 163.23 182.46 47.85 182.46 47.85 259.38 38.23 259.38 38.23 172.85 172.85 172.85 172.85 259.38"/><polygon class="cls-1" points="278.62 283.42 9.38 283.42 9.38 257.82 39.16 217.02 46.92 222.69 19 260.95 19 273.81 269 273.81 269 260.95 150.27 98.25 158.42 93.11 278.62 257.82 278.62 283.42"/><rect class="cls-1" x="114" y="99.63" width="26.53" height="9.62" transform="translate(-32.14 145.61) rotate(-53.86)"/><polygon class="cls-1" points="148.81 177.65 139.19 177.65 139.19 119.96 67.08 119.96 67.08 177.65 57.46 177.65 57.46 110.35 148.81 110.35 148.81 177.65"/><rect class="cls-1" x="76.69" y="129.58" width="24.04" height="9.62"/><rect class="cls-1" x="110.35" y="129.58" width="9.62" height="9.62"/><rect class="cls-1" x="144" y="129.58" width="38.59" height="9.62"/><polygon class="cls-1" points="244.96 177.65 235.35 177.65 235.35 139.19 201.69 139.19 201.69 129.58 244.96 129.58 244.96 177.65"/><polygon class="cls-1" points="264.19 239.62 254.58 239.62 254.58 182.46 168.04 182.46 168.04 172.85 264.19 172.85 264.19 239.62"/><path class="cls-3" d="M207.78,38.23H80.22V4.58H207.78Z"/></svg>