<svg id="Layer_1" data-name="Layer 1" xmlns="http://www.w3.org/2000/svg" viewBox="0 0 288 288"><defs><style>.cls-1{fill:#000b63;}.cls-2{fill:#8347ad;}.cls-3{fill:#fff;}.cls-4{fill:#56bbe8;}</style></defs><path class="cls-1" d="M195.74,208.16H185.39c0-69.31,21.7-112.25,39.89-136.06l8.23,6.28C216.28,100.93,195.74,141.75,195.74,208.16Z"/><path class="cls-1" d="M252.65,135.73H237.13s19.91-16.57,20.79-17.51c3.16-3.37,10.26-12.23,10.26-23.88,0-8.33-6.05-16.21-6.11-16.29l8.13-6.41c.34.43,8.32,10.69,8.32,22.7,0,15.75-9.33,27.13-13.44,31.38C264,126.81,252.78,135.62,252.65,135.73Z"/><path class="cls-1" d="M253,84l-.65-10.33.32,5.16-.33-5.16c.16,0,15.86-1.18,15.86-10.36v-31a3.12,3.12,0,0,1-.62.18l-.62.15c-10.17,2.15-34.83,6.27-37.93,6.78a10.37,10.37,0,0,0-7.4,9.92V61.21l-7.22-2.16a4.37,4.37,0,0,1-3.13-4.2V49.28a20.74,20.74,0,0,1,15.26-20l.51-.11,37.75-6.74,13.74-2.76V63.29C278.52,78.39,261.81,83.43,253,84Z"/><rect class="cls-1" x="40.52" y="21.9" width="155.22" height="10.35"/><rect class="cls-1" x="81.91" y="52.94" width="72.44" height="10.35"/><rect class="cls-1" x="164.7" y="52.94" width="10.35" height="10.35"/><rect class="cls-1" x="81.91" y="78.81" width="62.09" height="10.35"/><rect class="cls-1" x="81.91" y="104.68" width="62.01" height="10.35"/><rect class="cls-1" x="81.91" y="127.82" width="62.01" height="10.35"/><polygon class="cls-1" points="118.13 259.9 61.22 259.9 61.22 218.51 71.56 218.51 71.56 249.56 118.13 249.56 118.13 259.9"/><path class="cls-1" d="M40.52,21.9c19.24,0,31,23.49,31,40.33V221H61.22V62.23c0-12.08-8.69-30-20.7-30"/><path class="cls-1" d="M40.52,21.9c-19.24,0-31,23.49-31,40.33V89.16H19.82V62.23c0-12.08,8.69-30,20.7-30"/><path class="cls-1" d="M19.82,78.9l31.05-.09V89.16H9.48"/><path class="cls-1" d="M252.65,135.73H237.13v10.35h15.52a16.22,16.22,0,0,1-3.87,9.82c-14.06,15.85-46.4,23.87-55.84,25.93a149.9,149.9,0,0,1-21.23-26.92,47.37,47.37,0,0,1-4.22-38.85c4.6-13.9,16.59-24,28.71-31.43,4.13-2.54,8.18-5.25,12.21-8,8.62-5.77,13.27-11.18,22.9-26.92l-2.14-2.3A209.65,209.65,0,0,1,202.22,68.3c-6.39,4.28-12.48,8.1-18.1,12.07a103.22,103.22,0,0,0-11.78,9.48,54.62,54.62,0,0,0-13.09,18.64c-4.83,11.54-6.29,24.59-3.11,36.76,3.36,12.87,12.09,24.08,20.54,34.05,3.47,4.11,7.1,8.11,10.95,11.87l1.91,1.87,2.64-.48c1.85-.34,45.49-8.55,64.34-29.79A26.76,26.76,0,0,0,263,146.08,10.36,10.36,0,0,0,252.65,135.73Z"/><path class="cls-2" d="M241.1,234l-12.54-31H157.73s-9,22.42-12.48,31H128.48v36.22H257.83V234Z"/><rect class="cls-3" x="180.22" y="234.03" width="10.35" height="10.35"/><rect class="cls-4" x="81.91" y="150.96" width="62.01" height="56.62"/></svg>