<svg id="Layer_1" data-name="Layer 1" xmlns="http://www.w3.org/2000/svg" viewBox="0 0 288 288"><defs><style>.cls-1{fill:#8347ad;}.cls-2{fill:#000b63;}.cls-3{fill:#56bbe8;}</style></defs><polyline class="cls-1" points="175.65 227.14 165.22 227.14 165.22 161.36 165.22 150.42 175.65 147.11 204.52 137.96 204.52 137.96 204.52 137.96 214.96 134.65 214.96 214.68 204.52 214.68"/><polygon class="cls-2" points="51.63 52.84 46.41 52.84 46.41 210.05 144 240.99 241.59 210.05 241.59 49.16 144 14.41 46.41 49.16 46.41 52.84 51.63 52.84 53.38 57.75 144 25.48 231.16 56.52 231.16 202.41 144 230.05 56.84 202.41 56.84 52.84 51.63 52.84 53.38 57.75 51.63 52.84"/><polygon class="cls-2" points="50.05 56.95 144 86.74 237.95 56.95 234.8 47.01 144 75.8 53.2 47.01 50.05 56.95 50.05 56.95"/><polygon class="cls-2" points="50.05 98.08 144 127.87 237.95 98.08 234.8 88.14 144 116.93 53.2 88.14 50.05 98.08 50.05 98.08"/><polygon class="cls-3" points="78.33 146.78 128.42 162.67 128.42 151.72 78.33 135.84 78.33 146.78"/><polyline class="cls-2" points="138.78 81.27 138.78 234.59 149.22 234.59 149.22 81.27"/><path class="cls-2" d="M283,209.24a28.05,28.05,0,0,1-4.22,14.48,46.35,46.35,0,0,1-11,12.16c-9.24,7.35-21.92,13.45-37.19,18.32a239.64,239.64,0,0,1-33.71,7.87A330.72,330.72,0,0,1,144,266.18a323.63,323.63,0,0,1-59.95-5.37c-18.14-3.44-34.1-8.39-46.91-14.58-8.54-4.14-15.69-8.82-21.16-14.15a40.2,40.2,0,0,1-7.58-9.86,27.55,27.55,0,0,1-3.37-13,28,28,0,0,1,4.22-14.48,46.47,46.47,0,0,1,11-12.15A87.34,87.34,0,0,1,35.67,173v12.75a60.48,60.48,0,0,0-11.84,8.71,29.44,29.44,0,0,0-5.51,7.09,16.31,16.31,0,0,0-2.05,7.7,16.71,16.71,0,0,0,2.62,8.7,35.35,35.35,0,0,0,8.42,9.16c7.62,6.11,19.2,11.83,33.57,16.38A228.09,228.09,0,0,0,93,251a320.22,320.22,0,0,0,51,4,313.19,313.19,0,0,0,57.85-5.17c17.38-3.29,32.49-8,44.11-13.66,7.75-3.75,13.93-7.89,18.21-12.07a29.44,29.44,0,0,0,5.51-7.09,16.32,16.32,0,0,0,2.05-7.71,16.7,16.7,0,0,0-2.62-8.69,35.19,35.19,0,0,0-8.42-9.16,67.81,67.81,0,0,0-8.36-5.64V173A78.48,78.48,0,0,1,272,186.41a40.16,40.16,0,0,1,7.58,9.85A27.58,27.58,0,0,1,283,209.24Z"/></svg>