<?xml version="1.0" encoding="utf-8"?>
<!-- Generator: Adobe Illustrator 26.0.3, SVG Export Plug-In . SVG Version: 6.00 Build 0)  -->
<svg version="1.1" id="Layer_1" xmlns="http://www.w3.org/2000/svg" xmlns:xlink="http://www.w3.org/1999/xlink" x="0px" y="0px"
	 viewBox="0 0 140.9 95.2" style="enable-background:new 0 0 140.9 95.2;" xml:space="preserve">
<style type="text/css">
	.st0{fill:#56BBE8;}
	.st1{fill:#FFFFFF;}
</style>
<g id="Layer_2_00000123426185514040689260000004525205215438359455_">
	<g id="Layer_104">
		<path class="st0" d="M125.7,50.9c-15.8-5.5-33.1,2.8-38.6,18.6c-2.4,6.9-2.2,14.5,0.5,21.3C106.5,85.3,121,70,125.7,50.9z"/>
		<path class="st1" d="M72.3,95.2c-10.1,0-20-2.7-28.7-7.7l2.3-4c25.1,14.6,57.3,6,71.8-19.1c4.6-8,7.1-17.1,7.1-26.3
			c0.8-16.5-12-30.6-28.5-31.4s-30.6,12-31.4,28.5c0,1,0,1.9,0,2.9h-4.6C60.3,19,75.8,3.5,94.9,3.5s34.6,15.5,34.6,34.6
			C129.4,69.6,103.9,95.2,72.3,95.2z"/>
		<path class="st1" d="M64.9,92.1h-4.6V69.7l-0.2,0.2c-4.8,4.7-12.5,4.6-17.2-0.3c0,0,0,0,0,0l-1-1.1c-1.5,0.3-3.1,0.2-4.6-0.1
			c-3.2-0.7-6-2.6-7.7-5.3l-0.8-1.2c-1.6,0-3.1-0.4-4.5-1c-3-1.3-5.3-3.6-6.6-6.7l-0.6-1.4c-4.8-1-8.5-4.8-9.4-9.6l-0.3-1.5
			C3,39.8,0,35.4,0,30.5v-2.3h63.5v4.6H5C5.4,34,6,35,6.9,35.9c1.4,1.4,3.4,2.2,5.4,2.2h9.9l0.4,4.6L13,44.5c0.6,1.1,1.4,2,2.4,2.7
			c1.7,1.1,3.7,1.5,5.7,1.2l9.7-1.9l1.3,4.4l-9,3.7c0.8,0.9,1.8,1.7,2.9,2.2c1.9,0.8,4,0.8,5.8,0L41,53l2.1,4.1l-8.2,5.3
			c0.9,0.8,2.1,1.3,3.3,1.6c2,0.4,4,0,5.7-1.1l8.3-5.4l2.8,3.6l-7,6.7c2.9,1.6,6.5,1.1,8.9-1.2l8-7.7L64.9,92.1z"/>
		<path class="st1" d="M35.9,32.7l-2.2-0.7c-6.4-2-10.1-8.8-8.1-15.2l0.4-1.4c-1-1.2-1.7-2.6-2.2-4.1c-1-3.1-0.7-6.5,0.9-9.3l1.1-2
			l41.7,22.1l-2.2,4.1L28,6.4c-0.2,1.2-0.1,2.4,0.2,3.6c0.6,1.9,2,3.6,3.8,4.5l8.7,4.6l-1.8,4.2l-9.3-2.8c0,3.3,2.2,6.2,5.4,7.2
			l2.2,0.7L35.9,32.7z"/>
		
			<rect x="125.4" y="24.2" transform="matrix(0.9421 -0.3353 0.3353 0.9421 -1.1923 46.1313)" class="st1" width="15.2" height="4.6"/>
		
			<rect x="130.4" y="27.7" transform="matrix(0.3312 -0.9435 0.9435 0.3312 55.873 148.4773)" class="st1" width="4.6" height="14.3"/>
		<path class="st1" d="M107.8,37.5c-3.9,0-7-3.1-7-7s3.1-7,7-7s7,3.1,7,7S111.6,37.5,107.8,37.5z M107.8,28.1
			c-1.3,0-2.4,1.1-2.4,2.4s1.1,2.4,2.4,2.4c1.3,0,2.4-1.1,2.4-2.4C110.1,29.2,109.1,28.1,107.8,28.1
			C107.8,28.1,107.8,28.1,107.8,28.1z"/>
	</g>
</g>
</svg>
