<svg xmlns="http://www.w3.org/2000/svg" viewBox="0 0 140.92 95.24"><defs><style>.cls-1{fill:#56bbe8;}.cls-2{fill:#2b2d71;}</style></defs><g id="Layer_2" data-name="Layer 2"><g id="Layer_104" data-name="Layer 104"><path class="cls-1" d="M125.65,50.86A30.3,30.3,0,0,0,87.57,90.78,55,55,0,0,0,125.65,50.86Z"/><path class="cls-2" d="M72.32,95.24a57.08,57.08,0,0,1-28.69-7.72l2.31-4A52.56,52.56,0,0,0,124.86,38.1a30,30,0,1,0-59.93,0H60.34a34.56,34.56,0,0,1,69.12,0A57.21,57.21,0,0,1,72.32,95.24Z"/><path class="cls-2" d="M64.93,92.09H60.34V69.69l-.23.22a12.17,12.17,0,0,1-17.25-.31l-1-1.08a12.3,12.3,0,0,1-4.6-.09,12.08,12.08,0,0,1-7.71-5.31l-.81-1.25a11.89,11.89,0,0,1-4.52-1,12.1,12.1,0,0,1-6.55-6.65l-.57-1.41a12.2,12.2,0,0,1-9.38-9.61l-.29-1.47A12.29,12.29,0,0,1,0,30.53v-2.3H63.52v4.6H5a7.6,7.6,0,0,0,1.88,3.08,7.51,7.51,0,0,0,5.37,2.22h9.87l.44,4.56L13,44.54a7.48,7.48,0,0,0,2.43,2.67,7.62,7.62,0,0,0,5.71,1.16l9.68-1.89,1.31,4.38-9,3.65A7.62,7.62,0,0,0,26,56.67a7.46,7.46,0,0,0,5.81,0L41,53l2.11,4.06L34.9,62.36a7.68,7.68,0,0,0,3.26,1.57,7.56,7.56,0,0,0,5.72-1.06l8.28-5.37L55,61.08l-7,6.74a7.58,7.58,0,0,0,8.9-1.22l8-7.73Z"/><path class="cls-2" d="M35.86,32.73l-2.17-.66a12.22,12.22,0,0,1-8.13-15.22L26,15.4a12.21,12.21,0,0,1-2.16-4.08A12.08,12.08,0,0,1,24.72,2l1.07-2L67.53,22.09l-2.15,4.06L28,6.37a7.72,7.72,0,0,0,.22,3.6A7.57,7.57,0,0,0,32,14.46l8.72,4.61L38.93,23.3l-9.3-2.82A7.61,7.61,0,0,0,35,27.67l2.16.66Z"/><rect class="cls-2" x="125.43" y="24.21" width="15.16" height="4.6" transform="translate(-1.19 46.14) rotate(-19.59)"/><rect class="cls-2" x="131.1" y="27.51" width="4.59" height="14.34" transform="matrix(0.33, -0.94, 0.94, 0.33, 56.06, 148.77)"/><path class="cls-2" d="M107.75,37.51a7,7,0,1,1,7-7A7,7,0,0,1,107.75,37.51Zm0-9.36a2.38,2.38,0,1,0,2.39,2.38A2.38,2.38,0,0,0,107.75,28.15Z"/></g></g></svg>