<svg xmlns="http://www.w3.org/2000/svg" viewBox="0 0 110.29 110.29"><defs><style>.cls-1{fill:#56bbe8;}.cls-2{fill:#2b2d71;}</style></defs><g id="Layer_2" data-name="Layer 2"><g id="Layer_119" data-name="Layer 119"><circle class="cls-1" cx="55.14" cy="55.14" r="39.98"/><rect class="cls-2" x="44.8" y="52.84" width="4.13" height="4.6"/><rect class="cls-2" x="53.08" y="52.84" width="4.13" height="4.6"/><rect class="cls-2" x="61.35" y="52.84" width="4.13" height="4.6"/><path class="cls-2" d="M55.14,110.29a55.15,55.15,0,1,1,55.15-55.15A55.21,55.21,0,0,1,55.14,110.29Zm0-105.7a50.55,50.55,0,1,0,50.55,50.55A50.6,50.6,0,0,0,55.14,4.59Z"/><path class="cls-2" d="M55.14,110.29c-16.1,0-28.72-24.23-28.72-55.15S39,0,55.14,0V4.59C42.07,4.59,31,27.74,31,55.14s11.05,50.55,24.12,50.55Z"/><path class="cls-2" d="M55.14,110.29v-4.6c13.08,0,24.13-23.15,24.13-50.55S68.22,4.59,55.14,4.59V0C71.25,0,83.86,24.22,83.86,55.14S71.25,110.29,55.14,110.29Z"/><rect class="cls-2" x="52.85" y="2.3" width="4.6" height="46.64"/><rect class="cls-2" x="52.85" y="61.35" width="4.6" height="46.64"/><rect class="cls-2" x="2.3" y="52.84" width="38.37" height="4.6"/><rect class="cls-2" x="69.62" y="52.84" width="38.37" height="4.6"/><path class="cls-2" d="M55.14,31a134.26,134.26,0,0,1-42-6.69L14.62,20a129.55,129.55,0,0,0,40.52,6.46A129.59,129.59,0,0,0,95.68,20l1.44,4.37A134.3,134.3,0,0,1,55.14,31Z"/><path class="cls-2" d="M14.62,90.33,13.18,86a134.8,134.8,0,0,1,83.94,0l-1.44,4.36a130.18,130.18,0,0,0-81.06,0Z"/></g></g></svg>