<svg xmlns="http://www.w3.org/2000/svg" viewBox="0 0 105.67 133.54"><defs><style>.cls-1{fill:#2b2d71;}.cls-2{fill:#56bbe8;}.cls-3{fill:#9d6bbd;}</style></defs><g id="Layer_2" data-name="Layer 2"><g id="Layer_140" data-name="Layer 140"><path class="cls-1" d="M84.76,104.27H10.46V12.76A12.77,12.77,0,0,1,23.21,0h69.7V4.6a8.14,8.14,0,0,0-8.15,8.16Zm-69.7-4.61H80.15V12.76A12.7,12.7,0,0,1,83.09,4.6H23.21a8.16,8.16,0,0,0-8.15,8.16Z"/><path class="cls-1" d="M92.91,25.51v-4.6a8.16,8.16,0,1,0-8.15-8.15H80.15A12.76,12.76,0,1,1,92.91,25.51Z"/><polygon class="cls-1" points="95.21 93.6 90.61 93.6 90.61 15.06 82.45 15.06 82.45 10.45 95.21 10.45 95.21 93.6"/><polygon class="cls-1" points="105.67 104.27 0 104.27 0 91.3 12.76 91.3 12.76 95.91 4.61 95.91 4.61 99.66 101.06 99.66 101.06 95.91 82.45 95.91 82.45 91.3 105.67 91.3 105.67 104.27"/><path class="cls-1" d="M95.21,133.54H80.15V99.66H95.21Zm-10.45-4.61H90.6V104.27H84.76Z"/><path class="cls-1" d="M25.52,133.54H10.46V99.66H25.52Zm-10.46-4.61h5.85V104.27H15.06Z"/><rect class="cls-1" x="31.49" y="10.45" width="4.6" height="4.6"/><rect class="cls-1" x="40.7" y="10.45" width="4.6" height="4.6"/><rect class="cls-1" x="49.91" y="10.45" width="4.6" height="4.6"/><rect class="cls-1" x="59.12" y="10.45" width="4.6" height="4.6"/><rect class="cls-1" x="22.28" y="83.07" width="22.37" height="4.6"/><rect class="cls-1" x="50.56" y="64.65" width="22.37" height="4.61"/><rect class="cls-1" x="50.56" y="73.86" width="22.37" height="4.6"/><rect class="cls-1" x="50.56" y="83.07" width="11.18" height="4.6"/><rect class="cls-2" x="22.28" y="52.91" width="4.6" height="4.83"/><rect class="cls-2" x="29.96" y="45.8" width="4.6" height="11.94"/><rect class="cls-2" x="37.63" y="48.87" width="4.6" height="8.87"/><rect class="cls-2" x="45.3" y="39.89" width="4.6" height="17.85"/><rect class="cls-2" x="52.98" y="42.4" width="4.6" height="15.34"/><rect class="cls-2" x="60.65" y="30.11" width="4.6" height="27.63"/><rect class="cls-2" x="68.33" y="34.88" width="4.6" height="22.86"/><rect class="cls-3" x="24.58" y="66.95" width="17.76" height="9.21"/><path class="cls-1" d="M44.65,78.46H22.28V64.65H44.65Zm-17.76-4.6H40V69.25H26.89Z"/><rect class="cls-1" x="22.28" y="27.05" width="22.37" height="4.6"/><rect class="cls-1" x="22.28" y="36.26" width="11.51" height="4.6"/></g></g></svg>