<svg xmlns="http://www.w3.org/2000/svg" viewBox="0 0 89 119.72"><defs><style>.cls-1{fill:#2b2d71;}.cls-2{fill:#56bbe8;}.cls-3{fill:#9d6bbd;}</style></defs><g id="Layer_2" data-name="Layer 2"><g id="Layer_143" data-name="Layer 143"><path class="cls-1" d="M89,119.72H0V0H70.73L89,18.27Zm-84.4-4.6H84.4V20.18L68.82,4.61H4.6Z"/><polygon class="cls-1" points="86.7 21.53 67.47 21.53 67.47 2.3 72.08 2.3 72.08 16.92 86.7 16.92 86.7 21.53"/><rect class="cls-2" x="38.18" y="92.52" width="12.64" height="12.64"/><rect class="cls-2" x="38.18" y="72.18" width="12.64" height="12.64"/><rect class="cls-2" x="38.18" y="51.83" width="12.64" height="12.64"/><path class="cls-1" d="M53.12,107.46H35.88V90.22H53.12Zm-12.64-4.6h8v-8h-8Z"/><path class="cls-1" d="M53.12,87.12H35.88V69.87H53.12ZM40.48,82.51h8v-8h-8Z"/><path class="cls-1" d="M53.12,66.77H35.88V49.53H53.12ZM40.48,62.16h8v-8h-8Z"/><rect class="cls-3" x="19.23" y="31.48" width="50.55" height="12.64"/><path class="cls-1" d="M72.08,46.42H16.92V29.18H72.08Zm-50.55-4.6H67.47v-8H21.53Z"/><path class="cls-1" d="M29.4,80.8a12.48,12.48,0,1,1,0-24.95v4.6a7.87,7.87,0,0,0,0,15.74Z"/><path class="cls-1" d="M59.6,101.14v-4.6a7.87,7.87,0,0,0,0-15.74V76.19a12.48,12.48,0,1,1,0,25Z"/><rect class="cls-1" x="16.92" y="16.92" width="27.58" height="4.6"/></g></g></svg>