<svg xmlns="http://www.w3.org/2000/svg" viewBox="0 0 105.03 119.25"><defs><style>.cls-1{fill:#2b2d71;}.cls-2{fill:#56bbe8;}.cls-3{fill:#9d6bbd;}.cls-4{fill:#fff;}</style></defs><g id="Layer_2" data-name="Layer 2"><g id="Layer_17" data-name="Layer 17"><path class="cls-1" d="M41.28,68.8H9.17V50.45H41.28ZM13.76,64.21H36.69V55H13.76Z"/><path class="cls-1" d="M55,68.8H36.69V50.45H55ZM41.28,64.21h9.17V55H41.28Z"/><path class="cls-1" d="M68.8,68.8H50.45V50.45H68.8ZM55,64.21h9.17V55H55Z"/><path class="cls-1" d="M27.52,82.56H9.17V64.21H27.52ZM13.76,78h9.17V68.8H13.76Z"/><path class="cls-1" d="M41.28,82.56H22.93V64.21H41.28ZM27.52,78h9.17V68.8H27.52Z"/><path class="cls-1" d="M55,82.56H36.69V64.21H55ZM41.28,78h9.17V68.8H41.28Z"/><path class="cls-1" d="M68.8,82.56H50.45V64.21H68.8ZM55,78h9.17V68.8H55Z"/><path class="cls-1" d="M27.52,96.31H9.17V78H27.52ZM13.76,91.73h9.17V82.56H13.76Z"/><path class="cls-1" d="M41.28,96.31H22.93V78H41.28ZM27.52,91.73h9.17V82.56H27.52Z"/><path class="cls-1" d="M55,96.31H36.69V78H55ZM41.28,91.73h9.17V82.56H41.28Z"/><path class="cls-1" d="M27.52,110.07H9.17V91.73H27.52Zm-13.76-4.58h9.17V96.31H13.76Z"/><path class="cls-1" d="M41.28,110.07H22.93V91.73H41.28Zm-13.76-4.58h9.17V96.31H27.52Z"/><path class="cls-1" d="M55,110.07H36.69V91.73H55Zm-13.76-4.58h9.17V96.31H41.28Z"/><path class="cls-1" d="M68.8,110.07H50.45V78H68.8ZM55,105.49h9.17V82.56H55Z"/><rect class="cls-2" x="11.47" y="11.47" width="55.04" height="27.52"/><path class="cls-1" d="M68.8,41.28H9.17V9.17H68.8Zm-55-4.59H64.21V13.76H13.76Z"/><path class="cls-1" d="M78,119.25H0V0H78ZM4.59,114.66H73.38V4.59H4.59Z"/><path class="cls-1" d="M78,119.25H0V0H78ZM4.59,114.66H73.38V4.59H4.59Z"/><rect class="cls-3" x="84.85" y="22.47" width="11.01" height="96.77"/><polygon class="cls-1" points="105.03 110.07 84.85 110.07 84.85 105.49 100.44 105.49 100.44 66.5 105.03 66.5 105.03 110.07"/><rect class="cls-3" x="86.46" y="18.58" width="7.78" height="7.78" transform="translate(10.57 70.47) rotate(-45)"/><rect class="cls-1" x="88.06" y="11.31" width="4.59" height="7.95"/><line class="cls-3" x1="84.85" y1="66.5" x2="95.86" y2="66.5"/><rect class="cls-1" x="84.85" y="64.21" width="11.01" height="4.59"/><rect class="cls-4" x="55.5" y="23.16" width="4.13" height="4.13"/><rect class="cls-4" x="47.24" y="23.16" width="4.13" height="4.13"/><rect class="cls-4" x="38.98" y="23.16" width="4.13" height="4.13"/><rect class="cls-4" x="30.73" y="23.16" width="4.13" height="4.13"/></g></g></svg>