<svg xmlns="http://www.w3.org/2000/svg" viewBox="0 0 95.47 123.83"><defs><style>.cls-1{fill:#2b2d71;}.cls-2{fill:#56bbe8;}</style></defs><g id="Layer_2" data-name="Layer 2"><g id="Layer_18" data-name="Layer 18"><polygon class="cls-1" points="82.49 123.83 0 123.83 0 12.98 8.79 12.98 8.79 17.57 4.59 17.57 4.59 119.25 77.9 119.25 77.9 115.05 82.49 115.05 82.49 123.83"/><path class="cls-1" d="M95.47,110.85H13V0H76.8L95.47,18.68Zm-77.9-4.59H90.89V20.57l-16-16H17.57Z"/><polygon class="cls-1" points="93.18 21.91 73.56 21.91 73.56 2.29 78.14 2.29 78.14 17.33 93.18 17.33 93.18 21.91"/><rect class="cls-1" x="26.1" y="17.33" width="28.13" height="4.59"/><rect class="cls-1" x="26.1" y="67.31" width="56.26" height="4.59"/><rect class="cls-1" x="54.23" y="75.97" width="28.13" height="4.59"/><rect class="cls-1" x="54.23" y="84.62" width="28.13" height="4.59"/><rect class="cls-1" x="26.1" y="93.28" width="21.81" height="4.59"/><rect class="cls-2" x="26.1" y="28.28" width="56.26" height="32.67"/><rect class="cls-1" x="26.1" y="56.38" width="4.59" height="4.56"/><rect class="cls-1" x="34.71" y="49.66" width="4.59" height="11.29"/><rect class="cls-1" x="43.32" y="52.56" width="4.59" height="8.39"/><rect class="cls-1" x="51.94" y="44.08" width="4.59" height="16.87"/><rect class="cls-1" x="60.55" y="46.45" width="4.59" height="14.5"/><rect class="cls-1" x="69.16" y="34.83" width="4.59" height="26.12"/><rect class="cls-1" x="77.78" y="39.34" width="4.59" height="21.61"/><path class="cls-1" d="M47.91,89.21H26.1V76H47.91ZM30.68,84.62H43.32V80.55H30.68Z"/></g></g></svg>