<svg xmlns="http://www.w3.org/2000/svg" viewBox="0 0 119.4 86.39"><defs><style>.cls-1{fill:#56bbe8;}.cls-2{fill:#2b2d71;}.cls-3{fill:#fff;}</style></defs><g id="Layer_2" data-name="Layer 2"><g id="Layer_189" data-name="Layer 189"><path class="cls-1" d="M117.1,76.17a7.92,7.92,0,0,1-7.91,7.92h-99a7.92,7.92,0,0,0,7.92-7.92V17.92h99Z"/><path class="cls-2" d="M109.19,86.39h-99v-4.6a5.62,5.62,0,0,0,5.63-5.62V15.63H119.4V76.17a10.23,10.23,0,0,1-10.21,10.22Zm-90.44-4.6h90.44a5.62,5.62,0,0,0,5.62-5.62V20.22H20.43v56A10.16,10.16,0,0,1,18.75,81.79Z"/><path class="cls-2" d="M10.21,86.39A10.23,10.23,0,0,1,0,76.17V6.43H7.92V0H42.2V6.43h59.07V11H37.61V4.59H12.51V11H4.59V76.17a5.62,5.62,0,0,0,5.62,5.62Z"/><rect class="cls-3" x="27.32" y="27.11" width="32.15" height="11.02"/><rect class="cls-2" x="27.32" y="42.49" width="32.15" height="4.59"/><rect class="cls-2" x="27.32" y="51.45" width="16.07" height="4.59"/></g></g></svg>