<svg xmlns="http://www.w3.org/2000/svg" viewBox="0 0 114.66 103.65"><defs><style>.cls-1{fill:#9d6bbd;}.cls-2{fill:#2b2d71;}.cls-3{fill:#fff;}</style></defs><g id="Layer_2" data-name="Layer 2"><g id="Layer_19" data-name="Layer 19"><rect class="cls-1" x="24.31" y="35.32" width="66.04" height="33.02"/><path class="cls-2" d="M26.6,26.6H0V0H26.6ZM4.59,22H22V4.59H4.59Z"/><path class="cls-2" d="M70.63,26.6H44V0h26.6ZM48.62,22H66V4.59H48.62Z"/><path class="cls-2" d="M114.66,26.6H88.06V0h26.6ZM92.65,22h17.42V4.59H92.65Z"/><path class="cls-2" d="M26.6,103.65H0V77.05H26.6Zm-22-4.58H22V81.64H4.59Z"/><path class="cls-2" d="M70.63,103.65H44V77.05h26.6Zm-22-4.58H66V81.64H48.62Z"/><path class="cls-2" d="M114.66,103.65H88.06V77.05h26.6Zm-22-4.58h17.42V81.64H92.65Z"/><path class="cls-2" d="M96.77,48.62H94.48V44h2.29a2.3,2.3,0,0,0,2.3-2.29v-11h4.58v11a6.88,6.88,0,0,1-6.88,6.88Z"/><path class="cls-2" d="M103.65,72.92H99.07v-11a2.32,2.32,0,0,0-2.3-2.3H94.48V55h2.29a6.86,6.86,0,0,1,6.88,6.88Z"/><path class="cls-2" d="M20.18,48.62H17.89A6.88,6.88,0,0,1,11,41.74v-11h4.58v11A2.3,2.3,0,0,0,17.89,44h2.29Z"/><path class="cls-2" d="M15.59,72.92H11v-11A6.86,6.86,0,0,1,17.89,55h2.29v4.58H17.89a2.32,2.32,0,0,0-2.3,2.3Z"/><rect class="cls-2" x="55.04" y="13.3" width="4.59" height="22.02"/><rect class="cls-2" x="55.04" y="68.34" width="4.59" height="22.01"/><rect class="cls-3" x="45.87" y="49.53" width="4.59" height="4.59"/><rect class="cls-3" x="55.04" y="49.53" width="4.59" height="4.59"/><rect class="cls-3" x="64.21" y="49.53" width="4.59" height="4.59"/></g></g></svg>