<svg xmlns="http://www.w3.org/2000/svg" viewBox="0 0 136.35 126.13"><defs><style>.cls-1{fill:#2b2d71;}.cls-2{fill:#56bbe8;}</style></defs><g id="Layer_2" data-name="Layer 2"><g id="Layer_20" data-name="Layer 20"><path class="cls-1" d="M68.18,29.32A14.66,14.66,0,1,1,82.83,14.66,14.67,14.67,0,0,1,68.18,29.32Zm0-24.73A10.07,10.07,0,1,0,78.24,14.66,10.07,10.07,0,0,0,68.18,4.59Z"/><polygon class="cls-2" points="79.18 37.46 68.18 48.47 57.17 37.46 22.45 37.46 22.45 49.91 52.35 49.91 52.35 82.29 83.99 82.29 83.99 49.91 113.9 49.91 113.9 37.46 79.18 37.46"/><rect class="cls-1" x="65.88" y="53.06" width="4.59" height="4.59"/><rect class="cls-1" x="65.88" y="62.23" width="4.59" height="4.59"/><rect class="cls-1" x="65.88" y="88.02" width="4.59" height="38.11"/><path class="cls-1" d="M86.29,126.12H81.7V47.62h41a3.94,3.94,0,0,0,0-7.87h-109a3.94,3.94,0,0,0,0,7.87h41v78.5H50.06V52.21H13.68a8.52,8.52,0,0,1,0-17h109a8.52,8.52,0,0,1,0,17H86.29Z"/><polygon class="cls-1" points="128.14 80.7 121.35 63.21 114.57 80.7 110.29 79.04 121.35 50.53 132.42 79.04 128.14 80.7"/><path class="cls-2" d="M106.36,78.62a15,15,0,0,0,30,0Z"/><polygon class="cls-1" points="8.21 80.7 3.93 79.04 14.99 50.53 26.06 79.04 21.78 80.7 14.99 63.21 8.21 80.7"/><path class="cls-2" d="M0,78.62a15,15,0,0,0,30,0Z"/></g></g></svg>