<svg xmlns="http://www.w3.org/2000/svg" viewBox="0 0 114.81 94.14"><defs><style>.cls-1{fill:#9d6bbd;}.cls-2{fill:#2b2d71;}.cls-3{fill:#fff;}</style></defs><g id="Layer_2" data-name="Layer 2"><g id="Layer_205" data-name="Layer 205"><rect class="cls-1" y="16.07" width="114.81" height="78.07"/><rect class="cls-2" y="52.81" width="114.81" height="4.59"/><rect class="cls-3" x="22.16" y="16.07" width="9.19" height="78.07"/><rect class="cls-3" x="83.46" y="16.07" width="9.18" height="78.07"/><polygon class="cls-2" points="35.94 64.29 31.34 64.29 31.34 50.52 22.16 50.52 22.16 64.29 17.57 64.29 17.57 45.92 35.94 45.92 35.94 64.29"/><polygon class="cls-2" points="97.24 64.29 92.65 64.29 92.65 50.52 83.47 50.52 83.47 64.29 78.87 64.29 78.87 45.92 97.24 45.92 97.24 64.29"/><polygon class="cls-2" points="78.07 16.07 73.48 16.07 73.48 4.59 41.33 4.59 41.33 16.07 36.74 16.07 36.74 0 78.07 0 78.07 16.07"/></g></g></svg>