<svg xmlns="http://www.w3.org/2000/svg" viewBox="0 0 70.53 130.88"><defs><style>.cls-1{fill:#2b2d71;}.cls-2{fill:#9d6bbd;}</style></defs><g id="Layer_2" data-name="Layer 2"><g id="Layer_206" data-name="Layer 206"><rect class="cls-1" x="32.97" y="87.8" width="4.59" height="43.08"/><path class="cls-1" d="M48.54,90.1H22V75.74H48.54Zm-22-4.59H44V80.33H26.57Z"/><path class="cls-2" d="M2.3,78H68.23A32.93,32.93,0,0,0,52.77,50.1V15.32h4.67a6.51,6.51,0,1,0,0-13H13.08a6.51,6.51,0,0,0-4.6,11.11,6.46,6.46,0,0,0,4.6,1.91h4.69V50.1A32.94,32.94,0,0,0,2.3,78Z"/><polygon class="cls-1" points="55.07 50.1 50.48 50.1 50.48 17.62 20.06 17.62 20.06 50.1 15.47 50.1 15.47 13.03 55.07 13.03 55.07 50.1"/><path class="cls-1" d="M70.53,80.33H0V78a35.27,35.27,0,1,1,70.53,0ZM4.68,75.74H65.85a30.67,30.67,0,0,0-61.17,0Z"/><path class="cls-1" d="M57.44,17.62H13.08A8.83,8.83,0,0,1,4.27,8.81,8.83,8.83,0,0,1,13.08,0H57.44a8.8,8.8,0,0,1,6.24,15A8.74,8.74,0,0,1,57.44,17.62Zm-44.36-13A4.23,4.23,0,0,0,8.87,8.81a4.22,4.22,0,0,0,1.23,3,4.17,4.17,0,0,0,3,1.23H57.44a4.22,4.22,0,0,0,3-7.19,4.22,4.22,0,0,0-3-1.24Z"/></g></g></svg>