<svg xmlns="http://www.w3.org/2000/svg" viewBox="0 0 85.44 121.7"><defs><style>.cls-1{fill:#56bbe8;}.cls-2{fill:#fff;}.cls-3{fill:#2b2d71;}</style></defs><g id="Layer_2" data-name="Layer 2"><g id="Layer_209" data-name="Layer 209"><path class="cls-1" d="M58,57.43A8.27,8.27,0,0,1,58,40.9,10.89,10.89,0,0,0,68.91,30a8.27,8.27,0,1,1,16.53,0A27.44,27.44,0,0,1,58,57.43Z"/><path class="cls-1" d="M27.41,38.64A27.44,27.44,0,0,1,0,11.23a8.27,8.27,0,1,1,16.53,0A10.89,10.89,0,0,0,27.41,22.1a8.27,8.27,0,0,1,0,16.54Z"/><path class="cls-1" d="M53.55,4.49A15.31,15.31,0,0,0,27.41,15.31V68H58V15.31A15.24,15.24,0,0,0,53.55,4.49Z"/><path class="cls-2" d="M37.05,21.71H32.46v-6.4A10.26,10.26,0,0,1,42.72,5.05V9.64a5.68,5.68,0,0,0-5.67,5.67Z"/><path class="cls-3" d="M52.41,121.7H33A23.37,23.37,0,0,1,9.68,98.34V75.23H75.76V98.34A23.35,23.35,0,0,1,52.41,121.7ZM14.27,79.82V98.34A18.76,18.76,0,0,0,33,117.1H52.41A18.76,18.76,0,0,0,71.17,98.34V79.82Z"/><path class="cls-3" d="M42.72,114.35H33a16,16,0,0,1-16-16h4.59A11.42,11.42,0,0,0,33,109.76h9.68Z"/><path class="cls-3" d="M80.54,79.82H4.9V65.66H80.54ZM9.49,75.23H76v-5H9.49Z"/></g></g></svg>