<svg xmlns="http://www.w3.org/2000/svg" viewBox="0 0 128.42 119.08"><defs><style>.cls-1{fill:#2b2d71;}.cls-2{fill:#56bbe8;}.cls-3{fill:#fff;}.cls-4{fill:#9d6bbd;}</style></defs><g id="Layer_2" data-name="Layer 2"><g id="Layer_22" data-name="Layer 22"><polygon class="cls-1" points="79.19 86.1 49.23 86.1 49.23 75.94 53.81 75.94 53.81 81.51 74.61 81.51 74.61 75.94 79.19 75.94 79.19 86.1"/><rect class="cls-1" x="44.28" y="81.51" width="39.87" height="4.59"/><path class="cls-1" d="M109.66,63.05H18.76V5.34a5.31,5.31,0,0,1,1.57-3.78A5.27,5.27,0,0,1,24.1,0h80.22a5.34,5.34,0,0,1,5.34,5.34ZM23.35,58.46h81.72V5.34a.74.74,0,0,0-.22-.53.7.7,0,0,0-.53-.22H24.1a.69.69,0,0,0-.52.21.75.75,0,0,0-.23.54Z"/><path class="cls-1" d="M104.32,73.2H24.1a5.34,5.34,0,0,1-5.34-5.34v-9.4h90.9v9.4a5.34,5.34,0,0,1-5.34,5.34Zm-81-10.15v4.81a.74.74,0,0,0,.22.53.7.7,0,0,0,.53.22h80.22a.74.74,0,0,0,.53-.21.78.78,0,0,0,.22-.54V63.05Z"/><rect class="cls-2" x="27.81" y="9.04" width="72.8" height="44.96"/><polygon class="cls-3" points="100.61 27.25 100.61 54 27.81 54 27.81 47.65 32.37 44.3 36.92 44.85 44.75 35.23 52.58 39.75 56.82 36.56 61.07 35.3 66.82 28.43 72.58 36.23 78.33 28.43 84.09 27.25 92.35 19.27 100.61 27.25"/><polygon class="cls-4" points="100.61 41.5 100.61 54 27.81 54 27.81 51.03 32.37 49.47 36.92 49.73 44.75 45.23 52.58 47.34 56.82 45.85 61.07 45.26 66.82 42.05 72.58 45.7 78.33 42.05 84.09 41.5 92.35 37.77 100.61 41.5"/><rect class="cls-1" x="36.07" y="15.01" width="19.77" height="4.59"/><rect class="cls-1" x="36.07" y="23.26" width="9.89" height="4.59"/><polygon class="cls-1" points="128.42 95.11 0 95.11 0 81.52 37.2 81.52 37.2 86.1 4.59 86.1 4.59 90.52 123.83 90.52 123.83 86.1 91.22 86.1 91.22 81.52 128.42 81.52 128.42 95.11"/><polygon class="cls-1" points="118.66 119.08 114.08 119.08 114.08 95.11 109.66 95.11 109.66 119.08 105.07 119.08 105.07 90.52 118.66 90.52 118.66 119.08"/><polygon class="cls-1" points="23.35 119.08 18.76 119.08 18.76 95.11 14.34 95.11 14.34 119.08 9.76 119.08 9.76 90.52 23.35 90.52 23.35 119.08"/></g></g></svg>