<svg xmlns="http://www.w3.org/2000/svg" viewBox="0 0 115.58 114"><defs><style>.cls-1{fill:#56bbe8;}.cls-2{fill:#2b2d71;}.cls-3{fill:#9d6bbd;}</style></defs><g id="Layer_2" data-name="Layer 2"><g id="Layer_23" data-name="Layer 23"><path class="cls-1" d="M31.71,40.73H13.37A11.08,11.08,0,0,0,2.29,51.8v17h9.17v37.67H33.62V49.9H61.73V40.73Z"/><path class="cls-2" d="M22.54,34.5A12.39,12.39,0,1,1,34.92,22.12,12.39,12.39,0,0,1,22.54,34.5Zm0-20.18a7.8,7.8,0,1,0,7.8,7.8A7.8,7.8,0,0,0,22.54,14.32Z"/><rect class="cls-2" x="9.17" y="68.84" width="4.59" height="45.16"/><path class="cls-2" d="M35.91,114H31.32V47.61H68V43H13.37A8.77,8.77,0,0,0,4.59,51.8V75.07h6.87v4.59H0V51.8A13.37,13.37,0,0,1,13.37,38.43H72.55V52.19H35.91Z"/><polygon class="cls-2" points="111.24 90.81 43.11 90.81 43.11 86.22 106.66 86.22 106.66 32.21 111.24 32.21 111.24 90.81"/><polygon class="cls-2" points="115.58 34.5 43.11 34.5 43.11 29.91 110.99 29.91 110.99 25.84 43.11 25.84 43.11 21.25 115.58 21.25 115.58 34.5"/><polygon class="cls-2" points="84.32 25.17 65.64 6.49 46.96 25.17 43.72 21.92 65.64 0 87.56 21.92 84.32 25.17"/><rect class="cls-2" x="63.35" y="88.51" width="4.59" height="12.8"/><path class="cls-2" d="M65.64,114a7.49,7.49,0,1,1,7.49-7.49A7.5,7.5,0,0,1,65.64,114Zm0-10.39a2.91,2.91,0,1,0,2.9,2.9A2.9,2.9,0,0,0,65.64,103.61Z"/><rect class="cls-3" x="43.11" y="72.65" width="4.59" height="8.03"/><rect class="cls-3" x="52.17" y="64.63" width="4.59" height="16.05"/><rect class="cls-3" x="61.24" y="71.62" width="4.59" height="9.06"/><rect class="cls-3" x="70.3" y="61.28" width="4.59" height="19.4"/><rect class="cls-3" x="79.36" y="67.03" width="4.59" height="13.64"/><rect class="cls-3" x="88.42" y="56.71" width="4.59" height="23.96"/><rect class="cls-3" x="97.49" y="60.61" width="4.59" height="20.07"/><rect class="cls-2" x="79.25" y="38.43" width="4.59" height="4.59"/><rect class="cls-2" x="88.42" y="38.43" width="4.59" height="4.59"/><rect class="cls-2" x="97.6" y="38.43" width="4.59" height="4.59"/><rect class="cls-2" x="79.25" y="47.61" width="22.93" height="4.59"/></g></g></svg>