<svg xmlns="http://www.w3.org/2000/svg" viewBox="0 0 105.46 132.91"><defs><style>.cls-1{fill:#9d6bbd;}.cls-2{fill:#2b2d71;}</style></defs><g id="Layer_2" data-name="Layer 2"><g id="Layer_249" data-name="Layer 249"><path class="cls-1" d="M68.77,52.73a16,16,0,1,1-16-16A16,16,0,0,1,68.77,52.73Z"/><path class="cls-2" d="M100.69,132.91H96.1V83.26a4.24,4.24,0,0,0-1.24-3,4.25,4.25,0,0,0-7.23,3h0a2.29,2.29,0,1,1-4.58,0,4.24,4.24,0,0,0-8.47,0,2.29,2.29,0,0,1-4.58,0h0A4.22,4.22,0,0,0,65.78,79a4.23,4.23,0,0,0-4.24,4.24,2.29,2.29,0,1,1-4.58,0V52.73a4.23,4.23,0,0,0-8.46,0v54a2.3,2.3,0,0,1-1.27,2.06,2.33,2.33,0,0,1-2.41-.23,30.2,30.2,0,0,0-18.43-6.2,4.23,4.23,0,0,0,0,8.46A22.14,22.14,0,0,1,48.5,132.91H43.92a17.54,17.54,0,0,0-17.53-17.53,8.81,8.81,0,0,1,0-17.62,34.73,34.73,0,0,1,17.53,4.68V52.73a8.81,8.81,0,1,1,17.62,0V75.52A8.83,8.83,0,0,1,72,77c.1.1.2.2.29.31l.3-.31a8.79,8.79,0,0,1,12.45,0l.3.3.3-.31a8.82,8.82,0,0,1,15,6.24Z"/><polygon class="cls-2" points="68.92 39.78 65.68 36.55 70.96 31.27 70.96 19.25 75.54 19.25 75.54 33.17 68.92 39.78"/><polygon class="cls-2" points="36.53 39.78 29.93 33.17 29.93 19.25 34.51 19.25 34.51 31.27 39.78 36.55 36.53 39.78"/><path class="cls-2" d="M55,32.29H50.44V27.88H55Zm0-8.81H50.44V19.07H55Z"/><path class="cls-2" d="M86.4,55H82V50.44H86.4Zm-8.82,0H73.17V50.44h4.41Z"/><path class="cls-2" d="M32.29,55H27.88V50.44h4.41Zm-8.82,0h-4.4V50.44h4.4Z"/><path class="cls-2" d="M32.22,21.53a7.33,7.33,0,1,1,7.33-7.33A7.34,7.34,0,0,1,32.22,21.53Zm0-10.08A2.75,2.75,0,1,0,35,14.2,2.75,2.75,0,0,0,32.22,11.45Z"/><path class="cls-2" d="M52.73,14.66a7.33,7.33,0,1,1,7.33-7.33A7.34,7.34,0,0,1,52.73,14.66Zm0-10.08a2.75,2.75,0,1,0,2.75,2.75A2.75,2.75,0,0,0,52.73,4.58Z"/><path class="cls-2" d="M73.25,21.53a7.33,7.33,0,1,1,7.33-7.33A7.34,7.34,0,0,1,73.25,21.53Zm0-10.08A2.75,2.75,0,1,0,76,14.2,2.75,2.75,0,0,0,73.25,11.45Z"/><path class="cls-2" d="M98.13,60.06a7.33,7.33,0,1,1,7.33-7.33A7.33,7.33,0,0,1,98.13,60.06Zm0-10.08a2.75,2.75,0,1,0,2.75,2.75A2.76,2.76,0,0,0,98.13,50Z"/><path class="cls-2" d="M7.33,60.06a7.33,7.33,0,1,1,7.33-7.33A7.33,7.33,0,0,1,7.33,60.06ZM7.33,50a2.75,2.75,0,1,0,2.75,2.75A2.75,2.75,0,0,0,7.33,50Z"/></g></g></svg>