<svg xmlns="http://www.w3.org/2000/svg" viewBox="0 0 116.95 122.08"><defs><style>.cls-1{fill:#2b2d71;}.cls-2{fill:#9d6bbd;}.cls-3{fill:#fff;}</style></defs><g id="Layer_2" data-name="Layer 2"><g id="Layer_25" data-name="Layer 25"><path class="cls-1" d="M96.31,78.05H88.52V73.46h3.21v-17A43.57,43.57,0,0,0,17.35,25.69,43.28,43.28,0,0,0,4.59,56.5v17H7.8v4.59H0V56.5A48.16,48.16,0,0,1,82.21,22.44,47.87,47.87,0,0,1,96.31,56.5Z"/><path class="cls-1" d="M73.13,31.52a35.32,35.32,0,0,0-49.94,0l-3.25-3.24a39.89,39.89,0,0,1,56.43,0Z"/><path class="cls-1" d="M77.51,95a8.72,8.72,0,0,1-8.72-8.71V65.21a8.72,8.72,0,1,1,17.43,0v6H81.64v-6a4.13,4.13,0,0,0-8.26,0v21.1a4.13,4.13,0,0,0,8.26,0v-6h4.58v6A8.71,8.71,0,0,1,77.51,95Z"/><path class="cls-1" d="M83.93,82.64a6.88,6.88,0,1,1,6.88-6.88A6.89,6.89,0,0,1,83.93,82.64Zm0-9.18a2.3,2.3,0,1,0,2.29,2.3A2.3,2.3,0,0,0,83.93,73.46Z"/><path class="cls-1" d="M18.8,95a8.71,8.71,0,0,1-8.71-8.71v-6h4.59v6a4.11,4.11,0,0,0,4.12,4.13,4.13,4.13,0,0,0,4.13-4.13V65.21a4.13,4.13,0,1,0-8.25,0v6H10.09v-6a8.72,8.72,0,1,1,17.43,0v21.1A8.71,8.71,0,0,1,18.8,95Z"/><path class="cls-1" d="M12.38,82.64a6.88,6.88,0,1,1,6.88-6.88A6.89,6.89,0,0,1,12.38,82.64Zm0-9.18a2.3,2.3,0,1,0,2.3,2.3A2.3,2.3,0,0,0,12.38,73.46Z"/><path class="cls-1" d="M57.33,122.08H45.86a6.88,6.88,0,0,1,0-13.76H57.33Zm-11.47-9.17a2.29,2.29,0,0,0,0,4.58h6.88v-4.58Z"/><path class="cls-1" d="M55,117.49v-4.58a26.63,26.63,0,0,0,26.6-26.6h4.58A31.22,31.22,0,0,1,55,117.49Z"/><rect class="cls-2" x="48.16" width="68.8" height="45.87"/><polygon class="cls-2" points="55.04 56.87 55.04 45.87 66.05 45.87 55.04 56.87"/><rect class="cls-3" x="61.46" y="11.47" width="16.05" height="4.59"/><rect class="cls-3" x="61.46" y="20.64" width="42.2" height="4.59"/><rect class="cls-3" x="61.46" y="29.81" width="32.56" height="4.59"/></g></g></svg>