<svg xmlns="http://www.w3.org/2000/svg" viewBox="0 0 114.53 123.85"><defs><style>.cls-1{fill:#2b2d71;}.cls-2{fill:#56bbe8;}.cls-3{fill:#9d6bbd;}</style></defs><g id="Layer_2" data-name="Layer 2"><g id="Layer_250" data-name="Layer 250"><polygon class="cls-1" points="114.53 95.9 104.91 95.9 104.91 91.32 109.95 91.32 109.95 18.33 4.58 18.33 4.58 91.32 9.62 91.32 9.62 95.9 0 95.9 0 13.75 114.53 13.75 114.53 95.9"/><path class="cls-1" d="M114.53,18.33H0V0H114.53ZM4.58,13.74H110V4.58H4.58Z"/><rect class="cls-1" x="9.62" y="6.87" width="4.58" height="4.58"/><rect class="cls-1" x="18.78" y="6.87" width="4.58" height="4.58"/><rect class="cls-1" x="27.95" y="6.87" width="4.58" height="4.58"/><path class="cls-2" d="M9.62,23.36V86.28H21.78c0-.07,0-.15,0-.22a35.5,35.5,0,0,1,71,0v.22h12.15V23.36Z"/><path class="cls-1" d="M57.27,123.85A37.79,37.79,0,1,1,95.05,86.06,37.83,37.83,0,0,1,57.27,123.85Zm0-71a33.21,33.21,0,1,0,33.2,33.2A33.25,33.25,0,0,0,57.27,52.86Z"/><rect class="cls-1" x="54.97" y="40.78" width="4.58" height="9.8"/><path class="cls-1" d="M61.7,47.5H52.83a6.73,6.73,0,1,1,0-13.45H61.7a6.73,6.73,0,1,1,0,13.45Zm-8.87-8.87a2.16,2.16,0,0,0-1.52.63,2.13,2.13,0,0,0-.62,1.52,2.17,2.17,0,0,0,.62,1.52,2.13,2.13,0,0,0,1.52.62H61.7a2.15,2.15,0,0,0,1.52-3.66,2.16,2.16,0,0,0-1.52-.63Z"/><path class="cls-1" d="M89.22,62.37,86,59.14l2.08-2.09v-.11l-1.67-1.67-1.73-1.62,1.62,1.62L84.2,57.35,81,54.12,83,52a4.64,4.64,0,0,1,3.3-1.37A4.57,4.57,0,0,1,89.64,52L91.3,53.7a4.64,4.64,0,0,1,0,6.59Z"/><path class="cls-1" d="M25.32,62.38l-2.09-2.09a4.65,4.65,0,0,1,0-6.59L24.9,52a4.65,4.65,0,0,1,6.59,0l2.09,2.08-3.24,3.25-2.09-2.09h-.11l-1.67,1.67-1.62,1.73L26.47,57l2.09,2.09Z"/><path class="cls-3" d="M57.27,56.49V81.62a4.45,4.45,0,0,1,4.43,4.44H86.85A29.57,29.57,0,0,0,57.27,56.49Z"/><rect class="cls-1" x="68.95" y="59.95" width="4.13" height="4.58" transform="translate(-18.33 92.81) rotate(-60.12)"/><rect class="cls-1" x="54.97" y="56.49" width="4.58" height="4.14"/><rect class="cls-1" x="41.22" y="60.17" width="4.58" height="4.14" transform="translate(-25.34 30.19) rotate(-30.08)"/><rect class="cls-1" x="31.15" y="70.24" width="4.58" height="4.14" transform="translate(-45.91 65.25) rotate(-60.09)"/><rect class="cls-1" x="27.69" y="83.77" width="4.14" height="4.58"/><rect class="cls-1" x="31.37" y="97.52" width="4.14" height="4.58" transform="translate(-45.47 30.14) rotate(-30.04)"/><rect class="cls-1" x="41.44" y="107.59" width="4.14" height="4.58" transform="translate(-73.4 92.58) rotate(-59.98)"/><rect class="cls-1" x="54.97" y="111.5" width="4.58" height="4.15"/><rect class="cls-1" x="68.72" y="107.81" width="4.58" height="4.14" transform="translate(-45.27 49.93) rotate(-29.85)"/><rect class="cls-1" x="78.79" y="97.74" width="4.58" height="4.16" transform="translate(-45.88 120.26) rotate(-60.06)"/><rect class="cls-1" x="82.7" y="83.77" width="4.14" height="4.58"/><rect class="cls-1" x="79.01" y="70.02" width="4.15" height="4.58" transform="translate(-25.21 49.86) rotate(-29.8)"/><path class="cls-1" d="M57.27,92.79A6.73,6.73,0,1,1,64,86.06,6.74,6.74,0,0,1,57.27,92.79Zm0-8.87a2.15,2.15,0,1,0,2.14,2.14A2.14,2.14,0,0,0,57.27,83.92Z"/><rect class="cls-1" x="61.7" y="83.77" width="11.25" height="4.58"/></g></g></svg>