<svg xmlns="http://www.w3.org/2000/svg" viewBox="0 0 97.91 129.08"><defs><style>.cls-1{fill:#2b2d71;}.cls-2{fill:#56bbe8;}.cls-3{fill:#fff;}</style></defs><g id="Layer_2" data-name="Layer 2"><g id="Layer_26" data-name="Layer 26"><path class="cls-1" d="M32,103.27l-7.8-32.88,7.42-4.68,19,21.84L49,89.06,50.24,91ZM29.46,72.52,35,95.75l10.55-7.14L30.78,71.68Z"/><path class="cls-1" d="M65.87,103.27,47.67,91,49,89.06l-1.73-1.51,19-21.84,7.41,4.68ZM52.38,88.61l10.56,7.14,5.51-23.23-1.33-.84Z"/><polygon class="cls-1" points="52.94 105.47 44.97 105.47 40.08 94.46 44.27 92.6 47.95 100.88 49.96 100.88 53.63 92.6 57.82 94.46 52.94 105.47"/><polygon class="cls-1" points="56.87 129.08 49.75 105.46 48.16 105.46 41.03 129.08 36.64 127.76 44.75 100.88 53.15 100.88 61.26 127.76 56.87 129.08"/><polygon class="cls-1" points="93.35 123.63 89.34 85.37 69.49 76.03 71.44 71.88 93.63 82.32 97.91 123.15 93.35 123.63"/><polygon class="cls-1" points="4.56 123.63 0 123.15 4.28 82.32 26.47 71.88 28.42 76.03 8.57 85.37 4.56 123.63"/><rect class="cls-1" x="65.92" y="108.85" width="14.68" height="4.59"/><path class="cls-2" d="M49,0A25.15,25.15,0,0,0,32,43.72l.73.63a19.49,19.49,0,0,1,6.39,14.46H58.78a19.46,19.46,0,0,1,6.39-14.46l.72-.63A25.14,25.14,0,0,0,49,0Z"/><polygon class="cls-3" points="48.91 8.35 48.91 26.6 41.02 26.6 48.91 8.35"/><polygon class="cls-3" points="48.91 41.93 48.91 23.68 56.79 23.68 48.91 41.93"/><rect class="cls-1" x="37.06" y="56.52" width="23.78" height="4.59"/><rect class="cls-1" x="37.06" y="63.83" width="23.78" height="4.59"/><rect class="cls-1" x="43.46" y="71.15" width="10.97" height="4.59"/></g></g></svg>