<svg xmlns="http://www.w3.org/2000/svg" viewBox="0 0 114.44 114.44"><defs><style>.cls-1{fill:#56bbe8;}.cls-2{fill:#2b2d71;}.cls-3{fill:#9d6bbd;}</style></defs><g id="Layer_2" data-name="Layer 2"><g id="Layer_270" data-name="Layer 270"><path class="cls-1" d="M57.22,0A57.21,57.21,0,0,0,21.79,102.13V32.73l5.9-5.91,5.91,5.91,5.91-5.91,5.9,5.91,5.9-5.91,5.91,5.91,5.9-5.91L69,32.73l5.91-5.91,5.91,5.91,5.9-5.91,5.9,5.91v69.41A57.21,57.21,0,0,0,57.22,0Z"/><polygon class="cls-2" points="94.94 114.44 90.36 114.44 90.36 33.68 86.75 30.06 80.85 35.97 74.94 30.06 69.03 35.97 63.12 30.06 57.22 35.97 51.31 30.06 45.41 35.97 39.51 30.06 33.6 35.97 27.69 30.06 24.07 33.68 24.07 114.44 19.5 114.44 19.5 31.78 27.69 23.59 33.6 29.49 39.51 23.58 45.41 29.49 51.31 23.59 57.22 29.49 63.12 23.59 69.03 29.49 74.94 23.59 80.85 29.49 86.75 23.58 94.94 31.78 94.94 114.44"/><rect class="cls-3" x="30.98" y="52.3" width="52.48" height="16.67"/><rect class="cls-2" x="30.98" y="41.39" width="52.48" height="4.58"/><rect class="cls-2" x="30.98" y="101.16" width="22.77" height="4.58"/><rect class="cls-2" x="30.98" y="109.77" width="22.77" height="4.58"/><rect class="cls-2" x="60.71" y="75.29" width="22.76" height="4.58"/><rect class="cls-2" x="60.71" y="83.91" width="22.76" height="4.58"/><rect class="cls-2" x="60.71" y="92.53" width="22.76" height="4.58"/><rect class="cls-2" x="60.71" y="101.16" width="22.76" height="4.58"/><rect class="cls-2" x="60.71" y="109.77" width="22.76" height="4.58"/><rect class="cls-1" x="33.36" y="77.58" width="18" height="17.24"/><path class="cls-2" d="M53.65,97.11H31.07V75.29H53.65Zm-18-4.58H49.07V79.87H35.65Z"/></g></g></svg>