<svg xmlns="http://www.w3.org/2000/svg" viewBox="0 0 136.13 129.34"><defs><style>.cls-1{fill:#56bbe8;}.cls-2{fill:#fff;}.cls-3{fill:#2b2d71;}</style></defs><g id="Layer_2" data-name="Layer 2"><g id="Layer_28" data-name="Layer 28"><rect class="cls-1" x="42.31" y="27.52" width="46.78" height="92.65"/><rect class="cls-2" x="49.65" y="34.86" width="4.59" height="4.59"/><rect class="cls-2" x="58.82" y="34.86" width="4.59" height="4.59"/><rect class="cls-2" x="67.99" y="34.86" width="4.59" height="4.59"/><rect class="cls-2" x="77.17" y="34.86" width="4.59" height="4.59"/><rect class="cls-2" x="49.65" y="44.03" width="4.59" height="4.59"/><rect class="cls-2" x="58.82" y="44.03" width="4.59" height="4.59"/><rect class="cls-2" x="67.99" y="44.03" width="4.59" height="4.59"/><rect class="cls-2" x="77.17" y="44.03" width="4.59" height="4.59"/><rect class="cls-2" x="49.65" y="53.2" width="4.59" height="4.59"/><rect class="cls-2" x="58.82" y="53.2" width="4.59" height="4.59"/><rect class="cls-2" x="67.99" y="53.2" width="4.59" height="4.59"/><rect class="cls-2" x="77.17" y="53.2" width="4.59" height="4.59"/><rect class="cls-2" x="49.65" y="62.38" width="4.59" height="4.59"/><rect class="cls-2" x="58.82" y="62.38" width="4.59" height="4.59"/><rect class="cls-2" x="67.99" y="62.38" width="4.59" height="4.59"/><rect class="cls-2" x="77.17" y="62.38" width="4.59" height="4.59"/><rect class="cls-2" x="49.65" y="71.55" width="4.59" height="4.59"/><rect class="cls-2" x="58.82" y="71.55" width="4.59" height="4.59"/><rect class="cls-2" x="67.99" y="71.55" width="4.59" height="4.59"/><rect class="cls-2" x="77.17" y="71.55" width="4.59" height="4.59"/><rect class="cls-2" x="49.65" y="80.72" width="4.59" height="4.59"/><rect class="cls-2" x="58.82" y="80.72" width="4.59" height="4.59"/><rect class="cls-2" x="67.99" y="80.72" width="4.59" height="4.59"/><rect class="cls-2" x="77.17" y="80.72" width="4.59" height="4.59"/><rect class="cls-2" x="49.65" y="89.89" width="4.59" height="4.59"/><rect class="cls-2" x="58.82" y="89.89" width="4.59" height="4.59"/><rect class="cls-2" x="67.99" y="89.89" width="4.59" height="4.59"/><rect class="cls-2" x="77.17" y="89.89" width="4.59" height="4.59"/><rect class="cls-2" x="49.65" y="99.07" width="4.59" height="4.59"/><rect class="cls-2" x="58.82" y="99.07" width="4.59" height="4.59"/><rect class="cls-2" x="67.99" y="99.07" width="4.59" height="4.59"/><rect class="cls-2" x="77.17" y="99.07" width="4.59" height="4.59"/><rect class="cls-2" x="49.65" y="108.24" width="4.59" height="4.59"/><rect class="cls-2" x="58.82" y="108.24" width="4.59" height="4.59"/><rect class="cls-2" x="67.99" y="108.24" width="4.59" height="4.59"/><rect class="cls-2" x="77.17" y="108.24" width="4.59" height="4.59"/><path class="cls-3" d="M91.38,122.46H40V25.22H91.38ZM44.6,117.87H86.8V29.81H44.6Z"/><path class="cls-3" d="M84.5,29.81H46.9V16.05H84.5Zm-33-4.59H79.92V20.64H51.48Z"/><path class="cls-3" d="M77.62,20.64H53.78V6.88H77.62ZM58.36,16.05H73V11.46H58.36Z"/><rect class="cls-3" x="63.41" width="4.59" height="9.17"/><rect class="cls-3" x="96.43" y="46.32" width="4.59" height="64.21"/><rect class="cls-3" x="105.5" y="46.32" width="4.59" height="64.21"/><rect class="cls-3" x="114.57" y="46.32" width="4.59" height="64.21"/><path class="cls-3" d="M128.79,122.46h-42V34.4h42Zm-37.41-4.59H124.2V39H91.38Z"/><path class="cls-3" d="M119.16,39H96.43V25.22h22.73ZM101,34.4h13.55V29.81H101Z"/><rect class="cls-3" x="21.21" y="71.55" width="4.59" height="4.59"/><rect class="cls-3" x="30.38" y="71.55" width="4.59" height="4.59"/><rect class="cls-3" x="21.21" y="80.72" width="4.59" height="4.59"/><rect class="cls-3" x="30.38" y="80.72" width="4.59" height="4.59"/><rect class="cls-3" x="21.21" y="89.89" width="4.59" height="4.59"/><rect class="cls-3" x="30.38" y="89.89" width="4.59" height="4.59"/><rect class="cls-3" x="21.21" y="99.07" width="4.59" height="4.59"/><rect class="cls-3" x="30.38" y="99.07" width="4.59" height="4.59"/><rect class="cls-3" x="21.21" y="108.24" width="4.59" height="4.59"/><rect class="cls-3" x="30.38" y="108.24" width="4.59" height="4.59"/><path class="cls-3" d="M44.6,122.46h-33V61.92h33Zm-28.43-4.59H40V66.5H16.17Z"/><polygon class="cls-3" points="136.13 129.34 131.54 129.34 131.54 122.46 8.83 122.46 8.83 129.34 4.24 129.34 4.24 117.87 136.13 117.87 136.13 129.34"/><rect class="cls-3" y="34.86" width="12.04" height="4.59"/><rect class="cls-3" x="86.68" y="2.29" width="12.04" height="4.59"/><rect class="cls-3" x="8.68" y="16.05" width="17.05" height="4.59"/><rect class="cls-3" x="30.54" y="16.05" width="6.73" height="4.59"/></g></g></svg>