<svg xmlns="http://www.w3.org/2000/svg" viewBox="0 0 132.33 111"><defs><style>.cls-1{fill:#2b2d71;}.cls-2{fill:#56bbe8;}.cls-3{fill:#9d6bbd;}</style></defs><g id="Layer_2" data-name="Layer 2"><g id="Layer_29" data-name="Layer 29"><path class="cls-1" d="M55.5,111A55.5,55.5,0,1,1,111,55.5,55.56,55.56,0,0,1,55.5,111Zm0-106.41A50.92,50.92,0,1,0,106.42,55.5,51,51,0,0,0,55.5,4.59Z"/><path class="cls-2" d="M55.5,29.64A25.89,25.89,0,0,1,81.37,55.5H99.84A44.3,44.3,0,1,0,77.68,93.91l-9.25-16A25.55,25.55,0,0,1,55.5,81.36a25.86,25.86,0,0,1,0-51.72Z"/><path class="cls-3" d="M99.84,55.5A44.33,44.33,0,0,1,77.68,93.91l-9.25-16A25.81,25.81,0,0,0,81.37,55.5Z"/><rect class="cls-1" x="53.21" y="17.81" width="4.59" height="5.17"/><rect class="cls-1" x="35.66" y="22.52" width="4.59" height="5.17" transform="translate(-7.47 22.36) rotate(-30.02)"/><rect class="cls-1" x="22.81" y="35.36" width="4.59" height="5.17" transform="translate(-20.32 40.7) rotate(-59.98)"/><rect class="cls-1" x="17.81" y="53.21" width="5.17" height="4.59"/><rect class="cls-1" x="22.52" y="70.76" width="5.17" height="4.59" transform="translate(-33.19 22.37) rotate(-30.03)"/><rect class="cls-1" x="35.36" y="83.61" width="5.17" height="4.59" transform="matrix(0.5, -0.87, 0.87, 0.5, -55.42, 75.8)"/><rect class="cls-1" x="53.21" y="88.02" width="4.59" height="5.17"/><rect class="cls-1" x="70.76" y="83.32" width="4.59" height="5.17" transform="translate(-33.19 48.11) rotate(-30.04)"/><rect class="cls-1" x="83.61" y="70.46" width="4.59" height="5.18" transform="translate(-20.29 110.98) rotate(-60.03)"/><rect class="cls-1" x="88.02" y="53.21" width="5.17" height="4.59"/><rect class="cls-1" x="83.31" y="35.66" width="5.18" height="4.59" transform="translate(-7.47 48.05) rotate(-30.01)"/><rect class="cls-1" x="70.47" y="22.81" width="5.17" height="4.59" transform="translate(14.79 75.82) rotate(-60.01)"/><path class="cls-1" d="M55.5,65.29a9.79,9.79,0,1,1,9.78-9.79A9.8,9.8,0,0,1,55.5,65.29Zm0-15a5.2,5.2,0,1,0,5.2,5.19A5.2,5.2,0,0,0,55.5,50.31Z"/><rect class="cls-1" x="53.21" y="36.97" width="4.59" height="11.05"/><rect class="cls-1" x="55.5" y="53.21" width="67.72" height="4.59"/><polygon class="cls-1" points="119.73 64.61 110.62 55.5 119.73 46.39 122.97 49.63 117.11 55.5 122.97 61.37 119.73 64.61"/><polygon class="cls-1" points="129.09 64.61 119.98 55.5 129.09 46.39 132.33 49.63 126.47 55.5 132.33 61.37 129.09 64.61"/></g></g></svg>