<svg xmlns="http://www.w3.org/2000/svg" viewBox="0 0 137.33 104.52"><defs><style>.cls-1{fill:#2b2d71;}.cls-2{fill:#56bbe8;}.cls-3{fill:#9d6bbd;}</style></defs><g id="Layer_2" data-name="Layer 2"><g id="Layer_291" data-name="Layer 291"><path class="cls-1" d="M126.12,94.7H11.21V25.65a6,6,0,0,1,6-6h103a6,6,0,0,1,6,6ZM15.79,90.12H121.54V25.65a1.34,1.34,0,0,0-.41-1,1.39,1.39,0,0,0-1-.41h-103a1.35,1.35,0,0,0-1,.4,1.41,1.41,0,0,0-.42,1Z"/><rect class="cls-2" x="22.35" y="30.82" width="92.62" height="61.59"/><path class="cls-1" d="M130.13,104.52H7.2A7.2,7.2,0,0,1,0,97.32v-7.2H137.33v7.2a7.2,7.2,0,0,1-7.2,7.2ZM4.58,94.7v2.62a2.6,2.6,0,0,0,.76,1.85,2.65,2.65,0,0,0,1.86.77H130.13a2.65,2.65,0,0,0,1.86-.77,2.6,2.6,0,0,0,.76-1.85V94.7Z"/><polygon class="cls-3" points="68.67 21.97 38.91 2.29 38.91 41.66 98.42 41.66 98.42 2.29 68.67 21.97"/><path class="cls-1" d="M100.71,44H36.62V0h64.09ZM41.2,39.37H96.13V4.58H41.2Z"/><polygon class="cls-1" points="68.67 24.72 37.65 4.2 40.17 0.38 68.67 19.23 97.16 0.38 99.68 4.2 68.67 24.72"/><rect class="cls-1" x="87.18" y="25.01" width="4.58" height="21.46" transform="translate(10.3 90.64) rotate(-56.51)"/><rect class="cls-1" x="37.13" y="33.45" width="21.46" height="4.58" transform="translate(-11.77 32.33) rotate(-33.48)"/><rect class="cls-1" x="46.69" y="54.67" width="4.58" height="16.48"/><rect class="cls-1" x="86.06" y="54.67" width="4.58" height="16.48"/><rect class="cls-1" x="66.38" y="62.91" width="4.58" height="16.48"/></g></g></svg>