<svg xmlns="http://www.w3.org/2000/svg" viewBox="0 0 104.73 122.11"><defs><style>.cls-1{fill:#56bbe8;}.cls-2{fill:#2b2d71;}.cls-3{fill:#fff;}</style></defs><g id="Layer_2" data-name="Layer 2"><g id="Layer_30" data-name="Layer 30"><polygon class="cls-1" points="73.51 12.77 52.36 38.63 31.21 12.77 73.51 12.77"/><path class="cls-1" d="M83.09,20.12,75.06,54,52.36,38.62,29.67,54l-8-33.87a52.37,52.37,0,1,0,61.45,0Z"/><rect class="cls-2" x="72.56" y="74.41" width="19.08" height="4.59"/><polygon class="cls-3" points="82.1 64.87 72.56 74.41 91.64 74.41 82.1 64.87"/><rect class="cls-2" x="31.21" y="10.47" width="42.3" height="4.59"/><rect class="cls-2" x="35.21" y="-3.01" width="4.59" height="46.94" transform="translate(-4.48 28.37) rotate(-39.28)"/><path class="cls-2" d="M28.2,57.75l-10.67-45L20.88,0h63L87.2,12.74l-10.68,45L52.36,41.39ZM52.36,35.86,73.59,50.22l8.88-37.43-2.16-8.2H24.41l-2.15,8.2,8.87,37.43Z"/><rect class="cls-2" x="43.75" y="18.17" width="46.94" height="4.59" transform="translate(8.83 59.54) rotate(-50.72)"/><polygon class="cls-2" points="57.52 61.65 47.2 61.65 40.32 46.13 44.51 44.27 50.19 57.07 54.54 57.07 60.22 44.27 64.41 46.13 57.52 61.65"/><polygon class="cls-2" points="35.06 122.11 30.61 120.97 46.92 57.07 57.81 57.07 74.11 120.97 69.67 122.11 54.25 61.65 50.48 61.65 35.06 122.11"/></g></g></svg>