<svg xmlns="http://www.w3.org/2000/svg" viewBox="0 0 104.72 114.91"><defs><style>.cls-1{fill:#2b2d71;}.cls-2{fill:#9d6bbd;}</style></defs><g id="Layer_2" data-name="Layer 2"><g id="Layer_327" data-name="Layer 327"><path class="cls-1" d="M12.9,23V36.77H26.69V23Zm9.19,9.19h-4.6V27.58h4.6Z"/><rect class="cls-1" x="32.2" y="22.98" width="31.54" height="4.6"/><rect class="cls-1" x="32.2" y="32.17" width="31.54" height="4.6"/><path class="cls-1" d="M12.9,41.37V55.16H26.69V41.37Zm9.19,9.19h-4.6V46h4.6Z"/><rect class="cls-1" x="32.2" y="41.37" width="15.77" height="4.6"/><rect class="cls-1" x="32.2" y="50.56" width="15.77" height="4.6"/><path class="cls-1" d="M12.9,59.75V73.54H26.69V59.75Zm9.19,9.19h-4.6V64.35h4.6Z"/><path class="cls-1" d="M12.9,78.14V91.93H26.69V78.14Zm9.19,9.19h-4.6v-4.6h4.6Z"/><rect class="cls-2" x="43.95" y="66.77" width="60.77" height="48.13"/><path class="cls-1" d="M76.63,66.77H66.06A10.57,10.57,0,1,1,76.63,56.2ZM66.06,50.23a6,6,0,0,0,0,12h6v-6A6,6,0,0,0,66.06,50.23Z"/><path class="cls-1" d="M80.13,66.77H72V58.69a8.09,8.09,0,1,1,8.09,8.08Zm-3.5-4.59h3.5a3.5,3.5,0,1,0-3.5-3.49Z"/><rect class="cls-1" x="72.04" y="66.77" width="4.6" height="48.13"/><rect class="cls-1" x="43.95" y="88.54" width="60.77" height="4.6"/><path class="cls-1" d="M104.72,18.64H72v-2.3a16.34,16.34,0,0,1,32.68,0ZM76.86,14h23a11.75,11.75,0,0,0-23,0Z"/><path class="cls-1" d="M32.2,114.91H0V16.34A16.36,16.36,0,0,1,16.34,0H88.39V4.6A11.77,11.77,0,0,0,76.63,16.34V36.9H72V16.34A16.27,16.27,0,0,1,77,4.6H16.34A11.76,11.76,0,0,0,4.6,16.34v94H32.2Z"/></g></g></svg>