<svg xmlns="http://www.w3.org/2000/svg" viewBox="0 0 114.66 116.54"><defs><style>.cls-1{fill:#2b2d71;}.cls-2{fill:#56bbe8;}.cls-3{fill:#fff;}.cls-4{fill:#9d6bbd;}</style></defs><g id="Layer_2" data-name="Layer 2"><g id="Layer_33" data-name="Layer 33"><polygon class="cls-1" points="114.66 116.54 0 116.54 0 36.58 4.59 36.58 4.59 111.95 110.07 111.95 110.07 51.26 114.66 51.26 114.66 116.54"/><polygon class="cls-1" points="36.83 38.88 0 38.88 0 20.53 36.83 20.53 36.83 25.12 4.59 25.12 4.59 34.29 36.83 34.29 36.83 38.88"/><rect class="cls-1" x="9.63" y="27.41" width="4.59" height="4.59"/><rect class="cls-1" x="18.8" y="27.41" width="4.59" height="4.59"/><rect class="cls-1" x="27.98" y="27.41" width="4.59" height="4.59"/><polygon class="cls-2" points="50.81 57.2 50.81 43.92 44.17 43.92 9.63 43.92 9.63 106.91 105.03 106.91 105.03 43.92 64.1 43.92 50.81 57.2"/><rect class="cls-1" x="66.8" y="71.38" width="4.59" height="4.59"/><rect class="cls-1" x="75.98" y="71.38" width="4.58" height="4.59"/><rect class="cls-1" x="85.15" y="71.38" width="4.59" height="4.59"/><path class="cls-3" d="M51.38,106.91H19.55V96.24A9.3,9.3,0,0,1,28.84,87H42.09a9.3,9.3,0,0,1,9.29,9.28Z"/><path class="cls-3" d="M44.74,73.68a9.28,9.28,0,1,1-9.28-9.29A9.27,9.27,0,0,1,44.74,73.68Z"/><path class="cls-1" d="M48.52,62.74V46.21H41.88V0h72.78V46.21H65.05ZM46.46,41.63h6.65v10l10-10h46.92v-37H46.46Z"/><rect class="cls-4" x="51.51" y="9.63" width="53.52" height="26.95"/><rect class="cls-3" x="59.01" y="16.23" width="38.53" height="4.59"/><rect class="cls-3" x="59.01" y="25.4" width="19.26" height="4.59"/></g></g></svg>