<svg xmlns="http://www.w3.org/2000/svg" viewBox="0 0 130.25 125.9"><defs><style>.cls-1{fill:#56bbe8;}.cls-2{fill:#2b2d71;}</style></defs><g id="Layer_2" data-name="Layer 2"><g id="Layer_34" data-name="Layer 34"><path class="cls-1" d="M88.36,53.2H41.89V38.94A11.64,11.64,0,0,1,53.51,27.32H76.74A11.63,11.63,0,0,1,88.36,38.94Z"/><rect class="cls-2" x="51.22" y="40.72" width="4.59" height="12.48"/><rect class="cls-2" x="74.45" y="40.72" width="4.59" height="12.48"/><path class="cls-1" d="M76.74,11.62A11.62,11.62,0,1,1,65.13,0,11.61,11.61,0,0,1,76.74,11.62Z"/><path class="cls-2" d="M112.57,81.06H108a8.71,8.71,0,0,0-8.68-8.69H31a8.71,8.71,0,0,0-8.69,8.69H17.68A13.3,13.3,0,0,1,31,67.79H99.3a13.28,13.28,0,0,1,13.27,13.27Z"/><rect class="cls-2" x="62.83" y="58.57" width="4.59" height="22.49"/><path class="cls-2" d="M26.67,121.51a3.74,3.74,0,0,0-1.06-2.1A3.69,3.69,0,0,0,23,118.32H17a3.72,3.72,0,0,0-3.68,3.18l-4.54-.65A8.31,8.31,0,0,1,17,113.74h6a8.3,8.3,0,0,1,8.22,7.08Z"/><path class="cls-2" d="M20,113.27a7.35,7.35,0,1,1,7.34-7.34A7.35,7.35,0,0,1,20,113.27Zm0-10.1a2.76,2.76,0,1,0,2.75,2.76A2.77,2.77,0,0,0,20,103.17Z"/><path class="cls-2" d="M20,125.9a20,20,0,1,1,20-20A20,20,0,0,1,20,125.9Zm0-35.36a15.39,15.39,0,1,0,15.39,15.39A15.4,15.4,0,0,0,20,90.54Z"/><path class="cls-2" d="M71.82,121.51a3.74,3.74,0,0,0-1.06-2.1,3.69,3.69,0,0,0-2.63-1.09h-6a3.72,3.72,0,0,0-3.68,3.18l-4.54-.65a8.29,8.29,0,0,1,8.22-7.11h6A8.26,8.26,0,0,1,74,116.17a8.35,8.35,0,0,1,2.34,4.65Z"/><path class="cls-2" d="M65.13,113.27a7.35,7.35,0,1,1,7.34-7.34A7.35,7.35,0,0,1,65.13,113.27Zm0-10.1a2.76,2.76,0,1,0,2.76,2.76A2.77,2.77,0,0,0,65.13,103.17Z"/><path class="cls-2" d="M65.13,125.9a20,20,0,1,1,20-20A20,20,0,0,1,65.13,125.9Zm0-35.36a15.39,15.39,0,1,0,15.39,15.39A15.4,15.4,0,0,0,65.13,90.54Z"/><path class="cls-2" d="M103.59,121.51l-4.54-.67a8.29,8.29,0,0,1,8.22-7.1h6a8.29,8.29,0,0,1,8.22,7.09l-4.54.67a3.64,3.64,0,0,0-1-2.09,3.69,3.69,0,0,0-2.63-1.09h-6a3.72,3.72,0,0,0-3.68,3.19Z"/><path class="cls-2" d="M110.28,113.27a7.35,7.35,0,1,1,7.34-7.34A7.35,7.35,0,0,1,110.28,113.27Zm0-10.1a2.76,2.76,0,1,0,2.76,2.76A2.76,2.76,0,0,0,110.28,103.17Z"/><path class="cls-2" d="M110.28,125.9a20,20,0,1,1,20-20A20,20,0,0,1,110.28,125.9Zm0-35.36a15.39,15.39,0,1,0,15.39,15.39A15.4,15.4,0,0,0,110.28,90.54Z"/></g></g></svg>