<svg xmlns="http://www.w3.org/2000/svg" viewBox="0 0 95.37 126.37"><defs><style>.cls-1{fill:#9d6bbd;}.cls-2{fill:#2b2d71;}.cls-3{fill:#56bbe8;}.cls-4{fill:#fff;}</style></defs><g id="Layer_2" data-name="Layer 2"><g id="Layer_343" data-name="Layer 343"><rect class="cls-1" x="36.78" y="79.84" width="24.12" height="12.06"/><path class="cls-2" d="M63.2,94.2H34.48V77.55H63.2ZM39.08,89.61H58.61V82.14H39.08Z"/><path class="cls-2" d="M75.27,94.2H58.61V77.55H75.27ZM63.2,89.61h7.47V82.14H63.2Z"/><path class="cls-2" d="M87.33,94.2H70.67V77.55H87.33ZM75.27,89.61h7.46V82.14H75.27Z"/><path class="cls-2" d="M51.14,106.26H34.48V89.61H51.14Zm-12.06-4.59h7.46V94.2H39.08Z"/><path class="cls-2" d="M63.2,106.26H46.54V89.61H63.2Zm-12.06-4.59h7.47V94.2H51.14Z"/><path class="cls-2" d="M75.27,106.26H58.61V89.61H75.27ZM63.2,101.67h7.47V94.2H63.2Z"/><path class="cls-2" d="M87.33,106.26H70.67V89.61H87.33Zm-12.06-4.59h7.46V94.2H75.27Z"/><path class="cls-2" d="M51.14,118.33H34.48V101.67H51.14Zm-12.06-4.6h7.46v-7.47H39.08Z"/><path class="cls-2" d="M63.2,118.33H46.54V101.67H63.2Zm-12.06-4.6h7.47v-7.47H51.14Z"/><path class="cls-2" d="M75.27,118.33H58.61V101.67H75.27Zm-12.07-4.6h7.47v-7.47H63.2Z"/><path class="cls-2" d="M87.33,118.33H70.67V101.67H87.33Zm-12.06-4.6h7.46v-7.47H75.27Z"/><rect class="cls-3" x="36.78" y="43.66" width="48.25" height="24.12"/><path class="cls-2" d="M87.33,70.08H34.48V41.36H87.33Zm-48.25-4.6H82.73V46H39.08Z"/><path class="cls-2" d="M95.37,126.37H26.44V33.32H95.37ZM31,121.77H90.77V37.91H31Z"/><rect class="cls-4" x="73.54" y="53.42" width="4.59" height="4.6"/><rect class="cls-4" x="64.34" y="53.42" width="4.6" height="4.6"/><rect class="cls-4" x="55.15" y="53.42" width="4.6" height="4.6"/><polygon class="cls-2" points="19.55 126.37 0 126.37 0 8.21 8.21 0 14.12 5.91 20.03 0 25.94 5.91 31.85 0 37.76 5.91 43.66 0 49.58 5.91 55.48 0 61.39 5.91 67.3 0 73.21 5.91 79.12 0 87.33 8.21 87.33 26.42 82.73 26.42 82.73 10.11 79.12 6.5 73.21 12.41 67.3 6.5 61.39 12.41 55.48 6.5 49.58 12.41 43.66 6.5 37.76 12.41 31.85 6.5 25.94 12.41 20.03 6.5 14.12 12.41 8.21 6.5 4.6 10.11 4.6 121.77 19.55 121.77 19.55 126.37"/></g></g></svg>