<svg xmlns="http://www.w3.org/2000/svg" viewBox="0 0 111.49 111.49"><defs><style>.cls-1{fill:#2b2d71;}.cls-2{fill:#9d6bbd;}.cls-3{fill:#56bbe8;}</style></defs><g id="Layer_2" data-name="Layer 2"><g id="Layer_35" data-name="Layer 35"><path class="cls-1" d="M62.58,91.93c-1.5.51-3,1-4.6,1.32l-1-4.47a39.36,39.36,0,0,0,4.15-1.19ZM92,62.49,87.62,61a42.64,42.64,0,0,0,1.18-4.15l4.47,1C92.91,59.44,92.47,61,92,62.49ZM53.27,94.1a47.41,47.41,0,0,1-4.76.36l-.12-4.58c1.43,0,2.88-.15,4.3-.33ZM94.11,53.18l-4.55-.57a41.65,41.65,0,0,0,.32-4.31l4.59.11A47.61,47.61,0,0,1,94.11,53.18ZM43.73,94.35c-1.59-.12-3.18-.32-4.75-.59l.8-4.52c1.41.25,2.85.43,4.29.54ZM94.34,43.63,89.77,44c-.11-1.43-.29-2.88-.54-4.29l4.51-.8A46.86,46.86,0,0,1,94.34,43.63Zm-60,49.06c-1.53-.44-3.05-1-4.53-1.54l1.69-4.26a42.73,42.73,0,0,0,4.09,1.38ZM92.66,34.23l-4.41,1.26a41.87,41.87,0,0,0-1.39-4.09l4.26-1.7A45.57,45.57,0,0,1,92.66,34.23ZM25.44,89.16a47.4,47.4,0,0,1-4.13-2.42l2.52-3.83c1.2.78,2.45,1.52,3.73,2.18ZM89.12,25.35l-4.06,2.13a41.78,41.78,0,0,0-2.2-3.72l3.83-2.53C87.56,22.55,88.38,23.94,89.12,25.35ZM17.46,83.91a46.6,46.6,0,0,1-3.55-3.2l3.23-3.25a41.65,41.65,0,0,0,3.21,2.89ZM83.85,17.38l-3.55,2.9c-.91-1.1-1.88-2.18-2.9-3.2L77.27,17l3.24-3.24.11.1A46.88,46.88,0,0,1,83.85,17.38ZM14.24,74.27l-3.55,2.91c-1-1.24-2-2.53-2.84-3.85l3.82-2.54A41,41,0,0,0,14.24,74.27Zm59.82-60.2c-1.11-.9-2.29-1.76-3.49-2.55l2.52-3.83A46.49,46.49,0,0,1,77,10.51Zm-64.59,53L5.41,69.21a45,45,0,0,1-2-4.34l4.26-1.71A40.84,40.84,0,0,0,9.47,67.08ZM66.84,9.35a42,42,0,0,0-3.92-1.79L64.6,3.29c1.48.59,3,1.25,4.36,2ZM6.25,59.08l-4.4,1.27A46.33,46.33,0,0,1,.76,55.69l4.51-.82C5.53,56.29,5.86,57.7,6.25,59.08ZM58.83,6.18c-1.38-.39-2.8-.71-4.21-1L55.4.71a46.39,46.39,0,0,1,4.67,1.06ZM4.72,50.59l-4.57.35A47.61,47.61,0,0,1,0,46.16l4.59.11A41.62,41.62,0,0,0,4.72,50.59ZM50.33,4.7A41.53,41.53,0,0,0,46,4.6L45.88,0a47.66,47.66,0,0,1,4.78.1ZM4.91,42,.36,41.4a47.06,47.06,0,0,1,.83-4.72l4.47,1A42.9,42.9,0,0,0,4.91,42Zm36.79-37c-1.42.19-2.85.45-4.25.78L36.4,1.25A46.94,46.94,0,0,1,41.11.4ZM6.83,33.55,2.49,32.08c.51-1.5,1.1-3,1.76-4.45l4.17,1.9C7.83,30.84,7.29,32.19,6.83,33.55ZM33.3,6.92a41.75,41.75,0,0,0-4,1.61L27.37,4.37a47.32,47.32,0,0,1,4.44-1.79ZM10.41,25.7l-4-2.31a45.93,45.93,0,0,1,2.63-4l3.7,2.71A42.13,42.13,0,0,0,10.41,25.7ZM25.48,10.54c-1.23.73-2.44,1.54-3.6,2.39L19.15,9.25a46,46,0,0,1,4-2.65Zm-10,8.2-3.41-3.06a46.88,46.88,0,0,1,3.37-3.39l3.09,3.39C17.5,16.64,16.47,17.67,15.5,18.74Z"/><path class="cls-1" d="M47.24,81.64A34.4,34.4,0,0,1,22.92,22.92,34.39,34.39,0,1,1,71.56,71.56,34.14,34.14,0,0,1,47.24,81.64Zm0-64.21a29.81,29.81,0,1,0,21.08,8.73A29.62,29.62,0,0,0,47.24,17.43Z"/><rect class="cls-1" x="71.87" y="68.2" width="4.59" height="11.92" transform="translate(-30.72 74.16) rotate(-45)"/><rect class="cls-2" x="84.94" y="72.6" width="14.77" height="39.44" transform="translate(-38.24 92.33) rotate(-45.01)"/><path class="cls-1" d="M71.09,47.24H66.5a19.26,19.26,0,1,0-38.52,0H23.39a23.85,23.85,0,0,1,47.7,0Z"/><rect class="cls-1" x="76.18" y="81.27" width="14.77" height="4.59" transform="translate(-34.61 83.56) rotate(-45)"/><rect class="cls-1" x="93.69" y="98.78" width="14.77" height="4.59" transform="translate(-41.87 101.03) rotate(-44.98)"/><path class="cls-3" d="M47.24,56.41a9.17,9.17,0,1,0-9.17-9.17A9.18,9.18,0,0,0,47.24,56.41Z"/><path class="cls-3" d="M47.24,71.09a23.7,23.7,0,0,0,13.65-4.3,15.59,15.59,0,0,0-27.3,0A23.7,23.7,0,0,0,47.24,71.09Z"/></g></g></svg>