<svg xmlns="http://www.w3.org/2000/svg" viewBox="0 0 94.83 131.2"><defs><style>.cls-1{fill:#2b2d71;}.cls-2{fill:#56bbe8;}.cls-3{fill:#fff;}</style></defs><g id="Layer_2" data-name="Layer 2"><g id="Layer_354" data-name="Layer 354"><path class="cls-1" d="M26.58,90a45.11,45.11,0,0,1-4.19-2.33l2.43-3.9a42.42,42.42,0,0,0,3.79,2.1Zm41.75,0-2-4.13c1.29-.64,2.56-1.35,3.78-2.11l2.45,3.9C71.17,88.49,69.76,89.27,68.33,90ZM18.44,85a45,45,0,0,1-3.64-3.12L18,78.49a42.15,42.15,0,0,0,3.29,2.82Zm58-.06-2.82-3.63c1.14-.89,2.24-1.84,3.29-2.83l3.17,3.34A47.12,47.12,0,0,1,76.46,84.89Zm-65-6.53a46.42,46.42,0,0,1-3-3.79l3.77-2.64c.83,1.18,1.72,2.33,2.66,3.42Zm71.92-.07-3.5-3c.94-1.1,1.84-2.25,2.66-3.43l3.77,2.63C85.43,75.79,84.45,77.07,83.41,78.29ZM6,70.5a46.33,46.33,0,0,1-2.12-4.3l4.22-1.83C8.66,65.69,9.31,67,10,68.26Zm82.9-.08-4-2.24c.7-1.26,1.34-2.57,1.91-3.89L91,66.11C90.37,67.57,89.66,69,88.89,70.42ZM2.19,61.7A47.42,47.42,0,0,1,1,57.05l4.51-.93a40.28,40.28,0,0,0,1.09,4.19Zm90.48-.1-4.39-1.37c.43-1.38.79-2.79,1.08-4.2l4.51.92A47.36,47.36,0,0,1,92.67,61.6ZM.25,52.3A47.71,47.71,0,0,1,0,47.51H4.6c0,1.45.08,2.91.23,4.33Zm94.34-.09L90,51.75c.14-1.44.22-2.89.22-4.33v-.19h4.6v.15A48.21,48.21,0,0,1,94.59,52.21Zm-89.78-9L.23,42.72A47.3,47.3,0,0,1,.94,38l4.51.92A43.27,43.27,0,0,0,4.81,43.17ZM90,42.91a41.38,41.38,0,0,0-.67-4.28l4.51-.94a44.88,44.88,0,0,1,.74,4.74ZM6.53,34.69l-4.4-1.37a46,46,0,0,1,1.66-4.51L8,30.62A41.2,41.2,0,0,0,6.53,34.69Zm81.69-.26a39.51,39.51,0,0,0-1.52-4.05l4.22-1.84A46.05,46.05,0,0,1,92.61,33Zm-78.3-7.7-4-2.23c.77-1.39,1.63-2.76,2.54-4.08L12.21,23C11.39,24.23,10.62,25.47,9.92,26.73Zm74.86-.23c-.71-1.26-1.48-2.49-2.31-3.67l3.76-2.65a47.7,47.7,0,0,1,2.56,4.06ZM14.86,19.61l-3.5-3c1-1.21,2.15-2.39,3.3-3.49l3.18,3.33A42.31,42.31,0,0,0,14.86,19.61Zm64.94-.2a42.19,42.19,0,0,0-3-3.13L80,12.93a47.27,47.27,0,0,1,3.32,3.47ZM21.12,13.62,18.29,10c1.26-1,2.58-1.9,3.93-2.75l2.45,3.9C23.45,11.9,22.26,12.74,21.12,13.62Zm52.38-.16c-1.14-.87-2.34-1.7-3.56-2.46l2.42-3.91a47.87,47.87,0,0,1,4,2.73ZM28.45,9l-2-4.13A46.48,46.48,0,0,1,30.82,3L32.43,7.3A41.17,41.17,0,0,0,28.45,9Zm37.69-.11a38.85,38.85,0,0,0-4-1.7l1.59-4.33c1.5.56,3,1.19,4.42,1.89ZM36.56,6,35.4,1.54a46.65,46.65,0,0,1,4.7-1l.7,4.55C39.38,5.33,38,5.63,36.56,6ZM58,5.93a41.54,41.54,0,0,0-4.25-.86L54.44.52a46.71,46.71,0,0,1,4.71.94ZM45.11,4.66,44.87.07c1.6-.09,3.21-.09,4.8,0l-.22,4.6C48,4.58,46.56,4.59,45.11,4.66Z"/><path class="cls-1" d="M47.41,81.94A34.53,34.53,0,1,1,81.94,47.42,34.56,34.56,0,0,1,47.41,81.94Zm0-64.45A29.93,29.93,0,1,0,77.34,47.42,30,30,0,0,0,47.41,17.49Z"/><rect class="cls-1" x="45.11" y="79.64" width="4.6" height="11.97"/><rect class="cls-2" x="40" y="91.61" width="14.82" height="39.59"/><path class="cls-2" d="M71.35,47.42A23.94,23.94,0,1,1,47.41,23.48,23.94,23.94,0,0,1,71.35,47.42Z"/><rect class="cls-1" x="40" y="96.67" width="14.82" height="4.6"/><rect class="cls-1" x="40" y="121.53" width="14.82" height="4.6"/><rect class="cls-3" x="45.11" y="31.3" width="4.6" height="23.02"/><rect class="cls-3" x="45.11" y="58.92" width="4.6" height="4.6"/></g></g></svg>