<svg xmlns="http://www.w3.org/2000/svg" viewBox="0 0 109.08 128.67"><defs><style>.cls-1{fill:#2b2d71;}.cls-2{fill:#56bbe8;}.cls-3{fill:#9d6bbd;}</style></defs><g id="Layer_2" data-name="Layer 2"><g id="Layer_379" data-name="Layer 379"><path class="cls-1" d="M54.54,128.67a54.54,54.54,0,1,1,54.54-54.54A54.61,54.61,0,0,1,54.54,128.67Zm0-104.48a49.94,49.94,0,1,0,49.94,49.94A50,50,0,0,0,54.54,24.19Z"/><rect class="cls-1" x="52.24" y="8.83" width="4.6" height="13.06"/><path class="cls-1" d="M61.07,17.66H48a8.84,8.84,0,0,1-8.83-8.83A8.84,8.84,0,0,1,48,0H61.07a8.82,8.82,0,0,1,6.24,15.07A8.76,8.76,0,0,1,61.07,17.66ZM48,4.59a4.24,4.24,0,0,0,0,8.47H61.07a4.24,4.24,0,0,0,0-8.47Z"/><path class="cls-1" d="M100.8,38.51l-3.25-3.25,3.08-3.08a1.18,1.18,0,0,0,0-1.68L98.17,28a1.2,1.2,0,0,0-.84-.35,1.18,1.18,0,0,0-.84.35l-3.08,3.08-3.25-3.25,3.08-3.08a5.74,5.74,0,0,1,4.09-1.69,5.8,5.8,0,0,1,4.08,1.68l2.47,2.47a5.79,5.79,0,0,1,0,8.18Z"/><path class="cls-1" d="M8.28,38.51,5.2,35.43a5.79,5.79,0,0,1,0-8.18l2.46-2.46a5.78,5.78,0,0,1,8.17,0l3.09,3.08-3.25,3.25L12.59,28a1.18,1.18,0,0,0-1.68,0L8.45,30.5a1.21,1.21,0,0,0-.35.84,1.16,1.16,0,0,0,.35.84l3.08,3.08Z"/><path class="cls-2" d="M54.54,30.6v37a6.53,6.53,0,0,1,6.53,6.53h37A43.53,43.53,0,0,0,54.54,30.6Z"/><path class="cls-3" d="M61.07,74.13a6.44,6.44,0,0,1-.88,3.26l32.05,18.5a43.34,43.34,0,0,0,5.83-21.76Z"/><rect class="cls-1" x="71.74" y="36.77" width="6.09" height="4.6" transform="translate(3.54 84.27) rotate(-59.98)"/><rect class="cls-1" x="52.24" y="30.6" width="4.6" height="6.09"/><rect class="cls-1" x="32" y="36.02" width="4.59" height="6.09" transform="translate(-14.94 22.39) rotate(-30.01)"/><rect class="cls-1" x="17.18" y="50.84" width="4.6" height="6.09" transform="translate(-36.93 43.81) rotate(-60)"/><rect class="cls-1" x="11.01" y="71.83" width="6.09" height="4.59"/><rect class="cls-1" x="16.43" y="92.08" width="6.09" height="4.6" transform="translate(-44.57 22.38) rotate(-30)"/><rect class="cls-1" x="31.25" y="106.9" width="6.09" height="4.6" transform="translate(-77.41 84.29) rotate(-60)"/><rect class="cls-1" x="52.24" y="111.57" width="4.6" height="6.09"/><rect class="cls-1" x="72.48" y="106.15" width="4.6" height="6.09" transform="translate(-44.58 52.02) rotate(-30)"/><rect class="cls-1" x="87.3" y="91.33" width="4.6" height="6.09" transform="translate(-36.93 124.76) rotate(-59.99)"/><rect class="cls-1" x="91.98" y="71.83" width="6.09" height="4.6"/><rect class="cls-1" x="86.55" y="51.59" width="6.09" height="4.6" transform="translate(-14.94 52.02) rotate(-30)"/><path class="cls-1" d="M54.54,83a8.83,8.83,0,1,1,8.83-8.83A8.84,8.84,0,0,1,54.54,83Zm0-13.06a4.23,4.23,0,1,0,4.23,4.23A4.24,4.24,0,0,0,54.54,69.9Z"/><rect class="cls-1" x="61.07" y="71.83" width="16.54" height="4.59"/></g></g></svg>