<svg xmlns="http://www.w3.org/2000/svg" viewBox="0 0 120.5 130.25"><defs><style>.cls-1{fill:#2b2d71;}.cls-2{fill:#56bbe8;}.cls-3{fill:#9d6bbd;}.cls-4{fill:#fff;}</style></defs><g id="Layer_2" data-name="Layer 2"><g id="Layer_38" data-name="Layer 38"><rect class="cls-1" y="125.67" width="118.21" height="4.59"/><path class="cls-2" d="M114.41,38.92a12.92,12.92,0,0,0-9.16-3.79L94.88,45.5,84.51,35.13a12.94,12.94,0,0,0-13,13V71.42H81.92v9.07h25.92V71.42h10.37V48.09A13,13,0,0,0,114.41,38.92Z"/><path class="cls-1" d="M94.88,28.78a14.39,14.39,0,1,1,14.39-14.39A14.4,14.4,0,0,1,94.88,28.78Zm0-24.19a9.81,9.81,0,1,0,9.8,9.8A9.81,9.81,0,0,0,94.88,4.59Z"/><rect class="cls-1" x="92.59" y="85.25" width="4.59" height="36.29"/><rect class="cls-1" x="79.62" y="71.42" width="4.59" height="50.12"/><rect class="cls-1" x="105.55" y="71.42" width="4.59" height="50.12"/><path class="cls-1" d="M120.5,80.63H107.84V76h8.08V48.09a10.69,10.69,0,0,0-10.67-10.67H84.51A10.67,10.67,0,0,0,73.84,48.09V76h8.08v4.59H69.25V48.09A15.24,15.24,0,0,1,84.51,32.84h20.74A15.24,15.24,0,0,1,120.5,48.09Z"/><rect class="cls-1" x="92.59" y="49.82" width="4.59" height="4.59"/><rect class="cls-1" x="92.59" y="58.99" width="4.59" height="4.59"/><rect class="cls-3" x="9.17" y="107.32" width="18.35" height="14.22"/><rect class="cls-3" x="27.52" y="74.44" width="18.34" height="47.1"/><rect class="cls-3" x="45.86" y="41.55" width="18.35" height="79.99"/><polygon class="cls-1" points="11.47 121.54 6.88 121.54 6.88 98.61 21.1 98.61 21.1 103.19 11.47 103.19 11.47 121.54"/><polygon class="cls-1" points="29.81 121.54 25.23 121.54 25.23 65.72 39.44 65.72 39.44 70.31 29.81 70.31 29.81 121.54"/><polygon class="cls-1" points="48.16 121.54 43.57 121.54 43.57 32.84 64.21 32.84 64.21 37.42 48.16 37.42 48.16 121.54"/><rect class="cls-4" x="53.89" y="94.02" width="4.59" height="4.59"/><rect class="cls-4" x="53.89" y="103.19" width="4.59" height="4.59"/><rect class="cls-4" x="53.89" y="112.37" width="4.59" height="4.59"/></g></g></svg>