<svg xmlns="http://www.w3.org/2000/svg" viewBox="0 0 82.97 126.37"><defs><style>.cls-1{fill:#2b2d71;}.cls-2{fill:#9d6bbd;}.cls-3{fill:#fff;}</style></defs><g id="Layer_2" data-name="Layer 2"><g id="Layer_390" data-name="Layer 390"><path class="cls-1" d="M71.44,80H11.53V0H57.79L71.44,13.65ZM16.12,75.45H66.84V15.55l-11-11H16.12Z"/><polygon class="cls-1" points="69.14 16.9 54.54 16.9 54.54 2.3 59.13 2.3 59.13 12.3 69.14 12.3 69.14 16.9"/><rect class="cls-1" x="21.51" y="20.37" width="39.95" height="4.6"/><rect class="cls-1" x="21.51" y="28.43" width="39.95" height="4.59"/><rect class="cls-1" x="21.51" y="12.3" width="19.97" height="4.6"/><path class="cls-2" d="M0,38.8v87.57H83V38.8ZM21.51,60.33a4.61,4.61,0,1,1,4.61-4.61A4.61,4.61,0,0,1,21.51,60.33Zm40,0a4.61,4.61,0,1,1,4.61-4.61A4.61,4.61,0,0,1,61.46,60.33Z"/><path class="cls-3" d="M41.48,97.19A22.29,22.29,0,0,1,19.21,74.92V60.33h4.6V74.92a17.68,17.68,0,1,0,35.35,0V60.33h4.59V74.92A22.29,22.29,0,0,1,41.48,97.19Z"/><path class="cls-1" d="M21.51,62.62a6.91,6.91,0,1,1,6.91-6.9A6.91,6.91,0,0,1,21.51,62.62Zm0-9.21a2.31,2.31,0,1,0,2.31,2.31A2.31,2.31,0,0,0,21.51,53.41Z"/><path class="cls-1" d="M61.46,62.62a6.91,6.91,0,1,1,6.9-6.9A6.91,6.91,0,0,1,61.46,62.62Zm0-9.21a2.31,2.31,0,1,0,2.31,2.31A2.31,2.31,0,0,0,61.46,53.41Z"/></g></g></svg>