<svg xmlns="http://www.w3.org/2000/svg" viewBox="0 0 135.56 82.03"><defs><style>.cls-1{fill:#56bbe8;}.cls-2{fill:#2b2d71;}.cls-3{fill:#9d6bbd;}.cls-4{fill:#fff;}</style></defs><g id="Layer_2" data-name="Layer 2"><g id="Layer_395" data-name="Layer 395"><polygon class="cls-1" points="110.46 31.77 98.96 31.77 98.96 49.36 125.93 49.36 110.46 31.77"/><polygon class="cls-2" points="25.58 71.03 11.82 71.03 11.82 46.3 16.42 46.3 16.42 66.44 25.58 66.44 25.58 71.03"/><polygon class="cls-2" points="93.93 71.03 47.57 71.03 47.57 66.44 89.33 66.44 89.33 4.59 6.18 4.59 6.18 0 93.93 0 93.93 71.03"/><rect class="cls-2" x="11.82" y="2.3" width="4.6" height="12.23"/><rect class="cls-2" x="14.12" y="55.06" width="5.69" height="4.6"/><rect class="cls-2" x="78.05" y="55.06" width="4.41" height="4.6"/><rect class="cls-2" x="69.23" y="55.06" width="4.41" height="4.6"/><rect class="cls-2" x="60.4" y="55.06" width="4.41" height="4.6"/><rect class="cls-2" x="127.58" y="55.06" width="5.69" height="4.6"/><rect class="cls-3" x="23.29" y="11.46" width="59.18" height="37.89"/><polygon class="cls-2" points="135.56 71.03 123.45 71.03 123.45 66.44 130.97 66.44 130.97 47.46 112.74 26.74 93.93 26.74 93.93 66.44 101.45 66.44 101.45 71.03 89.33 71.03 89.33 22.15 114.82 22.15 135.56 45.72 135.56 71.03"/><circle class="cls-1" cx="36.58" cy="68.74" r="11" transform="translate(-32.34 104.96) rotate(-89.71)"/><path class="cls-2" d="M36.58,82A13.3,13.3,0,1,1,49.87,68.74,13.3,13.3,0,0,1,36.58,82Zm0-22a8.7,8.7,0,1,0,8.7,8.7A8.71,8.71,0,0,0,36.58,60Z"/><rect class="cls-4" x="34.37" y="66.44" width="4.41" height="4.59"/><path class="cls-1" d="M123.44,68.74a11,11,0,1,1-11-11A11,11,0,0,1,123.44,68.74Z"/><path class="cls-2" d="M112.45,82a13.3,13.3,0,1,1,13.3-13.29A13.31,13.31,0,0,1,112.45,82Zm0-22a8.7,8.7,0,1,0,8.7,8.7A8.71,8.71,0,0,0,112.45,60Z"/><rect class="cls-4" x="110.24" y="66.44" width="4.41" height="4.59"/><rect class="cls-2" y="19.29" width="36.24" height="4.59"/><rect class="cls-2" x="16.33" y="36.94" width="18.15" height="4.59"/><rect class="cls-2" x="7.94" y="28.11" width="36.04" height="4.6"/><rect class="cls-2" x="3.64" y="55.06" width="4.41" height="4.6"/><rect class="cls-2" x="45.75" y="19.29" width="4.41" height="4.59"/><rect class="cls-2" x="1.77" y="36.94" width="10.15" height="4.59"/></g></g></svg>