<svg xmlns="http://www.w3.org/2000/svg" viewBox="0 0 114.67 112.12"><defs><style>.cls-1{fill:#56bbe8;}.cls-2{fill:#2b2d71;}.cls-3{fill:#9d6bbd;}.cls-4{fill:#fff;}</style></defs><g id="Layer_2" data-name="Layer 2"><g id="Layer_399" data-name="Layer 399"><path class="cls-1" d="M105,23.39v63H81.9a40.71,40.71,0,0,0,3-15.45V47.31L57.33,34.46,29.75,47.31V70.93a40.52,40.52,0,0,0,3,15.45H9.63v-63Z"/><path class="cls-2" d="M114.67,18.35H0V0H114.67ZM4.59,13.76H110.08V4.59H4.59Z"/><rect class="cls-2" x="11.01" y="6.88" width="4.59" height="4.59"/><rect class="cls-2" x="20.18" y="6.88" width="4.59" height="4.59"/><rect class="cls-2" x="29.35" y="6.88" width="4.59" height="4.59"/><polygon class="cls-2" points="114.67 96.01 78.01 96.01 78.01 91.42 110.08 91.42 110.08 18.35 4.59 18.35 4.59 91.42 36.66 91.42 36.66 96.01 0 96.01 0 13.76 114.67 13.76 114.67 96.01"/><path class="cls-3" d="M72.47,71.42A15.14,15.14,0,1,1,57.33,56.29,15.15,15.15,0,0,1,72.47,71.42Z"/><polygon class="cls-4" points="55.8 79.11 48.38 71.68 51.62 68.44 55.8 72.62 63.05 65.36 66.3 68.6 55.8 79.11"/><path class="cls-2" d="M57.33,112.12l-.75-.26A43.34,43.34,0,0,1,27.46,70.93V45.85L57.33,31.94,87.21,45.85V70.93a43.35,43.35,0,0,1-29.13,40.93ZM32,48.77V70.93a38.74,38.74,0,0,0,25.29,36.32A38.74,38.74,0,0,0,82.62,70.93V48.77L57.33,37Z"/><rect class="cls-2" x="55.04" y="34.46" width="4.59" height="11.01"/><rect class="cls-2" x="55.04" y="98.68" width="4.59" height="11.01"/></g></g></svg>