<svg xmlns="http://www.w3.org/2000/svg" viewBox="0 0 119.27 119.25"><defs><style>.cls-1{fill:#2b2d71;}.cls-2{fill:#9d6bbd;}</style></defs><g id="Layer_2" data-name="Layer 2"><g id="Layer_401" data-name="Layer 401"><path class="cls-1" d="M21.54,119.25a21.61,21.61,0,0,1-6.49-1l-3.61-1.13L24.54,104l-9.3-9.3L2.14,107.82,1,104.21A21.52,21.52,0,0,1,26.62,76.85L76.87,26.61A21.49,21.49,0,0,1,104.22,1l3.61,1.13-13.1,13.1,9.3,9.31,13.11-13.11L118.27,15A21.48,21.48,0,0,1,97.78,43h0a22,22,0,0,1-5.12-.61L42.41,92.64a21.49,21.49,0,0,1-20.87,26.61Zm-1.12-4.63c.37,0,.74,0,1.12,0a16.89,16.89,0,0,0,16.11-22l-.42-1.33L91.34,37.22l1.33.42a17,17,0,0,0,5.11.78,16.88,16.88,0,0,0,16.86-18L104,31,88.24,15.23,98.85,4.62q-.55,0-1.11,0a16.91,16.91,0,0,0-16.12,22L82,27.92,27.94,82l-1.33-.42a17.1,17.1,0,0,0-5.12-.79,16.91,16.91,0,0,0-16.86,18L15.24,88.22,31,104Z"/><path class="cls-2" d="M103,112.42a4.45,4.45,0,0,1-6.27,0L58.07,73.74,73.75,58.06l38.68,38.68a4.43,4.43,0,0,1,0,6.27Z"/><rect class="cls-2" x="56.21" y="58.53" width="13.3" height="8.63" transform="translate(-26.03 62.88) rotate(-45.02)"/><path class="cls-1" d="M99.89,116h0a6.69,6.69,0,0,1-4.76-2L54.83,73.74,73.75,54.82l40.3,40.3a6.72,6.72,0,0,1,0,9.51L104.64,114A6.68,6.68,0,0,1,99.89,116ZM61.31,73.74l37.06,37.05a2.19,2.19,0,0,0,3,0l9.4-9.4a2.15,2.15,0,0,0,0-3L73.75,61.3Z"/><path class="cls-1" d="M61.21,73.84,51.86,64.5,64.51,51.85l9.35,9.35ZM58.35,64.5l2.86,2.86,6.16-6.16-2.86-2.86Z"/><path class="cls-1" d="M23.85,23.84,12.14,23,3.34,8.17,8.19,3.33l14.86,8.8Zm-9-5.21,4.06.27-.28-4L9.37,9.36Z"/><rect class="cls-1" x="38.3" y="13.41" width="4.59" height="54.34" transform="translate(-16.81 40.59) rotate(-44.99)"/><rect class="cls-1" x="102.79" y="11.89" width="4.59" height="4.59" transform="translate(20.76 78.47) rotate(-45.01)"/><rect class="cls-1" x="11.9" y="102.78" width="4.59" height="4.59" transform="translate(-70.11 40.77) rotate(-44.97)"/></g></g></svg>