<svg xmlns="http://www.w3.org/2000/svg" viewBox="0 0 118.44 118.44"><defs><style>.cls-1{fill:#2b2d71;}.cls-2{fill:#9d6bbd;}</style></defs><g id="Layer_2" data-name="Layer 2"><g id="Layer_417" data-name="Layer 417"><path class="cls-1" d="M52.47,104.94a52.47,52.47,0,1,1,52.46-52.47h-4.58a47.88,47.88,0,1,0-47.88,47.89Z"/><path class="cls-2" d="M52.46,16.51a36,36,0,1,0,0,71.92V76.72A24.25,24.25,0,1,1,76.71,52.46H88.44A36,36,0,0,0,52.46,16.51Z"/><path class="cls-2" d="M65,52.47A12.54,12.54,0,1,1,52.47,39.93,12.54,12.54,0,0,1,65,52.47Z"/><path class="cls-1" d="M79.08,118.44l-26.61-66,66,26.63-27.39,12ZM60.76,60.76,79.25,106.6l8.32-19,19-8.31Z"/><rect class="cls-1" x="95.17" y="85.94" width="4.59" height="23.06" transform="translate(-40.37 97.46) rotate(-45)"/></g></g></svg>