<svg xmlns="http://www.w3.org/2000/svg" viewBox="0 0 121.55 121.55"><defs><style>.cls-1{fill:#56bbe8;}.cls-2{fill:#9d6bbd;}.cls-3{fill:#2b2d71;}</style></defs><g id="Layer_2" data-name="Layer 2"><g id="Layer_420" data-name="Layer 420"><path class="cls-1" d="M43.13,9.1a34,34,0,0,0-29.48,51l12.29-7.09A19.85,19.85,0,1,1,60.32,33.21l12.3-7.1A34,34,0,0,0,43.13,9.1Z"/><path class="cls-2" d="M72.62,26.11l-12.3,7.1a19.85,19.85,0,0,1,0,19.85l12.3,7.09a34.11,34.11,0,0,0,0-34Z"/><rect class="cls-3" x="40.84" y="13.54" width="4.59" height="5.3"/><rect class="cls-3" x="27.37" y="17.15" width="4.59" height="5.3" transform="translate(-5.93 17.48) rotate(-29.99)"/><rect class="cls-3" x="17.5" y="27.01" width="4.59" height="5.3" transform="translate(-15.79 31.98) rotate(-60.01)"/><rect class="cls-3" x="13.54" y="40.84" width="5.3" height="4.59"/><rect class="cls-3" x="67.42" y="40.84" width="5.3" height="4.59"/><rect class="cls-3" x="63.81" y="27.37" width="5.3" height="4.59" transform="translate(-5.93 37.2) rotate(-30)"/><rect class="cls-3" x="53.95" y="17.51" width="5.3" height="4.59" transform="translate(11.16 58.92) rotate(-60.01)"/><path class="cls-3" d="M43.13,51.17a8,8,0,1,1,8-8A8.05,8.05,0,0,1,43.13,51.17Zm0-11.49a3.46,3.46,0,1,0,3.45,3.45A3.46,3.46,0,0,0,43.13,39.68Z"/><rect class="cls-3" x="47.54" y="35.84" width="8.48" height="4.59" transform="translate(-12.13 30.97) rotate(-29.98)"/><path class="cls-3" d="M43.13,63.51a20.38,20.38,0,1,1,14.41-6A20.25,20.25,0,0,1,43.13,63.51Zm0-36.75a16.39,16.39,0,1,0,11.57,4.8A16.3,16.3,0,0,0,43.13,26.76Z"/><path class="cls-3" d="M43.13,86.26a43.13,43.13,0,0,1-30.5-73.63,43.13,43.13,0,0,1,61,61A42.88,42.88,0,0,1,43.13,86.26Zm0-81.67A38.54,38.54,0,0,0,15.88,70.38a38.54,38.54,0,1,0,54.5-54.5A38.29,38.29,0,0,0,43.13,4.59Z"/><rect class="cls-3" x="74.25" y="70.13" width="4.59" height="12.83" transform="translate(-31.71 76.52) rotate(-44.99)"/><rect class="cls-2" x="88.6" y="74.08" width="18.78" height="47.83" transform="translate(-40.59 97.98) rotate(-45)"/><rect class="cls-3" x="78.29" y="85.39" width="18.78" height="4.59" transform="translate(-36.32 87.66) rotate(-44.99)"/><rect class="cls-3" x="98.91" y="106.01" width="18.78" height="4.59" transform="translate(-44.86 108.31) rotate(-45)"/></g></g></svg>