<svg xmlns="http://www.w3.org/2000/svg" viewBox="0 0 130.53 118.52"><defs><style>.cls-1{fill:#2b2d71;}.cls-2{fill:#56bbe8;}</style></defs><g id="Layer_2" data-name="Layer 2"><g id="Layer_421" data-name="Layer 421"><path class="cls-1" d="M119.89,109.21H10.64V43.58a5.79,5.79,0,0,1,5.78-5.78H48.85v4.59H16.42a1.17,1.17,0,0,0-.84.35,1.19,1.19,0,0,0-.36.84v61H115.31v-61a1.24,1.24,0,0,0-.36-.86,1.21,1.21,0,0,0-.85-.33H81.67V37.8H114.1a5.77,5.77,0,0,1,5.79,5.78Z"/><path class="cls-1" d="M123.58,118.52H7a6.93,6.93,0,0,1-6.95-7v-6.94H130.53v6.94a6.95,6.95,0,0,1-7,7Zm-119-9.31v2.36a2.34,2.34,0,0,0,.69,1.68,2.38,2.38,0,0,0,1.67.69H123.58a2.35,2.35,0,0,0,1.67-.7,2.3,2.3,0,0,0,.69-1.67v-2.36Z"/><rect class="cls-2" x="21.33" y="48.49" width="25.14" height="29.21"/><rect class="cls-2" x="21.33" y="83.92" width="25.14" height="14.6"/><path class="cls-2" d="M77.83,48.49V77.7H52.7V48.49h2.13L65.26,63.1,75.68,48.49Z"/><rect class="cls-2" x="52.69" y="83.92" width="25.14" height="14.6"/><rect class="cls-2" x="84.06" y="48.49" width="25.14" height="29.21"/><rect class="cls-2" x="84.06" y="83.92" width="25.14" height="14.6"/><path class="cls-1" d="M65.26,37.94a13.3,13.3,0,1,1,13.31-13.3A13.32,13.32,0,0,1,65.26,37.94Zm0-22A8.72,8.72,0,1,0,74,24.64,8.72,8.72,0,0,0,65.26,15.93Z"/><path class="cls-1" d="M65.26,67,45.68,39.59a25.4,25.4,0,0,1-5.06-15,24.65,24.65,0,0,1,49.29,0,25.75,25.75,0,0,1-5.06,15Zm0-62.45A20.07,20.07,0,0,0,45.21,24.64a21,21,0,0,0,4.2,12.29L65.26,59.14,81.11,36.92a20.83,20.83,0,0,0,4.21-12.28A20.08,20.08,0,0,0,65.26,4.59Z"/></g></g></svg>