<svg xmlns="http://www.w3.org/2000/svg" viewBox="0 0 133.55 134.3"><defs><style>.cls-1{fill:#56bbe8;}.cls-2{fill:#9d6bbd;}.cls-3{fill:#2b2d71;}</style></defs><g id="Layer_2" data-name="Layer 2"><g id="Layer_442" data-name="Layer 442"><path class="cls-1" d="M48.93,97.77a39.88,39.88,0,0,1,.86-8.24A40.34,40.34,0,0,1,28.66,65.78,35.68,35.68,0,1,0,63,128.27,40,40,0,0,1,48.93,97.77Z"/><path class="cls-1" d="M44.47,57.62a40.34,40.34,0,0,1,22.3,6.77,40.37,40.37,0,0,1,22.31-6.77,39.94,39.94,0,0,1,12.78,2.09,36.27,36.27,0,0,0,.6-6.55,35.69,35.69,0,0,0-71.38,0,36.27,36.27,0,0,0,.61,6.55A39.94,39.94,0,0,1,44.47,57.62Z"/><path class="cls-1" d="M104.89,65.78A40.34,40.34,0,0,1,83.76,89.53a40.07,40.07,0,0,1-13.2,38.74,35.68,35.68,0,1,0,34.33-62.49Z"/><path class="cls-2" d="M66.77,93.31A39.77,39.77,0,0,1,53.62,91.1l-4.11-1.43,1.33-4.14A39.93,39.93,0,0,1,64,66.43l2.78-2.23,2.79,2.23a40,40,0,0,1,13.15,19.1L84,89.67,79.93,91.1A39.78,39.78,0,0,1,66.77,93.31Z"/><path class="cls-3" d="M66.77,134.3l-4.22-3.39A42.25,42.25,0,0,1,46.63,97.77a42.78,42.78,0,0,1,.57-7A42.59,42.59,0,0,1,26.34,66.11l-2-6.28,6.22-2.17a42.46,42.46,0,0,1,36.22,4,42.48,42.48,0,0,1,36.23-4l6.22,2.17-2,6.27A42.58,42.58,0,0,1,86.35,90.82a42.78,42.78,0,0,1,.57,7A42.25,42.25,0,0,1,71,130.91ZM30.08,62.7l.64,2a38,38,0,0,0,20,22.75l1.65.77L52,90a37.8,37.8,0,0,0,13.39,37.31l1.34,1.08,1.35-1.08a37.66,37.66,0,0,0,14.2-29.54A38.46,38.46,0,0,0,81.51,90l-.38-1.78,1.66-.77a38,38,0,0,0,20-22.75l.64-2-2-.69a37.33,37.33,0,0,0-12.4-2.09,37.75,37.75,0,0,0-21,6.39l-1.28.85-1.27-.85a37.75,37.75,0,0,0-21-6.39A37.37,37.37,0,0,0,32.07,62Z"/><path class="cls-3" d="M66.77,95.61a42,42,0,0,1-13.91-2.34l-4.1-1.43A2.3,2.3,0,0,1,47.32,89l1.32-4.14A42.28,42.28,0,0,1,62.55,64.64l2.79-2.24a2.3,2.3,0,0,1,2.87,0L71,64.64A42.28,42.28,0,0,1,84.91,84.83L86.23,89a2.3,2.3,0,0,1-1.44,2.87l-4.1,1.43A42,42,0,0,1,66.77,95.61ZM52.39,88.23l2,.7a38,38,0,0,0,24.79,0l2-.7-.64-2a37.73,37.73,0,0,0-12.4-18l-1.35-1.08-1.34,1.08a37.67,37.67,0,0,0-12.4,18Z"/><rect class="cls-3" x="64.54" y="107.52" width="4.46" height="4.61"/><rect class="cls-3" x="42.56" y="67.75" width="4.6" height="4.6"/><rect class="cls-3" x="86.39" y="67.75" width="4.6" height="4.6"/><rect class="cls-3" x="115.73" y="128.12" width="17.81" height="4.61"/><polygon class="cls-3" points="133.55 123.81 114.78 123.81 101.51 110.53 104.77 107.28 116.69 119.2 133.55 119.2 133.55 123.81"/><rect class="cls-3" y="128.12" width="17.81" height="4.61"/><polygon class="cls-3" points="18.77 123.81 0 123.81 0 119.2 16.86 119.2 28.78 107.28 32.03 110.53 18.77 123.81"/><rect class="cls-3" x="57.87" y="8.92" width="17.81" height="4.61"/><rect class="cls-3" x="57.87" width="17.81" height="4.61"/><rect class="cls-3" x="64.47" y="17.47" width="4.6" height="17.81"/></g></g></svg>