<svg xmlns="http://www.w3.org/2000/svg" viewBox="0 0 133.1 95.47"><defs><style>.cls-1{fill:#2b2d71;}.cls-2{fill:#56bbe8;}.cls-3{fill:#fff;}.cls-4{fill:#9d6bbd;}</style></defs><g id="Layer_2" data-name="Layer 2"><g id="Layer_461" data-name="Layer 461"><path class="cls-1" d="M59.21,48.65H5.05a5.06,5.06,0,0,1-5-5V5.05A5.06,5.06,0,0,1,5.05,0H59.21a5.06,5.06,0,0,1,5.05,5.05V43.6A5.06,5.06,0,0,1,59.21,48.65ZM5.05,4.59a.47.47,0,0,0-.46.46V43.6a.47.47,0,0,0,.46.46H59.21a.47.47,0,0,0,.46-.46V5.05a.47.47,0,0,0-.46-.46Z"/><rect class="cls-2" x="8.72" y="8.72" width="46.82" height="31.21"/><rect class="cls-1" x="37.64" y="46.36" width="4.59" height="13.77"/><rect class="cls-1" x="22.03" y="46.36" width="4.59" height="13.77"/><rect class="cls-1" x="17.44" y="57.83" width="29.38" height="4.59"/><rect class="cls-3" x="20.65" y="30.75" width="4.59" height="4.59"/><rect class="cls-3" x="29.83" y="30.75" width="4.59" height="4.59"/><rect class="cls-3" x="39.01" y="30.75" width="4.59" height="4.59"/><path class="cls-1" d="M128.05,48.65H73.9a5,5,0,0,1-5.05-5V5.05A5.06,5.06,0,0,1,73.9,0h54.15a5.06,5.06,0,0,1,5,5.05V43.6A5,5,0,0,1,128.05,48.65ZM73.9,4.59a.47.47,0,0,0-.46.46V43.6a.47.47,0,0,0,.46.46h54.15a.47.47,0,0,0,.46-.46V5.05a.47.47,0,0,0-.46-.46Z"/><rect class="cls-4" x="77.57" y="8.72" width="46.81" height="31.21"/><rect class="cls-1" x="106.48" y="46.36" width="4.59" height="13.77"/><rect class="cls-1" x="90.88" y="46.36" width="4.59" height="13.77"/><rect class="cls-1" x="86.29" y="57.83" width="29.37" height="4.59"/><rect class="cls-3" x="89.5" y="30.75" width="4.59" height="4.59"/><rect class="cls-3" x="98.68" y="30.75" width="4.59" height="4.59"/><rect class="cls-3" x="107.86" y="30.75" width="4.59" height="4.59"/><rect class="cls-1" x="29.83" y="66.55" width="4.59" height="15.61"/><rect class="cls-1" x="98.68" y="66.55" width="4.59" height="15.61"/><rect class="cls-1" x="37.64" y="85.37" width="57.86" height="4.59"/><rect class="cls-1" x="106.48" y="85.37" width="26.62" height="4.59"/><rect class="cls-1" y="85.37" width="26.62" height="4.59"/><path class="cls-1" d="M32.13,95.47a7.81,7.81,0,1,1,7.8-7.8A7.81,7.81,0,0,1,32.13,95.47Zm0-11a3.22,3.22,0,1,0,3.21,3.22A3.22,3.22,0,0,0,32.13,84.45Z"/><path class="cls-1" d="M101,95.47a7.81,7.81,0,1,1,7.8-7.8A7.81,7.81,0,0,1,101,95.47Zm0-11a3.22,3.22,0,1,0,3.21,3.22A3.22,3.22,0,0,0,101,84.45Z"/></g></g></svg>