<svg xmlns="http://www.w3.org/2000/svg" viewBox="0 0 124.54 114.7"><defs><style>.cls-1{fill:#56bbe8;}.cls-2{fill:#2b2d71;}.cls-3{fill:#9d6bbd;}</style></defs><g id="Layer_2" data-name="Layer 2"><g id="Layer_54" data-name="Layer 54"><circle class="cls-1" cx="51.25" cy="100.86" r="9.79"/><circle class="cls-1" cx="17.3" cy="100.86" r="9.79"/><polygon class="cls-2" points="124.54 105.73 107 105.73 107 101.14 119.95 101.14 119.95 61.84 124.54 61.84 124.54 105.73"/><path class="cls-2" d="M118.26,114.7H104.7V19.3l6.78-6.78,6.78,6.78Zm-9-4.59h4.38V21.2L111.48,19l-2.19,2.19Z"/><rect class="cls-2" x="107" y="59.55" width="8.97" height="4.59"/><rect class="cls-2" x="109.19" y="11.27" width="4.59" height="4.49"/><polygon class="cls-2" points="100.32 114.7 68.56 114.7 68.56 110.11 95.73 110.11 95.73 21.2 79.12 4.59 19.6 4.59 19.6 81.69 15.01 81.69 15.01 0 81.02 0 100.32 19.3 100.32 114.7"/><polygon class="cls-2" points="98.03 22.55 77.78 22.55 77.78 2.29 82.36 2.29 82.36 17.95 98.03 17.95 98.03 22.55"/><rect class="cls-2" x="30.76" y="17.96" width="26.91" height="4.59"/><rect class="cls-2" x="30.76" y="60.78" width="53.82" height="4.59"/><rect class="cls-2" x="30.76" y="69.75" width="53.82" height="4.59"/><rect class="cls-2" x="57.67" y="78.72" width="26.91" height="4.59"/><rect class="cls-3" x="30.76" y="29.22" width="53.82" height="24.88"/><path class="cls-2" d="M17.3,114.7a13.61,13.61,0,1,1,13.61-13.61A13.62,13.62,0,0,1,17.3,114.7Zm0-22.63a9,9,0,1,0,9,9A9,9,0,0,0,17.3,92.07Z"/><path class="cls-2" d="M51.25,114.7a13.61,13.61,0,1,1,13.61-13.61A13.62,13.62,0,0,1,51.25,114.7Zm0-22.63a9,9,0,1,0,9,9A9,9,0,0,0,51.25,92.07Z"/><path class="cls-2" d="M43.26,96.46H38.67a4.38,4.38,0,1,0-8.76,0H25.32a9,9,0,1,1,17.94,0Z"/><rect class="cls-2" x="62.56" y="98.8" width="6" height="4.59"/><rect class="cls-2" y="98.8" width="6" height="4.59"/></g></g></svg>