<svg xmlns="http://www.w3.org/2000/svg" viewBox="0 0 101.5 128.47"><defs><style>.cls-1{fill:#56bbe8;}.cls-2{fill:#2b2d71;}</style></defs><g id="Layer_2" data-name="Layer 2"><g id="Layer_56" data-name="Layer 56"><rect class="cls-1" y="65.23" width="101.5" height="63.23"/><rect class="cls-2" x="16.63" y="65.23" width="4.59" height="63.23"/><rect class="cls-2" x="80.29" y="65.23" width="4.59" height="63.23"/><path class="cls-2" d="M31.1,65.24H26.51V55.55a6.83,6.83,0,0,1,6.82-6.81h2v4.59h-2a2.24,2.24,0,0,0-2.23,2.22Z"/><path class="cls-2" d="M75,65.24H70.41V55.55a2.25,2.25,0,0,0-2.22-2.22h-2V48.74h2A6.83,6.83,0,0,1,75,55.55Z"/><rect class="cls-1" x="28.34" width="44.83" height="21.26"/><path class="cls-2" d="M54.62,61.09a6.17,6.17,0,0,1-3.87-1.36,6.08,6.08,0,0,1-3.86,1.36h0A6.12,6.12,0,0,1,43,59.73a6.12,6.12,0,0,1-3.87,1.36h0A6.15,6.15,0,0,1,33,55V40.27h4.58V54.93a1.55,1.55,0,0,0,1.56,1.57h0A1.52,1.52,0,0,0,40.26,56a1.54,1.54,0,0,0,.47-1.11h4.58a1.62,1.62,0,0,0,.46,1.12,1.59,1.59,0,0,0,1.12.45,1.46,1.46,0,0,0,1.1-.45,1.57,1.57,0,0,0,.47-1.13l4.59,0A1.55,1.55,0,0,0,53.5,56a1.62,1.62,0,0,0,2.23,0,1.57,1.57,0,0,0,.46-1.11h4.59a1.55,1.55,0,0,0,1.56,1.56h0A1.57,1.57,0,0,0,63.92,55V21.26h4.59V54.93a6.15,6.15,0,0,1-6.15,6.16h0a6.07,6.07,0,0,1-3.85-1.36A6.17,6.17,0,0,1,54.62,61.09Z"/><rect class="cls-2" x="33" y="12.1" width="4.59" height="4.58"/><path class="cls-2" d="M35.28,49.65a9.48,9.48,0,0,1-6.68-16.2,14.73,14.73,0,0,1,1.23-1.16A9.63,9.63,0,0,0,33,25V21.26h4.59V25a14.17,14.17,0,0,1-4.87,10.88c-.19.16-.51.47-.84.8a5,5,0,0,0-1.48,3.51,4.89,4.89,0,0,0,4.89,4.89Z"/></g></g></svg>