<svg xmlns="http://www.w3.org/2000/svg" viewBox="0 0 86.71 128.41"><defs><style>.cls-1{fill:#9d6bbd;}.cls-2{fill:#2b2d71;}.cls-3{fill:#56bbe8;}.cls-4{fill:#fff;}</style></defs><g id="Layer_2" data-name="Layer 2"><g id="Layer_60" data-name="Layer 60"><rect class="cls-1" x="11.47" y="77.94" width="4.59" height="4.59"/><rect class="cls-1" x="22.94" y="77.94" width="4.59" height="4.59"/><rect class="cls-2" x="34.41" y="77.94" width="4.59" height="4.59"/><rect class="cls-2" x="45.88" y="77.94" width="4.59" height="4.59"/><rect class="cls-2" x="11.47" y="89.41" width="4.59" height="4.59"/><rect class="cls-2" x="22.94" y="89.41" width="4.59" height="4.59"/><rect class="cls-2" x="34.41" y="89.41" width="4.59" height="4.59"/><rect class="cls-2" x="45.88" y="89.41" width="4.59" height="4.59"/><rect class="cls-2" x="11.47" y="100.88" width="4.59" height="4.59"/><rect class="cls-2" x="22.94" y="100.88" width="4.59" height="4.59"/><rect class="cls-2" x="34.41" y="100.88" width="4.59" height="4.59"/><rect class="cls-2" x="45.88" y="100.88" width="4.59" height="4.59"/><rect class="cls-2" x="11.47" y="112.35" width="4.59" height="4.59"/><rect class="cls-2" x="22.94" y="112.35" width="4.59" height="4.59"/><rect class="cls-2" x="34.41" y="112.35" width="16.06" height="4.59"/><path class="cls-2" d="M61.94,128.41H0V66.47H61.94ZM4.59,123.82H57.35V71.06H4.59Z"/><path class="cls-2" d="M61.94,71.06H0V34.35H61.94ZM4.59,66.47H57.35V38.94H4.59Z"/><rect class="cls-3" x="11.47" y="45.82" width="39" height="13.76"/><rect class="cls-4" x="41.29" y="50.41" width="4.59" height="4.59"/><rect class="cls-4" x="32.12" y="50.41" width="4.59" height="4.59"/><rect class="cls-4" x="22.94" y="50.41" width="4.59" height="4.59"/><polygon class="cls-2" points="86.72 119.23 68.82 119.23 68.82 114.65 82.13 114.65 82.13 77.08 86.72 77.08 86.72 119.23"/><path class="cls-2" d="M80.29,128.41H66.53V35.7l6.88-6.88,6.88,6.88Zm-9.17-4.59H75.7V37.6l-2.29-2.3-2.29,2.3Z"/><rect class="cls-2" x="68.82" y="74.5" width="9.18" height="4.59"/><rect class="cls-2" x="71.12" y="27.46" width="4.59" height="4.6"/><path class="cls-2" d="M54.37,38.94H7.57V7.57L15.14,0l5.28,5.28L25.69,0,31,5.28,36.25,0l5.27,5.28L46.8,0l7.57,7.57ZM12.16,34.35H49.78V9.47l-3-3-5.28,5.28L36.25,6.49,31,11.77,25.69,6.49l-5.27,5.28L15.14,6.49l-3,3Z"/><rect class="cls-2" x="16.06" y="15.7" width="29.82" height="4.59"/><rect class="cls-2" x="16.06" y="24.88" width="14.91" height="4.59"/></g></g></svg>