<svg xmlns="http://www.w3.org/2000/svg" viewBox="0 0 136.27 99.36"><defs><style>.cls-1{fill:#2b2d71;}.cls-2{fill:#56bbe8;}.cls-3{fill:#fff;}.cls-4{fill:#9d6bbd;}</style></defs><g id="Layer_2" data-name="Layer 2"><g id="Layer_61" data-name="Layer 61"><path class="cls-1" d="M126.29,90.62H23.5V28.91a5.58,5.58,0,0,1,5.57-5.57h91.65a5.58,5.58,0,0,1,5.57,5.57ZM28.09,86H121.7V28.91a1,1,0,0,0-.29-.7,1,1,0,0,0-.69-.28H29.07a.92.92,0,0,0-.68.28,1,1,0,0,0-.3.7Z"/><path class="cls-1" d="M118.41,90.62h-87V31.21h87ZM36,86h77.85V35.8H36Z"/><path class="cls-1" d="M129.6,99.36H20.19a6.67,6.67,0,0,1-6.67-6.67V86H136.27v6.66a6.67,6.67,0,0,1-6.67,6.67ZM18.11,90.62v2.07a2.08,2.08,0,0,0,2.08,2.08H129.6a2.07,2.07,0,0,0,2.08-2.08V90.62Z"/><rect class="cls-2" y="42.56" width="54.49" height="36.71"/><rect class="cls-3" x="13.49" y="57.63" width="4.59" height="9.11"/><rect class="cls-3" x="5.85" y="64.03" width="4.59" height="2.71"/><rect class="cls-3" x="21.13" y="61.09" width="4.59" height="5.65"/><rect class="cls-3" x="28.77" y="53.16" width="4.59" height="13.58"/><rect class="cls-3" x="36.41" y="56.39" width="4.59" height="10.35"/><rect class="cls-3" x="44.05" y="49.31" width="4.59" height="17.43"/><rect class="cls-1" x="5.85" y="69.48" width="42.79" height="4.59"/><rect class="cls-4" x="65.37" y="5.11" width="70.89" height="46.45"/><polygon class="cls-3" points="78 38.1 74.75 34.86 87.24 22.38 95.39 30.52 106.25 19.66 114.4 27.81 123.64 18.56 126.89 21.81 114.4 34.3 106.25 26.15 95.39 37.01 87.24 28.86 78 38.1"/><polygon class="cls-3" points="127.56 28.51 122.97 28.51 122.97 22.48 116.94 22.48 116.94 17.89 127.56 17.89 127.56 28.51"/><path class="cls-1" d="M91.17,79a9.64,9.64,0,1,1,9.64-9.64A9.65,9.65,0,0,1,91.17,79Zm0-14.69a5.05,5.05,0,1,0,5,5.05A5.06,5.06,0,0,0,91.17,64.35Z"/><path class="cls-1" d="M41.89,15.6a7.8,7.8,0,1,1,7.8-7.8A7.81,7.81,0,0,1,41.89,15.6Zm0-11A3.21,3.21,0,1,0,45.1,7.8,3.21,3.21,0,0,0,41.89,4.59Z"/></g></g></svg>