<svg xmlns="http://www.w3.org/2000/svg" viewBox="0 0 114.7 125.17"><defs><style>.cls-1{fill:#2b2d71;}.cls-2{fill:#56bbe8;}</style></defs><g id="Layer_2" data-name="Layer 2"><g id="Layer_65" data-name="Layer 65"><rect class="cls-1" x="18.35" y="94.8" width="4.59" height="4.59"/><rect class="cls-1" x="110.11" y="44.13" width="4.59" height="4.59"/><path class="cls-1" d="M114.7,90.61h-4.59V86.42h4.59Zm0-8.38h-4.59V78h4.59Zm0-8.38h-4.59V69.66h4.59Zm0-8.37h-4.59V61.29h4.59Zm0-8.38h-4.59V52.91h4.59Z"/><rect class="cls-1" x="110.11" y="94.8" width="4.59" height="4.59"/><path class="cls-1" d="M105.53,99.39h-4.59V94.8h4.59Zm-9.18,0H91.76V94.8h4.59Zm-9.18,0H82.58V94.8h4.59Zm-9.17,0H73.41V94.8H78Zm-9.18,0H64.23V94.8h4.59Zm-9.18,0H55.06V94.8h4.58Zm-9.17,0H45.88V94.8h4.59Zm-9.18,0H36.7V94.8h4.59Zm-9.17,0H27.53V94.8h4.59Z"/><path class="cls-1" d="M96.35,81H0V25.78H96.35ZM4.59,76.45H91.76V30.37H4.59Z"/><path class="cls-2" d="M78.42,34.35H17.92A9.35,9.35,0,0,1,8.58,43.7V63.12a9.34,9.34,0,0,1,9.34,9.34h60.5a9.35,9.35,0,0,1,9.35-9.34V43.7A9.36,9.36,0,0,1,78.42,34.35ZM48.17,68.75A15.35,15.35,0,1,1,63.51,53.41,15.34,15.34,0,0,1,48.17,68.75Z"/><path class="cls-1" d="M49.4,63.05H47a5.94,5.94,0,0,1-6-6h4.58a1.42,1.42,0,0,0,.42,1,1.39,1.39,0,0,0,1,.38H49.4a1.42,1.42,0,0,0,1-.42,1.43,1.43,0,0,0,0-1.93,1.41,1.41,0,0,0-1-.41H47a6,6,0,1,1,0-11.93H49.4a5.92,5.92,0,0,1,6,6H50.77a1.38,1.38,0,0,0-.39-1,1.44,1.44,0,0,0-1-.39H47a1.35,1.35,0,0,0-1.38,1.37,1.46,1.46,0,0,0,.4,1,1.41,1.41,0,0,0,1,.39H49.4a6,6,0,0,1,4.21,1.74,6,6,0,0,1,0,8.45A6,6,0,0,1,49.4,63.05Z"/><rect class="cls-1" x="45.88" y="42.29" width="4.59" height="3.77"/><rect class="cls-1" x="45.88" y="60.75" width="4.59" height="3.77"/><rect class="cls-1" x="69.13" y="51.11" width="10.47" height="4.59"/><rect class="cls-1" x="16.75" y="51.11" width="10.46" height="4.59"/><polygon class="cls-1" points="105.53 90.21 9.18 90.21 9.18 78.74 13.76 78.74 13.76 85.62 100.94 85.62 100.94 39.54 94.06 39.54 94.06 34.96 105.53 34.96 105.53 90.21"/><path class="cls-1" d="M32.82,14.73l-3.24-3.25a39.32,39.32,0,0,1,55.54,0l-3.24,3.25A34.74,34.74,0,0,0,32.82,14.73Z"/><polygon class="cls-1" points="71.76 17.13 71.1 12.59 80.9 11.16 79.48 1.36 84.02 0.7 86.1 15.04 71.76 17.13"/><path class="cls-1" d="M57.35,125.17a39.16,39.16,0,0,1-27.77-11.48l3.24-3.25a34.74,34.74,0,0,0,49.06,0l3.24,3.25A39.16,39.16,0,0,1,57.35,125.17Z"/><polygon class="cls-1" points="30.68 124.47 28.6 110.12 42.95 108.04 43.6 112.58 33.8 114 35.22 123.81 30.68 124.47"/></g></g></svg>