<svg xmlns="http://www.w3.org/2000/svg" viewBox="0 0 114.82 118.22"><defs><style>.cls-1{fill:#2b2d71;}.cls-2{fill:#56bbe8;}.cls-3{fill:#fff;}</style></defs><g id="Layer_2" data-name="Layer 2"><g id="Layer_84" data-name="Layer 84"><path class="cls-1" d="M114.82,118.22H0V47.63L57.41,6.15l57.41,41.48ZM4.59,113.62H110.23V50L57.41,11.81,4.59,50Z"/><rect class="cls-2" x="15.08" y="54.55" width="84.67" height="4.59"/><rect class="cls-2" x="28.97" y="63.15" width="56.66" height="4.59"/><rect class="cls-2" x="43.3" y="71.74" width="28.22" height="4.59"/><rect class="cls-2" x="12.86" width="89.11" height="50.15"/><path class="cls-3" d="M88.39,45.43h-62V43.14a6.56,6.56,0,0,0-6.55-6.56h-2.3v-23h2.3A6.56,6.56,0,0,0,26.43,7V4.72h62V7A6.56,6.56,0,0,0,95,13.57h2.3v23H95a6.56,6.56,0,0,0-6.56,6.56Zm-57.6-4.59H84a11.18,11.18,0,0,1,8.61-8.62V17.93A11.18,11.18,0,0,1,84,9.31H30.79a11.2,11.2,0,0,1-8.62,8.62V32.22A11.2,11.2,0,0,1,30.79,40.84Z"/><path class="cls-3" d="M57.41,37.27a12.2,12.2,0,1,1,12.2-12.19A12.21,12.21,0,0,1,57.41,37.27Zm0-19.8A7.61,7.61,0,1,0,65,25.08,7.61,7.61,0,0,0,57.41,17.47Z"/><rect class="cls-3" x="77.55" y="22.78" width="9.56" height="4.59"/><rect class="cls-3" x="27.71" y="22.78" width="9.56" height="4.59"/><rect class="cls-1" x="52.7" y="63.29" width="64.53" height="4.59" transform="translate(-21.71 53.76) rotate(-31.34)"/><rect class="cls-1" x="27.56" y="33.32" width="4.59" height="64.53" transform="translate(-41.69 56.97) rotate(-58.66)"/><polygon class="cls-1" points="3.49 117.88 1.1 113.96 57.41 79.68 113.72 113.96 111.33 117.88 57.41 85.06 3.49 117.88"/></g></g></svg>