<svg xmlns="http://www.w3.org/2000/svg" viewBox="0 0 114.83 114.83"><defs><style>.cls-1{fill:#2b2d71;}.cls-2{fill:#56bbe8;}.cls-3{fill:#9d6bbd;}</style></defs><g id="Layer_2" data-name="Layer 2"><g id="Layer_99" data-name="Layer 99"><path class="cls-1" d="M31.74,114.83A31.74,31.74,0,1,1,63.47,83.09,31.78,31.78,0,0,1,31.74,114.83Zm0-58.88A27.14,27.14,0,1,0,58.88,83.09,27.17,27.17,0,0,0,31.74,56Z"/><path class="cls-2" d="M53.32,83.09A21.59,21.59,0,1,1,31.74,61.5,21.59,21.59,0,0,1,53.32,83.09Z"/><path class="cls-1" d="M83.09,63.47a31.74,31.74,0,1,1,31.74-31.73A31.78,31.78,0,0,1,83.09,63.47Zm0-58.88a27.15,27.15,0,1,0,27.14,27.15A27.17,27.17,0,0,0,83.09,4.59Z"/><circle class="cls-3" cx="83.09" cy="31.74" r="21.59"/><path class="cls-1" d="M12,31.74H7.36A24.38,24.38,0,0,1,31.74,7.36V12A19.8,19.8,0,0,0,12,31.74Z"/><path class="cls-1" d="M83.09,107.47v-4.6a19.77,19.77,0,0,0,19.78-19.78h4.6a24.38,24.38,0,0,1-24.38,24.38Z"/></g></g></svg>