<svg xmlns="http://www.w3.org/2000/svg" width="77.953" height="94.735" viewBox="0 0 77.953 94.735">
  <g id="Icon" transform="translate(0 0)">
    <path id="Path_3284" data-name="Path 3284" d="M6.761,81.515V94.734H39.84V91.275H10.22v-9.76Z" fill="#000b63"/>
    <path id="Path_3285" data-name="Path 3285" d="M3.46,83.218l67.016.023,1.651,1.65-1.658,1.628H3.46ZM0,79.782V90H71.9l5.109-5.111L71.9,79.782Z" fill="#000b63"/>
    <rect id="Rectangle_3818" data-name="Rectangle 3818" width="3.459" height="6.76" transform="translate(38.106 81.515)" fill="#000b63"/>
    <rect id="Rectangle_3819" data-name="Rectangle 3819" width="3.384" height="3.459" transform="translate(74.569 83.165)" fill="#000b63"/>
    <path id="Path_3286" data-name="Path 3286" d="M6.573,0V73.811H10.5V3.819H67.446V73.811H71.38V0Z" fill="#000b63"/>
    <rect id="Rectangle_3820" data-name="Rectangle 3820" width="45.084" height="14.321" transform="translate(16.435 20.428)" fill="#8347ad"/>
    <rect id="Rectangle_3821" data-name="Rectangle 3821" width="45.084" height="3.934" transform="translate(16.435 11.055)" fill="#000b63"/>
    <rect id="Rectangle_3822" data-name="Rectangle 3822" width="19.561" height="3.935" transform="translate(16.435 62.402)" fill="#000b63"/>
    <rect id="Rectangle_3823" data-name="Rectangle 3823" width="19.561" height="3.935" transform="translate(16.435 69.798)" fill="#000b63"/>
    <rect id="Rectangle_3824" data-name="Rectangle 3824" width="19.552" height="3.934" transform="translate(41.975 40.178)" fill="#000b63"/>
    <rect id="Rectangle_3825" data-name="Rectangle 3825" width="19.552" height="3.934" transform="translate(41.975 47.583)" fill="#000b63"/>
    <rect id="Rectangle_3826" data-name="Rectangle 3826" width="19.552" height="3.934" transform="translate(41.975 54.988)" fill="#000b63"/>
    <rect id="Rectangle_3827" data-name="Rectangle 3827" width="19.552" height="3.935" transform="translate(41.975 62.402)" fill="#000b63"/>
    <rect id="Rectangle_3828" data-name="Rectangle 3828" width="19.552" height="3.935" transform="translate(41.975 69.798)" fill="#000b63"/>
    <rect id="Rectangle_3829" data-name="Rectangle 3829" width="15.463" height="14.81" transform="translate(18.479 42.145)" fill="#2cabe2"/>
    <path id="Path_3287" data-name="Path 3287" d="M35.91,58.922h-19.4V40.177h19.4ZM20.446,54.988H31.975V44.112H20.446Z" fill="#000b63"/>
  </g>
</svg>
