<svg id="Icon" xmlns="http://www.w3.org/2000/svg" width="57.685" height="70.099" viewBox="0 0 57.685 70.099">
  <path id="Path_4095" data-name="Path 4095" d="M4.933,70.1h47.83V67.877a2.714,2.714,0,0,1-2.72-2.71V35.913H0V65.162A4.942,4.942,0,0,0,4.933,70.1m43.694-2.222H4.933a2.715,2.715,0,0,1-2.715-2.715V38.131h45.6V65.186a4.915,4.915,0,0,0,.812,2.691" fill="#2b2d71"/>
  <path id="Path_4096" data-name="Path 4096" d="M38.588,33.676v-3.1H51.641v3.1h3.827V65.161a2.716,2.716,0,0,1-2.715,2.716h0V70.1a4.942,4.942,0,0,0,4.933-4.938V31.468H53.859V28.362H36.445v3.106" fill="#2b2d71"/>
  <rect id="Rectangle_4309" data-name="Rectangle 4309" width="15.533" height="5.324" transform="translate(28.953 41.459)" fill="#2cabe2"/>
  <rect id="Rectangle_4310" data-name="Rectangle 4310" width="15.533" height="21.192" transform="translate(7.495 40.897)" fill="#8347ad"/>
  <rect id="Rectangle_4311" data-name="Rectangle 4311" width="15.533" height="2.218" transform="translate(28.953 48.89)" fill="#2b2d71"/>
  <rect id="Rectangle_4312" data-name="Rectangle 4312" width="7.764" height="2.218" transform="translate(36.722 53.218)" fill="#2b2d71"/>
  <path id="Path_4097" data-name="Path 4097" d="M38.588,38.061H0V0H29.852l8.736,8.74ZM2.138,35.913H36.445V9.625L28.958,2.138H2.138Z" fill="#2b2d71"/>
  <path id="Path_4098" data-name="Path 4098" d="M37.517,10.252h-9.18V1.072H30.48V8.109h7.037Z" fill="#2b2d71"/>
  <rect id="Rectangle_4313" data-name="Rectangle 4313" width="13.162" height="2.148" transform="translate(6.13 8.108)" fill="#2b2d71"/>
  <rect id="Rectangle_4314" data-name="Rectangle 4314" width="2.148" height="4.905" transform="translate(6.13 26.38)" fill="#2b2d71"/>
  <rect id="Rectangle_4315" data-name="Rectangle 4315" width="2.148" height="8.054" transform="translate(10.158 23.236)" fill="#2b2d71"/>
  <rect id="Rectangle_4316" data-name="Rectangle 4316" width="2.148" height="6.697" transform="translate(14.187 24.593)" fill="#2b2d71"/>
  <rect id="Rectangle_4317" data-name="Rectangle 4317" width="2.148" height="10.665" transform="translate(18.22 20.625)" fill="#2b2d71"/>
  <rect id="Rectangle_4318" data-name="Rectangle 4318" width="2.148" height="9.556" transform="translate(22.249 21.734)" fill="#2b2d71"/>
  <rect id="Rectangle_4319" data-name="Rectangle 4319" width="2.148" height="14.993" transform="translate(26.278 16.297)" fill="#2b2d71"/>
  <rect id="Rectangle_4320" data-name="Rectangle 4320" width="2.148" height="12.883" transform="translate(30.311 18.407)" fill="#2b2d71"/>
</svg>
