<svg id="Icon" xmlns="http://www.w3.org/2000/svg" width="55.286" height="63.467" viewBox="0 0 55.286 63.467">
  <rect id="Rectangle_4296" data-name="Rectangle 4296" width="50.644" height="4.2" transform="translate(2.331 48.678)" fill="#2cabe2"/>
  <path id="Path_4090" data-name="Path 4090" d="M34.633,57.268v3.888H20.652V57.268h-2.3v6.2H36.939v-6.2Z" fill="#000b63"/>
  <rect id="Rectangle_4297" data-name="Rectangle 4297" width="25.585" height="2.306" transform="translate(14.85 61.157)" fill="#000b63"/>
  <g id="Group_5822" data-name="Group 5822">
    <path id="Path_4091" data-name="Path 4091" d="M55.286,48.678H0V17.966a3.115,3.115,0,0,1,3.11-3.11H52.176a3.07,3.07,0,0,1,2.19.914,3.1,3.1,0,0,1,.91,2.2ZM2.306,46.367H52.975v-28.4a.782.782,0,0,0-.236-.568.79.79,0,0,0-.563-.236H3.11a.8.8,0,0,0-.8.8Z" fill="#000b63"/>
    <path id="Path_4092" data-name="Path 4092" d="M52.176,55.189H3.11A3.105,3.105,0,0,1,0,52.089V46.367H55.286v5.717a3.1,3.1,0,0,1-3.1,3.1h-.005M2.331,48.658v3.406a.8.8,0,0,0,.8.8H52.176a.8.8,0,0,0,.8-.8V48.678Z" fill="#000b63"/>
    <path id="Path_4093" data-name="Path 4093" d="M47.555,31.768H7.75V6.635H47.555ZM9.963,29.555H45.342V8.848H9.963Z" fill="#000b63"/>
    <path id="Path_4094" data-name="Path 4094" d="M47.555,8.847H7.75V0H47.555ZM9.963,6.634H45.342V2.213H9.963Z" fill="#000b63"/>
    <rect id="Rectangle_4298" data-name="Rectangle 4298" width="2.213" height="2.213" transform="translate(13.058 3.317)" fill="#000b63"/>
    <rect id="Rectangle_4299" data-name="Rectangle 4299" width="2.213" height="2.213" transform="translate(17.48 3.317)" fill="#000b63"/>
    <rect id="Rectangle_4300" data-name="Rectangle 4300" width="2.213" height="2.213" transform="translate(21.905 3.317)" fill="#000b63"/>
    <rect id="Rectangle_4301" data-name="Rectangle 4301" width="35.379" height="20.707" transform="translate(9.963 8.848)" fill="#fff"/>
    <rect id="Rectangle_4302" data-name="Rectangle 4302" width="13.858" height="2.28" transform="translate(28.092 22.508)" fill="#000b63"/>
    <rect id="Rectangle_4303" data-name="Rectangle 4303" width="2.213" height="2.28" transform="translate(13.058 22.508)" fill="#000b63"/>
    <rect id="Rectangle_4304" data-name="Rectangle 4304" width="2.213" height="2.28" transform="translate(17.48 22.508)" fill="#000b63"/>
    <rect id="Rectangle_4305" data-name="Rectangle 4305" width="2.213" height="2.28" transform="translate(21.901 22.508)" fill="#000b63"/>
    <rect id="Rectangle_4306" data-name="Rectangle 4306" width="13.858" height="7.109" transform="translate(28.092 12.766)" fill="#8347ad"/>
    <rect id="Rectangle_4307" data-name="Rectangle 4307" width="8.783" height="2.28" transform="translate(30.627 15.18)" fill="#fff"/>
  </g>
</svg>
