<svg xmlns="http://www.w3.org/2000/svg" width="50.066" height="70.425" viewBox="0 0 50.066 70.425">
  <g id="Icon" transform="translate(0 0)">
    <path id="Path_4079" data-name="Path 4079" d="M14.833,15.094h5.034V5.033h7.541V15.094h5.034V67.912H14.833Zm2.515-12.58V12.6H12.32V70.425H34.956L34.977,12.6H29.944V2.514Z" fill="#000b63"/>
    <rect id="Rectangle_4259" data-name="Rectangle 4259" width="2.514" height="3.774" transform="translate(22.381 0)" fill="#000b63"/>
    <rect id="Rectangle_4260" data-name="Rectangle 4260" width="2.514" height="2.514" transform="translate(37.469 42.757)" fill="#000b63"/>
    <rect id="Rectangle_4261" data-name="Rectangle 4261" width="2.514" height="2.514" transform="translate(27.414 17.601)" fill="#000b63"/>
    <rect id="Rectangle_4262" data-name="Rectangle 4262" width="2.514" height="2.514" transform="translate(22.387 17.601)" fill="#000b63"/>
    <rect id="Rectangle_4263" data-name="Rectangle 4263" width="2.514" height="2.514" transform="translate(17.359 17.601)" fill="#000b63"/>
    <rect id="Rectangle_4264" data-name="Rectangle 4264" width="2.514" height="2.514" transform="translate(27.414 23.868)" fill="#000b63"/>
    <rect id="Rectangle_4265" data-name="Rectangle 4265" width="2.514" height="2.514" transform="translate(22.387 23.868)" fill="#000b63"/>
    <rect id="Rectangle_4266" data-name="Rectangle 4266" width="2.514" height="2.514" transform="translate(17.359 23.868)" fill="#000b63"/>
    <rect id="Rectangle_4267" data-name="Rectangle 4267" width="2.514" height="2.514" transform="translate(27.414 30.136)" fill="#000b63"/>
    <rect id="Rectangle_4268" data-name="Rectangle 4268" width="2.514" height="2.514" transform="translate(22.387 30.136)" fill="#000b63"/>
    <rect id="Rectangle_4269" data-name="Rectangle 4269" width="2.514" height="2.514" transform="translate(17.359 30.136)" fill="#000b63"/>
    <rect id="Rectangle_4270" data-name="Rectangle 4270" width="2.514" height="2.514" transform="translate(27.414 36.403)" fill="#000b63"/>
    <rect id="Rectangle_4271" data-name="Rectangle 4271" width="2.514" height="2.514" transform="translate(22.387 36.403)" fill="#000b63"/>
    <rect id="Rectangle_4272" data-name="Rectangle 4272" width="2.514" height="2.514" transform="translate(17.359 36.403)" fill="#000b63"/>
    <rect id="Rectangle_4273" data-name="Rectangle 4273" width="2.514" height="2.514" transform="translate(27.414 42.671)" fill="#000b63"/>
    <rect id="Rectangle_4274" data-name="Rectangle 4274" width="2.514" height="2.514" transform="translate(22.387 42.671)" fill="#000b63"/>
    <rect id="Rectangle_4275" data-name="Rectangle 4275" width="2.514" height="2.514" transform="translate(17.359 42.671)" fill="#000b63"/>
    <rect id="Rectangle_4276" data-name="Rectangle 4276" width="2.514" height="2.514" transform="translate(27.414 48.938)" fill="#000b63"/>
    <rect id="Rectangle_4277" data-name="Rectangle 4277" width="2.514" height="2.514" transform="translate(22.387 48.938)" fill="#000b63"/>
    <rect id="Rectangle_4278" data-name="Rectangle 4278" width="2.514" height="2.514" transform="translate(17.359 48.938)" fill="#000b63"/>
    <rect id="Rectangle_4279" data-name="Rectangle 4279" width="2.514" height="2.514" transform="translate(27.414 55.206)" fill="#000b63"/>
    <rect id="Rectangle_4280" data-name="Rectangle 4280" width="2.514" height="2.514" transform="translate(22.387 55.206)" fill="#000b63"/>
    <rect id="Rectangle_4281" data-name="Rectangle 4281" width="2.514" height="2.514" transform="translate(17.359 55.206)" fill="#000b63"/>
    <rect id="Rectangle_4282" data-name="Rectangle 4282" width="2.514" height="2.514" transform="translate(27.414 61.473)" fill="#000b63"/>
    <rect id="Rectangle_4283" data-name="Rectangle 4283" width="2.514" height="2.514" transform="translate(22.387 61.473)" fill="#000b63"/>
    <rect id="Rectangle_4284" data-name="Rectangle 4284" width="2.514" height="2.514" transform="translate(17.359 61.473)" fill="#000b63"/>
    <rect id="Rectangle_4285" data-name="Rectangle 4285" width="2.514" height="2.514" transform="translate(37.469 47.784)" fill="#000b63"/>
    <path id="Path_4080" data-name="Path 4080" d="M34.956,40.243H42.5V50.3h5.055V67.911h-12.6Zm-2.514-2.514v32.7h17.6l.023-22.64H45.038V37.729Z" fill="#000b63"/>
    <rect id="Rectangle_4286" data-name="Rectangle 4286" width="2.514" height="12.575" transform="translate(6.295 52.817)" fill="#56bbe8"/>
    <path id="Path_4081" data-name="Path 4081" d="M2.519,50.3H8.7V40.243h3.644V67.911H2.519ZM6.163,37.729V47.785H0v22.64H14.834l.022-32.7Z" fill="#000b63"/>
    <rect id="Rectangle_4287" data-name="Rectangle 4287" width="7.541" height="12.575" transform="translate(37.469 52.817)" fill="#8347ad"/>
  </g>
</svg>
