<svg id="Icon" xmlns="http://www.w3.org/2000/svg" width="79.829" height="81.505" viewBox="0 0 79.829 81.505">
  <rect id="Rectangle_5711" data-name="Rectangle 5711" width="79.829" height="9.363" transform="translate(0 72.142)" fill="#8347ad"/>
  <path id="Path_5960" data-name="Path 5960" d="M3.231,36.071h73.36v2.893H3.231ZM0,42.2H79.829V32.841H0Z" fill="#000b63"/>
  <rect id="Rectangle_5712" data-name="Rectangle 5712" width="3.231" height="23.9" transform="translate(70.467 45.223)" fill="#000b63"/>
  <rect id="Rectangle_5713" data-name="Rectangle 5713" width="3.231" height="23.9" transform="translate(61.273 45.223)" fill="#000b63"/>
  <rect id="Rectangle_5714" data-name="Rectangle 5714" width="3.231" height="23.9" transform="translate(52.086 45.223)" fill="#000b63"/>
  <rect id="Rectangle_5715" data-name="Rectangle 5715" width="3.231" height="23.9" transform="translate(42.893 45.223)" fill="#000b63"/>
  <rect id="Rectangle_5716" data-name="Rectangle 5716" width="3.231" height="23.9" transform="translate(33.699 45.223)" fill="#000b63"/>
  <rect id="Rectangle_5717" data-name="Rectangle 5717" width="3.231" height="23.9" transform="translate(24.512 45.223)" fill="#000b63"/>
  <rect id="Rectangle_5718" data-name="Rectangle 5718" width="3.231" height="23.9" transform="translate(15.318 45.223)" fill="#000b63"/>
  <rect id="Rectangle_5719" data-name="Rectangle 5719" width="3.231" height="23.9" transform="translate(6.124 45.223)" fill="#000b63"/>
  <path id="Path_5961" data-name="Path 5961" d="M39.915,0,6.6,33.312,8.891,35.6,39.915,4.576,70.938,35.6l2.289-2.288Z" fill="#000b63"/>
  <path id="Path_5962" data-name="Path 5962" d="M47.264,22.048a7.357,7.357,0,1,1-7.356-7.356h.007a7.342,7.342,0,0,1,7.349,7.335v.021" fill="#2cabe2"/>
</svg>
