<svg xmlns="http://www.w3.org/2000/svg" width="30.004" height="46.998" viewBox="0 0 30.004 46.998">
  <path id="Mouse" d="M1720.714,2101.757a8.9,8.9,0,0,1-8-4.937v-.031l-2.812-5.594v-.032a11.694,11.694,0,0,1-1.094-4.5,7.159,7.159,0,0,1,2.343-5.562,3.875,3.875,0,0,1,1.656-.906v-21.531a3.87,3.87,0,0,1,1.343-2.938,4.121,4.121,0,0,1,5.345.032,3.952,3.952,0,0,1,1.312,3v10.594a3.773,3.773,0,0,1,2-.594,3.841,3.841,0,0,1,3.344,1.968,4,4,0,0,1,2.656-.968,3.626,3.626,0,0,1,3.124,1.968,6.458,6.458,0,0,1,.313.905,4.076,4.076,0,0,1,2.562-.873,3.728,3.728,0,0,1,3.312,2,6.452,6.452,0,0,1,.688,3v16a9.031,9.031,0,0,1-9,9Z" transform="translate(-1708.803 -2054.759)" fill="#6f3c94"/>
</svg>
