<svg id="Icon" xmlns="http://www.w3.org/2000/svg" width="99.741" height="86.455" viewBox="0 0 99.741 86.455">
  <path id="Path_4131" data-name="Path 4131" d="M27.821,38.546l7.726,15.5,3.5-7.009L56.857,82.863H5.779ZM0,86.454H62.636L39.037,39l-3.5,7.009L27.821,30.492Z" transform="translate(0 0.001)" fill="#000b63"/>
  <path id="Path_4132" data-name="Path 4132" d="M29.5,60.456,17.47,84.655H41.538Z" transform="translate(0 0.001)" fill="#56bbe8"/>
  <path id="Path_4133" data-name="Path 4133" d="M59.576,21.5l-31.4,63.159H90.98Z" transform="translate(0 0.001)" fill="#56bbe8"/>
  <path id="Path_4134" data-name="Path 4134" d="M47.355,84.655H99.734L73.541,31.98Z" transform="translate(0 0.001)" fill="#56bbe8"/>
  <rect id="Rectangle_4386" data-name="Rectangle 4386" width="96.844" height="3.59" transform="translate(2.897 82.857)" fill="#000b63"/>
  <path id="Path_4135" data-name="Path 4135" d="M51,85.45l-3.217-1.6,19.76-39.73,7.8,15.694L90.239,29.87l3.209,1.6-18.1,36.4-7.8-15.694Z" transform="translate(0 0.001)" fill="#000b63"/>
  <path id="Path_4136" data-name="Path 4136" d="M92.771,39.068l-2.056-6.13L84.585,35,83.44,31.6l9.534-3.2,3.193,9.534Z" transform="translate(0 0.001)" fill="#000b63"/>
  <rect id="Rectangle_4387" data-name="Rectangle 4387" width="14.347" height="10.757" transform="translate(59.576)" fill="#9d6bbd"/>
  <rect id="Rectangle_4388" data-name="Rectangle 4388" width="3.583" height="25.104" transform="translate(57.785)" fill="#000b63"/>
</svg>
