<?xml version="1.0" encoding="utf-8"?>
<!-- Generator: Adobe Illustrator 25.0.0, SVG Export Plug-In . SVG Version: 6.00 Build 0)  -->
<svg version="1.1" id="Layer_1" xmlns="http://www.w3.org/2000/svg" xmlns:xlink="http://www.w3.org/1999/xlink" x="0px" y="0px"
	 viewBox="0 0 137.6 143.2" style="enable-background:new 0 0 137.6 143.2;" xml:space="preserve">
<style type="text/css">
	.st0{fill:#451C9F;}
</style>
<g id="Saudi_Logo">
	<path id="Path_5644" class="st0" d="M68.8,113.4L51,127.9l-0.1-0.1c-1.4-1.8-1.7-2.7-1.6-3.1c0.9,0,1.9-0.3,2.7-0.8
		c1.2-1.3,1.2-3.3-0.1-4.6c-1-1-2.6-1.2-3.9-0.5c-0.5,0.4-0.8,1-1.1,1.6c-1.8,4.1-1.4,7.2,0.7,9.8l0.1,0.1l-3.2,2.6
		c-4.5,3.6-6.1-2-6.1-2c-1.9-4.8-7.3-1.8-7.3-1.8c-5.8,3-3,7-3,7c7,13.5,20.2,3.3,20.2,3.3l4.1-3.2l0.3,0.3c2.1,2.7,5,3.8,9.4,3
		c0.6-0.1,1.3-0.3,1.8-0.7c1.2-1.3,1.2-3.3-0.1-4.6c-1-1-2.6-1.2-3.9-0.5c-0.7,0.7-1.2,1.5-1.4,2.4c-0.4,0-1.2-0.4-2.6-2.2l-0.3-0.3
		L75,118.5c38.2-32.8,62.6-29.4,62.6-29.4C106.9,78,68.8,113.4,68.8,113.4"/>
	<path id="Path_5645" class="st0" d="M68.7,113.4l17.9,14.5l0.1-0.1c1.4-1.8,1.7-2.7,1.6-3.1c-0.9,0-1.9-0.3-2.7-0.8
		c-1.2-1.3-1.2-3.3,0.1-4.6c1-1,2.6-1.2,3.9-0.5c0.5,0.4,0.8,1,1.1,1.6c1.8,4.1,1.4,7.2-0.7,9.8c0,0-0.1,0.1-0.1,0.1l3.2,2.6
		c4.5,3.6,6.1-2,6.1-2c1.9-4.8,7.3-1.8,7.3-1.8c5.8,3,3,7,3,7c-7,13.5-20.2,3.3-20.2,3.3l-4.1-3.2l-0.3,0.3c-2.1,2.7-5,3.8-9.4,3
		c-0.6-0.1-1.3-0.3-1.8-0.7c-1.2-1.3-1.2-3.3,0.1-4.6c1-1,2.6-1.2,3.9-0.5c0.7,0.7,1.2,1.5,1.4,2.4c0.4,0,1.2-0.4,2.6-2.2l0.3-0.3
		l-19.4-15.3C24.3,85.7,0,89.1,0,89.1C30.7,78,68.7,113.4,68.7,113.4"/>
	<path id="Path_5646" class="st0" d="M85.5,22.9c9.3-1.4,15.5,10,15.5,10c-1.2-18.2-20.7-15.5-20.7-15.5c4.9-3.9,14.9,1,14.9,1
		C88,8.3,77.5,11.2,77.5,11.2c1.2-2.3,8.7-1.8,8.7-1.8c-6.8-6.6-14.7,0-14.7,0C71.9,5.7,68.8,0,68.8,0s-3,5.7-2.6,9.4
		c0,0-7.9-6.6-14.6,0c0,0,7.5-0.5,8.7,1.8c0,0-10.4-2.9-17.7,7.2c0,0,10-4.9,14.9-1c0,0-19.5-2.7-20.7,15.5c0,0,6.2-11.4,15.5-10
		c0,0-19.8,5.6-10.3,23.1c0,0-0.5-14.5,10.9-17.8c0,0-15,11.9-1.5,21.9c0,0-2.8-11.3,5.1-16.4c-3.1,8.1-1,17.3,5.3,23.3
		c0,0-2.5-10.8,4.8-16.8V95l-4.1,5.3h12.9L71.4,95V40.2c6.9,5.9,4.7,16.8,4.7,16.8c6.3-6,8.4-15.2,5.3-23.3c7.8,5.1,5,16.4,5,16.4
		c13.5-10-1.5-21.9-1.5-21.9c11.4,3.3,10.9,17.8,10.9,17.8C105.3,28.4,85.5,22.9,85.5,22.9"/>
</g>
</svg>
