<svg xmlns="http://www.w3.org/2000/svg" width="50.066" height="70.425" viewBox="0 0 50.066 70.425">
  <g id="Icon" transform="translate(0 0)">
    <path id="Path_4128" data-name="Path 4128" d="M14.833,15.094h5.034V5.033h7.541V15.094h5.034V67.912H14.833Zm2.515-12.58V12.6H12.32V70.425H34.956L34.977,12.6H29.944V2.514Z" fill="#000b63"/>
    <rect id="Rectangle_4357" data-name="Rectangle 4357" width="2.514" height="3.774" transform="translate(22.381 0)" fill="#000b63"/>
    <rect id="Rectangle_4358" data-name="Rectangle 4358" width="2.514" height="2.514" transform="translate(37.469 42.757)" fill="#000b63"/>
    <rect id="Rectangle_4359" data-name="Rectangle 4359" width="2.514" height="2.514" transform="translate(27.414 17.601)" fill="#000b63"/>
    <rect id="Rectangle_4360" data-name="Rectangle 4360" width="2.514" height="2.514" transform="translate(22.387 17.601)" fill="#000b63"/>
    <rect id="Rectangle_4361" data-name="Rectangle 4361" width="2.514" height="2.514" transform="translate(17.359 17.601)" fill="#000b63"/>
    <rect id="Rectangle_4362" data-name="Rectangle 4362" width="2.514" height="2.514" transform="translate(27.414 23.868)" fill="#000b63"/>
    <rect id="Rectangle_4363" data-name="Rectangle 4363" width="2.514" height="2.514" transform="translate(22.387 23.868)" fill="#000b63"/>
    <rect id="Rectangle_4364" data-name="Rectangle 4364" width="2.514" height="2.514" transform="translate(17.359 23.868)" fill="#000b63"/>
    <rect id="Rectangle_4365" data-name="Rectangle 4365" width="2.514" height="2.514" transform="translate(27.414 30.136)" fill="#000b63"/>
    <rect id="Rectangle_4366" data-name="Rectangle 4366" width="2.514" height="2.514" transform="translate(22.387 30.136)" fill="#000b63"/>
    <rect id="Rectangle_4367" data-name="Rectangle 4367" width="2.514" height="2.514" transform="translate(17.359 30.136)" fill="#000b63"/>
    <rect id="Rectangle_4368" data-name="Rectangle 4368" width="2.514" height="2.514" transform="translate(27.414 36.403)" fill="#000b63"/>
    <rect id="Rectangle_4369" data-name="Rectangle 4369" width="2.514" height="2.514" transform="translate(22.387 36.403)" fill="#000b63"/>
    <rect id="Rectangle_4370" data-name="Rectangle 4370" width="2.514" height="2.514" transform="translate(17.359 36.403)" fill="#000b63"/>
    <rect id="Rectangle_4371" data-name="Rectangle 4371" width="2.514" height="2.514" transform="translate(27.414 42.671)" fill="#000b63"/>
    <rect id="Rectangle_4372" data-name="Rectangle 4372" width="2.514" height="2.514" transform="translate(22.387 42.671)" fill="#000b63"/>
    <rect id="Rectangle_4373" data-name="Rectangle 4373" width="2.514" height="2.514" transform="translate(17.359 42.671)" fill="#000b63"/>
    <rect id="Rectangle_4374" data-name="Rectangle 4374" width="2.514" height="2.514" transform="translate(27.414 48.938)" fill="#000b63"/>
    <rect id="Rectangle_4375" data-name="Rectangle 4375" width="2.514" height="2.514" transform="translate(22.387 48.938)" fill="#000b63"/>
    <rect id="Rectangle_4376" data-name="Rectangle 4376" width="2.514" height="2.514" transform="translate(17.359 48.938)" fill="#000b63"/>
    <rect id="Rectangle_4377" data-name="Rectangle 4377" width="2.514" height="2.514" transform="translate(27.414 55.206)" fill="#000b63"/>
    <rect id="Rectangle_4378" data-name="Rectangle 4378" width="2.514" height="2.514" transform="translate(22.387 55.206)" fill="#000b63"/>
    <rect id="Rectangle_4379" data-name="Rectangle 4379" width="2.514" height="2.514" transform="translate(17.359 55.206)" fill="#000b63"/>
    <rect id="Rectangle_4380" data-name="Rectangle 4380" width="2.514" height="2.514" transform="translate(27.414 61.473)" fill="#000b63"/>
    <rect id="Rectangle_4381" data-name="Rectangle 4381" width="2.514" height="2.514" transform="translate(22.387 61.473)" fill="#000b63"/>
    <rect id="Rectangle_4382" data-name="Rectangle 4382" width="2.514" height="2.514" transform="translate(17.359 61.473)" fill="#000b63"/>
    <rect id="Rectangle_4383" data-name="Rectangle 4383" width="2.514" height="2.514" transform="translate(37.469 47.784)" fill="#000b63"/>
    <path id="Path_4129" data-name="Path 4129" d="M34.956,40.243H42.5V50.3h5.055V67.911h-12.6Zm-2.514-2.514v32.7h17.6l.023-22.64H45.038V37.729Z" fill="#000b63"/>
    <rect id="Rectangle_4384" data-name="Rectangle 4384" width="2.514" height="12.575" transform="translate(6.295 52.817)" fill="#56bbe8"/>
    <path id="Path_4130" data-name="Path 4130" d="M2.519,50.3H8.7V40.243h3.644V67.911H2.519ZM6.163,37.729V47.785H0v22.64H14.834l.022-32.7Z" fill="#000b63"/>
    <rect id="Rectangle_4385" data-name="Rectangle 4385" width="7.541" height="12.575" transform="translate(37.469 52.817)" fill="#8347ad"/>
  </g>
</svg>
