<svg id="Icon" xmlns="http://www.w3.org/2000/svg" width="47.547" height="51.018" viewBox="0 0 47.547 51.018">
  <path id="Path_4106" data-name="Path 4106" d="M47.547,23.775H45.718V22.452l-5.062-.778-.108-.657a16.92,16.92,0,0,0-.869-3.249l-.219-.629,3.986-3.189-1.324-2.292-4.783,1.858-.4-.515a17.72,17.72,0,0,0-2.392-2.391l-.514-.419,1.858-4.783L33.6,4.105,30.412,8.091l-.622-.235a16.891,16.891,0,0,0-3.248-.869l-.658-.108-.773-5.05H22.452l-.777,5.058-.657.108a16.9,16.9,0,0,0-3.249.869l-.63.235L13.951,4.113,11.659,5.436l1.857,4.783L13,10.638a17.6,17.6,0,0,0-2.391,2.391l-.411.483L5.417,11.654l-1.311,2.3,3.986,3.189-.236.621a17.067,17.067,0,0,0-.869,3.249l-.107.658-5.05.785v1.323H0V20.881l5.309-.8a18.671,18.671,0,0,1,.618-2.312l-4.189-3.38,2.894-5.01,5.006,1.949a19.483,19.483,0,0,1,1.694-1.694L9.383,4.631l5.01-2.893,3.36,4.189a19.029,19.029,0,0,1,2.312-.618L20.882,0h5.783l.8,5.309a18.436,18.436,0,0,1,2.311.618l3.38-4.189,5.01,2.893L36.215,9.637a18.939,18.939,0,0,1,1.694,1.694l5.006-1.949,2.894,5.01-4.189,3.36a18.5,18.5,0,0,1,.618,2.312l5.309.8Z" fill="#2b2d71"/>
  <path id="Path_4107" data-name="Path 4107" d="M18.291,23.775a5.484,5.484,0,0,1,10.965-.3c0,.1,0,.2,0,.3h7.549a13.033,13.033,0,1,0-26.063-.456q0,.228,0,.456Z" fill="#56bbe8"/>
  <path id="Path_4108" data-name="Path 4108" d="M30.173,23.775H28.344a4.572,4.572,0,1,0-9.14-.27q0,.135,0,.27H17.375a6.4,6.4,0,1,1,12.8-.319c0,.106,0,.213,0,.319" fill="#2b2d71"/>
  <rect id="Rectangle_4333" data-name="Rectangle 4333" width="34.808" height="1.829" transform="translate(0 28.347)" fill="#2b2d71"/>
  <rect id="Rectangle_4334" data-name="Rectangle 4334" width="6.521" height="1.829" transform="translate(41.026 28.347)" fill="#2b2d71"/>
  <path id="Path_4109" data-name="Path 4109" d="M36.087,32.368A3.109,3.109,0,1,1,39.2,29.259a3.109,3.109,0,0,1-3.109,3.109m0-4.384a1.28,1.28,0,1,0,1.279,1.279,1.279,1.279,0,0,0-1.279-1.279h0Z" fill="#2b2d71"/>
  <rect id="Rectangle_4335" data-name="Rectangle 4335" width="23.955" height="1.829" transform="translate(0 34.561)" fill="#2b2d71"/>
  <rect id="Rectangle_4336" data-name="Rectangle 4336" width="17.374" height="1.829" transform="translate(30.173 34.561)" fill="#2b2d71"/>
  <path id="Path_4110" data-name="Path 4110" d="M25.238,38.586a3.108,3.108,0,1,1,3.109-3.109A3.109,3.109,0,0,1,25.238,38.586Zm0-4.384a1.28,1.28,0,1,0,1.279,1.279v-.008A1.283,1.283,0,0,0,25.238,34.2Z" fill="#8347ad"/>
  <rect id="Rectangle_4337" data-name="Rectangle 4337" width="6.341" height="1.829" transform="translate(0 40.778)" fill="#2b2d71"/>
  <rect id="Rectangle_4338" data-name="Rectangle 4338" width="34.991" height="1.829" transform="translate(12.555 40.778)" fill="#2b2d71"/>
  <path id="Path_4111" data-name="Path 4111" d="M7.621,44.8a3.108,3.108,0,1,1,3.109-3.109A3.109,3.109,0,0,1,7.621,44.8m0-4.384A1.28,1.28,0,1,0,8.9,41.7,1.279,1.279,0,0,0,7.621,40.42h0Z" fill="#2b2d71"/>
  <rect id="Rectangle_4339" data-name="Rectangle 4339" width="20.236" height="1.829" transform="translate(0 46.996)" fill="#2b2d71"/>
  <rect id="Rectangle_4340" data-name="Rectangle 4340" width="21.093" height="1.829" transform="translate(26.454 46.996)" fill="#2b2d71"/>
  <path id="Path_4112" data-name="Path 4112" d="M21.523,51.018a3.109,3.109,0,1,1,3.109-3.109,3.109,3.109,0,0,1-3.109,3.109m0-4.384A1.28,1.28,0,1,0,22.8,47.913a1.279,1.279,0,0,0-1.279-1.279" fill="#8347ad"/>
</svg>
