<svg id="Icon" xmlns="http://www.w3.org/2000/svg" width="47.547" height="71.322" viewBox="0 0 47.547 71.322">
  <rect id="Rectangle_4344" data-name="Rectangle 4344" width="16.93" height="2.592" transform="translate(18.151 29.349)" fill="#2b2d71"/>
  <rect id="Rectangle_4345" data-name="Rectangle 4345" width="9.018" height="2.592" transform="translate(26.063 24.199)" fill="#56bbe8"/>
  <rect id="Rectangle_4346" data-name="Rectangle 4346" width="16.93" height="2.592" transform="translate(18.151 34.498)" fill="#56bbe8"/>
  <g id="Group_5827" data-name="Group 5827">
    <path id="Path_4117" data-name="Path 4117" d="M12.654,55.626V53.034a4.383,4.383,0,0,1,0-8.766h1.3V0h-1.3A6.98,6.98,0,0,0,5.679,6.975H8.271a4.382,4.382,0,0,1,3.087-4.158V41.794a6.975,6.975,0,0,0,1.3,13.832" fill="#2b2d71"/>
    <rect id="Rectangle_4347" data-name="Rectangle 4347" width="2.592" height="41.67" transform="translate(5.679 6.975)" fill="#2b2d71"/>
    <path id="Path_4118" data-name="Path 4118" d="M44.955,58.158l2.592,1.835V12.666A6.981,6.981,0,0,0,40.572,5.68H12.654V8.271H40.572a4.383,4.383,0,0,1,4.383,4.384Z" fill="#2b2d71"/>
    <rect id="Rectangle_4348" data-name="Rectangle 4348" width="2.592" height="47.338" transform="translate(39.275 6.975)" fill="#2b2d71"/>
    <path id="Path_4119" data-name="Path 4119" d="M0,66.973H40.764a6.981,6.981,0,0,0,0-13.956H2.592v-41.9H6.981v-2.6H0ZM40.764,55.609a4.383,4.383,0,0,1,0,8.767H2.592V55.609Z" fill="#2b2d71"/>
    <path id="Path_4120" data-name="Path 4120" d="M33.98,59.992h6.592v11.33l-3.29-3.29-3.3,3.29Z" fill="#8347ad"/>
  </g>
</svg>
