<svg xmlns="http://www.w3.org/2000/svg" width="48.11" height="63.153" viewBox="0 0 48.11 63.153">
  <g id="Icon" transform="translate(0 0)">
    <path id="Path_4125" data-name="Path 4125" d="M26.283,48.091A26.265,26.265,0,0,1,7.691,3.255l1.666,1.66A23.915,23.915,0,1,0,42.786,39.124q.2-.192.387-.388L44.839,40.4a26.1,26.1,0,0,1-18.556,7.694" fill="#56bbe8"/>
    <rect id="Rectangle_4354" data-name="Rectangle 4354" width="2.35" height="9.216" transform="translate(4.453 1.662) rotate(-45)" fill="#000b63"/>
    <rect id="Rectangle_4355" data-name="Rectangle 4355" width="2.35" height="9.216" transform="translate(39.931 37.139) rotate(-45)" fill="#000b63"/>
    <rect id="Rectangle_4356" data-name="Rectangle 4356" width="23.501" height="7.825" transform="translate(14.467 51.379)" fill="#8347ad"/>
    <path id="Path_4126" data-name="Path 4126" d="M43.843,63.153H8.565v-6.3H43.843Zm-32.922-2.36H41.493V59.2H10.921Z" fill="#000b63"/>
    <path id="Path_4127" data-name="Path 4127" d="M26.271,43.483a21.657,21.657,0,1,1,21.67-21.67,21.713,21.713,0,0,1-21.67,21.67M35.056,4.854c-.636.026-.764.357-.764.942a6.721,6.721,0,0,0,.917,2.649,8.44,8.44,0,0,1,1.222,3.794,3.017,3.017,0,0,1-2.215,3.055,11.066,11.066,0,0,1-3.692.332c-1.91,0-3.413,0-5.195,1.782-1.706,1.706-3.565.789-4.66.229-1.222-.586-1.4-.586-1.757-.229a1.89,1.89,0,0,0-.28,2.063A3.835,3.835,0,0,0,22.3,21.66a4.827,4.827,0,0,0,3.514-1.069,4.71,4.71,0,0,1,2.9-1.07,3.267,3.267,0,0,1,2.8,2.063c1.069,1.808,1.909,2.241,3.947,2.7a5.62,5.62,0,0,1,1.909.637,2.536,2.536,0,0,1,1.2,2.292c0,3.717-2.648,6.213-4.609,8.046a19.2,19.2,0,0,0-1.451,1.477,1.7,1.7,0,0,0-.408.637v2.113a4.389,4.389,0,0,1-.025.56A19.112,19.112,0,0,0,35.056,4.854m.968,22.358v-.153a5.34,5.34,0,0,0-1.095-.306c-2.75-.611-4.151-1.451-5.6-3.87-.153-.28-.433-.764-.586-.815h-.025a2.131,2.131,0,0,0-1.4.586,7.168,7.168,0,0,1-3.921,1.5,2.661,2.661,0,0,1,.178.916v2.089A5.15,5.15,0,0,0,25,28.154c1.273.738,2.852,1.629,2.852,3.361,0,6.748.917,8.607,1.248,9.065a1.98,1.98,0,0,0,.483-1.019V37.372c0-1.452,1.223-2.623,2.649-3.973,1.782-1.655,3.794-3.565,3.794-6.187M15.576,8.8c.866,1.5-.076,3.387-.865,4.66-2.139,3.438-1.987,4.533-1.885,4.762.2.535,1.936.764,3.158,1.248a4.241,4.241,0,0,1,1.146-3.845c1.706-1.732,3.564-.815,4.659-.255,1.223.611,1.4.586,1.757.255,2.522-2.547,4.89-2.521,7-2.521a11.327,11.327,0,0,0,2.852-.2c.382-.127.484-.229.484-.662a6.549,6.549,0,0,0-.942-2.648,8.73,8.73,0,0,1-1.2-3.795,3.707,3.707,0,0,1,.586-2.113A19.037,19.037,0,0,0,13.641,7.477,2.973,2.973,0,0,1,15.576,8.8M23.75,30.369c-1.222-.688-2.724-1.553-2.724-3.157V25.1c-.484-.764-4.839-2.75-5.679-3.158-1.426-.662-4.049-.662-4.889-2.775-.611-1.579,0-3.667,2.088-7.028.866-1.426.84-1.986.815-2.063-.1-.1-.484-.28-1.961-.254A19.1,19.1,0,0,0,26.271,40.937h.153c-.611-1.579-1.12-4.38-1.12-9.422-.051-.306-1.07-.866-1.554-1.146" fill="#000b63"/>
    <rect id="Rectangle_4353" data-name="Rectangle 4353" width="2.35" height="7.168" transform="translate(25.032 46.917)" fill="#000b63"/>
  </g>
</svg>
