<svg id="Icon" xmlns="http://www.w3.org/2000/svg" width="48.664" height="63.425" viewBox="0 0 48.664 63.425">
  <rect id="Rectangle_4322" data-name="Rectangle 4322" width="2.348" height="2.584" transform="translate(14.259 28.422)" fill="#000b63"/>
  <rect id="Rectangle_4323" data-name="Rectangle 4323" width="2.348" height="6.399" transform="translate(18.51 24.607)" fill="#000b63"/>
  <rect id="Rectangle_4324" data-name="Rectangle 4324" width="2.348" height="4.753" transform="translate(22.766 26.254)" fill="#000b63"/>
  <rect id="Rectangle_4325" data-name="Rectangle 4325" width="2.348" height="9.557" transform="translate(27.022 21.449)" fill="#000b63"/>
  <rect id="Rectangle_4326" data-name="Rectangle 4326" width="2.348" height="8.22" transform="translate(31.277 22.788)" fill="#000b63"/>
  <rect id="Rectangle_4327" data-name="Rectangle 4327" width="2.348" height="14.797" transform="translate(35.527 16.203)" fill="#56bbe8"/>
  <rect id="Rectangle_4328" data-name="Rectangle 4328" width="2.348" height="12.244" transform="translate(39.778 18.762)" fill="#000b63"/>
  <rect id="Rectangle_4329" data-name="Rectangle 4329" width="27.872" height="6.819" transform="translate(14.259 37.665)" fill="#8347ad"/>
  <path id="Path_4102" data-name="Path 4102" d="M9.1,8.33h36.24V52.486H9.1Zm-2.348,46.5H47.689V5.982H6.753Z" transform="translate(0.974 0.863)" fill="#000b63"/>
  <path id="Path_4103" data-name="Path 4103" d="M9.1,2.349h36.24v4.5H9.1ZM6.753,9.193H47.689V0H6.753Z" transform="translate(0.974)" fill="#000b63"/>
  <rect id="Rectangle_4330" data-name="Rectangle 4330" width="2.354" height="2.348" transform="translate(12.424 3.384)" fill="#000b63"/>
  <rect id="Rectangle_4331" data-name="Rectangle 4331" width="2.348" height="2.348" transform="translate(17.12 3.384)" fill="#000b63"/>
  <rect id="Rectangle_4332" data-name="Rectangle 4332" width="2.348" height="2.348" transform="translate(21.822 3.384)" fill="#000b63"/>
  <path id="Path_4104" data-name="Path 4104" d="M0,13.761V61.439H40.942V55.723H38.594v3.363H2.348V13.761Z" transform="translate(0 1.986)" fill="#000b63"/>
  <path id="Path_4105" data-name="Path 4105" d="M0,6.752v9.193H5.717V13.6H2.348V9.1H5.717V6.752Z" transform="translate(0 0.974)" fill="#000b63"/>
</svg>
