<svg id="Icon" xmlns="http://www.w3.org/2000/svg" width="82.55" height="86.447" viewBox="0 0 82.55 86.447">
  <path id="Path_3943" data-name="Path 3943" d="M79.09,46.607v29.62H69.33v3.459H82.55V46.607Z" fill="#000b63"/>
  <path id="Path_3944" data-name="Path 3944" d="M71.057,15.971l1.65-1.651,1.627,1.658V82.987h-3.3ZM67.6,14.546v71.9H77.816v-71.9l-5.109-5.11Z" fill="#000b63"/>
  <rect id="Rectangle_3956" data-name="Rectangle 3956" width="6.76" height="3.459" transform="translate(69.331 44.882)" fill="#000b63"/>
  <rect id="Rectangle_3957" data-name="Rectangle 3957" width="3.459" height="3.384" transform="translate(70.981 8.494)" fill="#000b63"/>
  <path id="Path_3945" data-name="Path 3945" d="M3.459,3.46H48.318L60.836,15.978V82.987H3.459ZM0,0V86.447H64.3v-71.9L49.75,0Z" fill="#000b63"/>
  <path id="Path_3946" data-name="Path 3946" d="M62.57,17H47.308V1.726H50.76v11.8H62.57Z" fill="#000b63"/>
  <rect id="Rectangle_3958" data-name="Rectangle 3958" width="20.281" height="3.459" transform="translate(11.87 13.536)" fill="#000b63"/>
  <rect id="Rectangle_3959" data-name="Rectangle 3959" width="40.563" height="3.459" transform="translate(11.87 45.809)" fill="#000b63"/>
  <rect id="Rectangle_3960" data-name="Rectangle 3960" width="14.346" height="3.459" transform="translate(38.214 54.907)" fill="#000b63"/>
  <path id="Path_3947" data-name="Path 3947" d="M27.98,63.362l-2.446-2.446L21.3,65.148,19.53,63.377l-2.446,2.446L21.3,69.982Z" fill="#000b63"/>
  <path id="Path_3948" data-name="Path 3948" d="M12,54.907V76.019H33.067V54.907ZM29.607,72.56H15.457V58.367h14.15Z" fill="#2cabe2"/>
  <rect id="Rectangle_3961" data-name="Rectangle 3961" width="14.346" height="3.459" transform="translate(38.214 63.734)" fill="#000b63"/>
  <rect id="Rectangle_3962" data-name="Rectangle 3962" width="14.346" height="3.459" transform="translate(38.214 72.56)" fill="#000b63"/>
  <rect id="Rectangle_3963" data-name="Rectangle 3963" width="40.563" height="18.751" transform="translate(11.87 22.023)" fill="#8347ad"/>
</svg>
